<svg xmlns="http://www.w3.org/2000/svg" xmlns:xlink="http://www.w3.org/1999/xlink" viewBox="0 0 1624.4 582.4"><defs><radialGradient id="radial-gradient" cx="10821.064" cy="-6424.12" r="501.559" gradientTransform="matrix(0, -1, -1, 0, -5184.601, 10873.597)" gradientUnits="userSpaceOnUse"><stop offset="0" stop-color="#fff"/><stop offset="0.231" stop-color="#fcfcfc"/><stop offset="0.42" stop-color="#f2f2f2"/><stop offset="0.594" stop-color="#e0e0e1"/><stop offset="0.759" stop-color="#c8c8c9"/><stop offset="0.917" stop-color="#aaa"/><stop offset="1" stop-color="#969697"/></radialGradient><radialGradient id="radial-gradient-2" cx="10736.608" cy="-6479.574" r="478.154" gradientTransform="matrix(0, -1, -1, 0, -5184.601, 10873.597)" gradientUnits="userSpaceOnUse"><stop offset="0" stop-color="#fff"/><stop offset="0.258" stop-color="#fcfcfc"/><stop offset="0.468" stop-color="#f2f2f2"/><stop offset="0.662" stop-color="#e0e0e1"/><stop offset="0.846" stop-color="#c9c9c9"/><stop offset="1" stop-color="#aeaeaf"/></radialGradient><radialGradient id="radial-gradient-3" cx="10445.755" cy="-6738.052" r="528.506" gradientTransform="matrix(0, -1, -1, 0, -5184.601, 10873.597)" gradientUnits="userSpaceOnUse"><stop offset="0" stop-color="#fff"/><stop offset="0.165" stop-color="#f8f8f8"/><stop offset="0.411" stop-color="#e3e3e3"/><stop offset="0.709" stop-color="#c2c2c2"/><stop offset="1" stop-color="#9a9a9a"/></radialGradient></defs><g id="Layer_2" data-name="Layer 2"><g id="Layer_1-2" data-name="Layer 1"><path d="M1322.8,582.4H93.7C42,582.4,0,452,0,291.2H0C0,130.4,42,0,93.7,0H1322.8c51.8,0,93.7,130.4,93.7,291.2h0C1416.5,452,1374.5,582.4,1322.8,582.4Z" style="fill:#f2b05a"/><path d="M1398.7,123.7c97.9,0,191.4,70.2,191.4,168.1s-62.1,174.5-160,174.5S1249.2,384.9,1249.2,287C1249.1,189,1300.8,123.7,1398.7,123.7Z" style="fill:#434343;opacity:0.5;isolation:isolate"/><path d="M1417.6,78.5c114.2,0,206.8,92.6,206.8,206.8s-92.6,206.8-206.8,206.8-206.8-92.6-206.8-206.8S1303.4,78.5,1417.6,78.5Z" style="fill:url(#radial-gradient)"/><path d="M1417.6,88.2c108.9,0,197.2,88.3,197.2,197.2s-88.3,197.2-197.2,197.2-197.2-88.3-197.2-197.2,88.3-197.2,197.2-197.2Z" style="fill:url(#radial-gradient-2)"/><path d="M1417.6,126.8a158.5,158.5,0,1,1-158.5,158.5c0-87.5,70.9-158.4,158.5-158.5Z" style="fill:url(#radial-gradient-3)"/><path d="M1417.6,141.2a144.2,144.2,0,1,1-144.2,144.2,144.251,144.251,0,0,1,144.2-144.2Z" style="opacity:0.10000000149011612;isolation:isolate"/><path d="M147.8,138v-7.1h6.9V138Z" style="fill:#606161"/><line x1="48.6" y1="265.7" x2="1181.5" y2="265.7" style="fill:none;stroke:#fff;stroke-miterlimit:10;stroke-width:3px"/><path d="M1450.8,205.4a30.083,30.083,0,0,1,4.9,2.9,8.655,8.655,0,0,1,2.5,6.8v32a2.788,2.788,0,0,0,1.2,2.5,16.031,16.031,0,0,1,4.9,18c-.6,1.6-1.7,2.3-3,1.8-1.2-.4-1.7-1.6-1.1-3.2a11.627,11.627,0,0,0-2.3-12.1,11.648,11.648,0,0,0-20.1,6,21.16,21.16,0,0,0,.4,5.6c.1.3.2.6.3,1a2.154,2.154,0,0,1-4,1.6c0-.1,0-.1-.1-.2a15.9,15.9,0,0,1,.1-12.3,14.472,14.472,0,0,1,4.7-6.2,2.04,2.04,0,0,0,.9-2c0-10.5.1-21.1-.1-31.6-.1-5.2,2.6-9.2,7.2-10.3.1,0,.1-.1.2-.2Zm3.1,40.8V215a4.794,4.794,0,0,0-3.6-5.1,4.627,4.627,0,0,0-5.7,3.3,4.329,4.329,0,0,0-.1,1.6v30.9a1.268,1.268,0,0,0,.1.6h9.3Z" style="fill:#606161"/><path d="M1374.5,205.4c.6.3,1.3.5,1.9.8a9.129,9.129,0,0,1,5.3,8.8v72.5a10.869,10.869,0,0,1-.1,1.8,1.894,1.894,0,0,1-2,1.8h-.1a2.077,2.077,0,0,1-2.1-1.9,8.533,8.533,0,0,1,0-1.6V215.2a4.72,4.72,0,0,0-4-5.3,4.49,4.49,0,0,0-5.3,3.7c0,.2-.1.5-.1.7-.1,2.5,0,5.1-.1,7.7a4.006,4.006,0,0,1-.8,2.3,1.933,1.933,0,0,1-2.8,0,1.984,1.984,0,0,1-.6-1.3,64.987,64.987,0,0,1,.3-10.8,7.99,7.99,0,0,1,5.8-6.2,4.671,4.671,0,0,0,1-.5Z" style="fill:#606161"/><path d="M1412.5,205.4a37.785,37.785,0,0,1,3.5,1.7,8.542,8.542,0,0,1,3.8,6.8,28.054,28.054,0,0,1,0,4.1,2.291,2.291,0,0,1-2.1,2.3,2.135,2.135,0,0,1-2.2-2.1h0c-.1-1.2,0-2.5-.1-3.7a4.61,4.61,0,0,0-4.6-4.7,4.693,4.693,0,0,0-4.7,4.3c-.1,1.2,0,2.5-.1,3.7a2.23,2.23,0,0,1-2,2.4h-.1a2.2,2.2,0,0,1-2.2-2.1v-.2a15.617,15.617,0,0,1,.8-7.1,9.805,9.805,0,0,1,6.6-5.3Z" style="fill:#606161"/><path d="M1471.4,284.8a49.783,49.783,0,0,0,26.6,7,8.052,8.052,0,0,1,3.2,6.4c0,6.8.1,13.6-.1,20.4a36.536,36.536,0,0,1-3.2,13,2.174,2.174,0,0,1-2.7,1.4h0a.1.1,0,0,1-.1-.1,2.321,2.321,0,0,1-1.2-3c.9-3.3,1.9-6.5,2.7-9.8a21.95,21.95,0,0,0,.4-5.1q.15-7.95,0-15.9a4.962,4.962,0,1,0-9.9-.7h0v3.8a2.212,2.212,0,0,1-1.9,2.4h-.2a2.026,2.026,0,0,1-2.2-1.9v-.4c-.1-3.2,0-6.4-.1-9.6a10.554,10.554,0,0,0-.2-2.5,4.911,4.911,0,0,0-5.3-3.5,4.654,4.654,0,0,0-4.2,4.6c-.1,2.5,0,4.9-.1,7.4a2.877,2.877,0,0,1-.5,2,3.244,3.244,0,0,1-2.3.8c-1.2-.1-1.6-1.2-1.6-2.3v-9.4a4.989,4.989,0,0,0-6-4.8,4.567,4.567,0,0,0-3.8,4.2c-.2,3.7-.1,7.4-.1,11.1a10.869,10.869,0,0,1-.1,1.8,2.077,2.077,0,0,1-2.1,1.9h-.1a2.077,2.077,0,0,1-2.1-1.9,6.552,6.552,0,0,1,0-1.4V265.3a5.327,5.327,0,0,0-3.5-5.4,5,5,0,0,0-6.2,3.3,4.253,4.253,0,0,0-.2,1.1v51.3a2.31,2.31,0,0,1-2.1,2.4,2.2,2.2,0,0,1-2.2-2.1h0v-.2c-.1-3.7.1-7.5-.1-11.2a14.992,14.992,0,0,0-3.9-9.2,5.751,5.751,0,0,0-7.2-.8,5.4,5.4,0,0,0-2.5,6.7c2.6,5.5,2.5,11.3,3,17.2a43.711,43.711,0,0,0,5,18,18.179,18.179,0,0,0,17,10h20a22.563,22.563,0,0,0,18.5-9.3,10.627,10.627,0,0,1,.9-1.1,2.131,2.131,0,0,1,3-.6h0a.1.1,0,0,1,.1.1,2.1,2.1,0,0,1,.5,2.9c-.1.1-.1.2-.2.2a46.9,46.9,0,0,1-4.7,5.3,26.071,26.071,0,0,1-18.4,6.9c-6.8-.1-13.6,0-20.4,0a21.648,21.648,0,0,1-19.6-11.3,45.721,45.721,0,0,1-6-19.7c-.4-4-.7-8-1.2-12a10.923,10.923,0,0,0-1.2-3.6,10.327,10.327,0,0,1,16.6-11.8c.1.1.3.2.7.5V265.5a9.306,9.306,0,0,1,17.6-4.9,9.014,9.014,0,0,1,.9,3.2c.2,5.4.1,10.8.1,16.2v1.9C1463.6,279.4,1467.9,280.4,1471.4,284.8Z" style="fill:#606161"/><path d="M1401.7,299.6V257.8c0-2.3.7-3.3,2.2-3.3s2.1,1.1,2.1,3.3v82.4a9.737,9.737,0,0,0,.2,2.4,4.751,4.751,0,0,0,4.9,3.7,4.419,4.419,0,0,0,4.3-4.4c.1-6.3,0-12.7.1-19a5.537,5.537,0,0,1,.2-1.8,1.864,1.864,0,0,1,2-1.6,1.963,1.963,0,0,1,2.1,1.6,4.1,4.1,0,0,1,.1,1.1c0,6.4.1,12.9,0,19.3a8.965,8.965,0,0,1-8.8,9.2,9.191,9.191,0,0,1-3.3-.6,8.708,8.708,0,0,1-5.9-7.9c-.1-10.1-.1-20.2-.1-30.3C1401.7,307.7,1401.7,303.7,1401.7,299.6Z" style="fill:#606161"/><path d="M1356.6,308.3a16.05,16.05,0,1,1,16,16.1h0A16.067,16.067,0,0,1,1356.6,308.3Zm15.9,11.7a8.721,8.721,0,1,0-11.7-3.9,8.79,8.79,0,0,0,11.7,3.9Z" style="fill:#606161"/><path d="M1410.5,253.3a16.05,16.05,0,1,1,16.1-16h0A16,16,0,0,1,1410.5,253.3Zm11.7-16a11.7,11.7,0,1,0-23.4,0h0a11.7,11.7,0,1,0,23.4,0Z" style="fill:#606161"/><path d="M1367.9,259.6v29.5a2.135,2.135,0,0,1-2.2,2.1,2.112,2.112,0,0,1-2.1-2.1,5.633,5.633,0,0,1,0-1.3V231c0-2.3.8-3.5,2.3-3.4,1.4,0,2.2,1.2,2.2,3.4C1367.9,240.5,1367.9,250,1367.9,259.6Z" style="fill:#606161"/><path d="M1419.8,285.3v27.8a7.569,7.569,0,0,1-.1,1.5,2.046,2.046,0,0,1-2.1,1.7,1.983,1.983,0,0,1-2.1-1.8,7.569,7.569,0,0,1-.1-1.5V257.6c0-2.3.8-3.4,2.3-3.4,1.5.1,2.1,1.1,2.1,3.4Z" style="fill:#606161"/><path d="M1381.6,335.2c0,2.4.1,4.7,0,7.1a8.96,8.96,0,0,1-17.8.5c-.3-5-.2-10.1-.2-15.1a2.138,2.138,0,0,1,2-2.3h.3a2.239,2.239,0,0,1,2.1,2.4v13.8a4.669,4.669,0,0,0,8.9,1.8,5.278,5.278,0,0,0,.4-2.5V327.7c0-1.2.6-2.3,1.8-2.3a3.858,3.858,0,0,1,2.2,1.1c.4.3.3,1.1.3,1.7.1,2.4.1,4.7,0,7Z" style="fill:#606161"/><g style="isolation:isolate"><path d="M53.6,130.538h8.746v37.793H53.6Z" style="fill:#fff"/><path d="M97.087,142.092q3.321,3.24,3.32,9.61v16.629H91.985V153a7.574,7.574,0,0,0-1.512-5.156,5.544,5.544,0,0,0-4.373-1.7,6.7,6.7,0,0,0-5.075,1.971q-1.89,1.969-1.89,5.857v14.361H70.713V139.284h8.044v3.4a11.181,11.181,0,0,1,4.158-2.834,14.478,14.478,0,0,1,5.453-1A11.956,11.956,0,0,1,97.087,142.092Z" style="fill:#fff"/><path d="M114.039,166.847a14.35,14.35,0,0,1-5.777-5.318,15.383,15.383,0,0,1,0-15.442,14.348,14.348,0,0,1,5.777-5.317,17.858,17.858,0,0,1,8.342-1.917,16.166,16.166,0,0,1,8.018,1.917,11.366,11.366,0,0,1,4.993,5.479l-6.533,3.51a7.14,7.14,0,0,0-6.532-3.995,7.392,7.392,0,0,0-5.453,2.159,9.1,9.1,0,0,0,0,11.77,7.389,7.389,0,0,0,5.453,2.16,7.065,7.065,0,0,0,6.532-4l6.533,3.562a11.594,11.594,0,0,1-4.993,5.4,16,16,0,0,1-8.018,1.943A17.87,17.87,0,0,1,114.039,166.847Z" style="fill:#fff"/><path d="M169.514,139.284v29.047h-7.991v-3.455a11.178,11.178,0,0,1-4,2.889,12.586,12.586,0,0,1-5.021,1q-5.722,0-9.07-3.293t-3.348-9.772V139.284h8.423v15.172q0,7.018,5.885,7.019a6.322,6.322,0,0,0,4.858-1.971q1.836-1.969,1.836-5.858V139.284Z" style="fill:#fff"/><path d="M177.342,128.271h8.422v40.06h-8.422Z" style="fill:#fff"/><path d="M199.288,166.847a14.35,14.35,0,0,1-5.777-5.318,15.383,15.383,0,0,1,0-15.442,14.348,14.348,0,0,1,5.777-5.317,17.858,17.858,0,0,1,8.342-1.917,16.166,16.166,0,0,1,8.018,1.917,11.366,11.366,0,0,1,4.993,5.479l-6.532,3.51a7.142,7.142,0,0,0-6.533-3.995,7.392,7.392,0,0,0-5.453,2.159,9.1,9.1,0,0,0,0,11.77,7.389,7.389,0,0,0,5.453,2.16,7.068,7.068,0,0,0,6.533-4l6.532,3.562a11.594,11.594,0,0,1-4.993,5.4,16,16,0,0,1-8.018,1.943A17.87,17.87,0,0,1,199.288,166.847Z" style="fill:#fff"/><path d="M247.582,142.066q3.615,3.211,3.617,9.69v16.575h-7.882v-3.617q-2.377,4.049-8.855,4.049a13.74,13.74,0,0,1-5.8-1.134,8.651,8.651,0,0,1-3.752-3.131,8.144,8.144,0,0,1-1.3-4.535,7.569,7.569,0,0,1,3.05-6.371q3.05-2.321,9.422-2.321h6.694a5.373,5.373,0,0,0-1.673-4.239,7.377,7.377,0,0,0-5.021-1.485,14.625,14.625,0,0,0-4.562.73,12.05,12.05,0,0,0-3.807,1.97l-3.023-5.884a18.229,18.229,0,0,1,5.7-2.592,25.506,25.506,0,0,1,6.829-.918Q243.964,138.853,247.582,142.066ZM240.4,162.1a5.469,5.469,0,0,0,2.375-2.943v-2.969H237q-5.184,0-5.183,3.4a3.03,3.03,0,0,0,1.268,2.565,5.714,5.714,0,0,0,3.483.944A7.335,7.335,0,0,0,240.4,162.1Z" style="fill:#fff"/><path d="M277.546,166.928A8.648,8.648,0,0,1,274.5,168.3a15.423,15.423,0,0,1-3.806.459q-5.183,0-8.017-2.646t-2.835-7.774V146.411h-4.481v-6.478h4.481V132.86h8.422v7.073h7.235v6.478h-7.235v11.825a3.963,3.963,0,0,0,.945,2.834,3.5,3.5,0,0,0,2.673,1,5.413,5.413,0,0,0,3.4-1.08Z" style="fill:#fff"/><path d="M309.669,156.184H287.7a6.836,6.836,0,0,0,2.808,4.265,9.3,9.3,0,0,0,5.507,1.566,11.148,11.148,0,0,0,4.022-.675,9.74,9.74,0,0,0,3.266-2.133l4.482,4.859q-4.1,4.7-11.986,4.7a18.965,18.965,0,0,1-8.692-1.916,14.042,14.042,0,0,1-5.831-5.318,14.643,14.643,0,0,1-2.052-7.721,14.841,14.841,0,0,1,2.025-7.693,14.168,14.168,0,0,1,5.561-5.345,17.214,17.214,0,0,1,15.63-.081,13.391,13.391,0,0,1,5.425,5.263,15.7,15.7,0,0,1,1.971,7.964Q309.831,154.078,309.669,156.184Zm-19.706-9.341a6.893,6.893,0,0,0-2.375,4.428H301.9a6.972,6.972,0,0,0-2.376-4.4,7.105,7.105,0,0,0-4.751-1.646A7.257,7.257,0,0,0,289.963,146.843Z" style="fill:#fff"/><path d="M349.459,166.928a8.643,8.643,0,0,1-3.05,1.376,15.423,15.423,0,0,1-3.806.459q-5.184,0-8.018-2.646t-2.834-7.774V146.411H327.27v-6.478h4.481V132.86h8.422v7.073h7.235v6.478h-7.235v11.825a3.963,3.963,0,0,0,.945,2.834,3.5,3.5,0,0,0,2.672,1,5.416,5.416,0,0,0,3.4-1.08Z" style="fill:#fff"/><path d="M380.584,142.092q3.321,3.24,3.32,9.61v16.629h-8.422V153a7.574,7.574,0,0,0-1.512-5.156,5.541,5.541,0,0,0-4.373-1.7,6.7,6.7,0,0,0-5.075,1.971q-1.89,1.969-1.89,5.857v14.361H354.21v-40.06h8.422v14.037a11.219,11.219,0,0,1,4.05-2.565,14.664,14.664,0,0,1,5.183-.89A11.956,11.956,0,0,1,380.584,142.092Z" style="fill:#fff"/><path d="M420.131,156.184H398.157a6.836,6.836,0,0,0,2.808,4.265,9.3,9.3,0,0,0,5.507,1.566,11.148,11.148,0,0,0,4.022-.675,9.74,9.74,0,0,0,3.266-2.133l4.482,4.859q-4.1,4.7-11.986,4.7a18.965,18.965,0,0,1-8.692-1.916,14.042,14.042,0,0,1-5.831-5.318,14.643,14.643,0,0,1-2.052-7.721,14.841,14.841,0,0,1,2.025-7.693,14.168,14.168,0,0,1,5.561-5.345,17.214,17.214,0,0,1,15.63-.081,13.4,13.4,0,0,1,5.425,5.263,15.7,15.7,0,0,1,1.971,7.964Q420.293,154.078,420.131,156.184Zm-19.706-9.341a6.9,6.9,0,0,0-2.376,4.428h14.308a6.972,6.972,0,0,0-2.376-4.4,7.105,7.105,0,0,0-4.751-1.646A7.257,7.257,0,0,0,400.425,146.843Z" style="fill:#fff"/><path d="M446.882,166.847a14.347,14.347,0,0,1-5.776-5.318,15.377,15.377,0,0,1,0-15.442,14.345,14.345,0,0,1,5.776-5.317,17.858,17.858,0,0,1,8.342-1.917,16.164,16.164,0,0,1,8.018,1.917,11.366,11.366,0,0,1,4.993,5.479l-6.532,3.51a7.142,7.142,0,0,0-6.533-3.995,7.392,7.392,0,0,0-5.453,2.159,9.1,9.1,0,0,0,0,11.77,7.389,7.389,0,0,0,5.453,2.16,7.067,7.067,0,0,0,6.533-4l6.532,3.562a11.594,11.594,0,0,1-4.993,5.4,15.994,15.994,0,0,1-8.018,1.943A17.87,17.87,0,0,1,446.882,166.847Z" style="fill:#fff"/><path d="M502.357,139.284v29.047h-7.991v-3.455a11.178,11.178,0,0,1-4,2.889,12.586,12.586,0,0,1-5.021,1q-5.724,0-9.071-3.293t-3.347-9.772V139.284h8.423v15.172q0,7.018,5.884,7.019A6.322,6.322,0,0,0,492.1,159.5q1.834-1.969,1.836-5.858V139.284Z" style="fill:#fff"/><path d="M510.185,128.271h8.422v40.06h-8.422Z" style="fill:#fff"/><path d="M547.275,166.928a8.648,8.648,0,0,1-3.051,1.376,15.423,15.423,0,0,1-3.806.459q-5.183,0-8.017-2.646t-2.835-7.774V146.411h-4.481v-6.478h4.481V132.86h8.422v7.073h7.235v6.478h-7.235v11.825a3.963,3.963,0,0,0,.945,2.834,3.5,3.5,0,0,0,2.673,1,5.413,5.413,0,0,0,3.4-1.08Z" style="fill:#fff"/><path d="M581.289,139.284v29.047H573.3v-3.455a11.178,11.178,0,0,1-4,2.889,12.586,12.586,0,0,1-5.021,1q-5.724,0-9.07-3.293t-3.348-9.772V139.284h8.423v15.172q0,7.018,5.885,7.019a6.322,6.322,0,0,0,4.858-1.971q1.836-1.969,1.836-5.858V139.284Z" style="fill:#fff"/><path d="M601.237,139.933a15.132,15.132,0,0,1,5.913-1.08v7.774q-1.405-.106-1.89-.107a7.723,7.723,0,0,0-5.669,2.024q-2.052,2.025-2.052,6.073v13.714h-8.422V139.284h8.044v3.834A9.363,9.363,0,0,1,601.237,139.933Z" style="fill:#fff"/><path d="M640.192,156.184H618.218a6.832,6.832,0,0,0,2.808,4.265,9.294,9.294,0,0,0,5.506,1.566,11.157,11.157,0,0,0,4.023-.675,9.75,9.75,0,0,0,3.266-2.133l4.481,4.859q-4.1,4.7-11.985,4.7a18.969,18.969,0,0,1-8.693-1.916,14.048,14.048,0,0,1-5.831-5.318,14.652,14.652,0,0,1-2.052-7.721,14.841,14.841,0,0,1,2.025-7.693,14.174,14.174,0,0,1,5.561-5.345,17.214,17.214,0,0,1,15.63-.081,13.4,13.4,0,0,1,5.426,5.263,15.711,15.711,0,0,1,1.971,7.964Q640.354,154.078,640.192,156.184Zm-19.707-9.341a6.9,6.9,0,0,0-2.375,4.428h14.307a6.967,6.967,0,0,0-2.375-4.4,7.105,7.105,0,0,0-4.751-1.646A7.258,7.258,0,0,0,620.485,146.843Z" style="fill:#fff"/><path d="M666.835,166.847a14.252,14.252,0,0,1-5.7-5.318,15.558,15.558,0,0,1,0-15.442,14.25,14.25,0,0,1,5.7-5.317,18.582,18.582,0,0,1,16.44,0,14.294,14.294,0,0,1,5.669,5.317,15.552,15.552,0,0,1,0,15.442,14.3,14.3,0,0,1-5.669,5.318,18.591,18.591,0,0,1-16.44,0Zm13.552-7.181a9.3,9.3,0,0,0,0-11.716,7.016,7.016,0,0,0-5.319-2.186,7.1,7.1,0,0,0-5.344,2.186,9.2,9.2,0,0,0,0,11.716,7.1,7.1,0,0,0,5.344,2.187A7.02,7.02,0,0,0,680.387,159.666Z" style="fill:#fff"/><path d="M705.843,139.933h7.451v6.478h-7.235v21.92h-8.423v-21.92h-4.481v-6.478h4.481v-1.3a10.6,10.6,0,0,1,2.943-7.883q2.942-2.914,8.287-2.915a15.515,15.515,0,0,1,3.591.4,8.753,8.753,0,0,1,2.834,1.162l-2.214,6.1a5.769,5.769,0,0,0-3.4-1.025q-3.834,0-3.833,4.211Z" style="fill:#fff"/><path d="M738.371,166.847a14.252,14.252,0,0,1-5.7-5.318,15.552,15.552,0,0,1,0-15.442,14.25,14.25,0,0,1,5.7-5.317,18.582,18.582,0,0,1,16.44,0,14.3,14.3,0,0,1,5.669,5.317,15.558,15.558,0,0,1,0,15.442,14.3,14.3,0,0,1-5.669,5.318,18.591,18.591,0,0,1-16.44,0Zm13.551-7.181a9.293,9.293,0,0,0,0-11.716,7.013,7.013,0,0,0-5.318-2.186,7.1,7.1,0,0,0-5.345,2.186,9.2,9.2,0,0,0,0,11.716,7.106,7.106,0,0,0,5.345,2.187A7.018,7.018,0,0,0,751.922,159.666Z" style="fill:#fff"/><path d="M792.685,140.715a13.392,13.392,0,0,1,5.21,5.237,17.278,17.278,0,0,1,0,15.711,13.4,13.4,0,0,1-5.21,5.238,14.8,14.8,0,0,1-7.37,1.862,11.219,11.219,0,0,1-8.747-3.509v13.551h-8.422V139.284h8.045v3.348q3.13-3.777,9.124-3.779A14.814,14.814,0,0,1,792.685,140.715Zm-3.51,18.951a9.293,9.293,0,0,0,0-11.716,7.562,7.562,0,0,0-10.636,0,9.3,9.3,0,0,0,0,11.716,7.559,7.559,0,0,0,10.636,0Z" style="fill:#fff"/><path d="M833.689,156.184H811.715a6.84,6.84,0,0,0,2.808,4.265,9.3,9.3,0,0,0,5.507,1.566,11.148,11.148,0,0,0,4.022-.675,9.74,9.74,0,0,0,3.266-2.133l4.482,4.859q-4.1,4.7-11.986,4.7a18.965,18.965,0,0,1-8.692-1.916,14.042,14.042,0,0,1-5.831-5.318,14.643,14.643,0,0,1-2.052-7.721,14.841,14.841,0,0,1,2.025-7.693,14.168,14.168,0,0,1,5.561-5.345,17.214,17.214,0,0,1,15.63-.081,13.391,13.391,0,0,1,5.425,5.263,15.7,15.7,0,0,1,1.971,7.964Q833.851,154.078,833.689,156.184Zm-19.706-9.341a6.893,6.893,0,0,0-2.375,4.428h14.307a6.972,6.972,0,0,0-2.376-4.4,7.105,7.105,0,0,0-4.751-1.646A7.257,7.257,0,0,0,813.983,146.843Z" style="fill:#fff"/><path d="M865.84,142.092q3.321,3.24,3.32,9.61v16.629h-8.422V153a7.574,7.574,0,0,0-1.512-5.156,5.544,5.544,0,0,0-4.373-1.7,6.7,6.7,0,0,0-5.075,1.971q-1.89,1.969-1.89,5.857v14.361h-8.422V139.284h8.044v3.4a11.181,11.181,0,0,1,4.158-2.834,14.478,14.478,0,0,1,5.453-1A11.956,11.956,0,0,1,865.84,142.092Z" style="fill:#fff"/><path d="M921.638,128.271v40.06h-8.045v-3.347q-3.132,3.78-9.07,3.779a15.075,15.075,0,0,1-7.423-1.835,13.15,13.15,0,0,1-5.211-5.237,17.393,17.393,0,0,1,0-15.766,13.135,13.135,0,0,1,5.211-5.236,15.076,15.076,0,0,1,7.423-1.836q5.56,0,8.692,3.51V128.271Zm-10.366,31.4a9.2,9.2,0,0,0,0-11.716,7.562,7.562,0,0,0-10.636,0,9.2,9.2,0,0,0,0,11.716,7.559,7.559,0,0,0,10.636,0Z" style="fill:#fff"/><path d="M951.493,142.066q3.616,3.211,3.617,9.69v16.575h-7.882v-3.617q-2.376,4.049-8.854,4.049a13.737,13.737,0,0,1-5.8-1.134,8.64,8.64,0,0,1-3.752-3.131,8.144,8.144,0,0,1-1.3-4.535,7.567,7.567,0,0,1,3.05-6.371q3.049-2.321,9.421-2.321h6.695a5.37,5.37,0,0,0-1.674-4.239,7.374,7.374,0,0,0-5.021-1.485,14.625,14.625,0,0,0-4.562.73,12.045,12.045,0,0,0-3.806,1.97l-3.023-5.884a18.234,18.234,0,0,1,5.7-2.592,25.513,25.513,0,0,1,6.83-.918Q947.876,138.853,951.493,142.066Zm-7.18,20.03a5.469,5.469,0,0,0,2.375-2.943v-2.969h-5.777q-5.182,0-5.183,3.4A3.031,3.031,0,0,0,937,162.15a5.711,5.711,0,0,0,3.482.944A7.338,7.338,0,0,0,944.313,162.1Z" style="fill:#fff"/><path d="M981.457,166.928a8.643,8.643,0,0,1-3.05,1.376,15.423,15.423,0,0,1-3.806.459q-5.184,0-8.018-2.646t-2.834-7.774V146.411h-4.481v-6.478h4.481V132.86h8.422v7.073h7.235v6.478h-7.235v11.825a3.963,3.963,0,0,0,.945,2.834,3.5,3.5,0,0,0,2.672,1,5.414,5.414,0,0,0,3.4-1.08Z" style="fill:#fff"/><path d="M1008.29,142.066q3.617,3.211,3.617,9.69v16.575h-7.882v-3.617q-2.376,4.049-8.854,4.049a13.737,13.737,0,0,1-5.8-1.134,8.648,8.648,0,0,1-3.753-3.131,8.152,8.152,0,0,1-1.3-4.535,7.568,7.568,0,0,1,3.051-6.371q3.049-2.321,9.421-2.321h6.7a5.373,5.373,0,0,0-1.674-4.239,7.375,7.375,0,0,0-5.021-1.485,14.625,14.625,0,0,0-4.562.73,12.034,12.034,0,0,0-3.806,1.97l-3.023-5.884a18.224,18.224,0,0,1,5.7-2.592,25.513,25.513,0,0,1,6.83-.918Q1004.673,138.853,1008.29,142.066Zm-7.181,20.03a5.466,5.466,0,0,0,2.376-2.943v-2.969h-5.777q-5.182,0-5.183,3.4a3.031,3.031,0,0,0,1.269,2.565,5.711,5.711,0,0,0,3.482.944A7.335,7.335,0,0,0,1001.109,162.1Z" style="fill:#fff"/><path d="M1035.23,133.886a4.572,4.572,0,0,1,0-6.695,5.34,5.34,0,0,1,3.779-1.35,5.479,5.479,0,0,1,3.78,1.3,4.156,4.156,0,0,1,1.457,3.239,4.587,4.587,0,0,1-1.457,3.483,5.283,5.283,0,0,1-3.78,1.377A5.345,5.345,0,0,1,1035.23,133.886Zm-.432,5.4h8.422v29.047H1034.8Z" style="fill:#fff"/><path d="M1077.422,142.092q3.32,3.24,3.321,9.61v16.629h-8.422V153a7.574,7.574,0,0,0-1.512-5.156,5.545,5.545,0,0,0-4.373-1.7,6.7,6.7,0,0,0-5.076,1.971q-1.89,1.969-1.889,5.857v14.361h-8.422V139.284h8.043v3.4a11.177,11.177,0,0,1,4.159-2.834,14.471,14.471,0,0,1,5.453-1A11.953,11.953,0,0,1,1077.422,142.092Z" style="fill:#fff"/></g><g style="isolation:isolate"><path d="M57.783,229.286q-4.509-4.481-4.508-12.8V195.326h8.747v20.84q0,10.152,8.422,10.151a7.9,7.9,0,0,0,6.263-2.456q2.159-2.457,2.159-7.695v-20.84h8.639V216.49q0,8.314-4.508,12.8T70.39,233.767Q62.292,233.767,57.783,229.286Z" style="fill:#fff"/><path d="M107.67,204.721a15.123,15.123,0,0,1,5.912-1.08v7.774q-1.405-.107-1.89-.107a7.723,7.723,0,0,0-5.669,2.024q-2.052,2.025-2.052,6.074v13.713H95.549V204.073h8.044v3.834A9.36,9.36,0,0,1,107.67,204.721Z" style="fill:#fff"/><path d="M143.141,205.5a13.379,13.379,0,0,1,5.21,5.237,17.27,17.27,0,0,1,0,15.711,13.375,13.375,0,0,1-5.21,5.238,14.8,14.8,0,0,1-7.369,1.862q-5.994,0-9.125-3.779v3.347H118.6v-40.06h8.422v14.092a11.218,11.218,0,0,1,8.747-3.51A14.81,14.81,0,0,1,143.141,205.5Zm-3.509,18.951a9.291,9.291,0,0,0,0-11.715,7.559,7.559,0,0,0-10.636,0,9.291,9.291,0,0,0,0,11.715,7.559,7.559,0,0,0,10.636,0Z" style="fill:#fff"/><path d="M177.452,206.854q3.615,3.211,3.617,9.69v16.575h-7.882V229.5q-2.377,4.048-8.855,4.049a13.74,13.74,0,0,1-5.8-1.134,8.651,8.651,0,0,1-3.752-3.131,8.144,8.144,0,0,1-1.3-4.535,7.569,7.569,0,0,1,3.05-6.371q3.051-2.32,9.422-2.321h6.695a5.37,5.37,0,0,0-1.674-4.238,7.372,7.372,0,0,0-5.021-1.486,14.625,14.625,0,0,0-4.562.73,12.034,12.034,0,0,0-3.806,1.97l-3.024-5.884a18.229,18.229,0,0,1,5.7-2.592,25.548,25.548,0,0,1,6.83-.918Q173.835,203.641,177.452,206.854Zm-7.181,20.03a5.475,5.475,0,0,0,2.376-2.943v-2.969H166.87q-5.184,0-5.183,3.4a3.03,3.03,0,0,0,1.268,2.565,5.716,5.716,0,0,0,3.483.944A7.335,7.335,0,0,0,170.271,226.884Z" style="fill:#fff"/><path d="M215.055,206.88q3.321,3.24,3.32,9.61v16.629h-8.422V217.786a7.579,7.579,0,0,0-1.512-5.156,5.544,5.544,0,0,0-4.373-1.7,6.7,6.7,0,0,0-5.075,1.971q-1.89,1.969-1.89,5.857v14.361h-8.422V204.073h8.044v3.4a11.177,11.177,0,0,1,4.157-2.834,14.487,14.487,0,0,1,5.454-1A11.957,11.957,0,0,1,215.055,206.88Z" style="fill:#fff"/><path d="M276.252,233.119l-.054-22.675-11.122,18.68h-3.942L250.067,210.93v22.189H241.86V195.326H249.1l14.145,23.486,13.93-23.486h7.18l.108,37.793Z" style="fill:#fff"/><path d="M298.414,231.635a14.246,14.246,0,0,1-5.7-5.318,15.552,15.552,0,0,1,0-15.442,14.243,14.243,0,0,1,5.7-5.317,18.582,18.582,0,0,1,16.44,0,14.3,14.3,0,0,1,5.669,5.317,15.558,15.558,0,0,1,0,15.442,14.3,14.3,0,0,1-5.669,5.318,18.591,18.591,0,0,1-16.44,0Zm13.551-7.181a9.291,9.291,0,0,0,0-11.715,7.014,7.014,0,0,0-5.318-2.187,7.1,7.1,0,0,0-5.345,2.187,9.2,9.2,0,0,0,0,11.715,7.106,7.106,0,0,0,5.345,2.187A7.018,7.018,0,0,0,311.965,224.454Z" style="fill:#fff"/><path d="M352.728,205.5a13.392,13.392,0,0,1,5.21,5.237,17.278,17.278,0,0,1,0,15.711,13.388,13.388,0,0,1-5.21,5.238,14.8,14.8,0,0,1-7.37,1.862q-5.993,0-9.124-3.779v3.347h-8.045v-40.06h8.422v14.092a11.219,11.219,0,0,1,8.747-3.51A14.814,14.814,0,0,1,352.728,205.5Zm-3.51,18.951a9.291,9.291,0,0,0,0-11.715,7.559,7.559,0,0,0-10.636,0,9.295,9.295,0,0,0,0,11.715,7.559,7.559,0,0,0,10.636,0Z" style="fill:#fff"/><path d="M365.874,198.674a4.572,4.572,0,0,1,0-6.695,5.339,5.339,0,0,1,3.779-1.35,5.476,5.476,0,0,1,3.779,1.3,4.153,4.153,0,0,1,1.458,3.239,4.584,4.584,0,0,1-1.458,3.483,5.28,5.28,0,0,1-3.779,1.377A5.339,5.339,0,0,1,365.874,198.674Zm-.432,5.4h8.422v29.046h-8.422Z" style="fill:#fff"/><path d="M381.692,193.059h8.422v40.06h-8.422Z" style="fill:#fff"/><path d="M398.375,198.674a4.572,4.572,0,0,1,0-6.695,5.339,5.339,0,0,1,3.779-1.35,5.476,5.476,0,0,1,3.779,1.3,4.153,4.153,0,0,1,1.458,3.239,4.584,4.584,0,0,1-1.458,3.483,5.28,5.28,0,0,1-3.779,1.377A5.339,5.339,0,0,1,398.375,198.674Zm-.432,5.4h8.422v29.046h-8.422Z" style="fill:#fff"/><path d="M432.928,231.716a8.643,8.643,0,0,1-3.05,1.376,15.431,15.431,0,0,1-3.807.459q-5.183,0-8.017-2.645t-2.835-7.775V211.2h-4.481v-6.478h4.481v-7.073h8.423v7.073h7.235V211.2h-7.235v11.825a3.963,3.963,0,0,0,.945,2.834,3.5,3.5,0,0,0,2.672,1,5.413,5.413,0,0,0,3.4-1.08Z" style="fill:#fff"/><path d="M465.97,204.073,452.85,234.9q-2,5.02-4.94,7.073a12.106,12.106,0,0,1-7.1,2.052,14.768,14.768,0,0,1-4.481-.7,9.9,9.9,0,0,1-3.618-1.944l3.078-5.993a7.266,7.266,0,0,0,2.24,1.35,6.984,6.984,0,0,0,2.511.486,4.453,4.453,0,0,0,2.807-.837,7.126,7.126,0,0,0,1.944-2.78l.108-.271-12.58-29.262h8.692l8.153,19.707,8.207-19.707Z" style="fill:#fff"/></g><g style="isolation:isolate"><path d="M76.264,343.482v3.84H53.843V316.428h21.8v3.839H58.257v9.49H73.748v3.751H58.257v9.974Z" style="fill:#fff"/><path d="M102.37,326.292q2.626,2.58,2.626,7.569v13.461h-4.237V334.346a7.186,7.186,0,0,0-1.633-5.12,6.143,6.143,0,0,0-4.678-1.72,7.293,7.293,0,0,0-5.429,2.007,7.848,7.848,0,0,0-1.986,5.76v12.049H82.8V323.93h4.061v3.531a8.244,8.244,0,0,1,3.464-2.781,12.133,12.133,0,0,1,4.966-.97A9.662,9.662,0,0,1,102.37,326.292Z" style="fill:#fff"/><path d="M132.426,326.292q2.627,2.58,2.626,7.569v13.461h-4.236V334.346a7.182,7.182,0,0,0-1.634-5.12,6.143,6.143,0,0,0-4.678-1.72,7.294,7.294,0,0,0-5.429,2.007,7.852,7.852,0,0,0-1.986,5.76v12.049h-4.237V314.574h4.237V327.24a8.77,8.77,0,0,1,3.465-2.6,11.93,11.93,0,0,1,4.789-.926A9.662,9.662,0,0,1,132.426,326.292Z" style="fill:#fff"/><path d="M158.863,326.093q2.583,2.382,2.582,7.106v14.123h-4.016v-3.09a6.7,6.7,0,0,1-3.023,2.494,11.538,11.538,0,0,1-4.656.861,9.739,9.739,0,0,1-6.29-1.9,6.524,6.524,0,0,1-.11-9.953q2.251-1.875,7.15-1.875h6.709v-.839a5.405,5.405,0,0,0-1.589-4.193,6.7,6.7,0,0,0-4.679-1.456,12.394,12.394,0,0,0-4.061.684,10.486,10.486,0,0,0-3.354,1.831l-1.765-3.177a12.809,12.809,0,0,1,4.325-2.229,18.128,18.128,0,0,1,5.341-.772Q156.281,323.71,158.863,326.093Zm-4.214,17.146a6.19,6.19,0,0,0,2.56-3.067v-3.266h-6.533q-5.385,0-5.384,3.619a3.272,3.272,0,0,0,1.368,2.78,6.247,6.247,0,0,0,3.8,1.016A7.867,7.867,0,0,0,154.649,343.239Z" style="fill:#fff"/><path d="M188.875,326.292q2.627,2.58,2.626,7.569v13.461h-4.237V334.346a7.186,7.186,0,0,0-1.633-5.12,6.143,6.143,0,0,0-4.678-1.72,7.293,7.293,0,0,0-5.429,2.007,7.848,7.848,0,0,0-1.986,5.76v12.049H169.3V323.93h4.06v3.531a8.247,8.247,0,0,1,3.465-2.781,12.133,12.133,0,0,1,4.966-.97A9.662,9.662,0,0,1,188.875,326.292Z" style="fill:#fff"/><path d="M203.307,346.042a11.319,11.319,0,0,1-4.392-4.259,12.723,12.723,0,0,1,0-12.314,11.175,11.175,0,0,1,4.392-4.237,13.152,13.152,0,0,1,6.377-1.522,12.236,12.236,0,0,1,5.672,1.28,9.121,9.121,0,0,1,3.861,3.707L216,330.771a7.2,7.2,0,0,0-2.737-2.515,7.8,7.8,0,0,0-3.619-.839,8.371,8.371,0,0,0-4.126,1.015,7.231,7.231,0,0,0-2.869,2.891,9.537,9.537,0,0,0,0,8.65,7.218,7.218,0,0,0,2.869,2.891,8.35,8.35,0,0,0,4.126,1.016,7.8,7.8,0,0,0,3.619-.839A7.2,7.2,0,0,0,216,340.525l3.221,2.03a9.245,9.245,0,0,1-3.861,3.73,12.074,12.074,0,0,1-5.672,1.3A12.987,12.987,0,0,1,203.307,346.042Z" style="fill:#fff"/><path d="M245.39,337.039H226.412A7.346,7.346,0,0,0,229.127,342a8.852,8.852,0,0,0,5.759,1.876,8.676,8.676,0,0,0,6.753-2.826l2.339,2.737a10.24,10.24,0,0,1-3.95,2.825,14.894,14.894,0,0,1-11.851-.552,10.847,10.847,0,0,1-4.435-4.259,12.2,12.2,0,0,1-1.567-6.179,12.406,12.406,0,0,1,1.523-6.135,10.916,10.916,0,0,1,4.193-4.259,11.953,11.953,0,0,1,6.024-1.522,11.717,11.717,0,0,1,5.981,1.522,10.712,10.712,0,0,1,4.1,4.259,12.988,12.988,0,0,1,1.479,6.268A12.137,12.137,0,0,1,245.39,337.039Zm-16.572-7.9a7.471,7.471,0,0,0-2.406,4.855h15.006a7.528,7.528,0,0,0-2.405-4.833,7.9,7.9,0,0,0-10.195-.022Z" style="fill:#fff"/><path d="M276.373,345.954a6.349,6.349,0,0,1-2.3,1.214,9.6,9.6,0,0,1-2.825.419,7.5,7.5,0,0,1-5.473-1.9,7.243,7.243,0,0,1-1.942-5.428V327.417h-3.972V323.93h3.972v-5.12h4.237v5.12h6.709v3.487h-6.709v12.667a4.1,4.1,0,0,0,.95,2.913,3.531,3.531,0,0,0,2.714,1.014,5.111,5.111,0,0,0,3.31-1.1Z" style="fill:#fff"/><path d="M301.066,326.292q2.627,2.58,2.626,7.569v13.461h-4.237V334.346a7.186,7.186,0,0,0-1.633-5.12,6.143,6.143,0,0,0-4.678-1.72,7.293,7.293,0,0,0-5.429,2.007,7.848,7.848,0,0,0-1.986,5.76v12.049h-4.237V314.574h4.237V327.24a8.766,8.766,0,0,1,3.464-2.6,11.935,11.935,0,0,1,4.79-.926A9.662,9.662,0,0,1,301.066,326.292Z" style="fill:#fff"/><path d="M332.733,337.039H313.755A7.345,7.345,0,0,0,316.469,342a8.857,8.857,0,0,0,5.76,1.876,8.676,8.676,0,0,0,6.753-2.826l2.339,2.737a10.255,10.255,0,0,1-3.95,2.825,14.894,14.894,0,0,1-11.851-.552,10.847,10.847,0,0,1-4.435-4.259,12.2,12.2,0,0,1-1.567-6.179,12.406,12.406,0,0,1,1.523-6.135,10.916,10.916,0,0,1,4.193-4.259,11.95,11.95,0,0,1,6.024-1.522,11.713,11.713,0,0,1,5.98,1.522,10.714,10.714,0,0,1,4.105,4.259,12.987,12.987,0,0,1,1.478,6.268A12.091,12.091,0,0,1,332.733,337.039Zm-16.573-7.9a7.474,7.474,0,0,0-2.405,4.855h15.006a7.528,7.528,0,0,0-2.405-4.833,7.9,7.9,0,0,0-10.2-.022Z" style="fill:#fff"/><path d="M371.616,337.039H352.638A7.341,7.341,0,0,0,355.352,342a8.856,8.856,0,0,0,5.759,1.876,8.673,8.673,0,0,0,6.753-2.826l2.34,2.737a10.255,10.255,0,0,1-3.95,2.825,14.894,14.894,0,0,1-11.851-.552,10.849,10.849,0,0,1-4.436-4.259,12.2,12.2,0,0,1-1.566-6.179,12.405,12.405,0,0,1,1.522-6.135,10.929,10.929,0,0,1,4.193-4.259,11.954,11.954,0,0,1,6.025-1.522,11.713,11.713,0,0,1,5.98,1.522,10.721,10.721,0,0,1,4.105,4.259,12.987,12.987,0,0,1,1.478,6.268A12.367,12.367,0,0,1,371.616,337.039Zm-16.573-7.9a7.474,7.474,0,0,0-2.405,4.855h15.006a7.525,7.525,0,0,0-2.406-4.833,7.9,7.9,0,0,0-10.195-.022Z" style="fill:#fff"/><path d="M382.341,321.9v2.03h6.8v3.487h-6.709v19.905h-4.236V327.417H374.22V323.93h3.973v-2.074a7.454,7.454,0,0,1,2.03-5.517,7.7,7.7,0,0,1,5.693-2.031,9.612,9.612,0,0,1,2.648.354,6.429,6.429,0,0,1,2.119,1.015L389.4,318.9a5.279,5.279,0,0,0-3.266-1.1Q382.341,317.8,382.341,321.9Z" style="fill:#fff"/><path d="M397.921,321.9v2.03h6.8v3.487h-6.708v19.905h-4.237V327.417H389.8V323.93h3.972v-2.074a7.454,7.454,0,0,1,2.03-5.517,7.7,7.7,0,0,1,5.694-2.031,9.618,9.618,0,0,1,2.648.354,6.433,6.433,0,0,1,2.118,1.015l-1.279,3.222a5.283,5.283,0,0,0-3.267-1.1Q397.921,317.8,397.921,321.9Z" style="fill:#fff"/><path d="M429.433,337.039H410.455A7.346,7.346,0,0,0,413.17,342a8.852,8.852,0,0,0,5.759,1.876,8.676,8.676,0,0,0,6.753-2.826l2.339,2.737a10.24,10.24,0,0,1-3.95,2.825,14.894,14.894,0,0,1-11.851-.552,10.847,10.847,0,0,1-4.435-4.259,12.2,12.2,0,0,1-1.567-6.179,12.406,12.406,0,0,1,1.523-6.135,10.916,10.916,0,0,1,4.193-4.259,11.95,11.95,0,0,1,6.024-1.522,11.717,11.717,0,0,1,5.981,1.522,10.712,10.712,0,0,1,4.1,4.259,12.988,12.988,0,0,1,1.479,6.268A12.137,12.137,0,0,1,429.433,337.039Zm-16.573-7.9a7.474,7.474,0,0,0-2.405,4.855h15.006a7.528,7.528,0,0,0-2.405-4.833,7.9,7.9,0,0,0-10.2-.022Z" style="fill:#fff"/><path d="M439.209,346.042a11.309,11.309,0,0,1-4.391-4.259,12.723,12.723,0,0,1,0-12.314,11.165,11.165,0,0,1,4.391-4.237,13.153,13.153,0,0,1,6.378-1.522,12.235,12.235,0,0,1,5.671,1.28,9.124,9.124,0,0,1,3.862,3.707l-3.222,2.074a7.2,7.2,0,0,0-2.736-2.515,7.807,7.807,0,0,0-3.619-.839,8.372,8.372,0,0,0-4.127,1.015,7.231,7.231,0,0,0-2.869,2.891,9.537,9.537,0,0,0,0,8.65,7.218,7.218,0,0,0,2.869,2.891,8.351,8.351,0,0,0,4.127,1.016,7.807,7.807,0,0,0,3.619-.839,7.206,7.206,0,0,0,2.736-2.516l3.222,2.03a9.248,9.248,0,0,1-3.862,3.73,12.072,12.072,0,0,1-5.671,1.3A12.988,12.988,0,0,1,439.209,346.042Z" style="fill:#fff"/><path d="M474.053,345.954a6.332,6.332,0,0,1-2.3,1.214,9.6,9.6,0,0,1-2.824.419,7.5,7.5,0,0,1-5.473-1.9,7.243,7.243,0,0,1-1.942-5.428V327.417h-3.972V323.93h3.972v-5.12h4.237v5.12h6.708v3.487h-6.708v12.667a4.108,4.108,0,0,0,.949,2.913,3.533,3.533,0,0,0,2.715,1.014,5.111,5.111,0,0,0,3.31-1.1Z" style="fill:#fff"/><path d="M479.239,318.634a2.6,2.6,0,0,1-.817-1.942,2.678,2.678,0,0,1,.817-1.964,2.783,2.783,0,0,1,2.052-.816,2.874,2.874,0,0,1,2.052.772,2.534,2.534,0,0,1,.817,1.92,2.727,2.727,0,0,1-.817,2.008,2.782,2.782,0,0,1-2.052.816A2.821,2.821,0,0,1,479.239,318.634Zm-.067,5.3h4.238v23.392h-4.238Z" style="fill:#fff"/><path d="M512.186,323.93l-10.24,23.392h-4.325l-10.24-23.392H491.8l8.033,18.758,8.209-18.758Z" style="fill:#fff"/><path d="M536.548,337.039H517.57A7.345,7.345,0,0,0,520.284,342a8.857,8.857,0,0,0,5.76,1.876,8.676,8.676,0,0,0,6.753-2.826l2.339,2.737a10.255,10.255,0,0,1-3.95,2.825,14.894,14.894,0,0,1-11.851-.552,10.841,10.841,0,0,1-4.435-4.259,12.2,12.2,0,0,1-1.567-6.179,12.4,12.4,0,0,1,1.523-6.135,10.92,10.92,0,0,1,4.192-4.259,11.957,11.957,0,0,1,6.025-1.522,11.713,11.713,0,0,1,5.98,1.522,10.714,10.714,0,0,1,4.105,4.259,12.987,12.987,0,0,1,1.478,6.268A12.091,12.091,0,0,1,536.548,337.039Zm-16.573-7.9a7.474,7.474,0,0,0-2.4,4.855h15.006a7.528,7.528,0,0,0-2.4-4.833,7.9,7.9,0,0,0-10.2-.022Z" style="fill:#fff"/><path d="M576.182,323.93v23.392h-4.017v-3.531a8.521,8.521,0,0,1-3.376,2.8,10.538,10.538,0,0,1-4.568.993,10.209,10.209,0,0,1-7.371-2.582q-2.693-2.582-2.692-7.614V323.93H558.4v12.976a7.261,7.261,0,0,0,1.633,5.142,6.1,6.1,0,0,0,4.679,1.743,6.982,6.982,0,0,0,5.3-2.03,7.971,7.971,0,0,0,1.941-5.738V323.93Z" style="fill:#fff"/><path d="M585.449,346.814a12.089,12.089,0,0,1-4.149-1.964l1.766-3.354a12.648,12.648,0,0,0,3.752,1.765,15.414,15.414,0,0,0,4.457.663q5.562,0,5.561-3.178a2.058,2.058,0,0,0-.75-1.677,4.748,4.748,0,0,0-1.876-.905q-1.125-.286-3.2-.64a31.406,31.406,0,0,1-4.612-1.015,7.106,7.106,0,0,1-3.067-1.942,5.4,5.4,0,0,1-1.28-3.84,6,6,0,0,1,2.648-5.1,11.852,11.852,0,0,1,7.106-1.92,19.6,19.6,0,0,1,4.678.573,12.6,12.6,0,0,1,3.84,1.545l-1.81,3.354a12.172,12.172,0,0,0-6.752-1.853,7.8,7.8,0,0,0-4.105.883,2.663,2.663,0,0,0-1.412,2.339,2.227,2.227,0,0,0,.794,1.809,5,5,0,0,0,1.964.971q1.168.309,3.288.706a35.982,35.982,0,0,1,4.569,1.037,6.844,6.844,0,0,1,2.979,1.876,5.231,5.231,0,0,1,1.235,3.708,5.844,5.844,0,0,1-2.714,5.053,12.817,12.817,0,0,1-7.393,1.876A19.6,19.6,0,0,1,585.449,346.814Z" style="fill:#fff"/><path d="M622.324,326.093q2.582,2.382,2.582,7.106v14.123H620.89v-3.09a6.705,6.705,0,0,1-3.024,2.494,11.531,11.531,0,0,1-4.656.861,9.736,9.736,0,0,1-6.289-1.9,6.523,6.523,0,0,1-.111-9.953q2.252-1.875,7.15-1.875h6.709v-.839a5.405,5.405,0,0,0-1.589-4.193,6.7,6.7,0,0,0-4.679-1.456,12.384,12.384,0,0,0-4.06.684,10.475,10.475,0,0,0-3.354,1.831l-1.766-3.177a12.814,12.814,0,0,1,4.326-2.229,18.126,18.126,0,0,1,5.34-.772Q619.743,323.71,622.324,326.093Zm-4.215,17.146a6.19,6.19,0,0,0,2.56-3.067v-3.266h-6.532q-5.385,0-5.385,3.619a3.27,3.27,0,0,0,1.369,2.78,6.241,6.241,0,0,0,3.8,1.016A7.862,7.862,0,0,0,618.109,343.239Z" style="fill:#fff"/><path d="M655.271,323.93v20.214q0,6.135-3.046,9.07t-9.092,2.935a21.748,21.748,0,0,1-6.311-.9,12.5,12.5,0,0,1-4.855-2.581L634,349.4a11.968,11.968,0,0,0,4.039,2.229,15.32,15.32,0,0,0,4.965.817q4.1,0,6.068-1.942t1.964-5.914v-1.854a9.351,9.351,0,0,1-3.685,2.714,12.26,12.26,0,0,1-4.744.9,12.789,12.789,0,0,1-6.069-1.434,10.669,10.669,0,0,1-4.259-4.017,12.007,12.007,0,0,1,0-11.784,10.527,10.527,0,0,1,4.259-3.994,12.943,12.943,0,0,1,6.069-1.412,12.421,12.421,0,0,1,4.921.97,9.146,9.146,0,0,1,3.729,2.87v-3.62Zm-8.055,17.743a7.186,7.186,0,0,0,2.869-2.714,7.58,7.58,0,0,0,1.037-3.95,7.161,7.161,0,0,0-2.251-5.5,9.084,9.084,0,0,0-11.608,0,7.164,7.164,0,0,0-2.251,5.5,7.58,7.58,0,0,0,1.037,3.95,7.176,7.176,0,0,0,2.87,2.714,9.356,9.356,0,0,0,8.3,0Z" style="fill:#fff"/><path d="M684.4,337.039H665.421A7.345,7.345,0,0,0,668.135,342a8.857,8.857,0,0,0,5.76,1.876,8.676,8.676,0,0,0,6.753-2.826l2.339,2.737a10.255,10.255,0,0,1-3.95,2.825,14.894,14.894,0,0,1-11.851-.552,10.847,10.847,0,0,1-4.435-4.259,12.2,12.2,0,0,1-1.567-6.179,12.406,12.406,0,0,1,1.523-6.135,10.916,10.916,0,0,1,4.193-4.259,11.95,11.95,0,0,1,6.024-1.522,11.713,11.713,0,0,1,5.98,1.522,10.714,10.714,0,0,1,4.105,4.259,12.987,12.987,0,0,1,1.478,6.268A12.091,12.091,0,0,1,684.4,337.039Zm-16.573-7.9a7.474,7.474,0,0,0-2.4,4.855h15.006a7.528,7.528,0,0,0-2.4-4.833,7.9,7.9,0,0,0-10.2-.022Z" style="fill:#fff"/><path d="M705.982,346.042a11.2,11.2,0,0,1-4.348-4.259,12.879,12.879,0,0,1,0-12.314,11.054,11.054,0,0,1,4.348-4.237,13.618,13.618,0,0,1,12.512,0,11.107,11.107,0,0,1,4.325,4.237,12.879,12.879,0,0,1,0,12.314,11.251,11.251,0,0,1-4.325,4.259,13.438,13.438,0,0,1-12.512,0Zm10.305-3.2a7.322,7.322,0,0,0,2.8-2.914,9.62,9.62,0,0,0,0-8.606,7.173,7.173,0,0,0-2.8-2.891,8.542,8.542,0,0,0-8.077,0,7.325,7.325,0,0,0-2.825,2.891,9.446,9.446,0,0,0,0,8.606,7.479,7.479,0,0,0,2.825,2.914,8.382,8.382,0,0,0,8.077,0Z" style="fill:#fff"/><path d="M735.022,321.9v2.03h6.8v3.487H735.11v19.905h-4.236V327.417H726.9V323.93h3.973v-2.074a7.454,7.454,0,0,1,2.03-5.517,7.7,7.7,0,0,1,5.693-2.031,9.607,9.607,0,0,1,2.648.354,6.429,6.429,0,0,1,2.119,1.015l-1.28,3.222a5.279,5.279,0,0,0-3.266-1.1Q735.022,317.8,735.022,321.9Z" style="fill:#fff"/><path d="M793.964,326.269q2.583,2.56,2.583,7.592v13.461H792.31V334.346a7.383,7.383,0,0,0-1.567-5.12,5.752,5.752,0,0,0-4.48-1.72,6.711,6.711,0,0,0-5.12,2.007,8.071,8.071,0,0,0-1.9,5.76v12.049h-4.237V334.346a7.388,7.388,0,0,0-1.566-5.12,5.752,5.752,0,0,0-4.48-1.72,6.711,6.711,0,0,0-5.12,2.007,8.071,8.071,0,0,0-1.9,5.76v12.049h-4.237V323.93h4.061v3.487a8.212,8.212,0,0,1,3.354-2.758,11.226,11.226,0,0,1,4.722-.949,10.362,10.362,0,0,1,4.855,1.1,7.669,7.669,0,0,1,3.266,3.222,8.964,8.964,0,0,1,3.686-3.178,12.023,12.023,0,0,1,5.318-1.147A9.5,9.5,0,0,1,793.964,326.269Z" style="fill:#fff"/><path d="M808.242,346.042a11.2,11.2,0,0,1-4.348-4.259,12.879,12.879,0,0,1,0-12.314,11.054,11.054,0,0,1,4.348-4.237,13.618,13.618,0,0,1,12.512,0,11.107,11.107,0,0,1,4.325,4.237,12.879,12.879,0,0,1,0,12.314,11.251,11.251,0,0,1-4.325,4.259,13.438,13.438,0,0,1-12.512,0Zm10.305-3.2a7.331,7.331,0,0,0,2.8-2.914,9.629,9.629,0,0,0,0-8.606,7.182,7.182,0,0,0-2.8-2.891,8.542,8.542,0,0,0-8.077,0,7.323,7.323,0,0,0-2.824,2.891,9.446,9.446,0,0,0,0,8.606,7.477,7.477,0,0,0,2.824,2.914,8.382,8.382,0,0,0,8.077,0Z" style="fill:#fff"/><path d="M851.009,325.21a10.808,10.808,0,0,1,4.215,4.193,13.528,13.528,0,0,1,0,12.468,10.761,10.761,0,0,1-4.215,4.216,12.305,12.305,0,0,1-6.091,1.5,11.076,11.076,0,0,1-4.767-1.015,9.182,9.182,0,0,1-3.575-2.957v3.707h-4.06V314.574h4.237v12.887a8.989,8.989,0,0,1,3.531-2.8,11.2,11.2,0,0,1,4.634-.949A12.316,12.316,0,0,1,851.009,325.21ZM848.6,342.843a7.479,7.479,0,0,0,2.825-2.914,9.446,9.446,0,0,0,0-8.606,7.325,7.325,0,0,0-2.825-2.891,8.5,8.5,0,0,0-8.055,0,7.136,7.136,0,0,0-2.824,2.891,9.629,9.629,0,0,0,0,8.606,7.282,7.282,0,0,0,2.824,2.914,8.339,8.339,0,0,0,8.055,0Z" style="fill:#fff"/><path d="M862.682,318.634a2.6,2.6,0,0,1-.816-1.942,2.677,2.677,0,0,1,.816-1.964,2.783,2.783,0,0,1,2.052-.816,2.875,2.875,0,0,1,2.053.772,2.536,2.536,0,0,1,.816,1.92,2.73,2.73,0,0,1-.816,2.008,2.782,2.782,0,0,1-2.053.816A2.821,2.821,0,0,1,862.682,318.634Zm-.066,5.3h4.237v23.392h-4.237Z" style="fill:#fff"/><path d="M874.929,314.574h4.238v32.748h-4.238Z" style="fill:#fff"/><path d="M887.309,318.634a2.6,2.6,0,0,1-.816-1.942,2.677,2.677,0,0,1,.816-1.964,2.783,2.783,0,0,1,2.052-.816,2.875,2.875,0,0,1,2.053.772,2.536,2.536,0,0,1,.816,1.92,2.73,2.73,0,0,1-.816,2.008,2.782,2.782,0,0,1-2.053.816A2.821,2.821,0,0,1,887.309,318.634Zm-.066,5.3h4.237v23.392h-4.237Z" style="fill:#fff"/><path d="M912.709,345.954a6.349,6.349,0,0,1-2.295,1.214,9.6,9.6,0,0,1-2.825.419,7.5,7.5,0,0,1-5.473-1.9,7.243,7.243,0,0,1-1.942-5.428V327.417H896.2V323.93h3.972v-5.12h4.237v5.12h6.709v3.487h-6.709v12.667A4.108,4.108,0,0,0,905.36,343a3.535,3.535,0,0,0,2.715,1.014,5.111,5.111,0,0,0,3.31-1.1Z" style="fill:#fff"/><path d="M938.086,323.93l-11.343,25.731a11.6,11.6,0,0,1-3.509,5.032,8.01,8.01,0,0,1-4.833,1.456,10.21,10.21,0,0,1-3.332-.552,6.838,6.838,0,0,1-2.67-1.611l1.81-3.178a5.9,5.9,0,0,0,4.192,1.722,4.051,4.051,0,0,0,2.583-.816,6.985,6.985,0,0,0,1.875-2.8l.75-1.633L913.282,323.93H917.7l8.165,18.713,8.077-18.713Z" style="fill:#fff"/><path d="M976,314.574v32.748h-4.061v-3.707a9.182,9.182,0,0,1-3.575,2.957,11.069,11.069,0,0,1-4.766,1.015,12.3,12.3,0,0,1-6.091-1.5,10.754,10.754,0,0,1-4.215-4.216,13.52,13.52,0,0,1,0-12.468,10.8,10.8,0,0,1,4.215-4.193,12.308,12.308,0,0,1,6.091-1.5,11.2,11.2,0,0,1,4.634.949,9.01,9.01,0,0,1,3.531,2.8V314.574Zm-8.033,28.269a7.291,7.291,0,0,0,2.825-2.914,9.629,9.629,0,0,0,0-8.606,7.145,7.145,0,0,0-2.825-2.891,8.5,8.5,0,0,0-8.055,0,7.316,7.316,0,0,0-2.824,2.891,9.438,9.438,0,0,0,0,8.606,7.47,7.47,0,0,0,2.824,2.914,8.339,8.339,0,0,0,8.055,0Z" style="fill:#fff"/><path d="M999.985,326.093q2.582,2.382,2.582,7.106v14.123h-4.016v-3.09a6.705,6.705,0,0,1-3.024,2.494,11.531,11.531,0,0,1-4.656.861,9.736,9.736,0,0,1-6.289-1.9,6.523,6.523,0,0,1-.111-9.953q2.251-1.875,7.15-1.875h6.709v-.839a5.405,5.405,0,0,0-1.589-4.193,6.7,6.7,0,0,0-4.678-1.456,12.385,12.385,0,0,0-4.061.684,10.475,10.475,0,0,0-3.354,1.831l-1.766-3.177a12.814,12.814,0,0,1,4.326-2.229,18.126,18.126,0,0,1,5.34-.772Q997.4,323.71,999.985,326.093Zm-4.215,17.146a6.19,6.19,0,0,0,2.56-3.067v-3.266H991.8q-5.385,0-5.385,3.619a3.27,3.27,0,0,0,1.369,2.78,6.243,6.243,0,0,0,3.795,1.016A7.862,7.862,0,0,0,995.77,343.239Z" style="fill:#fff"/><path d="M1023.575,345.954a6.34,6.34,0,0,1-2.3,1.214,9.6,9.6,0,0,1-2.825.419,7.5,7.5,0,0,1-5.472-1.9,7.243,7.243,0,0,1-1.942-5.428V327.417h-3.973V323.93h3.973v-5.12h4.236v5.12h6.709v3.487h-6.709v12.667a4.1,4.1,0,0,0,.95,2.913,3.531,3.531,0,0,0,2.714,1.014,5.111,5.111,0,0,0,3.31-1.1Z" style="fill:#fff"/><path d="M1044.649,326.093q2.582,2.382,2.582,7.106v14.123h-4.016v-3.09a6.708,6.708,0,0,1-3.023,2.494,11.539,11.539,0,0,1-4.657.861,9.736,9.736,0,0,1-6.289-1.9,6.523,6.523,0,0,1-.111-9.953q2.252-1.875,7.15-1.875h6.709v-.839a5.405,5.405,0,0,0-1.589-4.193,6.7,6.7,0,0,0-4.678-1.456,12.385,12.385,0,0,0-4.061.684,10.475,10.475,0,0,0-3.354,1.831l-1.765-3.177a12.809,12.809,0,0,1,4.325-2.229,18.128,18.128,0,0,1,5.341-.772Q1042.067,323.71,1044.649,326.093Zm-4.215,17.146a6.19,6.19,0,0,0,2.56-3.067v-3.266h-6.532q-5.385,0-5.385,3.619a3.27,3.27,0,0,0,1.369,2.78,6.245,6.245,0,0,0,3.8,1.016A7.862,7.862,0,0,0,1040.434,343.239Z" style="fill:#fff"/><path d="M1058.2,342.4a2.99,2.99,0,0,1,.817,2.141,5.246,5.246,0,0,1-.155,1.279q-.154.619-.595,1.9l-2.074,6.135h-2.782l1.634-6.576a2.773,2.773,0,0,1-1.347-1.037,2.961,2.961,0,0,1,2.45-4.7A2.709,2.709,0,0,1,1058.2,342.4Z" style="fill:#fff"/></g><g style="isolation:isolate"><path d="M53.292,371.6a2.6,2.6,0,0,1-.817-1.941,2.677,2.677,0,0,1,.817-1.964,2.783,2.783,0,0,1,2.052-.816,2.874,2.874,0,0,1,2.052.772,2.534,2.534,0,0,1,.817,1.92,2.727,2.727,0,0,1-.817,2.008,2.782,2.782,0,0,1-2.052.816A2.818,2.818,0,0,1,53.292,371.6Zm-.067,5.3h4.238v23.392H53.225Z" style="fill:#fff"/><path d="M78.691,398.916a6.34,6.34,0,0,1-2.3,1.214,9.6,9.6,0,0,1-2.825.419,7.5,7.5,0,0,1-5.472-1.9,7.245,7.245,0,0,1-1.942-5.429V380.379H62.185v-3.487h3.972v-5.12h4.237v5.12H77.1v3.487H70.394v12.667a4.108,4.108,0,0,0,.949,2.913,3.531,3.531,0,0,0,2.714,1.014,5.107,5.107,0,0,0,3.31-1.1Z" style="fill:#fff"/><path d="M131.079,376.892l-8.739,23.392h-4.06l-6.753-17.742-6.841,17.742h-4.06l-8.7-23.392h4.016l6.8,18.625,7.062-18.625h3.575l6.929,18.713,6.973-18.713Z" style="fill:#fff"/><path d="M135.426,371.6a2.6,2.6,0,0,1-.817-1.941,2.677,2.677,0,0,1,.817-1.964,2.783,2.783,0,0,1,2.052-.816,2.874,2.874,0,0,1,2.052.772,2.534,2.534,0,0,1,.817,1.92,2.727,2.727,0,0,1-.817,2.008,2.782,2.782,0,0,1-2.052.816A2.818,2.818,0,0,1,135.426,371.6Zm-.067,5.3H139.6v23.392h-4.238Z" style="fill:#fff"/><path d="M147.673,367.536h4.237v32.748h-4.237Z" style="fill:#fff"/><path d="M159.986,367.536h4.238v32.748h-4.238Z" style="fill:#fff"/><path d="M203.746,379.254q2.626,2.58,2.626,7.569v13.461h-4.237V387.308a7.186,7.186,0,0,0-1.633-5.12,6.143,6.143,0,0,0-4.678-1.72,7.289,7.289,0,0,0-5.429,2.007,7.848,7.848,0,0,0-1.986,5.76v12.049h-4.237V367.536h4.237V380.2a8.763,8.763,0,0,1,3.465-2.6,11.927,11.927,0,0,1,4.789-.926A9.662,9.662,0,0,1,203.746,379.254Z" style="fill:#fff"/><path d="M235.413,390H216.435a7.341,7.341,0,0,0,2.714,4.965,8.852,8.852,0,0,0,5.759,1.876,8.673,8.673,0,0,0,6.753-2.826l2.34,2.737a10.251,10.251,0,0,1-3.951,2.825,14.892,14.892,0,0,1-11.85-.552,10.849,10.849,0,0,1-4.436-4.259,12.2,12.2,0,0,1-1.567-6.179,12.406,12.406,0,0,1,1.523-6.135,10.916,10.916,0,0,1,4.193-4.259,11.944,11.944,0,0,1,6.025-1.522,11.706,11.706,0,0,1,5.98,1.522,10.721,10.721,0,0,1,4.1,4.259,12.986,12.986,0,0,1,1.478,6.267A12.383,12.383,0,0,1,235.413,390Zm-16.573-7.9a7.474,7.474,0,0,0-2.405,4.855h15.006a7.529,7.529,0,0,0-2.406-4.833,7.9,7.9,0,0,0-10.195-.022Z" style="fill:#fff"/><path d="M241.371,367.536h4.238v32.748h-4.238Z" style="fill:#fff"/><path d="M272.177,378.172a10.808,10.808,0,0,1,4.215,4.193,13.52,13.52,0,0,1,0,12.468,10.761,10.761,0,0,1-4.215,4.216,12.3,12.3,0,0,1-6.09,1.5,10.847,10.847,0,0,1-4.613-.971,9.575,9.575,0,0,1-3.552-2.825v12.093h-4.238V376.892h4.061V380.6a8.993,8.993,0,0,1,3.575-2.934,11.283,11.283,0,0,1,4.767-.993A12.309,12.309,0,0,1,272.177,378.172ZM269.772,395.8a7.467,7.467,0,0,0,2.824-2.913,9.446,9.446,0,0,0,0-8.606,7.323,7.323,0,0,0-2.824-2.891,8.041,8.041,0,0,0-4.038-1.015,7.818,7.818,0,0,0-4,1.037,7.51,7.51,0,0,0-2.824,2.891,8.615,8.615,0,0,0-1.038,4.281,8.891,8.891,0,0,0,1.015,4.3,7.269,7.269,0,0,0,2.825,2.913,8.332,8.332,0,0,0,8.055,0Z" style="fill:#fff"/><path d="M316.71,390H297.732a7.341,7.341,0,0,0,2.714,4.965,8.852,8.852,0,0,0,5.759,1.876,8.673,8.673,0,0,0,6.753-2.826l2.339,2.737a10.24,10.24,0,0,1-3.95,2.825,14.892,14.892,0,0,1-11.85-.552,10.849,10.849,0,0,1-4.436-4.259,12.2,12.2,0,0,1-1.567-6.179,12.406,12.406,0,0,1,1.523-6.135,10.916,10.916,0,0,1,4.193-4.259,11.943,11.943,0,0,1,6.024-1.522,11.707,11.707,0,0,1,5.981,1.522,10.712,10.712,0,0,1,4.1,4.259,12.975,12.975,0,0,1,1.479,6.267A12.383,12.383,0,0,1,316.71,390Zm-16.573-7.9a7.47,7.47,0,0,0-2.4,4.855h15a7.524,7.524,0,0,0-2.405-4.833,7.9,7.9,0,0,0-10.195-.022Z" style="fill:#fff"/><path d="M323.859,399.776a12.1,12.1,0,0,1-4.148-1.964l1.765-3.354a12.648,12.648,0,0,0,3.752,1.765,15.414,15.414,0,0,0,4.457.663q5.562,0,5.561-3.178a2.058,2.058,0,0,0-.75-1.677,4.748,4.748,0,0,0-1.876-.905q-1.125-.286-3.2-.64a31.248,31.248,0,0,1-4.613-1.016,7.1,7.1,0,0,1-3.067-1.941,5.4,5.4,0,0,1-1.28-3.84,6,6,0,0,1,2.648-5.1,11.854,11.854,0,0,1,7.106-1.92,19.6,19.6,0,0,1,4.678.573,12.593,12.593,0,0,1,3.84,1.545l-1.81,3.354a12.172,12.172,0,0,0-6.752-1.853,7.8,7.8,0,0,0-4.105.883,2.661,2.661,0,0,0-1.412,2.338,2.231,2.231,0,0,0,.794,1.81,5.016,5.016,0,0,0,1.964.971q1.17.309,3.288.706a35.942,35.942,0,0,1,4.569,1.037,6.844,6.844,0,0,1,2.979,1.876,5.231,5.231,0,0,1,1.236,3.708,5.845,5.845,0,0,1-2.715,5.053,12.814,12.814,0,0,1-7.392,1.876A19.6,19.6,0,0,1,323.859,399.776Z" style="fill:#fff"/><path d="M357.931,398.916a6.332,6.332,0,0,1-2.295,1.214,9.6,9.6,0,0,1-2.824.419,7.5,7.5,0,0,1-5.473-1.9,7.245,7.245,0,0,1-1.942-5.429V380.379h-3.972v-3.487H345.4v-5.12h4.237v5.12h6.708v3.487h-6.708v12.667a4.108,4.108,0,0,0,.949,2.913,3.531,3.531,0,0,0,2.714,1.014,5.112,5.112,0,0,0,3.311-1.1Z" style="fill:#fff"/><path d="M379.005,379.054q2.583,2.384,2.583,7.107v14.123h-4.017v-3.09a6.7,6.7,0,0,1-3.023,2.494,11.555,11.555,0,0,1-4.656.861,9.741,9.741,0,0,1-6.29-1.9,6.524,6.524,0,0,1-.11-9.953q2.251-1.875,7.15-1.875h6.709v-.839a5.4,5.4,0,0,0-1.589-4.193,6.7,6.7,0,0,0-4.679-1.456,12.384,12.384,0,0,0-4.06.684,10.465,10.465,0,0,0-3.354,1.831l-1.766-3.177a12.809,12.809,0,0,1,4.325-2.229,18.1,18.1,0,0,1,5.341-.772Q376.423,376.672,379.005,379.054ZM374.791,396.2a6.19,6.19,0,0,0,2.56-3.067v-3.266h-6.533q-5.385,0-5.384,3.619a3.272,3.272,0,0,0,1.368,2.78,6.247,6.247,0,0,0,3.8,1.016A7.867,7.867,0,0,0,374.791,396.2Z" style="fill:#fff"/><path d="M407.936,378.172a10.808,10.808,0,0,1,4.215,4.193,13.528,13.528,0,0,1,0,12.468,10.761,10.761,0,0,1-4.215,4.216,12.3,12.3,0,0,1-6.091,1.5,11.069,11.069,0,0,1-4.766-1.015,9.168,9.168,0,0,1-3.575-2.957v3.707h-4.061V367.536h4.237v12.887a9,9,0,0,1,3.531-2.8,11.2,11.2,0,0,1,4.634-.949A12.313,12.313,0,0,1,407.936,378.172ZM405.53,395.8a7.463,7.463,0,0,0,2.825-2.913,9.446,9.446,0,0,0,0-8.606,7.319,7.319,0,0,0-2.825-2.891,8.5,8.5,0,0,0-8.054,0,7.132,7.132,0,0,0-2.825,2.891,9.629,9.629,0,0,0,0,8.606,7.269,7.269,0,0,0,2.825,2.913,8.33,8.33,0,0,0,8.054,0Z" style="fill:#fff"/><path d="M419.543,367.536h4.237v32.748h-4.237Z" style="fill:#fff"/><path d="M431.923,371.6a2.6,2.6,0,0,1-.816-1.941,2.676,2.676,0,0,1,.816-1.964,2.783,2.783,0,0,1,2.052-.816,2.872,2.872,0,0,1,2.052.772,2.534,2.534,0,0,1,.817,1.92,2.727,2.727,0,0,1-.817,2.008,2.78,2.78,0,0,1-2.052.816A2.818,2.818,0,0,1,431.923,371.6Zm-.066,5.3h4.237v23.392h-4.237Z" style="fill:#fff"/><path d="M445.361,399.776a12.1,12.1,0,0,1-4.148-1.964l1.765-3.354a12.648,12.648,0,0,0,3.752,1.765,15.414,15.414,0,0,0,4.457.663q5.562,0,5.561-3.178a2.058,2.058,0,0,0-.75-1.677,4.748,4.748,0,0,0-1.876-.905q-1.125-.286-3.2-.64a31.261,31.261,0,0,1-4.612-1.016,7.1,7.1,0,0,1-3.067-1.941,5.4,5.4,0,0,1-1.28-3.84,6,6,0,0,1,2.648-5.1,11.854,11.854,0,0,1,7.106-1.92,19.6,19.6,0,0,1,4.678.573,12.6,12.6,0,0,1,3.84,1.545l-1.81,3.354a12.172,12.172,0,0,0-6.752-1.853,7.8,7.8,0,0,0-4.105.883,2.661,2.661,0,0,0-1.412,2.338,2.231,2.231,0,0,0,.794,1.81,5.016,5.016,0,0,0,1.964.971q1.168.309,3.288.706a35.942,35.942,0,0,1,4.569,1.037,6.844,6.844,0,0,1,2.979,1.876,5.231,5.231,0,0,1,1.235,3.708,5.844,5.844,0,0,1-2.714,5.053,12.814,12.814,0,0,1-7.392,1.876A19.6,19.6,0,0,1,445.361,399.776Z" style="fill:#fff"/><path d="M485.856,379.254q2.625,2.58,2.626,7.569v13.461h-4.237V387.308a7.182,7.182,0,0,0-1.634-5.12,6.142,6.142,0,0,0-4.678-1.72,7.287,7.287,0,0,0-5.428,2.007,7.848,7.848,0,0,0-1.986,5.76v12.049h-4.238V367.536h4.238V380.2a8.759,8.759,0,0,1,3.464-2.6,11.93,11.93,0,0,1,4.789-.926A9.664,9.664,0,0,1,485.856,379.254Z" style="fill:#fff"/><path d="M544.467,379.231q2.582,2.56,2.582,7.592v13.461h-4.237V387.308a7.383,7.383,0,0,0-1.567-5.12,5.752,5.752,0,0,0-4.48-1.72,6.7,6.7,0,0,0-5.119,2.007,8.067,8.067,0,0,0-1.9,5.76v12.049h-4.237V387.308a7.383,7.383,0,0,0-1.567-5.12,5.751,5.751,0,0,0-4.48-1.72,6.7,6.7,0,0,0-5.119,2.007,8.067,8.067,0,0,0-1.9,5.76v12.049H508.21V376.892h4.06v3.487a8.208,8.208,0,0,1,3.355-2.758,11.223,11.223,0,0,1,4.722-.949,10.364,10.364,0,0,1,4.855,1.1A7.68,7.68,0,0,1,528.468,381a8.968,8.968,0,0,1,3.685-3.178,12.011,12.011,0,0,1,5.319-1.147A9.5,9.5,0,0,1,544.467,379.231Z" style="fill:#fff"/><path d="M576.664,376.892v23.392h-4.017v-3.531a8.51,8.51,0,0,1-3.376,2.8,10.524,10.524,0,0,1-4.568.994,10.209,10.209,0,0,1-7.371-2.582q-2.692-2.582-2.692-7.614V376.892h4.237v12.976a7.262,7.262,0,0,0,1.633,5.142,6.1,6.1,0,0,0,4.679,1.743,6.975,6.975,0,0,0,5.3-2.031,7.963,7.963,0,0,0,1.942-5.737V376.892Z" style="fill:#fff"/><path d="M597.892,398.916a6.332,6.332,0,0,1-2.3,1.214,9.6,9.6,0,0,1-2.824.419,7.5,7.5,0,0,1-5.473-1.9,7.245,7.245,0,0,1-1.942-5.429V380.379h-3.972v-3.487h3.972v-5.12H589.6v5.12H596.3v3.487H589.6v12.667a4.108,4.108,0,0,0,.949,2.913,3.531,3.531,0,0,0,2.714,1.014,5.107,5.107,0,0,0,3.31-1.1Z" style="fill:#fff"/><path d="M624.814,376.892v23.392H620.8v-3.531a8.514,8.514,0,0,1-3.375,2.8,10.525,10.525,0,0,1-4.569.994,10.2,10.2,0,0,1-7.37-2.582q-2.692-2.582-2.693-7.614V376.892h4.237v12.976a7.262,7.262,0,0,0,1.633,5.142,6.1,6.1,0,0,0,4.679,1.743,6.979,6.979,0,0,0,5.3-2.031,7.967,7.967,0,0,0,1.942-5.737V376.892Z" style="fill:#fff"/><path d="M648.845,379.054q2.583,2.384,2.582,7.107v14.123h-4.016v-3.09a6.7,6.7,0,0,1-3.023,2.494,11.555,11.555,0,0,1-4.656.861,9.739,9.739,0,0,1-6.29-1.9,6.524,6.524,0,0,1-.11-9.953q2.251-1.875,7.15-1.875h6.709v-.839a5.4,5.4,0,0,0-1.589-4.193,6.7,6.7,0,0,0-4.679-1.456,12.394,12.394,0,0,0-4.061.684,10.486,10.486,0,0,0-3.354,1.831l-1.765-3.177a12.809,12.809,0,0,1,4.325-2.229,18.1,18.1,0,0,1,5.341-.772Q646.263,376.672,648.845,379.054ZM644.63,396.2a6.187,6.187,0,0,0,2.561-3.067v-3.266h-6.533q-5.385,0-5.384,3.619a3.272,3.272,0,0,0,1.368,2.78,6.247,6.247,0,0,0,3.8,1.016A7.861,7.861,0,0,0,644.63,396.2Z" style="fill:#fff"/><path d="M659.283,367.536h4.237v32.748h-4.237Z" style="fill:#fff"/><path d="M696.621,398.916a6.349,6.349,0,0,1-2.295,1.214,9.6,9.6,0,0,1-2.825.419,7.5,7.5,0,0,1-5.473-1.9,7.248,7.248,0,0,1-1.941-5.429V380.379h-3.973v-3.487h3.973v-5.12h4.236v5.12h6.709v3.487h-6.709v12.667a4.1,4.1,0,0,0,.95,2.913,3.531,3.531,0,0,0,2.714,1.014,5.111,5.111,0,0,0,3.31-1.1Z" style="fill:#fff"/><path d="M709.067,377.731a11.837,11.837,0,0,1,5.251-1.059v4.1a8.359,8.359,0,0,0-.97-.044,7.13,7.13,0,0,0-5.407,2.052,8.123,8.123,0,0,0-1.964,5.849v11.651H701.74V376.892h4.06v3.928A7.238,7.238,0,0,1,709.067,377.731Z" style="fill:#fff"/><path d="M741.638,376.892v23.392h-4.017v-3.531a8.51,8.51,0,0,1-3.376,2.8,10.524,10.524,0,0,1-4.568.994,10.209,10.209,0,0,1-7.371-2.582q-2.693-2.582-2.692-7.614V376.892h4.237v12.976a7.262,7.262,0,0,0,1.633,5.142,6.1,6.1,0,0,0,4.679,1.743,6.979,6.979,0,0,0,5.3-2.031,7.967,7.967,0,0,0,1.942-5.737V376.892Z" style="fill:#fff"/><path d="M750.906,399.776a12.1,12.1,0,0,1-4.149-1.964l1.766-3.354a12.63,12.63,0,0,0,3.751,1.765,15.415,15.415,0,0,0,4.458.663q5.561,0,5.561-3.178a2.058,2.058,0,0,0-.75-1.677,4.755,4.755,0,0,0-1.876-.905q-1.125-.286-3.2-.64a31.261,31.261,0,0,1-4.612-1.016,7.092,7.092,0,0,1-3.068-1.941,5.4,5.4,0,0,1-1.28-3.84,6,6,0,0,1,2.648-5.1,11.854,11.854,0,0,1,7.106-1.92,19.611,19.611,0,0,1,4.679.573,12.6,12.6,0,0,1,3.839,1.545l-1.809,3.354a12.175,12.175,0,0,0-6.753-1.853,7.8,7.8,0,0,0-4.105.883,2.663,2.663,0,0,0-1.412,2.338,2.228,2.228,0,0,0,.795,1.81,5.016,5.016,0,0,0,1.964.971q1.169.309,3.288.706a35.921,35.921,0,0,1,4.568,1.037,6.832,6.832,0,0,1,2.979,1.876,5.231,5.231,0,0,1,1.236,3.708,5.846,5.846,0,0,1-2.714,5.053,12.819,12.819,0,0,1-7.393,1.876A19.6,19.6,0,0,1,750.906,399.776Z" style="fill:#fff"/><path d="M784.978,398.916a6.349,6.349,0,0,1-2.295,1.214,9.6,9.6,0,0,1-2.825.419,7.5,7.5,0,0,1-5.473-1.9,7.245,7.245,0,0,1-1.942-5.429V380.379h-3.972v-3.487h3.972v-5.12h4.237v5.12h6.709v3.487H776.68v12.667a4.1,4.1,0,0,0,.95,2.913,3.531,3.531,0,0,0,2.714,1.014,5.111,5.111,0,0,0,3.31-1.1Z" style="fill:#fff"/><path d="M802.036,371.6a2.6,2.6,0,0,1-.817-1.941,2.677,2.677,0,0,1,.817-1.964,2.783,2.783,0,0,1,2.052-.816,2.874,2.874,0,0,1,2.052.772,2.534,2.534,0,0,1,.817,1.92,2.727,2.727,0,0,1-.817,2.008,2.782,2.782,0,0,1-2.052.816A2.818,2.818,0,0,1,802.036,371.6Zm-.067,5.3h4.238v23.392h-4.238Z" style="fill:#fff"/><path d="M833.857,379.254q2.626,2.58,2.626,7.569v13.461h-4.237V387.308a7.186,7.186,0,0,0-1.633-5.12,6.143,6.143,0,0,0-4.678-1.72,7.289,7.289,0,0,0-5.429,2.007,7.848,7.848,0,0,0-1.986,5.76v12.049h-4.237V376.892h4.06v3.531a8.247,8.247,0,0,1,3.465-2.781,12.133,12.133,0,0,1,4.966-.97A9.662,9.662,0,0,1,833.857,379.254Z" style="fill:#fff"/><path d="M869.363,398.916a6.332,6.332,0,0,1-2.3,1.214,9.6,9.6,0,0,1-2.824.419,7.5,7.5,0,0,1-5.473-1.9,7.245,7.245,0,0,1-1.942-5.429V380.379h-3.972v-3.487h3.972v-5.12h4.237v5.12h6.709v3.487h-6.709v12.667a4.108,4.108,0,0,0,.949,2.913,3.533,3.533,0,0,0,2.715,1.014,5.111,5.111,0,0,0,3.31-1.1Z" style="fill:#fff"/><path d="M894.741,390H875.763a7.346,7.346,0,0,0,2.715,4.965,8.852,8.852,0,0,0,5.759,1.876,8.676,8.676,0,0,0,6.753-2.826l2.339,2.737a10.24,10.24,0,0,1-3.95,2.825,14.894,14.894,0,0,1-11.851-.552,10.847,10.847,0,0,1-4.435-4.259,12.2,12.2,0,0,1-1.567-6.179,12.406,12.406,0,0,1,1.523-6.135,10.916,10.916,0,0,1,4.193-4.259,11.943,11.943,0,0,1,6.024-1.522,11.707,11.707,0,0,1,5.981,1.522,10.712,10.712,0,0,1,4.1,4.259,12.975,12.975,0,0,1,1.479,6.267A12.153,12.153,0,0,1,894.741,390Zm-16.572-7.9a7.471,7.471,0,0,0-2.406,4.855h15.006a7.528,7.528,0,0,0-2.4-4.833,7.9,7.9,0,0,0-10.2-.022Z" style="fill:#fff"/><path d="M908.026,377.731a11.839,11.839,0,0,1,5.252-1.059v4.1a8.379,8.379,0,0,0-.971-.044,7.128,7.128,0,0,0-5.406,2.052,8.123,8.123,0,0,0-1.964,5.849v11.651H900.7V376.892h4.061v3.928A7.231,7.231,0,0,1,908.026,377.731Z" style="fill:#fff"/><path d="M954.743,379.231q2.582,2.56,2.582,7.592v13.461h-4.237V387.308a7.383,7.383,0,0,0-1.566-5.12,5.752,5.752,0,0,0-4.48-1.72,6.707,6.707,0,0,0-5.12,2.007,8.071,8.071,0,0,0-1.9,5.76v12.049h-4.237V387.308a7.383,7.383,0,0,0-1.567-5.12,5.748,5.748,0,0,0-4.479-1.72,6.706,6.706,0,0,0-5.12,2.007,8.071,8.071,0,0,0-1.9,5.76v12.049h-4.237V376.892h4.061v3.487a8.212,8.212,0,0,1,3.354-2.758,11.226,11.226,0,0,1,4.722-.949,10.364,10.364,0,0,1,4.855,1.1A7.669,7.669,0,0,1,938.744,381a8.964,8.964,0,0,1,3.686-3.178,12.006,12.006,0,0,1,5.318-1.147A9.5,9.5,0,0,1,954.743,379.231Z" style="fill:#fff"/><path d="M966.328,399.776a12.107,12.107,0,0,1-4.149-1.964l1.766-3.354a12.653,12.653,0,0,0,3.751,1.765,15.42,15.42,0,0,0,4.458.663q5.561,0,5.561-3.178a2.058,2.058,0,0,0-.75-1.677,4.755,4.755,0,0,0-1.876-.905q-1.125-.286-3.2-.64a31.261,31.261,0,0,1-4.612-1.016,7.1,7.1,0,0,1-3.067-1.941,5.4,5.4,0,0,1-1.28-3.84,6,6,0,0,1,2.648-5.1,11.852,11.852,0,0,1,7.106-1.92,19.6,19.6,0,0,1,4.678.573,12.6,12.6,0,0,1,3.84,1.545l-1.81,3.354a12.172,12.172,0,0,0-6.752-1.853,7.8,7.8,0,0,0-4.105.883,2.661,2.661,0,0,0-1.412,2.338,2.228,2.228,0,0,0,.794,1.81,5.016,5.016,0,0,0,1.964.971q1.168.309,3.288.706a35.921,35.921,0,0,1,4.568,1.037,6.832,6.832,0,0,1,2.979,1.876,5.227,5.227,0,0,1,1.236,3.708,5.846,5.846,0,0,1-2.714,5.053,12.819,12.819,0,0,1-7.393,1.876A19.6,19.6,0,0,1,966.328,399.776Z" style="fill:#fff"/></g><g style="isolation:isolate"><path d="M56.977,451.967a11.194,11.194,0,0,1-4.347-4.259,12.879,12.879,0,0,1,0-12.314,11.044,11.044,0,0,1,4.347-4.237,13.618,13.618,0,0,1,12.512,0,11.1,11.1,0,0,1,4.326,4.237,12.887,12.887,0,0,1,0,12.314,11.254,11.254,0,0,1-4.326,4.259,13.446,13.446,0,0,1-12.512,0Zm10.305-3.2a7.315,7.315,0,0,0,2.8-2.913,9.629,9.629,0,0,0,0-8.606,7.176,7.176,0,0,0-2.8-2.891,8.54,8.54,0,0,0-8.076,0,7.319,7.319,0,0,0-2.825,2.891,9.446,9.446,0,0,0,0,8.606,7.463,7.463,0,0,0,2.825,2.913,8.38,8.38,0,0,0,8.076,0Z" style="fill:#fff"/><path d="M86.018,427.825v2.03h6.8v3.487H86.106v19.905H81.869V433.342H77.9v-3.487h3.972v-2.074a7.459,7.459,0,0,1,2.031-5.518,7.7,7.7,0,0,1,5.693-2.03,9.58,9.58,0,0,1,2.648.354,6.433,6.433,0,0,1,2.118,1.014l-1.279,3.223a5.28,5.28,0,0,0-3.266-1.1Q86.018,423.72,86.018,427.825Z" style="fill:#fff"/><path d="M130.771,420.5v32.748H126.71V449.54a9.182,9.182,0,0,1-3.575,2.957,11.071,11.071,0,0,1-4.766,1.014,12.3,12.3,0,0,1-6.091-1.5,10.752,10.752,0,0,1-4.215-4.215,13.52,13.52,0,0,1,0-12.468,10.8,10.8,0,0,1,4.215-4.193,12.308,12.308,0,0,1,6.091-1.5,11.2,11.2,0,0,1,4.634.949,9.01,9.01,0,0,1,3.531,2.8V420.5Zm-8.033,28.268a7.282,7.282,0,0,0,2.825-2.913,9.629,9.629,0,0,0,0-8.606,7.145,7.145,0,0,0-2.825-2.891,8.5,8.5,0,0,0-8.055,0,7.316,7.316,0,0,0-2.824,2.891,9.438,9.438,0,0,0,0,8.606,7.46,7.46,0,0,0,2.824,2.913,8.339,8.339,0,0,0,8.055,0Z" style="fill:#fff"/><path d="M154.758,432.017q2.582,2.383,2.582,7.107v14.123h-4.016v-3.09a6.705,6.705,0,0,1-3.024,2.494,11.548,11.548,0,0,1-4.656.86,9.736,9.736,0,0,1-6.289-1.9,6.523,6.523,0,0,1-.111-9.953q2.251-1.875,7.15-1.875H153.1v-.839a5.4,5.4,0,0,0-1.589-4.193,6.7,6.7,0,0,0-4.678-1.456,12.385,12.385,0,0,0-4.061.684,10.475,10.475,0,0,0-3.354,1.831l-1.766-3.177a12.814,12.814,0,0,1,4.326-2.229,18.093,18.093,0,0,1,5.34-.772Q152.176,429.635,154.758,432.017Zm-4.215,17.147a6.188,6.188,0,0,0,2.56-3.068v-3.265h-6.532q-5.385,0-5.385,3.619a3.271,3.271,0,0,0,1.369,2.78,6.243,6.243,0,0,0,3.795,1.016A7.862,7.862,0,0,0,150.543,449.164Z" style="fill:#fff"/><path d="M178.348,451.879a6.349,6.349,0,0,1-2.3,1.214,9.6,9.6,0,0,1-2.825.418,7.5,7.5,0,0,1-5.473-1.9,7.248,7.248,0,0,1-1.941-5.429V433.342h-3.973v-3.487h3.973v-5.12h4.236v5.12h6.709v3.487H170.05v12.667a4.1,4.1,0,0,0,.95,2.913,3.535,3.535,0,0,0,2.714,1.014,5.111,5.111,0,0,0,3.31-1.1Z" style="fill:#fff"/><path d="M199.422,432.017Q202,434.4,202,439.124v14.123h-4.016v-3.09a6.705,6.705,0,0,1-3.024,2.494,11.548,11.548,0,0,1-4.656.86,9.736,9.736,0,0,1-6.289-1.9,6.523,6.523,0,0,1-.111-9.953q2.251-1.875,7.15-1.875h6.709v-.839a5.4,5.4,0,0,0-1.589-4.193A6.7,6.7,0,0,0,191.5,433.3a12.385,12.385,0,0,0-4.061.684,10.475,10.475,0,0,0-3.354,1.831l-1.766-3.177a12.823,12.823,0,0,1,4.326-2.229,18.093,18.093,0,0,1,5.34-.772Q196.841,429.635,199.422,432.017Zm-4.215,17.147a6.188,6.188,0,0,0,2.56-3.068v-3.265h-6.532q-5.385,0-5.385,3.619a3.271,3.271,0,0,0,1.369,2.78,6.243,6.243,0,0,0,3.8,1.016A7.862,7.862,0,0,0,195.207,449.164Z" style="fill:#fff"/><path d="M222.924,452.739a12.1,12.1,0,0,1-4.149-1.964l1.766-3.354a12.63,12.63,0,0,0,3.751,1.765,15.414,15.414,0,0,0,4.458.662q5.56,0,5.561-3.177a2.058,2.058,0,0,0-.75-1.677,4.755,4.755,0,0,0-1.876-.905q-1.125-.286-3.2-.64a31.261,31.261,0,0,1-4.612-1.016,7.092,7.092,0,0,1-3.068-1.941,5.4,5.4,0,0,1-1.279-3.84,6,6,0,0,1,2.647-5.1,11.861,11.861,0,0,1,7.106-1.919,19.611,19.611,0,0,1,4.679.573,12.6,12.6,0,0,1,3.839,1.545l-1.809,3.354a12.175,12.175,0,0,0-6.753-1.853,7.813,7.813,0,0,0-4.105.882,2.666,2.666,0,0,0-1.412,2.339,2.228,2.228,0,0,0,.8,1.81,5.016,5.016,0,0,0,1.964.971q1.168.309,3.288.706A35.921,35.921,0,0,1,234.333,441a6.832,6.832,0,0,1,2.979,1.876,5.231,5.231,0,0,1,1.236,3.708,5.846,5.846,0,0,1-2.714,5.053,12.827,12.827,0,0,1-7.393,1.875A19.6,19.6,0,0,1,222.924,452.739Z" style="fill:#fff"/><path d="M263.418,432.217q2.625,2.58,2.626,7.569v13.461h-4.237V440.271a7.182,7.182,0,0,0-1.634-5.12,6.141,6.141,0,0,0-4.678-1.721,7.287,7.287,0,0,0-5.428,2.008,7.848,7.848,0,0,0-1.986,5.76v12.049h-4.238V420.5h4.238v12.666a8.75,8.75,0,0,1,3.464-2.6,11.93,11.93,0,0,1,4.789-.926A9.664,9.664,0,0,1,263.418,432.217Z" style="fill:#fff"/><path d="M289.855,432.017q2.582,2.383,2.582,7.107v14.123h-4.016v-3.09a6.705,6.705,0,0,1-3.024,2.494,11.552,11.552,0,0,1-4.656.86,9.741,9.741,0,0,1-6.29-1.9,6.524,6.524,0,0,1-.11-9.953q2.251-1.875,7.15-1.875H288.2v-.839a5.4,5.4,0,0,0-1.589-4.193,6.7,6.7,0,0,0-4.679-1.456,12.384,12.384,0,0,0-4.06.684,10.465,10.465,0,0,0-3.354,1.831l-1.766-3.177a12.818,12.818,0,0,1,4.325-2.229,18.1,18.1,0,0,1,5.341-.772Q287.272,429.635,289.855,432.017Zm-4.215,17.147a6.188,6.188,0,0,0,2.56-3.068v-3.265h-6.532q-5.387,0-5.385,3.619a3.273,3.273,0,0,0,1.368,2.78,6.247,6.247,0,0,0,3.8,1.016A7.862,7.862,0,0,0,285.64,449.164Z" style="fill:#fff"/><path d="M307.619,430.694a11.839,11.839,0,0,1,5.252-1.059v4.1a8.379,8.379,0,0,0-.971-.044,7.13,7.13,0,0,0-5.407,2.052,8.127,8.127,0,0,0-1.964,5.848v11.652h-4.237V429.855h4.061v3.928A7.226,7.226,0,0,1,307.619,430.694Z" style="fill:#fff"/><path d="M318.145,424.558a2.6,2.6,0,0,1-.816-1.941,2.676,2.676,0,0,1,.816-1.964,2.783,2.783,0,0,1,2.052-.816,2.871,2.871,0,0,1,2.053.772,2.535,2.535,0,0,1,.816,1.92,2.73,2.73,0,0,1-.816,2.008,2.782,2.782,0,0,1-2.053.816A2.818,2.818,0,0,1,318.145,424.558Zm-.066,5.3h4.237v23.392h-4.237Z" style="fill:#fff"/><path d="M349.966,432.217q2.626,2.58,2.626,7.569v13.461h-4.236V440.271a7.182,7.182,0,0,0-1.634-5.12,6.144,6.144,0,0,0-4.678-1.721,7.291,7.291,0,0,0-5.429,2.008,7.852,7.852,0,0,0-1.985,5.76v12.049h-4.238V429.855h4.061v3.531a8.233,8.233,0,0,1,3.465-2.781,12.124,12.124,0,0,1,4.965-.97A9.662,9.662,0,0,1,349.966,432.217Z" style="fill:#fff"/><path d="M382.957,429.855v20.214q0,6.135-3.045,9.069t-9.092,2.936a21.76,21.76,0,0,1-6.312-.905,12.506,12.506,0,0,1-4.855-2.581l2.031-3.267a11.971,11.971,0,0,0,4.038,2.229,15.353,15.353,0,0,0,4.966.817q4.1,0,6.068-1.942t1.964-5.914v-1.854a9.375,9.375,0,0,1-3.685,2.714,12.288,12.288,0,0,1-4.745.905,12.785,12.785,0,0,1-6.068-1.434,10.657,10.657,0,0,1-4.259-4.017,12.007,12.007,0,0,1,0-11.784,10.514,10.514,0,0,1,4.259-3.994,12.939,12.939,0,0,1,6.068-1.412,12.417,12.417,0,0,1,4.921.97,9.155,9.155,0,0,1,3.73,2.869v-3.619ZM374.9,447.6a7.177,7.177,0,0,0,2.869-2.713,7.584,7.584,0,0,0,1.037-3.951,7.16,7.16,0,0,0-2.251-5.5,9.082,9.082,0,0,0-11.607,0,7.16,7.16,0,0,0-2.251,5.5,7.584,7.584,0,0,0,1.037,3.951,7.164,7.164,0,0,0,2.869,2.713,8.756,8.756,0,0,0,4.171.971A8.665,8.665,0,0,0,374.9,447.6Z" style="fill:#fff"/><path d="M418.86,432.017q2.583,2.383,2.583,7.107v14.123h-4.017v-3.09a6.7,6.7,0,0,1-3.023,2.494,11.555,11.555,0,0,1-4.656.86,9.741,9.741,0,0,1-6.29-1.9,6.524,6.524,0,0,1-.11-9.953q2.252-1.875,7.15-1.875h6.709v-.839a5.4,5.4,0,0,0-1.589-4.193,6.7,6.7,0,0,0-4.679-1.456,12.384,12.384,0,0,0-4.06.684,10.465,10.465,0,0,0-3.354,1.831l-1.766-3.177a12.809,12.809,0,0,1,4.325-2.229,18.1,18.1,0,0,1,5.341-.772Q416.278,429.635,418.86,432.017Zm-4.214,17.147a6.188,6.188,0,0,0,2.56-3.068v-3.265h-6.533q-5.385,0-5.384,3.619a3.273,3.273,0,0,0,1.368,2.78,6.247,6.247,0,0,0,3.8,1.016A7.867,7.867,0,0,0,414.646,449.164Z" style="fill:#fff"/><path d="M448.872,432.217q2.626,2.58,2.626,7.569v13.461h-4.237V440.271a7.186,7.186,0,0,0-1.633-5.12,6.144,6.144,0,0,0-4.678-1.721,7.29,7.29,0,0,0-5.429,2.008,7.848,7.848,0,0,0-1.986,5.76v12.049H429.3V429.855h4.061v3.531a8.236,8.236,0,0,1,3.464-2.781,12.133,12.133,0,0,1,4.966-.97A9.662,9.662,0,0,1,448.872,432.217Z" style="fill:#fff"/><path d="M481.554,420.5v32.748h-4.06V449.54a9.182,9.182,0,0,1-3.575,2.957,11.076,11.076,0,0,1-4.767,1.014,12.293,12.293,0,0,1-6.09-1.5,10.752,10.752,0,0,1-4.215-4.215,13.52,13.52,0,0,1,0-12.468,10.8,10.8,0,0,1,4.215-4.193,12.3,12.3,0,0,1,6.09-1.5,11.207,11.207,0,0,1,4.635.949,9.01,9.01,0,0,1,3.531,2.8V420.5Zm-8.032,28.268a7.273,7.273,0,0,0,2.824-2.913,9.629,9.629,0,0,0,0-8.606,7.136,7.136,0,0,0-2.824-2.891,8.5,8.5,0,0,0-8.055,0,7.325,7.325,0,0,0-2.825,2.891,9.446,9.446,0,0,0,0,8.606,7.47,7.47,0,0,0,2.825,2.913,8.339,8.339,0,0,0,8.055,0Z" style="fill:#fff"/><path d="M523.526,420.5v32.748h-4.06V449.54a9.182,9.182,0,0,1-3.575,2.957,11.074,11.074,0,0,1-4.766,1.014,12.3,12.3,0,0,1-6.091-1.5,10.752,10.752,0,0,1-4.215-4.215,13.52,13.52,0,0,1,0-12.468,10.8,10.8,0,0,1,4.215-4.193,12.308,12.308,0,0,1,6.091-1.5,11.205,11.205,0,0,1,4.634.949,9.01,9.01,0,0,1,3.531,2.8V420.5Zm-8.032,28.268a7.273,7.273,0,0,0,2.824-2.913,9.62,9.62,0,0,0,0-8.606,7.136,7.136,0,0,0-2.824-2.891,8.5,8.5,0,0,0-8.055,0,7.325,7.325,0,0,0-2.825,2.891,9.446,9.446,0,0,0,0,8.606,7.47,7.47,0,0,0,2.825,2.913,8.339,8.339,0,0,0,8.055,0Z" style="fill:#fff"/><path d="M552.611,442.964H533.633a7.343,7.343,0,0,0,2.715,4.964,8.852,8.852,0,0,0,5.759,1.876,8.676,8.676,0,0,0,6.753-2.825l2.339,2.737a10.24,10.24,0,0,1-3.95,2.825,14.9,14.9,0,0,1-11.85-.552,10.856,10.856,0,0,1-4.436-4.259,12.206,12.206,0,0,1-1.567-6.179,12.406,12.406,0,0,1,1.523-6.135,10.916,10.916,0,0,1,4.193-4.259,11.943,11.943,0,0,1,6.024-1.522,11.707,11.707,0,0,1,5.981,1.522,10.712,10.712,0,0,1,4.1,4.259,12.975,12.975,0,0,1,1.479,6.267A12.153,12.153,0,0,1,552.611,442.964Zm-16.572-7.9a7.475,7.475,0,0,0-2.406,4.855h15.006a7.528,7.528,0,0,0-2.4-4.833,7.9,7.9,0,0,0-10.2-.022Z" style="fill:#fff"/><path d="M578.828,429.855l-10.24,23.392h-4.325l-10.239-23.392h4.413l8.033,18.758,8.209-18.758Z" style="fill:#fff"/><path d="M603.19,442.964H584.212a7.342,7.342,0,0,0,2.714,4.964,8.857,8.857,0,0,0,5.76,1.876,8.676,8.676,0,0,0,6.753-2.825l2.339,2.737a10.255,10.255,0,0,1-3.95,2.825,14.906,14.906,0,0,1-11.851-.552,10.859,10.859,0,0,1-4.435-4.259,12.206,12.206,0,0,1-1.567-6.179,12.406,12.406,0,0,1,1.523-6.135,10.916,10.916,0,0,1,4.193-4.259,11.94,11.94,0,0,1,6.024-1.522,11.7,11.7,0,0,1,5.98,1.522,10.714,10.714,0,0,1,4.1,4.259,12.986,12.986,0,0,1,1.478,6.267A12.107,12.107,0,0,1,603.19,442.964Zm-16.573-7.9a7.474,7.474,0,0,0-2.4,4.855h15.006a7.528,7.528,0,0,0-2.4-4.833,7.9,7.9,0,0,0-10.2-.022Z" style="fill:#fff"/><path d="M609.148,420.5h4.237v32.748h-4.237Z" style="fill:#fff"/><path d="M625.213,451.967a11.2,11.2,0,0,1-4.347-4.259,12.879,12.879,0,0,1,0-12.314,11.051,11.051,0,0,1,4.347-4.237,13.62,13.62,0,0,1,12.513,0,11.107,11.107,0,0,1,4.325,4.237,12.879,12.879,0,0,1,0,12.314,11.258,11.258,0,0,1-4.325,4.259,13.448,13.448,0,0,1-12.513,0Zm10.306-3.2a7.313,7.313,0,0,0,2.8-2.913,9.62,9.62,0,0,0,0-8.606,7.173,7.173,0,0,0-2.8-2.891,8.542,8.542,0,0,0-8.077,0,7.325,7.325,0,0,0-2.825,2.891,9.446,9.446,0,0,0,0,8.606,7.47,7.47,0,0,0,2.825,2.913,8.382,8.382,0,0,0,8.077,0Z" style="fill:#fff"/><path d="M667.981,431.135a10.806,10.806,0,0,1,4.214,4.193,13.52,13.52,0,0,1,0,12.468,10.756,10.756,0,0,1-4.214,4.215,12.305,12.305,0,0,1-6.091,1.5,10.85,10.85,0,0,1-4.613-.97,9.583,9.583,0,0,1-3.552-2.825v12.093h-4.238V429.855h4.061v3.707a8.993,8.993,0,0,1,3.575-2.934,11.286,11.286,0,0,1,4.767-.993A12.316,12.316,0,0,1,667.981,431.135Zm-2.406,17.632a7.47,7.47,0,0,0,2.825-2.913,9.446,9.446,0,0,0,0-8.606,7.325,7.325,0,0,0-2.825-2.891,8.031,8.031,0,0,0-4.038-1.015,7.818,7.818,0,0,0-4,1.037,7.517,7.517,0,0,0-2.824,2.891,8.615,8.615,0,0,0-1.038,4.281,8.891,8.891,0,0,0,1.015,4.3,7.276,7.276,0,0,0,2.825,2.913,8.339,8.339,0,0,0,8.055,0Z" style="fill:#fff"/><path d="M713.527,420.5v32.748h-4.06V449.54a9.182,9.182,0,0,1-3.575,2.957,11.074,11.074,0,0,1-4.766,1.014,12.294,12.294,0,0,1-6.091-1.5,10.752,10.752,0,0,1-4.215-4.215,13.52,13.52,0,0,1,0-12.468,10.8,10.8,0,0,1,4.215-4.193,12.305,12.305,0,0,1,6.091-1.5,11.205,11.205,0,0,1,4.634.949,9.01,9.01,0,0,1,3.531,2.8V420.5ZM705.5,448.767a7.273,7.273,0,0,0,2.824-2.913,9.62,9.62,0,0,0,0-8.606,7.136,7.136,0,0,0-2.824-2.891,8.5,8.5,0,0,0-8.055,0,7.325,7.325,0,0,0-2.825,2.891,9.446,9.446,0,0,0,0,8.606,7.47,7.47,0,0,0,2.825,2.913,8.339,8.339,0,0,0,8.055,0Z" style="fill:#fff"/><path d="M737.515,432.017q2.582,2.383,2.582,7.107v14.123h-4.016v-3.09a6.705,6.705,0,0,1-3.024,2.494,11.552,11.552,0,0,1-4.656.86,9.741,9.741,0,0,1-6.29-1.9,6.524,6.524,0,0,1-.11-9.953q2.251-1.875,7.15-1.875h6.709v-.839a5.4,5.4,0,0,0-1.589-4.193,6.7,6.7,0,0,0-4.679-1.456,12.384,12.384,0,0,0-4.06.684,10.465,10.465,0,0,0-3.354,1.831l-1.766-3.177a12.818,12.818,0,0,1,4.325-2.229,18.1,18.1,0,0,1,5.341-.772Q734.934,429.635,737.515,432.017ZM733.3,449.164a6.188,6.188,0,0,0,2.56-3.068v-3.265h-6.532q-5.387,0-5.385,3.619a3.271,3.271,0,0,0,1.369,2.78,6.241,6.241,0,0,0,3.795,1.016A7.862,7.862,0,0,0,733.3,449.164Z" style="fill:#fff"/><path d="M761.105,451.879a6.349,6.349,0,0,1-2.3,1.214,9.6,9.6,0,0,1-2.825.418,7.5,7.5,0,0,1-5.473-1.9,7.245,7.245,0,0,1-1.942-5.429V433.342H744.6v-3.487h3.972v-5.12h4.237v5.12h6.709v3.487h-6.709v12.667a4.108,4.108,0,0,0,.949,2.913,3.538,3.538,0,0,0,2.715,1.014,5.111,5.111,0,0,0,3.31-1.1Z" style="fill:#fff"/><path d="M782.179,432.017q2.582,2.383,2.582,7.107v14.123h-4.016v-3.09a6.705,6.705,0,0,1-3.024,2.494,11.552,11.552,0,0,1-4.656.86,9.736,9.736,0,0,1-6.289-1.9,6.523,6.523,0,0,1-.111-9.953q2.252-1.875,7.15-1.875h6.709v-.839a5.4,5.4,0,0,0-1.589-4.193,6.7,6.7,0,0,0-4.679-1.456,12.384,12.384,0,0,0-4.06.684,10.475,10.475,0,0,0-3.354,1.831l-1.766-3.177a12.818,12.818,0,0,1,4.325-2.229,18.1,18.1,0,0,1,5.341-.772Q779.6,429.635,782.179,432.017Zm-4.215,17.147a6.188,6.188,0,0,0,2.56-3.068v-3.265h-6.532q-5.387,0-5.385,3.619a3.271,3.271,0,0,0,1.369,2.78,6.241,6.241,0,0,0,3.795,1.016A7.862,7.862,0,0,0,777.964,449.164Z" style="fill:#fff"/><path d="M811.816,430.694a11.839,11.839,0,0,1,5.252-1.059v4.1a8.391,8.391,0,0,0-.971-.044,7.13,7.13,0,0,0-5.407,2.052,8.122,8.122,0,0,0-1.964,5.848v11.652h-4.237V429.855h4.06v3.928A7.233,7.233,0,0,1,811.816,430.694Z" style="fill:#fff"/><path d="M843.107,442.964H824.129a7.342,7.342,0,0,0,2.714,4.964,8.857,8.857,0,0,0,5.76,1.876,8.676,8.676,0,0,0,6.753-2.825l2.339,2.737a10.255,10.255,0,0,1-3.95,2.825,14.906,14.906,0,0,1-11.851-.552,10.859,10.859,0,0,1-4.435-4.259,12.206,12.206,0,0,1-1.567-6.179,12.406,12.406,0,0,1,1.523-6.135,10.916,10.916,0,0,1,4.193-4.259,11.94,11.94,0,0,1,6.024-1.522,11.7,11.7,0,0,1,5.98,1.522,10.714,10.714,0,0,1,4.105,4.259,12.986,12.986,0,0,1,1.478,6.267A12.107,12.107,0,0,1,843.107,442.964Zm-16.573-7.9a7.474,7.474,0,0,0-2.4,4.855h15.006a7.528,7.528,0,0,0-2.4-4.833,7.9,7.9,0,0,0-10.2-.022Z" style="fill:#fff"/><path d="M849.065,420.5H853.3v32.748h-4.237Z" style="fill:#fff"/><path d="M877.334,432.017q2.582,2.383,2.582,7.107v14.123H875.9v-3.09a6.705,6.705,0,0,1-3.024,2.494,11.552,11.552,0,0,1-4.656.86,9.741,9.741,0,0,1-6.29-1.9,6.524,6.524,0,0,1-.11-9.953q2.251-1.875,7.15-1.875h6.709v-.839a5.4,5.4,0,0,0-1.589-4.193,6.7,6.7,0,0,0-4.679-1.456,12.384,12.384,0,0,0-4.06.684A10.465,10.465,0,0,0,862,435.813l-1.766-3.177a12.818,12.818,0,0,1,4.325-2.229,18.1,18.1,0,0,1,5.341-.772Q874.751,429.635,877.334,432.017Zm-4.215,17.147a6.188,6.188,0,0,0,2.56-3.068v-3.265h-6.532q-5.386,0-5.385,3.619a3.273,3.273,0,0,0,1.368,2.78,6.247,6.247,0,0,0,3.8,1.016A7.862,7.862,0,0,0,873.119,449.164Z" style="fill:#fff"/><path d="M900.923,451.879a6.336,6.336,0,0,1-2.294,1.214,9.609,9.609,0,0,1-2.825.418,7.5,7.5,0,0,1-5.473-1.9,7.245,7.245,0,0,1-1.942-5.429V433.342h-3.972v-3.487h3.972v-5.12h4.237v5.12h6.709v3.487h-6.709v12.667a4.108,4.108,0,0,0,.949,2.913,3.537,3.537,0,0,0,2.715,1.014,5.111,5.111,0,0,0,3.31-1.1Z" style="fill:#fff"/><path d="M926.3,442.964H907.323a7.343,7.343,0,0,0,2.715,4.964A8.852,8.852,0,0,0,915.8,449.8a8.676,8.676,0,0,0,6.753-2.825l2.339,2.737a10.24,10.24,0,0,1-3.95,2.825,14.906,14.906,0,0,1-11.851-.552,10.859,10.859,0,0,1-4.435-4.259,12.206,12.206,0,0,1-1.567-6.179,12.406,12.406,0,0,1,1.523-6.135,10.916,10.916,0,0,1,4.193-4.259,11.943,11.943,0,0,1,6.024-1.522,11.707,11.707,0,0,1,5.981,1.522,10.712,10.712,0,0,1,4.1,4.259,12.975,12.975,0,0,1,1.479,6.267A12.153,12.153,0,0,1,926.3,442.964Zm-16.572-7.9a7.471,7.471,0,0,0-2.406,4.855h15.006a7.528,7.528,0,0,0-2.4-4.833,7.9,7.9,0,0,0-10.195-.022Z" style="fill:#fff"/><path d="M954.327,420.5v32.748h-4.06V449.54a9.182,9.182,0,0,1-3.575,2.957,11.076,11.076,0,0,1-4.767,1.014,12.293,12.293,0,0,1-6.09-1.5,10.752,10.752,0,0,1-4.215-4.215,13.52,13.52,0,0,1,0-12.468,10.8,10.8,0,0,1,4.215-4.193,12.3,12.3,0,0,1,6.09-1.5,11.207,11.207,0,0,1,4.635.949,9,9,0,0,1,3.53,2.8V420.5ZM946.3,448.767a7.273,7.273,0,0,0,2.824-2.913,9.629,9.629,0,0,0,0-8.606,7.136,7.136,0,0,0-2.824-2.891,8.5,8.5,0,0,0-8.055,0,7.319,7.319,0,0,0-2.825,2.891,9.446,9.446,0,0,0,0,8.606,7.463,7.463,0,0,0,2.825,2.913,8.339,8.339,0,0,0,8.055,0Z" style="fill:#fff"/></g><g style="isolation:isolate"><path d="M75.6,482.817v20.214q0,6.135-3.045,9.069t-9.092,2.936a21.76,21.76,0,0,1-6.312-.9A12.506,12.506,0,0,1,52.3,511.55l2.031-3.267a11.952,11.952,0,0,0,4.038,2.228,15.327,15.327,0,0,0,4.966.818q4.1,0,6.068-1.943t1.964-5.914v-1.853a9.375,9.375,0,0,1-3.685,2.714,12.288,12.288,0,0,1-4.745.9,12.774,12.774,0,0,1-6.068-1.435,10.654,10.654,0,0,1-4.259-4.016,12.007,12.007,0,0,1,0-11.784,10.514,10.514,0,0,1,4.259-3.994,12.94,12.94,0,0,1,6.068-1.413,12.418,12.418,0,0,1,4.921.971,9.155,9.155,0,0,1,3.73,2.869v-3.619Zm-8.055,17.742a7.172,7.172,0,0,0,2.869-2.714,7.578,7.578,0,0,0,1.037-3.95,7.16,7.16,0,0,0-2.251-5.5,8.146,8.146,0,0,0-5.781-2.1,8.208,8.208,0,0,0-5.826,2.1,7.16,7.16,0,0,0-2.251,5.5,7.578,7.578,0,0,0,1.037,3.95,7.16,7.16,0,0,0,2.869,2.714,8.756,8.756,0,0,0,4.171.971A8.665,8.665,0,0,0,67.547,500.559Z" style="fill:#fff"/><path d="M105.481,482.817v23.392h-4.017v-3.531a8.51,8.51,0,0,1-3.376,2.8,10.531,10.531,0,0,1-4.568.993,10.2,10.2,0,0,1-7.37-2.582q-2.692-2.58-2.693-7.613V482.817h4.237v12.976a7.26,7.26,0,0,0,1.633,5.141,6.1,6.1,0,0,0,4.679,1.744,6.979,6.979,0,0,0,5.3-2.031,7.967,7.967,0,0,0,1.942-5.737V482.817Z" style="fill:#fff"/><path d="M113.624,477.52a2.6,2.6,0,0,1-.817-1.941,2.677,2.677,0,0,1,.817-1.964,2.783,2.783,0,0,1,2.052-.816,2.87,2.87,0,0,1,2.052.772,2.532,2.532,0,0,1,.817,1.92,2.727,2.727,0,0,1-.817,2.008,2.782,2.782,0,0,1-2.052.816A2.818,2.818,0,0,1,113.624,477.52Zm-.067,5.3H117.8v23.392h-4.238Z" style="fill:#fff"/><path d="M147.939,473.461v32.748h-4.061V502.5a9.182,9.182,0,0,1-3.575,2.957,11.071,11.071,0,0,1-4.766,1.014,12.3,12.3,0,0,1-6.091-1.5,10.752,10.752,0,0,1-4.215-4.215,12.549,12.549,0,0,1-1.523-6.246,12.423,12.423,0,0,1,1.523-6.222,10.8,10.8,0,0,1,4.215-4.194,12.308,12.308,0,0,1,6.091-1.5,11.206,11.206,0,0,1,4.634.95,9.007,9.007,0,0,1,3.531,2.8V473.461Zm-8.033,28.268a7.282,7.282,0,0,0,2.825-2.913,9.629,9.629,0,0,0,0-8.606,7.145,7.145,0,0,0-2.825-2.891,8.491,8.491,0,0,0-8.055,0,7.325,7.325,0,0,0-2.825,2.891,9.446,9.446,0,0,0,0,8.606,7.47,7.47,0,0,0,2.825,2.913,8.339,8.339,0,0,0,8.055,0Z" style="fill:#fff"/><path d="M177.023,495.926H158.045a7.342,7.342,0,0,0,2.714,4.964,8.857,8.857,0,0,0,5.76,1.876,8.676,8.676,0,0,0,6.753-2.825l2.339,2.737a10.255,10.255,0,0,1-3.95,2.825,14.906,14.906,0,0,1-11.851-.552,10.859,10.859,0,0,1-4.435-4.259,12.207,12.207,0,0,1-1.567-6.18,12.4,12.4,0,0,1,1.523-6.134,10.909,10.909,0,0,1,4.193-4.259,11.941,11.941,0,0,1,6.024-1.523,11.7,11.7,0,0,1,5.98,1.523,10.708,10.708,0,0,1,4.105,4.259,12.986,12.986,0,0,1,1.478,6.267A12.124,12.124,0,0,1,177.023,495.926Zm-16.573-7.9a7.474,7.474,0,0,0-2.405,4.855h15.006a7.528,7.528,0,0,0-2.405-4.833,7.9,7.9,0,0,0-10.2-.022Z" style="fill:#fff"/><path d="M182.982,473.461h4.237v32.748h-4.237Z" style="fill:#fff"/><path d="M195.361,477.52a2.6,2.6,0,0,1-.816-1.941,2.676,2.676,0,0,1,.816-1.964,2.783,2.783,0,0,1,2.052-.816,2.868,2.868,0,0,1,2.052.772,2.532,2.532,0,0,1,.817,1.92,2.727,2.727,0,0,1-.817,2.008,2.78,2.78,0,0,1-2.052.816A2.818,2.818,0,0,1,195.361,477.52Zm-.066,5.3h4.237v23.392H195.3Z" style="fill:#fff"/><path d="M227.182,485.178q2.626,2.582,2.626,7.57v13.461h-4.237V493.233a7.186,7.186,0,0,0-1.633-5.12,6.144,6.144,0,0,0-4.678-1.721,7.29,7.29,0,0,0-5.429,2.008,7.848,7.848,0,0,0-1.986,5.76v12.049h-4.237V482.817h4.061v3.53a8.241,8.241,0,0,1,3.464-2.78,12.133,12.133,0,0,1,4.966-.971A9.666,9.666,0,0,1,227.182,485.178Z" style="fill:#fff"/><path d="M258.849,495.926H239.871a7.343,7.343,0,0,0,2.715,4.964,8.852,8.852,0,0,0,5.759,1.876,8.676,8.676,0,0,0,6.753-2.825l2.339,2.737a10.24,10.24,0,0,1-3.95,2.825,14.906,14.906,0,0,1-11.851-.552,10.859,10.859,0,0,1-4.435-4.259,12.207,12.207,0,0,1-1.567-6.18,12.4,12.4,0,0,1,1.523-6.134,10.909,10.909,0,0,1,4.193-4.259,11.943,11.943,0,0,1,6.024-1.523,11.708,11.708,0,0,1,5.981,1.523,10.705,10.705,0,0,1,4.1,4.259,12.986,12.986,0,0,1,1.479,6.267A12.17,12.17,0,0,1,258.849,495.926Zm-16.573-7.9a7.474,7.474,0,0,0-2.405,4.855h15.006a7.528,7.528,0,0,0-2.405-4.833,7.9,7.9,0,0,0-10.2-.022Z" style="fill:#fff"/><path d="M266,505.7a12.107,12.107,0,0,1-4.149-1.964l1.766-3.354a12.653,12.653,0,0,0,3.751,1.765,15.414,15.414,0,0,0,4.458.662q5.56,0,5.561-3.177a2.058,2.058,0,0,0-.75-1.677,4.755,4.755,0,0,0-1.876-.905q-1.125-.286-3.2-.64a31.261,31.261,0,0,1-4.612-1.016,7.107,7.107,0,0,1-3.068-1.941,5.406,5.406,0,0,1-1.279-3.84,6,6,0,0,1,2.648-5.1,11.857,11.857,0,0,1,7.106-1.92,19.6,19.6,0,0,1,4.678.574,12.614,12.614,0,0,1,3.84,1.545l-1.81,3.354a12.172,12.172,0,0,0-6.752-1.853,7.808,7.808,0,0,0-4.1.882,2.664,2.664,0,0,0-1.412,2.339,2.229,2.229,0,0,0,.794,1.81,5.03,5.03,0,0,0,1.964.971q1.168.309,3.288.706a35.921,35.921,0,0,1,4.568,1.037,6.832,6.832,0,0,1,2.979,1.876,5.225,5.225,0,0,1,1.236,3.708,5.845,5.845,0,0,1-2.714,5.052,12.819,12.819,0,0,1-7.393,1.876A19.6,19.6,0,0,1,266,505.7Z" style="fill:#fff"/><path d="M285.816,505.613a2.92,2.92,0,0,1-.883-2.185,2.865,2.865,0,0,1,.883-2.14,2.921,2.921,0,0,1,2.118-.86,2.821,2.821,0,0,1,2.074.837,3.205,3.205,0,0,1-.022,4.348,2.8,2.8,0,0,1-2.052.86A2.925,2.925,0,0,1,285.816,505.613Z" style="fill:#fff"/></g></g></g></svg>