<svg xmlns="http://www.w3.org/2000/svg" xmlns:xlink="http://www.w3.org/1999/xlink" viewBox="0 0 1778.707 498.015"><defs><radialGradient id="radial-gradient" cx="7481.676" cy="8873.24" r="603.809" gradientTransform="translate(-7557.931 7450.377) rotate(-90)" gradientUnits="userSpaceOnUse"><stop offset="0" stop-color="#fff"/><stop offset="0.231" stop-color="#fcfcfc"/><stop offset="0.42" stop-color="#f2f2f2"/><stop offset="0.594" stop-color="#e0e0e1"/><stop offset="0.759" stop-color="#c8c8c9"/><stop offset="0.917" stop-color="#aaa"/><stop offset="1" stop-color="#969697"/></radialGradient><radialGradient id="radial-gradient-2" cx="7380.003" cy="8939.999" r="575.632" gradientTransform="translate(-7557.931 7450.377) rotate(-90)" gradientUnits="userSpaceOnUse"><stop offset="0" stop-color="#fff"/><stop offset="0.257" stop-color="#fcfcfc"/><stop offset="0.468" stop-color="#f2f2f2"/><stop offset="0.662" stop-color="#e0e0e1"/><stop offset="0.846" stop-color="#c9c9c9"/><stop offset="1" stop-color="#aeaeaf"/></radialGradient><radialGradient id="radial-gradient-3" cx="7029.856" cy="9251.173" r="636.249" gradientTransform="translate(-7557.931 7450.377) rotate(-90)" gradientUnits="userSpaceOnUse"><stop offset="0" stop-color="#fff"/><stop offset="0.164" stop-color="#f8f8f8"/><stop offset="0.411" stop-color="#e3e3e3"/><stop offset="0.709" stop-color="#c2c2c2"/><stop offset="1" stop-color="#9a9a9a"/></radialGradient></defs><g id="Layer_2" data-name="Layer 2"><g id="Layer_1-2" data-name="Layer 1"><g id="Layer_2-2" data-name="Layer 2"><g id="Layer_1-2-2" data-name="Layer 1-2"><path d="M100.678,461.575l1327.281,3.536c55.895.149,101.445-88.93,101.739-198.965h0c.293-110.034-44.782-199.355-100.678-199.5L101.74,63.106C45.845,62.957.3,152.036,0,262.07H0C-.292,372.105,44.783,461.426,100.678,461.575Z" style="fill:#f2b05a"/><path d="M1506.95,54.318c117.874,0,230.389,84.482,230.389,202.361S1662.585,466.721,1544.7,466.721c-117.859,0-217.806-98-217.806-215.887C1326.89,132.965,1389.076,54.318,1506.95,54.318Z" style="fill:#434343;opacity:0.5;isolation:isolate"/><path d="M1529.7,0c137.523,0,249.008,111.485,249.008,249.008S1667.222,498.015,1529.7,498.015s-249-111.479-249.008-249S1392.174,0,1529.7,0Z" style="fill:url(#radial-gradient)"/><path d="M1529.7,11.615c131.108,0,237.393,106.284,237.392,237.393S1660.807,486.4,1529.7,486.4s-237.387-106.279-237.393-237.383,106.274-237.4,237.383-237.4Z" style="fill:url(#radial-gradient-2)"/><path d="M1529.694,58.159c105.4,0,190.851,85.442,190.853,190.844S1635.106,439.854,1529.7,439.856s-190.842-85.433-190.853-190.83S1424.288,58.167,1529.694,58.159Z" style="fill:url(#radial-gradient-3)"/><path d="M1529.694,75.4a173.59,173.59,0,1,1-.009,0Z" style="opacity:0.10000000149011612;isolation:isolate"/><path d="M1555.991,171.714a35.2,35.2,0,0,1,5.9,3.51,10.312,10.312,0,0,1,3.022,8.21c-.049,12.852,0,25.7-.047,38.554a3.342,3.342,0,0,0,1.413,2.979,19.21,19.21,0,0,1,5.915,21.68c-.756,1.973-2.013,2.738-3.592,2.186-1.443-.5-2-1.906-1.378-3.826a13.9,13.9,0,0,0-2.817-14.589,13.251,13.251,0,0,0-13.937-4.074,13.048,13.048,0,0,0-10.186,11.281,29.584,29.584,0,0,0,.424,6.7,7.292,7.292,0,0,0,.318,1.144,2.588,2.588,0,1,1-4.821,1.884c-.029-.074-.054-.149-.076-.225a19,19,0,0,1,.114-14.757,17.511,17.511,0,0,1,5.713-7.508,2.68,2.68,0,0,0,1.111-2.454c-.031-12.681.109-25.363-.075-38.041-.09-6.206,3.092-11.115,8.665-12.431.092-.022.16-.149.239-.227Zm3.733,49.174V203.633c0-6.764.015-13.528-.007-20.292a5.837,5.837,0,0,0-4.3-6.187,5.592,5.592,0,0,0-7.045,5.883c-.044,12.391-.017,24.782-.009,37.173a2.774,2.774,0,0,0,.109.678Z" style="fill:#606161"/><path d="M1464.15,171.714c.757.333,1.528.636,2.268,1a10.947,10.947,0,0,1,6.394,10.584q0,4.01,0,8.021,0,39.593,0,79.185a17.2,17.2,0,0,1-.106,2.211,2.329,2.329,0,0,1-2.459,2.192c-.041,0-.082-.006-.123-.011a2.438,2.438,0,0,1-2.5-2.318,13.026,13.026,0,0,1-.039-1.874l0-87.206a5.729,5.729,0,0,0-4.793-6.429,5.52,5.52,0,0,0-6.417,4.449,5.607,5.607,0,0,0-.087.858c-.08,3.07.051,6.146-.077,9.213a4.494,4.494,0,0,1-1.013,2.741,2.39,2.39,0,0,1-4.078-1.553,76.14,76.14,0,0,1,.414-13.056,9.523,9.523,0,0,1,6.995-7.456,12.636,12.636,0,0,0,1.192-.554Z" style="fill:#606161"/><path d="M1509.9,171.714a31.516,31.516,0,0,1,4.213,2.082,10.442,10.442,0,0,1,4.563,8.184,41.935,41.935,0,0,1,.039,4.938,2.658,2.658,0,0,1-2.526,2.717,2.6,2.6,0,0,1-2.68-2.519V187.1c-.142-1.464-.045-2.95-.1-4.425a5.633,5.633,0,0,0-11.25-.506c-.167,1.46-.049,2.95-.1,4.425a2.649,2.649,0,0,1-2.454,2.83h0l-.1,0a2.581,2.581,0,0,1-2.6-2.567c0-.071,0-.142.008-.213a19.337,19.337,0,0,1,.936-8.544,12.17,12.17,0,0,1,7.947-6.391Z" style="fill:#606161"/><path d="M1580.824,267.342a11.314,11.314,0,0,1,18.848,7.232,11.361,11.361,0,0,1,13.229,1.135,9.86,9.86,0,0,1,3.831,7.689c.051,8.192.169,16.391-.11,24.574a43.452,43.452,0,0,1-3.877,15.623,2.613,2.613,0,0,1-3.277,1.708c-.058-.018-.114-.038-.171-.06a2.72,2.72,0,0,1-1.4-3.562c1.093-3.924,2.281-7.827,3.192-11.794a28.614,28.614,0,0,0,.524-6.105q.094-9.558.012-19.118a5.978,5.978,0,0,0-11.921-.9c-.008.113-.014.226-.016.34-.045,1.421.019,2.846-.024,4.267a2.587,2.587,0,0,1-2.318,2.831c-.07.007-.14.011-.211.012a2.467,2.467,0,0,1-2.665-2.253,2.424,2.424,0,0,1,0-.426c-.089-3.867-.026-7.738-.063-11.606a12.734,12.734,0,0,0-.27-3.048,5.911,5.911,0,0,0-6.431-4.188,5.759,5.759,0,0,0-5.116,5.5c-.089,2.956,0,5.917-.07,8.874a3.656,3.656,0,0,1-.6,2.38,4.048,4.048,0,0,1-2.765.989c-1.46-.141-1.928-1.457-1.94-2.8-.035-3.755.024-7.511-.032-11.266a5.845,5.845,0,0,0-7.166-5.756,5.465,5.465,0,0,0-4.55,5.07c-.215,4.427-.13,8.868-.177,13.3a19.931,19.931,0,0,1-.087,2.213,2.367,2.367,0,0,1-2.487,2.243h0l-.07,0a2.444,2.444,0,0,1-2.522-2.311,12.6,12.6,0,0,1-.036-1.7q0-21.338,0-42.675a6.161,6.161,0,0,0-4.271-6.45,5.976,5.976,0,0,0-7.667,5.358c-.049.623-.024,1.251-.024,1.877q0,29.1,0,58.209c0,.512.017,1.025-.006,1.536a2.725,2.725,0,0,1-2.551,2.881,2.6,2.6,0,0,1-2.626-2.584h0c0-.065,0-.129.005-.194-.065-4.494.073-8.993-.072-13.483a17.877,17.877,0,0,0-4.734-11.053,6.805,6.805,0,0,0-8.624-.936,6.66,6.66,0,0,0-3.05,8.117c3.144,6.608,3.021,13.662,3.6,20.669a52.065,52.065,0,0,0,6.058,21.635,21.962,21.962,0,0,0,20.478,12c8.023-.01,16.046.006,24.069,0a26.926,26.926,0,0,0,22.275-11.2c.346-.45.666-.925,1.039-1.351a2.632,2.632,0,0,1,3.653-.71h0c.037.025.073.051.109.078a2.509,2.509,0,0,1,.594,3.5,2.569,2.569,0,0,1-.225.273,56.144,56.144,0,0,1-5.642,6.372,31.2,31.2,0,0,1-22.107,8.26c-8.192-.1-16.387,0-24.58-.027a26.126,26.126,0,0,1-23.626-13.6,55.029,55.029,0,0,1-7.239-23.731c-.445-4.8-.812-9.615-1.385-14.4a13.706,13.706,0,0,0-1.425-4.337,12.41,12.41,0,0,1,19.969-14.17c.159.147.342.269.822.641v-2.055c0-10.3.03-20.6-.013-30.9a11.3,11.3,0,0,1,6.467-11.087,11.06,11.06,0,0,1,15.794,9.12c.255,6.477.111,12.969.143,19.455,0,.679,0,1.358,0,2.284C1571.478,260.87,1576.65,261.994,1580.824,267.342Z" style="fill:#606161"/><path d="M1496.893,285.156V234.817c0-2.729.835-4.008,2.6-4s2.58,1.286,2.58,4.019q0,49.572.01,99.143a13.945,13.945,0,0,0,.237,2.877,5.524,5.524,0,0,0,5.858,4.4,5.369,5.369,0,0,0,5.19-5.322c.089-7.621.043-15.243.068-22.864a10.609,10.609,0,0,1,.2-2.193,2.308,2.308,0,0,1,2.448-1.934,2.4,2.4,0,0,1,2.5,1.907,4.769,4.769,0,0,1,.154,1.345c.008,7.736.09,15.473-.019,23.207a10.873,10.873,0,0,1-14.628,10.453,10.546,10.546,0,0,1-7.124-9.5c-.093-12.172-.06-24.344-.073-36.516Q1496.885,292.494,1496.893,285.156Z" style="fill:#606161"/><path d="M1442.6,295.589a19.322,19.322,0,1,1,19.277,19.367h-.02A19.333,19.333,0,0,1,1442.6,295.589Zm19.24,14.076a10.583,10.583,0,1,0-14.2-4.733,10.583,10.583,0,0,0,14.2,4.733Z" style="fill:#606161"/><path d="M1507.594,229.445a19.322,19.322,0,1,1,19.359-19.284h0v.056A19.332,19.332,0,0,1,1507.594,229.445Zm14.081-19.359a14.09,14.09,0,1,0-28.18.044v.035a14.09,14.09,0,0,0,28.18.017Z" style="fill:#606161"/><path d="M1456.248,236.951q0,16.968,0,33.935a11.883,11.883,0,0,1-.036,1.533,2.647,2.647,0,0,1-2.685,2.553,2.6,2.6,0,0,1-2.557-2.5,10.57,10.57,0,0,1-.057-1.53q0-34.193,0-68.383c0-2.764.935-4.171,2.727-4.122,1.74.048,2.611,1.4,2.611,4.063Q1456.25,219.727,1456.248,236.951Z" style="fill:#606161"/><path d="M1518.744,267.986q0,16.724,0,33.449a8.638,8.638,0,0,1-.11,1.866,2.465,2.465,0,0,1-2.54,2.1,2.378,2.378,0,0,1-2.495-2.122,11.477,11.477,0,0,1-.163-1.859q-.012-33.365-.006-66.729c0-2.794.913-4.128,2.761-4.063,1.756.062,2.557,1.334,2.557,4.076Q1518.746,251.347,1518.744,267.986Z" style="fill:#606161"/><path d="M1472.694,328.063c0,2.841.136,5.689-.029,8.52a10.687,10.687,0,0,1-10.46,9.921,10.492,10.492,0,0,1-10.98-9.307c-.392-6.056-.273-12.149-.275-18.226a2.631,2.631,0,0,1,2.441-2.807,2.676,2.676,0,0,1,.335,0,2.742,2.742,0,0,1,2.524,2.946c0,.051-.009.1-.016.153.039,5.515-.012,11.03.042,16.543a5.43,5.43,0,0,0,4.427,5.311,5.49,5.49,0,0,0,6.31-3.164,8.228,8.228,0,0,0,.54-2.977c.052-5.286.029-10.574.025-15.861,0-1.5.687-2.709,2.153-2.8a4.229,4.229,0,0,1,2.674,1.289c.422.393.381,1.379.392,2.1.039,2.785.016,5.571.016,8.357Z" style="fill:#606161"/><line x1="85.367" y1="203.838" x2="1230.256" y2="203.838" style="fill:none;stroke:#fff;stroke-miterlimit:10;stroke-width:3px"/><g style="isolation:isolate"><path d="M89.473,88.487H97.6v35.1H89.473Z" style="fill:#fff"/><path d="M129.857,99.216q3.084,3.009,3.084,8.925v15.441h-7.822V109.344a7.03,7.03,0,0,0-1.4-4.788,5.147,5.147,0,0,0-4.061-1.579,6.22,6.22,0,0,0-4.712,1.829,7.577,7.577,0,0,0-1.755,5.44v13.336h-7.821V96.609h7.47v3.159a10.374,10.374,0,0,1,3.86-2.632,13.462,13.462,0,0,1,5.064-.928A11.1,11.1,0,0,1,129.857,99.216Z" style="fill:#fff"/><path d="M145.6,122.2a13.311,13.311,0,0,1-5.364-4.938,14.282,14.282,0,0,1,0-14.339,13.334,13.334,0,0,1,5.364-4.939,16.6,16.6,0,0,1,7.746-1.779,15.029,15.029,0,0,1,7.446,1.779,10.562,10.562,0,0,1,4.637,5.089l-6.066,3.259a6.633,6.633,0,0,0-6.066-3.71,6.861,6.861,0,0,0-5.064,2.006,8.447,8.447,0,0,0,0,10.93,6.864,6.864,0,0,0,5.064,2,6.562,6.562,0,0,0,6.066-3.71l6.066,3.31a10.772,10.772,0,0,1-4.637,5.014,14.848,14.848,0,0,1-7.446,1.8A16.575,16.575,0,0,1,145.6,122.2Z" style="fill:#fff"/><path d="M197.114,96.609v26.973h-7.42v-3.209a10.375,10.375,0,0,1-3.71,2.683,11.682,11.682,0,0,1-4.663.927,11.485,11.485,0,0,1-8.423-3.058q-3.109-3.057-3.108-9.074V96.609h7.821V110.7q0,6.517,5.465,6.518a5.876,5.876,0,0,0,4.512-1.83,7.722,7.722,0,0,0,1.705-5.44V96.609Z" style="fill:#fff"/><path d="M204.383,86.381h7.822v37.2h-7.822Z" style="fill:#fff"/><path d="M224.763,122.2a13.3,13.3,0,0,1-5.364-4.938,13.6,13.6,0,0,1,5.364-19.278,16.6,16.6,0,0,1,7.746-1.779,15.025,15.025,0,0,1,7.445,1.779,10.569,10.569,0,0,1,4.638,5.089l-6.066,3.259a6.633,6.633,0,0,0-6.067-3.71,6.865,6.865,0,0,0-5.064,2.006,8.45,8.45,0,0,0,0,10.93,6.867,6.867,0,0,0,5.064,2,6.565,6.565,0,0,0,6.067-3.71l6.066,3.31a10.779,10.779,0,0,1-4.638,5.014,14.844,14.844,0,0,1-7.445,1.8A16.575,16.575,0,0,1,224.763,122.2Z" style="fill:#fff"/><path d="M269.609,99.19q3.359,2.985,3.359,9v15.392h-7.319v-3.359q-2.208,3.759-8.223,3.76a12.768,12.768,0,0,1-5.389-1.052,8.024,8.024,0,0,1-3.485-2.909,7.564,7.564,0,0,1-1.2-4.211,7.028,7.028,0,0,1,2.832-5.916q2.832-2.156,8.749-2.156h6.217a4.983,4.983,0,0,0-1.554-3.935,6.849,6.849,0,0,0-4.663-1.379,13.585,13.585,0,0,0-4.236.677,11.188,11.188,0,0,0-3.535,1.83l-2.807-5.465a16.925,16.925,0,0,1,5.289-2.406,23.656,23.656,0,0,1,6.342-.853Q266.25,96.208,269.609,99.19Zm-6.668,18.6a5.073,5.073,0,0,0,2.206-2.732V112.3h-5.365q-4.812,0-4.813,3.158a2.813,2.813,0,0,0,1.179,2.382,5.3,5.3,0,0,0,3.233.877A6.806,6.806,0,0,0,262.941,117.791Z" style="fill:#fff"/><path d="M297.434,122.278a8.008,8.008,0,0,1-2.833,1.279,14.328,14.328,0,0,1-3.534.426q-4.813,0-7.446-2.457t-2.632-7.219v-11.08h-4.161V97.211h4.161V90.643h7.822v6.568h6.717v6.016h-6.717v10.98a3.68,3.68,0,0,0,.877,2.632,3.247,3.247,0,0,0,2.482.928,5.023,5.023,0,0,0,3.158-1Z" style="fill:#fff"/><path d="M327.265,112.3h-20.4a6.348,6.348,0,0,0,2.606,3.96,8.635,8.635,0,0,0,5.115,1.454,10.352,10.352,0,0,0,3.735-.626,9.047,9.047,0,0,0,3.033-1.981l4.161,4.512q-3.81,4.362-11.13,4.362a17.6,17.6,0,0,1-8.072-1.78,13.032,13.032,0,0,1-5.415-4.938,13.607,13.607,0,0,1-1.9-7.169,13.79,13.79,0,0,1,1.88-7.145,13.191,13.191,0,0,1,5.164-4.964,16,16,0,0,1,14.515-.075,12.464,12.464,0,0,1,5.039,4.889,14.585,14.585,0,0,1,1.829,7.394Q327.415,110.347,327.265,112.3Zm-18.3-8.674a6.41,6.41,0,0,0-2.206,4.111h13.287a6.476,6.476,0,0,0-2.206-4.086,6.6,6.6,0,0,0-4.413-1.529A6.734,6.734,0,0,0,308.965,103.628Z" style="fill:#fff"/><path d="M364.215,122.278a8.016,8.016,0,0,1-2.833,1.279,14.33,14.33,0,0,1-3.535.426q-4.812,0-7.445-2.457t-2.632-7.219v-11.08h-4.161V97.211h4.161V90.643h7.821v6.568h6.718v6.016h-6.718v10.98a3.68,3.68,0,0,0,.877,2.632,3.25,3.25,0,0,0,2.482.928,5.026,5.026,0,0,0,3.159-1Z" style="fill:#fff"/><path d="M393.117,99.216q3.084,3.009,3.084,8.925v15.441H388.38V109.344a7.035,7.035,0,0,0-1.4-4.788,5.148,5.148,0,0,0-4.061-1.579,6.223,6.223,0,0,0-4.713,1.829,7.577,7.577,0,0,0-1.755,5.44v13.336h-7.821v-37.2h7.821V99.417a10.4,10.4,0,0,1,3.761-2.382,13.585,13.585,0,0,1,4.813-.827A11.1,11.1,0,0,1,393.117,99.216Z" style="fill:#fff"/><path d="M429.841,112.3H409.436a6.353,6.353,0,0,0,2.607,3.96,8.632,8.632,0,0,0,5.114,1.454,10.349,10.349,0,0,0,3.735-.626,9.047,9.047,0,0,0,3.033-1.981l4.162,4.512q-3.81,4.362-11.13,4.362a17.6,17.6,0,0,1-8.072-1.78,13.032,13.032,0,0,1-5.415-4.938,13.6,13.6,0,0,1-1.905-7.169,13.79,13.79,0,0,1,1.88-7.145,13.185,13.185,0,0,1,5.164-4.964,15.993,15.993,0,0,1,14.514-.075,12.452,12.452,0,0,1,5.039,4.889,14.575,14.575,0,0,1,1.83,7.394Q429.992,110.347,429.841,112.3Zm-18.3-8.674a6.405,6.405,0,0,0-2.206,4.111h13.286a6.471,6.471,0,0,0-2.206-4.086A6.6,6.6,0,0,0,416,102.124,6.732,6.732,0,0,0,411.542,103.628Z" style="fill:#fff"/><path d="M454.683,122.2a13.311,13.311,0,0,1-5.364-4.938,14.282,14.282,0,0,1,0-14.339,13.334,13.334,0,0,1,5.364-4.939,16.6,16.6,0,0,1,7.746-1.779,15.029,15.029,0,0,1,7.446,1.779,10.562,10.562,0,0,1,4.637,5.089l-6.066,3.259a6.633,6.633,0,0,0-6.066-3.71,6.861,6.861,0,0,0-5.064,2.006,8.447,8.447,0,0,0,0,10.93,6.864,6.864,0,0,0,5.064,2,6.562,6.562,0,0,0,6.066-3.71l6.066,3.31a10.772,10.772,0,0,1-4.637,5.014,14.848,14.848,0,0,1-7.446,1.8A16.575,16.575,0,0,1,454.683,122.2Z" style="fill:#fff"/><path d="M506.2,96.609v26.973h-7.421v-3.209a10.362,10.362,0,0,1-3.709,2.683,11.682,11.682,0,0,1-4.663.927,11.485,11.485,0,0,1-8.423-3.058q-3.11-3.057-3.108-9.074V96.609H486.7V110.7q0,6.517,5.465,6.518a5.876,5.876,0,0,0,4.512-1.83,7.722,7.722,0,0,0,1.7-5.44V96.609Z" style="fill:#fff"/><path d="M513.467,86.381h7.821v37.2h-7.821Z" style="fill:#fff"/><path d="M547.909,122.278a8.011,8.011,0,0,1-2.832,1.279,14.336,14.336,0,0,1-3.535.426q-4.812,0-7.445-2.457t-2.632-7.219v-11.08H527.3V97.211h4.162V90.643h7.821v6.568H546v6.016h-6.718v10.98a3.68,3.68,0,0,0,.877,2.632,3.25,3.25,0,0,0,2.482.928,5.028,5.028,0,0,0,3.159-1Z" style="fill:#fff"/><path d="M579.5,96.609v26.973h-7.42v-3.209a10.366,10.366,0,0,1-3.71,2.683,11.682,11.682,0,0,1-4.663.927,11.487,11.487,0,0,1-8.423-3.058q-3.108-3.057-3.108-9.074V96.609h7.821V110.7q0,6.517,5.465,6.518a5.875,5.875,0,0,0,4.512-1.83,7.722,7.722,0,0,0,1.7-5.44V96.609Z" style="fill:#fff"/><path d="M598.02,97.211a14.039,14.039,0,0,1,5.49-1v7.22q-1.3-.1-1.754-.1a7.171,7.171,0,0,0-5.265,1.88q-1.906,1.881-1.9,5.641v12.734h-7.821V96.609h7.47v3.56A8.7,8.7,0,0,1,598.02,97.211Z" style="fill:#fff"/><path d="M634.194,112.3H613.788a6.353,6.353,0,0,0,2.607,3.96,8.632,8.632,0,0,0,5.114,1.454,10.349,10.349,0,0,0,3.735-.626,9.047,9.047,0,0,0,3.033-1.981l4.162,4.512q-3.81,4.362-11.13,4.362a17.6,17.6,0,0,1-8.072-1.78,13.032,13.032,0,0,1-5.415-4.938,13.6,13.6,0,0,1-1.9-7.169,13.79,13.79,0,0,1,1.88-7.145,13.185,13.185,0,0,1,5.164-4.964,15.993,15.993,0,0,1,14.514-.075,12.452,12.452,0,0,1,5.039,4.889,14.575,14.575,0,0,1,1.83,7.394Q634.344,110.347,634.194,112.3Zm-18.3-8.674a6.405,6.405,0,0,0-2.206,4.111h13.286a6.471,6.471,0,0,0-2.206-4.086,6.6,6.6,0,0,0-4.412-1.529A6.732,6.732,0,0,0,615.894,103.628Z" style="fill:#fff"/><path d="M658.935,122.2a13.217,13.217,0,0,1-5.289-4.938,14.444,14.444,0,0,1,0-14.339,13.24,13.24,0,0,1,5.289-4.939,17.267,17.267,0,0,1,15.267,0,13.29,13.29,0,0,1,5.264,4.939,14.444,14.444,0,0,1,0,14.339A13.266,13.266,0,0,1,674.2,122.2a17.258,17.258,0,0,1-15.267,0Zm12.584-6.668a8.632,8.632,0,0,0,0-10.88,6.515,6.515,0,0,0-4.938-2.03,6.6,6.6,0,0,0-4.964,2.03,8.546,8.546,0,0,0,0,10.88,6.594,6.594,0,0,0,4.964,2.03A6.511,6.511,0,0,0,671.519,115.535Z" style="fill:#fff"/><path d="M695.158,97.211h6.919v6.016h-6.718v20.355h-7.821V103.227h-4.162V97.211h4.162v-1.2a9.836,9.836,0,0,1,2.732-7.319q2.732-2.708,7.7-2.708a14.343,14.343,0,0,1,3.334.376,8.107,8.107,0,0,1,2.632,1.078L701.877,93.1a5.353,5.353,0,0,0-3.159-.954q-3.561,0-3.56,3.912Z" style="fill:#fff"/><path d="M725.364,122.2a13.223,13.223,0,0,1-5.289-4.938,14.444,14.444,0,0,1,0-14.339,13.246,13.246,0,0,1,5.289-4.939,17.267,17.267,0,0,1,15.267,0,13.283,13.283,0,0,1,5.264,4.939,14.444,14.444,0,0,1,0,14.339,13.26,13.26,0,0,1-5.264,4.938,17.258,17.258,0,0,1-15.267,0Zm12.584-6.668a8.628,8.628,0,0,0,0-10.88,6.515,6.515,0,0,0-4.938-2.03,6.6,6.6,0,0,0-4.963,2.03,8.543,8.543,0,0,0,0,10.88,6.592,6.592,0,0,0,4.963,2.03A6.511,6.511,0,0,0,737.948,115.535Z" style="fill:#fff"/><path d="M775.8,97.938a12.417,12.417,0,0,1,4.838,4.863,16.039,16.039,0,0,1,0,14.59,12.423,12.423,0,0,1-4.838,4.863,13.758,13.758,0,0,1-6.843,1.729,10.415,10.415,0,0,1-8.122-3.258v12.584h-7.822v-36.7h7.471v3.109q2.907-3.51,8.473-3.51A13.738,13.738,0,0,1,775.8,97.938Zm-3.259,17.6a8.632,8.632,0,0,0,0-10.88,7.022,7.022,0,0,0-9.877,0,8.632,8.632,0,0,0,0,10.88,7.022,7.022,0,0,0,9.877,0Z" style="fill:#fff"/><path d="M813.879,112.3H793.473a6.353,6.353,0,0,0,2.607,3.96,8.632,8.632,0,0,0,5.114,1.454,10.349,10.349,0,0,0,3.735-.626,9.05,9.05,0,0,0,3.034-1.981l4.161,4.512q-3.81,4.362-11.13,4.362a17.6,17.6,0,0,1-8.072-1.78,13.032,13.032,0,0,1-5.415-4.938,13.6,13.6,0,0,1-1.9-7.169,13.79,13.79,0,0,1,1.88-7.145,13.185,13.185,0,0,1,5.164-4.964,15.993,15.993,0,0,1,14.514-.075A12.452,12.452,0,0,1,812.2,102.8a14.575,14.575,0,0,1,1.83,7.394Q814.029,110.347,813.879,112.3Zm-18.3-8.674a6.405,6.405,0,0,0-2.206,4.111h13.286a6.471,6.471,0,0,0-2.206-4.086,6.6,6.6,0,0,0-4.412-1.529A6.732,6.732,0,0,0,795.579,103.628Z" style="fill:#fff"/><path d="M843.735,99.216q3.082,3.009,3.083,8.925v15.441H839V109.344a7.035,7.035,0,0,0-1.4-4.788,5.148,5.148,0,0,0-4.061-1.579,6.223,6.223,0,0,0-4.713,1.829,7.576,7.576,0,0,0-1.754,5.44v13.336h-7.822V96.609h7.471v3.159a10.357,10.357,0,0,1,3.86-2.632,13.454,13.454,0,0,1,5.064-.928A11.1,11.1,0,0,1,843.735,99.216Z" style="fill:#fff"/><path d="M895.549,86.381v37.2h-7.47v-3.108q-2.909,3.508-8.423,3.509a14,14,0,0,1-6.894-1.7,12.192,12.192,0,0,1-4.838-4.863,16.151,16.151,0,0,1,0-14.64,12.211,12.211,0,0,1,4.838-4.863,14.014,14.014,0,0,1,6.894-1.7,10.26,10.26,0,0,1,8.072,3.259V86.381Zm-9.626,29.154a8.543,8.543,0,0,0,0-10.88,7.021,7.021,0,0,0-9.876,0,8.539,8.539,0,0,0,0,10.88,7.021,7.021,0,0,0,9.876,0Z" style="fill:#fff"/><path d="M923.273,99.19q3.358,2.985,3.359,9v15.392h-7.319v-3.359q-2.208,3.759-8.223,3.76a12.768,12.768,0,0,1-5.389-1.052,8.024,8.024,0,0,1-3.485-2.909,7.572,7.572,0,0,1-1.2-4.211,7.028,7.028,0,0,1,2.832-5.916q2.833-2.156,8.749-2.156h6.217a4.983,4.983,0,0,0-1.554-3.935,6.848,6.848,0,0,0-4.663-1.379,13.589,13.589,0,0,0-4.236.677,11.182,11.182,0,0,0-3.534,1.83l-2.808-5.465a16.935,16.935,0,0,1,5.289-2.406,23.661,23.661,0,0,1,6.342-.853Q919.914,96.208,923.273,99.19Zm-6.668,18.6a5.073,5.073,0,0,0,2.206-2.732V112.3h-5.364q-4.813,0-4.814,3.158a2.813,2.813,0,0,0,1.179,2.382,5.3,5.3,0,0,0,3.234.877A6.805,6.805,0,0,0,916.605,117.791Z" style="fill:#fff"/><path d="M951.1,122.278a8,8,0,0,1-2.832,1.279,14.336,14.336,0,0,1-3.535.426q-4.812,0-7.445-2.457t-2.632-7.219v-11.08h-4.161V97.211h4.161V90.643h7.821v6.568h6.718v6.016h-6.718v10.98a3.68,3.68,0,0,0,.877,2.632,3.251,3.251,0,0,0,2.483.928,5.023,5.023,0,0,0,3.158-1Z" style="fill:#fff"/><path d="M976.016,99.19q3.36,2.985,3.36,9v15.392h-7.321v-3.359q-2.2,3.759-8.222,3.76a12.771,12.771,0,0,1-5.389-1.052,8.03,8.03,0,0,1-3.485-2.909,7.564,7.564,0,0,1-1.2-4.211,7.026,7.026,0,0,1,2.833-5.916q2.83-2.156,8.749-2.156h6.216A4.983,4.983,0,0,0,970,103.8a6.846,6.846,0,0,0-4.662-1.379,13.6,13.6,0,0,0-4.238.677,11.2,11.2,0,0,0-3.534,1.83l-2.808-5.465a16.941,16.941,0,0,1,5.29-2.406,23.656,23.656,0,0,1,6.342-.853Q972.657,96.208,976.016,99.19Zm-6.668,18.6a5.077,5.077,0,0,0,2.206-2.732V112.3h-5.365q-4.812,0-4.812,3.158a2.814,2.814,0,0,0,1.177,2.382,5.31,5.31,0,0,0,3.235.877A6.805,6.805,0,0,0,969.348,117.791Z" style="fill:#fff"/><path d="M1001.033,91.6a4.245,4.245,0,0,1,0-6.217,4.958,4.958,0,0,1,3.51-1.254,5.083,5.083,0,0,1,3.508,1.2,3.859,3.859,0,0,1,1.355,3.009,4.255,4.255,0,0,1-1.355,3.233,4.9,4.9,0,0,1-3.508,1.279A4.958,4.958,0,0,1,1001.033,91.6Zm-.4,5.013h7.822v26.973h-7.822Z" style="fill:#fff"/><path d="M1040.214,99.216q3.082,3.009,3.083,8.925v15.441h-7.822V109.344a7.035,7.035,0,0,0-1.4-4.788,5.151,5.151,0,0,0-4.062-1.579,6.22,6.22,0,0,0-4.712,1.829,7.576,7.576,0,0,0-1.754,5.44v13.336h-7.822V96.609h7.47v3.159a10.374,10.374,0,0,1,3.86-2.632,13.463,13.463,0,0,1,5.065-.928A11.1,11.1,0,0,1,1040.214,99.216Z" style="fill:#fff"/><path d="M93.359,180.186q-4.186-4.162-4.186-11.882V148.65H97.3V168q0,9.428,7.821,9.426a7.331,7.331,0,0,0,5.816-2.282q2-2.28,2-7.144V148.65h8.022V168.3q0,7.72-4.186,11.882t-11.707,4.161Q97.545,184.347,93.359,180.186Z" style="fill:#fff"/><path d="M139.684,157.374a14.039,14.039,0,0,1,5.49-1v7.22q-1.3-.1-1.754-.1a7.171,7.171,0,0,0-5.265,1.88q-1.907,1.881-1.905,5.641v12.734h-7.821V156.772h7.47v3.56A8.7,8.7,0,0,1,139.684,157.374Z" style="fill:#fff"/><path d="M172.624,158.1a12.423,12.423,0,0,1,4.838,4.863,16.047,16.047,0,0,1,0,14.59,12.423,12.423,0,0,1-4.838,4.863,13.759,13.759,0,0,1-6.844,1.729q-5.565,0-8.473-3.509v3.108h-7.47v-37.2h7.821V159.63a10.415,10.415,0,0,1,8.122-3.259A13.739,13.739,0,0,1,172.624,158.1Zm-3.259,17.6a8.632,8.632,0,0,0,0-10.88,7.022,7.022,0,0,0-9.877,0,8.632,8.632,0,0,0,0,10.88,7.02,7.02,0,0,0,9.877,0Z" style="fill:#fff"/><path d="M204.485,159.354q3.358,2.983,3.359,9v15.391h-7.319v-3.359q-2.208,3.761-8.223,3.76a12.768,12.768,0,0,1-5.389-1.052,8.029,8.029,0,0,1-3.485-2.908,7.57,7.57,0,0,1-1.2-4.212,7.028,7.028,0,0,1,2.832-5.916q2.832-2.155,8.749-2.156h6.217a4.983,4.983,0,0,0-1.554-3.935,6.849,6.849,0,0,0-4.663-1.379,13.6,13.6,0,0,0-4.237.677,11.193,11.193,0,0,0-3.534,1.83l-2.807-5.465a16.925,16.925,0,0,1,5.289-2.406,23.656,23.656,0,0,1,6.342-.853Q201.126,156.371,204.485,159.354Zm-6.668,18.6a5.073,5.073,0,0,0,2.206-2.732v-2.757h-5.365q-4.812,0-4.813,3.158a2.813,2.813,0,0,0,1.179,2.382,5.3,5.3,0,0,0,3.233.877A6.806,6.806,0,0,0,197.817,177.954Z" style="fill:#fff"/><path d="M239.4,159.379q3.084,3.009,3.083,8.925v15.441h-7.821V169.507a7.03,7.03,0,0,0-1.4-4.788,5.147,5.147,0,0,0-4.061-1.579,6.224,6.224,0,0,0-4.713,1.829,7.581,7.581,0,0,0-1.754,5.44v13.336h-7.821V156.772h7.47v3.159a10.374,10.374,0,0,1,3.86-2.632,13.454,13.454,0,0,1,5.064-.928A11.1,11.1,0,0,1,239.4,159.379Z" style="fill:#fff"/><path d="M296.232,183.745l-.05-21.057-10.328,17.347h-3.66l-10.278-16.9v20.605H264.3V148.65h6.718l13.136,21.809,12.935-21.809h6.668l.1,35.1Z" style="fill:#fff"/><path d="M316.813,182.366a13.219,13.219,0,0,1-5.29-4.938,14.444,14.444,0,0,1,0-14.339,13.242,13.242,0,0,1,5.29-4.939,17.265,17.265,0,0,1,15.266,0,13.283,13.283,0,0,1,5.264,4.939,14.437,14.437,0,0,1,0,14.339,13.26,13.26,0,0,1-5.264,4.938,17.256,17.256,0,0,1-15.266,0ZM329.4,175.7a8.632,8.632,0,0,0,0-10.88,6.516,6.516,0,0,0-4.938-2.03,6.6,6.6,0,0,0-4.964,2.03,8.546,8.546,0,0,0,0,10.88,6.594,6.594,0,0,0,4.964,2.031A6.514,6.514,0,0,0,329.4,175.7Z" style="fill:#fff"/><path d="M367.249,158.1a12.426,12.426,0,0,1,4.839,4.863,16.047,16.047,0,0,1,0,14.59,12.426,12.426,0,0,1-4.839,4.863,13.756,13.756,0,0,1-6.843,1.729q-5.567,0-8.473-3.509v3.108h-7.47v-37.2h7.821V159.63a10.415,10.415,0,0,1,8.122-3.259A13.735,13.735,0,0,1,367.249,158.1Zm-3.259,17.6a8.628,8.628,0,0,0,0-10.88,7.022,7.022,0,0,0-9.877,0,8.632,8.632,0,0,0,0,10.88,7.02,7.02,0,0,0,9.877,0Z" style="fill:#fff"/><path d="M379.457,151.759a4.245,4.245,0,0,1,0-6.217,4.958,4.958,0,0,1,3.509-1.254,5.088,5.088,0,0,1,3.51,1.2,3.862,3.862,0,0,1,1.354,3.009,4.258,4.258,0,0,1-1.354,3.233,4.9,4.9,0,0,1-3.51,1.279A4.957,4.957,0,0,1,379.457,151.759Zm-.4,5.013h7.821v26.973h-7.821Z" style="fill:#fff"/><path d="M394.147,146.544h7.821v37.2h-7.821Z" style="fill:#fff"/><path d="M409.638,151.759a4.245,4.245,0,0,1,0-6.217,4.958,4.958,0,0,1,3.51-1.254,5.086,5.086,0,0,1,3.509,1.2,3.862,3.862,0,0,1,1.354,3.009,4.258,4.258,0,0,1-1.354,3.233,4.9,4.9,0,0,1-3.509,1.279A4.958,4.958,0,0,1,409.638,151.759Zm-.4,5.013h7.821v26.973h-7.821Z" style="fill:#fff"/><path d="M441.725,182.441a7.99,7.99,0,0,1-2.833,1.279,14.328,14.328,0,0,1-3.534.426q-4.814,0-7.446-2.457t-2.632-7.219V163.39h-4.161v-6.016h4.161v-6.568H433.1v6.568h6.717v6.016H433.1v10.98a3.68,3.68,0,0,0,.877,2.632,3.247,3.247,0,0,0,2.482.928,5.023,5.023,0,0,0,3.158-1Z" style="fill:#fff"/><path d="M472.408,156.772,460.225,185.4q-1.856,4.663-4.588,6.569a11.244,11.244,0,0,1-6.592,1.905,13.716,13.716,0,0,1-4.162-.652,9.186,9.186,0,0,1-3.359-1.805l2.858-5.565a6.713,6.713,0,0,0,2.081,1.253,6.477,6.477,0,0,0,2.331.452,4.138,4.138,0,0,0,2.607-.778,6.606,6.606,0,0,0,1.805-2.582l.1-.251-11.681-27.173H449.7l7.571,18.3,7.62-18.3Z" style="fill:#fff"/></g><g style="isolation:isolate"><path d="M98.313,278.185v3.137H79.993V256.078H97.808v3.138H83.6v7.754H96.257v3.064H83.6v8.151Z" style="fill:#fff"/><path d="M119.644,264.139q2.145,2.109,2.146,6.184v11h-3.462v-10.6a5.874,5.874,0,0,0-1.334-4.184,5.022,5.022,0,0,0-3.823-1.406,5.957,5.957,0,0,0-4.436,1.641,6.412,6.412,0,0,0-1.623,4.707v9.844h-3.461V262.209h3.317v2.885a6.735,6.735,0,0,1,2.831-2.272,9.906,9.906,0,0,1,4.057-.794A7.891,7.891,0,0,1,119.644,264.139Z" style="fill:#fff"/><path d="M144.2,264.139q2.145,2.109,2.146,6.184v11h-3.462v-10.6a5.87,5.87,0,0,0-1.335-4.184,5.018,5.018,0,0,0-3.822-1.406,5.957,5.957,0,0,0-4.436,1.641,6.412,6.412,0,0,0-1.623,4.707v9.844h-3.462V254.563h3.462v10.351a7.143,7.143,0,0,1,2.831-2.128,9.747,9.747,0,0,1,3.913-.758A7.893,7.893,0,0,1,144.2,264.139Z" style="fill:#fff"/><path d="M165.805,263.976q2.11,1.947,2.11,5.806v11.54h-3.282V278.8a5.473,5.473,0,0,1-2.47,2.037,9.415,9.415,0,0,1-3.805.7,7.966,7.966,0,0,1-5.139-1.551,5.331,5.331,0,0,1-.09-8.133q1.839-1.532,5.842-1.532h5.482v-.685a4.412,4.412,0,0,0-1.3-3.426,5.477,5.477,0,0,0-3.822-1.191,10.11,10.11,0,0,0-3.318.56,8.551,8.551,0,0,0-2.741,1.5l-1.442-2.6a10.482,10.482,0,0,1,3.534-1.82,14.777,14.777,0,0,1,4.363-.632A8.646,8.646,0,0,1,165.805,263.976Zm-3.444,14.01a5.06,5.06,0,0,0,2.092-2.506v-2.668h-5.338q-4.4,0-4.4,2.957a2.677,2.677,0,0,0,1.119,2.272,5.106,5.106,0,0,0,3.1.829A6.424,6.424,0,0,0,162.361,277.986Z" style="fill:#fff"/><path d="M190.327,264.139q2.145,2.109,2.146,6.184v11h-3.462v-10.6a5.87,5.87,0,0,0-1.335-4.184,5.018,5.018,0,0,0-3.822-1.406,5.957,5.957,0,0,0-4.436,1.641,6.412,6.412,0,0,0-1.623,4.707v9.844h-3.462V262.209h3.318v2.885a6.735,6.735,0,0,1,2.831-2.272,9.906,9.906,0,0,1,4.057-.794A7.893,7.893,0,0,1,190.327,264.139Z" style="fill:#fff"/><path d="M202.12,280.276a9.231,9.231,0,0,1-3.589-3.48,10.4,10.4,0,0,1,0-10.062,9.132,9.132,0,0,1,3.589-3.462,10.74,10.74,0,0,1,5.211-1.244,10.007,10.007,0,0,1,4.634,1.046,7.456,7.456,0,0,1,3.155,3.03l-2.633,1.695a5.89,5.89,0,0,0-2.235-2.056,6.387,6.387,0,0,0-2.957-.685,6.834,6.834,0,0,0-3.372.83,5.9,5.9,0,0,0-2.344,2.361,7.788,7.788,0,0,0,0,7.068,5.9,5.9,0,0,0,2.344,2.363,6.834,6.834,0,0,0,3.372.83,6.376,6.376,0,0,0,2.957-.686,5.872,5.872,0,0,0,2.235-2.055l2.633,1.659a7.561,7.561,0,0,1-3.155,3.047,9.856,9.856,0,0,1-4.634,1.064A10.606,10.606,0,0,1,202.12,280.276Z" style="fill:#fff"/><path d="M236.506,272.92H221a6.005,6.005,0,0,0,2.218,4.057,7.237,7.237,0,0,0,4.707,1.533,7.089,7.089,0,0,0,5.517-2.309l1.911,2.237a8.371,8.371,0,0,1-3.227,2.307,12.168,12.168,0,0,1-9.683-.45,8.865,8.865,0,0,1-3.624-3.481,9.969,9.969,0,0,1-1.281-5.048,10.14,10.14,0,0,1,1.244-5.013,8.937,8.937,0,0,1,3.426-3.481,9.764,9.764,0,0,1,4.923-1.244,9.564,9.564,0,0,1,4.886,1.244,8.754,8.754,0,0,1,3.354,3.481,10.606,10.606,0,0,1,1.208,5.121A10.169,10.169,0,0,1,236.506,272.92Zm-13.542-6.455A6.11,6.11,0,0,0,221,270.432H233.26a6.155,6.155,0,0,0-1.966-3.95,6.455,6.455,0,0,0-8.33-.017Z" style="fill:#fff"/><path d="M261.821,280.2a5.15,5.15,0,0,1-1.875.992,7.842,7.842,0,0,1-2.308.343,6.13,6.13,0,0,1-4.471-1.551,5.917,5.917,0,0,1-1.587-4.436V265.058h-3.246v-2.849h3.246v-4.184h3.462v4.184h5.481v2.849h-5.481v10.35a3.356,3.356,0,0,0,.775,2.38,2.884,2.884,0,0,0,2.218.829,4.176,4.176,0,0,0,2.7-.9Z" style="fill:#fff"/><path d="M282,264.139q2.145,2.109,2.146,6.184v11h-3.462v-10.6a5.875,5.875,0,0,0-1.335-4.184,5.018,5.018,0,0,0-3.822-1.406,5.957,5.957,0,0,0-4.436,1.641,6.412,6.412,0,0,0-1.623,4.707v9.844H266V254.563h3.462v10.351a7.143,7.143,0,0,1,2.831-2.128,9.747,9.747,0,0,1,3.913-.758A7.893,7.893,0,0,1,282,264.139Z" style="fill:#fff"/><path d="M307.873,272.92H292.366a6,6,0,0,0,2.218,4.057,7.237,7.237,0,0,0,4.706,1.533,7.091,7.091,0,0,0,5.518-2.309l1.911,2.237a8.367,8.367,0,0,1-3.228,2.307,12.167,12.167,0,0,1-9.683-.45,8.865,8.865,0,0,1-3.624-3.481,9.978,9.978,0,0,1-1.28-5.048,10.14,10.14,0,0,1,1.244-5.013,8.93,8.93,0,0,1,3.426-3.481,9.762,9.762,0,0,1,4.923-1.244,9.569,9.569,0,0,1,4.886,1.244,8.761,8.761,0,0,1,3.354,3.481,10.606,10.606,0,0,1,1.208,5.121A9.937,9.937,0,0,1,307.873,272.92Zm-13.542-6.455a6.109,6.109,0,0,0-1.965,3.967h12.262a6.155,6.155,0,0,0-1.966-3.95,6.456,6.456,0,0,0-8.331-.017Z" style="fill:#fff"/><path d="M339.644,272.92H324.137a6,6,0,0,0,2.218,4.057,7.237,7.237,0,0,0,4.706,1.533,7.091,7.091,0,0,0,5.518-2.309l1.911,2.237a8.367,8.367,0,0,1-3.228,2.307,12.167,12.167,0,0,1-9.683-.45,8.865,8.865,0,0,1-3.624-3.481,9.978,9.978,0,0,1-1.28-5.048,10.14,10.14,0,0,1,1.244-5.013,8.93,8.93,0,0,1,3.426-3.481,9.762,9.762,0,0,1,4.923-1.244,9.569,9.569,0,0,1,4.886,1.244,8.761,8.761,0,0,1,3.354,3.481,10.606,10.606,0,0,1,1.208,5.121A9.937,9.937,0,0,1,339.644,272.92ZM326.1,266.465a6.109,6.109,0,0,0-1.965,3.967H336.4a6.155,6.155,0,0,0-1.966-3.95,6.456,6.456,0,0,0-8.331-.017Z" style="fill:#fff"/><path d="M348.407,260.55v1.659h5.554v2.849H348.48v16.264h-3.462V265.058h-3.246v-2.849h3.246v-1.695a6.091,6.091,0,0,1,1.658-4.508,6.29,6.29,0,0,1,4.653-1.658,7.815,7.815,0,0,1,2.163.288,5.253,5.253,0,0,1,1.731.829l-1.045,2.633a4.312,4.312,0,0,0-2.669-.9Q348.407,257.2,348.407,260.55Z" style="fill:#fff"/><path d="M361.137,260.55v1.659h5.554v2.849H361.21v16.264h-3.462V265.058H354.5v-2.849h3.246v-1.695a6.091,6.091,0,0,1,1.658-4.508,6.29,6.29,0,0,1,4.653-1.658,7.815,7.815,0,0,1,2.163.288,5.253,5.253,0,0,1,1.731.829l-1.045,2.633a4.312,4.312,0,0,0-2.669-.9Q361.137,257.2,361.137,260.55Z" style="fill:#fff"/><path d="M386.887,272.92H371.38a6,6,0,0,0,2.217,4.057,7.239,7.239,0,0,0,4.707,1.533,7.087,7.087,0,0,0,5.517-2.309l1.912,2.237a8.375,8.375,0,0,1-3.228,2.307,12.168,12.168,0,0,1-9.683-.45,8.865,8.865,0,0,1-3.624-3.481,9.968,9.968,0,0,1-1.28-5.048,10.129,10.129,0,0,1,1.244-5.013,8.923,8.923,0,0,1,3.426-3.481,9.761,9.761,0,0,1,4.922-1.244,9.57,9.57,0,0,1,4.887,1.244,8.761,8.761,0,0,1,3.354,3.481,10.606,10.606,0,0,1,1.208,5.121A9.937,9.937,0,0,1,386.887,272.92Zm-13.542-6.455a6.1,6.1,0,0,0-1.965,3.967h12.261a6.15,6.15,0,0,0-1.966-3.95,6.455,6.455,0,0,0-8.33-.017Z" style="fill:#fff"/><path d="M394.875,280.276a9.231,9.231,0,0,1-3.589-3.48,10.4,10.4,0,0,1,0-10.062,9.132,9.132,0,0,1,3.589-3.462,10.74,10.74,0,0,1,5.211-1.244,10,10,0,0,1,4.633,1.046,7.453,7.453,0,0,1,3.156,3.03l-2.633,1.695a5.886,5.886,0,0,0-2.236-2.056,6.385,6.385,0,0,0-2.957-.685,6.839,6.839,0,0,0-3.372.83,5.9,5.9,0,0,0-2.343,2.361,7.788,7.788,0,0,0,0,7.068,5.9,5.9,0,0,0,2.343,2.363,6.839,6.839,0,0,0,3.372.83,6.373,6.373,0,0,0,2.957-.686,5.867,5.867,0,0,0,2.236-2.055l2.633,1.659a7.557,7.557,0,0,1-3.156,3.047,9.849,9.849,0,0,1-4.633,1.064A10.606,10.606,0,0,1,394.875,280.276Z" style="fill:#fff"/><path d="M423.345,280.2a5.158,5.158,0,0,1-1.875.992,7.842,7.842,0,0,1-2.308.343,6.129,6.129,0,0,1-4.471-1.551,5.917,5.917,0,0,1-1.587-4.436V265.058h-3.246v-2.849H413.1v-4.184h3.462v4.184h5.481v2.849h-5.481v10.35a3.356,3.356,0,0,0,.775,2.38,2.884,2.884,0,0,0,2.218.829,4.176,4.176,0,0,0,2.7-.9Z" style="fill:#fff"/><path d="M427.583,257.882a2.128,2.128,0,0,1-.668-1.587,2.189,2.189,0,0,1,.668-1.606,2.274,2.274,0,0,1,1.676-.667,2.348,2.348,0,0,1,1.677.631,2.075,2.075,0,0,1,.668,1.57,2.227,2.227,0,0,1-.668,1.64,2.27,2.27,0,0,1-1.677.667A2.307,2.307,0,0,1,427.583,257.882Zm-.055,4.327h3.462v19.113h-3.462Z" style="fill:#fff"/><path d="M454.5,262.209l-8.367,19.113H442.6l-8.367-19.113h3.607l6.563,15.327,6.708-15.327Z" style="fill:#fff"/><path d="M474.409,272.92H458.9a6,6,0,0,0,2.218,4.057,7.237,7.237,0,0,0,4.706,1.533,7.091,7.091,0,0,0,5.518-2.309l1.911,2.237a8.367,8.367,0,0,1-3.228,2.307,12.167,12.167,0,0,1-9.683-.45,8.865,8.865,0,0,1-3.624-3.481,9.978,9.978,0,0,1-1.28-5.048,10.14,10.14,0,0,1,1.244-5.013,8.93,8.93,0,0,1,3.426-3.481,9.764,9.764,0,0,1,4.923-1.244,9.566,9.566,0,0,1,4.886,1.244,8.761,8.761,0,0,1,3.354,3.481,10.606,10.606,0,0,1,1.208,5.121A9.937,9.937,0,0,1,474.409,272.92Zm-13.542-6.455a6.109,6.109,0,0,0-1.965,3.967h12.262a6.155,6.155,0,0,0-1.966-3.95,6.456,6.456,0,0,0-8.331-.017Z" style="fill:#fff"/><path d="M506.794,262.209v19.113h-3.282v-2.884a6.964,6.964,0,0,1-2.759,2.29,8.6,8.6,0,0,1-3.732.811,8.343,8.343,0,0,1-6.023-2.11q-2.2-2.111-2.2-6.221v-11h3.462v10.6a5.934,5.934,0,0,0,1.335,4.2,4.98,4.98,0,0,0,3.822,1.425,5.7,5.7,0,0,0,4.328-1.66,6.514,6.514,0,0,0,1.587-4.688v-9.881Z" style="fill:#fff"/><path d="M514.366,280.907a9.883,9.883,0,0,1-3.389-1.6l1.442-2.741a10.353,10.353,0,0,0,3.066,1.443,12.628,12.628,0,0,0,3.642.541q4.543,0,4.544-2.6a1.685,1.685,0,0,0-.613-1.371,3.9,3.9,0,0,0-1.533-.739q-.919-.232-2.615-.523a25.477,25.477,0,0,1-3.768-.829,5.8,5.8,0,0,1-2.507-1.587,4.416,4.416,0,0,1-1.045-3.137,4.9,4.9,0,0,1,2.164-4.165,9.686,9.686,0,0,1,5.8-1.57,16.071,16.071,0,0,1,3.823.469,10.327,10.327,0,0,1,3.138,1.263l-1.479,2.74a9.94,9.94,0,0,0-5.517-1.515,6.384,6.384,0,0,0-3.354.722,2.175,2.175,0,0,0-1.154,1.911,1.821,1.821,0,0,0,.649,1.479,4.086,4.086,0,0,0,1.605.794q.954.252,2.686.577a29.468,29.468,0,0,1,3.733.846,5.582,5.582,0,0,1,2.434,1.534,4.266,4.266,0,0,1,1.009,3.029,4.778,4.778,0,0,1-2.217,4.129,10.474,10.474,0,0,1-6.041,1.533A16.01,16.01,0,0,1,514.366,280.907Z" style="fill:#fff"/><path d="M544.5,263.976q2.109,1.947,2.11,5.806v11.54h-3.282V278.8a5.473,5.473,0,0,1-2.47,2.037,9.415,9.415,0,0,1-3.805.7,7.966,7.966,0,0,1-5.139-1.551,5.331,5.331,0,0,1-.09-8.133q1.839-1.532,5.842-1.532h5.482v-.685a4.412,4.412,0,0,0-1.3-3.426,5.477,5.477,0,0,0-3.822-1.191,10.11,10.11,0,0,0-3.318.56,8.551,8.551,0,0,0-2.741,1.5l-1.442-2.6a10.482,10.482,0,0,1,3.534-1.82,14.772,14.772,0,0,1,4.363-.632A8.647,8.647,0,0,1,544.5,263.976Zm-3.444,14.01a5.06,5.06,0,0,0,2.092-2.506v-2.668h-5.338q-4.4,0-4.4,2.957a2.677,2.677,0,0,0,1.119,2.272,5.106,5.106,0,0,0,3.1.829A6.424,6.424,0,0,0,541.053,277.986Z" style="fill:#fff"/><path d="M571.417,262.209v16.517q0,5.012-2.489,7.411t-7.428,2.4a17.8,17.8,0,0,1-5.158-.739,10.2,10.2,0,0,1-3.966-2.11l1.658-2.668a9.814,9.814,0,0,0,3.3,1.821,12.558,12.558,0,0,0,4.057.667,6.806,6.806,0,0,0,4.959-1.587,6.531,6.531,0,0,0,1.605-4.833v-1.515a7.664,7.664,0,0,1-3.011,2.219,10.05,10.05,0,0,1-3.877.739,10.429,10.429,0,0,1-4.959-1.173,8.711,8.711,0,0,1-3.48-3.281,9.815,9.815,0,0,1,0-9.629,8.594,8.594,0,0,1,3.48-3.263,10.573,10.573,0,0,1,4.959-1.155,10.149,10.149,0,0,1,4.021.794,7.477,7.477,0,0,1,3.047,2.344v-2.957Zm-6.582,14.5a5.859,5.859,0,0,0,2.344-2.218,6.187,6.187,0,0,0,.848-3.227,5.851,5.851,0,0,0-1.839-4.49,7.421,7.421,0,0,0-9.485,0,5.851,5.851,0,0,0-1.839,4.49,6.178,6.178,0,0,0,.848,3.227,5.856,5.856,0,0,0,2.343,2.218,7.166,7.166,0,0,0,3.409.794A7.084,7.084,0,0,0,564.835,276.706Z" style="fill:#fff"/><path d="M595.218,272.92H579.711a6,6,0,0,0,2.217,4.057,7.239,7.239,0,0,0,4.707,1.533,7.087,7.087,0,0,0,5.517-2.309l1.912,2.237a8.375,8.375,0,0,1-3.228,2.307,12.167,12.167,0,0,1-9.683-.45,8.865,8.865,0,0,1-3.624-3.481,9.968,9.968,0,0,1-1.28-5.048,10.129,10.129,0,0,1,1.244-5.013,8.923,8.923,0,0,1,3.426-3.481,9.761,9.761,0,0,1,4.922-1.244,9.57,9.57,0,0,1,4.887,1.244,8.761,8.761,0,0,1,3.354,3.481,10.606,10.606,0,0,1,1.208,5.121A9.937,9.937,0,0,1,595.218,272.92Zm-13.542-6.455a6.1,6.1,0,0,0-1.965,3.967h12.261a6.15,6.15,0,0,0-1.966-3.95,6.455,6.455,0,0,0-8.33-.017Z" style="fill:#fff"/><path d="M612.853,280.276a9.137,9.137,0,0,1-3.553-3.48,10.527,10.527,0,0,1,0-10.062,9.038,9.038,0,0,1,3.553-3.462,11.123,11.123,0,0,1,10.223,0,9.068,9.068,0,0,1,3.534,3.462,10.52,10.52,0,0,1,0,10.062,9.168,9.168,0,0,1-3.534,3.48,10.975,10.975,0,0,1-10.223,0Zm8.42-2.614a5.968,5.968,0,0,0,2.29-2.381,7.862,7.862,0,0,0,0-7.032,5.853,5.853,0,0,0-2.29-2.361,6.973,6.973,0,0,0-6.6,0,5.967,5.967,0,0,0-2.308,2.361,7.713,7.713,0,0,0,0,7.032,6.085,6.085,0,0,0,2.308,2.381,6.843,6.843,0,0,0,6.6,0Z" style="fill:#fff"/><path d="M636.582,260.55v1.659h5.553v2.849h-5.481v16.264h-3.462V265.058h-3.246v-2.849h3.246v-1.695a6.092,6.092,0,0,1,1.659-4.508,6.288,6.288,0,0,1,4.652-1.658,7.827,7.827,0,0,1,2.164.288,5.253,5.253,0,0,1,1.731.829l-1.046,2.633a4.31,4.31,0,0,0-2.669-.9Q636.581,257.2,636.582,260.55Z" style="fill:#fff"/><path d="M684.743,264.12q2.11,2.092,2.11,6.2v11h-3.462v-10.6a6.036,6.036,0,0,0-1.28-4.184,4.7,4.7,0,0,0-3.661-1.406,5.48,5.48,0,0,0-4.183,1.641,6.594,6.594,0,0,0-1.551,4.707v9.844h-3.461v-10.6a6.036,6.036,0,0,0-1.281-4.184,4.7,4.7,0,0,0-3.66-1.406,5.48,5.48,0,0,0-4.183,1.641,6.589,6.589,0,0,0-1.551,4.707v9.844h-3.462V262.209h3.318v2.849a6.7,6.7,0,0,1,2.74-2.254,9.177,9.177,0,0,1,3.859-.776,8.451,8.451,0,0,1,3.967.9,6.264,6.264,0,0,1,2.669,2.632,7.329,7.329,0,0,1,3.011-2.6,9.828,9.828,0,0,1,4.345-.938A7.767,7.767,0,0,1,684.743,264.12Z" style="fill:#fff"/><path d="M696.409,280.276a9.141,9.141,0,0,1-3.552-3.48,10.527,10.527,0,0,1,0-10.062,9.042,9.042,0,0,1,3.552-3.462,11.125,11.125,0,0,1,10.224,0,9.075,9.075,0,0,1,3.534,3.462,10.527,10.527,0,0,1,0,10.062,9.175,9.175,0,0,1-3.534,3.48,10.977,10.977,0,0,1-10.224,0Zm8.421-2.614a5.975,5.975,0,0,0,2.29-2.381,7.871,7.871,0,0,0,0-7.032,5.859,5.859,0,0,0-2.29-2.361,6.973,6.973,0,0,0-6.6,0,5.96,5.96,0,0,0-2.308,2.361,7.713,7.713,0,0,0,0,7.032,6.079,6.079,0,0,0,2.308,2.381,6.843,6.843,0,0,0,6.6,0Z" style="fill:#fff"/><path d="M731.354,263.255a8.827,8.827,0,0,1,3.444,3.426,11.05,11.05,0,0,1,0,10.187,8.8,8.8,0,0,1-3.444,3.445,10.054,10.054,0,0,1-4.977,1.226,9.036,9.036,0,0,1-3.895-.83,7.484,7.484,0,0,1-2.921-2.416v3.029h-3.318V254.563h3.462v10.531a7.347,7.347,0,0,1,2.885-2.29,9.155,9.155,0,0,1,3.787-.776A10.054,10.054,0,0,1,731.354,263.255Zm-1.966,14.407a6.092,6.092,0,0,0,2.308-2.381,7.713,7.713,0,0,0,0-7.032,5.973,5.973,0,0,0-2.308-2.361,6.937,6.937,0,0,0-6.581,0,5.807,5.807,0,0,0-2.308,2.361,7.862,7.862,0,0,0,0,7.032,5.92,5.92,0,0,0,2.308,2.381,6.808,6.808,0,0,0,6.581,0Z" style="fill:#fff"/><path d="M740.892,257.882a2.131,2.131,0,0,1-.667-1.587,2.192,2.192,0,0,1,.667-1.606,2.278,2.278,0,0,1,1.677-.667,2.348,2.348,0,0,1,1.677.631,2.074,2.074,0,0,1,.667,1.57,2.226,2.226,0,0,1-.667,1.64,2.27,2.27,0,0,1-1.677.667A2.311,2.311,0,0,1,740.892,257.882Zm-.054,4.327H744.3v19.113h-3.462Z" style="fill:#fff"/><path d="M750.9,254.563h3.461v26.759H750.9Z" style="fill:#fff"/><path d="M761.015,257.882a2.128,2.128,0,0,1-.668-1.587,2.189,2.189,0,0,1,.668-1.606,2.275,2.275,0,0,1,1.677-.667,2.347,2.347,0,0,1,1.676.631,2.075,2.075,0,0,1,.668,1.57,2.227,2.227,0,0,1-.668,1.64,2.269,2.269,0,0,1-1.676.667A2.307,2.307,0,0,1,761.015,257.882Zm-.054,4.327h3.462v19.113h-3.462Z" style="fill:#fff"/><path d="M781.768,280.2a5.158,5.158,0,0,1-1.875.992,7.842,7.842,0,0,1-2.308.343,6.133,6.133,0,0,1-4.472-1.551,5.921,5.921,0,0,1-1.586-4.436V265.058h-3.246v-2.849h3.246v-4.184h3.461v4.184h5.482v2.849h-5.482v10.35a3.357,3.357,0,0,0,.776,2.38,2.882,2.882,0,0,0,2.218.829,4.176,4.176,0,0,0,2.705-.9Z" style="fill:#fff"/><path d="M802.505,262.209l-9.269,21.024a9.474,9.474,0,0,1-2.867,4.112,6.545,6.545,0,0,1-3.948,1.19,8.341,8.341,0,0,1-2.724-.451,5.6,5.6,0,0,1-2.181-1.316l1.478-2.6a4.825,4.825,0,0,0,3.427,1.407,3.3,3.3,0,0,0,2.109-.668,5.686,5.686,0,0,0,1.533-2.29l.613-1.334-8.439-19.077h3.606l6.672,15.291,6.6-15.291Z" style="fill:#fff"/><path d="M833.482,254.563v26.759h-3.318v-3.029a7.491,7.491,0,0,1-2.921,2.416,9.039,9.039,0,0,1-3.9.83,10.054,10.054,0,0,1-4.977-1.226,8.79,8.79,0,0,1-3.444-3.445,11.05,11.05,0,0,1,0-10.187,8.821,8.821,0,0,1,3.444-3.426,10.054,10.054,0,0,1,4.977-1.227,9.159,9.159,0,0,1,3.787.776,7.354,7.354,0,0,1,2.885,2.29V254.563Zm-6.564,23.1a5.932,5.932,0,0,0,2.308-2.381,7.862,7.862,0,0,0,0-7.032,5.819,5.819,0,0,0-2.308-2.361,6.937,6.937,0,0,0-6.581,0,5.967,5.967,0,0,0-2.308,2.361,7.713,7.713,0,0,0,0,7.032,6.085,6.085,0,0,0,2.308,2.381,6.808,6.808,0,0,0,6.581,0Z" style="fill:#fff"/><path d="M853.082,263.976q2.109,1.947,2.11,5.806v11.54H851.91V278.8a5.473,5.473,0,0,1-2.47,2.037,9.415,9.415,0,0,1-3.805.7,7.966,7.966,0,0,1-5.139-1.551,5.331,5.331,0,0,1-.09-8.133q1.839-1.532,5.842-1.532h5.482v-.685a4.412,4.412,0,0,0-1.3-3.426,5.477,5.477,0,0,0-3.822-1.191,10.11,10.11,0,0,0-3.318.56,8.551,8.551,0,0,0-2.741,1.5l-1.442-2.6a10.482,10.482,0,0,1,3.534-1.82,14.772,14.772,0,0,1,4.363-.632A8.647,8.647,0,0,1,853.082,263.976Zm-3.444,14.01a5.06,5.06,0,0,0,2.092-2.506v-2.668h-5.338q-4.4,0-4.4,2.957a2.679,2.679,0,0,0,1.118,2.272,5.111,5.111,0,0,0,3.1.829A6.424,6.424,0,0,0,849.638,277.986Z" style="fill:#fff"/><path d="M872.357,280.2a5.158,5.158,0,0,1-1.875.992,7.847,7.847,0,0,1-2.308.343,6.13,6.13,0,0,1-4.471-1.551,5.917,5.917,0,0,1-1.587-4.436V265.058H858.87v-2.849h3.246v-4.184h3.462v4.184h5.481v2.849h-5.481v10.35a3.356,3.356,0,0,0,.775,2.38,2.884,2.884,0,0,0,2.218.829,4.174,4.174,0,0,0,2.7-.9Z" style="fill:#fff"/><path d="M889.577,263.976q2.109,1.947,2.109,5.806v11.54h-3.281V278.8a5.47,5.47,0,0,1-2.471,2.037,9.41,9.41,0,0,1-3.8.7,7.966,7.966,0,0,1-5.139-1.551,5.33,5.33,0,0,1-.09-8.133q1.839-1.532,5.842-1.532h5.481v-.685a4.411,4.411,0,0,0-1.3-3.426,5.48,5.48,0,0,0-3.823-1.191,10.108,10.108,0,0,0-3.317.56,8.551,8.551,0,0,0-2.741,1.5l-1.443-2.6a10.5,10.5,0,0,1,3.534-1.82,14.784,14.784,0,0,1,4.364-.632A8.647,8.647,0,0,1,889.577,263.976Zm-3.445,14.01a5.05,5.05,0,0,0,2.092-2.506v-2.668h-5.337q-4.4,0-4.4,2.957a2.679,2.679,0,0,0,1.118,2.272,5.111,5.111,0,0,0,3.1.829A6.418,6.418,0,0,0,886.132,277.986Z" style="fill:#fff"/><path d="M900.648,277.3a2.45,2.45,0,0,1,.667,1.75,4.3,4.3,0,0,1-.126,1.045q-.127.505-.487,1.55l-1.7,5.013h-2.271l1.334-5.373a2.262,2.262,0,0,1-1.1-.848,2.367,2.367,0,0,1-.415-1.387,2.393,2.393,0,0,1,.686-1.768,2.347,2.347,0,0,1,1.731-.685A2.216,2.216,0,0,1,900.648,277.3Z" style="fill:#fff"/><path d="M916.047,257.882a2.128,2.128,0,0,1-.668-1.587,2.189,2.189,0,0,1,.668-1.606,2.272,2.272,0,0,1,1.676-.667,2.348,2.348,0,0,1,1.677.631,2.077,2.077,0,0,1,.667,1.57,2.23,2.23,0,0,1-.667,1.64,2.27,2.27,0,0,1-1.677.667A2.305,2.305,0,0,1,916.047,257.882Zm-.055,4.327h3.462v19.113h-3.462Z" style="fill:#fff"/><path d="M936.8,280.2a5.142,5.142,0,0,1-1.875.992,7.84,7.84,0,0,1-2.307.343,6.133,6.133,0,0,1-4.472-1.551,5.921,5.921,0,0,1-1.587-4.436V265.058h-3.246v-2.849h3.246v-4.184h3.462v4.184H935.5v2.849H930.02v10.35a3.352,3.352,0,0,0,.776,2.38,2.88,2.88,0,0,0,2.217.829,4.174,4.174,0,0,0,2.7-.9Z" style="fill:#fff"/><path d="M979.606,262.209l-7.141,19.113h-3.317l-5.517-14.5-5.59,14.5h-3.319l-7.1-19.113H950.9l5.554,15.219,5.769-15.219h2.922l5.661,15.291,5.7-15.291Z" style="fill:#fff"/><path d="M983.158,257.882a2.131,2.131,0,0,1-.667-1.587,2.192,2.192,0,0,1,.667-1.606,2.276,2.276,0,0,1,1.677-.667,2.345,2.345,0,0,1,1.676.631,2.071,2.071,0,0,1,.668,1.57,2.223,2.223,0,0,1-.668,1.64,2.268,2.268,0,0,1-1.676.667A2.309,2.309,0,0,1,983.158,257.882Zm-.054,4.327h3.462v19.113H983.1Z" style="fill:#fff"/><path d="M993.165,254.563h3.462v26.759h-3.462Z" style="fill:#fff"/><path d="M1003.226,254.563h3.462v26.759h-3.462Z" style="fill:#fff"/></g><g style="isolation:isolate"><path d="M95.482,311.117q2.145,2.109,2.146,6.185v11H94.166V317.7a5.872,5.872,0,0,0-1.334-4.183,5.019,5.019,0,0,0-3.823-1.407,5.957,5.957,0,0,0-4.436,1.641,6.414,6.414,0,0,0-1.623,4.707V328.3H79.488V301.542H82.95v10.351a7.15,7.15,0,0,1,2.831-2.128,9.751,9.751,0,0,1,3.913-.758A7.9,7.9,0,0,1,95.482,311.117Z" style="fill:#fff"/><path d="M121.357,319.9H105.85a6,6,0,0,0,2.218,4.057,7.231,7.231,0,0,0,4.706,1.533,7.09,7.09,0,0,0,5.518-2.308l1.911,2.236a8.369,8.369,0,0,1-3.228,2.308,12.163,12.163,0,0,1-9.683-.451,8.869,8.869,0,0,1-3.624-3.48,9.982,9.982,0,0,1-1.28-5.049,10.134,10.134,0,0,1,1.244-5.013,8.921,8.921,0,0,1,3.426-3.48,9.762,9.762,0,0,1,4.923-1.244,9.569,9.569,0,0,1,4.886,1.244,8.752,8.752,0,0,1,3.354,3.48,10.613,10.613,0,0,1,1.208,5.122A9.921,9.921,0,0,1,121.357,319.9Zm-13.542-6.455a6.1,6.1,0,0,0-1.965,3.967h12.261a6.147,6.147,0,0,0-1.965-3.949,6.458,6.458,0,0,0-8.331-.018Z" style="fill:#fff"/><path d="M126.226,301.542h3.462V328.3h-3.462Z" style="fill:#fff"/><path d="M151.4,310.233a8.827,8.827,0,0,1,3.444,3.426,11.052,11.052,0,0,1,0,10.188,8.787,8.787,0,0,1-3.444,3.444,10.051,10.051,0,0,1-4.976,1.227,8.857,8.857,0,0,1-3.769-.794,7.826,7.826,0,0,1-2.9-2.308V335.3h-3.462V309.188H139.6v3.029a7.342,7.342,0,0,1,2.921-2.4,9.217,9.217,0,0,1,3.895-.811A10.05,10.05,0,0,1,151.4,310.233Zm-1.965,14.408a6.119,6.119,0,0,0,2.308-2.381,7.721,7.721,0,0,0,0-7.032,5.989,5.989,0,0,0-2.308-2.362,6.565,6.565,0,0,0-3.3-.83,6.383,6.383,0,0,0-3.264.848,6.143,6.143,0,0,0-2.308,2.362,7.044,7.044,0,0,0-.847,3.5,7.271,7.271,0,0,0,.829,3.516,5.945,5.945,0,0,0,2.308,2.381,6.817,6.817,0,0,0,6.582,0Z" style="fill:#fff"/><path d="M187.784,319.9H172.277a6,6,0,0,0,2.218,4.057,7.231,7.231,0,0,0,4.706,1.533,7.09,7.09,0,0,0,5.518-2.308l1.911,2.236a8.369,8.369,0,0,1-3.228,2.308,12.163,12.163,0,0,1-9.683-.451,8.869,8.869,0,0,1-3.624-3.48,9.982,9.982,0,0,1-1.28-5.049,10.145,10.145,0,0,1,1.244-5.013,8.921,8.921,0,0,1,3.426-3.48,9.764,9.764,0,0,1,4.923-1.244,9.566,9.566,0,0,1,4.886,1.244,8.752,8.752,0,0,1,3.354,3.48,10.613,10.613,0,0,1,1.208,5.122A9.921,9.921,0,0,1,187.784,319.9Zm-13.542-6.455a6.109,6.109,0,0,0-1.965,3.967h12.262a6.153,6.153,0,0,0-1.966-3.949,6.458,6.458,0,0,0-8.331-.018Z" style="fill:#fff"/><path d="M193.626,327.886a9.87,9.87,0,0,1-3.39-1.605l1.443-2.741a10.334,10.334,0,0,0,3.065,1.443,12.6,12.6,0,0,0,3.642.541q4.545,0,4.544-2.6a1.685,1.685,0,0,0-.612-1.371,3.925,3.925,0,0,0-1.533-.74q-.919-.233-2.615-.522a25.606,25.606,0,0,1-3.768-.829,5.815,5.815,0,0,1-2.507-1.587,4.413,4.413,0,0,1-1.046-3.138,4.9,4.9,0,0,1,2.164-4.165,9.691,9.691,0,0,1,5.806-1.569,16.032,16.032,0,0,1,3.823.469,10.31,10.31,0,0,1,3.137,1.262l-1.478,2.741a9.943,9.943,0,0,0-5.518-1.515,6.377,6.377,0,0,0-3.354.722,2.176,2.176,0,0,0-1.153,1.911,1.82,1.82,0,0,0,.648,1.478,4.086,4.086,0,0,0,1.6.794q.956.252,2.687.577a29.384,29.384,0,0,1,3.732.847,5.569,5.569,0,0,1,2.434,1.533,4.27,4.27,0,0,1,1.01,3.029,4.775,4.775,0,0,1-2.218,4.129,10.463,10.463,0,0,1-6.04,1.534A16.01,16.01,0,0,1,193.626,327.886Z" style="fill:#fff"/><path d="M221.466,327.183a5.18,5.18,0,0,1-1.875.992,7.875,7.875,0,0,1-2.308.343,6.13,6.13,0,0,1-4.471-1.551,5.92,5.92,0,0,1-1.587-4.437V312.036h-3.246v-2.848h3.246V305h3.462v4.184h5.481v2.848h-5.481v10.351a3.356,3.356,0,0,0,.775,2.38,2.887,2.887,0,0,0,2.218.829,4.171,4.171,0,0,0,2.7-.9Z" style="fill:#fff"/><path d="M238.686,310.954q2.109,1.948,2.11,5.807V328.3h-3.282v-2.525a5.467,5.467,0,0,1-2.47,2.037,9.415,9.415,0,0,1-3.805.7,7.966,7.966,0,0,1-5.139-1.551,5.331,5.331,0,0,1-.09-8.133q1.839-1.531,5.842-1.532h5.482v-.686a4.413,4.413,0,0,0-1.3-3.426,5.477,5.477,0,0,0-3.822-1.19,10.11,10.11,0,0,0-3.318.56,8.551,8.551,0,0,0-2.741,1.5l-1.442-2.6a10.464,10.464,0,0,1,3.534-1.82,14.772,14.772,0,0,1,4.363-.632A8.647,8.647,0,0,1,238.686,310.954Zm-3.444,14.011a5.064,5.064,0,0,0,2.092-2.506V319.79H232q-4.4,0-4.4,2.957a2.678,2.678,0,0,0,1.119,2.273,5.113,5.113,0,0,0,3.1.829A6.424,6.424,0,0,0,235.242,324.965Z" style="fill:#fff"/><path d="M262.325,310.233a8.827,8.827,0,0,1,3.444,3.426,11.052,11.052,0,0,1,0,10.188,8.787,8.787,0,0,1-3.444,3.444,10.054,10.054,0,0,1-4.977,1.227,9.05,9.05,0,0,1-3.9-.83,7.487,7.487,0,0,1-2.921-2.417v3.03h-3.317V301.542h3.461v10.53a7.361,7.361,0,0,1,2.886-2.29,9.166,9.166,0,0,1,3.786-.775A10.054,10.054,0,0,1,262.325,310.233Zm-1.965,14.408a6.119,6.119,0,0,0,2.308-2.381,7.721,7.721,0,0,0,0-7.032,5.989,5.989,0,0,0-2.308-2.362,6.939,6.939,0,0,0-6.582,0,5.822,5.822,0,0,0-2.308,2.362,7.862,7.862,0,0,0,0,7.032,5.945,5.945,0,0,0,2.308,2.381,6.817,6.817,0,0,0,6.582,0Z" style="fill:#fff"/><path d="M271.809,301.542h3.462V328.3h-3.462Z" style="fill:#fff"/><path d="M281.924,304.86a2.129,2.129,0,0,1-.667-1.587,2.188,2.188,0,0,1,.667-1.605A2.278,2.278,0,0,1,283.6,301a2.348,2.348,0,0,1,1.677.631,2.072,2.072,0,0,1,.667,1.569,2.229,2.229,0,0,1-.667,1.641,2.274,2.274,0,0,1-1.677.667A2.307,2.307,0,0,1,281.924,304.86Zm-.054,4.328h3.462V328.3H281.87Z" style="fill:#fff"/><path d="M292.9,327.886a9.865,9.865,0,0,1-3.389-1.605l1.442-2.741a10.328,10.328,0,0,0,3.066,1.443,12.594,12.594,0,0,0,3.642.541q4.543,0,4.544-2.6a1.685,1.685,0,0,0-.613-1.371,3.918,3.918,0,0,0-1.533-.74q-.92-.233-2.615-.522a25.606,25.606,0,0,1-3.768-.829,5.815,5.815,0,0,1-2.507-1.587,4.417,4.417,0,0,1-1.045-3.138,4.9,4.9,0,0,1,2.164-4.165,9.686,9.686,0,0,1,5.805-1.569,16.019,16.019,0,0,1,3.823.469,10.327,10.327,0,0,1,3.138,1.262l-1.479,2.741a9.94,9.94,0,0,0-5.517-1.515,6.375,6.375,0,0,0-3.354.722,2.175,2.175,0,0,0-1.154,1.911,1.818,1.818,0,0,0,.649,1.478,4.073,4.073,0,0,0,1.605.794q.954.252,2.686.577a29.446,29.446,0,0,1,3.733.847,5.58,5.58,0,0,1,2.434,1.533,4.27,4.27,0,0,1,1.01,3.029,4.777,4.777,0,0,1-2.218,4.129,10.466,10.466,0,0,1-6.041,1.534A16.01,16.01,0,0,1,292.9,327.886Z" style="fill:#fff"/><path d="M325.992,311.117q2.147,2.109,2.146,6.185v11h-3.462V317.7a5.872,5.872,0,0,0-1.334-4.183,5.019,5.019,0,0,0-3.823-1.407,5.953,5.953,0,0,0-4.435,1.641,6.414,6.414,0,0,0-1.623,4.707V328.3H310V301.542h3.462v10.351a7.136,7.136,0,0,1,2.831-2.128,9.746,9.746,0,0,1,3.912-.758A7.894,7.894,0,0,1,325.992,311.117Z" style="fill:#fff"/><path d="M373.884,311.1q2.111,2.091,2.11,6.2v11h-3.462V317.7a6.033,6.033,0,0,0-1.28-4.183,4.7,4.7,0,0,0-3.661-1.407,5.48,5.48,0,0,0-4.183,1.641,6.6,6.6,0,0,0-1.551,4.707V328.3H358.4V317.7a6.033,6.033,0,0,0-1.28-4.183,4.7,4.7,0,0,0-3.661-1.407,5.481,5.481,0,0,0-4.183,1.641,6.6,6.6,0,0,0-1.551,4.707V328.3h-3.462V309.188h3.318v2.848a6.722,6.722,0,0,1,2.741-2.254,9.192,9.192,0,0,1,3.859-.775,8.468,8.468,0,0,1,3.967.9,6.268,6.268,0,0,1,2.668,2.632,7.336,7.336,0,0,1,3.011-2.6,9.832,9.832,0,0,1,4.346-.937A7.763,7.763,0,0,1,373.884,311.1Z" style="fill:#fff"/><path d="M400.192,309.188V328.3H396.91v-2.885a6.964,6.964,0,0,1-2.759,2.29,8.606,8.606,0,0,1-3.732.812,8.342,8.342,0,0,1-6.023-2.111q-2.2-2.109-2.2-6.22v-11h3.462v10.6a5.93,5.93,0,0,0,1.335,4.2,4.98,4.98,0,0,0,3.822,1.425,5.707,5.707,0,0,0,4.328-1.659,6.517,6.517,0,0,0,1.587-4.689v-9.88Z" style="fill:#fff"/><path d="M417.537,327.183a5.188,5.188,0,0,1-1.875.992,7.875,7.875,0,0,1-2.308.343,6.133,6.133,0,0,1-4.472-1.551,5.923,5.923,0,0,1-1.586-4.437V312.036H404.05v-2.848H407.3V305h3.461v4.184h5.482v2.848h-5.482v10.351a3.357,3.357,0,0,0,.776,2.38,2.886,2.886,0,0,0,2.218.829,4.171,4.171,0,0,0,2.705-.9Z" style="fill:#fff"/><path d="M439.535,309.188V328.3h-3.282v-2.885a6.964,6.964,0,0,1-2.759,2.29,8.606,8.606,0,0,1-3.732.812,8.343,8.343,0,0,1-6.023-2.111q-2.2-2.109-2.2-6.22v-11H425v10.6a5.93,5.93,0,0,0,1.334,4.2,4.981,4.981,0,0,0,3.822,1.425,5.707,5.707,0,0,0,4.328-1.659,6.513,6.513,0,0,0,1.587-4.689v-9.88Z" style="fill:#fff"/><path d="M459.171,310.954q2.109,1.948,2.109,5.807V328.3H458v-2.525a5.464,5.464,0,0,1-2.471,2.037,9.406,9.406,0,0,1-3.8.7,7.966,7.966,0,0,1-5.139-1.551,5.33,5.33,0,0,1-.09-8.133q1.839-1.531,5.842-1.532h5.482v-.686a4.417,4.417,0,0,0-1.3-3.426A5.48,5.48,0,0,0,452.7,312a10.108,10.108,0,0,0-3.317.56,8.551,8.551,0,0,0-2.741,1.5l-1.443-2.6a10.478,10.478,0,0,1,3.535-1.82,14.772,14.772,0,0,1,4.363-.632A8.649,8.649,0,0,1,459.171,310.954Zm-3.444,14.011a5.069,5.069,0,0,0,2.092-2.506V319.79h-5.338q-4.4,0-4.4,2.957a2.679,2.679,0,0,0,1.118,2.273,5.117,5.117,0,0,0,3.1.829A6.425,6.425,0,0,0,455.727,324.965Z" style="fill:#fff"/><path d="M467.7,301.542h3.462V328.3H467.7Z" style="fill:#fff"/><path d="M498.208,327.183a5.188,5.188,0,0,1-1.875.992,7.875,7.875,0,0,1-2.308.343,6.133,6.133,0,0,1-4.472-1.551,5.924,5.924,0,0,1-1.587-4.437V312.036h-3.245v-2.848h3.245V305h3.462v4.184h5.482v2.848h-5.482v10.351a3.357,3.357,0,0,0,.776,2.38,2.886,2.886,0,0,0,2.218.829,4.171,4.171,0,0,0,2.7-.9Z" style="fill:#fff"/><path d="M508.377,309.873a9.685,9.685,0,0,1,4.292-.866v3.354a6.785,6.785,0,0,0-.794-.036A5.822,5.822,0,0,0,507.458,314a6.634,6.634,0,0,0-1.605,4.778V328.3h-3.462V309.188h3.318V312.4A5.9,5.9,0,0,1,508.377,309.873Z" style="fill:#fff"/><path d="M534.991,309.188V328.3H531.71v-2.885a6.977,6.977,0,0,1-2.759,2.29,8.607,8.607,0,0,1-3.733.812,8.341,8.341,0,0,1-6.022-2.111q-2.2-2.109-2.2-6.22v-11h3.462v10.6a5.926,5.926,0,0,0,1.335,4.2,4.98,4.98,0,0,0,3.822,1.425,5.708,5.708,0,0,0,4.328-1.659,6.516,6.516,0,0,0,1.586-4.689v-9.88Z" style="fill:#fff"/><path d="M542.564,327.886a9.87,9.87,0,0,1-3.39-1.605l1.443-2.741a10.334,10.334,0,0,0,3.065,1.443,12.6,12.6,0,0,0,3.642.541q4.545,0,4.544-2.6a1.685,1.685,0,0,0-.612-1.371,3.925,3.925,0,0,0-1.533-.74q-.919-.233-2.615-.522a25.606,25.606,0,0,1-3.768-.829,5.815,5.815,0,0,1-2.507-1.587,4.413,4.413,0,0,1-1.046-3.138,4.9,4.9,0,0,1,2.164-4.165,9.691,9.691,0,0,1,5.806-1.569,16.032,16.032,0,0,1,3.823.469,10.31,10.31,0,0,1,3.137,1.262l-1.478,2.741a9.943,9.943,0,0,0-5.518-1.515,6.377,6.377,0,0,0-3.354.722,2.176,2.176,0,0,0-1.153,1.911,1.82,1.82,0,0,0,.648,1.478,4.086,4.086,0,0,0,1.605.794q.956.252,2.687.577a29.384,29.384,0,0,1,3.732.847,5.569,5.569,0,0,1,2.434,1.533,4.27,4.27,0,0,1,1.01,3.029,4.775,4.775,0,0,1-2.218,4.129,10.463,10.463,0,0,1-6.04,1.534A16.005,16.005,0,0,1,542.564,327.886Z" style="fill:#fff"/><path d="M570.4,327.183a5.188,5.188,0,0,1-1.875.992,7.885,7.885,0,0,1-2.308.343,6.133,6.133,0,0,1-4.472-1.551,5.924,5.924,0,0,1-1.587-4.437V312.036h-3.245v-2.848h3.245V305h3.462v4.184h5.482v2.848h-5.482v10.351a3.352,3.352,0,0,0,.776,2.38,2.884,2.884,0,0,0,2.217.829,4.167,4.167,0,0,0,2.705-.9Z" style="fill:#fff"/><path d="M584.342,304.86a2.13,2.13,0,0,1-.668-1.587,2.189,2.189,0,0,1,.668-1.605,2.275,2.275,0,0,1,1.677-.667,2.344,2.344,0,0,1,1.676.631,2.073,2.073,0,0,1,.668,1.569,2.229,2.229,0,0,1-.668,1.641,2.27,2.27,0,0,1-1.676.667A2.3,2.3,0,0,1,584.342,304.86Zm-.054,4.328h3.462V328.3h-3.462Z" style="fill:#fff"/><path d="M610.343,311.117q2.145,2.109,2.146,6.185v11h-3.462V317.7a5.872,5.872,0,0,0-1.334-4.183,5.019,5.019,0,0,0-3.823-1.407,5.957,5.957,0,0,0-4.436,1.641,6.414,6.414,0,0,0-1.623,4.707V328.3h-3.462V309.188h3.318v2.884A6.732,6.732,0,0,1,600.5,309.8a9.889,9.889,0,0,1,4.057-.794A7.9,7.9,0,0,1,610.343,311.117Z" style="fill:#fff"/><path d="M639.355,327.183a5.188,5.188,0,0,1-1.875.992,7.88,7.88,0,0,1-2.308.343,6.133,6.133,0,0,1-4.472-1.551,5.924,5.924,0,0,1-1.587-4.437V312.036h-3.245v-2.848h3.245V305h3.462v4.184h5.482v2.848h-5.482v10.351a3.357,3.357,0,0,0,.776,2.38,2.886,2.886,0,0,0,2.218.829,4.171,4.171,0,0,0,2.705-.9Z" style="fill:#fff"/><path d="M660.091,319.9H644.584a6,6,0,0,0,2.218,4.057,7.231,7.231,0,0,0,4.706,1.533,7.09,7.09,0,0,0,5.518-2.308l1.911,2.236a8.373,8.373,0,0,1-3.227,2.308,12.163,12.163,0,0,1-9.683-.451,8.878,8.878,0,0,1-3.625-3.48,9.982,9.982,0,0,1-1.28-5.049,10.145,10.145,0,0,1,1.244-5.013,8.928,8.928,0,0,1,3.426-3.48,9.764,9.764,0,0,1,4.923-1.244,9.564,9.564,0,0,1,4.886,1.244,8.745,8.745,0,0,1,3.354,3.48,10.613,10.613,0,0,1,1.208,5.122A9.921,9.921,0,0,1,660.091,319.9Zm-13.542-6.455a6.114,6.114,0,0,0-1.965,3.967h12.262a6.153,6.153,0,0,0-1.966-3.949,6.458,6.458,0,0,0-8.331-.018Z" style="fill:#fff"/><path d="M670.946,309.873a9.688,9.688,0,0,1,4.292-.866v3.354a6.785,6.785,0,0,0-.794-.036A5.822,5.822,0,0,0,670.027,314a6.638,6.638,0,0,0-1.605,4.778V328.3H664.96V309.188h3.318V312.4A5.9,5.9,0,0,1,670.946,309.873Z" style="fill:#fff"/><path d="M709.119,311.1q2.11,2.091,2.11,6.2v11h-3.462V317.7a6.028,6.028,0,0,0-1.281-4.183,4.7,4.7,0,0,0-3.66-1.407,5.48,5.48,0,0,0-4.183,1.641,6.6,6.6,0,0,0-1.551,4.707V328.3H693.63V317.7a6.033,6.033,0,0,0-1.28-4.183,4.7,4.7,0,0,0-3.661-1.407,5.481,5.481,0,0,0-4.183,1.641,6.6,6.6,0,0,0-1.551,4.707V328.3h-3.462V309.188h3.318v2.848a6.722,6.722,0,0,1,2.741-2.254,9.192,9.192,0,0,1,3.859-.775,8.468,8.468,0,0,1,3.967.9,6.273,6.273,0,0,1,2.668,2.632,7.336,7.336,0,0,1,3.011-2.6,9.829,9.829,0,0,1,4.346-.937A7.763,7.763,0,0,1,709.119,311.1Z" style="fill:#fff"/><path d="M718.585,327.886a9.87,9.87,0,0,1-3.39-1.605l1.443-2.741a10.334,10.334,0,0,0,3.065,1.443,12.6,12.6,0,0,0,3.642.541q4.545,0,4.544-2.6a1.685,1.685,0,0,0-.612-1.371,3.925,3.925,0,0,0-1.533-.74q-.92-.233-2.615-.522a25.652,25.652,0,0,1-3.769-.829,5.817,5.817,0,0,1-2.506-1.587,4.413,4.413,0,0,1-1.046-3.138,4.9,4.9,0,0,1,2.164-4.165,9.691,9.691,0,0,1,5.806-1.569,16.032,16.032,0,0,1,3.823.469,10.31,10.31,0,0,1,3.137,1.262l-1.478,2.741a9.943,9.943,0,0,0-5.518-1.515,6.377,6.377,0,0,0-3.354.722,2.176,2.176,0,0,0-1.153,1.911,1.82,1.82,0,0,0,.648,1.478,4.086,4.086,0,0,0,1.605.794q.955.252,2.687.577a29.384,29.384,0,0,1,3.732.847,5.569,5.569,0,0,1,2.434,1.533,4.27,4.27,0,0,1,1.01,3.029,4.775,4.775,0,0,1-2.218,4.129,10.463,10.463,0,0,1-6.04,1.534A16.005,16.005,0,0,1,718.585,327.886Z" style="fill:#fff"/><path d="M748.445,327.255a9.137,9.137,0,0,1-3.552-3.481,10.518,10.518,0,0,1,0-10.061,9.022,9.022,0,0,1,3.552-3.462,11.125,11.125,0,0,1,10.224,0,9.068,9.068,0,0,1,3.534,3.462,10.525,10.525,0,0,1,0,10.061,9.184,9.184,0,0,1-3.534,3.481,10.977,10.977,0,0,1-10.224,0Zm8.42-2.614a5.981,5.981,0,0,0,2.29-2.381,7.862,7.862,0,0,0,0-7.032,5.855,5.855,0,0,0-2.29-2.362,6.973,6.973,0,0,0-6.6,0,5.976,5.976,0,0,0-2.308,2.362,7.713,7.713,0,0,0,0,7.032,6.106,6.106,0,0,0,2.308,2.381,6.85,6.85,0,0,0,6.6,0Z" style="fill:#fff"/><path d="M772.173,307.528v1.66h5.554v2.848h-5.481V328.3h-3.462V312.036h-3.246v-2.848h3.246v-1.7a6.1,6.1,0,0,1,1.659-4.508,6.29,6.29,0,0,1,4.652-1.658,7.853,7.853,0,0,1,2.163.288,5.293,5.293,0,0,1,1.731.829l-1.045,2.633a4.315,4.315,0,0,0-2.669-.9Q772.173,304.175,772.173,307.528Z" style="fill:#fff"/><path d="M808.741,301.542V328.3h-3.317v-3.03a7.5,7.5,0,0,1-2.921,2.417,9.057,9.057,0,0,1-3.9.83,10.049,10.049,0,0,1-4.977-1.227,8.787,8.787,0,0,1-3.444-3.444,11.052,11.052,0,0,1,0-10.188,8.827,8.827,0,0,1,3.444-3.426,10.049,10.049,0,0,1,4.977-1.226,9.177,9.177,0,0,1,3.787.775,7.369,7.369,0,0,1,2.884,2.29v-10.53Zm-6.563,23.1a5.945,5.945,0,0,0,2.308-2.381,7.862,7.862,0,0,0,0-7.032,5.822,5.822,0,0,0-2.308-2.362,6.937,6.937,0,0,0-6.581,0,5.969,5.969,0,0,0-2.308,2.362,7.713,7.713,0,0,0,0,7.032,6.1,6.1,0,0,0,2.308,2.381,6.815,6.815,0,0,0,6.581,0Z" style="fill:#fff"/><path d="M828.341,310.954q2.111,1.948,2.11,5.807V328.3H827.17v-2.525a5.469,5.469,0,0,1-2.471,2.037,9.41,9.41,0,0,1-3.8.7,7.966,7.966,0,0,1-5.139-1.551,5.33,5.33,0,0,1-.09-8.133q1.839-1.531,5.841-1.532h5.482v-.686a4.416,4.416,0,0,0-1.3-3.426,5.48,5.48,0,0,0-3.823-1.19,10.114,10.114,0,0,0-3.318.56,8.546,8.546,0,0,0-2.74,1.5l-1.443-2.6a10.478,10.478,0,0,1,3.535-1.82,14.772,14.772,0,0,1,4.363-.632A8.644,8.644,0,0,1,828.341,310.954ZM824.9,324.965a5.062,5.062,0,0,0,2.091-2.506V319.79h-5.337q-4.4,0-4.4,2.957a2.679,2.679,0,0,0,1.118,2.273,5.117,5.117,0,0,0,3.1.829A6.425,6.425,0,0,0,824.9,324.965Z" style="fill:#fff"/><path d="M847.616,327.183a5.188,5.188,0,0,1-1.875.992,7.875,7.875,0,0,1-2.308.343,6.129,6.129,0,0,1-4.471-1.551,5.92,5.92,0,0,1-1.587-4.437V312.036h-3.246v-2.848h3.246V305h3.462v4.184h5.481v2.848h-5.481v10.351a3.356,3.356,0,0,0,.775,2.38,2.887,2.887,0,0,0,2.218.829,4.171,4.171,0,0,0,2.7-.9Z" style="fill:#fff"/><path d="M864.837,310.954q2.109,1.948,2.109,5.807V328.3h-3.281v-2.525a5.469,5.469,0,0,1-2.471,2.037,9.411,9.411,0,0,1-3.8.7,7.966,7.966,0,0,1-5.139-1.551,5.331,5.331,0,0,1-.09-8.133Q854,317.3,858,317.3h5.482v-.686a4.416,4.416,0,0,0-1.3-3.426,5.48,5.48,0,0,0-3.823-1.19,10.114,10.114,0,0,0-3.318.56,8.551,8.551,0,0,0-2.741,1.5l-1.442-2.6a10.473,10.473,0,0,1,3.534-1.82,14.777,14.777,0,0,1,4.363-.632A8.65,8.65,0,0,1,864.837,310.954Zm-3.445,14.011a5.059,5.059,0,0,0,2.092-2.506V319.79h-5.337q-4.4,0-4.4,2.957a2.677,2.677,0,0,0,1.118,2.273,5.117,5.117,0,0,0,3.1.829A6.424,6.424,0,0,0,861.392,324.965Z" style="fill:#fff"/><path d="M884.04,327.886a9.852,9.852,0,0,1-3.39-1.605l1.442-2.741a10.328,10.328,0,0,0,3.066,1.443,12.592,12.592,0,0,0,3.641.541q4.545,0,4.544-2.6a1.685,1.685,0,0,0-.612-1.371,3.918,3.918,0,0,0-1.533-.74q-.919-.233-2.614-.522a25.652,25.652,0,0,1-3.769-.829,5.821,5.821,0,0,1-2.507-1.587,4.417,4.417,0,0,1-1.046-3.138,4.9,4.9,0,0,1,2.164-4.165,9.691,9.691,0,0,1,5.806-1.569,16.026,16.026,0,0,1,3.823.469,10.327,10.327,0,0,1,3.138,1.262l-1.478,2.741a9.945,9.945,0,0,0-5.518-1.515,6.381,6.381,0,0,0-3.355.722,2.176,2.176,0,0,0-1.153,1.911,1.818,1.818,0,0,0,.649,1.478,4.073,4.073,0,0,0,1.605.794q.956.252,2.687.577a29.384,29.384,0,0,1,3.732.847,5.574,5.574,0,0,1,2.434,1.533,4.274,4.274,0,0,1,1.009,3.029,4.776,4.776,0,0,1-2.217,4.129,10.467,10.467,0,0,1-6.04,1.534A16,16,0,0,1,884.04,327.886Z" style="fill:#fff"/><path d="M917.127,311.117q2.145,2.109,2.146,6.185v11h-3.462V317.7a5.867,5.867,0,0,0-1.335-4.183,5.015,5.015,0,0,0-3.822-1.407,5.956,5.956,0,0,0-4.436,1.641,6.414,6.414,0,0,0-1.623,4.707V328.3h-3.462V301.542H904.6v10.351a7.136,7.136,0,0,1,2.831-2.128,9.747,9.747,0,0,1,3.913-.758A7.9,7.9,0,0,1,917.127,311.117Z" style="fill:#fff"/><path d="M938.728,310.954q2.111,1.948,2.111,5.807V328.3h-3.283v-2.525a5.464,5.464,0,0,1-2.469,2.037,9.415,9.415,0,0,1-3.8.7,7.967,7.967,0,0,1-5.14-1.551,5.333,5.333,0,0,1-.09-8.133q1.84-1.531,5.842-1.532h5.483v-.686a4.417,4.417,0,0,0-1.3-3.426,5.477,5.477,0,0,0-3.822-1.19,10.115,10.115,0,0,0-3.319.56,8.546,8.546,0,0,0-2.74,1.5l-1.442-2.6a10.464,10.464,0,0,1,3.534-1.82,14.772,14.772,0,0,1,4.363-.632A8.643,8.643,0,0,1,938.728,310.954Zm-3.443,14.011a5.069,5.069,0,0,0,2.092-2.506V319.79h-5.338q-4.4,0-4.4,2.957a2.677,2.677,0,0,0,1.118,2.273,5.117,5.117,0,0,0,3.1.829A6.427,6.427,0,0,0,935.285,324.965Z" style="fill:#fff"/><path d="M953.244,309.873a9.683,9.683,0,0,1,4.291-.866v3.354a6.778,6.778,0,0,0-.793-.036A5.825,5.825,0,0,0,952.324,314a6.638,6.638,0,0,0-1.6,4.778V328.3h-3.462V309.188h3.318V312.4A5.9,5.9,0,0,1,953.244,309.873Z" style="fill:#fff"/><path d="M961.844,304.86a2.129,2.129,0,0,1-.667-1.587,2.188,2.188,0,0,1,.667-1.605,2.278,2.278,0,0,1,1.677-.667,2.346,2.346,0,0,1,1.677.631,2.073,2.073,0,0,1,.668,1.569,2.229,2.229,0,0,1-.668,1.641,2.272,2.272,0,0,1-1.677.667A2.307,2.307,0,0,1,961.844,304.86Zm-.053,4.328h3.462V328.3h-3.462Z" style="fill:#fff"/><path d="M987.845,311.117q2.145,2.109,2.146,6.185v11h-3.462V317.7a5.872,5.872,0,0,0-1.334-4.183,5.019,5.019,0,0,0-3.823-1.407,5.957,5.957,0,0,0-4.436,1.641,6.414,6.414,0,0,0-1.623,4.707V328.3h-3.462V309.188h3.319v2.884A6.72,6.72,0,0,1,978,309.8a9.884,9.884,0,0,1,4.056-.794A7.894,7.894,0,0,1,987.845,311.117Z" style="fill:#fff"/><path d="M1014.8,309.188V325.7q0,5.013-2.488,7.411t-7.429,2.4a17.773,17.773,0,0,1-5.157-.74,10.207,10.207,0,0,1-3.967-2.11L997.42,330a9.782,9.782,0,0,0,3.3,1.821,12.526,12.526,0,0,0,4.057.667,6.806,6.806,0,0,0,4.959-1.587,6.532,6.532,0,0,0,1.605-4.833V324.55a7.684,7.684,0,0,1-3.011,2.219,10.058,10.058,0,0,1-3.877.739,10.44,10.44,0,0,1-4.959-1.173,8.7,8.7,0,0,1-3.48-3.281,9.815,9.815,0,0,1,0-9.629,8.6,8.6,0,0,1,3.48-3.264,10.584,10.584,0,0,1,4.959-1.154,10.123,10.123,0,0,1,4.02.794,7.457,7.457,0,0,1,3.048,2.344v-2.957Zm-6.581,14.5a5.866,5.866,0,0,0,2.344-2.218,6.191,6.191,0,0,0,.848-3.228,5.857,5.857,0,0,0-1.839-4.49,7.42,7.42,0,0,0-9.484,0,5.851,5.851,0,0,0-1.84,4.49,6.19,6.19,0,0,0,.847,3.228,5.872,5.872,0,0,0,2.344,2.218,7.165,7.165,0,0,0,3.408.794A7.088,7.088,0,0,0,1008.22,323.685Z" style="fill:#fff"/><path d="M1044.138,310.954q2.112,1.948,2.111,5.807V328.3h-3.283v-2.525a5.464,5.464,0,0,1-2.469,2.037,9.415,9.415,0,0,1-3.805.7,7.969,7.969,0,0,1-5.14-1.551,5.332,5.332,0,0,1-.089-8.133q1.839-1.531,5.841-1.532h5.483v-.686a4.417,4.417,0,0,0-1.3-3.426,5.477,5.477,0,0,0-3.822-1.19,10.115,10.115,0,0,0-3.319.56,8.546,8.546,0,0,0-2.74,1.5l-1.442-2.6a10.464,10.464,0,0,1,3.534-1.82,14.772,14.772,0,0,1,4.363-.632A8.643,8.643,0,0,1,1044.138,310.954Zm-3.443,14.011a5.069,5.069,0,0,0,2.092-2.506V319.79h-5.338q-4.4,0-4.4,2.957a2.678,2.678,0,0,0,1.119,2.273,5.111,5.111,0,0,0,3.1.829A6.427,6.427,0,0,0,1040.7,324.965Z" style="fill:#fff"/><path d="M1068.661,311.117q2.145,2.109,2.146,6.185v11h-3.462V317.7a5.867,5.867,0,0,0-1.335-4.183,5.015,5.015,0,0,0-3.822-1.407,5.953,5.953,0,0,0-4.435,1.641,6.414,6.414,0,0,0-1.623,4.707V328.3h-3.462V309.188h3.317v2.884a6.732,6.732,0,0,1,2.831-2.271,9.889,9.889,0,0,1,4.057-.794A7.9,7.9,0,0,1,1068.661,311.117Z" style="fill:#fff"/><path d="M1095.365,301.542V328.3h-3.318v-3.03a7.5,7.5,0,0,1-2.92,2.417,9.053,9.053,0,0,1-3.895.83,10.043,10.043,0,0,1-4.976-1.227,8.792,8.792,0,0,1-3.446-3.444,11.059,11.059,0,0,1,0-10.188,8.832,8.832,0,0,1,3.446-3.426,10.042,10.042,0,0,1,4.976-1.226,9.161,9.161,0,0,1,3.785.775,7.386,7.386,0,0,1,2.887,2.29v-10.53Zm-6.563,23.1a5.949,5.949,0,0,0,2.307-2.381,7.862,7.862,0,0,0,0-7.032,5.826,5.826,0,0,0-2.307-2.362,6.939,6.939,0,0,0-6.582,0,5.969,5.969,0,0,0-2.308,2.362,7.713,7.713,0,0,0,0,7.032,6.1,6.1,0,0,0,2.308,2.381,6.817,6.817,0,0,0,6.582,0Z" style="fill:#fff"/></g><g style="isolation:isolate"><path d="M97.52,348.521v26.758H94.2V372.25a7.491,7.491,0,0,1-2.921,2.416,9.039,9.039,0,0,1-3.9.83,10.054,10.054,0,0,1-4.977-1.226,8.8,8.8,0,0,1-3.444-3.445,11.05,11.05,0,0,1,0-10.187,8.827,8.827,0,0,1,3.444-3.426,10.054,10.054,0,0,1,4.977-1.227,9.159,9.159,0,0,1,3.787.776,7.354,7.354,0,0,1,2.885,2.29v-10.53Zm-6.564,23.1a5.932,5.932,0,0,0,2.308-2.381,7.862,7.862,0,0,0,0-7.032,5.819,5.819,0,0,0-2.308-2.361,6.937,6.937,0,0,0-6.581,0,5.967,5.967,0,0,0-2.308,2.361,7.713,7.713,0,0,0,0,7.032,6.085,6.085,0,0,0,2.308,2.381,6.808,6.808,0,0,0,6.581,0Z" style="fill:#fff"/><path d="M121.285,366.877H105.778A6,6,0,0,0,108,370.934a7.237,7.237,0,0,0,4.706,1.533,7.091,7.091,0,0,0,5.518-2.309l1.911,2.237A8.367,8.367,0,0,1,116.9,374.7a12.167,12.167,0,0,1-9.683-.45,8.865,8.865,0,0,1-3.624-3.481,9.978,9.978,0,0,1-1.28-5.048,10.14,10.14,0,0,1,1.244-5.013,8.93,8.93,0,0,1,3.426-3.481,9.764,9.764,0,0,1,4.923-1.244,9.569,9.569,0,0,1,4.886,1.244,8.761,8.761,0,0,1,3.354,3.481,10.606,10.606,0,0,1,1.208,5.121A9.937,9.937,0,0,1,121.285,366.877Zm-13.542-6.455a6.109,6.109,0,0,0-1.965,3.967H118.04a6.155,6.155,0,0,0-1.966-3.95,6.456,6.456,0,0,0-8.331-.017Z" style="fill:#fff"/><path d="M142.707,356.166l-8.367,19.113h-3.534l-8.367-19.113h3.607l6.563,15.327,6.708-15.327Z" style="fill:#fff"/><path d="M162.613,366.877H147.106a6,6,0,0,0,2.217,4.057,7.239,7.239,0,0,0,4.707,1.533,7.091,7.091,0,0,0,5.518-2.309l1.911,2.237a8.375,8.375,0,0,1-3.228,2.307,12.167,12.167,0,0,1-9.683-.45,8.865,8.865,0,0,1-3.624-3.481,9.968,9.968,0,0,1-1.28-5.048,10.129,10.129,0,0,1,1.244-5.013,8.923,8.923,0,0,1,3.426-3.481,9.761,9.761,0,0,1,4.922-1.244,9.57,9.57,0,0,1,4.887,1.244,8.761,8.761,0,0,1,3.354,3.481,10.606,10.606,0,0,1,1.208,5.121A9.937,9.937,0,0,1,162.613,366.877Zm-13.542-6.455a6.1,6.1,0,0,0-1.965,3.967h12.261a6.154,6.154,0,0,0-1.965-3.95,6.456,6.456,0,0,0-8.331-.017Z" style="fill:#fff"/><path d="M167.482,348.521h3.462v26.758h-3.462Z" style="fill:#fff"/><path d="M180.608,374.233a9.134,9.134,0,0,1-3.552-3.48,10.527,10.527,0,0,1,0-10.062,9.035,9.035,0,0,1,3.552-3.462,11.125,11.125,0,0,1,10.224,0,9.081,9.081,0,0,1,3.534,3.462,10.527,10.527,0,0,1,0,10.062,9.182,9.182,0,0,1-3.534,3.48,10.977,10.977,0,0,1-10.224,0Zm8.42-2.614a5.977,5.977,0,0,0,2.291-2.381,7.871,7.871,0,0,0,0-7.032,5.862,5.862,0,0,0-2.291-2.361,6.973,6.973,0,0,0-6.6,0,5.973,5.973,0,0,0-2.308,2.361,7.721,7.721,0,0,0,0,7.032,6.092,6.092,0,0,0,2.308,2.381,6.843,6.843,0,0,0,6.6,0Z" style="fill:#fff"/><path d="M215.553,357.212A8.821,8.821,0,0,1,219,360.638a11.05,11.05,0,0,1,0,10.187,8.79,8.79,0,0,1-3.444,3.445,10.054,10.054,0,0,1-4.977,1.226,8.852,8.852,0,0,1-3.768-.794,7.834,7.834,0,0,1-2.9-2.307v9.88h-3.461V356.166h3.317V359.2a7.355,7.355,0,0,1,2.921-2.4,9.22,9.22,0,0,1,3.895-.812A10.054,10.054,0,0,1,215.553,357.212Zm-1.965,14.407a6.106,6.106,0,0,0,2.308-2.381,7.721,7.721,0,0,0,0-7.032,5.987,5.987,0,0,0-2.308-2.361,6.565,6.565,0,0,0-3.3-.83,6.393,6.393,0,0,0-3.264.847,6.139,6.139,0,0,0-2.308,2.363,7.039,7.039,0,0,0-.848,3.5,7.264,7.264,0,0,0,.83,3.515,5.932,5.932,0,0,0,2.308,2.381,6.81,6.81,0,0,0,6.582,0Z" style="fill:#fff"/><path d="M252.769,348.521v26.758h-3.318V372.25a7.491,7.491,0,0,1-2.921,2.416,9.039,9.039,0,0,1-3.9.83,10.054,10.054,0,0,1-4.977-1.226,8.787,8.787,0,0,1-3.443-3.445,11.042,11.042,0,0,1,0-10.187,8.818,8.818,0,0,1,3.443-3.426,10.054,10.054,0,0,1,4.977-1.227,9.155,9.155,0,0,1,3.787.776,7.354,7.354,0,0,1,2.885,2.29v-10.53Zm-6.564,23.1a5.932,5.932,0,0,0,2.308-2.381,7.862,7.862,0,0,0,0-7.032,5.819,5.819,0,0,0-2.308-2.361,6.937,6.937,0,0,0-6.581,0,5.973,5.973,0,0,0-2.308,2.361,7.713,7.713,0,0,0,0,7.032,6.092,6.092,0,0,0,2.308,2.381,6.808,6.808,0,0,0,6.581,0Z" style="fill:#fff"/><path d="M272.369,357.933q2.111,1.947,2.11,5.806v11.54H271.2v-2.524a5.473,5.473,0,0,1-2.47,2.037,9.415,9.415,0,0,1-3.8.7,7.96,7.96,0,0,1-5.139-1.551,5.33,5.33,0,0,1-.09-8.132q1.839-1.533,5.842-1.533h5.482V363.6a4.412,4.412,0,0,0-1.3-3.426,5.477,5.477,0,0,0-3.822-1.19,10.108,10.108,0,0,0-3.318.559,8.551,8.551,0,0,0-2.741,1.5l-1.442-2.6a10.466,10.466,0,0,1,3.534-1.821,14.777,14.777,0,0,1,4.363-.632A8.646,8.646,0,0,1,272.369,357.933Zm-3.444,14.01a5.062,5.062,0,0,0,2.092-2.5v-2.669h-5.338q-4.4,0-4.4,2.957A2.676,2.676,0,0,0,262.4,372a5.106,5.106,0,0,0,3.1.829A6.424,6.424,0,0,0,268.925,371.943Z" style="fill:#fff"/><path d="M291.644,374.161a5.158,5.158,0,0,1-1.875.992,7.842,7.842,0,0,1-2.308.343,6.129,6.129,0,0,1-4.472-1.551,5.921,5.921,0,0,1-1.587-4.436V359.015h-3.245v-2.849H281.4v-4.184h3.462v4.184h5.482v2.849h-5.482v10.35a3.357,3.357,0,0,0,.776,2.38,2.882,2.882,0,0,0,2.218.829,4.176,4.176,0,0,0,2.7-.9Z" style="fill:#fff"/><path d="M308.863,357.933q2.11,1.947,2.11,5.806v11.54h-3.281v-2.524a5.476,5.476,0,0,1-2.471,2.037,9.41,9.41,0,0,1-3.8.7,7.965,7.965,0,0,1-5.14-1.551,5.329,5.329,0,0,1-.089-8.132q1.839-1.533,5.841-1.533h5.482V363.6a4.415,4.415,0,0,0-1.3-3.426,5.48,5.48,0,0,0-3.823-1.19,10.113,10.113,0,0,0-3.318.559,8.546,8.546,0,0,0-2.74,1.5l-1.443-2.6a10.484,10.484,0,0,1,3.534-1.821,14.784,14.784,0,0,1,4.364-.632A8.645,8.645,0,0,1,308.863,357.933Zm-3.443,14.01a5.06,5.06,0,0,0,2.091-2.5v-2.669h-5.337q-4.4,0-4.4,2.957A2.677,2.677,0,0,0,298.892,372a5.11,5.11,0,0,0,3.1.829A6.425,6.425,0,0,0,305.42,371.943Z" style="fill:#fff"/><path d="M333.079,356.852a9.673,9.673,0,0,1,4.292-.867v3.355a6.571,6.571,0,0,0-.794-.036,5.822,5.822,0,0,0-4.417,1.676,6.641,6.641,0,0,0-1.605,4.779v9.52h-3.462V356.166h3.318v3.21A5.9,5.9,0,0,1,333.079,356.852Z" style="fill:#fff"/><path d="M358.648,366.877H343.141a6,6,0,0,0,2.218,4.057,7.237,7.237,0,0,0,4.706,1.533,7.091,7.091,0,0,0,5.518-2.309l1.911,2.237a8.367,8.367,0,0,1-3.228,2.307,12.167,12.167,0,0,1-9.683-.45,8.865,8.865,0,0,1-3.624-3.481,9.978,9.978,0,0,1-1.28-5.048,10.129,10.129,0,0,1,1.244-5.013,8.93,8.93,0,0,1,3.426-3.481,9.762,9.762,0,0,1,4.923-1.244,9.569,9.569,0,0,1,4.886,1.244,8.761,8.761,0,0,1,3.354,3.481,10.606,10.606,0,0,1,1.208,5.121A9.937,9.937,0,0,1,358.648,366.877Zm-13.542-6.455a6.1,6.1,0,0,0-1.965,3.967H355.4a6.149,6.149,0,0,0-1.965-3.95,6.456,6.456,0,0,0-8.331-.017Z" style="fill:#fff"/><path d="M363.516,348.521h3.462v26.758h-3.462Z" style="fill:#fff"/><path d="M386.614,357.933q2.111,1.947,2.11,5.806v11.54h-3.281v-2.524a5.476,5.476,0,0,1-2.471,2.037,9.41,9.41,0,0,1-3.8.7,7.963,7.963,0,0,1-5.14-1.551,5.329,5.329,0,0,1-.089-8.132q1.839-1.533,5.841-1.533h5.482V363.6a4.415,4.415,0,0,0-1.3-3.426,5.48,5.48,0,0,0-3.823-1.19,10.113,10.113,0,0,0-3.318.559,8.546,8.546,0,0,0-2.74,1.5l-1.443-2.6a10.484,10.484,0,0,1,3.534-1.821,14.784,14.784,0,0,1,4.364-.632A8.645,8.645,0,0,1,386.614,357.933Zm-3.443,14.01a5.06,5.06,0,0,0,2.091-2.5v-2.669h-5.337q-4.4,0-4.4,2.957A2.677,2.677,0,0,0,376.643,372a5.11,5.11,0,0,0,3.1.829A6.425,6.425,0,0,0,383.171,371.943Z" style="fill:#fff"/><path d="M405.889,374.161a5.158,5.158,0,0,1-1.875.992,7.842,7.842,0,0,1-2.308.343,6.125,6.125,0,0,1-4.471-1.551,5.917,5.917,0,0,1-1.587-4.436V359.015H392.4v-2.849h3.246v-4.184h3.462v4.184h5.481v2.849H399.11v10.35a3.356,3.356,0,0,0,.775,2.38,2.884,2.884,0,0,0,2.218.829,4.176,4.176,0,0,0,2.7-.9Z" style="fill:#fff"/><path d="M426.626,366.877H411.118a6.005,6.005,0,0,0,2.218,4.057,7.237,7.237,0,0,0,4.707,1.533,7.089,7.089,0,0,0,5.517-2.309l1.911,2.237a8.371,8.371,0,0,1-3.227,2.307,12.168,12.168,0,0,1-9.683-.45,8.865,8.865,0,0,1-3.624-3.481,9.969,9.969,0,0,1-1.281-5.048,10.13,10.13,0,0,1,1.245-5.013,8.928,8.928,0,0,1,3.425-3.481,9.767,9.767,0,0,1,4.923-1.244,9.564,9.564,0,0,1,4.886,1.244,8.748,8.748,0,0,1,3.354,3.481,10.6,10.6,0,0,1,1.208,5.121A10.169,10.169,0,0,1,426.626,366.877Zm-13.542-6.455a6.11,6.11,0,0,0-1.966,3.967H423.38a6.155,6.155,0,0,0-1.966-3.95,6.455,6.455,0,0,0-8.33-.017Z" style="fill:#fff"/><path d="M449.526,348.521v26.758h-3.318V372.25a7.491,7.491,0,0,1-2.921,2.416,9.039,9.039,0,0,1-3.895.83,10.051,10.051,0,0,1-4.977-1.226,8.79,8.79,0,0,1-3.444-3.445,11.05,11.05,0,0,1,0-10.187,8.821,8.821,0,0,1,3.444-3.426,10.052,10.052,0,0,1,4.977-1.227,9.159,9.159,0,0,1,3.787.776,7.354,7.354,0,0,1,2.885,2.29v-10.53Zm-6.564,23.1a5.932,5.932,0,0,0,2.308-2.381,7.862,7.862,0,0,0,0-7.032,5.819,5.819,0,0,0-2.308-2.361,6.937,6.937,0,0,0-6.581,0,5.967,5.967,0,0,0-2.308,2.361,7.713,7.713,0,0,0,0,7.032,6.085,6.085,0,0,0,2.308,2.381,6.808,6.808,0,0,0,6.581,0Z" style="fill:#fff"/><path d="M484.073,356.166v16.517q0,5.012-2.488,7.411t-7.429,2.4a17.8,17.8,0,0,1-5.157-.739,10.2,10.2,0,0,1-3.967-2.11l1.659-2.668a9.808,9.808,0,0,0,3.3,1.821,12.559,12.559,0,0,0,4.058.667,6.805,6.805,0,0,0,4.958-1.587,6.531,6.531,0,0,0,1.605-4.833v-1.515a7.65,7.65,0,0,1-3.011,2.219,10.05,10.05,0,0,1-3.877.739,10.432,10.432,0,0,1-4.959-1.173,8.717,8.717,0,0,1-3.48-3.281,9.815,9.815,0,0,1,0-9.629,8.6,8.6,0,0,1,3.48-3.263,10.576,10.576,0,0,1,4.959-1.155,10.142,10.142,0,0,1,4.021.794,7.477,7.477,0,0,1,3.047,2.344v-2.957Zm-6.582,14.5a5.855,5.855,0,0,0,2.345-2.218,6.2,6.2,0,0,0,.847-3.227,5.851,5.851,0,0,0-1.839-4.49,7.42,7.42,0,0,0-9.484,0,5.848,5.848,0,0,0-1.84,4.49,6.178,6.178,0,0,0,.848,3.227,5.846,5.846,0,0,0,2.344,2.218,7.159,7.159,0,0,0,3.408.794A7.084,7.084,0,0,0,477.491,370.663Z" style="fill:#fff"/><path d="M508.487,356.166v19.113h-3.281V372.4a6.97,6.97,0,0,1-2.759,2.29,8.6,8.6,0,0,1-3.732.811,8.341,8.341,0,0,1-6.023-2.11q-2.2-2.111-2.2-6.221v-11h3.462v10.6a5.932,5.932,0,0,0,1.335,4.2,4.98,4.98,0,0,0,3.822,1.425,5.7,5.7,0,0,0,4.328-1.66,6.514,6.514,0,0,0,1.587-4.688v-9.881Z" style="fill:#fff"/><path d="M515.141,351.839a2.128,2.128,0,0,1-.668-1.587,2.189,2.189,0,0,1,.668-1.606,2.275,2.275,0,0,1,1.677-.667,2.347,2.347,0,0,1,1.676.631,2.075,2.075,0,0,1,.668,1.57,2.227,2.227,0,0,1-.668,1.64,2.269,2.269,0,0,1-1.676.667A2.307,2.307,0,0,1,515.141,351.839Zm-.054,4.327h3.461v19.113h-3.461Z" style="fill:#fff"/><path d="M543.179,348.521v26.758h-3.318V372.25a7.491,7.491,0,0,1-2.921,2.416,9.034,9.034,0,0,1-3.894.83,10.049,10.049,0,0,1-4.977-1.226,8.783,8.783,0,0,1-3.444-3.445,11.05,11.05,0,0,1,0-10.187,8.814,8.814,0,0,1,3.444-3.426,10.049,10.049,0,0,1,4.977-1.227,9.154,9.154,0,0,1,3.786.776,7.354,7.354,0,0,1,2.885,2.29v-10.53Zm-6.564,23.1a5.932,5.932,0,0,0,2.308-2.381,7.862,7.862,0,0,0,0-7.032,5.819,5.819,0,0,0-2.308-2.361,6.937,6.937,0,0,0-6.581,0,5.973,5.973,0,0,0-2.308,2.361,7.721,7.721,0,0,0,0,7.032,6.092,6.092,0,0,0,2.308,2.381,6.808,6.808,0,0,0,6.581,0Z" style="fill:#fff"/><path d="M566.944,366.877H551.437a6,6,0,0,0,2.218,4.057,7.237,7.237,0,0,0,4.706,1.533,7.09,7.09,0,0,0,5.518-2.309l1.911,2.237a8.371,8.371,0,0,1-3.227,2.307,12.168,12.168,0,0,1-9.683-.45,8.865,8.865,0,0,1-3.624-3.481,9.969,9.969,0,0,1-1.281-5.048,10.14,10.14,0,0,1,1.244-5.013,8.937,8.937,0,0,1,3.426-3.481,9.764,9.764,0,0,1,4.923-1.244,9.564,9.564,0,0,1,4.886,1.244,8.754,8.754,0,0,1,3.354,3.481,10.606,10.606,0,0,1,1.208,5.121A9.937,9.937,0,0,1,566.944,366.877ZM553.4,360.422a6.114,6.114,0,0,0-1.965,3.967H563.7a6.155,6.155,0,0,0-1.966-3.95,6.456,6.456,0,0,0-8.331-.017Z" style="fill:#fff"/><path d="M571.813,348.521h3.462v26.758h-3.462Z" style="fill:#fff"/><path d="M581.928,351.839a2.132,2.132,0,0,1-.668-1.587,2.193,2.193,0,0,1,.668-1.606,2.275,2.275,0,0,1,1.677-.667,2.345,2.345,0,0,1,1.676.631,2.075,2.075,0,0,1,.668,1.57,2.227,2.227,0,0,1-.668,1.64,2.268,2.268,0,0,1-1.676.667A2.307,2.307,0,0,1,581.928,351.839Zm-.054,4.327h3.462v19.113h-3.462Z" style="fill:#fff"/><path d="M607.929,358.1q2.145,2.109,2.146,6.184v11h-3.462v-10.6a5.87,5.87,0,0,0-1.335-4.184,5.018,5.018,0,0,0-3.822-1.406,5.957,5.957,0,0,0-4.436,1.641,6.412,6.412,0,0,0-1.623,4.707v9.844h-3.462V356.166h3.318v2.885a6.735,6.735,0,0,1,2.831-2.272,9.906,9.906,0,0,1,4.057-.794A7.893,7.893,0,0,1,607.929,358.1Z" style="fill:#fff"/><path d="M633.8,366.877H618.3a6,6,0,0,0,2.217,4.057,7.239,7.239,0,0,0,4.707,1.533,7.087,7.087,0,0,0,5.517-2.309l1.912,2.237a8.375,8.375,0,0,1-3.228,2.307,12.168,12.168,0,0,1-9.683-.45,8.865,8.865,0,0,1-3.624-3.481,9.968,9.968,0,0,1-1.28-5.048,10.129,10.129,0,0,1,1.244-5.013,8.923,8.923,0,0,1,3.426-3.481,9.761,9.761,0,0,1,4.922-1.244,9.57,9.57,0,0,1,4.887,1.244,8.761,8.761,0,0,1,3.354,3.481,10.606,10.606,0,0,1,1.208,5.121A9.937,9.937,0,0,1,633.8,366.877Zm-13.542-6.455a6.1,6.1,0,0,0-1.965,3.967h12.261a6.15,6.15,0,0,0-1.966-3.95,6.455,6.455,0,0,0-8.33-.017Z" style="fill:#fff"/><path d="M639.646,374.864a9.88,9.88,0,0,1-3.39-1.6l1.442-2.741a10.365,10.365,0,0,0,3.066,1.443,12.628,12.628,0,0,0,3.642.541q4.543,0,4.544-2.6a1.685,1.685,0,0,0-.613-1.371,3.9,3.9,0,0,0-1.533-.739q-.919-.232-2.614-.523a25.523,25.523,0,0,1-3.769-.829,5.787,5.787,0,0,1-2.506-1.587,4.412,4.412,0,0,1-1.046-3.137,4.9,4.9,0,0,1,2.164-4.165,9.687,9.687,0,0,1,5.806-1.57,16.069,16.069,0,0,1,3.822.469,10.327,10.327,0,0,1,3.138,1.263l-1.479,2.74a9.94,9.94,0,0,0-5.517-1.515,6.384,6.384,0,0,0-3.354.722,2.176,2.176,0,0,0-1.154,1.911,1.821,1.821,0,0,0,.649,1.479,4.093,4.093,0,0,0,1.605.794q.956.252,2.686.577a29.386,29.386,0,0,1,3.733.846,5.571,5.571,0,0,1,2.434,1.534,4.266,4.266,0,0,1,1.01,3.029,4.777,4.777,0,0,1-2.218,4.129,10.474,10.474,0,0,1-6.041,1.533A16,16,0,0,1,639.646,374.864Z" style="fill:#fff"/><path d="M655.838,374.792a2.385,2.385,0,0,1-.722-1.784,2.348,2.348,0,0,1,.722-1.75,2.391,2.391,0,0,1,1.731-.7,2.306,2.306,0,0,1,1.7.685,2.62,2.62,0,0,1-.018,3.552,2.286,2.286,0,0,1-1.677.7A2.388,2.388,0,0,1,655.838,374.792Z" style="fill:#fff"/></g></g></g></g></g></svg>