<svg xmlns="http://www.w3.org/2000/svg" xmlns:xlink="http://www.w3.org/1999/xlink" viewBox="0 0 1617.9 582.4"><defs><radialGradient id="radial-gradient" cx="6812.868" cy="-8213.178" r="501.559" gradientTransform="matrix(0, -1, -1, 0, -8184.422, 6873.776)" gradientUnits="userSpaceOnUse"><stop offset="0" stop-color="#fff"/><stop offset="0.231" stop-color="#fcfcfc"/><stop offset="0.42" stop-color="#f2f2f2"/><stop offset="0.594" stop-color="#e0e0e1"/><stop offset="0.759" stop-color="#c8c8c9"/><stop offset="0.917" stop-color="#aaa"/><stop offset="1" stop-color="#969697"/></radialGradient><radialGradient id="radial-gradient-2" cx="6728.412" cy="-8268.632" r="478.154" gradientTransform="matrix(0, -1, -1, 0, -8184.422, 6873.776)" gradientUnits="userSpaceOnUse"><stop offset="0" stop-color="#fff"/><stop offset="0.258" stop-color="#fcfcfc"/><stop offset="0.468" stop-color="#f2f2f2"/><stop offset="0.662" stop-color="#e0e0e1"/><stop offset="0.846" stop-color="#c9c9c9"/><stop offset="1" stop-color="#aeaeaf"/></radialGradient><radialGradient id="radial-gradient-3" cx="6437.56" cy="-8527.11" r="528.506" gradientTransform="matrix(0, -1, -1, 0, -8184.422, 6873.776)" gradientUnits="userSpaceOnUse"><stop offset="0" stop-color="#fff"/><stop offset="0.165" stop-color="#f8f8f8"/><stop offset="0.411" stop-color="#e3e3e3"/><stop offset="0.709" stop-color="#c2c2c2"/><stop offset="1" stop-color="#9a9a9a"/></radialGradient></defs><g id="Layer_2" data-name="Layer 2"><g id="Layer_1-2" data-name="Layer 1"><path d="M1524.2,582.4H295.1c-51.8,0-93.7-130.4-93.7-291.2h0C201.4,130.4,243.4,0,295.1,0H1524.2c51.8,0,93.7,130.4,93.7,291.2h0C1617.9,452,1575.9,582.4,1524.2,582.4Z" style="fill:#69bfc3"/><line x1="427" y1="247.7" x2="1587.9" y2="247.7" style="fill:none;stroke:#fff;stroke-miterlimit:10;stroke-width:3px"/><path d="M187.9,132c97.9,0,191.4,70.2,191.4,168.1s-62.1,174.5-160,174.5S38.4,393.2,38.4,295.3,90,132,187.9,132Z" style="fill:#434343;opacity:0.5;isolation:isolate"/><path d="M206.8,86.9c114.2,0,206.8,92.6,206.8,206.8S321,500.5,206.8,500.5,0,407.9,0,293.7,92.6,86.9,206.8,86.9Z" style="fill:url(#radial-gradient)"/><path d="M206.8,96.6C315.7,96.6,404,184.9,404,293.8S315.7,491,206.8,491,9.6,402.7,9.6,293.8c0-109,88.3-197.2,197.2-197.2Z" style="fill:url(#radial-gradient-2)"/><path d="M206.8,135.2A158.5,158.5,0,1,1,48.3,293.7,158.484,158.484,0,0,1,206.8,135.2Z" style="fill:url(#radial-gradient-3)"/><path d="M206.8,149.5A144.2,144.2,0,1,1,62.6,293.7,144.251,144.251,0,0,1,206.8,149.5Z" style="opacity:0.10000000149011612;isolation:isolate"/><g style="isolation:isolate"><path d="M438.918,156.021H426.824V148.9h32.934v7.126H447.665v30.667h-8.747Z" style="fill:#fff"/><path d="M489.183,174.541H467.209a6.836,6.836,0,0,0,2.808,4.264,9.288,9.288,0,0,0,5.507,1.566,11.174,11.174,0,0,0,4.022-.674,9.781,9.781,0,0,0,3.266-2.133l4.482,4.858q-4.1,4.7-11.986,4.7a18.969,18.969,0,0,1-8.693-1.916,14.048,14.048,0,0,1-5.831-5.318,14.649,14.649,0,0,1-2.051-7.721,14.846,14.846,0,0,1,2.024-7.693,14.186,14.186,0,0,1,5.561-5.344,17.21,17.21,0,0,1,15.63-.082,13.4,13.4,0,0,1,5.426,5.264,15.7,15.7,0,0,1,1.971,7.964Q489.345,172.435,489.183,174.541ZM469.477,165.2a6.9,6.9,0,0,0-2.376,4.428h14.307a6.964,6.964,0,0,0-2.375-4.4,7.1,7.1,0,0,0-4.751-1.647A7.262,7.262,0,0,0,469.477,165.2Z" style="fill:#fff"/><path d="M500.655,185.2a14.347,14.347,0,0,1-5.776-5.318,15.377,15.377,0,0,1,0-15.442,14.343,14.343,0,0,1,5.776-5.316A17.87,17.87,0,0,1,509,157.209a16.175,16.175,0,0,1,8.018,1.918,11.364,11.364,0,0,1,4.993,5.478l-6.532,3.51a7.143,7.143,0,0,0-6.533-3.994,7.391,7.391,0,0,0-5.453,2.158,9.1,9.1,0,0,0,0,11.77,7.385,7.385,0,0,0,5.453,2.16,7.066,7.066,0,0,0,6.533-3.994l6.532,3.562a11.587,11.587,0,0,1-4.993,5.4A15.973,15.973,0,0,1,509,187.119,17.87,17.87,0,0,1,500.655,185.2Z" style="fill:#fff"/><path d="M553.025,160.449q3.321,3.24,3.32,9.61v16.629h-8.422V171.355a7.572,7.572,0,0,0-1.512-5.156,5.541,5.541,0,0,0-4.373-1.7,6.705,6.705,0,0,0-5.075,1.971q-1.89,1.971-1.89,5.857v14.362h-8.422V146.627h8.422v14.037a11.2,11.2,0,0,1,4.05-2.564,14.642,14.642,0,0,1,5.183-.891A11.952,11.952,0,0,1,553.025,160.449Z" style="fill:#fff"/><path d="M590.332,160.449q3.321,3.24,3.32,9.61v16.629H585.23V171.355a7.572,7.572,0,0,0-1.512-5.156,5.538,5.538,0,0,0-4.373-1.7,6.705,6.705,0,0,0-5.075,1.971q-1.89,1.971-1.89,5.857v14.362h-8.422V157.641H572v3.4a11.169,11.169,0,0,1,4.157-2.834,14.478,14.478,0,0,1,5.453-1A11.951,11.951,0,0,1,590.332,160.449Z" style="fill:#fff"/><path d="M607.176,185.2a14.243,14.243,0,0,1-5.7-5.318,15.552,15.552,0,0,1,0-15.442,14.238,14.238,0,0,1,5.7-5.316,18.573,18.573,0,0,1,16.44,0,14.292,14.292,0,0,1,5.669,5.316,15.552,15.552,0,0,1,0,15.442,14.3,14.3,0,0,1-5.669,5.318,18.591,18.591,0,0,1-16.44,0Zm13.552-7.18a9.293,9.293,0,0,0,0-11.716,7.018,7.018,0,0,0-5.318-2.186,7.105,7.105,0,0,0-5.345,2.186,9.2,9.2,0,0,0,0,11.716,7.105,7.105,0,0,0,5.345,2.186A7.018,7.018,0,0,0,620.728,178.023Z" style="fill:#fff"/><path d="M636.952,146.627h8.422v40.061h-8.422Z" style="fill:#fff"/><path d="M658.79,185.2a14.252,14.252,0,0,1-5.7-5.318,15.558,15.558,0,0,1,0-15.442,14.248,14.248,0,0,1,5.7-5.316,18.573,18.573,0,0,1,16.44,0,14.292,14.292,0,0,1,5.669,5.316,15.552,15.552,0,0,1,0,15.442,14.3,14.3,0,0,1-5.669,5.318,18.591,18.591,0,0,1-16.44,0Zm13.552-7.18a9.293,9.293,0,0,0,0-11.716,7.018,7.018,0,0,0-5.318-2.186,7.1,7.1,0,0,0-5.345,2.186,9.2,9.2,0,0,0,0,11.716,7.1,7.1,0,0,0,5.345,2.186A7.018,7.018,0,0,0,672.342,178.023Z" style="fill:#fff"/><path d="M718.53,157.641v24.187q0,7.992-4.157,11.879t-12.148,3.887a30.385,30.385,0,0,1-7.991-1.026,17.461,17.461,0,0,1-6.262-2.968l3.347-6.047a13.8,13.8,0,0,0,4.643,2.4,18.467,18.467,0,0,0,5.615.891q4.374,0,6.452-1.971t2.079-5.967v-1.242q-3.294,3.618-9.179,3.619a15.406,15.406,0,0,1-7.315-1.756,13.36,13.36,0,0,1-5.264-4.939,14.84,14.84,0,0,1,0-14.686,13.375,13.375,0,0,1,5.264-4.939,15.406,15.406,0,0,1,7.315-1.756q6.318,0,9.611,4.158v-3.726ZM708.083,176.4a7.3,7.3,0,0,0,0-10.31,7.753,7.753,0,0,0-5.48-1.971,7.847,7.847,0,0,0-5.507,1.971,7.234,7.234,0,0,0,0,10.31,7.847,7.847,0,0,0,5.507,1.971A7.753,7.753,0,0,0,708.083,176.4Z" style="fill:#fff"/><path d="M755.189,157.641l-13.12,30.828q-2,5.021-4.94,7.074a12.1,12.1,0,0,1-7.1,2.051,14.8,14.8,0,0,1-4.481-.7,9.932,9.932,0,0,1-3.618-1.944l3.078-5.994a7.24,7.24,0,0,0,2.241,1.35,6.975,6.975,0,0,0,2.51.486,4.459,4.459,0,0,0,2.807-.836,7.12,7.12,0,0,0,1.944-2.781l.108-.27-12.58-29.263h8.693l8.152,19.707,8.207-19.707Z" style="fill:#fff"/><path d="M774.516,148.9h17.169a24.125,24.125,0,0,1,10.879,2.349,17.586,17.586,0,0,1,7.343,6.613,20.16,20.16,0,0,1,0,19.87,17.6,17.6,0,0,1-7.343,6.613,24.151,24.151,0,0,1-10.879,2.348H774.516Zm16.738,30.613a12.7,12.7,0,0,0,9.042-3.158,12.538,12.538,0,0,0,0-17.116,12.7,12.7,0,0,0-9.042-3.158h-7.991v23.432Z" style="fill:#fff"/><path d="M830.638,158.289a15.141,15.141,0,0,1,5.912-1.08v7.775q-1.4-.108-1.889-.107a7.721,7.721,0,0,0-5.669,2.023q-2.052,2.025-2.052,6.075v13.713h-8.423V157.641h8.045v3.834A9.359,9.359,0,0,1,830.638,158.289Z" style="fill:#fff"/><path d="M842,152.242a4.572,4.572,0,0,1,0-6.695,5.342,5.342,0,0,1,3.779-1.35,5.474,5.474,0,0,1,3.779,1.3,4.152,4.152,0,0,1,1.457,3.238,4.583,4.583,0,0,1-1.457,3.483,5.919,5.919,0,0,1-7.558.027Zm-.433,5.4h8.423v29.047h-8.423Z" style="fill:#fff"/><path d="M886.652,157.641,874.4,186.688h-8.692l-12.2-29.047H862.2L870.24,177.4l8.314-19.761Z" style="fill:#fff"/><path d="M917.588,174.541H895.615a6.835,6.835,0,0,0,2.807,4.264,9.288,9.288,0,0,0,5.507,1.566,11.179,11.179,0,0,0,4.023-.674,9.767,9.767,0,0,0,3.265-2.133l4.482,4.858q-4.1,4.7-11.986,4.7a18.965,18.965,0,0,1-8.692-1.916,14.042,14.042,0,0,1-5.831-5.318,14.65,14.65,0,0,1-2.052-7.721,14.847,14.847,0,0,1,2.025-7.693,14.172,14.172,0,0,1,5.561-5.344,17.21,17.21,0,0,1,15.63-.082,13.415,13.415,0,0,1,5.426,5.264,15.711,15.711,0,0,1,1.971,7.964Q917.751,172.435,917.588,174.541ZM897.882,165.2a6.908,6.908,0,0,0-2.376,4.428h14.308a6.97,6.97,0,0,0-2.376-4.4,7.1,7.1,0,0,0-4.751-1.647A7.262,7.262,0,0,0,897.882,165.2Z" style="fill:#fff"/><path d="M949.739,160.449q3.321,3.24,3.32,9.61v16.629h-8.422V171.355a7.583,7.583,0,0,0-1.511-5.156,5.541,5.541,0,0,0-4.373-1.7,6.708,6.708,0,0,0-5.076,1.971q-1.89,1.971-1.889,5.857v14.362h-8.423V157.641h8.045v3.4a11.169,11.169,0,0,1,4.157-2.834,14.478,14.478,0,0,1,5.453-1A11.951,11.951,0,0,1,949.739,160.449Z" style="fill:#fff"/><path d="M980.3,186.121a20.325,20.325,0,0,1-6.721-3.158l2.969-6.588a20.111,20.111,0,0,0,5.777,2.863,21.717,21.717,0,0,0,6.694,1.078,10.7,10.7,0,0,0,5.508-1.1,3.343,3.343,0,0,0,1.781-2.943,2.814,2.814,0,0,0-1.052-2.241,8.028,8.028,0,0,0-2.7-1.431q-1.647-.54-4.454-1.188a61.321,61.321,0,0,1-7.073-2.051,11.478,11.478,0,0,1-4.724-3.293,8.89,8.89,0,0,1-1.97-6.046,10.518,10.518,0,0,1,1.781-5.967,11.984,11.984,0,0,1,5.372-4.238,21.936,21.936,0,0,1,8.773-1.565,29.047,29.047,0,0,1,7.073.863,20.986,20.986,0,0,1,6.047,2.483l-2.7,6.64a21.087,21.087,0,0,0-10.473-2.968,9.824,9.824,0,0,0-5.426,1.187,3.626,3.626,0,0,0-1.755,3.133,3.06,3.06,0,0,0,2.024,2.887,31.662,31.662,0,0,0,6.182,1.863,61.6,61.6,0,0,1,7.073,2.053,11.713,11.713,0,0,1,4.724,3.238,8.694,8.694,0,0,1,1.971,5.992,10.324,10.324,0,0,1-1.809,5.912,12.143,12.143,0,0,1-5.426,4.239,22.117,22.117,0,0,1-8.8,1.566A30.879,30.879,0,0,1,980.3,186.121Z" style="fill:#fff"/><path d="M1039.658,157.641v29.047h-7.991v-3.456a11.172,11.172,0,0,1-4,2.889,12.561,12.561,0,0,1-5.02,1q-5.722,0-9.07-3.293t-3.348-9.771V157.641h8.423v15.172q0,7.019,5.885,7.019a6.323,6.323,0,0,0,4.858-1.971q1.836-1.971,1.836-5.859V157.641Z" style="fill:#fff"/><path d="M1050.185,186.229a18.449,18.449,0,0,1-5.507-2.241l2.808-6.047a17.634,17.634,0,0,0,4.7,2.026,19.716,19.716,0,0,0,5.4.783q5.344,0,5.345-2.646a1.872,1.872,0,0,0-1.458-1.782,21.635,21.635,0,0,0-4.481-.918,42.918,42.918,0,0,1-5.885-1.242,9.119,9.119,0,0,1-4.022-2.482,7.068,7.068,0,0,1-1.7-5.076,7.956,7.956,0,0,1,1.593-4.887,10.266,10.266,0,0,1,4.643-3.321,19.843,19.843,0,0,1,7.208-1.187,28.348,28.348,0,0,1,6.128.676,17.137,17.137,0,0,1,5.048,1.861l-2.808,5.994a16.769,16.769,0,0,0-8.368-2.16,8.511,8.511,0,0,0-4.05.756,2.224,2.224,0,0,0-1.35,1.943,1.931,1.931,0,0,0,1.458,1.891,25.9,25.9,0,0,0,4.644,1.025,49.686,49.686,0,0,1,5.83,1.27,8.746,8.746,0,0,1,3.941,2.455,6.969,6.969,0,0,1,1.674,4.967,7.675,7.675,0,0,1-1.619,4.806,10.342,10.342,0,0,1-4.724,3.266,21.077,21.077,0,0,1-7.37,1.16A28.253,28.253,0,0,1,1050.185,186.229Z" style="fill:#fff"/><path d="M1094.888,185.285a8.652,8.652,0,0,1-3.05,1.375,15.376,15.376,0,0,1-3.806.459q-5.182,0-8.018-2.644t-2.834-7.776V164.768H1072.7v-6.479h4.481v-7.072h8.422v7.072h7.235v6.479H1085.6v11.824a3.965,3.965,0,0,0,.945,2.834,3.492,3.492,0,0,0,2.672,1,5.414,5.414,0,0,0,3.4-1.08Z" style="fill:#fff"/><path d="M1121.721,160.422q3.617,3.213,3.617,9.691v16.575h-7.881V183.07q-2.378,4.05-8.855,4.049a13.737,13.737,0,0,1-5.8-1.133,8.644,8.644,0,0,1-3.752-3.131,8.148,8.148,0,0,1-1.3-4.535,7.564,7.564,0,0,1,3.05-6.371q3.051-2.321,9.421-2.322h6.7a5.37,5.37,0,0,0-1.674-4.238,7.378,7.378,0,0,0-5.022-1.485,14.617,14.617,0,0,0-4.561.729,12.052,12.052,0,0,0-3.807,1.971l-3.023-5.885a18.275,18.275,0,0,1,5.7-2.592,25.54,25.54,0,0,1,6.829-.918Q1118.1,157.209,1121.721,160.422Zm-7.18,20.031a5.479,5.479,0,0,0,2.376-2.943v-2.969h-5.778q-5.182,0-5.182,3.4a3.027,3.027,0,0,0,1.268,2.565,5.707,5.707,0,0,0,3.483.945A7.337,7.337,0,0,0,1114.541,180.453Z" style="fill:#fff"/><path d="M1133.382,152.242a4.572,4.572,0,0,1,0-6.695,5.347,5.347,0,0,1,3.78-1.35,5.472,5.472,0,0,1,3.779,1.3,4.153,4.153,0,0,1,1.458,3.238,4.584,4.584,0,0,1-1.458,3.483,5.28,5.28,0,0,1-3.779,1.377A5.339,5.339,0,0,1,1133.382,152.242Zm-.431,5.4h8.422v29.047h-8.422Z" style="fill:#fff"/><path d="M1175.576,160.449q3.321,3.24,3.32,9.61v16.629h-8.423V171.355a7.577,7.577,0,0,0-1.511-5.156,5.542,5.542,0,0,0-4.374-1.7,6.705,6.705,0,0,0-5.075,1.971q-1.889,1.971-1.889,5.857v14.362H1149.2V157.641h8.044v3.4a11.177,11.177,0,0,1,4.157-2.834,14.482,14.482,0,0,1,5.453-1A11.955,11.955,0,0,1,1175.576,160.449Z" style="fill:#fff"/><path d="M1208.59,160.422q3.617,3.213,3.618,9.691v16.575h-7.883V183.07q-2.376,4.05-8.855,4.049a13.735,13.735,0,0,1-5.8-1.133,8.633,8.633,0,0,1-3.752-3.131,8.14,8.14,0,0,1-1.3-4.535,7.564,7.564,0,0,1,3.05-6.371q3.049-2.321,9.421-2.322h6.7a5.37,5.37,0,0,0-1.674-4.238,7.374,7.374,0,0,0-5.021-1.485,14.628,14.628,0,0,0-4.562.729,12.035,12.035,0,0,0-3.806,1.971l-3.023-5.885a18.269,18.269,0,0,1,5.695-2.592,25.553,25.553,0,0,1,6.83-.918Q1204.972,157.209,1208.59,160.422Zm-7.18,20.031a5.473,5.473,0,0,0,2.375-2.943v-2.969h-5.777q-5.184,0-5.183,3.4a3.03,3.03,0,0,0,1.268,2.565,5.709,5.709,0,0,0,3.483.945A7.338,7.338,0,0,0,1201.41,180.453Z" style="fill:#fff"/><path d="M1244.358,159.072a13.4,13.4,0,0,1,5.21,5.237,17.27,17.27,0,0,1,0,15.711,13.388,13.388,0,0,1-5.21,5.238,14.8,14.8,0,0,1-7.37,1.861q-5.993,0-9.124-3.779v3.348h-8.045V146.627h8.423v14.092a11.216,11.216,0,0,1,8.746-3.51A14.8,14.8,0,0,1,1244.358,159.072Zm-3.51,18.951a9.293,9.293,0,0,0,0-11.716,7.562,7.562,0,0,0-10.636,0,9.293,9.293,0,0,0,0,11.716,7.562,7.562,0,0,0,10.636,0Z" style="fill:#fff"/><path d="M1257.072,146.627h8.422v40.061h-8.422Z" style="fill:#fff"/><path d="M1301.613,174.541h-21.974a6.836,6.836,0,0,0,2.808,4.264,9.284,9.284,0,0,0,5.507,1.566,11.177,11.177,0,0,0,4.022-.674,9.781,9.781,0,0,0,3.266-2.133l4.481,4.858q-4.1,4.7-11.985,4.7a18.962,18.962,0,0,1-8.692-1.916,14.044,14.044,0,0,1-5.832-5.318,14.649,14.649,0,0,1-2.051-7.721,14.846,14.846,0,0,1,2.024-7.693,14.175,14.175,0,0,1,5.562-5.344,17.21,17.21,0,0,1,15.63-.082,13.412,13.412,0,0,1,5.425,5.264,15.7,15.7,0,0,1,1.971,7.964Q1301.775,172.435,1301.613,174.541Zm-19.706-9.342a6.9,6.9,0,0,0-2.376,4.428h14.307a6.97,6.97,0,0,0-2.376-4.4,7.1,7.1,0,0,0-4.75-1.647A7.26,7.26,0,0,0,1281.907,165.2Z" style="fill:#fff"/><path d="M1327.014,186.121a20.335,20.335,0,0,1-6.721-3.158l2.969-6.588a20.117,20.117,0,0,0,5.778,2.863,21.708,21.708,0,0,0,6.694,1.078,10.7,10.7,0,0,0,5.507-1.1,3.346,3.346,0,0,0,1.782-2.943,2.815,2.815,0,0,0-1.054-2.241,8,8,0,0,0-2.7-1.431q-1.648-.54-4.454-1.188a61.3,61.3,0,0,1-7.072-2.051,11.482,11.482,0,0,1-4.725-3.293,8.89,8.89,0,0,1-1.971-6.046,10.512,10.512,0,0,1,1.783-5.967,11.978,11.978,0,0,1,5.372-4.238,21.926,21.926,0,0,1,8.773-1.565,29.045,29.045,0,0,1,7.072.863,20.974,20.974,0,0,1,6.047,2.483l-2.7,6.64a21.091,21.091,0,0,0-10.475-2.968,9.822,9.822,0,0,0-5.425,1.187,3.628,3.628,0,0,0-1.755,3.133,3.06,3.06,0,0,0,2.024,2.887,31.653,31.653,0,0,0,6.183,1.863,61.573,61.573,0,0,1,7.072,2.053,11.716,11.716,0,0,1,4.725,3.238,8.693,8.693,0,0,1,1.969,5.992,10.315,10.315,0,0,1-1.808,5.912,12.143,12.143,0,0,1-5.426,4.239,22.114,22.114,0,0,1-8.8,1.566A30.879,30.879,0,0,1,1327.014,186.121Z" style="fill:#fff"/><path d="M1362.7,185.2a14.255,14.255,0,0,1-5.7-5.318,15.558,15.558,0,0,1,0-15.442,14.25,14.25,0,0,1,5.7-5.316,18.571,18.571,0,0,1,16.439,0,14.292,14.292,0,0,1,5.669,5.316,15.552,15.552,0,0,1,0,15.442,14.3,14.3,0,0,1-5.669,5.318,18.588,18.588,0,0,1-16.439,0Zm13.552-7.18a9.3,9.3,0,0,0,0-11.716,7.022,7.022,0,0,0-5.319-2.186,7.105,7.105,0,0,0-5.345,2.186,9.2,9.2,0,0,0,0,11.716,7.105,7.105,0,0,0,5.345,2.186A7.022,7.022,0,0,0,1376.253,178.023Z" style="fill:#fff"/><path d="M1392.476,146.627h8.423v40.061h-8.423Z" style="fill:#fff"/><path d="M1437.99,157.641v29.047H1430v-3.456a11.178,11.178,0,0,1-4,2.889,12.569,12.569,0,0,1-5.021,1q-5.723,0-9.07-3.293t-3.348-9.771V157.641h8.423v15.172q0,7.019,5.885,7.019a6.323,6.323,0,0,0,4.858-1.971q1.836-1.971,1.836-5.859V157.641Z" style="fill:#fff"/><path d="M1464.552,185.285a8.652,8.652,0,0,1-3.05,1.375,15.376,15.376,0,0,1-3.806.459q-5.184,0-8.018-2.644t-2.835-7.776V164.768h-4.48v-6.479h4.48v-7.072h8.423v7.072h7.235v6.479h-7.235v11.824a3.96,3.96,0,0,0,.945,2.834,3.492,3.492,0,0,0,2.672,1,5.418,5.418,0,0,0,3.4-1.08Z" style="fill:#fff"/><path d="M1469.735,152.242a4.572,4.572,0,0,1,0-6.695,5.345,5.345,0,0,1,3.779-1.35,5.475,5.475,0,0,1,3.78,1.3,4.156,4.156,0,0,1,1.458,3.238,4.587,4.587,0,0,1-1.458,3.483,5.283,5.283,0,0,1-3.78,1.377A5.336,5.336,0,0,1,1469.735,152.242Zm-.432,5.4h8.422v29.047H1469.3Z" style="fill:#fff"/><path d="M1491.142,185.2a14.246,14.246,0,0,1-5.7-5.318,15.552,15.552,0,0,1,0-15.442,14.241,14.241,0,0,1,5.7-5.316,18.573,18.573,0,0,1,16.44,0,14.3,14.3,0,0,1,5.669,5.316,15.558,15.558,0,0,1,0,15.442,14.3,14.3,0,0,1-5.669,5.318,18.591,18.591,0,0,1-16.44,0Zm13.552-7.18a9.3,9.3,0,0,0,0-11.716,7.02,7.02,0,0,0-5.318-2.186,7.1,7.1,0,0,0-5.345,2.186,9.2,9.2,0,0,0,0,11.716,7.1,7.1,0,0,0,5.345,2.186A7.02,7.02,0,0,0,1504.694,178.023Z" style="fill:#fff"/><path d="M1547.292,160.449q3.32,3.24,3.32,9.61v16.629h-8.423V171.355a7.572,7.572,0,0,0-1.512-5.156,5.538,5.538,0,0,0-4.373-1.7,6.705,6.705,0,0,0-5.075,1.971q-1.89,1.971-1.89,5.857v14.362h-8.421V157.641h8.044v3.4a11.169,11.169,0,0,1,4.157-2.834,14.478,14.478,0,0,1,5.453-1A11.955,11.955,0,0,1,1547.292,160.449Z" style="fill:#fff"/><path d="M1560.923,186.229a18.442,18.442,0,0,1-5.506-2.241l2.807-6.047a17.648,17.648,0,0,0,4.7,2.026,19.716,19.716,0,0,0,5.4.783q5.345,0,5.346-2.646a1.873,1.873,0,0,0-1.458-1.782,21.662,21.662,0,0,0-4.482-.918,42.918,42.918,0,0,1-5.885-1.242,9.13,9.13,0,0,1-4.022-2.482,7.068,7.068,0,0,1-1.7-5.076,7.949,7.949,0,0,1,1.593-4.887,10.257,10.257,0,0,1,4.642-3.321,19.847,19.847,0,0,1,7.208-1.187,28.348,28.348,0,0,1,6.128.676,17.137,17.137,0,0,1,5.048,1.861l-2.808,5.994a16.764,16.764,0,0,0-8.368-2.16,8.513,8.513,0,0,0-4.05.756,2.223,2.223,0,0,0-1.349,1.943,1.929,1.929,0,0,0,1.458,1.891,25.86,25.86,0,0,0,4.643,1.025,49.64,49.64,0,0,1,5.83,1.27,8.749,8.749,0,0,1,3.942,2.455,6.974,6.974,0,0,1,1.674,4.967,7.67,7.67,0,0,1-1.62,4.806,10.342,10.342,0,0,1-4.724,3.266,21.071,21.071,0,0,1-7.369,1.16A28.261,28.261,0,0,1,1560.923,186.229Z" style="fill:#fff"/></g><g style="isolation:isolate"><path d="M438.424,292.467H427.832v-3.84h25.554v3.84H442.794v27.054h-4.37Z" style="fill:#fff"/><path d="M477.153,298.492q2.625,2.582,2.626,7.569v13.46h-4.237V306.547a7.187,7.187,0,0,0-1.633-5.121,6.146,6.146,0,0,0-4.679-1.721,7.3,7.3,0,0,0-5.429,2.008,7.855,7.855,0,0,0-1.985,5.76v12.048h-4.237V286.773h4.237v12.666a8.764,8.764,0,0,1,3.464-2.6,11.947,11.947,0,0,1,4.789-.926A9.663,9.663,0,0,1,477.153,298.492Z" style="fill:#fff"/><path d="M508.819,309.238H489.841a7.34,7.34,0,0,0,2.714,4.965,8.852,8.852,0,0,0,5.76,1.877,8.673,8.673,0,0,0,6.753-2.826l2.339,2.736a10.229,10.229,0,0,1-3.95,2.826,14.894,14.894,0,0,1-11.851-.552,10.851,10.851,0,0,1-4.435-4.258,12.209,12.209,0,0,1-1.567-6.18,12.406,12.406,0,0,1,1.523-6.135,10.9,10.9,0,0,1,4.193-4.259,11.95,11.95,0,0,1,6.024-1.522,11.717,11.717,0,0,1,5.981,1.522,10.7,10.7,0,0,1,4.1,4.259,12.976,12.976,0,0,1,1.479,6.268A12.1,12.1,0,0,1,508.819,309.238Zm-16.572-7.9a7.475,7.475,0,0,0-2.406,4.855h15.006a7.535,7.535,0,0,0-2.4-4.834,7.9,7.9,0,0,0-10.195-.021Z" style="fill:#fff"/><path d="M530.467,318.242a11.3,11.3,0,0,1-4.391-4.26,12.719,12.719,0,0,1,0-12.312,11.154,11.154,0,0,1,4.391-4.238,13.159,13.159,0,0,1,6.378-1.522,12.244,12.244,0,0,1,5.671,1.279,9.138,9.138,0,0,1,3.863,3.707l-3.222,2.075a7.237,7.237,0,0,0-2.736-2.516,7.807,7.807,0,0,0-3.62-.838,8.356,8.356,0,0,0-4.127,1.016,7.234,7.234,0,0,0-2.869,2.89,8.751,8.751,0,0,0-1.037,4.3,8.84,8.84,0,0,0,1.037,4.348,7.228,7.228,0,0,0,2.869,2.89,8.356,8.356,0,0,0,4.127,1.016,7.784,7.784,0,0,0,3.62-.84,7.194,7.194,0,0,0,2.736-2.515l3.222,2.031a9.264,9.264,0,0,1-3.863,3.728,12.046,12.046,0,0,1-5.671,1.3A13,13,0,0,1,530.467,318.242Z" style="fill:#fff"/><path d="M571.117,298.492q2.625,2.582,2.626,7.569v13.46h-4.238V306.547a7.187,7.187,0,0,0-1.632-5.121,6.146,6.146,0,0,0-4.679-1.721,7.293,7.293,0,0,0-5.429,2.008,7.855,7.855,0,0,0-1.985,5.76v12.048h-4.237V286.773h4.237v12.666a8.764,8.764,0,0,1,3.464-2.6,11.947,11.947,0,0,1,4.789-.926A9.664,9.664,0,0,1,571.117,298.492Z" style="fill:#fff"/><path d="M597.553,298.293q2.583,2.382,2.582,7.105v14.123H596.12v-3.089a6.705,6.705,0,0,1-3.024,2.494,11.534,11.534,0,0,1-4.656.861,9.747,9.747,0,0,1-6.29-1.9,6.524,6.524,0,0,1-.11-9.953q2.252-1.875,7.15-1.875H595.9v-.838a5.4,5.4,0,0,0-1.589-4.194,6.708,6.708,0,0,0-4.679-1.457,12.36,12.36,0,0,0-4.06.686,10.471,10.471,0,0,0-3.355,1.83l-1.765-3.178a12.807,12.807,0,0,1,4.325-2.228,18.132,18.132,0,0,1,5.341-.772Q594.971,295.91,597.553,298.293Zm-4.215,17.146a6.189,6.189,0,0,0,2.561-3.068v-3.266h-6.532q-5.387,0-5.385,3.62a3.275,3.275,0,0,0,1.368,2.781,6.247,6.247,0,0,0,3.8,1.015A7.867,7.867,0,0,0,593.338,315.439Z" style="fill:#fff"/><path d="M607.991,286.773h4.237v32.748h-4.237Z" style="fill:#fff"/><path d="M620.3,286.773h4.238v32.748H620.3Z" style="fill:#fff"/><path d="M653.671,309.238H634.693a7.34,7.34,0,0,0,2.714,4.965,8.852,8.852,0,0,0,5.76,1.877,8.674,8.674,0,0,0,6.753-2.826l2.338,2.736a10.222,10.222,0,0,1-3.95,2.826,14.892,14.892,0,0,1-11.85-.552,10.86,10.86,0,0,1-4.436-4.258,12.209,12.209,0,0,1-1.566-6.18,12.405,12.405,0,0,1,1.522-6.135,10.909,10.909,0,0,1,4.193-4.259,11.957,11.957,0,0,1,6.025-1.522,11.716,11.716,0,0,1,5.98,1.522,10.7,10.7,0,0,1,4.1,4.259,12.987,12.987,0,0,1,1.478,6.268A12.333,12.333,0,0,1,653.671,309.238Zm-16.573-7.9a7.47,7.47,0,0,0-2.4,4.855H649.7a7.54,7.54,0,0,0-2.4-4.834,7.9,7.9,0,0,0-10.2-.021Z" style="fill:#fff"/><path d="M679.2,298.492q2.626,2.582,2.626,7.569v13.46h-4.237V306.547a7.187,7.187,0,0,0-1.633-5.121,6.144,6.144,0,0,0-4.678-1.721,7.293,7.293,0,0,0-5.429,2.008,7.851,7.851,0,0,0-1.986,5.76v12.048h-4.237v-23.39h4.06v3.529a8.241,8.241,0,0,1,3.465-2.779,12.113,12.113,0,0,1,4.966-.971A9.664,9.664,0,0,1,679.2,298.492Z" style="fill:#fff"/><path d="M712.194,296.131v20.213q0,6.135-3.045,9.07t-9.092,2.936a21.715,21.715,0,0,1-6.311-.907,12.483,12.483,0,0,1-4.856-2.58l2.031-3.267a11.947,11.947,0,0,0,4.039,2.228,15.311,15.311,0,0,0,4.964.819q4.105,0,6.069-1.944t1.964-5.914v-1.853a9.368,9.368,0,0,1-3.685,2.714,12.269,12.269,0,0,1-4.745.9,12.8,12.8,0,0,1-6.068-1.434A10.663,10.663,0,0,1,689.2,313.1a12.007,12.007,0,0,1,0-11.784,10.521,10.521,0,0,1,4.259-3.994,12.951,12.951,0,0,1,6.068-1.412,12.4,12.4,0,0,1,4.921.971,9.112,9.112,0,0,1,3.729,2.869v-3.619Zm-8.055,17.742a7.182,7.182,0,0,0,2.869-2.715,7.577,7.577,0,0,0,1.038-3.949,7.161,7.161,0,0,0-2.251-5.5,9.084,9.084,0,0,0-11.608,0,7.161,7.161,0,0,0-2.251,5.5,7.577,7.577,0,0,0,1.037,3.949,7.175,7.175,0,0,0,2.869,2.715,8.767,8.767,0,0,0,4.17.971A8.672,8.672,0,0,0,704.139,313.873Z" style="fill:#fff"/><path d="M741.323,309.238H722.344a7.341,7.341,0,0,0,2.715,4.965,8.847,8.847,0,0,0,5.759,1.877,8.67,8.67,0,0,0,6.753-2.826l2.34,2.736a10.237,10.237,0,0,1-3.95,2.826,14.894,14.894,0,0,1-11.851-.552,10.86,10.86,0,0,1-4.436-4.258,12.209,12.209,0,0,1-1.567-6.18,12.406,12.406,0,0,1,1.523-6.135,10.909,10.909,0,0,1,4.193-4.259,11.953,11.953,0,0,1,6.024-1.522,11.714,11.714,0,0,1,5.981,1.522,10.7,10.7,0,0,1,4.1,4.259,12.976,12.976,0,0,1,1.479,6.268A12.333,12.333,0,0,1,741.323,309.238Zm-16.573-7.9a7.475,7.475,0,0,0-2.406,4.855H737.35a7.531,7.531,0,0,0-2.4-4.834,7.9,7.9,0,0,0-10.2-.021Z" style="fill:#fff"/><path d="M794.55,296.131l-8.739,23.39h-4.06L775,301.779l-6.841,17.742H764.1l-8.694-23.39h4.017l6.8,18.625,7.062-18.625h3.575l6.929,18.713,6.973-18.713Z" style="fill:#fff"/><path d="M798.9,290.834a2.6,2.6,0,0,1-.816-1.941,2.676,2.676,0,0,1,.816-1.965,2.787,2.787,0,0,1,2.052-.817,2.869,2.869,0,0,1,2.053.774,2.532,2.532,0,0,1,.816,1.92,2.733,2.733,0,0,1-.816,2.008,2.788,2.788,0,0,1-2.053.816A2.826,2.826,0,0,1,798.9,290.834Zm-.066,5.3h4.237v23.39h-4.237Z" style="fill:#fff"/><path d="M811.143,286.773h4.237v32.748h-4.237Z" style="fill:#fff"/><path d="M823.457,286.773h4.237v32.748h-4.237Z" style="fill:#fff"/><path d="M869.711,286.773v32.748H865.65v-3.707a9.162,9.162,0,0,1-3.574,2.957,11.065,11.065,0,0,1-4.767,1.016,12.3,12.3,0,0,1-6.091-1.5A10.735,10.735,0,0,1,847,314.07a13.508,13.508,0,0,1,0-12.466,10.782,10.782,0,0,1,4.214-4.194,12.3,12.3,0,0,1,6.091-1.5,11.215,11.215,0,0,1,4.634.949,9.018,9.018,0,0,1,3.531,2.8V286.773Zm-8.033,28.27a7.272,7.272,0,0,0,2.825-2.914,9.629,9.629,0,0,0,0-8.606,7.13,7.13,0,0,0-2.825-2.89,8.489,8.489,0,0,0-8.054,0,7.319,7.319,0,0,0-2.826,2.89,9.446,9.446,0,0,0,0,8.606,7.468,7.468,0,0,0,2.826,2.914,8.338,8.338,0,0,0,8.054,0Z" style="fill:#fff"/><path d="M898.8,309.238H879.817a7.341,7.341,0,0,0,2.715,4.965,8.847,8.847,0,0,0,5.759,1.877,8.672,8.672,0,0,0,6.753-2.826l2.339,2.736a10.229,10.229,0,0,1-3.95,2.826,14.892,14.892,0,0,1-11.85-.552,10.86,10.86,0,0,1-4.436-4.258,12.209,12.209,0,0,1-1.567-6.18,12.4,12.4,0,0,1,1.523-6.135,10.9,10.9,0,0,1,4.193-4.259,11.953,11.953,0,0,1,6.024-1.522,11.713,11.713,0,0,1,5.98,1.522,10.7,10.7,0,0,1,4.105,4.259,12.987,12.987,0,0,1,1.478,6.268A12.286,12.286,0,0,1,898.8,309.238Zm-16.574-7.9a7.474,7.474,0,0,0-2.4,4.855h15.006a7.535,7.535,0,0,0-2.4-4.834,7.9,7.9,0,0,0-10.2-.021Z" style="fill:#fff"/><path d="M925.012,296.131l-10.239,23.39h-4.325l-10.24-23.39h4.414l8.032,18.758,8.209-18.758Z" style="fill:#fff"/><path d="M929.05,290.834a2.6,2.6,0,0,1-.816-1.941,2.676,2.676,0,0,1,.816-1.965,2.787,2.787,0,0,1,2.052-.817,2.869,2.869,0,0,1,2.053.774,2.532,2.532,0,0,1,.816,1.92,2.733,2.733,0,0,1-.816,2.008,2.788,2.788,0,0,1-2.053.816A2.826,2.826,0,0,1,929.05,290.834Zm-.066,5.3h4.237v23.39h-4.237Z" style="fill:#fff"/><path d="M942.489,319.014a12.08,12.08,0,0,1-4.149-1.963l1.766-3.356a12.606,12.606,0,0,0,3.751,1.766,15.453,15.453,0,0,0,4.458.662q5.561,0,5.561-3.178a2.056,2.056,0,0,0-.75-1.675,4.75,4.75,0,0,0-1.876-.907c-.75-.189-1.817-.4-3.2-.638a31.361,31.361,0,0,1-4.612-1.016,7.107,7.107,0,0,1-3.067-1.941,5.4,5.4,0,0,1-1.281-3.84,6,6,0,0,1,2.649-5.1,11.851,11.851,0,0,1,7.105-1.92,19.706,19.706,0,0,1,4.679.572,12.629,12.629,0,0,1,3.84,1.545l-1.81,3.356a12.159,12.159,0,0,0-6.753-1.854,7.787,7.787,0,0,0-4.1.883,2.66,2.66,0,0,0-1.412,2.338,2.231,2.231,0,0,0,.794,1.811,5.015,5.015,0,0,0,1.964.97q1.168.307,3.288.7a36.136,36.136,0,0,1,4.568,1.037,6.861,6.861,0,0,1,2.98,1.877,5.231,5.231,0,0,1,1.235,3.707,5.842,5.842,0,0,1-2.714,5.053,12.809,12.809,0,0,1-7.393,1.877A19.6,19.6,0,0,1,942.489,319.014Z" style="fill:#fff"/><path d="M984.462,309.238H965.483A7.341,7.341,0,0,0,968.2,314.2a8.847,8.847,0,0,0,5.759,1.877,8.67,8.67,0,0,0,6.753-2.826l2.339,2.736a10.229,10.229,0,0,1-3.95,2.826,14.892,14.892,0,0,1-11.85-.552,10.86,10.86,0,0,1-4.436-4.258,12.209,12.209,0,0,1-1.567-6.18,12.406,12.406,0,0,1,1.523-6.135,10.9,10.9,0,0,1,4.193-4.259,11.953,11.953,0,0,1,6.024-1.522,11.713,11.713,0,0,1,5.98,1.522,10.7,10.7,0,0,1,4.105,4.259,12.987,12.987,0,0,1,1.478,6.268A12.286,12.286,0,0,1,984.462,309.238Zm-16.574-7.9a7.474,7.474,0,0,0-2.405,4.855h15.006a7.531,7.531,0,0,0-2.405-4.834,7.9,7.9,0,0,0-10.2-.021Z" style="fill:#fff"/><path d="M1002.358,290.834a2.6,2.6,0,0,1-.816-1.941,2.676,2.676,0,0,1,.816-1.965,2.789,2.789,0,0,1,2.053-.817,2.863,2.863,0,0,1,2.051.774,2.529,2.529,0,0,1,.817,1.92,2.73,2.73,0,0,1-.817,2.008,2.782,2.782,0,0,1-2.051.816A2.828,2.828,0,0,1,1002.358,290.834Zm-.066,5.3h4.237v23.39h-4.237Z" style="fill:#fff"/><path d="M1034.179,298.492q2.626,2.582,2.626,7.569v13.46h-4.236V306.547a7.183,7.183,0,0,0-1.634-5.121,6.142,6.142,0,0,0-4.678-1.721,7.291,7.291,0,0,0-5.428,2.008,7.847,7.847,0,0,0-1.987,5.76v12.048h-4.237v-23.39h4.061v3.529a8.232,8.232,0,0,1,3.464-2.779,12.116,12.116,0,0,1,4.966-.971A9.662,9.662,0,0,1,1034.179,298.492Z" style="fill:#fff"/><path d="M1064.236,298.492q2.625,2.582,2.626,7.569v13.46h-4.237V306.547a7.187,7.187,0,0,0-1.633-5.121,6.146,6.146,0,0,0-4.679-1.721,7.3,7.3,0,0,0-5.429,2.008,7.855,7.855,0,0,0-1.985,5.76v12.048h-4.237v-23.39h4.06v3.529a8.229,8.229,0,0,1,3.465-2.779,12.108,12.108,0,0,1,4.965-.971A9.663,9.663,0,0,1,1064.236,298.492Z" style="fill:#fff"/><path d="M1078.6,318.242a11.182,11.182,0,0,1-4.347-4.26,12.876,12.876,0,0,1,0-12.312,11.033,11.033,0,0,1,4.347-4.238,13.62,13.62,0,0,1,12.513,0,11.089,11.089,0,0,1,4.325,4.238,12.883,12.883,0,0,1,0,12.312,11.24,11.24,0,0,1-4.325,4.26,13.44,13.44,0,0,1-12.513,0Zm10.306-3.2a7.325,7.325,0,0,0,2.8-2.914,9.637,9.637,0,0,0,0-8.606,7.18,7.18,0,0,0-2.8-2.89,8.534,8.534,0,0,0-8.077,0,7.31,7.31,0,0,0-2.825,2.89,9.446,9.446,0,0,0,0,8.606,7.459,7.459,0,0,0,2.825,2.914,8.382,8.382,0,0,0,8.077,0Z" style="fill:#fff"/><path d="M1122.913,296.131l-10.24,23.39h-4.325l-10.239-23.39h4.413l8.033,18.758,8.209-18.758Z" style="fill:#fff"/><path d="M1142.089,298.293q2.582,2.382,2.582,7.105v14.123h-4.016v-3.089a6.7,6.7,0,0,1-3.024,2.494,11.531,11.531,0,0,1-4.656.861,9.742,9.742,0,0,1-6.289-1.9,6.524,6.524,0,0,1-.11-9.953q2.251-1.875,7.149-1.875h6.709v-.838a5.4,5.4,0,0,0-1.589-4.194,6.706,6.706,0,0,0-4.678-1.457,12.366,12.366,0,0,0-4.061.686,10.449,10.449,0,0,0-3.353,1.83l-1.766-3.178a12.807,12.807,0,0,1,4.325-2.228,18.128,18.128,0,0,1,5.341-.772Q1139.507,295.91,1142.089,298.293Zm-4.214,17.146a6.191,6.191,0,0,0,2.559-3.068v-3.266H1133.9q-5.385,0-5.385,3.62a3.273,3.273,0,0,0,1.369,2.781,6.243,6.243,0,0,0,3.8,1.015A7.877,7.877,0,0,0,1137.875,315.439Z" style="fill:#fff"/><path d="M1165.679,318.154a6.3,6.3,0,0,1-2.3,1.213,9.6,9.6,0,0,1-2.824.42,7.5,7.5,0,0,1-5.473-1.9,7.248,7.248,0,0,1-1.942-5.428V299.617h-3.972v-3.486h3.972V291.01h4.237v5.121h6.708v3.486h-6.708v12.666a4.105,4.105,0,0,0,.95,2.914,3.533,3.533,0,0,0,2.714,1.014,5.111,5.111,0,0,0,3.31-1.1Z" style="fill:#fff"/><path d="M1170.865,290.834a2.6,2.6,0,0,1-.817-1.941,2.677,2.677,0,0,1,.817-1.965,2.786,2.786,0,0,1,2.052-.817,2.867,2.867,0,0,1,2.052.774,2.533,2.533,0,0,1,.817,1.92,2.734,2.734,0,0,1-.817,2.008,2.786,2.786,0,0,1-2.052.816A2.824,2.824,0,0,1,1170.865,290.834Zm-.067,5.3h4.238v23.39H1170.8Z" style="fill:#fff"/><path d="M1203.811,296.131l-10.239,23.39h-4.325l-10.24-23.39h4.414l8.033,18.758,8.209-18.758Z" style="fill:#fff"/><path d="M1228.173,309.238H1209.2a7.34,7.34,0,0,0,2.714,4.965,8.852,8.852,0,0,0,5.76,1.877,8.672,8.672,0,0,0,6.752-2.826l2.339,2.736a10.222,10.222,0,0,1-3.95,2.826,14.892,14.892,0,0,1-11.85-.552,10.854,10.854,0,0,1-4.436-4.258,12.209,12.209,0,0,1-1.566-6.18,12.405,12.405,0,0,1,1.522-6.135,10.909,10.909,0,0,1,4.193-4.259,11.954,11.954,0,0,1,6.025-1.522,11.716,11.716,0,0,1,5.98,1.522,10.708,10.708,0,0,1,4.105,4.259,12.987,12.987,0,0,1,1.478,6.268A12.1,12.1,0,0,1,1228.173,309.238Zm-16.572-7.9a7.47,7.47,0,0,0-2.405,4.855H1224.2a7.537,7.537,0,0,0-2.406-4.834,7.9,7.9,0,0,0-10.195-.021Z" style="fill:#fff"/><path d="M1259.157,318.154a6.317,6.317,0,0,1-2.295,1.213,9.606,9.606,0,0,1-2.825.42,7.5,7.5,0,0,1-5.473-1.9,7.244,7.244,0,0,1-1.941-5.428V299.617h-3.973v-3.486h3.973V291.01h4.236v5.121h6.709v3.486h-6.709v12.666a4.109,4.109,0,0,0,.949,2.914,3.537,3.537,0,0,0,2.715,1.014,5.109,5.109,0,0,0,3.31-1.1Z" style="fill:#fff"/><path d="M1284.535,309.238h-18.979a7.341,7.341,0,0,0,2.715,4.965,8.847,8.847,0,0,0,5.759,1.877,8.67,8.67,0,0,0,6.753-2.826l2.34,2.736a10.233,10.233,0,0,1-3.951,2.826,14.892,14.892,0,0,1-11.85-.552,10.86,10.86,0,0,1-4.436-4.258,12.209,12.209,0,0,1-1.567-6.18,12.406,12.406,0,0,1,1.523-6.135,10.9,10.9,0,0,1,4.193-4.259,11.953,11.953,0,0,1,6.024-1.522,11.714,11.714,0,0,1,5.981,1.522,10.7,10.7,0,0,1,4.1,4.259,12.988,12.988,0,0,1,1.479,6.268A12.333,12.333,0,0,1,1284.535,309.238Zm-16.573-7.9a7.475,7.475,0,0,0-2.406,4.855h15.006a7.531,7.531,0,0,0-2.4-4.834,7.9,7.9,0,0,0-10.195-.021Z" style="fill:#fff"/><path d="M1294.31,318.242a11.3,11.3,0,0,1-4.391-4.26,12.719,12.719,0,0,1,0-12.312,11.154,11.154,0,0,1,4.391-4.238,13.153,13.153,0,0,1,6.378-1.522,12.244,12.244,0,0,1,5.671,1.279,9.129,9.129,0,0,1,3.862,3.707L1307,302.971a7.24,7.24,0,0,0-2.737-2.516,7.806,7.806,0,0,0-3.619-.838,8.356,8.356,0,0,0-4.127,1.016,7.228,7.228,0,0,0-2.869,2.89,8.751,8.751,0,0,0-1.037,4.3,8.84,8.84,0,0,0,1.037,4.348,7.222,7.222,0,0,0,2.869,2.89,8.356,8.356,0,0,0,4.127,1.016,7.783,7.783,0,0,0,3.619-.84,7.2,7.2,0,0,0,2.737-2.515l3.221,2.031a9.255,9.255,0,0,1-3.862,3.728,12.046,12.046,0,0,1-5.671,1.3A13,13,0,0,1,1294.31,318.242Z" style="fill:#fff"/><path d="M1334.96,298.492q2.626,2.582,2.626,7.569v13.46h-4.237V306.547a7.183,7.183,0,0,0-1.634-5.121,6.14,6.14,0,0,0-4.677-1.721,7.293,7.293,0,0,0-5.429,2.008,7.851,7.851,0,0,0-1.986,5.76v12.048h-4.238V286.773h4.238v12.666a8.757,8.757,0,0,1,3.464-2.6,11.952,11.952,0,0,1,4.79-.926A9.664,9.664,0,0,1,1334.96,298.492Z" style="fill:#fff"/><path d="M1365.016,298.492q2.625,2.582,2.626,7.569v13.46h-4.237V306.547a7.187,7.187,0,0,0-1.633-5.121,6.144,6.144,0,0,0-4.679-1.721,7.291,7.291,0,0,0-5.428,2.008,7.851,7.851,0,0,0-1.986,5.76v12.048h-4.237v-23.39h4.061v3.529a8.22,8.22,0,0,1,3.464-2.779,12.111,12.111,0,0,1,4.965-.971A9.663,9.663,0,0,1,1365.016,298.492Z" style="fill:#fff"/><path d="M1379.381,318.242a11.189,11.189,0,0,1-4.347-4.26,12.876,12.876,0,0,1,0-12.312,11.04,11.04,0,0,1,4.347-4.238,13.62,13.62,0,0,1,12.513,0,11.089,11.089,0,0,1,4.325,4.238,12.876,12.876,0,0,1,0,12.312,11.24,11.24,0,0,1-4.325,4.26,13.44,13.44,0,0,1-12.513,0Zm10.306-3.2a7.318,7.318,0,0,0,2.8-2.914,9.637,9.637,0,0,0,0-8.606,7.173,7.173,0,0,0-2.8-2.89,8.534,8.534,0,0,0-8.077,0,7.307,7.307,0,0,0-2.824,2.89,9.446,9.446,0,0,0,0,8.606,7.456,7.456,0,0,0,2.824,2.914,8.382,8.382,0,0,0,8.077,0Z" style="fill:#fff"/><path d="M1403.656,286.773h4.237v32.748h-4.237Z" style="fill:#fff"/><path d="M1419.721,318.242a11.182,11.182,0,0,1-4.347-4.26,12.868,12.868,0,0,1,0-12.312,11.033,11.033,0,0,1,4.347-4.238,13.618,13.618,0,0,1,12.512,0,11.082,11.082,0,0,1,4.325,4.238,12.868,12.868,0,0,1,0,12.312,11.233,11.233,0,0,1-4.325,4.26,13.438,13.438,0,0,1-12.512,0Zm10.305-3.2a7.312,7.312,0,0,0,2.8-2.914,9.629,9.629,0,0,0,0-8.606,7.167,7.167,0,0,0-2.8-2.89,8.532,8.532,0,0,0-8.076,0,7.31,7.31,0,0,0-2.825,2.89,9.438,9.438,0,0,0,0,8.606,7.459,7.459,0,0,0,2.825,2.914,8.38,8.38,0,0,0,8.076,0Z" style="fill:#fff"/><path d="M1466.372,296.131v20.213q0,6.135-3.046,9.07t-9.092,2.936a21.726,21.726,0,0,1-6.312-.907,12.467,12.467,0,0,1-4.854-2.58l2.03-3.267a11.962,11.962,0,0,0,4.038,2.228,15.332,15.332,0,0,0,4.966.819q4.1,0,6.069-1.944t1.963-5.914v-1.853a9.368,9.368,0,0,1-3.685,2.714,12.26,12.26,0,0,1-4.744.9,12.8,12.8,0,0,1-6.069-1.434,10.676,10.676,0,0,1-4.259-4.017,12.007,12.007,0,0,1,0-11.784,10.533,10.533,0,0,1,4.259-3.994,12.955,12.955,0,0,1,6.069-1.412,12.4,12.4,0,0,1,4.921.971,9.125,9.125,0,0,1,3.729,2.869v-3.619Zm-8.055,17.742a7.173,7.173,0,0,0,2.868-2.715,7.567,7.567,0,0,0,1.037-3.949,7.161,7.161,0,0,0-2.251-5.5,9.082,9.082,0,0,0-11.607,0,7.164,7.164,0,0,0-2.251,5.5,7.577,7.577,0,0,0,1.037,3.949,7.169,7.169,0,0,0,2.869,2.715,9.349,9.349,0,0,0,8.3,0Z" style="fill:#fff"/><path d="M1495.147,296.131l-11.343,25.73a11.61,11.61,0,0,1-3.508,5.032,8.02,8.02,0,0,1-4.834,1.457,10.242,10.242,0,0,1-3.332-.553,6.815,6.815,0,0,1-2.669-1.611l1.809-3.178a5.9,5.9,0,0,0,4.192,1.722,4.055,4.055,0,0,0,2.583-.816,6.978,6.978,0,0,0,1.876-2.8l.75-1.632-10.328-23.348h4.413l8.165,18.713L1491,296.131Z" style="fill:#fff"/><path d="M1497.046,305.574h11.872v3.664h-11.872Z" style="fill:#fff"/></g><g style="isolation:isolate"><path d="M453.739,339.736v32.748h-4.061v-3.707a9.164,9.164,0,0,1-3.574,2.957,11.076,11.076,0,0,1-4.767,1.015,12.293,12.293,0,0,1-6.09-1.5,10.741,10.741,0,0,1-4.215-4.216,13.512,13.512,0,0,1,0-12.468,10.8,10.8,0,0,1,4.215-4.193,12.3,12.3,0,0,1,6.09-1.5,11.2,11.2,0,0,1,4.634.949,9.022,9.022,0,0,1,3.532,2.8V339.736Zm-8.032,28.269a7.28,7.28,0,0,0,2.824-2.913,9.631,9.631,0,0,0,0-8.607,7.127,7.127,0,0,0-2.824-2.89,8.491,8.491,0,0,0-8.055,0,7.316,7.316,0,0,0-2.825,2.89,9.448,9.448,0,0,0,0,8.607,7.476,7.476,0,0,0,2.825,2.913,8.339,8.339,0,0,0,8.055,0Z" style="fill:#fff"/><path d="M469.1,349.932a11.844,11.844,0,0,1,5.252-1.06v4.1a8.158,8.158,0,0,0-.971-.044,7.132,7.132,0,0,0-5.407,2.051,8.131,8.131,0,0,0-1.964,5.849v11.651h-4.237V349.093h4.061v3.928A7.226,7.226,0,0,1,469.1,349.932Z" style="fill:#fff"/><path d="M479.625,343.8a2.6,2.6,0,0,1-.817-1.942,2.676,2.676,0,0,1,.817-1.963,2.781,2.781,0,0,1,2.051-.817,2.871,2.871,0,0,1,2.053.773,2.534,2.534,0,0,1,.817,1.92,2.729,2.729,0,0,1-.817,2.007,2.783,2.783,0,0,1-2.053.817A2.819,2.819,0,0,1,479.625,343.8Zm-.067,5.3H483.8v23.391h-4.238Z" style="fill:#fff"/><path d="M512.571,349.093l-10.239,23.391h-4.326l-10.24-23.391h4.414l8.032,18.758,8.209-18.758Z" style="fill:#fff"/><path d="M536.933,362.2H517.955a7.34,7.34,0,0,0,2.715,4.965,8.848,8.848,0,0,0,5.758,1.876,8.673,8.673,0,0,0,6.753-2.825l2.34,2.736a10.237,10.237,0,0,1-3.95,2.825,14.9,14.9,0,0,1-11.851-.551,10.859,10.859,0,0,1-4.435-4.259,12.207,12.207,0,0,1-1.568-6.18,12.4,12.4,0,0,1,1.524-6.135,10.9,10.9,0,0,1,4.192-4.258,11.945,11.945,0,0,1,6.025-1.523,11.7,11.7,0,0,1,5.98,1.523,10.712,10.712,0,0,1,4.105,4.258,12.99,12.99,0,0,1,1.478,6.268A12.091,12.091,0,0,1,536.933,362.2Zm-16.573-7.9a7.47,7.47,0,0,0-2.4,4.854h15.006a7.532,7.532,0,0,0-2.406-4.833,7.9,7.9,0,0,0-10.195-.021Z" style="fill:#fff"/><path d="M562.465,351.454q2.626,2.582,2.626,7.569v13.461h-4.236V359.509a7.179,7.179,0,0,0-1.634-5.12,6.138,6.138,0,0,0-4.677-1.721,7.29,7.29,0,0,0-5.429,2.008,7.848,7.848,0,0,0-1.986,5.76v12.048h-4.238V349.093h4.061v3.53a8.237,8.237,0,0,1,3.465-2.78,12.111,12.111,0,0,1,4.965-.971A9.662,9.662,0,0,1,562.465,351.454Z" style="fill:#fff"/><path d="M586.011,371.977a12.1,12.1,0,0,1-4.148-1.964l1.766-3.355a12.636,12.636,0,0,0,3.75,1.766,15.458,15.458,0,0,0,4.458.662q5.562,0,5.561-3.178a2.06,2.06,0,0,0-.75-1.677,4.762,4.762,0,0,0-1.876-.9q-1.125-.285-3.2-.639a31.2,31.2,0,0,1-4.612-1.016,7.094,7.094,0,0,1-3.068-1.942,5.4,5.4,0,0,1-1.28-3.839,6,6,0,0,1,2.648-5.1,11.861,11.861,0,0,1,7.106-1.92,19.611,19.611,0,0,1,4.679.573,12.633,12.633,0,0,1,3.839,1.545l-1.809,3.355a12.168,12.168,0,0,0-6.753-1.854,7.8,7.8,0,0,0-4.105.883,2.663,2.663,0,0,0-1.412,2.339,2.229,2.229,0,0,0,.794,1.809,5.009,5.009,0,0,0,1.964.971q1.168.309,3.288.706a35.982,35.982,0,0,1,4.569,1.037,6.832,6.832,0,0,1,2.979,1.876,5.231,5.231,0,0,1,1.235,3.708,5.844,5.844,0,0,1-2.714,5.053,12.814,12.814,0,0,1-7.392,1.876A19.644,19.644,0,0,1,586.011,371.977Z" style="fill:#fff"/><path d="M610.683,371.2a11.18,11.18,0,0,1-4.347-4.259,12.87,12.87,0,0,1,0-12.313,11.031,11.031,0,0,1,4.347-4.237,13.61,13.61,0,0,1,12.512,0,11.086,11.086,0,0,1,4.325,4.237,12.877,12.877,0,0,1,0,12.313A11.238,11.238,0,0,1,623.2,371.2a13.438,13.438,0,0,1-12.512,0Zm10.305-3.2a7.322,7.322,0,0,0,2.8-2.913,9.631,9.631,0,0,0,0-8.607,7.167,7.167,0,0,0-2.8-2.89,8.532,8.532,0,0,0-8.076,0,7.31,7.31,0,0,0-2.825,2.89,9.44,9.44,0,0,0,0,8.607,7.47,7.47,0,0,0,2.825,2.913,8.38,8.38,0,0,0,8.076,0Z" style="fill:#fff"/><path d="M634.957,339.736h4.237v32.748h-4.237Z" style="fill:#fff"/><path d="M669.074,349.093v23.391h-4.017v-3.531a8.512,8.512,0,0,1-3.376,2.8,10.538,10.538,0,0,1-4.568.993,10.2,10.2,0,0,1-7.371-2.582q-2.692-2.581-2.693-7.613V349.093h4.238v12.975a7.261,7.261,0,0,0,1.633,5.142,6.094,6.094,0,0,0,4.678,1.743,6.981,6.981,0,0,0,5.3-2.03,7.967,7.967,0,0,0,1.943-5.737V349.093Z" style="fill:#fff"/><path d="M690.3,371.116a6.294,6.294,0,0,1-2.3,1.214,9.6,9.6,0,0,1-2.824.419,7.5,7.5,0,0,1-5.472-1.9,7.247,7.247,0,0,1-1.943-5.429V352.579H673.8v-3.486h3.971v-5.12H682v5.12h6.708v3.486H682v12.667a4.1,4.1,0,0,0,.95,2.913,3.531,3.531,0,0,0,2.714,1.015,5.106,5.106,0,0,0,3.31-1.1Z" style="fill:#fff"/><path d="M695.487,343.8a2.6,2.6,0,0,1-.816-1.942,2.675,2.675,0,0,1,.816-1.963,2.784,2.784,0,0,1,2.053-.817,2.868,2.868,0,0,1,2.051.773,2.531,2.531,0,0,1,.817,1.92,2.725,2.725,0,0,1-.817,2.007,2.78,2.78,0,0,1-2.051.817A2.822,2.822,0,0,1,695.487,343.8Zm-.066,5.3h4.237v23.391h-4.237Z" style="fill:#fff"/><path d="M711.486,371.2a11.189,11.189,0,0,1-4.348-4.259,12.885,12.885,0,0,1,0-12.313,11.04,11.04,0,0,1,4.348-4.237,13.612,13.612,0,0,1,12.513,0,11.093,11.093,0,0,1,4.325,4.237,12.885,12.885,0,0,1,0,12.313A11.244,11.244,0,0,1,724,371.2a13.44,13.44,0,0,1-12.513,0Zm10.306-3.2a7.326,7.326,0,0,0,2.8-2.913,9.631,9.631,0,0,0,0-8.607,7.171,7.171,0,0,0-2.8-2.89,8.536,8.536,0,0,0-8.078,0,7.314,7.314,0,0,0-2.824,2.89,9.448,9.448,0,0,0,0,8.607,7.474,7.474,0,0,0,2.824,2.913,8.384,8.384,0,0,0,8.078,0Z" style="fill:#fff"/><path d="M755.335,351.454q2.625,2.582,2.626,7.569v13.461h-4.238V359.509a7.183,7.183,0,0,0-1.633-5.12,6.138,6.138,0,0,0-4.678-1.721,7.29,7.29,0,0,0-5.429,2.008,7.852,7.852,0,0,0-1.985,5.76v12.048H735.76V349.093h4.061v3.53a8.225,8.225,0,0,1,3.465-2.78,12.108,12.108,0,0,1,4.965-.971A9.664,9.664,0,0,1,755.335,351.454Z" style="fill:#fff"/><path d="M767.008,371.977a12.107,12.107,0,0,1-4.149-1.964l1.766-3.355a12.649,12.649,0,0,0,3.752,1.766,15.442,15.442,0,0,0,4.457.662q5.562,0,5.561-3.178a2.06,2.06,0,0,0-.75-1.677,4.768,4.768,0,0,0-1.876-.9q-1.125-.285-3.2-.639a31.261,31.261,0,0,1-4.612-1.016,7.1,7.1,0,0,1-3.068-1.942,5.4,5.4,0,0,1-1.279-3.839,6,6,0,0,1,2.647-5.1,11.863,11.863,0,0,1,7.107-1.92,19.609,19.609,0,0,1,4.678.573,12.623,12.623,0,0,1,3.839,1.545l-1.809,3.355a12.164,12.164,0,0,0-6.752-1.854,7.8,7.8,0,0,0-4.106.883,2.665,2.665,0,0,0-1.412,2.339,2.226,2.226,0,0,0,.795,1.809,5,5,0,0,0,1.964.971q1.168.309,3.288.706a35.982,35.982,0,0,1,4.569,1.037,6.835,6.835,0,0,1,2.978,1.876,5.231,5.231,0,0,1,1.236,3.708,5.846,5.846,0,0,1-2.714,5.053,12.819,12.819,0,0,1-7.393,1.876A19.637,19.637,0,0,1,767.008,371.977Z" style="fill:#fff"/><path d="M812.953,371.116a6.318,6.318,0,0,1-2.295,1.214,9.6,9.6,0,0,1-2.825.419,7.5,7.5,0,0,1-5.473-1.9,7.246,7.246,0,0,1-1.941-5.429V352.579h-3.973v-3.486h3.973v-5.12h4.236v5.12h6.709v3.486h-6.709v12.667a4.107,4.107,0,0,0,.949,2.913,3.534,3.534,0,0,0,2.715,1.015,5.106,5.106,0,0,0,3.31-1.1Z" style="fill:#fff"/><path d="M821.03,371.2a11.183,11.183,0,0,1-4.348-4.259,12.877,12.877,0,0,1,0-12.313,11.034,11.034,0,0,1,4.348-4.237,13.61,13.61,0,0,1,12.512,0,11.093,11.093,0,0,1,4.325,4.237,12.877,12.877,0,0,1,0,12.313,11.244,11.244,0,0,1-4.325,4.259,13.438,13.438,0,0,1-12.512,0Zm10.305-3.2a7.313,7.313,0,0,0,2.8-2.913,9.622,9.622,0,0,0,0-8.607,7.158,7.158,0,0,0-2.8-2.89,8.534,8.534,0,0,0-8.077,0,7.323,7.323,0,0,0-2.825,2.89,9.448,9.448,0,0,0,0,8.607,7.483,7.483,0,0,0,2.825,2.913,8.382,8.382,0,0,0,8.077,0Z" style="fill:#fff"/><path d="M876.75,351.454q2.626,2.582,2.626,7.569v13.461h-4.237V359.509a7.179,7.179,0,0,0-1.634-5.12,6.136,6.136,0,0,0-4.677-1.721,7.29,7.29,0,0,0-5.429,2.008,7.848,7.848,0,0,0-1.986,5.76v12.048h-4.238V339.736h4.238V352.4a8.751,8.751,0,0,1,3.465-2.6,11.927,11.927,0,0,1,4.789-.927A9.664,9.664,0,0,1,876.75,351.454Z" style="fill:#fff"/><path d="M908.417,362.2H889.438a7.343,7.343,0,0,0,2.715,4.965,8.852,8.852,0,0,0,5.759,1.876,8.673,8.673,0,0,0,6.753-2.825L907,368.953a10.23,10.23,0,0,1-3.95,2.825,14.9,14.9,0,0,1-11.85-.551,10.862,10.862,0,0,1-4.436-4.259,12.207,12.207,0,0,1-1.567-6.18,12.409,12.409,0,0,1,1.523-6.135,10.906,10.906,0,0,1,4.193-4.258,11.943,11.943,0,0,1,6.024-1.523,11.7,11.7,0,0,1,5.98,1.523,10.705,10.705,0,0,1,4.1,4.258,12.99,12.99,0,0,1,1.478,6.268A12.32,12.32,0,0,1,908.417,362.2Zm-16.574-7.9a7.47,7.47,0,0,0-2.4,4.854h15.006a7.526,7.526,0,0,0-2.4-4.833,7.9,7.9,0,0,0-10.2-.021Z" style="fill:#fff"/><path d="M914.375,339.736h4.237v32.748h-4.237Z" style="fill:#fff"/><path d="M945.181,350.372a10.815,10.815,0,0,1,4.215,4.193,13.52,13.52,0,0,1,0,12.468,10.761,10.761,0,0,1-4.215,4.216,12.305,12.305,0,0,1-6.091,1.5,10.831,10.831,0,0,1-4.612-.971,9.576,9.576,0,0,1-3.553-2.825v12.094h-4.237V349.093h4.061V352.8a8.988,8.988,0,0,1,3.575-2.935,11.281,11.281,0,0,1,4.766-.993A12.316,12.316,0,0,1,945.181,350.372Zm-2.406,17.633a7.47,7.47,0,0,0,2.825-2.913,9.448,9.448,0,0,0,0-8.607,7.31,7.31,0,0,0-2.825-2.89,8.026,8.026,0,0,0-4.038-1.016,7.822,7.822,0,0,0-3.994,1.037,7.506,7.506,0,0,0-2.824,2.892,8.6,8.6,0,0,0-1.039,4.28,8.884,8.884,0,0,0,1.016,4.3,7.28,7.28,0,0,0,2.824,2.913,8.339,8.339,0,0,0,8.055,0Z" style="fill:#fff"/><path d="M972.478,371.2a11.309,11.309,0,0,1-4.391-4.259,12.721,12.721,0,0,1,0-12.313,11.158,11.158,0,0,1,4.391-4.237,13.142,13.142,0,0,1,6.378-1.523,12.244,12.244,0,0,1,5.671,1.28,9.124,9.124,0,0,1,3.862,3.707l-3.221,2.075a7.216,7.216,0,0,0-2.737-2.516,7.807,7.807,0,0,0-3.619-.839,8.367,8.367,0,0,0-4.127,1.016,7.222,7.222,0,0,0-2.869,2.89,9.539,9.539,0,0,0,0,8.651,7.209,7.209,0,0,0,2.869,2.89,8.356,8.356,0,0,0,4.127,1.016,7.794,7.794,0,0,0,3.619-.839,7.2,7.2,0,0,0,2.737-2.515l3.221,2.03a9.252,9.252,0,0,1-3.862,3.729,12.07,12.07,0,0,1-5.671,1.3A12.988,12.988,0,0,1,972.478,371.2Z" style="fill:#fff"/><path d="M993.928,343.8a2.6,2.6,0,0,1-.816-1.942,2.675,2.675,0,0,1,.816-1.963,2.783,2.783,0,0,1,2.052-.817,2.873,2.873,0,0,1,2.053.773,2.533,2.533,0,0,1,.816,1.92,2.728,2.728,0,0,1-.816,2.007,2.785,2.785,0,0,1-2.053.817A2.822,2.822,0,0,1,993.928,343.8Zm-.066,5.3H998.1v23.391h-4.237Z" style="fill:#fff"/><path d="M1019.328,371.116a6.318,6.318,0,0,1-2.295,1.214,9.6,9.6,0,0,1-2.825.419,7.5,7.5,0,0,1-5.473-1.9,7.246,7.246,0,0,1-1.941-5.429V352.579h-3.973v-3.486h3.973v-5.12h4.236v5.12h6.709v3.486h-6.709v12.667a4.107,4.107,0,0,0,.949,2.913,3.534,3.534,0,0,0,2.715,1.015,5.106,5.106,0,0,0,3.31-1.1Z" style="fill:#fff"/><path d="M1024.513,343.8a2.6,2.6,0,0,1-.816-1.942,2.675,2.675,0,0,1,.816-1.963,2.783,2.783,0,0,1,2.052-.817,2.873,2.873,0,0,1,2.053.773,2.533,2.533,0,0,1,.816,1.92,2.728,2.728,0,0,1-.816,2.007,2.785,2.785,0,0,1-2.053.817A2.822,2.822,0,0,1,1024.513,343.8Zm-.066,5.3h4.237v23.391h-4.237Z" style="fill:#fff"/><path d="M1057.812,362.2h-18.977a7.341,7.341,0,0,0,2.713,4.965,8.857,8.857,0,0,0,5.76,1.876,8.676,8.676,0,0,0,6.753-2.825l2.339,2.736a10.237,10.237,0,0,1-3.95,2.825,14.9,14.9,0,0,1-11.851-.551,10.859,10.859,0,0,1-4.435-4.259,12.207,12.207,0,0,1-1.567-6.18,12.409,12.409,0,0,1,1.523-6.135,10.906,10.906,0,0,1,4.193-4.258,11.941,11.941,0,0,1,6.024-1.523,11.708,11.708,0,0,1,5.981,1.523,10.7,10.7,0,0,1,4.1,4.258,12.979,12.979,0,0,1,1.479,6.268A12.137,12.137,0,0,1,1057.812,362.2Zm-16.572-7.9a7.465,7.465,0,0,0-2.4,4.854h15a7.531,7.531,0,0,0-2.4-4.833,7.9,7.9,0,0,0-10.195-.021Z" style="fill:#fff"/><path d="M1064.962,371.977a12.1,12.1,0,0,1-4.148-1.964l1.766-3.355a12.631,12.631,0,0,0,3.751,1.766,15.448,15.448,0,0,0,4.458.662q5.561,0,5.56-3.178a2.06,2.06,0,0,0-.75-1.677,4.762,4.762,0,0,0-1.876-.9q-1.125-.285-3.2-.639a31.2,31.2,0,0,1-4.612-1.016,7.094,7.094,0,0,1-3.068-1.942,5.4,5.4,0,0,1-1.28-3.839,6,6,0,0,1,2.648-5.1,11.861,11.861,0,0,1,7.106-1.92,19.605,19.605,0,0,1,4.679.573,12.64,12.64,0,0,1,3.84,1.545l-1.81,3.355a12.168,12.168,0,0,0-6.753-1.854,7.8,7.8,0,0,0-4.1.883,2.662,2.662,0,0,0-1.413,2.339,2.229,2.229,0,0,0,.794,1.809,5.016,5.016,0,0,0,1.964.971q1.17.309,3.288.706a35.942,35.942,0,0,1,4.569,1.037,6.832,6.832,0,0,1,2.979,1.876,5.231,5.231,0,0,1,1.236,3.708,5.846,5.846,0,0,1-2.714,5.053,12.819,12.819,0,0,1-7.393,1.876A19.644,19.644,0,0,1,1064.962,371.977Z" style="fill:#fff"/><path d="M1097.821,343.8a2.6,2.6,0,0,1-.817-1.942,2.676,2.676,0,0,1,.817-1.963,2.782,2.782,0,0,1,2.052-.817,2.871,2.871,0,0,1,2.052.773,2.534,2.534,0,0,1,.817,1.92,2.729,2.729,0,0,1-.817,2.007,2.783,2.783,0,0,1-2.052.817A2.82,2.82,0,0,1,1097.821,343.8Zm-.067,5.3h4.238v23.391h-4.238Z" style="fill:#fff"/><path d="M1129.642,351.454q2.625,2.582,2.626,7.569v13.461h-4.237V359.509a7.183,7.183,0,0,0-1.633-5.12,6.141,6.141,0,0,0-4.679-1.721,7.287,7.287,0,0,0-5.428,2.008,7.848,7.848,0,0,0-1.986,5.76v12.048h-4.237V349.093h4.061v3.53a8.222,8.222,0,0,1,3.464-2.78,12.111,12.111,0,0,1,4.965-.971A9.663,9.663,0,0,1,1129.642,351.454Z" style="fill:#fff"/><path d="M1155.749,371.2a11.183,11.183,0,0,1-4.348-4.259,12.877,12.877,0,0,1,0-12.313,11.034,11.034,0,0,1,4.348-4.237,13.608,13.608,0,0,1,12.511,0,11.089,11.089,0,0,1,4.326,4.237,12.877,12.877,0,0,1,0,12.313,11.24,11.24,0,0,1-4.326,4.259,13.436,13.436,0,0,1-12.511,0Zm10.3-3.2a7.315,7.315,0,0,0,2.8-2.913,9.622,9.622,0,0,0,0-8.607,7.16,7.16,0,0,0-2.8-2.89,8.532,8.532,0,0,0-8.076,0,7.316,7.316,0,0,0-2.825,2.89,9.448,9.448,0,0,0,0,8.607,7.476,7.476,0,0,0,2.825,2.913,8.38,8.38,0,0,0,8.076,0Z" style="fill:#fff"/><path d="M1184.789,347.063v2.03h6.8v3.486h-6.709v19.9h-4.237v-19.9h-3.972v-3.486h3.972v-2.074a7.452,7.452,0,0,1,2.031-5.518,7.694,7.694,0,0,1,5.693-2.03,9.605,9.605,0,0,1,2.647.353,6.43,6.43,0,0,1,2.119,1.015l-1.28,3.223a5.271,5.271,0,0,0-3.265-1.1Q1184.787,342.958,1184.789,347.063Z" style="fill:#fff"/><path d="M1200.369,347.063v2.03h6.8v3.486h-6.709v19.9h-4.237v-19.9h-3.972v-3.486h3.972v-2.074a7.452,7.452,0,0,1,2.031-5.518,7.7,7.7,0,0,1,5.693-2.03,9.605,9.605,0,0,1,2.647.353,6.445,6.445,0,0,1,2.12,1.015l-1.281,3.223a5.269,5.269,0,0,0-3.265-1.1Q1200.367,342.958,1200.369,347.063Z" style="fill:#fff"/><path d="M1231.881,362.2H1212.9a7.343,7.343,0,0,0,2.715,4.965,8.852,8.852,0,0,0,5.759,1.876,8.672,8.672,0,0,0,6.752-2.825l2.34,2.736a10.237,10.237,0,0,1-3.95,2.825,14.9,14.9,0,0,1-11.85-.551,10.856,10.856,0,0,1-4.436-4.259,12.207,12.207,0,0,1-1.567-6.18,12.4,12.4,0,0,1,1.523-6.135,10.911,10.911,0,0,1,4.192-4.258,11.95,11.95,0,0,1,6.025-1.523,11.7,11.7,0,0,1,5.98,1.523,10.712,10.712,0,0,1,4.105,4.258,12.99,12.99,0,0,1,1.478,6.268A12.091,12.091,0,0,1,1231.881,362.2Zm-16.573-7.9a7.47,7.47,0,0,0-2.4,4.854h15.006a7.531,7.531,0,0,0-2.405-4.833,7.9,7.9,0,0,0-10.2-.021Z" style="fill:#fff"/><path d="M1245.166,349.932a11.838,11.838,0,0,1,5.252-1.06v4.1a8.158,8.158,0,0,0-.971-.044,7.126,7.126,0,0,0-5.406,2.051,8.126,8.126,0,0,0-1.964,5.849v11.651h-4.238V349.093h4.061v3.928A7.226,7.226,0,0,1,1245.166,349.932Z" style="fill:#fff"/><path d="M1255.692,343.8a2.6,2.6,0,0,1-.816-1.942,2.675,2.675,0,0,1,.816-1.963,2.786,2.786,0,0,1,2.053-.817,2.866,2.866,0,0,1,2.051.773,2.531,2.531,0,0,1,.817,1.92,2.725,2.725,0,0,1-.817,2.007,2.779,2.779,0,0,1-2.051.817A2.824,2.824,0,0,1,1255.692,343.8Zm-.066,5.3h4.237v23.391h-4.237Z" style="fill:#fff"/><path d="M1287.513,351.454q2.626,2.582,2.626,7.569v13.461H1285.9V359.509a7.179,7.179,0,0,0-1.634-5.12,6.138,6.138,0,0,0-4.678-1.721,7.287,7.287,0,0,0-5.428,2.008,7.844,7.844,0,0,0-1.987,5.76v12.048h-4.237V349.093H1272v3.53a8.234,8.234,0,0,1,3.464-2.78,12.116,12.116,0,0,1,4.966-.971A9.662,9.662,0,0,1,1287.513,351.454Z" style="fill:#fff"/><path d="M1320.5,349.093v20.214q0,6.134-3.045,9.069t-9.092,2.936a21.726,21.726,0,0,1-6.312-.906,12.481,12.481,0,0,1-4.854-2.581l2.03-3.266a11.979,11.979,0,0,0,4.038,2.228,15.33,15.33,0,0,0,4.966.817q4.1,0,6.068-1.942t1.964-5.914V367.9a9.356,9.356,0,0,1-3.685,2.713,12.262,12.262,0,0,1-4.745.906,12.788,12.788,0,0,1-6.068-1.435,10.683,10.683,0,0,1-4.26-4.016,12.009,12.009,0,0,1,0-11.785,10.549,10.549,0,0,1,4.26-3.994,12.954,12.954,0,0,1,6.068-1.412,12.4,12.4,0,0,1,4.921.971,9.138,9.138,0,0,1,3.73,2.869v-3.619Zm-8.054,17.742a7.177,7.177,0,0,0,2.868-2.714,7.578,7.578,0,0,0,1.037-3.95,7.157,7.157,0,0,0-2.251-5.5,9.079,9.079,0,0,0-11.607,0,7.16,7.16,0,0,0-2.251,5.5,7.568,7.568,0,0,0,1.037,3.95,7.173,7.173,0,0,0,2.869,2.714,9.349,9.349,0,0,0,8.3,0Z" style="fill:#fff"/><path d="M1356.408,351.255q2.582,2.384,2.582,7.106v14.123h-4.017V369.4a6.715,6.715,0,0,1-3.023,2.494,11.555,11.555,0,0,1-4.656.86,9.745,9.745,0,0,1-6.29-1.9,6.525,6.525,0,0,1-.11-9.954q2.252-1.875,7.15-1.875h6.709v-.838a5.406,5.406,0,0,0-1.589-4.194,6.709,6.709,0,0,0-4.679-1.456,12.4,12.4,0,0,0-4.061.685,10.451,10.451,0,0,0-3.353,1.831l-1.766-3.178a12.8,12.8,0,0,1,4.325-2.228,18.1,18.1,0,0,1,5.341-.773Q1353.827,348.872,1356.408,351.255Zm-4.215,17.146a6.186,6.186,0,0,0,2.56-3.067v-3.266h-6.533q-5.385,0-5.384,3.62a3.273,3.273,0,0,0,1.369,2.78,6.241,6.241,0,0,0,3.8,1.015A7.864,7.864,0,0,0,1352.193,368.4Z" style="fill:#fff"/><path d="M1379.91,371.977a12.1,12.1,0,0,1-4.15-1.964l1.766-3.355a12.649,12.649,0,0,0,3.752,1.766,15.447,15.447,0,0,0,4.457.662q5.562,0,5.561-3.178a2.06,2.06,0,0,0-.75-1.677,4.757,4.757,0,0,0-1.875-.9q-1.125-.285-3.2-.639a31.261,31.261,0,0,1-4.612-1.016,7.1,7.1,0,0,1-3.067-1.942,5.4,5.4,0,0,1-1.28-3.839,6,6,0,0,1,2.648-5.1,11.859,11.859,0,0,1,7.106-1.92,19.6,19.6,0,0,1,4.678.573,12.619,12.619,0,0,1,3.84,1.545l-1.81,3.355a12.164,12.164,0,0,0-6.752-1.854,7.8,7.8,0,0,0-4.105.883,2.663,2.663,0,0,0-1.412,2.339,2.224,2.224,0,0,0,.8,1.809,4.991,4.991,0,0,0,1.963.971q1.17.309,3.289.706a35.961,35.961,0,0,1,4.568,1.037,6.835,6.835,0,0,1,2.978,1.876,5.227,5.227,0,0,1,1.237,3.708,5.845,5.845,0,0,1-2.715,5.053,12.817,12.817,0,0,1-7.393,1.876A19.625,19.625,0,0,1,1379.91,371.977Z" style="fill:#fff"/><path d="M1416.784,351.255q2.582,2.384,2.582,7.106v14.123h-4.016V369.4a6.72,6.72,0,0,1-3.023,2.494,11.559,11.559,0,0,1-4.656.86,9.75,9.75,0,0,1-6.291-1.9,6.525,6.525,0,0,1-.11-9.954q2.251-1.875,7.151-1.875h6.708v-.838a5.409,5.409,0,0,0-1.588-4.194,6.711,6.711,0,0,0-4.679-1.456,12.391,12.391,0,0,0-4.061.685,10.456,10.456,0,0,0-3.354,1.831l-1.766-3.178a12.8,12.8,0,0,1,4.325-2.228,18.1,18.1,0,0,1,5.341-.773Q1414.2,348.872,1416.784,351.255Zm-4.215,17.146a6.181,6.181,0,0,0,2.56-3.067v-3.266H1408.6q-5.386,0-5.385,3.62a3.275,3.275,0,0,0,1.369,2.78,6.245,6.245,0,0,0,3.8,1.015A7.861,7.861,0,0,0,1412.569,368.4Z" style="fill:#fff"/><path d="M1431.988,347.063v2.03h6.8v3.486h-6.708v19.9h-4.238v-19.9h-3.971v-3.486h3.971v-2.074a7.456,7.456,0,0,1,2.031-5.518,7.7,7.7,0,0,1,5.693-2.03,9.63,9.63,0,0,1,2.649.353,6.453,6.453,0,0,1,2.118,1.015l-1.28,3.223a5.273,5.273,0,0,0-3.266-1.1Q1431.989,342.958,1431.988,347.063Z" style="fill:#fff"/><path d="M1463.5,362.2h-18.979a7.343,7.343,0,0,0,2.715,4.965,8.852,8.852,0,0,0,5.759,1.876,8.673,8.673,0,0,0,6.753-2.825l2.339,2.736a10.237,10.237,0,0,1-3.95,2.825,14.9,14.9,0,0,1-11.85-.551,10.862,10.862,0,0,1-4.436-4.259,12.207,12.207,0,0,1-1.567-6.18,12.409,12.409,0,0,1,1.523-6.135A10.906,10.906,0,0,1,1446,350.4a11.943,11.943,0,0,1,6.024-1.523,11.7,11.7,0,0,1,5.98,1.523,10.705,10.705,0,0,1,4.105,4.258,12.99,12.99,0,0,1,1.478,6.268A12.32,12.32,0,0,1,1463.5,362.2Zm-16.574-7.9a7.47,7.47,0,0,0-2.405,4.854h15.006a7.526,7.526,0,0,0-2.4-4.833,7.9,7.9,0,0,0-10.2-.021Z" style="fill:#fff"/><path d="M1472.571,367.563a2.992,2.992,0,0,1,.816,2.141,5.24,5.24,0,0,1-.154,1.279q-.156.62-.6,1.9l-2.074,6.135h-2.78l1.633-6.577a2.763,2.763,0,0,1-1.347-1.037,2.9,2.9,0,0,1-.507-1.7,2.929,2.929,0,0,1,.838-2.163,2.871,2.871,0,0,1,2.119-.838A2.71,2.71,0,0,1,1472.571,367.563Z" style="fill:#fff"/></g><g style="isolation:isolate"><path d="M432.863,424.939a12.08,12.08,0,0,1-4.149-1.963l1.766-3.355a12.655,12.655,0,0,0,3.751,1.766,15.453,15.453,0,0,0,4.458.662q5.56,0,5.561-3.178a2.058,2.058,0,0,0-.75-1.677,4.748,4.748,0,0,0-1.876-.905q-1.125-.285-3.2-.64a31.276,31.276,0,0,1-4.612-1.015,7.1,7.1,0,0,1-3.067-1.942,5.4,5.4,0,0,1-1.281-3.839,5.994,5.994,0,0,1,2.649-5.1,11.86,11.86,0,0,1,7.105-1.92,19.605,19.605,0,0,1,4.679.573,12.629,12.629,0,0,1,3.84,1.545l-1.81,3.355a12.168,12.168,0,0,0-6.753-1.854,7.8,7.8,0,0,0-4.1.883,2.663,2.663,0,0,0-1.412,2.339,2.227,2.227,0,0,0,.794,1.809,5,5,0,0,0,1.964.971q1.168.309,3.288.706a35.921,35.921,0,0,1,4.568,1.037,6.841,6.841,0,0,1,2.98,1.876,5.231,5.231,0,0,1,1.235,3.708,5.844,5.844,0,0,1-2.714,5.053,12.817,12.817,0,0,1-7.393,1.876A19.6,19.6,0,0,1,432.863,424.939Z" style="fill:#fff"/><path d="M475.586,402.056v23.391h-4.017v-3.531a8.519,8.519,0,0,1-3.376,2.8,10.535,10.535,0,0,1-4.568.993,10.2,10.2,0,0,1-7.371-2.582q-2.691-2.582-2.692-7.613V402.056H457.8v12.975a7.261,7.261,0,0,0,1.633,5.142,6.1,6.1,0,0,0,4.679,1.743,6.982,6.982,0,0,0,5.3-2.03,7.971,7.971,0,0,0,1.941-5.738V402.056Z" style="fill:#fff"/><path d="M484.854,424.939a12.08,12.08,0,0,1-4.149-1.963l1.765-3.355a12.7,12.7,0,0,0,3.752,1.766,15.447,15.447,0,0,0,4.457.662q5.562,0,5.562-3.178a2.058,2.058,0,0,0-.75-1.677,4.755,4.755,0,0,0-1.876-.905q-1.125-.285-3.2-.64a31.322,31.322,0,0,1-4.613-1.015,7.106,7.106,0,0,1-3.067-1.942,5.4,5.4,0,0,1-1.279-3.839,6,6,0,0,1,2.647-5.1,11.863,11.863,0,0,1,7.107-1.92,19.6,19.6,0,0,1,4.677.573,12.619,12.619,0,0,1,3.84,1.545l-1.809,3.355a12.169,12.169,0,0,0-6.752-1.854,7.8,7.8,0,0,0-4.106.883,2.665,2.665,0,0,0-1.412,2.339,2.228,2.228,0,0,0,.795,1.809,5,5,0,0,0,1.964.971q1.168.309,3.288.706a35.921,35.921,0,0,1,4.568,1.037,6.838,6.838,0,0,1,2.979,1.876,5.231,5.231,0,0,1,1.236,3.708,5.845,5.845,0,0,1-2.715,5.053,12.814,12.814,0,0,1-7.392,1.876A19.6,19.6,0,0,1,484.854,424.939Z" style="fill:#fff"/><path d="M518.925,424.079a6.309,6.309,0,0,1-2.295,1.214,9.6,9.6,0,0,1-2.824.419,7.5,7.5,0,0,1-5.472-1.9,7.243,7.243,0,0,1-1.943-5.428V405.542H502.42v-3.486h3.971v-5.12h4.238v5.12h6.708v3.486h-6.708v12.667a4.1,4.1,0,0,0,.949,2.913,3.531,3.531,0,0,0,2.714,1.015,5.1,5.1,0,0,0,3.31-1.1Z" style="fill:#fff"/><path d="M540,404.218q2.582,2.383,2.582,7.106v14.123h-4.016v-3.09a6.716,6.716,0,0,1-3.023,2.495,11.56,11.56,0,0,1-4.657.86,9.743,9.743,0,0,1-6.29-1.9,6.086,6.086,0,0,1-2.361-4.987,6.147,6.147,0,0,1,2.251-4.966q2.251-1.875,7.15-1.875h6.709v-.839a5.405,5.405,0,0,0-1.589-4.193,6.7,6.7,0,0,0-4.678-1.456,12.387,12.387,0,0,0-4.061.685,10.456,10.456,0,0,0-3.354,1.831l-1.766-3.178a12.818,12.818,0,0,1,4.325-2.229,18.132,18.132,0,0,1,5.341-.772Q537.417,401.835,540,404.218Zm-4.215,17.146a6.181,6.181,0,0,0,2.56-3.067v-3.266h-6.532q-5.386,0-5.385,3.619a3.275,3.275,0,0,0,1.368,2.781,6.255,6.255,0,0,0,3.8,1.015A7.862,7.862,0,0,0,535.785,421.364Z" style="fill:#fff"/><path d="M550.5,396.759a2.6,2.6,0,0,1-.817-1.942,2.674,2.674,0,0,1,.817-1.963,2.782,2.782,0,0,1,2.052-.817,2.871,2.871,0,0,1,2.052.773,2.529,2.529,0,0,1,.816,1.919,2.726,2.726,0,0,1-.816,2.008,2.783,2.783,0,0,1-2.052.817A2.82,2.82,0,0,1,550.5,396.759Zm-.067,5.3h4.237v23.391h-4.237Z" style="fill:#fff"/><path d="M582.325,404.417q2.626,2.582,2.626,7.569v13.461h-4.237V412.472a7.179,7.179,0,0,0-1.633-5.12,6.14,6.14,0,0,0-4.678-1.721,7.29,7.29,0,0,0-5.429,2.008,7.845,7.845,0,0,0-1.986,5.759v12.049h-4.237V402.056h4.06v3.53a8.243,8.243,0,0,1,3.465-2.78,12.113,12.113,0,0,1,4.966-.971A9.664,9.664,0,0,1,582.325,404.417Z" style="fill:#fff"/><path d="M608.762,404.218q2.582,2.383,2.582,7.106v14.123h-4.016v-3.09a6.708,6.708,0,0,1-3.024,2.495,11.548,11.548,0,0,1-4.656.86,9.736,9.736,0,0,1-6.289-1.9,6.524,6.524,0,0,1-.11-9.953q2.251-1.875,7.149-1.875h6.709v-.839a5.4,5.4,0,0,0-1.589-4.193,6.7,6.7,0,0,0-4.679-1.456,12.39,12.39,0,0,0-4.06.685,10.467,10.467,0,0,0-3.354,1.831l-1.765-3.178a12.809,12.809,0,0,1,4.325-2.229,18.128,18.128,0,0,1,5.341-.772Q606.18,401.835,608.762,404.218Zm-4.215,17.146a6.181,6.181,0,0,0,2.56-3.067v-3.266h-6.532q-5.385,0-5.385,3.619a3.273,3.273,0,0,0,1.369,2.781,6.25,6.25,0,0,0,3.8,1.015A7.862,7.862,0,0,0,604.547,421.364Z" style="fill:#fff"/><path d="M637.693,403.335a10.815,10.815,0,0,1,4.215,4.193,13.528,13.528,0,0,1,0,12.468,10.761,10.761,0,0,1-4.215,4.216,12.305,12.305,0,0,1-6.091,1.5,11.069,11.069,0,0,1-4.766-1.015,9.162,9.162,0,0,1-3.576-2.957v3.707H619.2V392.7h4.237v12.887a9.009,9.009,0,0,1,3.53-2.8,11.2,11.2,0,0,1,4.635-.949A12.316,12.316,0,0,1,637.693,403.335Zm-2.406,17.633a7.47,7.47,0,0,0,2.825-2.913,9.448,9.448,0,0,0,0-8.607,7.31,7.31,0,0,0-2.825-2.89,8.491,8.491,0,0,0-8.055,0,7.127,7.127,0,0,0-2.824,2.89,9.622,9.622,0,0,0,0,8.607,7.28,7.28,0,0,0,2.824,2.913,8.339,8.339,0,0,0,8.055,0Z" style="fill:#fff"/><path d="M649.3,392.7h4.238v32.748H649.3Z" style="fill:#fff"/><path d="M682.666,415.164H663.687a7.343,7.343,0,0,0,2.715,4.965,8.852,8.852,0,0,0,5.759,1.876,8.676,8.676,0,0,0,6.753-2.825l2.34,2.736a10.241,10.241,0,0,1-3.951,2.825,14.892,14.892,0,0,1-11.85-.552,10.853,10.853,0,0,1-4.436-4.258,12.209,12.209,0,0,1-1.567-6.18,12.406,12.406,0,0,1,1.523-6.135,10.916,10.916,0,0,1,4.193-4.259,11.953,11.953,0,0,1,6.024-1.522,11.717,11.717,0,0,1,5.981,1.522,10.712,10.712,0,0,1,4.1,4.259,12.988,12.988,0,0,1,1.479,6.268A12.367,12.367,0,0,1,682.666,415.164Zm-16.574-7.9a7.47,7.47,0,0,0-2.4,4.854h15.006a7.524,7.524,0,0,0-2.4-4.833,7.9,7.9,0,0,0-10.2-.021Z" style="fill:#fff"/><path d="M691.736,420.526a2.991,2.991,0,0,1,.816,2.141,5.246,5.246,0,0,1-.154,1.279q-.155.619-.6,1.9l-2.074,6.134h-2.78l1.633-6.576a2.765,2.765,0,0,1-1.346-1.037,2.892,2.892,0,0,1-.508-1.7,2.924,2.924,0,0,1,.839-2.163,2.87,2.87,0,0,1,2.118-.838A2.712,2.712,0,0,1,691.736,420.526Z" style="fill:#fff"/><path d="M731.567,415.164H712.588a7.343,7.343,0,0,0,2.715,4.965,8.852,8.852,0,0,0,5.759,1.876,8.676,8.676,0,0,0,6.753-2.825l2.34,2.736a10.245,10.245,0,0,1-3.95,2.825,14.894,14.894,0,0,1-11.851-.552,10.845,10.845,0,0,1-4.435-4.258,12.21,12.21,0,0,1-1.568-6.18,12.4,12.4,0,0,1,1.524-6.135,10.913,10.913,0,0,1,4.192-4.259,11.953,11.953,0,0,1,6.024-1.522,11.714,11.714,0,0,1,5.981,1.522,10.712,10.712,0,0,1,4.1,4.259,12.976,12.976,0,0,1,1.479,6.268A12.091,12.091,0,0,1,731.567,415.164Zm-16.573-7.9a7.475,7.475,0,0,0-2.406,4.854h15.006a7.524,7.524,0,0,0-2.405-4.833,7.9,7.9,0,0,0-10.195-.021Z" style="fill:#fff"/><path d="M742.292,400.025v2.031h6.8v3.486H742.38v19.905h-4.237V405.542h-3.972v-3.486h3.972v-2.075a7.458,7.458,0,0,1,2.03-5.517,7.7,7.7,0,0,1,5.694-2.03,9.618,9.618,0,0,1,2.648.353,6.424,6.424,0,0,1,2.118,1.015l-1.279,3.222a5.281,5.281,0,0,0-3.267-1.1Q742.292,395.921,742.292,400.025Z" style="fill:#fff"/><path d="M757.872,400.025v2.031h6.8v3.486H757.96v19.905h-4.237V405.542h-3.972v-3.486h3.972v-2.075a7.451,7.451,0,0,1,2.031-5.517,7.694,7.694,0,0,1,5.693-2.03,9.605,9.605,0,0,1,2.647.353,6.41,6.41,0,0,1,2.119,1.015l-1.28,3.222a5.276,5.276,0,0,0-3.265-1.1Q757.87,395.921,757.872,400.025Z" style="fill:#fff"/><path d="M772.149,424.167a11.318,11.318,0,0,1-4.392-4.259,12.728,12.728,0,0,1,0-12.313,11.177,11.177,0,0,1,4.392-4.238,13.153,13.153,0,0,1,6.378-1.522,12.244,12.244,0,0,1,5.671,1.28,9.124,9.124,0,0,1,3.862,3.707l-3.222,2.074a7.2,7.2,0,0,0-2.736-2.515,7.807,7.807,0,0,0-3.619-.839,8.367,8.367,0,0,0-4.127,1.016,7.222,7.222,0,0,0-2.869,2.89,8.754,8.754,0,0,0-1.037,4.3,8.843,8.843,0,0,0,1.037,4.348,7.216,7.216,0,0,0,2.869,2.89,8.356,8.356,0,0,0,4.127,1.016,7.794,7.794,0,0,0,3.619-.839,7.2,7.2,0,0,0,2.736-2.516l3.222,2.031a9.252,9.252,0,0,1-3.862,3.729,12.07,12.07,0,0,1-5.671,1.3A12.988,12.988,0,0,1,772.149,424.167Z" style="fill:#fff"/><path d="M793.6,396.759a2.6,2.6,0,0,1-.816-1.942,2.673,2.673,0,0,1,.816-1.963,2.783,2.783,0,0,1,2.052-.817,2.873,2.873,0,0,1,2.053.773,2.533,2.533,0,0,1,.816,1.919,2.73,2.73,0,0,1-.816,2.008,2.785,2.785,0,0,1-2.053.817A2.822,2.822,0,0,1,793.6,396.759Zm-.066,5.3h4.237v23.391h-4.237Z" style="fill:#fff"/><path d="M826.9,415.164H807.921a7.338,7.338,0,0,0,2.714,4.965,8.852,8.852,0,0,0,5.759,1.876,8.676,8.676,0,0,0,6.753-2.825l2.34,2.736a10.245,10.245,0,0,1-3.95,2.825,14.894,14.894,0,0,1-11.851-.552,10.851,10.851,0,0,1-4.435-4.258,12.21,12.21,0,0,1-1.568-6.18,12.4,12.4,0,0,1,1.524-6.135,10.913,10.913,0,0,1,4.192-4.259,11.953,11.953,0,0,1,6.024-1.522,11.714,11.714,0,0,1,5.981,1.522,10.712,10.712,0,0,1,4.1,4.259,12.976,12.976,0,0,1,1.479,6.268A12.091,12.091,0,0,1,826.9,415.164Zm-16.573-7.9a7.47,7.47,0,0,0-2.4,4.854h15a7.524,7.524,0,0,0-2.405-4.833,7.9,7.9,0,0,0-10.195-.021Z" style="fill:#fff"/><path d="M852.431,404.417q2.625,2.582,2.626,7.569v13.461H850.82V412.472a7.183,7.183,0,0,0-1.633-5.12,6.141,6.141,0,0,0-4.679-1.721,7.287,7.287,0,0,0-5.428,2.008,7.845,7.845,0,0,0-1.986,5.759v12.049h-4.237V402.056h4.061v3.53a8.222,8.222,0,0,1,3.464-2.78,12.111,12.111,0,0,1,4.965-.971A9.663,9.663,0,0,1,852.431,404.417Z" style="fill:#fff"/><path d="M876.066,424.079a6.333,6.333,0,0,1-2.3,1.214,9.6,9.6,0,0,1-2.825.419,7.5,7.5,0,0,1-5.473-1.9,7.242,7.242,0,0,1-1.941-5.428V405.542h-3.973v-3.486h3.973v-5.12h4.236v5.12h6.709v3.486h-6.709v12.667a4.111,4.111,0,0,0,.949,2.913,3.534,3.534,0,0,0,2.715,1.015,5.1,5.1,0,0,0,3.31-1.1Z" style="fill:#fff"/><path d="M909.012,404.218q2.582,2.383,2.582,7.106v14.123h-4.016v-3.09a6.708,6.708,0,0,1-3.024,2.495,11.548,11.548,0,0,1-4.656.86,9.736,9.736,0,0,1-6.289-1.9,6.524,6.524,0,0,1-.11-9.953q2.251-1.875,7.149-1.875h6.709v-.839a5.4,5.4,0,0,0-1.589-4.193,6.7,6.7,0,0,0-4.679-1.456,12.39,12.39,0,0,0-4.06.685,10.467,10.467,0,0,0-3.354,1.831l-1.765-3.178a12.809,12.809,0,0,1,4.325-2.229,18.128,18.128,0,0,1,5.341-.772Q906.43,401.835,909.012,404.218ZM904.8,421.364a6.181,6.181,0,0,0,2.56-3.067v-3.266h-6.532q-5.385,0-5.385,3.619a3.273,3.273,0,0,0,1.369,2.781,6.25,6.25,0,0,0,3.8,1.015A7.862,7.862,0,0,0,904.8,421.364Z" style="fill:#fff"/><path d="M939.024,404.417q2.625,2.582,2.626,7.569v13.461h-4.237V412.472a7.183,7.183,0,0,0-1.633-5.12,6.142,6.142,0,0,0-4.679-1.721,7.291,7.291,0,0,0-5.429,2.008,7.849,7.849,0,0,0-1.985,5.759v12.049H919.45V402.056h4.06v3.53a8.231,8.231,0,0,1,3.465-2.78,12.111,12.111,0,0,1,4.965-.971A9.663,9.663,0,0,1,939.024,404.417Z" style="fill:#fff"/><path d="M971.706,392.7v32.748h-4.061V421.74a9.174,9.174,0,0,1-3.575,2.957,11.07,11.07,0,0,1-4.767,1.015,12.3,12.3,0,0,1-6.091-1.5A10.752,10.752,0,0,1,949,420a13.52,13.52,0,0,1,0-12.468,10.806,10.806,0,0,1,4.214-4.193,12.313,12.313,0,0,1,6.091-1.5,11.207,11.207,0,0,1,4.635.949,9.009,9.009,0,0,1,3.53,2.8V392.7Zm-8.034,28.269a7.285,7.285,0,0,0,2.826-2.913,9.639,9.639,0,0,0,0-8.607,7.132,7.132,0,0,0-2.826-2.89,8.489,8.489,0,0,0-8.054,0,7.3,7.3,0,0,0-2.824,2.89,9.44,9.44,0,0,0,0,8.607,7.46,7.46,0,0,0,2.824,2.913,8.337,8.337,0,0,0,8.054,0Z" style="fill:#fff"/><path d="M992.8,424.939a12.089,12.089,0,0,1-4.149-1.963l1.766-3.355a12.674,12.674,0,0,0,3.752,1.766,15.442,15.442,0,0,0,4.457.662q5.562,0,5.561-3.178a2.058,2.058,0,0,0-.75-1.677,4.755,4.755,0,0,0-1.876-.905q-1.125-.285-3.2-.64a31.276,31.276,0,0,1-4.612-1.015,7.109,7.109,0,0,1-3.068-1.942,5.4,5.4,0,0,1-1.279-3.839,6,6,0,0,1,2.647-5.1,11.863,11.863,0,0,1,7.107-1.92,19.609,19.609,0,0,1,4.678.573,12.623,12.623,0,0,1,3.839,1.545l-1.809,3.355a12.164,12.164,0,0,0-6.752-1.854,7.8,7.8,0,0,0-4.106.883,2.665,2.665,0,0,0-1.412,2.339,2.228,2.228,0,0,0,.795,1.809,5,5,0,0,0,1.964.971q1.168.309,3.288.706a35.982,35.982,0,0,1,4.569,1.037,6.835,6.835,0,0,1,2.978,1.876,5.231,5.231,0,0,1,1.236,3.708,5.846,5.846,0,0,1-2.714,5.053,12.819,12.819,0,0,1-7.393,1.876A19.6,19.6,0,0,1,992.8,424.939Z" style="fill:#fff"/><path d="M1049.979,404.4q2.582,2.56,2.582,7.591v13.461h-4.237V412.472a7.38,7.38,0,0,0-1.567-5.12,5.749,5.749,0,0,0-4.48-1.721,6.7,6.7,0,0,0-5.119,2.008,8.064,8.064,0,0,0-1.9,5.759v12.049h-4.236V412.472a7.38,7.38,0,0,0-1.567-5.12,5.746,5.746,0,0,0-4.48-1.721,6.706,6.706,0,0,0-5.119,2.008,8.064,8.064,0,0,0-1.9,5.759v12.049h-4.238V402.056h4.061v3.486a8.218,8.218,0,0,1,3.354-2.758,11.228,11.228,0,0,1,4.723-.949,10.36,10.36,0,0,1,4.854,1.1,7.671,7.671,0,0,1,3.267,3.222,8.965,8.965,0,0,1,3.686-3.178,12.017,12.017,0,0,1,5.318-1.147A9.5,9.5,0,0,1,1049.979,404.4Z" style="fill:#fff"/><path d="M1076.328,404.218q2.58,2.383,2.582,7.106v14.123h-4.017v-3.09a6.711,6.711,0,0,1-3.023,2.495,11.557,11.557,0,0,1-4.657.86,9.738,9.738,0,0,1-6.289-1.9,6.524,6.524,0,0,1-.11-9.953q2.252-1.875,7.149-1.875h6.709v-.839a5.4,5.4,0,0,0-1.588-4.193,6.706,6.706,0,0,0-4.679-1.456,12.4,12.4,0,0,0-4.061.685,10.451,10.451,0,0,0-3.353,1.831l-1.766-3.178a12.818,12.818,0,0,1,4.325-2.229,18.128,18.128,0,0,1,5.341-.772Q1073.746,401.835,1076.328,404.218Zm-4.215,17.146a6.179,6.179,0,0,0,2.559-3.067v-3.266h-6.532q-5.385,0-5.385,3.619a3.274,3.274,0,0,0,1.37,2.781,6.248,6.248,0,0,0,3.8,1.015A7.864,7.864,0,0,0,1072.113,421.364Z" style="fill:#fff"/><path d="M1094.091,402.9a11.844,11.844,0,0,1,5.252-1.06v4.1a8.387,8.387,0,0,0-.97-.043,7.129,7.129,0,0,0-5.407,2.051A8.129,8.129,0,0,0,1091,413.8v11.651h-4.238V402.056h4.061v3.927A7.231,7.231,0,0,1,1094.091,402.9Z" style="fill:#fff"/><path d="M1118.674,424.079a6.325,6.325,0,0,1-2.3,1.214,9.6,9.6,0,0,1-2.825.419,7.5,7.5,0,0,1-5.472-1.9,7.243,7.243,0,0,1-1.942-5.428V405.542h-3.972v-3.486h3.972v-5.12h4.237v5.12h6.709v3.486h-6.709v12.667a4.107,4.107,0,0,0,.949,2.913,3.534,3.534,0,0,0,2.715,1.015,5.1,5.1,0,0,0,3.309-1.1Z" style="fill:#fff"/><path d="M1157.468,402.056v23.391h-4.016v-3.531a8.519,8.519,0,0,1-3.376,2.8,10.539,10.539,0,0,1-4.569.993,10.2,10.2,0,0,1-7.37-2.582q-2.692-2.582-2.692-7.613V402.056h4.237v12.975a7.261,7.261,0,0,0,1.633,5.142,6.1,6.1,0,0,0,4.679,1.743,6.982,6.982,0,0,0,5.3-2.03,7.971,7.971,0,0,0,1.941-5.738V402.056Z" style="fill:#fff"/><path d="M1172.872,402.9a11.838,11.838,0,0,1,5.252-1.06v4.1a8.442,8.442,0,0,0-.971-.043,7.129,7.129,0,0,0-5.407,2.051,8.125,8.125,0,0,0-1.964,5.849v11.651h-4.237V402.056h4.06v3.927A7.226,7.226,0,0,1,1172.872,402.9Z" style="fill:#fff"/><path d="M1201.825,403.335a10.815,10.815,0,0,1,4.215,4.193,13.528,13.528,0,0,1,0,12.468,10.761,10.761,0,0,1-4.215,4.216,12.305,12.305,0,0,1-6.091,1.5,11.076,11.076,0,0,1-4.767-1.015,9.167,9.167,0,0,1-3.575-2.957v3.707h-4.06V392.7h4.237v12.887a9,9,0,0,1,3.53-2.8,11.2,11.2,0,0,1,4.635-.949A12.316,12.316,0,0,1,1201.825,403.335Zm-2.406,17.633a7.476,7.476,0,0,0,2.825-2.913,9.448,9.448,0,0,0,0-8.607,7.316,7.316,0,0,0-2.825-2.89,8.491,8.491,0,0,0-8.055,0,7.121,7.121,0,0,0-2.824,2.89,9.622,9.622,0,0,0,0,8.607,7.273,7.273,0,0,0,2.824,2.913,8.339,8.339,0,0,0,8.055,0Z" style="fill:#fff"/><path d="M1229.166,404.218q2.582,2.383,2.582,7.106v14.123h-4.016v-3.09a6.716,6.716,0,0,1-3.023,2.495,11.56,11.56,0,0,1-4.657.86,9.743,9.743,0,0,1-6.29-1.9,6.086,6.086,0,0,1-2.361-4.987,6.147,6.147,0,0,1,2.251-4.966q2.251-1.875,7.15-1.875h6.709v-.839a5.405,5.405,0,0,0-1.589-4.193,6.7,6.7,0,0,0-4.678-1.456,12.387,12.387,0,0,0-4.061.685,10.456,10.456,0,0,0-3.354,1.831l-1.766-3.178a12.818,12.818,0,0,1,4.325-2.229,18.132,18.132,0,0,1,5.341-.772Q1226.583,401.835,1229.166,404.218Zm-4.215,17.146a6.181,6.181,0,0,0,2.56-3.067v-3.266h-6.532q-5.387,0-5.385,3.619a3.275,3.275,0,0,0,1.368,2.781,6.255,6.255,0,0,0,3.8,1.015A7.862,7.862,0,0,0,1224.951,421.364Z" style="fill:#fff"/><path d="M1259.177,404.417q2.627,2.582,2.626,7.569v13.461h-4.236V412.472a7.179,7.179,0,0,0-1.634-5.12,6.138,6.138,0,0,0-4.678-1.721,7.289,7.289,0,0,0-5.428,2.008,7.846,7.846,0,0,0-1.987,5.759v12.049H1239.6V402.056h4.061v3.53a8.231,8.231,0,0,1,3.465-2.78,12.111,12.111,0,0,1,4.965-.971A9.662,9.662,0,0,1,1259.177,404.417Z" style="fill:#fff"/><path d="M1294.684,424.079a6.317,6.317,0,0,1-2.3,1.214,9.6,9.6,0,0,1-2.824.419,7.5,7.5,0,0,1-5.473-1.9,7.243,7.243,0,0,1-1.942-5.428V405.542h-3.972v-3.486h3.972v-5.12h4.237v5.12h6.708v3.486h-6.708v12.667a4.1,4.1,0,0,0,.95,2.913,3.529,3.529,0,0,0,2.713,1.015,5.107,5.107,0,0,0,3.311-1.1Z" style="fill:#fff"/><path d="M1307.13,402.9a11.844,11.844,0,0,1,5.252-1.06v4.1a8.411,8.411,0,0,0-.97-.043,7.133,7.133,0,0,0-5.408,2.051,8.129,8.129,0,0,0-1.963,5.849v11.651H1299.8V402.056h4.061v3.927A7.229,7.229,0,0,1,1307.13,402.9Z" style="fill:#fff"/><path d="M1333.5,404.218q2.58,2.383,2.582,7.106v14.123h-4.017v-3.09a6.711,6.711,0,0,1-3.023,2.495,11.557,11.557,0,0,1-4.657.86,9.738,9.738,0,0,1-6.289-1.9,6.524,6.524,0,0,1-.11-9.953q2.251-1.875,7.149-1.875h6.709v-.839a5.4,5.4,0,0,0-1.589-4.193,6.7,6.7,0,0,0-4.678-1.456,12.391,12.391,0,0,0-4.061.685,10.451,10.451,0,0,0-3.353,1.831l-1.766-3.178a12.809,12.809,0,0,1,4.325-2.229,18.128,18.128,0,0,1,5.341-.772Q1330.918,401.835,1333.5,404.218Zm-4.215,17.146a6.179,6.179,0,0,0,2.559-3.067v-3.266h-6.532q-5.385,0-5.385,3.619a3.273,3.273,0,0,0,1.369,2.781,6.252,6.252,0,0,0,3.8,1.015A7.865,7.865,0,0,0,1329.286,421.364Z" style="fill:#fff"/><path d="M1363.512,404.417q2.625,2.582,2.626,7.569v13.461H1361.9V412.472a7.183,7.183,0,0,0-1.633-5.12,6.141,6.141,0,0,0-4.679-1.721,7.289,7.289,0,0,0-5.428,2.008,7.845,7.845,0,0,0-1.986,5.759v12.049h-4.237V402.056H1348v3.53a8.222,8.222,0,0,1,3.464-2.78,12.115,12.115,0,0,1,4.965-.971A9.663,9.663,0,0,1,1363.512,404.417Z" style="fill:#fff"/><path d="M1375.186,424.939a12.083,12.083,0,0,1-4.148-1.963l1.765-3.355a12.679,12.679,0,0,0,3.751,1.766,15.453,15.453,0,0,0,4.458.662q5.561,0,5.561-3.178a2.058,2.058,0,0,0-.75-1.677,4.748,4.748,0,0,0-1.876-.905q-1.125-.285-3.2-.64a31.263,31.263,0,0,1-4.613-1.015,7.106,7.106,0,0,1-3.067-1.942,5.4,5.4,0,0,1-1.28-3.839,6,6,0,0,1,2.648-5.1,11.861,11.861,0,0,1,7.106-1.92,19.6,19.6,0,0,1,4.678.573,12.629,12.629,0,0,1,3.84,1.545l-1.809,3.355a12.17,12.17,0,0,0-6.753-1.854,7.8,7.8,0,0,0-4.105.883,2.663,2.663,0,0,0-1.412,2.339,2.23,2.23,0,0,0,.794,1.809,5.009,5.009,0,0,0,1.964.971q1.168.309,3.288.706a35.921,35.921,0,0,1,4.568,1.037,6.835,6.835,0,0,1,2.98,1.876,5.231,5.231,0,0,1,1.235,3.708,5.844,5.844,0,0,1-2.714,5.053,12.814,12.814,0,0,1-7.392,1.876A19.608,19.608,0,0,1,1375.186,424.939Z" style="fill:#fff"/><path d="M1414.6,403.335a10.815,10.815,0,0,1,4.215,4.193,13.52,13.52,0,0,1,0,12.468,10.761,10.761,0,0,1-4.215,4.216,12.305,12.305,0,0,1-6.091,1.5,10.831,10.831,0,0,1-4.612-.971,9.576,9.576,0,0,1-3.553-2.825V434.01h-4.237V402.056h4.061v3.707a8.988,8.988,0,0,1,3.575-2.935,11.281,11.281,0,0,1,4.766-.993A12.316,12.316,0,0,1,1414.6,403.335Zm-2.406,17.633a7.47,7.47,0,0,0,2.825-2.913,9.448,9.448,0,0,0,0-8.607,7.31,7.31,0,0,0-2.825-2.89,8.026,8.026,0,0,0-4.038-1.016,7.822,7.822,0,0,0-3.994,1.037,7.5,7.5,0,0,0-2.824,2.892,8.6,8.6,0,0,0-1.039,4.28,8.884,8.884,0,0,0,1.016,4.3,7.28,7.28,0,0,0,2.824,2.913,8.339,8.339,0,0,0,8.055,0Z" style="fill:#fff"/><path d="M1429.958,424.167a11.189,11.189,0,0,1-4.348-4.259,12.885,12.885,0,0,1,0-12.313,11.049,11.049,0,0,1,4.348-4.238,13.618,13.618,0,0,1,12.512,0,11.1,11.1,0,0,1,4.326,4.238,12.885,12.885,0,0,1,0,12.313,11.247,11.247,0,0,1-4.326,4.259,13.438,13.438,0,0,1-12.512,0Zm10.3-3.2a7.328,7.328,0,0,0,2.8-2.913,9.631,9.631,0,0,0,0-8.607,7.173,7.173,0,0,0-2.8-2.89,8.534,8.534,0,0,0-8.077,0,7.307,7.307,0,0,0-2.824,2.89,9.448,9.448,0,0,0,0,8.607,7.467,7.467,0,0,0,2.824,2.913,8.382,8.382,0,0,0,8.077,0Z" style="fill:#fff"/><path d="M1461.558,402.9a11.844,11.844,0,0,1,5.252-1.06v4.1a8.418,8.418,0,0,0-.971-.043,7.132,7.132,0,0,0-5.407,2.051,8.129,8.129,0,0,0-1.964,5.849v11.651h-4.237V402.056h4.061v3.927A7.229,7.229,0,0,1,1461.558,402.9Z" style="fill:#fff"/><path d="M1486.141,424.079a6.333,6.333,0,0,1-2.3,1.214,9.6,9.6,0,0,1-2.825.419,7.5,7.5,0,0,1-5.473-1.9,7.246,7.246,0,0,1-1.941-5.428V405.542h-3.973v-3.486h3.973v-5.12h4.236v5.12h6.709v3.486h-6.709v12.667a4.107,4.107,0,0,0,.95,2.913,3.531,3.531,0,0,0,2.714,1.015,5.1,5.1,0,0,0,3.31-1.1Z" style="fill:#fff"/></g><g style="isolation:isolate"><path d="M432.863,477.9a12.1,12.1,0,0,1-4.149-1.963l1.766-3.355a12.655,12.655,0,0,0,3.751,1.766,15.453,15.453,0,0,0,4.458.662q5.56,0,5.561-3.178a2.058,2.058,0,0,0-.75-1.677,4.748,4.748,0,0,0-1.876-.905q-1.125-.285-3.2-.64a31.276,31.276,0,0,1-4.612-1.015,7.1,7.1,0,0,1-3.067-1.942,5.4,5.4,0,0,1-1.281-3.84,5.994,5.994,0,0,1,2.649-5.1,11.86,11.86,0,0,1,7.105-1.92,19.605,19.605,0,0,1,4.679.573,12.629,12.629,0,0,1,3.84,1.545l-1.81,3.355a12.168,12.168,0,0,0-6.753-1.854,7.8,7.8,0,0,0-4.1.883,2.663,2.663,0,0,0-1.412,2.339,2.227,2.227,0,0,0,.794,1.809,5,5,0,0,0,1.964.971q1.168.309,3.288.706a35.921,35.921,0,0,1,4.568,1.037,6.841,6.841,0,0,1,2.98,1.876,5.231,5.231,0,0,1,1.235,3.708,5.844,5.844,0,0,1-2.714,5.053,12.817,12.817,0,0,1-7.393,1.876A19.6,19.6,0,0,1,432.863,477.9Z" style="fill:#fff"/><path d="M474.042,455.018,462.7,480.748a11.613,11.613,0,0,1-3.509,5.032,8.012,8.012,0,0,1-4.833,1.456,10.231,10.231,0,0,1-3.332-.551,6.855,6.855,0,0,1-2.671-1.612l1.81-3.177a5.9,5.9,0,0,0,4.193,1.721,4.048,4.048,0,0,0,2.582-.816,7,7,0,0,0,1.876-2.8l.75-1.633-10.328-23.347h4.414l8.165,18.712,8.076-18.712Z" style="fill:#fff"/><path d="M478.9,477.9a12.092,12.092,0,0,1-4.148-1.963l1.765-3.355a12.679,12.679,0,0,0,3.751,1.766,15.453,15.453,0,0,0,4.458.662q5.56,0,5.561-3.178a2.058,2.058,0,0,0-.75-1.677,4.748,4.748,0,0,0-1.876-.905q-1.125-.285-3.2-.64a31.263,31.263,0,0,1-4.613-1.015,7.1,7.1,0,0,1-3.067-1.942,5.4,5.4,0,0,1-1.28-3.84,5.993,5.993,0,0,1,2.648-5.1,11.861,11.861,0,0,1,7.106-1.92,19.6,19.6,0,0,1,4.678.573,12.629,12.629,0,0,1,3.84,1.545l-1.809,3.355a12.172,12.172,0,0,0-6.753-1.854,7.8,7.8,0,0,0-4.105.883,2.663,2.663,0,0,0-1.412,2.339,2.23,2.23,0,0,0,.794,1.809,5.009,5.009,0,0,0,1.964.971q1.168.309,3.288.706a35.921,35.921,0,0,1,4.568,1.037,6.835,6.835,0,0,1,2.98,1.876,5.231,5.231,0,0,1,1.235,3.708,5.844,5.844,0,0,1-2.714,5.053,12.814,12.814,0,0,1-7.392,1.876A19.608,19.608,0,0,1,478.9,477.9Z" style="fill:#fff"/><path d="M512.968,477.041a6.325,6.325,0,0,1-2.295,1.214,9.6,9.6,0,0,1-2.825.419,7.5,7.5,0,0,1-5.472-1.9,7.243,7.243,0,0,1-1.942-5.428V458.5h-3.972v-3.486h3.972V449.9h4.237v5.121h6.708V458.5h-6.708v12.667a4.107,4.107,0,0,0,.949,2.913,3.534,3.534,0,0,0,2.715,1.015,5.107,5.107,0,0,0,3.309-1.1Z" style="fill:#fff"/><path d="M538.346,468.126H519.368a7.34,7.34,0,0,0,2.715,4.965,8.85,8.85,0,0,0,5.758,1.876,8.676,8.676,0,0,0,6.753-2.825l2.34,2.736a10.237,10.237,0,0,1-3.95,2.825,14.894,14.894,0,0,1-11.851-.552,10.851,10.851,0,0,1-4.435-4.258,12.21,12.21,0,0,1-1.568-6.18,12.4,12.4,0,0,1,1.524-6.135,10.92,10.92,0,0,1,4.192-4.259,11.957,11.957,0,0,1,6.025-1.522,11.713,11.713,0,0,1,5.98,1.522,10.721,10.721,0,0,1,4.105,4.259,12.987,12.987,0,0,1,1.478,6.268A12.091,12.091,0,0,1,538.346,468.126Zm-16.573-7.9a7.47,7.47,0,0,0-2.4,4.854h15.006a7.525,7.525,0,0,0-2.406-4.833,7.9,7.9,0,0,0-10.195-.021Z" style="fill:#fff"/><path d="M580.561,457.356q2.583,2.56,2.582,7.592v13.461h-4.236V465.434a7.384,7.384,0,0,0-1.568-5.121,5.75,5.75,0,0,0-4.479-1.72,6.707,6.707,0,0,0-5.12,2.008,8.067,8.067,0,0,0-1.9,5.759v12.049h-4.237V465.434a7.384,7.384,0,0,0-1.566-5.121,5.752,5.752,0,0,0-4.48-1.72,6.708,6.708,0,0,0-5.12,2.008,8.062,8.062,0,0,0-1.9,5.759v12.049H544.3V455.018h4.061V458.5a8.205,8.205,0,0,1,3.354-2.758,11.226,11.226,0,0,1,4.722-.949,10.364,10.364,0,0,1,4.855,1.1,7.674,7.674,0,0,1,3.266,3.222,8.972,8.972,0,0,1,3.686-3.178,12.02,12.02,0,0,1,5.318-1.147A9.5,9.5,0,0,1,580.561,457.356Z" style="fill:#fff"/><path d="M592.147,477.9A12.1,12.1,0,0,1,588,475.938l1.765-3.355a12.7,12.7,0,0,0,3.752,1.766,15.447,15.447,0,0,0,4.457.662q5.562,0,5.562-3.178a2.058,2.058,0,0,0-.75-1.677,4.755,4.755,0,0,0-1.876-.905q-1.125-.285-3.2-.64A31.322,31.322,0,0,1,593.1,467.6a7.106,7.106,0,0,1-3.067-1.942,5.4,5.4,0,0,1-1.279-3.84,5.994,5.994,0,0,1,2.647-5.1,11.863,11.863,0,0,1,7.107-1.92,19.6,19.6,0,0,1,4.677.573,12.619,12.619,0,0,1,3.84,1.545l-1.809,3.355a12.169,12.169,0,0,0-6.752-1.854,7.8,7.8,0,0,0-4.106.883,2.665,2.665,0,0,0-1.412,2.339,2.228,2.228,0,0,0,.795,1.809,5,5,0,0,0,1.964.971q1.168.309,3.288.706a35.921,35.921,0,0,1,4.568,1.037,6.838,6.838,0,0,1,2.979,1.876,5.231,5.231,0,0,1,1.236,3.708,5.845,5.845,0,0,1-2.715,5.053,12.814,12.814,0,0,1-7.392,1.876A19.6,19.6,0,0,1,592.147,477.9Z" style="fill:#fff"/><path d="M611.963,477.813a2.921,2.921,0,0,1-.882-2.184,2.87,2.87,0,0,1,.882-2.141,2.924,2.924,0,0,1,2.119-.86,2.819,2.819,0,0,1,2.074.838,3.2,3.2,0,0,1-.023,4.347,2.8,2.8,0,0,1-2.051.861A2.925,2.925,0,0,1,611.963,477.813Z" style="fill:#fff"/></g><path d="M319,279.8a34.8,34.8,0,0,1-3.4,5.1c-8.2,9.6-16.4,19.2-24.6,28.7-2.4,2.8-4.2,2.8-6.6,0-8.7-10.1-17.4-20.3-26.1-30.4-.4-.5-.8-1.1-1.2-1.7-2.6-4.7-.4-8.8,4.9-9,3.5-.2,7.1,0,10.6-.1h2.7a63.825,63.825,0,0,0-5.8-18.1c-12-24-31.2-38.9-57.8-42.6-28-3.9-51.2,6.1-69.5,27.7-1.2,1.4-2.3,2.9-3.5,4.3a11.647,11.647,0,0,1-16.2,1.7,12.29,12.29,0,0,1-3.4-16.4,68.931,68.931,0,0,1,7.5-9.6,100.578,100.578,0,0,1,126.1-19.1c.3.2.7.4,1,.6a3.474,3.474,0,0,1,1.6,4.6c0,.1-.1.2-.2.3a3.565,3.565,0,0,1-4.9,1.2c-.1,0-.1-.1-.2-.1-4.6-2.4-9.2-5-14-7a93.542,93.542,0,0,0-109.4,30.3c-2.2,2.9-2.4,4.9-.6,7.3a5.189,5.189,0,0,0,7.1,1.7,6.173,6.173,0,0,0,1.8-1.8,82.431,82.431,0,0,1,147.2,33.1c.3,1.4.5,2.9.8,4.3a3.55,3.55,0,0,1-2.3,4.5,3.887,3.887,0,0,1-1.5.2c-4,.1-8,0-12,0h-2.8c8,9.4,15.6,18.2,23.5,27.4l23.5-27.4H299.6c-4.4,0-5.2-.7-5.7-5A90.683,90.683,0,0,0,276.5,231c-3.3-4.4-7.3-8.3-10.9-12.5a5.746,5.746,0,0,1-1.4-3.8c.5-2.9,3.9-3.7,6.1-1.2a169.471,169.471,0,0,1,14,16.5,93.958,93.958,0,0,1,16.1,40c.1.7.3,1.4.4,2l.3.6h10.5a8.382,8.382,0,0,1,7.7,4.1Z" style="fill:#606161"/><path d="M127.2,302.7c2.1,5.5,3.7,10.6,5.9,15.4a74.268,74.268,0,0,0,20.4,26.4c.8.7,1.9,1.8,1.9,2.7a4.691,4.691,0,0,1-1.5,3.5,3.153,3.153,0,0,1-4.4-.4A84.014,84.014,0,0,1,120.3,302c-1-4.9.2-6.4,5.1-6.4,3.7,0,7.4,0,11.1-.1.1,0,.2-.1.6-.4l-23-26.9-23.2,27a12.252,12.252,0,0,0,1.9.2h11.1c3.5,0,4.6,1,5.1,4.3A88.7,88.7,0,0,0,127.4,343c15.6,19.8,35.9,32.1,61,35.2,35.1,4.4,63.9-7.9,86.5-34.9,1.7-2.1,3-4.3,2.1-7.1a4.8,4.8,0,0,0-5.7-3.8,5.45,5.45,0,0,0-2.4,1.2,17.969,17.969,0,0,0-1.9,2,81.613,81.613,0,0,1-54.1,31.6,80.061,80.061,0,0,1-46.5-6.6,5.53,5.53,0,0,1-2.7-3.3,3.271,3.271,0,0,1,1.5-2.9,6.356,6.356,0,0,1,4.3.1,80.628,80.628,0,0,0,19.8,5.9,72.75,72.75,0,0,0,42.6-6.4A84.312,84.312,0,0,0,262,330.5c3.6-4.3,8.1-6.3,13.7-4.6a12,12,0,0,1,8.6,14.7,12.594,12.594,0,0,1-2.2,4.5A95.332,95.332,0,0,1,259,367.7a100.094,100.094,0,0,1-156.4-63.5c-.3-1.4-.8-1.9-2.3-1.9q-5.4.15-10.8,0c-2.6-.1-5.2-.4-6.4-3.2a7.14,7.14,0,0,1,1.5-7.5c8.7-10.3,17.5-20.6,26.4-30.8a3.5,3.5,0,0,1,6,0c9.1,10.5,18.1,21.1,27.2,31.7,3.6,4.2,1.9,8.7-3.5,9.6a25.614,25.614,0,0,1-3.9.3A71,71,0,0,1,127.2,302.7Z" style="fill:#606161"/><path d="M197.8,311.9H164.9c-4.7,0-5.9-2-3.4-6.1q18.15-29.85,36.4-59.5c.4-.6.7-1.3,1.3-1.6a5.6,5.6,0,0,1,3.6-.7,4.008,4.008,0,0,1,1.9,2.8,73.023,73.023,0,0,1,.2,8.1v25.8h32.3c1.8,0,4,.1,4.5,2a6.987,6.987,0,0,1-.8,4.7c-3.2,5.6-6.7,11-10,16.5a2.092,2.092,0,0,1-.4.6,3.512,3.512,0,0,1-4.7,1.7,1.38,1.38,0,0,1-.4-.3,3.416,3.416,0,0,1-1-4.8h0c.1-.1.1-.2.2-.3l6.6-10.8c.4-.6.7-1.3,1.3-2.2-1.1,0-1.9-.1-2.7-.1h-27c-3.7,0-4.8-1.1-4.8-4.8v-22l-.5-.1c-8.9,14.6-17.9,29.2-27.1,44.3h29.8c3.9,0,4.8,1,4.8,4.9v22.5c.7-1,1.1-1.4,1.4-1.9,2.8-4.5,5.5-9,8.3-13.5,1.5-2.4,3.5-3.1,5.3-1.9,1.8,1.1,2.1,3.2.7,5.5-5.3,8.7-10.6,17.3-15.8,25.9-1,1.6-2.3,2.9-4.3,2.3-2.2-.6-2.6-2.4-2.6-4.4V314.8A13.678,13.678,0,0,1,197.8,311.9Z" style="fill:#606161"/></g></g></svg>