<?xml version="1.0" encoding="utf-8"?>
<!-- Generator: Adobe Illustrator 25.2.0, SVG Export Plug-In . SVG Version: 6.00 Build 0)  -->
<svg version="1.1" id="Layer_1" xmlns="http://www.w3.org/2000/svg" xmlns:xlink="http://www.w3.org/1999/xlink" x="0px" y="0px"
	 viewBox="0 0 1778.7 498" style="enable-background:new 0 0 1778.7 498;" xml:space="preserve">
<style type="text/css">
	.st0{fill:#F2B05A;}
	.st1{opacity:0.5;fill:#434343;enable-background:new    ;}
	.st2{fill:url(#SVGID_1_);}
	.st3{fill:url(#SVGID_2_);}
	.st4{fill:url(#SVGID_3_);}
	.st5{opacity:0.1;enable-background:new    ;}
	.st6{fill:#606161;}
	.st7{fill:none;stroke:#FFFFFF;stroke-width:3;stroke-miterlimit:10;}
	.st8{fill:#FFFFFF;}
</style>
<path class="st0" d="M100.7,461.6l1327.3,3.5c55.9,0.1,101.4-88.9,101.7-199l0,0c0.3-110-44.8-199.4-100.7-199.5L101.7,63.1
	C45.8,63,0.3,152,0,262.1l0,0C-0.3,372.1,44.8,461.4,100.7,461.6z"/>
<path class="st1" d="M1506.9,54.3c117.9,0,230.4,84.5,230.4,202.4s-74.8,210-192.6,210c-117.9,0-217.8-98-217.8-215.9
	C1326.9,133,1389.1,54.3,1506.9,54.3z"/>
<radialGradient id="SVGID_1_" cx="8504.6758" cy="-7722.6812" r="603.809" gradientTransform="matrix(6.123234e-17 -1 -1 -6.123234e-17 -6407.3721 8473.377)" gradientUnits="userSpaceOnUse">
	<stop  offset="0" style="stop-color:#FFFFFF"/>
	<stop  offset="0.231" style="stop-color:#FCFCFC"/>
	<stop  offset="0.42" style="stop-color:#F2F2F2"/>
	<stop  offset="0.594" style="stop-color:#E0E0E1"/>
	<stop  offset="0.759" style="stop-color:#C8C8C9"/>
	<stop  offset="0.917" style="stop-color:#AAAAAA"/>
	<stop  offset="1" style="stop-color:#969697"/>
</radialGradient>
<path class="st2" d="M1529.7,0c137.5,0,249,111.5,249,249s-111.5,249-249,249s-249-111.5-249-249S1392.2,0,1529.7,0z"/>
<radialGradient id="SVGID_2_" cx="8403.0029" cy="-7789.4399" r="575.632" gradientTransform="matrix(6.123234e-17 -1 -1 -6.123234e-17 -6407.3721 8473.377)" gradientUnits="userSpaceOnUse">
	<stop  offset="0" style="stop-color:#FFFFFF"/>
	<stop  offset="0.257" style="stop-color:#FCFCFC"/>
	<stop  offset="0.468" style="stop-color:#F2F2F2"/>
	<stop  offset="0.662" style="stop-color:#E0E0E1"/>
	<stop  offset="0.846" style="stop-color:#C9C9C9"/>
	<stop  offset="1" style="stop-color:#AEAEAF"/>
</radialGradient>
<path class="st3" d="M1529.7,11.6c131.1,0,237.4,106.3,237.4,237.4s-106.3,237.4-237.4,237.4S1292.3,380.1,1292.3,249
	S1398.6,11.6,1529.7,11.6L1529.7,11.6z"/>
<radialGradient id="SVGID_3_" cx="8052.856" cy="-8100.6138" r="636.249" gradientTransform="matrix(6.123234e-17 -1 -1 -6.123234e-17 -6407.3721 8473.377)" gradientUnits="userSpaceOnUse">
	<stop  offset="0" style="stop-color:#FFFFFF"/>
	<stop  offset="0.164" style="stop-color:#F8F8F8"/>
	<stop  offset="0.411" style="stop-color:#E3E3E3"/>
	<stop  offset="0.709" style="stop-color:#C2C2C2"/>
	<stop  offset="1" style="stop-color:#9A9A9A"/>
</radialGradient>
<path class="st4" d="M1529.7,58.2c105.4,0,190.9,85.4,190.9,190.8s-85.4,190.9-190.8,190.9s-190.8-85.4-190.9-190.8
	S1424.3,58.2,1529.7,58.2z"/>
<path class="st5" d="M1529.7,75.4c95.9,0,173.6,77.7,173.6,173.6c0,95.9-77.7,173.6-173.6,173.6s-173.6-77.7-173.6-173.6
	C1356.1,153.1,1433.8,75.4,1529.7,75.4L1529.7,75.4z"/>
<path class="st6" d="M1556,171.7c2.1,1,4.1,2.2,5.9,3.5c2.2,2.2,3.3,5.2,3,8.2c0,12.9,0,25.7,0,38.6c-0.1,1.2,0.5,2.3,1.4,3
	c6.4,5.2,8.8,13.9,5.9,21.7c-0.8,2-2,2.7-3.6,2.2c-1.4-0.5-2-1.9-1.4-3.8c2-5,0.9-10.7-2.8-14.6c-3.4-4-8.9-5.6-13.9-4.1
	c-5.5,1.2-9.6,5.7-10.2,11.3c-0.1,2.2,0,4.5,0.4,6.7c0.1,0.4,0.2,0.8,0.3,1.1c0.5,1.3-0.1,2.8-1.5,3.4s-2.8-0.1-3.4-1.5
	c0-0.1-0.1-0.1-0.1-0.2c-2-4.7-1.9-10.1,0.1-14.8c1.2-3,3.2-5.6,5.7-7.5c0.8-0.6,1.2-1.5,1.1-2.5c0-12.7,0.1-25.4-0.1-38
	c-0.1-6.2,3.1-11.1,8.7-12.4c0.1,0,0.2-0.1,0.2-0.2L1556,171.7z M1559.7,220.9v-17.3c0-6.8,0-13.5,0-20.3c0.3-2.8-1.5-5.4-4.3-6.2
	c-3-0.8-6.1,0.9-6.9,3.9c-0.2,0.6-0.2,1.3-0.2,2c0,12.4,0,24.8,0,37.2c0,0.2,0,0.5,0.1,0.7H1559.7z"/>
<path class="st6" d="M1464.2,171.7c0.8,0.3,1.5,0.6,2.3,1c4.1,1.9,6.7,6.1,6.4,10.6c0,2.7,0,5.3,0,8c0,26.4,0,52.8,0,79.2
	c0,0.7,0,1.5-0.1,2.2c-0.1,1.3-1.2,2.3-2.5,2.2c0,0,0,0,0,0c0,0-0.1,0-0.1,0c-1.3,0-2.4-1-2.5-2.3c-0.1-0.6-0.1-1.2,0-1.9v-87.2
	c0.4-3.1-1.7-5.9-4.8-6.4c-3-0.5-5.9,1.4-6.4,4.4c0,0,0,0,0,0c-0.1,0.3-0.1,0.6-0.1,0.9c-0.1,3.1,0.1,6.1-0.1,9.2c0,1-0.4,2-1,2.7
	c-0.9,0.9-2.4,0.9-3.4,0c-0.4-0.4-0.7-1-0.7-1.6c-0.2-4.4-0.1-8.7,0.4-13.1c0.7-3.6,3.4-6.5,7-7.5c0.4-0.2,0.8-0.3,1.2-0.6
	L1464.2,171.7z"/>
<path class="st6" d="M1509.9,171.7c1.5,0.6,2.9,1.3,4.2,2.1c2.7,1.9,4.4,4.9,4.6,8.2c0.1,1.6,0.1,3.3,0,4.9c0,1.4-1.1,2.6-2.5,2.7
	c-1.4,0-2.6-1.1-2.7-2.5c0,0,0,0,0,0v0c-0.1-1.5,0-2.9-0.1-4.4c0.1-3.1-2.4-5.7-5.5-5.7c-3,0-5.5,2.2-5.7,5.2
	c-0.2,1.5,0,2.9-0.1,4.4c0.1,1.5-1,2.7-2.5,2.8l0,0h-0.1c-1.4,0-2.6-1.1-2.6-2.6c0,0,0,0,0,0c0-0.1,0-0.1,0-0.2
	c-0.3-2.9,0-5.8,0.9-8.5c1.6-3.2,4.5-5.5,7.9-6.4L1509.9,171.7z"/>
<path class="st6" d="M1580.8,267.3c4.6-4.2,11.8-3.8,16,0.8c1.6,1.8,2.6,4,2.9,6.4c4.2-2.5,9.5-2,13.2,1.1c2.4,1.8,3.8,4.7,3.8,7.7
	c0.1,8.2,0.2,16.4-0.1,24.6c-0.3,5.4-1.6,10.7-3.9,15.6c-0.4,1.4-1.9,2.1-3.3,1.7c0,0,0,0,0,0c-0.1,0-0.1,0-0.2-0.1
	c-1.4-0.6-2-2.2-1.4-3.6c1.1-3.9,2.3-7.8,3.2-11.8c0.4-2,0.6-4.1,0.5-6.1c0.1-6.4,0.1-12.7,0-19.1c0.2-3.3-2.3-6.1-5.6-6.3
	c-3.2-0.2-6,2.2-6.3,5.4c0,0.1,0,0.2,0,0.3c0,1.4,0,2.8,0,4.3c0.1,1.4-0.9,2.7-2.3,2.8c0,0,0,0,0,0c-0.1,0-0.1,0-0.2,0
	c-1.4,0.1-2.6-0.9-2.7-2.3c0,0,0,0,0,0c0-0.1,0-0.3,0-0.4c-0.1-3.9,0-7.7-0.1-11.6c0-1-0.1-2-0.3-3c-0.8-2.8-3.5-4.6-6.4-4.2
	c-2.8,0.3-5,2.7-5.1,5.5c-0.1,3,0,5.9-0.1,8.9c0.1,0.8-0.1,1.7-0.6,2.4c-0.8,0.7-1.8,1-2.8,1c-1.5-0.1-1.9-1.5-1.9-2.8
	c0-3.8,0-7.5,0-11.3c0-3.2-2.6-5.9-5.8-5.9c-0.5,0-0.9,0-1.4,0.2c-2.5,0.4-4.4,2.5-4.6,5.1c-0.2,4.4-0.1,8.9-0.2,13.3
	c0,0.7,0,1.5-0.1,2.2c-0.1,1.3-1.2,2.3-2.5,2.2c0,0,0,0,0,0l0,0h-0.1c-1.3,0-2.5-1-2.5-2.3c-0.1-0.6-0.1-1.1,0-1.7
	c0-14.2,0-28.5,0-42.7c0.3-2.9-1.5-5.6-4.3-6.4c-3.2-0.9-6.5,0.9-7.4,4c-0.1,0.4-0.2,0.9-0.2,1.3c0,0.6,0,1.3,0,1.9
	c0,19.4,0,38.8,0,58.2c0,0.5,0,1,0,1.5c0.1,1.5-1.1,2.8-2.6,2.9c-1.4,0-2.6-1.1-2.6-2.6c0,0,0,0,0,0l0,0c0-0.1,0-0.1,0-0.2
	c-0.1-4.5,0.1-9-0.1-13.5c-0.3-4.1-1.9-8-4.7-11.1c-2.3-2.3-5.9-2.7-8.6-0.9c-2.9,1.6-4.2,5-3.1,8.1c3.1,6.6,3,13.7,3.6,20.7
	c0.4,7.6,2.5,15,6.1,21.6c3.9,7.7,11.9,12.4,20.5,12c8,0,16,0,24.1,0c8.8,0.1,17.1-4,22.3-11.2c0.3-0.5,0.7-0.9,1-1.4
	c0.8-1.2,2.4-1.5,3.7-0.7l0,0c0,0,0.1,0.1,0.1,0.1c1.1,0.8,1.4,2.4,0.6,3.5c0,0,0,0,0,0c-0.1,0.1-0.1,0.2-0.2,0.3
	c-1.7,2.3-3.6,4.4-5.6,6.4c-6,5.5-13.9,8.5-22.1,8.3c-8.2-0.1-16.4,0-24.6,0c-9.8,0.3-18.9-5-23.6-13.6c-4.2-7.3-6.7-15.4-7.2-23.7
	c-0.4-4.8-0.8-9.6-1.4-14.4c-0.2-1.5-0.7-3-1.4-4.3c-3-6.2-0.4-13.6,5.7-16.6c4.8-2.3,10.5-1.4,14.2,2.4c0.2,0.1,0.3,0.3,0.8,0.6
	v-2.1c0-10.3,0-20.6,0-30.9c-0.4-4.7,2.2-9.1,6.5-11.1c5.5-2.6,12.1-0.3,14.7,5.2c0.6,1.2,0.9,2.6,1,3.9c0.3,6.5,0.1,13,0.1,19.5
	c0,0.7,0,1.4,0,2.3C1571.5,260.9,1576.7,262,1580.8,267.3z"/>
<path class="st6" d="M1496.9,285.2v-50.3c0-2.7,0.8-4,2.6-4s2.6,1.3,2.6,4c0,33,0,66.1,0,99.1c0,1,0.1,1.9,0.2,2.9
	c0.6,2.7,3.1,4.6,5.9,4.4c2.9-0.1,5.2-2.4,5.2-5.3c0.1-7.6,0-15.2,0.1-22.9c0-0.7,0.1-1.5,0.2-2.2c0.2-1.2,1.3-2,2.4-1.9
	c1.2-0.1,2.3,0.7,2.5,1.9c0.1,0.4,0.2,0.9,0.2,1.3c0,7.7,0.1,15.5,0,23.2c0.1,6-4.6,11-10.6,11.1c-1.4,0-2.7-0.2-4-0.7
	c-4.1-1.4-6.9-5.2-7.1-9.5c-0.1-12.2-0.1-24.3-0.1-36.5C1496.9,294.9,1496.9,290,1496.9,285.2z"/>
<path class="st6" d="M1442.6,295.6c0-10.7,8.7-19.3,19.4-19.3c10.7,0,19.3,8.7,19.3,19.4c0,10.7-8.7,19.3-19.4,19.3h0
	C1451.2,314.9,1442.6,306.2,1442.6,295.6z M1461.8,309.7c5.2-2.6,7.3-9,4.7-14.2c-2.6-5.2-9-7.3-14.2-4.7c-5.2,2.6-7.3,9-4.7,14.2
	C1450.3,310.2,1456.6,312.3,1461.8,309.7C1461.8,309.7,1461.8,309.7,1461.8,309.7z"/>
<path class="st6" d="M1507.6,229.4c-10.7,0-19.3-8.7-19.3-19.4c0-10.7,8.7-19.3,19.4-19.3c10.7,0,19.3,8.7,19.3,19.4c0,0,0,0,0,0
	l0,0v0.1C1526.9,220.9,1518.2,229.5,1507.6,229.4z M1521.7,210.1c0-7.8-6.3-14.1-14.1-14.1c-7.8,0-14.1,6.3-14.1,14.1v0
	c0,7.8,6.3,14.1,14.1,14.1S1521.7,218,1521.7,210.1L1521.7,210.1z"/>
<path class="st6" d="M1456.2,237c0,11.3,0,22.6,0,33.9c0,0.5,0,1,0,1.5c-0.1,1.4-1.2,2.6-2.7,2.6c-1.4,0-2.5-1.1-2.6-2.5
	c-0.1-0.5-0.1-1-0.1-1.5c0-22.8,0-45.6,0-68.4c0-2.8,0.9-4.2,2.7-4.1c1.7,0,2.6,1.4,2.6,4.1C1456.3,214,1456.2,225.5,1456.2,237z"/>
<path class="st6" d="M1518.7,268c0,11.1,0,22.3,0,33.4c0,0.6,0,1.2-0.1,1.9c-0.2,1.2-1.3,2.2-2.5,2.1c-1.3,0.1-2.4-0.9-2.5-2.1
	c-0.1-0.6-0.2-1.2-0.2-1.9c0-22.2,0-44.5,0-66.7c0-2.8,0.9-4.1,2.8-4.1c1.8,0.1,2.6,1.3,2.6,4.1
	C1518.7,245.8,1518.7,256.9,1518.7,268z"/>
<path class="st6" d="M1472.7,328.1c0,2.8,0.1,5.7,0,8.5c-0.4,5.5-4.9,9.8-10.5,9.9c-5.5,0.3-10.4-3.8-11-9.3
	c-0.4-6.1-0.3-12.1-0.3-18.2c-0.1-1.4,1-2.7,2.4-2.8c0.1,0,0.2,0,0.3,0c1.5,0.1,2.6,1.4,2.5,2.9c0,0,0,0,0,0c0,0.1,0,0.1,0,0.2
	c0,5.5,0,11,0,16.5c0,2.6,1.9,4.8,4.4,5.3c2.6,0.6,5.3-0.7,6.3-3.2c0.4-1,0.5-2,0.5-3c0.1-5.3,0-10.6,0-15.9c0-1.5,0.7-2.7,2.2-2.8
	c1,0.1,2,0.6,2.7,1.3c0.4,0.4,0.4,1.4,0.4,2.1c0,2.8,0,5.6,0,8.4L1472.7,328.1z"/>
<line class="st7" x1="85.4" y1="203.8" x2="1230.3" y2="203.8"/>
<g>
	<path class="st8" d="M89.7,166.4c-2.9-1.6-5.2-3.7-6.9-6.5c-1.6-2.8-2.5-5.8-2.5-9.3c0-3.4,0.8-6.5,2.5-9.3
		c1.7-2.8,3.9-4.9,6.9-6.5c2.9-1.6,6.2-2.4,9.8-2.4c3.6,0,6.9,0.8,9.8,2.4c2.9,1.6,5.2,3.7,6.9,6.5c1.7,2.8,2.5,5.8,2.5,9.3
		c0,3.4-0.8,6.5-2.5,9.3c-1.7,2.8-4,4.9-6.9,6.5c-2.9,1.6-6.2,2.4-9.8,2.4C95.9,168.8,92.6,168,89.7,166.4z M105.1,160.5
		c1.7-0.9,3-2.3,3.9-4c1-1.7,1.4-3.6,1.4-5.8c0-2.2-0.5-4.1-1.4-5.8c-1-1.7-2.3-3-3.9-4c-1.7-1-3.5-1.4-5.6-1.4
		c-2.1,0-3.9,0.5-5.6,1.4c-1.7,0.9-3,2.3-3.9,4c-1,1.7-1.4,3.6-1.4,5.8c0,2.2,0.5,4.1,1.4,5.8c0.9,1.7,2.3,3,3.9,4
		c1.7,1,3.5,1.4,5.6,1.4C101.6,161.9,103.4,161.4,105.1,160.5z"/>
	<path class="st8" d="M146.9,142.6c2,1.2,3.7,2.8,4.8,4.9c1.2,2.1,1.8,4.5,1.8,7.3c0,2.8-0.6,5.2-1.8,7.3c-1.2,2.1-2.8,3.7-4.8,4.8
		c-2.1,1.2-4.3,1.7-6.8,1.7c-3.4,0-6.1-1.1-8.1-3.2v12.6h-7.8v-36.6h7.4v3.1c1.9-2.3,4.8-3.5,8.5-3.5
		C142.6,140.9,144.9,141.5,146.9,142.6z M143.7,160.2c1.3-1.4,1.9-3.2,1.9-5.4c0-2.3-0.6-4.1-1.9-5.4c-1.3-1.4-2.9-2-4.9-2
		s-3.6,0.7-4.9,2c-1.3,1.4-1.9,3.2-1.9,5.4c0,2.3,0.6,4.1,1.9,5.4c1.3,1.4,2.9,2,4.9,2S142.4,161.5,143.7,160.2z"/>
	<path class="st8" d="M184.9,156.9h-20.3c0.4,1.7,1.2,3,2.6,4c1.4,1,3.1,1.4,5.1,1.4c1.4,0,2.6-0.2,3.7-0.6c1.1-0.4,2.1-1.1,3-2
		l4.1,4.5c-2.5,2.9-6.2,4.4-11.1,4.4c-3,0-5.7-0.6-8.1-1.8c-2.3-1.2-4.1-2.8-5.4-4.9c-1.3-2.1-1.9-4.5-1.9-7.2c0-2.6,0.6-5,1.9-7.1
		c1.2-2.1,3-3.8,5.1-4.9c2.2-1.2,4.6-1.8,7.3-1.8c2.6,0,5,0.6,7.1,1.7c2.1,1.1,3.8,2.8,5,4.9c1.2,2.1,1.8,4.6,1.8,7.4
		C185,154.9,185,155.6,184.9,156.9z M166.6,148.3c-1.2,1-1.9,2.4-2.2,4.1h13.2c-0.3-1.7-1-3.1-2.2-4.1c-1.2-1-2.7-1.5-4.4-1.5
		C169.3,146.8,167.8,147.3,166.6,148.3z"/>
	<path class="st8" d="M214.7,143.9c2.1,2,3.1,5,3.1,8.9v15.4h-7.8V154c0-2.1-0.5-3.7-1.4-4.8c-0.9-1-2.3-1.6-4-1.6
		c-2,0-3.5,0.6-4.7,1.8c-1.2,1.2-1.8,3-1.8,5.4v13.3h-7.8v-26.9h7.4v3.1c1-1.1,2.3-2,3.9-2.6c1.5-0.6,3.2-0.9,5.1-0.9
		C209.9,140.9,212.6,141.9,214.7,143.9z"/>
	<path class="st8" d="M239.5,133.2h15.9c3.8,0,7.2,0.7,10.1,2.2c2.9,1.5,5.2,3.5,6.8,6.1c1.6,2.6,2.4,5.7,2.4,9.2s-0.8,6.6-2.4,9.2
		c-1.6,2.6-3.9,4.7-6.8,6.1c-2.9,1.4-6.3,2.2-10.1,2.2h-15.9V133.2z M255,161.5c3.5,0,6.3-1,8.4-2.9c2.1-1.9,3.1-4.6,3.1-7.9
		c0-3.3-1-6-3.1-7.9c-2.1-2-4.9-2.9-8.4-2.9h-7.4v21.7H255z"/>
	<path class="st8" d="M300.7,143.9c2.2,2,3.4,5,3.4,9v15.4h-7.3v-3.4c-1.5,2.5-4.2,3.8-8.2,3.8c-2.1,0-3.9-0.4-5.4-1
		c-1.5-0.7-2.7-1.7-3.5-2.9c-0.8-1.2-1.2-2.6-1.2-4.2c0-2.5,0.9-4.5,2.8-5.9c1.9-1.4,4.8-2.1,8.7-2.1h6.2c0-1.7-0.5-3-1.6-3.9
		c-1-0.9-2.6-1.4-4.6-1.4c-1.4,0-2.8,0.2-4.2,0.7c-1.4,0.4-2.6,1.1-3.5,1.8l-2.8-5.4c1.5-1,3.2-1.8,5.3-2.4c2-0.6,4.2-0.8,6.3-0.8
		C295.2,140.9,298.4,141.9,300.7,143.9z M294,162.4c1-0.6,1.8-1.5,2.2-2.7v-2.8h-5.4c-3.2,0-4.8,1-4.8,3.1c0,1,0.4,1.8,1.2,2.4
		c0.8,0.6,1.9,0.9,3.2,0.9C291.8,163.3,293,163,294,162.4z"/>
	<path class="st8" d="M328.4,166.9c-0.8,0.6-1.7,1-2.8,1.3c-1.1,0.3-2.3,0.4-3.5,0.4c-3.2,0-5.7-0.8-7.4-2.4c-1.8-1.6-2.6-4-2.6-7.2
		v-11h-4.1v-6h4.1v-6.6h7.8v6.6h6.7v6h-6.7v10.9c0,1.1,0.3,2,0.9,2.6c0.6,0.6,1.4,0.9,2.5,0.9c1.2,0,2.3-0.3,3.1-1L328.4,166.9z"/>
	<path class="st8" d="M353.3,143.9c2.2,2,3.4,5,3.4,9v15.4h-7.3v-3.4c-1.5,2.5-4.2,3.8-8.2,3.8c-2.1,0-3.9-0.4-5.4-1
		c-1.5-0.7-2.7-1.7-3.5-2.9c-0.8-1.2-1.2-2.6-1.2-4.2c0-2.5,0.9-4.5,2.8-5.9c1.9-1.4,4.8-2.1,8.7-2.1h6.2c0-1.7-0.5-3-1.6-3.9
		c-1-0.9-2.6-1.4-4.6-1.4c-1.4,0-2.8,0.2-4.2,0.7c-1.4,0.4-2.6,1.1-3.5,1.8l-2.8-5.4c1.5-1,3.2-1.8,5.3-2.4c2-0.6,4.2-0.8,6.3-0.8
		C347.8,140.9,351,141.9,353.3,143.9z M346.6,162.4c1-0.6,1.8-1.5,2.2-2.7v-2.8h-5.4c-3.2,0-4.8,1-4.8,3.1c0,1,0.4,1.8,1.2,2.4
		c0.8,0.6,1.9,0.9,3.2,0.9C344.4,163.3,345.6,163,346.6,162.4z"/>
	<path class="st8" d="M378.2,136.3c-0.9-0.8-1.4-1.9-1.4-3.1c0-1.2,0.5-2.3,1.4-3.1c0.9-0.8,2.1-1.2,3.5-1.2c1.4,0,2.6,0.4,3.5,1.2
		c0.9,0.8,1.4,1.8,1.4,3c0,1.3-0.5,2.4-1.4,3.2c-0.9,0.8-2.1,1.3-3.5,1.3C380.3,137.5,379.1,137.1,378.2,136.3z M377.8,141.3h7.8
		v26.9h-7.8V141.3z"/>
	<path class="st8" d="M417.3,143.9c2.1,2,3.1,5,3.1,8.9v15.4h-7.8V154c0-2.1-0.5-3.7-1.4-4.8c-0.9-1-2.3-1.6-4-1.6
		c-2,0-3.5,0.6-4.7,1.8c-1.2,1.2-1.8,3-1.8,5.4v13.3h-7.8v-26.9h7.4v3.1c1-1.1,2.3-2,3.9-2.6c1.5-0.6,3.2-0.9,5.1-0.9
		C412.6,140.9,415.3,141.9,417.3,143.9z"/>
	<path class="st8" d="M446,164.6c-2.8-2.8-4.2-6.7-4.2-11.9v-19.6h8.1v19.3c0,6.3,2.6,9.4,7.8,9.4c2.5,0,4.5-0.8,5.8-2.3
		c1.3-1.5,2-3.9,2-7.1v-19.3h8v19.6c0,5.1-1.4,9.1-4.2,11.9c-2.8,2.8-6.7,4.1-11.7,4.1S448.8,167.4,446,164.6z"/>
	<path class="st8" d="M492.2,141.9c1.6-0.7,3.4-1,5.5-1v7.2c-0.9-0.1-1.4-0.1-1.8-0.1c-2.2,0-4,0.6-5.2,1.9
		c-1.3,1.2-1.9,3.1-1.9,5.6v12.7H481v-26.9h7.4v3.5C489.4,143.5,490.6,142.5,492.2,141.9z"/>
	<path class="st8" d="M525.1,142.6c2,1.2,3.7,2.8,4.8,4.9c1.2,2.1,1.8,4.5,1.8,7.3c0,2.8-0.6,5.2-1.8,7.3c-1.2,2.1-2.8,3.7-4.8,4.8
		c-2.1,1.2-4.3,1.7-6.8,1.7c-3.7,0-6.5-1.2-8.5-3.5v3.1h-7.4v-37.1h7.8v13.1c2-2.2,4.7-3.2,8.1-3.2
		C520.7,140.9,523,141.5,525.1,142.6z M521.8,160.2c1.3-1.4,1.9-3.2,1.9-5.4c0-2.3-0.6-4.1-1.9-5.4c-1.3-1.4-2.9-2-4.9-2
		s-3.6,0.7-4.9,2c-1.3,1.4-1.9,3.2-1.9,5.4c0,2.3,0.6,4.1,1.9,5.4c1.3,1.4,2.9,2,4.9,2S520.5,161.5,521.8,160.2z"/>
	<path class="st8" d="M556.8,143.9c2.2,2,3.4,5,3.4,9v15.4h-7.3v-3.4c-1.5,2.5-4.2,3.8-8.2,3.8c-2.1,0-3.9-0.4-5.4-1
		c-1.5-0.7-2.7-1.7-3.5-2.9c-0.8-1.2-1.2-2.6-1.2-4.2c0-2.5,0.9-4.5,2.8-5.9c1.9-1.4,4.8-2.1,8.7-2.1h6.2c0-1.7-0.5-3-1.6-3.9
		c-1-0.9-2.6-1.4-4.6-1.4c-1.4,0-2.8,0.2-4.2,0.7c-1.4,0.4-2.6,1.1-3.5,1.8l-2.8-5.4c1.5-1,3.2-1.8,5.3-2.4c2-0.6,4.2-0.8,6.3-0.8
		C551.4,140.9,554.6,141.9,556.8,143.9z M550.2,162.4c1-0.6,1.8-1.5,2.2-2.7v-2.8H547c-3.2,0-4.8,1-4.8,3.1c0,1,0.4,1.8,1.2,2.4
		c0.8,0.6,1.9,0.9,3.2,0.9C548,163.3,549.1,163,550.2,162.4z"/>
	<path class="st8" d="M591.7,143.9c2.1,2,3.1,5,3.1,8.9v15.4h-7.8V154c0-2.1-0.5-3.7-1.4-4.8c-0.9-1-2.3-1.6-4-1.6
		c-2,0-3.5,0.6-4.7,1.8c-1.2,1.2-1.8,3-1.8,5.4v13.3h-7.8v-26.9h7.4v3.1c1-1.1,2.3-2,3.9-2.6c1.5-0.6,3.2-0.9,5.1-0.9
		C586.9,140.9,589.6,141.9,591.7,143.9z"/>
	<path class="st8" d="M648.3,168.2l0-21L638,164.5h-3.6l-10.2-16.8v20.5h-7.6v-35h6.7l13.1,21.8l12.9-21.8h6.6l0.1,35H648.3z"/>
	<path class="st8" d="M668.9,166.8c-2.2-1.2-4-2.8-5.3-4.9c-1.3-2.1-1.9-4.5-1.9-7.2c0-2.7,0.6-5,1.9-7.1c1.3-2.1,3-3.7,5.3-4.9
		c2.2-1.2,4.8-1.8,7.6-1.8c2.8,0,5.4,0.6,7.6,1.8c2.2,1.2,4,2.8,5.2,4.9c1.3,2.1,1.9,4.5,1.9,7.1c0,2.7-0.6,5.1-1.9,7.2
		c-1.3,2.1-3,3.7-5.2,4.9c-2.2,1.2-4.8,1.8-7.6,1.8C673.6,168.6,671.1,168,668.9,166.8z M681.4,160.2c1.3-1.4,1.9-3.2,1.9-5.4
		c0-2.3-0.6-4.1-1.9-5.4c-1.3-1.4-2.9-2-4.9-2s-3.6,0.7-4.9,2c-1.3,1.4-2,3.2-2,5.4c0,2.3,0.6,4.1,2,5.4c1.3,1.4,2.9,2,4.9,2
		S680.1,161.5,681.4,160.2z"/>
	<path class="st8" d="M719.2,142.6c2,1.2,3.7,2.8,4.8,4.9c1.2,2.1,1.8,4.5,1.8,7.3c0,2.8-0.6,5.2-1.8,7.3c-1.2,2.1-2.8,3.7-4.8,4.8
		c-2.1,1.2-4.3,1.7-6.8,1.7c-3.7,0-6.5-1.2-8.5-3.5v3.1h-7.4v-37.1h7.8v13.1c2-2.2,4.7-3.2,8.1-3.2
		C714.8,140.9,717.1,141.5,719.2,142.6z M715.9,160.2c1.3-1.4,1.9-3.2,1.9-5.4c0-2.3-0.6-4.1-1.9-5.4c-1.3-1.4-2.9-2-4.9-2
		s-3.6,0.7-4.9,2c-1.3,1.4-1.9,3.2-1.9,5.4c0,2.3,0.6,4.1,1.9,5.4c1.3,1.4,2.9,2,4.9,2S714.6,161.5,715.9,160.2z"/>
	<path class="st8" d="M731.3,136.3c-0.9-0.8-1.4-1.9-1.4-3.1c0-1.2,0.5-2.3,1.4-3.1c0.9-0.8,2.1-1.2,3.5-1.2c1.4,0,2.6,0.4,3.5,1.2
		c0.9,0.8,1.4,1.8,1.4,3c0,1.3-0.5,2.4-1.4,3.2c-0.9,0.8-2.1,1.3-3.5,1.3C733.4,137.5,732.2,137.1,731.3,136.3z M730.9,141.3h7.8
		v26.9h-7.8V141.3z"/>
	<path class="st8" d="M746,131.1h7.8v37.1H746V131.1z"/>
	<path class="st8" d="M761.4,136.3c-0.9-0.8-1.4-1.9-1.4-3.1c0-1.2,0.5-2.3,1.4-3.1c0.9-0.8,2.1-1.2,3.5-1.2c1.4,0,2.6,0.4,3.5,1.2
		c0.9,0.8,1.4,1.8,1.4,3c0,1.3-0.5,2.4-1.4,3.2c-0.9,0.8-2.1,1.3-3.5,1.3C763.5,137.5,762.3,137.1,761.4,136.3z M761,141.3h7.8v26.9
		H761V141.3z"/>
	<path class="st8" d="M793.4,166.9c-0.8,0.6-1.7,1-2.8,1.3c-1.1,0.3-2.3,0.4-3.5,0.4c-3.2,0-5.7-0.8-7.4-2.4c-1.8-1.6-2.6-4-2.6-7.2
		v-11h-4.1v-6h4.1v-6.6h7.8v6.6h6.7v6h-6.7v10.9c0,1.1,0.3,2,0.9,2.6c0.6,0.6,1.4,0.9,2.5,0.9c1.2,0,2.3-0.3,3.1-1L793.4,166.9z"/>
	<path class="st8" d="M824,141.3l-12.1,28.5c-1.2,3.1-2.8,5.3-4.6,6.6c-1.8,1.3-4,1.9-6.6,1.9c-1.4,0-2.8-0.2-4.1-0.6
		c-1.4-0.4-2.5-1-3.4-1.8l2.9-5.5c0.6,0.5,1.3,0.9,2.1,1.2c0.8,0.3,1.6,0.4,2.3,0.4c1.1,0,1.9-0.3,2.6-0.8c0.7-0.5,1.3-1.4,1.8-2.6
		l0.1-0.2l-11.6-27.1h8l7.6,18.2l7.6-18.2H824z"/>
</g>
<g>
	<path class="st8" d="M84.6,258.1h-8.9v-3.2h21.4v3.2h-8.9v22.7h-3.7V258.1z"/>
	<path class="st8" d="M117.1,263.1c1.5,1.4,2.2,3.6,2.2,6.3v11.3h-3.6v-10.9c0-1.9-0.5-3.3-1.4-4.3c-0.9-1-2.2-1.4-3.9-1.4
		c-1.9,0-3.4,0.6-4.6,1.7c-1.1,1.1-1.7,2.7-1.7,4.8v10.1h-3.6v-27.5h3.6v10.6c0.7-0.9,1.7-1.7,2.9-2.2c1.2-0.5,2.5-0.8,4-0.8
		C113.6,260.9,115.6,261.7,117.1,263.1z"/>
	<path class="st8" d="M143.6,272.1h-15.9c0.2,1.7,1,3.1,2.3,4.2c1.3,1,2.9,1.6,4.8,1.6c2.3,0,4.2-0.8,5.7-2.4l2,2.3
		c-0.9,1-2,1.8-3.3,2.4c-1.3,0.5-2.8,0.8-4.4,0.8c-2.1,0-3.9-0.4-5.5-1.3c-1.6-0.9-2.8-2-3.7-3.6c-0.9-1.5-1.3-3.3-1.3-5.2
		c0-1.9,0.4-3.6,1.3-5.1s2-2.7,3.5-3.6c1.5-0.9,3.2-1.3,5.1-1.3c1.9,0,3.5,0.4,5,1.3c1.5,0.9,2.6,2,3.4,3.6c0.8,1.5,1.2,3.3,1.2,5.3
		C143.7,271.3,143.7,271.7,143.6,272.1z M129.7,265.5c-1.1,1-1.8,2.4-2,4.1h12.6c-0.2-1.7-0.9-3-2-4.1c-1.1-1-2.6-1.6-4.3-1.6
		S130.9,264.5,129.7,265.5z"/>
	<path class="st8" d="M158.6,256.7c-0.5-0.4-0.7-1-0.7-1.6c0-0.6,0.2-1.2,0.7-1.6c0.5-0.5,1-0.7,1.7-0.7c0.7,0,1.3,0.2,1.7,0.6
		s0.7,1,0.7,1.6c0,0.7-0.2,1.2-0.7,1.7s-1,0.7-1.7,0.7C159.7,257.4,159.1,257.1,158.6,256.7z M158.6,261.1h3.6v19.6h-3.6V261.1z"/>
	<path class="st8" d="M185.3,263.1c1.5,1.4,2.2,3.6,2.2,6.3v11.3H184v-10.9c0-1.9-0.5-3.3-1.4-4.3c-0.9-1-2.2-1.4-3.9-1.4
		c-1.9,0-3.4,0.6-4.6,1.7c-1.1,1.1-1.7,2.7-1.7,4.8v10.1h-3.6v-19.6h3.4v3c0.7-1,1.7-1.8,2.9-2.3c1.2-0.5,2.6-0.8,4.2-0.8
		C181.9,260.9,183.8,261.7,185.3,263.1z"/>
	<path class="st8" d="M194.2,256.7c-0.5-0.4-0.7-1-0.7-1.6c0-0.6,0.2-1.2,0.7-1.6c0.5-0.5,1-0.7,1.7-0.7c0.7,0,1.3,0.2,1.7,0.6
		s0.7,1,0.7,1.6c0,0.7-0.2,1.2-0.7,1.7s-1,0.7-1.7,0.7C195.2,257.4,194.6,257.1,194.2,256.7z M194.1,261.1h3.6v19.6h-3.6V261.1z"/>
	<path class="st8" d="M215.4,279.6c-0.5,0.4-1.2,0.8-1.9,1c-0.8,0.2-1.6,0.4-2.4,0.4c-2,0-3.5-0.5-4.6-1.6c-1.1-1.1-1.6-2.6-1.6-4.6
		V264h-3.3v-2.9h3.3v-4.3h3.6v4.3h5.6v2.9h-5.6v10.6c0,1.1,0.3,1.9,0.8,2.4c0.5,0.6,1.3,0.9,2.3,0.9c1.1,0,2-0.3,2.8-0.9
		L215.4,279.6z"/>
	<path class="st8" d="M219.8,256.7c-0.5-0.4-0.7-1-0.7-1.6c0-0.6,0.2-1.2,0.7-1.6c0.5-0.5,1-0.7,1.7-0.7c0.7,0,1.3,0.2,1.7,0.6
		s0.7,1,0.7,1.6c0,0.7-0.2,1.2-0.7,1.7s-1,0.7-1.7,0.7C220.8,257.4,220.3,257.1,219.8,256.7z M219.7,261.1h3.6v19.6h-3.6V261.1z"/>
	<path class="st8" d="M243.4,262.9c1.4,1.3,2.2,3.3,2.2,6v11.8h-3.4v-2.6c-0.6,0.9-1.4,1.6-2.5,2.1c-1.1,0.5-2.4,0.7-3.9,0.7
		c-2.2,0-4-0.5-5.3-1.6c-1.3-1.1-2-2.5-2-4.2s0.6-3.1,1.9-4.2c1.3-1,3.3-1.6,6-1.6h5.6v-0.7c0-1.5-0.4-2.7-1.3-3.5
		c-0.9-0.8-2.2-1.2-3.9-1.2c-1.2,0-2.3,0.2-3.4,0.6c-1.1,0.4-2,0.9-2.8,1.5l-1.5-2.7c1-0.8,2.2-1.4,3.6-1.9c1.4-0.4,2.9-0.6,4.5-0.6
		C239.9,260.9,242,261.6,243.4,262.9z M239.9,277.3c1-0.6,1.7-1.5,2.1-2.6V272h-5.5c-3,0-4.5,1-4.5,3c0,1,0.4,1.8,1.1,2.3
		c0.8,0.6,1.8,0.9,3.2,0.9C237.7,278.2,238.9,277.9,239.9,277.3z"/>
	<path class="st8" d="M263.2,279.6c-0.5,0.4-1.2,0.8-1.9,1c-0.8,0.2-1.6,0.4-2.4,0.4c-2,0-3.5-0.5-4.6-1.6c-1.1-1.1-1.6-2.6-1.6-4.6
		V264h-3.3v-2.9h3.3v-4.3h3.6v4.3h5.6v2.9h-5.6v10.6c0,1.1,0.3,1.9,0.8,2.4c0.5,0.6,1.3,0.9,2.3,0.9c1.1,0,2-0.3,2.8-0.9
		L263.2,279.6z"/>
	<path class="st8" d="M267.6,256.7c-0.5-0.4-0.7-1-0.7-1.6c0-0.6,0.2-1.2,0.7-1.6c0.5-0.5,1-0.7,1.7-0.7c0.7,0,1.3,0.2,1.7,0.6
		s0.7,1,0.7,1.6c0,0.7-0.2,1.2-0.7,1.7s-1,0.7-1.7,0.7C268.6,257.4,268,257.1,267.6,256.7z M267.5,261.1h3.6v19.6h-3.6V261.1z"/>
	<path class="st8" d="M295.2,261.1l-8.6,19.6H283l-8.6-19.6h3.7l6.7,15.7l6.9-15.7H295.2z"/>
	<path class="st8" d="M315.6,272.1h-15.9c0.2,1.7,1,3.1,2.3,4.2c1.3,1,2.9,1.6,4.8,1.6c2.3,0,4.2-0.8,5.7-2.4l2,2.3
		c-0.9,1-2,1.8-3.3,2.4c-1.3,0.5-2.8,0.8-4.4,0.8c-2.1,0-3.9-0.4-5.5-1.3c-1.6-0.9-2.8-2-3.7-3.6c-0.9-1.5-1.3-3.3-1.3-5.2
		c0-1.9,0.4-3.6,1.3-5.1s2-2.7,3.5-3.6c1.5-0.9,3.2-1.3,5.1-1.3c1.9,0,3.5,0.4,5,1.3c1.5,0.9,2.6,2,3.4,3.6c0.8,1.5,1.2,3.3,1.2,5.3
		C315.7,271.3,315.7,271.7,315.6,272.1z M301.7,265.5c-1.1,1-1.8,2.4-2,4.1h12.6c-0.2-1.7-0.9-3-2-4.1c-1.1-1-2.6-1.6-4.3-1.6
		S302.9,264.5,301.7,265.5z"/>
	<path class="st8" d="M360.2,261.1l-7.3,19.6h-3.4l-5.7-14.9l-5.7,14.9h-3.4l-7.3-19.6h3.4l5.7,15.6l5.9-15.6h3l5.8,15.7l5.8-15.7
		H360.2z"/>
	<path class="st8" d="M363.9,256.7c-0.5-0.4-0.7-1-0.7-1.6c0-0.6,0.2-1.2,0.7-1.6c0.5-0.5,1-0.7,1.7-0.7c0.7,0,1.3,0.2,1.7,0.6
		s0.7,1,0.7,1.6c0,0.7-0.2,1.2-0.7,1.7s-1,0.7-1.7,0.7C364.9,257.4,364.3,257.1,363.9,256.7z M363.8,261.1h3.6v19.6h-3.6V261.1z"/>
	<path class="st8" d="M374.1,253.3h3.6v27.5h-3.6V253.3z"/>
	<path class="st8" d="M384.5,253.3h3.6v27.5h-3.6V253.3z"/>
	<path class="st8" d="M422.4,272.1h-15.9c0.2,1.7,1,3.1,2.3,4.2c1.3,1,2.9,1.6,4.8,1.6c2.3,0,4.2-0.8,5.7-2.4l2,2.3
		c-0.9,1-2,1.8-3.3,2.4c-1.3,0.5-2.8,0.8-4.4,0.8c-2.1,0-3.9-0.4-5.5-1.3c-1.6-0.9-2.8-2-3.7-3.6c-0.9-1.5-1.3-3.3-1.3-5.2
		c0-1.9,0.4-3.6,1.3-5.1s2-2.7,3.5-3.6c1.5-0.9,3.2-1.3,5.1-1.3c1.9,0,3.5,0.4,5,1.3c1.5,0.9,2.6,2,3.4,3.6c0.8,1.5,1.2,3.3,1.2,5.3
		C422.5,271.3,422.4,271.7,422.4,272.1z M408.5,265.5c-1.1,1-1.8,2.4-2,4.1h12.6c-0.2-1.7-0.9-3-2-4.1c-1.1-1-2.6-1.6-4.3-1.6
		S409.6,264.5,408.5,265.5z"/>
	<path class="st8" d="M443.8,263.1c1.5,1.4,2.2,3.6,2.2,6.3v11.3h-3.6v-10.9c0-1.9-0.5-3.3-1.4-4.3c-0.9-1-2.2-1.4-3.9-1.4
		c-1.9,0-3.4,0.6-4.6,1.7c-1.1,1.1-1.7,2.7-1.7,4.8v10.1h-3.6v-19.6h3.4v3c0.7-1,1.7-1.8,2.9-2.3c1.2-0.5,2.6-0.8,4.2-0.8
		C440.3,260.9,442.3,261.7,443.8,263.1z"/>
	<path class="st8" d="M469,263.1c1.5,1.4,2.2,3.6,2.2,6.3v11.3h-3.6v-10.9c0-1.9-0.5-3.3-1.4-4.3c-0.9-1-2.2-1.4-3.9-1.4
		c-1.9,0-3.4,0.6-4.6,1.7c-1.1,1.1-1.7,2.7-1.7,4.8v10.1h-3.6v-27.5h3.6v10.6c0.7-0.9,1.7-1.7,2.9-2.2c1.2-0.5,2.5-0.8,4-0.8
		C465.5,260.9,467.5,261.7,469,263.1z"/>
	<path class="st8" d="M491.1,262.9c1.4,1.3,2.2,3.3,2.2,6v11.8h-3.4v-2.6c-0.6,0.9-1.4,1.6-2.5,2.1c-1.1,0.5-2.4,0.7-3.9,0.7
		c-2.2,0-4-0.5-5.3-1.6c-1.3-1.1-2-2.5-2-4.2s0.6-3.1,1.9-4.2c1.3-1,3.3-1.6,6-1.6h5.6v-0.7c0-1.5-0.4-2.7-1.3-3.5
		c-0.9-0.8-2.2-1.2-3.9-1.2c-1.2,0-2.3,0.2-3.4,0.6c-1.1,0.4-2,0.9-2.8,1.5l-1.5-2.7c1-0.8,2.2-1.4,3.6-1.9c1.4-0.4,2.9-0.6,4.5-0.6
		C487.6,260.9,489.7,261.6,491.1,262.9z M487.6,277.3c1-0.6,1.7-1.5,2.1-2.6V272h-5.5c-3,0-4.5,1-4.5,3c0,1,0.4,1.8,1.1,2.3
		c0.8,0.6,1.8,0.9,3.2,0.9C485.5,278.2,486.6,277.9,487.6,277.3z"/>
	<path class="st8" d="M516.3,263.1c1.5,1.4,2.2,3.6,2.2,6.3v11.3H515v-10.9c0-1.9-0.5-3.3-1.4-4.3c-0.9-1-2.2-1.4-3.9-1.4
		c-1.9,0-3.4,0.6-4.6,1.7c-1.1,1.1-1.7,2.7-1.7,4.8v10.1h-3.6v-19.6h3.4v3c0.7-1,1.7-1.8,2.9-2.3c1.2-0.5,2.6-0.8,4.2-0.8
		C512.9,260.9,514.8,261.7,516.3,263.1z"/>
	<path class="st8" d="M528.4,279.7c-1.6-0.9-2.8-2.1-3.7-3.6c-0.9-1.5-1.3-3.2-1.3-5.2c0-1.9,0.4-3.6,1.3-5.2
		c0.9-1.5,2.1-2.7,3.7-3.6c1.6-0.9,3.3-1.3,5.3-1.3c1.8,0,3.4,0.4,4.8,1.1c1.4,0.7,2.5,1.8,3.2,3.1l-2.7,1.7
		c-0.6-0.9-1.4-1.6-2.3-2.1c-0.9-0.5-1.9-0.7-3-0.7c-1.3,0-2.4,0.3-3.5,0.9c-1,0.6-1.8,1.4-2.4,2.4c-0.6,1-0.9,2.3-0.9,3.6
		c0,1.4,0.3,2.6,0.9,3.6c0.6,1,1.4,1.9,2.4,2.4c1,0.6,2.2,0.9,3.5,0.9c1.1,0,2.1-0.2,3-0.7c0.9-0.5,1.7-1.2,2.3-2.1l2.7,1.7
		c-0.8,1.4-1.8,2.4-3.2,3.1c-1.4,0.7-3,1.1-4.8,1.1C531.8,281,530,280.5,528.4,279.7z"/>
	<path class="st8" d="M563.7,272.1h-15.9c0.2,1.7,1,3.1,2.3,4.2c1.3,1,2.9,1.6,4.8,1.6c2.3,0,4.2-0.8,5.7-2.4l2,2.3
		c-0.9,1-2,1.8-3.3,2.4c-1.3,0.5-2.8,0.8-4.4,0.8c-2.1,0-3.9-0.4-5.5-1.3c-1.6-0.9-2.8-2-3.7-3.6c-0.9-1.5-1.3-3.3-1.3-5.2
		c0-1.9,0.4-3.6,1.3-5.1s2-2.7,3.5-3.6c1.5-0.9,3.2-1.3,5.1-1.3c1.9,0,3.5,0.4,5,1.3c1.5,0.9,2.6,2,3.4,3.6c0.8,1.5,1.2,3.3,1.2,5.3
		C563.8,271.3,563.7,271.7,563.7,272.1z M549.8,265.5c-1.1,1-1.8,2.4-2,4.1h12.6c-0.2-1.7-0.9-3-2-4.1c-1.1-1-2.6-1.6-4.3-1.6
		S550.9,264.5,549.8,265.5z"/>
	<path class="st8" d="M589.7,279.6c-0.5,0.4-1.2,0.8-1.9,1c-0.8,0.2-1.6,0.4-2.4,0.4c-2,0-3.5-0.5-4.6-1.6c-1.1-1.1-1.6-2.6-1.6-4.6
		V264h-3.3v-2.9h3.3v-4.3h3.6v4.3h5.6v2.9h-5.6v10.6c0,1.1,0.3,1.9,0.8,2.4c0.5,0.6,1.3,0.9,2.3,0.9c1.1,0,2-0.3,2.8-0.9
		L589.7,279.6z"/>
	<path class="st8" d="M610.4,263.1c1.5,1.4,2.2,3.6,2.2,6.3v11.3H609v-10.9c0-1.9-0.5-3.3-1.4-4.3c-0.9-1-2.2-1.4-3.9-1.4
		c-1.9,0-3.4,0.6-4.6,1.7c-1.1,1.1-1.7,2.7-1.7,4.8v10.1H594v-27.5h3.6v10.6c0.7-0.9,1.7-1.7,2.9-2.2c1.2-0.5,2.5-0.8,4-0.8
		C606.9,260.9,608.9,261.7,610.4,263.1z"/>
	<path class="st8" d="M636.9,272.1H621c0.2,1.7,1,3.1,2.3,4.2c1.3,1,2.9,1.6,4.8,1.6c2.3,0,4.2-0.8,5.7-2.4l2,2.3
		c-0.9,1-2,1.8-3.3,2.4c-1.3,0.5-2.8,0.8-4.4,0.8c-2.1,0-3.9-0.4-5.5-1.3c-1.6-0.9-2.8-2-3.7-3.6c-0.9-1.5-1.3-3.3-1.3-5.2
		c0-1.9,0.4-3.6,1.3-5.1s2-2.7,3.5-3.6c1.5-0.9,3.2-1.3,5.1-1.3c1.9,0,3.5,0.4,5,1.3c1.5,0.9,2.6,2,3.4,3.6c0.8,1.5,1.2,3.3,1.2,5.3
		C637,271.3,637,271.7,636.9,272.1z M623,265.5c-1.1,1-1.8,2.4-2,4.1h12.6c-0.2-1.7-0.9-3-2-4.1c-1.1-1-2.6-1.6-4.3-1.6
		S624.2,264.5,623,265.5z"/>
	<path class="st8" d="M669.5,272.1h-15.9c0.2,1.7,1,3.1,2.3,4.2c1.3,1,2.9,1.6,4.8,1.6c2.3,0,4.2-0.8,5.7-2.4l2,2.3
		c-0.9,1-2,1.8-3.3,2.4c-1.3,0.5-2.8,0.8-4.4,0.8c-2.1,0-3.9-0.4-5.5-1.3c-1.6-0.9-2.8-2-3.7-3.6c-0.9-1.5-1.3-3.3-1.3-5.2
		c0-1.9,0.4-3.6,1.3-5.1s2-2.7,3.5-3.6c1.5-0.9,3.2-1.3,5.1-1.3c1.9,0,3.5,0.4,5,1.3c1.5,0.9,2.6,2,3.4,3.6c0.8,1.5,1.2,3.3,1.2,5.3
		C669.6,271.3,669.6,271.7,669.5,272.1z M655.6,265.5c-1.1,1-1.8,2.4-2,4.1h12.6c-0.2-1.7-0.9-3-2-4.1c-1.1-1-2.6-1.6-4.3-1.6
		S656.8,264.5,655.6,265.5z"/>
	<path class="st8" d="M678.5,259.4v1.7h5.7v2.9h-5.6v16.7H675V264h-3.3v-2.9h3.3v-1.7c0-1.9,0.6-3.5,1.7-4.6
		c1.1-1.1,2.7-1.7,4.8-1.7c0.8,0,1.5,0.1,2.2,0.3c0.7,0.2,1.3,0.5,1.8,0.9l-1.1,2.7c-0.8-0.6-1.7-0.9-2.7-0.9
		C679.6,256,678.5,257.1,678.5,259.4z"/>
	<path class="st8" d="M691.6,259.4v1.7h5.7v2.9h-5.6v16.7h-3.6V264h-3.3v-2.9h3.3v-1.7c0-1.9,0.6-3.5,1.7-4.6
		c1.1-1.1,2.7-1.7,4.8-1.7c0.8,0,1.5,0.1,2.2,0.3c0.7,0.2,1.3,0.5,1.8,0.9l-1.1,2.7c-0.8-0.6-1.7-0.9-2.7-0.9
		C692.6,256,691.6,257.1,691.6,259.4z"/>
	<path class="st8" d="M718,272.1h-15.9c0.2,1.7,1,3.1,2.3,4.2c1.3,1,2.9,1.6,4.8,1.6c2.3,0,4.2-0.8,5.7-2.4l2,2.3
		c-0.9,1-2,1.8-3.3,2.4c-1.3,0.5-2.8,0.8-4.4,0.8c-2.1,0-3.9-0.4-5.5-1.3c-1.6-0.9-2.8-2-3.7-3.6c-0.9-1.5-1.3-3.3-1.3-5.2
		c0-1.9,0.4-3.6,1.3-5.1s2-2.7,3.5-3.6c1.5-0.9,3.2-1.3,5.1-1.3c1.9,0,3.5,0.4,5,1.3c1.5,0.9,2.6,2,3.4,3.6c0.8,1.5,1.2,3.3,1.2,5.3
		C718.1,271.3,718,271.7,718,272.1z M704.1,265.5c-1.1,1-1.8,2.4-2,4.1h12.6c-0.2-1.7-0.9-3-2-4.1c-1.1-1-2.6-1.6-4.3-1.6
		S705.2,264.5,704.1,265.5z"/>
	<path class="st8" d="M726.2,279.7c-1.6-0.9-2.8-2.1-3.7-3.6c-0.9-1.5-1.3-3.2-1.3-5.2c0-1.9,0.4-3.6,1.3-5.2
		c0.9-1.5,2.1-2.7,3.7-3.6c1.6-0.9,3.3-1.3,5.3-1.3c1.8,0,3.4,0.4,4.8,1.1c1.4,0.7,2.5,1.8,3.2,3.1l-2.7,1.7
		c-0.6-0.9-1.4-1.6-2.3-2.1c-0.9-0.5-1.9-0.7-3-0.7c-1.3,0-2.4,0.3-3.5,0.9c-1,0.6-1.8,1.4-2.4,2.4c-0.6,1-0.9,2.3-0.9,3.6
		c0,1.4,0.3,2.6,0.9,3.6c0.6,1,1.4,1.9,2.4,2.4c1,0.6,2.2,0.9,3.5,0.9c1.1,0,2.1-0.2,3-0.7c0.9-0.5,1.7-1.2,2.3-2.1l2.7,1.7
		c-0.8,1.4-1.8,2.4-3.2,3.1c-1.4,0.7-3,1.1-4.8,1.1C729.5,281,727.7,280.5,726.2,279.7z"/>
	<path class="st8" d="M755.4,279.6c-0.5,0.4-1.2,0.8-1.9,1c-0.8,0.2-1.6,0.4-2.4,0.4c-2,0-3.5-0.5-4.6-1.6c-1.1-1.1-1.6-2.6-1.6-4.6
		V264h-3.3v-2.9h3.3v-4.3h3.6v4.3h5.6v2.9h-5.6v10.6c0,1.1,0.3,1.9,0.8,2.4c0.5,0.6,1.3,0.9,2.3,0.9c1.1,0,2-0.3,2.8-0.9
		L755.4,279.6z"/>
	<path class="st8" d="M759.7,256.7c-0.5-0.4-0.7-1-0.7-1.6c0-0.6,0.2-1.2,0.7-1.6c0.5-0.5,1-0.7,1.7-0.7c0.7,0,1.3,0.2,1.7,0.6
		s0.7,1,0.7,1.6c0,0.7-0.2,1.2-0.7,1.7s-1,0.7-1.7,0.7C760.8,257.4,760.2,257.1,759.7,256.7z M759.7,261.1h3.6v19.6h-3.6V261.1z"/>
	<path class="st8" d="M787.4,261.1l-8.6,19.6h-3.6l-8.6-19.6h3.7l6.7,15.7l6.9-15.7H787.4z"/>
	<path class="st8" d="M807.8,272.1h-15.9c0.2,1.7,1,3.1,2.3,4.2c1.3,1,2.9,1.6,4.8,1.6c2.3,0,4.2-0.8,5.7-2.4l2,2.3
		c-0.9,1-2,1.8-3.3,2.4c-1.3,0.5-2.8,0.8-4.4,0.8c-2.1,0-3.9-0.4-5.5-1.3c-1.6-0.9-2.8-2-3.7-3.6c-0.9-1.5-1.3-3.3-1.3-5.2
		c0-1.9,0.4-3.6,1.3-5.1s2-2.7,3.5-3.6c1.5-0.9,3.2-1.3,5.1-1.3c1.9,0,3.5,0.4,5,1.3c1.5,0.9,2.6,2,3.4,3.6c0.8,1.5,1.2,3.3,1.2,5.3
		C807.8,271.3,807.8,271.7,807.8,272.1z M793.9,265.5c-1.1,1-1.8,2.4-2,4.1h12.6c-0.2-1.7-0.9-3-2-4.1c-1.1-1-2.6-1.6-4.3-1.6
		S795,264.5,793.9,265.5z"/>
	<path class="st8" d="M841,261.1v19.6h-3.4v-3c-0.7,1-1.7,1.8-2.8,2.3c-1.2,0.6-2.4,0.8-3.8,0.8c-2.6,0-4.7-0.7-6.2-2.2
		c-1.5-1.4-2.3-3.6-2.3-6.4v-11.3h3.6V272c0,1.9,0.5,3.3,1.4,4.3c0.9,1,2.2,1.5,3.9,1.5c1.9,0,3.4-0.6,4.4-1.7s1.6-2.7,1.6-4.8
		v-10.1H841z"/>
	<path class="st8" d="M848.8,280.3c-1.5-0.4-2.6-1-3.5-1.6l1.5-2.8c0.9,0.6,1.9,1.1,3.1,1.5c1.2,0.4,2.5,0.6,3.7,0.6
		c3.1,0,4.7-0.9,4.7-2.7c0-0.6-0.2-1.1-0.6-1.4c-0.4-0.3-0.9-0.6-1.6-0.8c-0.6-0.2-1.5-0.3-2.7-0.5c-1.6-0.2-2.9-0.5-3.9-0.9
		c-1-0.3-1.9-0.9-2.6-1.6s-1.1-1.8-1.1-3.2c0-1.8,0.7-3.2,2.2-4.3s3.5-1.6,6-1.6c1.3,0,2.6,0.2,3.9,0.5c1.3,0.3,2.4,0.8,3.2,1.3
		l-1.5,2.8c-1.6-1-3.5-1.6-5.7-1.6c-1.5,0-2.7,0.2-3.4,0.7c-0.8,0.5-1.2,1.1-1.2,2c0,0.6,0.2,1.1,0.7,1.5c0.4,0.4,1,0.6,1.6,0.8
		c0.7,0.2,1.6,0.4,2.8,0.6c1.6,0.3,2.9,0.6,3.8,0.9c1,0.3,1.8,0.8,2.5,1.6c0.7,0.7,1,1.8,1,3.1c0,1.8-0.8,3.2-2.3,4.2
		c-1.5,1-3.6,1.6-6.2,1.6C851.8,281,850.2,280.7,848.8,280.3z"/>
	<path class="st8" d="M879.7,262.9c1.4,1.3,2.2,3.3,2.2,6v11.8h-3.4v-2.6c-0.6,0.9-1.4,1.6-2.5,2.1c-1.1,0.5-2.4,0.7-3.9,0.7
		c-2.2,0-4-0.5-5.3-1.6c-1.3-1.1-2-2.5-2-4.2s0.6-3.1,1.9-4.2c1.3-1,3.3-1.6,6-1.6h5.6v-0.7c0-1.5-0.4-2.7-1.3-3.5
		c-0.9-0.8-2.2-1.2-3.9-1.2c-1.2,0-2.3,0.2-3.4,0.6c-1.1,0.4-2,0.9-2.8,1.5l-1.5-2.7c1-0.8,2.2-1.4,3.6-1.9c1.4-0.4,2.9-0.6,4.5-0.6
		C876.2,260.9,878.2,261.6,879.7,262.9z M876.1,277.3c1-0.6,1.7-1.5,2.1-2.6V272h-5.5c-3,0-4.5,1-4.5,3c0,1,0.4,1.8,1.1,2.3
		c0.8,0.6,1.8,0.9,3.2,0.9C874,278.2,875.2,277.9,876.1,277.3z"/>
	<path class="st8" d="M907.3,261.1v16.9c0,3.4-0.9,6-2.6,7.6c-1.7,1.6-4.2,2.5-7.6,2.5c-1.9,0-3.6-0.3-5.3-0.8
		c-1.7-0.5-3-1.2-4.1-2.2l1.7-2.7c0.9,0.8,2,1.4,3.4,1.9c1.3,0.5,2.7,0.7,4.2,0.7c2.3,0,4-0.5,5.1-1.6c1.1-1.1,1.6-2.7,1.6-5v-1.6
		c-0.8,1-1.9,1.8-3.1,2.3s-2.5,0.8-4,0.8c-1.9,0-3.6-0.4-5.1-1.2c-1.5-0.8-2.7-1.9-3.6-3.4c-0.9-1.4-1.3-3.1-1.3-4.9
		s0.4-3.5,1.3-4.9c0.9-1.4,2.1-2.6,3.6-3.3c1.5-0.8,3.2-1.2,5.1-1.2c1.5,0,2.9,0.3,4.1,0.8c1.3,0.5,2.3,1.3,3.1,2.4v-3H907.3z
		 M900.5,276c1-0.5,1.8-1.3,2.4-2.3c0.6-1,0.9-2.1,0.9-3.3c0-1.9-0.6-3.4-1.9-4.6c-1.3-1.2-2.9-1.8-4.8-1.8c-2,0-3.6,0.6-4.9,1.8
		c-1.3,1.2-1.9,2.7-1.9,4.6c0,1.2,0.3,2.3,0.9,3.3c0.6,1,1.4,1.7,2.4,2.3c1,0.5,2.2,0.8,3.5,0.8C898.4,276.8,899.5,276.5,900.5,276z
		"/>
	<path class="st8" d="M931.7,272.1h-15.9c0.2,1.7,1,3.1,2.3,4.2c1.3,1,2.9,1.6,4.8,1.6c2.3,0,4.2-0.8,5.7-2.4l2,2.3
		c-0.9,1-2,1.8-3.3,2.4c-1.3,0.5-2.8,0.8-4.4,0.8c-2.1,0-3.9-0.4-5.5-1.3c-1.6-0.9-2.8-2-3.7-3.6c-0.9-1.5-1.3-3.3-1.3-5.2
		c0-1.9,0.4-3.6,1.3-5.1c0.9-1.5,2-2.7,3.5-3.6c1.5-0.9,3.2-1.3,5-1.3s3.5,0.4,5,1.3c1.5,0.9,2.6,2,3.4,3.6c0.8,1.5,1.2,3.3,1.2,5.3
		C931.8,271.3,931.8,271.7,931.7,272.1z M917.8,265.5c-1.1,1-1.8,2.4-2,4.1h12.6c-0.2-1.7-0.9-3-2-4.1c-1.1-1-2.6-1.6-4.3-1.6
		S919,264.5,917.8,265.5z"/>
	<path class="st8" d="M949.8,279.7c-1.6-0.9-2.8-2.1-3.6-3.6c-0.9-1.5-1.3-3.2-1.3-5.2c0-1.9,0.4-3.6,1.3-5.2
		c0.9-1.5,2.1-2.7,3.6-3.6c1.6-0.9,3.3-1.3,5.3-1.3c1.9,0,3.7,0.4,5.2,1.3c1.5,0.9,2.8,2,3.6,3.6c0.9,1.5,1.3,3.2,1.3,5.2
		c0,1.9-0.4,3.6-1.3,5.2c-0.9,1.5-2.1,2.7-3.6,3.6c-1.5,0.9-3.3,1.3-5.2,1.3C953.1,281,951.4,280.5,949.8,279.7z M958.5,277
		c1-0.6,1.8-1.4,2.3-2.4c0.6-1,0.9-2.3,0.9-3.6c0-1.4-0.3-2.6-0.9-3.6c-0.6-1-1.4-1.9-2.3-2.4s-2.1-0.9-3.4-0.9
		c-1.3,0-2.4,0.3-3.4,0.9s-1.8,1.4-2.4,2.4c-0.6,1-0.9,2.3-0.9,3.6c0,1.4,0.3,2.6,0.9,3.6c0.6,1,1.4,1.9,2.4,2.4
		c1,0.6,2.1,0.9,3.4,0.9C956.3,277.8,957.5,277.6,958.5,277z"/>
	<path class="st8" d="M974.2,259.4v1.7h5.7v2.9h-5.6v16.7h-3.6V264h-3.3v-2.9h3.3v-1.7c0-1.9,0.6-3.5,1.7-4.6
		c1.1-1.1,2.7-1.7,4.8-1.7c0.8,0,1.5,0.1,2.2,0.3c0.7,0.2,1.3,0.5,1.8,0.9l-1.1,2.7c-0.8-0.6-1.7-0.9-2.7-0.9
		C975.2,256,974.2,257.1,974.2,259.4z"/>
	<path class="st8" d="M1023.6,263.1c1.4,1.4,2.2,3.6,2.2,6.4v11.3h-3.6v-10.9c0-1.9-0.4-3.3-1.3-4.3s-2.1-1.4-3.8-1.4
		c-1.8,0-3.2,0.6-4.3,1.7c-1.1,1.1-1.6,2.7-1.6,4.8v10.1h-3.6v-10.9c0-1.9-0.4-3.3-1.3-4.3c-0.9-1-2.1-1.4-3.8-1.4
		c-1.8,0-3.2,0.6-4.3,1.7c-1.1,1.1-1.6,2.7-1.6,4.8v10.1h-3.6v-19.6h3.4v2.9c0.7-1,1.7-1.8,2.8-2.3c1.2-0.5,2.5-0.8,4-0.8
		c1.5,0,2.9,0.3,4.1,0.9c1.2,0.6,2.1,1.5,2.7,2.7c0.7-1.1,1.8-2,3.1-2.7s2.8-1,4.5-1C1020.2,260.9,1022.1,261.7,1023.6,263.1z"/>
	<path class="st8" d="M1035.5,279.7c-1.6-0.9-2.8-2.1-3.6-3.6c-0.9-1.5-1.3-3.2-1.3-5.2c0-1.9,0.4-3.6,1.3-5.2
		c0.9-1.5,2.1-2.7,3.6-3.6c1.6-0.9,3.3-1.3,5.3-1.3c1.9,0,3.7,0.4,5.2,1.3c1.5,0.9,2.8,2,3.6,3.6c0.9,1.5,1.3,3.2,1.3,5.2
		c0,1.9-0.4,3.6-1.3,5.2c-0.9,1.5-2.1,2.7-3.6,3.6c-1.5,0.9-3.3,1.3-5.2,1.3C1038.8,281,1037.1,280.5,1035.5,279.7z M1044.2,277
		c1-0.6,1.8-1.4,2.3-2.4c0.6-1,0.9-2.3,0.9-3.6c0-1.4-0.3-2.6-0.9-3.6c-0.6-1-1.4-1.9-2.3-2.4s-2.1-0.9-3.4-0.9
		c-1.3,0-2.4,0.3-3.4,0.9s-1.8,1.4-2.4,2.4c-0.6,1-0.9,2.3-0.9,3.6c0,1.4,0.3,2.6,0.9,3.6c0.6,1,1.4,1.9,2.4,2.4
		c1,0.6,2.1,0.9,3.4,0.9C1042.1,277.8,1043.2,277.6,1044.2,277z"/>
	<path class="st8" d="M1071.4,262.2c1.5,0.8,2.7,2,3.5,3.5c0.9,1.5,1.3,3.2,1.3,5.2c0,2-0.4,3.7-1.3,5.2c-0.9,1.5-2,2.7-3.5,3.5
		c-1.5,0.8-3.2,1.3-5.1,1.3c-1.5,0-2.8-0.3-4-0.9c-1.2-0.6-2.2-1.4-3-2.5v3.1h-3.4v-27.5h3.6v10.8c0.8-1,1.8-1.8,3-2.3
		c1.2-0.5,2.5-0.8,3.9-0.8C1068.2,260.9,1069.9,261.4,1071.4,262.2z M1069.4,277c1-0.6,1.8-1.4,2.4-2.4c0.6-1,0.9-2.3,0.9-3.6
		c0-1.4-0.3-2.6-0.9-3.6c-0.6-1-1.4-1.9-2.4-2.4s-2.1-0.9-3.4-0.9c-1.2,0-2.4,0.3-3.4,0.9s-1.8,1.4-2.4,2.4c-0.6,1-0.9,2.3-0.9,3.6
		c0,1.4,0.3,2.6,0.9,3.6c0.6,1,1.4,1.9,2.4,2.4c1,0.6,2.1,0.9,3.4,0.9C1067.3,277.8,1068.4,277.6,1069.4,277z"/>
	<path class="st8" d="M1081.2,256.7c-0.5-0.4-0.7-1-0.7-1.6c0-0.6,0.2-1.2,0.7-1.6c0.5-0.5,1-0.7,1.7-0.7c0.7,0,1.3,0.2,1.7,0.6
		c0.5,0.4,0.7,1,0.7,1.6c0,0.7-0.2,1.2-0.7,1.7c-0.5,0.5-1,0.7-1.7,0.7C1082.2,257.4,1081.6,257.1,1081.2,256.7z M1081.1,261.1h3.6
		v19.6h-3.6V261.1z"/>
	<path class="st8" d="M1091.4,253.3h3.6v27.5h-3.6V253.3z"/>
	<path class="st8" d="M1101.8,256.7c-0.5-0.4-0.7-1-0.7-1.6c0-0.6,0.2-1.2,0.7-1.6c0.5-0.5,1-0.7,1.7-0.7c0.7,0,1.3,0.2,1.7,0.6
		c0.5,0.4,0.7,1,0.7,1.6c0,0.7-0.2,1.2-0.7,1.7c-0.5,0.5-1,0.7-1.7,0.7C1102.9,257.4,1102.3,257.1,1101.8,256.7z M1101.8,261.1h3.6
		v19.6h-3.6V261.1z"/>
	<path class="st8" d="M1123.1,279.6c-0.5,0.4-1.2,0.8-1.9,1s-1.6,0.4-2.4,0.4c-2,0-3.5-0.5-4.6-1.6c-1.1-1.1-1.6-2.6-1.6-4.6V264
		h-3.3v-2.9h3.3v-4.3h3.6v4.3h5.6v2.9h-5.6v10.6c0,1.1,0.3,1.9,0.8,2.4c0.5,0.6,1.3,0.9,2.3,0.9c1.1,0,2-0.3,2.8-0.9L1123.1,279.6z"
		/>
	<path class="st8" d="M1144.4,261.1l-9.5,21.6c-0.8,2-1.8,3.4-2.9,4.2c-1.1,0.8-2.5,1.2-4.1,1.2c-1,0-1.9-0.2-2.8-0.5
		c-0.9-0.3-1.6-0.8-2.2-1.4l1.5-2.7c1,1,2.2,1.4,3.5,1.4c0.9,0,1.6-0.2,2.2-0.7c0.6-0.5,1.1-1.2,1.6-2.3l0.6-1.4l-8.7-19.6h3.7
		l6.8,15.7l6.8-15.7H1144.4z"/>
	<path class="st8" d="M97.5,297.7v27.5h-3.4V322c-0.8,1.1-1.8,1.9-3,2.5s-2.5,0.9-4,0.9c-1.9,0-3.6-0.4-5.1-1.3
		c-1.5-0.8-2.7-2-3.5-3.5s-1.3-3.3-1.3-5.2s0.4-3.7,1.3-5.2s2-2.7,3.5-3.5c1.5-0.8,3.2-1.3,5.1-1.3c1.4,0,2.7,0.3,3.9,0.8
		s2.2,1.3,3,2.3v-10.8H97.5z M90.7,321.4c1-0.6,1.8-1.4,2.4-2.4c0.6-1,0.9-2.3,0.9-3.6s-0.3-2.6-0.9-3.6c-0.6-1-1.4-1.9-2.4-2.4
		c-1-0.6-2.1-0.9-3.4-0.9c-1.3,0-2.4,0.3-3.4,0.9c-1,0.6-1.8,1.4-2.4,2.4c-0.6,1-0.9,2.3-0.9,3.6s0.3,2.6,0.9,3.6
		c0.6,1,1.4,1.9,2.4,2.4c1,0.6,2.1,0.9,3.4,0.9C88.6,322.2,89.7,322,90.7,321.4z"/>
	<path class="st8" d="M117.6,307.3c1.4,1.3,2.2,3.3,2.2,6v11.8h-3.4v-2.6c-0.6,0.9-1.4,1.6-2.5,2.1c-1.1,0.5-2.4,0.7-3.9,0.7
		c-2.2,0-4-0.5-5.3-1.6c-1.3-1.1-2-2.5-2-4.2s0.6-3.1,1.9-4.2c1.3-1,3.3-1.6,6-1.6h5.6v-0.7c0-1.5-0.4-2.7-1.3-3.5
		c-0.9-0.8-2.2-1.2-3.9-1.2c-1.2,0-2.3,0.2-3.4,0.6c-1.1,0.4-2,0.9-2.8,1.5l-1.5-2.7c1-0.8,2.2-1.4,3.6-1.9c1.4-0.4,2.9-0.6,4.5-0.6
		C114,305.3,116.1,306,117.6,307.3z M114,321.7c1-0.6,1.7-1.5,2.1-2.6v-2.7h-5.5c-3,0-4.5,1-4.5,3c0,1,0.4,1.8,1.1,2.3
		c0.8,0.6,1.8,0.9,3.2,0.9C111.9,322.6,113,322.3,114,321.7z"/>
	<path class="st8" d="M137.3,324c-0.5,0.4-1.2,0.8-1.9,1c-0.8,0.2-1.6,0.4-2.4,0.4c-2,0-3.5-0.5-4.6-1.6c-1.1-1.1-1.6-2.6-1.6-4.6
		v-10.8h-3.3v-2.9h3.3v-4.3h3.6v4.3h5.6v2.9h-5.6v10.6c0,1.1,0.3,1.9,0.8,2.4c0.5,0.6,1.3,0.9,2.3,0.9c1.1,0,2-0.3,2.8-0.9
		L137.3,324z"/>
	<path class="st8" d="M155,307.3c1.4,1.3,2.2,3.3,2.2,6v11.8h-3.4v-2.6c-0.6,0.9-1.4,1.6-2.5,2.1c-1.1,0.5-2.4,0.7-3.9,0.7
		c-2.2,0-4-0.5-5.3-1.6c-1.3-1.1-2-2.5-2-4.2s0.6-3.1,1.9-4.2c1.3-1,3.3-1.6,6-1.6h5.6v-0.7c0-1.5-0.4-2.7-1.3-3.5
		c-0.9-0.8-2.2-1.2-3.9-1.2c-1.2,0-2.3,0.2-3.4,0.6c-1.1,0.4-2,0.9-2.8,1.5l-1.5-2.7c1-0.8,2.2-1.4,3.6-1.9c1.4-0.4,2.9-0.6,4.5-0.6
		C151.5,305.3,153.6,306,155,307.3z M151.5,321.7c1-0.6,1.7-1.5,2.1-2.6v-2.7h-5.5c-3,0-4.5,1-4.5,3c0,1,0.4,1.8,1.1,2.3
		c0.8,0.6,1.8,0.9,3.2,0.9C149.3,322.6,150.5,322.3,151.5,321.7z"/>
	<path class="st8" d="M166.4,321c0.5,0.5,0.7,1.1,0.7,1.8c0,0.4,0,0.7-0.1,1.1c-0.1,0.3-0.3,0.9-0.5,1.6l-1.7,5.1h-2.3l1.4-5.5
		c-0.5-0.2-0.8-0.5-1.1-0.9c-0.3-0.4-0.4-0.9-0.4-1.4c0-0.7,0.2-1.3,0.7-1.8c0.5-0.5,1.1-0.7,1.8-0.7
		C165.3,320.3,165.9,320.5,166.4,321z"/>
	<path class="st8" d="M182.2,301.1c-0.5-0.4-0.7-1-0.7-1.6s0.2-1.2,0.7-1.6c0.5-0.5,1-0.7,1.7-0.7c0.7,0,1.3,0.2,1.7,0.6
		s0.7,1,0.7,1.6c0,0.7-0.2,1.2-0.7,1.7c-0.5,0.5-1,0.7-1.7,0.7C183.2,301.8,182.6,301.5,182.2,301.1z M182.1,305.5h3.6v19.6h-3.6
		V305.5z"/>
	<path class="st8" d="M203.5,324c-0.5,0.4-1.2,0.8-1.9,1c-0.8,0.2-1.6,0.4-2.4,0.4c-2,0-3.5-0.5-4.6-1.6c-1.1-1.1-1.6-2.6-1.6-4.6
		v-10.8h-3.3v-2.9h3.3v-4.3h3.6v4.3h5.6v2.9h-5.6v10.6c0,1.1,0.3,1.9,0.8,2.4c0.5,0.6,1.3,0.9,2.3,0.9c1.1,0,2-0.3,2.8-0.9
		L203.5,324z"/>
	<path class="st8" d="M247.4,305.5l-7.3,19.6h-3.4l-5.7-14.9l-5.7,14.9h-3.4l-7.3-19.6h3.4l5.7,15.6l5.9-15.6h3l5.8,15.7l5.8-15.7
		H247.4z"/>
	<path class="st8" d="M251,301.1c-0.5-0.4-0.7-1-0.7-1.6s0.2-1.2,0.7-1.6c0.5-0.5,1-0.7,1.7-0.7c0.7,0,1.3,0.2,1.7,0.6
		s0.7,1,0.7,1.6c0,0.7-0.2,1.2-0.7,1.7c-0.5,0.5-1,0.7-1.7,0.7C252.1,301.8,251.5,301.5,251,301.1z M251,305.5h3.6v19.6H251V305.5z"
		/>
	<path class="st8" d="M261.3,297.7h3.6v27.5h-3.6V297.7z"/>
	<path class="st8" d="M271.6,297.7h3.6v27.5h-3.6V297.7z"/>
	<path class="st8" d="M308.3,307.5c1.5,1.4,2.2,3.6,2.2,6.3v11.3h-3.6v-10.9c0-1.9-0.5-3.3-1.4-4.3c-0.9-1-2.2-1.4-3.9-1.4
		c-1.9,0-3.4,0.6-4.6,1.7c-1.1,1.1-1.7,2.7-1.7,4.8v10.1h-3.6v-27.5h3.6v10.6c0.7-0.9,1.7-1.7,2.9-2.2c1.2-0.5,2.5-0.8,4-0.8
		C304.8,305.3,306.8,306.1,308.3,307.5z"/>
	<path class="st8" d="M334.8,316.5h-15.9c0.2,1.7,1,3.1,2.3,4.2s2.9,1.6,4.8,1.6c2.3,0,4.2-0.8,5.7-2.4l2,2.3c-0.9,1-2,1.8-3.3,2.4
		c-1.3,0.5-2.8,0.8-4.4,0.8c-2.1,0-3.9-0.4-5.5-1.3c-1.6-0.9-2.8-2-3.7-3.6c-0.9-1.5-1.3-3.3-1.3-5.2c0-1.9,0.4-3.6,1.3-5.1
		c0.9-1.5,2-2.7,3.5-3.6c1.5-0.9,3.2-1.3,5.1-1.3c1.9,0,3.5,0.4,5,1.3c1.5,0.9,2.6,2,3.4,3.6c0.8,1.5,1.2,3.3,1.2,5.3
		C334.9,315.7,334.9,316.1,334.8,316.5z M321,309.9c-1.1,1-1.8,2.4-2,4.1h12.6c-0.2-1.7-0.9-3-2-4.1c-1.1-1-2.6-1.6-4.3-1.6
		S322.1,308.9,321,309.9z"/>
	<path class="st8" d="M339.8,297.7h3.6v27.5h-3.6V297.7z"/>
	<path class="st8" d="M365.7,306.6c1.5,0.8,2.7,2,3.5,3.5c0.9,1.5,1.3,3.2,1.3,5.2s-0.4,3.7-1.3,5.2c-0.9,1.5-2,2.7-3.5,3.5
		c-1.5,0.8-3.2,1.3-5.1,1.3c-1.4,0-2.7-0.3-3.9-0.8c-1.2-0.5-2.2-1.3-3-2.4v10.1h-3.6v-26.8h3.4v3.1c0.8-1.1,1.8-1.9,3-2.5
		c1.2-0.6,2.5-0.8,4-0.8C362.5,305.3,364.2,305.8,365.7,306.6z M363.6,321.4c1-0.6,1.8-1.4,2.4-2.4c0.6-1,0.9-2.3,0.9-3.6
		s-0.3-2.6-0.9-3.6c-0.6-1-1.4-1.9-2.4-2.4c-1-0.6-2.1-0.9-3.4-0.9c-1.2,0-2.3,0.3-3.3,0.9c-1,0.6-1.8,1.4-2.4,2.4
		c-0.6,1-0.9,2.2-0.9,3.6s0.3,2.6,0.9,3.6c0.6,1,1.4,1.9,2.4,2.4c1,0.6,2.1,0.9,3.4,0.9C361.5,322.2,362.6,322,363.6,321.4z"/>
	<path class="st8" d="M403,316.5h-15.9c0.2,1.7,1,3.1,2.3,4.2s2.9,1.6,4.8,1.6c2.3,0,4.2-0.8,5.7-2.4l2,2.3c-0.9,1-2,1.8-3.3,2.4
		c-1.3,0.5-2.8,0.8-4.4,0.8c-2.1,0-3.9-0.4-5.5-1.3c-1.6-0.9-2.8-2-3.7-3.6c-0.9-1.5-1.3-3.3-1.3-5.2c0-1.9,0.4-3.6,1.3-5.1
		c0.9-1.5,2-2.7,3.5-3.6c1.5-0.9,3.2-1.3,5.1-1.3c1.9,0,3.5,0.4,5,1.3c1.5,0.9,2.6,2,3.4,3.6c0.8,1.5,1.2,3.3,1.2,5.3
		C403.1,315.7,403,316.1,403,316.5z M389.1,309.9c-1.1,1-1.8,2.4-2,4.1h12.6c-0.2-1.7-0.9-3-2-4.1c-1.1-1-2.6-1.6-4.3-1.6
		S390.3,308.9,389.1,309.9z"/>
	<path class="st8" d="M409,324.7c-1.5-0.4-2.6-1-3.5-1.6l1.5-2.8c0.9,0.6,1.9,1.1,3.1,1.5c1.2,0.4,2.5,0.6,3.7,0.6
		c3.1,0,4.7-0.9,4.7-2.7c0-0.6-0.2-1.1-0.6-1.4c-0.4-0.3-0.9-0.6-1.6-0.8c-0.6-0.2-1.5-0.3-2.7-0.5c-1.6-0.2-2.9-0.5-3.9-0.9
		s-1.9-0.9-2.6-1.6s-1.1-1.8-1.1-3.2c0-1.8,0.7-3.2,2.2-4.3c1.5-1.1,3.5-1.6,6-1.6c1.3,0,2.6,0.2,3.9,0.5c1.3,0.3,2.4,0.8,3.2,1.3
		l-1.5,2.8c-1.6-1-3.5-1.6-5.7-1.6c-1.5,0-2.7,0.2-3.4,0.7s-1.2,1.1-1.2,2c0,0.6,0.2,1.1,0.7,1.5c0.4,0.4,1,0.6,1.6,0.8
		c0.7,0.2,1.6,0.4,2.8,0.6c1.6,0.3,2.9,0.6,3.8,0.9c1,0.3,1.8,0.8,2.5,1.6c0.7,0.7,1,1.8,1,3.1c0,1.8-0.8,3.2-2.3,4.2
		c-1.5,1-3.6,1.6-6.2,1.6C412,325.4,410.5,325.1,409,324.7z"/>
	<path class="st8" d="M437.6,324c-0.5,0.4-1.2,0.8-1.9,1c-0.8,0.2-1.6,0.4-2.4,0.4c-2,0-3.5-0.5-4.6-1.6c-1.1-1.1-1.6-2.6-1.6-4.6
		v-10.8h-3.3v-2.9h3.3v-4.3h3.6v4.3h5.6v2.9h-5.6v10.6c0,1.1,0.3,1.9,0.8,2.4c0.5,0.6,1.3,0.9,2.3,0.9c1.1,0,2-0.3,2.8-0.9
		L437.6,324z"/>
	<path class="st8" d="M455.2,307.3c1.4,1.3,2.2,3.3,2.2,6v11.8H454v-2.6c-0.6,0.9-1.4,1.6-2.5,2.1c-1.1,0.5-2.4,0.7-3.9,0.7
		c-2.2,0-4-0.5-5.3-1.6c-1.3-1.1-2-2.5-2-4.2s0.6-3.1,1.9-4.2c1.3-1,3.3-1.6,6-1.6h5.6v-0.7c0-1.5-0.4-2.7-1.3-3.5
		c-0.9-0.8-2.2-1.2-3.9-1.2c-1.2,0-2.3,0.2-3.4,0.6c-1.1,0.4-2,0.9-2.8,1.5l-1.5-2.7c1-0.8,2.2-1.4,3.6-1.9c1.4-0.4,2.9-0.6,4.5-0.6
		C451.7,305.3,453.8,306,455.2,307.3z M451.7,321.7c1-0.6,1.7-1.5,2.1-2.6v-2.7h-5.5c-3,0-4.5,1-4.5,3c0,1,0.4,1.8,1.1,2.3
		c0.8,0.6,1.8,0.9,3.2,0.9C449.5,322.6,450.7,322.3,451.7,321.7z"/>
	<path class="st8" d="M479.5,306.6c1.5,0.8,2.7,2,3.5,3.5c0.9,1.5,1.3,3.2,1.3,5.2s-0.4,3.7-1.3,5.2c-0.9,1.5-2,2.7-3.5,3.5
		c-1.5,0.8-3.2,1.3-5.1,1.3c-1.5,0-2.8-0.3-4-0.9c-1.2-0.6-2.2-1.4-3-2.5v3.1H464v-27.5h3.6v10.8c0.8-1,1.8-1.8,3-2.3
		s2.5-0.8,3.9-0.8C476.3,305.3,478,305.8,479.5,306.6z M477.5,321.4c1-0.6,1.8-1.4,2.4-2.4c0.6-1,0.9-2.3,0.9-3.6s-0.3-2.6-0.9-3.6
		c-0.6-1-1.4-1.9-2.4-2.4c-1-0.6-2.1-0.9-3.4-0.9c-1.2,0-2.4,0.3-3.4,0.9c-1,0.6-1.8,1.4-2.4,2.4c-0.6,1-0.9,2.3-0.9,3.6
		s0.3,2.6,0.9,3.6c0.6,1,1.4,1.9,2.4,2.4c1,0.6,2.1,0.9,3.4,0.9C475.3,322.2,476.5,322,477.5,321.4z"/>
	<path class="st8" d="M489.2,297.7h3.6v27.5h-3.6V297.7z"/>
	<path class="st8" d="M499.6,301.1c-0.5-0.4-0.7-1-0.7-1.6s0.2-1.2,0.7-1.6c0.5-0.5,1-0.7,1.7-0.7c0.7,0,1.3,0.2,1.7,0.6
		s0.7,1,0.7,1.6c0,0.7-0.2,1.2-0.7,1.7c-0.5,0.5-1,0.7-1.7,0.7C500.6,301.8,500,301.5,499.6,301.1z M499.5,305.5h3.6v19.6h-3.6
		V305.5z"/>
	<path class="st8" d="M510.9,324.7c-1.5-0.4-2.6-1-3.5-1.6l1.5-2.8c0.9,0.6,1.9,1.1,3.1,1.5c1.2,0.4,2.5,0.6,3.7,0.6
		c3.1,0,4.7-0.9,4.7-2.7c0-0.6-0.2-1.1-0.6-1.4c-0.4-0.3-0.9-0.6-1.6-0.8c-0.6-0.2-1.5-0.3-2.7-0.5c-1.6-0.2-2.9-0.5-3.9-0.9
		s-1.9-0.9-2.6-1.6s-1.1-1.8-1.1-3.2c0-1.8,0.7-3.2,2.2-4.3c1.5-1.1,3.5-1.6,6-1.6c1.3,0,2.6,0.2,3.9,0.5c1.3,0.3,2.4,0.8,3.2,1.3
		l-1.5,2.8c-1.6-1-3.5-1.6-5.7-1.6c-1.5,0-2.7,0.2-3.4,0.7s-1.2,1.1-1.2,2c0,0.6,0.2,1.1,0.7,1.5c0.4,0.4,1,0.6,1.6,0.8
		c0.7,0.2,1.6,0.4,2.8,0.6c1.6,0.3,2.9,0.6,3.8,0.9c1,0.3,1.8,0.8,2.5,1.6c0.7,0.7,1,1.8,1,3.1c0,1.8-0.8,3.2-2.3,4.2
		c-1.5,1-3.6,1.6-6.2,1.6C513.9,325.4,512.3,325.1,510.9,324.7z"/>
	<path class="st8" d="M544.8,307.5c1.5,1.4,2.2,3.6,2.2,6.3v11.3h-3.6v-10.9c0-1.9-0.5-3.3-1.4-4.3c-0.9-1-2.2-1.4-3.9-1.4
		c-1.9,0-3.4,0.6-4.6,1.7c-1.1,1.1-1.7,2.7-1.7,4.8v10.1h-3.6v-27.5h3.6v10.6c0.7-0.9,1.7-1.7,2.9-2.2c1.2-0.5,2.5-0.8,4-0.8
		C541.4,305.3,543.3,306.1,544.8,307.5z"/>
	<path class="st8" d="M593.9,307.5c1.4,1.4,2.2,3.6,2.2,6.4v11.3h-3.6v-10.9c0-1.9-0.4-3.3-1.3-4.3c-0.9-1-2.1-1.4-3.8-1.4
		c-1.8,0-3.2,0.6-4.3,1.7c-1.1,1.1-1.6,2.7-1.6,4.8v10.1H578v-10.9c0-1.9-0.4-3.3-1.3-4.3c-0.9-1-2.1-1.4-3.8-1.4
		c-1.8,0-3.2,0.6-4.3,1.7c-1.1,1.1-1.6,2.7-1.6,4.8v10.1h-3.6v-19.6h3.4v2.9c0.7-1,1.7-1.8,2.8-2.3c1.2-0.5,2.5-0.8,4-0.8
		c1.5,0,2.9,0.3,4.1,0.9c1.2,0.6,2.1,1.5,2.7,2.7c0.7-1.1,1.8-2,3.1-2.7c1.3-0.6,2.8-1,4.5-1C590.5,305.3,592.5,306.1,593.9,307.5z"
		/>
	<path class="st8" d="M620.9,305.5v19.6h-3.4v-3c-0.7,1-1.7,1.8-2.8,2.3s-2.4,0.8-3.8,0.8c-2.6,0-4.7-0.7-6.2-2.2
		c-1.5-1.4-2.3-3.6-2.3-6.4v-11.3h3.6v10.9c0,1.9,0.5,3.3,1.4,4.3c0.9,1,2.2,1.5,3.9,1.5c1.9,0,3.4-0.6,4.4-1.7
		c1.1-1.1,1.6-2.7,1.6-4.8v-10.1H620.9z"/>
	<path class="st8" d="M638.7,324c-0.5,0.4-1.2,0.8-1.9,1c-0.8,0.2-1.6,0.4-2.4,0.4c-2,0-3.5-0.5-4.6-1.6c-1.1-1.1-1.6-2.6-1.6-4.6
		v-10.8h-3.3v-2.9h3.3v-4.3h3.6v4.3h5.6v2.9h-5.6v10.6c0,1.1,0.3,1.9,0.8,2.4c0.5,0.6,1.3,0.9,2.3,0.9c1.1,0,2-0.3,2.8-0.9
		L638.7,324z"/>
	<path class="st8" d="M661.3,305.5v19.6h-3.4v-3c-0.7,1-1.7,1.8-2.8,2.3s-2.4,0.8-3.8,0.8c-2.6,0-4.7-0.7-6.2-2.2
		c-1.5-1.4-2.3-3.6-2.3-6.4v-11.3h3.6v10.9c0,1.9,0.5,3.3,1.4,4.3c0.9,1,2.2,1.5,3.9,1.5c1.9,0,3.4-0.6,4.4-1.7
		c1.1-1.1,1.6-2.7,1.6-4.8v-10.1H661.3z"/>
	<path class="st8" d="M681.4,307.3c1.4,1.3,2.2,3.3,2.2,6v11.8h-3.4v-2.6c-0.6,0.9-1.4,1.6-2.5,2.1c-1.1,0.5-2.4,0.7-3.9,0.7
		c-2.2,0-4-0.5-5.3-1.6c-1.3-1.1-2-2.5-2-4.2s0.6-3.1,1.9-4.2c1.3-1,3.3-1.6,6-1.6h5.6v-0.7c0-1.5-0.4-2.7-1.3-3.5
		c-0.9-0.8-2.2-1.2-3.9-1.2c-1.2,0-2.3,0.2-3.4,0.6c-1.1,0.4-2,0.9-2.8,1.5l-1.5-2.7c1-0.8,2.2-1.4,3.6-1.9c1.4-0.4,2.9-0.6,4.5-0.6
		C677.9,305.3,680,306,681.4,307.3z M677.9,321.7c1-0.6,1.7-1.5,2.1-2.6v-2.7h-5.5c-3,0-4.5,1-4.5,3c0,1,0.4,1.8,1.1,2.3
		c0.8,0.6,1.8,0.9,3.2,0.9C675.7,322.6,676.9,322.3,677.9,321.7z"/>
	<path class="st8" d="M690.2,297.7h3.6v27.5h-3.6V297.7z"/>
	<path class="st8" d="M721.5,324c-0.5,0.4-1.2,0.8-1.9,1c-0.8,0.2-1.6,0.4-2.4,0.4c-2,0-3.5-0.5-4.6-1.6c-1.1-1.1-1.6-2.6-1.6-4.6
		v-10.8h-3.3v-2.9h3.3v-4.3h3.6v4.3h5.6v2.9h-5.6v10.6c0,1.1,0.3,1.9,0.8,2.4c0.5,0.6,1.3,0.9,2.3,0.9c1.1,0,2-0.3,2.8-0.9
		L721.5,324z"/>
	<path class="st8" d="M731.9,306.2c1.2-0.6,2.7-0.9,4.4-0.9v3.4c-0.2,0-0.5,0-0.8,0c-1.9,0-3.4,0.6-4.5,1.7
		c-1.1,1.1-1.6,2.8-1.6,4.9v9.8h-3.6v-19.6h3.4v3.3C729.8,307.7,730.7,306.8,731.9,306.2z"/>
	<path class="st8" d="M759.2,305.5v19.6h-3.4v-3c-0.7,1-1.7,1.8-2.8,2.3s-2.4,0.8-3.8,0.8c-2.6,0-4.7-0.7-6.2-2.2
		c-1.5-1.4-2.3-3.6-2.3-6.4v-11.3h3.6v10.9c0,1.9,0.5,3.3,1.4,4.3c0.9,1,2.2,1.5,3.9,1.5c1.9,0,3.4-0.6,4.4-1.7
		c1.1-1.1,1.6-2.7,1.6-4.8v-10.1H759.2z"/>
	<path class="st8" d="M767,324.7c-1.5-0.4-2.6-1-3.5-1.6l1.5-2.8c0.9,0.6,1.9,1.1,3.1,1.5c1.2,0.4,2.5,0.6,3.7,0.6
		c3.1,0,4.7-0.9,4.7-2.7c0-0.6-0.2-1.1-0.6-1.4c-0.4-0.3-0.9-0.6-1.6-0.8c-0.6-0.2-1.5-0.3-2.7-0.5c-1.6-0.2-2.9-0.5-3.9-0.9
		s-1.9-0.9-2.6-1.6s-1.1-1.8-1.1-3.2c0-1.8,0.7-3.2,2.2-4.3c1.5-1.1,3.5-1.6,6-1.6c1.3,0,2.6,0.2,3.9,0.5c1.3,0.3,2.4,0.8,3.2,1.3
		l-1.5,2.8c-1.6-1-3.5-1.6-5.7-1.6c-1.5,0-2.7,0.2-3.4,0.7s-1.2,1.1-1.2,2c0,0.6,0.2,1.1,0.7,1.5c0.4,0.4,1,0.6,1.6,0.8
		c0.7,0.2,1.6,0.4,2.8,0.6c1.6,0.3,2.9,0.6,3.8,0.9c1,0.3,1.8,0.8,2.5,1.6c0.7,0.7,1,1.8,1,3.1c0,1.8-0.8,3.2-2.3,4.2
		c-1.5,1-3.6,1.6-6.2,1.6C770,325.4,768.5,325.1,767,324.7z"/>
	<path class="st8" d="M795.6,324c-0.5,0.4-1.2,0.8-1.9,1c-0.8,0.2-1.6,0.4-2.4,0.4c-2,0-3.5-0.5-4.6-1.6c-1.1-1.1-1.6-2.6-1.6-4.6
		v-10.8h-3.3v-2.9h3.3v-4.3h3.6v4.3h5.6v2.9h-5.6v10.6c0,1.1,0.3,1.9,0.8,2.4c0.5,0.6,1.3,0.9,2.3,0.9c1.1,0,2-0.3,2.8-0.9
		L795.6,324z"/>
	<path class="st8" d="M809.9,301.1c-0.5-0.4-0.7-1-0.7-1.6s0.2-1.2,0.7-1.6c0.5-0.5,1-0.7,1.7-0.7c0.7,0,1.3,0.2,1.7,0.6
		s0.7,1,0.7,1.6c0,0.7-0.2,1.2-0.7,1.7c-0.5,0.5-1,0.7-1.7,0.7C810.9,301.8,810.3,301.5,809.9,301.1z M809.8,305.5h3.6v19.6h-3.6
		V305.5z"/>
	<path class="st8" d="M836.5,307.5c1.5,1.4,2.2,3.6,2.2,6.3v11.3h-3.6v-10.9c0-1.9-0.5-3.3-1.4-4.3c-0.9-1-2.2-1.4-3.9-1.4
		c-1.9,0-3.4,0.6-4.6,1.7c-1.1,1.1-1.7,2.7-1.7,4.8v10.1h-3.6v-19.6h3.4v3c0.7-1,1.7-1.8,2.9-2.3c1.2-0.5,2.6-0.8,4.2-0.8
		C833.1,305.3,835.1,306.1,836.5,307.5z"/>
	<path class="st8" d="M866.3,324c-0.5,0.4-1.2,0.8-1.9,1c-0.8,0.2-1.6,0.4-2.4,0.4c-2,0-3.5-0.5-4.6-1.6c-1.1-1.1-1.6-2.6-1.6-4.6
		v-10.8h-3.3v-2.9h3.3v-4.3h3.6v4.3h5.6v2.9h-5.6v10.6c0,1.1,0.3,1.9,0.8,2.4c0.5,0.6,1.3,0.9,2.3,0.9c1.1,0,2-0.3,2.8-0.9
		L866.3,324z"/>
	<path class="st8" d="M887.6,316.5h-15.9c0.2,1.7,1,3.1,2.3,4.2s2.9,1.6,4.8,1.6c2.3,0,4.2-0.8,5.7-2.4l2,2.3c-0.9,1-2,1.8-3.3,2.4
		c-1.3,0.5-2.8,0.8-4.4,0.8c-2.1,0-3.9-0.4-5.5-1.3c-1.6-0.9-2.8-2-3.7-3.6c-0.9-1.5-1.3-3.3-1.3-5.2c0-1.9,0.4-3.6,1.3-5.1
		c0.9-1.5,2-2.7,3.5-3.6c1.5-0.9,3.2-1.3,5.1-1.3c1.9,0,3.5,0.4,5,1.3c1.5,0.9,2.6,2,3.4,3.6c0.8,1.5,1.2,3.3,1.2,5.3
		C887.7,315.7,887.6,316.1,887.6,316.5z M873.7,309.9c-1.1,1-1.8,2.4-2,4.1h12.6c-0.2-1.7-0.9-3-2-4.1c-1.1-1-2.6-1.6-4.3-1.6
		S874.8,308.9,873.7,309.9z"/>
	<path class="st8" d="M898.7,306.2c1.2-0.6,2.7-0.9,4.4-0.9v3.4c-0.2,0-0.5,0-0.8,0c-1.9,0-3.4,0.6-4.5,1.7
		c-1.1,1.1-1.6,2.8-1.6,4.9v9.8h-3.6v-19.6h3.4v3.3C896.6,307.7,897.5,306.8,898.7,306.2z"/>
	<path class="st8" d="M937.9,307.5c1.4,1.4,2.2,3.6,2.2,6.4v11.3h-3.6v-10.9c0-1.9-0.4-3.3-1.3-4.3s-2.1-1.4-3.8-1.4
		c-1.8,0-3.2,0.6-4.3,1.7c-1.1,1.1-1.6,2.7-1.6,4.8v10.1H922v-10.9c0-1.9-0.4-3.3-1.3-4.3c-0.9-1-2.1-1.4-3.8-1.4
		c-1.8,0-3.2,0.6-4.3,1.7c-1.1,1.1-1.6,2.7-1.6,4.8v10.1h-3.6v-19.6h3.4v2.9c0.7-1,1.7-1.8,2.8-2.3s2.5-0.8,4-0.8
		c1.5,0,2.9,0.3,4.1,0.9c1.2,0.6,2.1,1.5,2.7,2.7c0.7-1.1,1.8-2,3.1-2.7c1.3-0.6,2.8-1,4.5-1C934.5,305.3,936.4,306.1,937.9,307.5z"
		/>
	<path class="st8" d="M947.6,324.7c-1.5-0.4-2.6-1-3.5-1.6l1.5-2.8c0.9,0.6,1.9,1.1,3.1,1.5c1.2,0.4,2.5,0.6,3.7,0.6
		c3.1,0,4.7-0.9,4.7-2.7c0-0.6-0.2-1.1-0.6-1.4c-0.4-0.3-0.9-0.6-1.6-0.8c-0.6-0.2-1.5-0.3-2.7-0.5c-1.6-0.2-2.9-0.5-3.9-0.9
		s-1.9-0.9-2.6-1.6c-0.7-0.8-1.1-1.8-1.1-3.2c0-1.8,0.7-3.2,2.2-4.3c1.5-1.1,3.5-1.6,6-1.6c1.3,0,2.6,0.2,3.9,0.5
		c1.3,0.3,2.4,0.8,3.2,1.3l-1.5,2.8c-1.6-1-3.5-1.6-5.7-1.6c-1.5,0-2.7,0.2-3.4,0.7c-0.8,0.5-1.2,1.1-1.2,2c0,0.6,0.2,1.1,0.7,1.5
		c0.4,0.4,1,0.6,1.6,0.8c0.7,0.2,1.6,0.4,2.8,0.6c1.6,0.3,2.9,0.6,3.8,0.9c1,0.3,1.8,0.8,2.5,1.6c0.7,0.7,1,1.8,1,3.1
		c0,1.8-0.8,3.2-2.3,4.2c-1.5,1-3.6,1.6-6.2,1.6C950.6,325.4,949.1,325.1,947.6,324.7z"/>
	<path class="st8" d="M978.2,324.1c-1.6-0.9-2.8-2.1-3.6-3.6c-0.9-1.5-1.3-3.2-1.3-5.2s0.4-3.6,1.3-5.2c0.9-1.5,2.1-2.7,3.6-3.6
		c1.6-0.9,3.3-1.3,5.3-1.3c1.9,0,3.7,0.4,5.2,1.3c1.5,0.9,2.8,2,3.6,3.6c0.9,1.5,1.3,3.2,1.3,5.2s-0.4,3.6-1.3,5.2
		c-0.9,1.5-2.1,2.7-3.6,3.6c-1.5,0.9-3.3,1.3-5.2,1.3C981.5,325.4,979.8,324.9,978.2,324.1z M986.9,321.4c1-0.6,1.8-1.4,2.3-2.4
		c0.6-1,0.9-2.3,0.9-3.6s-0.3-2.6-0.9-3.6c-0.6-1-1.4-1.9-2.3-2.4c-1-0.6-2.1-0.9-3.4-0.9c-1.3,0-2.4,0.3-3.4,0.9
		c-1,0.6-1.8,1.4-2.4,2.4c-0.6,1-0.9,2.3-0.9,3.6s0.3,2.6,0.9,3.6c0.6,1,1.4,1.9,2.4,2.4c1,0.6,2.1,0.9,3.4,0.9
		C984.7,322.2,985.9,322,986.9,321.4z"/>
	<path class="st8" d="M1002.6,303.8v1.7h5.7v2.9h-5.6v16.7h-3.6v-16.7h-3.3v-2.9h3.3v-1.7c0-1.9,0.6-3.5,1.7-4.6
		c1.1-1.1,2.7-1.7,4.8-1.7c0.8,0,1.5,0.1,2.2,0.3c0.7,0.2,1.3,0.5,1.8,0.9l-1.1,2.7c-0.8-0.6-1.7-0.9-2.7-0.9
		C1003.6,300.4,1002.6,301.5,1002.6,303.8z"/>
	<path class="st8" d="M1040.1,297.7v27.5h-3.4V322c-0.8,1.1-1.8,1.9-3,2.5c-1.2,0.6-2.5,0.9-4,0.9c-1.9,0-3.6-0.4-5.1-1.3
		c-1.5-0.8-2.7-2-3.5-3.5c-0.9-1.5-1.3-3.3-1.3-5.2s0.4-3.7,1.3-5.2c0.9-1.5,2-2.7,3.5-3.5c1.5-0.8,3.2-1.3,5.1-1.3
		c1.4,0,2.7,0.3,3.9,0.8c1.2,0.5,2.2,1.3,3,2.3v-10.8H1040.1z M1033.4,321.4c1-0.6,1.8-1.4,2.4-2.4c0.6-1,0.9-2.3,0.9-3.6
		s-0.3-2.6-0.9-3.6c-0.6-1-1.4-1.9-2.4-2.4c-1-0.6-2.1-0.9-3.4-0.9c-1.3,0-2.4,0.3-3.4,0.9c-1,0.6-1.8,1.4-2.4,2.4
		c-0.6,1-0.9,2.3-0.9,3.6s0.3,2.6,0.9,3.6c0.6,1,1.4,1.9,2.4,2.4c1,0.6,2.1,0.9,3.4,0.9C1031.2,322.2,1032.3,322,1033.4,321.4z"/>
	<path class="st8" d="M1060.2,307.3c1.4,1.3,2.2,3.3,2.2,6v11.8h-3.4v-2.6c-0.6,0.9-1.4,1.6-2.5,2.1c-1.1,0.5-2.4,0.7-3.9,0.7
		c-2.2,0-4-0.5-5.3-1.6c-1.3-1.1-2-2.5-2-4.2s0.6-3.1,1.9-4.2c1.3-1,3.3-1.6,6-1.6h5.6v-0.7c0-1.5-0.4-2.7-1.3-3.5
		c-0.9-0.8-2.2-1.2-3.9-1.2c-1.2,0-2.3,0.2-3.4,0.6c-1.1,0.4-2,0.9-2.8,1.5l-1.5-2.7c1-0.8,2.2-1.4,3.6-1.9c1.4-0.4,2.9-0.6,4.5-0.6
		C1056.7,305.3,1058.8,306,1060.2,307.3z M1056.7,321.7c1-0.6,1.7-1.5,2.1-2.6v-2.7h-5.5c-3,0-4.5,1-4.5,3c0,1,0.4,1.8,1.1,2.3
		c0.8,0.6,1.8,0.9,3.2,0.9S1055.7,322.3,1056.7,321.7z"/>
	<path class="st8" d="M1080,324c-0.5,0.4-1.2,0.8-1.9,1c-0.8,0.2-1.6,0.4-2.4,0.4c-2,0-3.5-0.5-4.6-1.6c-1.1-1.1-1.6-2.6-1.6-4.6
		v-10.8h-3.3v-2.9h3.3v-4.3h3.6v4.3h5.6v2.9h-5.6v10.6c0,1.1,0.3,1.9,0.8,2.4c0.5,0.6,1.3,0.9,2.3,0.9c1.1,0,2-0.3,2.8-0.9L1080,324
		z"/>
	<path class="st8" d="M1097.6,307.3c1.4,1.3,2.2,3.3,2.2,6v11.8h-3.4v-2.6c-0.6,0.9-1.4,1.6-2.5,2.1c-1.1,0.5-2.4,0.7-3.9,0.7
		c-2.2,0-4-0.5-5.3-1.6c-1.3-1.1-2-2.5-2-4.2s0.6-3.1,1.9-4.2s3.3-1.6,6-1.6h5.6v-0.7c0-1.5-0.4-2.7-1.3-3.5
		c-0.9-0.8-2.2-1.2-3.9-1.2c-1.2,0-2.3,0.2-3.4,0.6c-1.1,0.4-2,0.9-2.8,1.5l-1.5-2.7c1-0.8,2.2-1.4,3.6-1.9c1.4-0.4,2.9-0.6,4.5-0.6
		C1094.1,305.3,1096.2,306,1097.6,307.3z M1094.1,321.7c1-0.6,1.7-1.5,2.1-2.6v-2.7h-5.5c-3,0-4.5,1-4.5,3c0,1,0.4,1.8,1.1,2.3
		c0.8,0.6,1.8,0.9,3.2,0.9C1092,322.6,1093.1,322.3,1094.1,321.7z"/>
	<path class="st8" d="M80,369.1c-1.5-0.4-2.6-1-3.5-1.6l1.5-2.8c0.9,0.6,1.9,1.1,3.1,1.5c1.2,0.4,2.5,0.6,3.7,0.6
		c3.1,0,4.7-0.9,4.7-2.7c0-0.6-0.2-1.1-0.6-1.4c-0.4-0.3-0.9-0.6-1.6-0.8c-0.6-0.2-1.5-0.3-2.7-0.5c-1.6-0.2-2.9-0.5-3.9-0.9
		c-1-0.3-1.9-0.9-2.6-1.6s-1.1-1.8-1.1-3.2c0-1.8,0.7-3.2,2.2-4.3s3.5-1.6,6-1.6c1.3,0,2.6,0.2,3.9,0.5c1.3,0.3,2.4,0.8,3.2,1.3
		l-1.5,2.8c-1.6-1-3.5-1.6-5.7-1.6c-1.5,0-2.7,0.2-3.4,0.7c-0.8,0.5-1.2,1.1-1.2,2c0,0.6,0.2,1.1,0.7,1.5c0.4,0.4,1,0.6,1.6,0.8
		c0.7,0.2,1.6,0.4,2.8,0.6c1.6,0.3,2.9,0.6,3.8,0.9c1,0.3,1.8,0.8,2.5,1.6c0.7,0.7,1,1.8,1,3.1c0,1.8-0.8,3.2-2.3,4.2
		c-1.5,1-3.6,1.6-6.2,1.6C83,369.8,81.4,369.5,80,369.1z"/>
	<path class="st8" d="M113.9,351.9c1.5,1.4,2.2,3.6,2.2,6.3v11.3h-3.6v-10.9c0-1.9-0.5-3.3-1.4-4.3c-0.9-1-2.2-1.4-3.9-1.4
		c-1.9,0-3.4,0.6-4.6,1.7c-1.1,1.1-1.7,2.7-1.7,4.8v10.1h-3.6v-27.5h3.6v10.6c0.7-0.9,1.7-1.7,2.9-2.2c1.2-0.5,2.5-0.8,4-0.8
		C110.5,349.7,112.4,350.5,113.9,351.9z"/>
	<path class="st8" d="M136.1,351.7c1.4,1.3,2.2,3.3,2.2,6v11.8h-3.4v-2.6c-0.6,0.9-1.4,1.6-2.5,2.1c-1.1,0.5-2.4,0.7-3.9,0.7
		c-2.2,0-4-0.5-5.3-1.6c-1.3-1.1-2-2.5-2-4.2s0.6-3.1,1.9-4.2c1.3-1,3.3-1.6,6-1.6h5.6v-0.7c0-1.5-0.4-2.7-1.3-3.5
		c-0.9-0.8-2.2-1.2-3.9-1.2c-1.2,0-2.3,0.2-3.4,0.6c-1.1,0.4-2,0.9-2.8,1.5l-1.5-2.7c1-0.8,2.2-1.4,3.6-1.9c1.4-0.4,2.9-0.6,4.5-0.6
		C132.5,349.7,134.6,350.4,136.1,351.7z M132.5,366.1c1-0.6,1.7-1.5,2.1-2.6v-2.7h-5.5c-3,0-4.5,1-4.5,3c0,1,0.4,1.8,1.1,2.3
		c0.8,0.6,1.8,0.9,3.2,0.9C130.4,367,131.5,366.7,132.5,366.1z"/>
	<path class="st8" d="M151,350.6c1.2-0.6,2.7-0.9,4.4-0.9v3.4c-0.2,0-0.5,0-0.8,0c-1.9,0-3.4,0.6-4.5,1.7c-1.1,1.1-1.6,2.8-1.6,4.9
		v9.8h-3.6v-19.6h3.4v3.3C148.8,352.1,149.7,351.2,151,350.6z"/>
	<path class="st8" d="M178,342.1v27.5h-3.4v-3.1c-0.8,1.1-1.8,1.9-3,2.5s-2.5,0.9-4,0.9c-1.9,0-3.6-0.4-5.1-1.3s-2.7-2-3.5-3.5
		c-0.9-1.5-1.3-3.3-1.3-5.2c0-2,0.4-3.7,1.3-5.2c0.9-1.5,2-2.7,3.5-3.5s3.2-1.3,5.1-1.3c1.4,0,2.7,0.3,3.9,0.8
		c1.2,0.5,2.2,1.3,3,2.3v-10.8H178z M171.3,365.8c1-0.6,1.8-1.4,2.4-2.4c0.6-1,0.9-2.3,0.9-3.6c0-1.4-0.3-2.6-0.9-3.6
		c-0.6-1-1.4-1.9-2.4-2.4c-1-0.6-2.1-0.9-3.4-0.9c-1.3,0-2.4,0.3-3.4,0.9s-1.8,1.4-2.4,2.4c-0.6,1-0.9,2.3-0.9,3.6
		c0,1.4,0.3,2.6,0.9,3.6c0.6,1,1.4,1.9,2.4,2.4c1,0.6,2.1,0.9,3.4,0.9C169.2,366.6,170.3,366.4,171.3,365.8z"/>
	<path class="st8" d="M184.8,345.5c-0.5-0.4-0.7-1-0.7-1.6c0-0.6,0.2-1.2,0.7-1.6c0.5-0.5,1-0.7,1.7-0.7c0.7,0,1.3,0.2,1.7,0.6
		s0.7,1,0.7,1.6c0,0.7-0.2,1.2-0.7,1.7s-1,0.7-1.7,0.7C185.9,346.2,185.3,345.9,184.8,345.5z M184.8,349.9h3.6v19.6h-3.6V349.9z"/>
	<path class="st8" d="M211.5,351.9c1.5,1.4,2.2,3.6,2.2,6.3v11.3h-3.6v-10.9c0-1.9-0.5-3.3-1.4-4.3c-0.9-1-2.2-1.4-3.9-1.4
		c-1.9,0-3.4,0.6-4.6,1.7c-1.1,1.1-1.7,2.7-1.7,4.8v10.1h-3.6v-19.6h3.4v3c0.7-1,1.7-1.8,2.9-2.3c1.2-0.5,2.6-0.8,4.2-0.8
		C208.1,349.7,210,350.5,211.5,351.9z"/>
	<path class="st8" d="M239.2,349.9v16.9c0,3.4-0.9,6-2.6,7.6c-1.7,1.6-4.2,2.5-7.6,2.5c-1.9,0-3.6-0.3-5.3-0.8
		c-1.7-0.5-3-1.2-4.1-2.2l1.7-2.7c0.9,0.8,2,1.4,3.4,1.9c1.3,0.5,2.7,0.7,4.2,0.7c2.3,0,4-0.5,5.1-1.6c1.1-1.1,1.6-2.7,1.6-5v-1.6
		c-0.8,1-1.9,1.8-3.1,2.3c-1.2,0.5-2.5,0.8-4,0.8c-1.9,0-3.6-0.4-5.1-1.2s-2.7-1.9-3.6-3.4c-0.9-1.4-1.3-3.1-1.3-4.9
		s0.4-3.5,1.3-4.9c0.9-1.4,2.1-2.6,3.6-3.3c1.5-0.8,3.2-1.2,5.1-1.2c1.5,0,2.9,0.3,4.1,0.8c1.3,0.5,2.3,1.3,3.1,2.4v-3H239.2z
		 M232.4,364.8c1-0.5,1.8-1.3,2.4-2.3s0.9-2.1,0.9-3.3c0-1.9-0.6-3.4-1.9-4.6c-1.3-1.2-2.9-1.8-4.8-1.8c-2,0-3.6,0.6-4.9,1.8
		c-1.3,1.2-1.9,2.7-1.9,4.6c0,1.2,0.3,2.3,0.9,3.3c0.6,1,1.4,1.7,2.4,2.3c1,0.5,2.2,0.8,3.5,0.8
		C230.2,365.6,231.4,365.3,232.4,364.8z"/>
	<path class="st8" d="M269.3,351.7c1.4,1.3,2.2,3.3,2.2,6v11.8h-3.4v-2.6c-0.6,0.9-1.4,1.6-2.5,2.1c-1.1,0.5-2.4,0.7-3.9,0.7
		c-2.2,0-4-0.5-5.3-1.6c-1.3-1.1-2-2.5-2-4.2s0.6-3.1,1.9-4.2c1.3-1,3.3-1.6,6-1.6h5.6v-0.7c0-1.5-0.4-2.7-1.3-3.5
		c-0.9-0.8-2.2-1.2-3.9-1.2c-1.2,0-2.3,0.2-3.4,0.6c-1.1,0.4-2,0.9-2.8,1.5l-1.5-2.7c1-0.8,2.2-1.4,3.6-1.9c1.4-0.4,2.9-0.6,4.5-0.6
		C265.7,349.7,267.8,350.4,269.3,351.7z M265.7,366.1c1-0.6,1.7-1.5,2.1-2.6v-2.7h-5.5c-3,0-4.5,1-4.5,3c0,1,0.4,1.8,1.1,2.3
		c0.8,0.6,1.8,0.9,3.2,0.9C263.6,367,264.7,366.7,265.7,366.1z"/>
	<path class="st8" d="M294.4,351.9c1.5,1.4,2.2,3.6,2.2,6.3v11.3h-3.6v-10.9c0-1.9-0.5-3.3-1.4-4.3c-0.9-1-2.2-1.4-3.9-1.4
		c-1.9,0-3.4,0.6-4.6,1.7c-1.1,1.1-1.7,2.7-1.7,4.8v10.1H278v-19.6h3.4v3c0.7-1,1.7-1.8,2.9-2.3c1.2-0.5,2.6-0.8,4.2-0.8
		C291,349.7,293,350.5,294.4,351.9z"/>
	<path class="st8" d="M321.8,342.1v27.5h-3.4v-3.1c-0.8,1.1-1.8,1.9-3,2.5s-2.5,0.9-4,0.9c-1.9,0-3.6-0.4-5.1-1.3s-2.7-2-3.5-3.5
		c-0.9-1.5-1.3-3.3-1.3-5.2c0-2,0.4-3.7,1.3-5.2c0.9-1.5,2-2.7,3.5-3.5s3.2-1.3,5.1-1.3c1.4,0,2.7,0.3,3.9,0.8
		c1.2,0.5,2.2,1.3,3,2.3v-10.8H321.8z M315.1,365.8c1-0.6,1.8-1.4,2.4-2.4c0.6-1,0.9-2.3,0.9-3.6c0-1.4-0.3-2.6-0.9-3.6
		c-0.6-1-1.4-1.9-2.4-2.4c-1-0.6-2.1-0.9-3.4-0.9c-1.3,0-2.4,0.3-3.4,0.9s-1.8,1.4-2.4,2.4c-0.6,1-0.9,2.3-0.9,3.6
		c0,1.4,0.3,2.6,0.9,3.6c0.6,1,1.4,1.9,2.4,2.4c1,0.6,2.1,0.9,3.4,0.9C313,366.6,314.1,366.4,315.1,365.8z"/>
	<path class="st8" d="M357,342.1v27.5h-3.4v-3.1c-0.8,1.1-1.8,1.9-3,2.5s-2.5,0.9-4,0.9c-1.9,0-3.6-0.4-5.1-1.3s-2.7-2-3.5-3.5
		c-0.9-1.5-1.3-3.3-1.3-5.2c0-2,0.4-3.7,1.3-5.2c0.9-1.5,2-2.7,3.5-3.5s3.2-1.3,5.1-1.3c1.4,0,2.7,0.3,3.9,0.8
		c1.2,0.5,2.2,1.3,3,2.3v-10.8H357z M350.3,365.8c1-0.6,1.8-1.4,2.4-2.4c0.6-1,0.9-2.3,0.9-3.6c0-1.4-0.3-2.6-0.9-3.6
		c-0.6-1-1.4-1.9-2.4-2.4c-1-0.6-2.1-0.9-3.4-0.9c-1.3,0-2.4,0.3-3.4,0.9s-1.8,1.4-2.4,2.4c-0.6,1-0.9,2.3-0.9,3.6
		c0,1.4,0.3,2.6,0.9,3.6c0.6,1,1.4,1.9,2.4,2.4c1,0.6,2.1,0.9,3.4,0.9C348.1,366.6,349.3,366.4,350.3,365.8z"/>
	<path class="st8" d="M381.4,360.9h-15.9c0.2,1.7,1,3.1,2.3,4.2c1.3,1,2.9,1.6,4.8,1.6c2.3,0,4.2-0.8,5.7-2.4l2,2.3
		c-0.9,1-2,1.8-3.3,2.4c-1.3,0.5-2.8,0.8-4.4,0.8c-2.1,0-3.9-0.4-5.5-1.3c-1.6-0.9-2.8-2-3.7-3.6c-0.9-1.5-1.3-3.3-1.3-5.2
		c0-1.9,0.4-3.6,1.3-5.1s2-2.7,3.5-3.6c1.5-0.9,3.2-1.3,5.1-1.3c1.9,0,3.5,0.4,5,1.3c1.5,0.9,2.6,2,3.4,3.6c0.8,1.5,1.2,3.3,1.2,5.3
		C381.5,360.1,381.4,360.5,381.4,360.9z M367.5,354.3c-1.1,1-1.8,2.4-2,4.1h12.6c-0.2-1.7-0.9-3-2-4.1c-1.1-1-2.6-1.6-4.3-1.6
		S368.6,353.3,367.5,354.3z"/>
	<path class="st8" d="M403.4,349.9l-8.6,19.6h-3.6l-8.6-19.6h3.7l6.7,15.7l6.9-15.7H403.4z"/>
	<path class="st8" d="M423.8,360.9h-15.9c0.2,1.7,1,3.1,2.3,4.2c1.3,1,2.9,1.6,4.8,1.6c2.3,0,4.2-0.8,5.7-2.4l2,2.3
		c-0.9,1-2,1.8-3.3,2.4c-1.3,0.5-2.8,0.8-4.4,0.8c-2.1,0-3.9-0.4-5.5-1.3c-1.6-0.9-2.8-2-3.7-3.6c-0.9-1.5-1.3-3.3-1.3-5.2
		c0-1.9,0.4-3.6,1.3-5.1s2-2.7,3.5-3.6c1.5-0.9,3.2-1.3,5.1-1.3c1.9,0,3.5,0.4,5,1.3c1.5,0.9,2.6,2,3.4,3.6c0.8,1.5,1.2,3.3,1.2,5.3
		C423.9,360.1,423.8,360.5,423.8,360.9z M409.9,354.3c-1.1,1-1.8,2.4-2,4.1h12.6c-0.2-1.7-0.9-3-2-4.1c-1.1-1-2.6-1.6-4.3-1.6
		S411,353.3,409.9,354.3z"/>
	<path class="st8" d="M428.8,342.1h3.6v27.5h-3.6V342.1z"/>
	<path class="st8" d="M442.3,368.5c-1.6-0.9-2.8-2.1-3.6-3.6c-0.9-1.5-1.3-3.2-1.3-5.2c0-1.9,0.4-3.6,1.3-5.2
		c0.9-1.5,2.1-2.7,3.6-3.6c1.6-0.9,3.3-1.3,5.3-1.3c1.9,0,3.7,0.4,5.2,1.3c1.5,0.9,2.8,2,3.6,3.6c0.9,1.5,1.3,3.2,1.3,5.2
		c0,1.9-0.4,3.6-1.3,5.2c-0.9,1.5-2.1,2.7-3.6,3.6c-1.5,0.9-3.3,1.3-5.2,1.3C445.6,369.8,443.8,369.3,442.3,368.5z M450.9,365.8
		c1-0.6,1.8-1.4,2.3-2.4c0.6-1,0.9-2.3,0.9-3.6c0-1.4-0.3-2.6-0.9-3.6c-0.6-1-1.4-1.9-2.3-2.4s-2.1-0.9-3.4-0.9
		c-1.3,0-2.4,0.3-3.4,0.9s-1.8,1.4-2.4,2.4c-0.6,1-0.9,2.3-0.9,3.6c0,1.4,0.3,2.6,0.9,3.6c0.6,1,1.4,1.9,2.4,2.4
		c1,0.6,2.1,0.9,3.4,0.9C448.8,366.6,449.9,366.4,450.9,365.8z"/>
	<path class="st8" d="M478.1,351c1.5,0.8,2.7,2,3.5,3.5c0.9,1.5,1.3,3.2,1.3,5.2c0,2-0.4,3.7-1.3,5.2c-0.9,1.5-2,2.7-3.5,3.5
		c-1.5,0.8-3.2,1.3-5.1,1.3c-1.4,0-2.7-0.3-3.9-0.8c-1.2-0.5-2.2-1.3-3-2.4v10.1h-3.6v-26.8h3.4v3.1c0.8-1.1,1.8-1.9,3-2.5
		c1.2-0.6,2.5-0.8,4-0.8C474.9,349.7,476.6,350.2,478.1,351z M476.1,365.8c1-0.6,1.8-1.4,2.4-2.4c0.6-1,0.9-2.3,0.9-3.6
		c0-1.4-0.3-2.6-0.9-3.6c-0.6-1-1.4-1.9-2.4-2.4s-2.1-0.9-3.4-0.9c-1.2,0-2.3,0.3-3.3,0.9c-1,0.6-1.8,1.4-2.4,2.4
		c-0.6,1-0.9,2.2-0.9,3.6c0,1.4,0.3,2.6,0.9,3.6c0.6,1,1.4,1.9,2.4,2.4c1,0.6,2.1,0.9,3.4,0.9C474,366.6,475.1,366.4,476.1,365.8z"
		/>
	<path class="st8" d="M516.3,342.1v27.5h-3.4v-3.1c-0.8,1.1-1.8,1.9-3,2.5s-2.5,0.9-4,0.9c-1.9,0-3.6-0.4-5.1-1.3s-2.7-2-3.5-3.5
		c-0.9-1.5-1.3-3.3-1.3-5.2c0-2,0.4-3.7,1.3-5.2c0.9-1.5,2-2.7,3.5-3.5s3.2-1.3,5.1-1.3c1.4,0,2.7,0.3,3.9,0.8
		c1.2,0.5,2.2,1.3,3,2.3v-10.8H516.3z M509.6,365.8c1-0.6,1.8-1.4,2.4-2.4c0.6-1,0.9-2.3,0.9-3.6c0-1.4-0.3-2.6-0.9-3.6
		c-0.6-1-1.4-1.9-2.4-2.4c-1-0.6-2.1-0.9-3.4-0.9c-1.3,0-2.4,0.3-3.4,0.9s-1.8,1.4-2.4,2.4c-0.6,1-0.9,2.3-0.9,3.6
		c0,1.4,0.3,2.6,0.9,3.6c0.6,1,1.4,1.9,2.4,2.4c1,0.6,2.1,0.9,3.4,0.9C507.4,366.6,508.5,366.4,509.6,365.8z"/>
	<path class="st8" d="M536.4,351.7c1.4,1.3,2.2,3.3,2.2,6v11.8h-3.4v-2.6c-0.6,0.9-1.4,1.6-2.5,2.1c-1.1,0.5-2.4,0.7-3.9,0.7
		c-2.2,0-4-0.5-5.3-1.6c-1.3-1.1-2-2.5-2-4.2s0.6-3.1,1.9-4.2c1.3-1,3.3-1.6,6-1.6h5.6v-0.7c0-1.5-0.4-2.7-1.3-3.5
		c-0.9-0.8-2.2-1.2-3.9-1.2c-1.2,0-2.3,0.2-3.4,0.6c-1.1,0.4-2,0.9-2.8,1.5l-1.5-2.7c1-0.8,2.2-1.4,3.6-1.9c1.4-0.4,2.9-0.6,4.5-0.6
		C532.9,349.7,535,350.4,536.4,351.7z M532.9,366.1c1-0.6,1.7-1.5,2.1-2.6v-2.7h-5.5c-3,0-4.5,1-4.5,3c0,1,0.4,1.8,1.1,2.3
		c0.8,0.6,1.8,0.9,3.2,0.9C530.7,367,531.9,366.7,532.9,366.1z"/>
	<path class="st8" d="M556.2,368.4c-0.5,0.4-1.2,0.8-1.9,1c-0.8,0.2-1.6,0.4-2.4,0.4c-2,0-3.5-0.5-4.6-1.6c-1.1-1.1-1.6-2.6-1.6-4.6
		v-10.8h-3.3v-2.9h3.3v-4.3h3.6v4.3h5.6v2.9h-5.6v10.6c0,1.1,0.3,1.9,0.8,2.4c0.5,0.6,1.3,0.9,2.3,0.9c1.1,0,2-0.3,2.8-0.9
		L556.2,368.4z"/>
	<path class="st8" d="M573.8,351.7c1.4,1.3,2.2,3.3,2.2,6v11.8h-3.4v-2.6c-0.6,0.9-1.4,1.6-2.5,2.1c-1.1,0.5-2.4,0.7-3.9,0.7
		c-2.2,0-4-0.5-5.3-1.6c-1.3-1.1-2-2.5-2-4.2s0.6-3.1,1.9-4.2c1.3-1,3.3-1.6,6-1.6h5.6v-0.7c0-1.5-0.4-2.7-1.3-3.5
		c-0.9-0.8-2.2-1.2-3.9-1.2c-1.2,0-2.3,0.2-3.4,0.6c-1.1,0.4-2,0.9-2.8,1.5l-1.5-2.7c1-0.8,2.2-1.4,3.6-1.9c1.4-0.4,2.9-0.6,4.5-0.6
		C570.3,349.7,572.4,350.4,573.8,351.7z M570.3,366.1c1-0.6,1.7-1.5,2.1-2.6v-2.7H567c-3,0-4.5,1-4.5,3c0,1,0.4,1.8,1.1,2.3
		c0.8,0.6,1.8,0.9,3.2,0.9C568.2,367,569.3,366.7,570.3,366.1z"/>
	<path class="st8" d="M598.7,350.6c1.2-0.6,2.7-0.9,4.4-0.9v3.4c-0.2,0-0.5,0-0.8,0c-1.9,0-3.4,0.6-4.5,1.7
		c-1.1,1.1-1.6,2.8-1.6,4.9v9.8h-3.6v-19.6h3.4v3.3C596.6,352.1,597.5,351.2,598.7,350.6z"/>
	<path class="st8" d="M624.9,360.9H609c0.2,1.7,1,3.1,2.3,4.2c1.3,1,2.9,1.6,4.8,1.6c2.3,0,4.2-0.8,5.7-2.4l2,2.3
		c-0.9,1-2,1.8-3.3,2.4c-1.3,0.5-2.8,0.8-4.4,0.8c-2.1,0-3.9-0.4-5.5-1.3c-1.6-0.9-2.8-2-3.7-3.6c-0.9-1.5-1.3-3.3-1.3-5.2
		c0-1.9,0.4-3.6,1.3-5.1s2-2.7,3.5-3.6c1.5-0.9,3.2-1.3,5.1-1.3c1.9,0,3.5,0.4,5,1.3c1.5,0.9,2.6,2,3.4,3.6c0.8,1.5,1.2,3.3,1.2,5.3
		C625,360.1,625,360.5,624.9,360.9z M611,354.3c-1.1,1-1.8,2.4-2,4.1h12.6c-0.2-1.7-0.9-3-2-4.1c-1.1-1-2.6-1.6-4.3-1.6
		S612.2,353.3,611,354.3z"/>
	<path class="st8" d="M629.9,342.1h3.6v27.5h-3.6V342.1z"/>
	<path class="st8" d="M653.6,351.7c1.4,1.3,2.2,3.3,2.2,6v11.8h-3.4v-2.6c-0.6,0.9-1.4,1.6-2.5,2.1c-1.1,0.5-2.4,0.7-3.9,0.7
		c-2.2,0-4-0.5-5.3-1.6c-1.3-1.1-2-2.5-2-4.2s0.6-3.1,1.9-4.2c1.3-1,3.3-1.6,6-1.6h5.6v-0.7c0-1.5-0.4-2.7-1.3-3.5
		c-0.9-0.8-2.2-1.2-3.9-1.2c-1.2,0-2.3,0.2-3.4,0.6c-1.1,0.4-2,0.9-2.8,1.5l-1.5-2.7c1-0.8,2.2-1.4,3.6-1.9c1.4-0.4,2.9-0.6,4.5-0.6
		C650.1,349.7,652.2,350.4,653.6,351.7z M650.1,366.1c1-0.6,1.7-1.5,2.1-2.6v-2.7h-5.5c-3,0-4.5,1-4.5,3c0,1,0.4,1.8,1.1,2.3
		c0.8,0.6,1.8,0.9,3.2,0.9C647.9,367,649.1,366.7,650.1,366.1z"/>
	<path class="st8" d="M673.4,368.4c-0.5,0.4-1.2,0.8-1.9,1c-0.8,0.2-1.6,0.4-2.4,0.4c-2,0-3.5-0.5-4.6-1.6c-1.1-1.1-1.6-2.6-1.6-4.6
		v-10.8h-3.3v-2.9h3.3v-4.3h3.6v4.3h5.6v2.9h-5.6v10.6c0,1.1,0.3,1.9,0.8,2.4c0.5,0.6,1.3,0.9,2.3,0.9c1.1,0,2-0.3,2.8-0.9
		L673.4,368.4z"/>
	<path class="st8" d="M694.7,360.9h-15.9c0.2,1.7,1,3.1,2.3,4.2c1.3,1,2.9,1.6,4.8,1.6c2.3,0,4.2-0.8,5.7-2.4l2,2.3
		c-0.9,1-2,1.8-3.3,2.4c-1.3,0.5-2.8,0.8-4.4,0.8c-2.1,0-3.9-0.4-5.5-1.3c-1.6-0.9-2.8-2-3.7-3.6c-0.9-1.5-1.3-3.3-1.3-5.2
		c0-1.9,0.4-3.6,1.3-5.1s2-2.7,3.5-3.6c1.5-0.9,3.2-1.3,5.1-1.3c1.9,0,3.5,0.4,5,1.3c1.5,0.9,2.6,2,3.4,3.6c0.8,1.5,1.2,3.3,1.2,5.3
		C694.7,360.1,694.7,360.5,694.7,360.9z M680.8,354.3c-1.1,1-1.8,2.4-2,4.1h12.6c-0.2-1.7-0.9-3-2-4.1c-1.1-1-2.6-1.6-4.3-1.6
		S681.9,353.3,680.8,354.3z"/>
	<path class="st8" d="M718.2,342.1v27.5h-3.4v-3.1c-0.8,1.1-1.8,1.9-3,2.5s-2.5,0.9-4,0.9c-1.9,0-3.6-0.4-5.1-1.3s-2.7-2-3.5-3.5
		c-0.9-1.5-1.3-3.3-1.3-5.2c0-2,0.4-3.7,1.3-5.2c0.9-1.5,2-2.7,3.5-3.5s3.2-1.3,5.1-1.3c1.4,0,2.7,0.3,3.9,0.8
		c1.2,0.5,2.2,1.3,3,2.3v-10.8H718.2z M711.4,365.8c1-0.6,1.8-1.4,2.4-2.4c0.6-1,0.9-2.3,0.9-3.6c0-1.4-0.3-2.6-0.9-3.6
		c-0.6-1-1.4-1.9-2.4-2.4c-1-0.6-2.1-0.9-3.4-0.9c-1.3,0-2.4,0.3-3.4,0.9s-1.8,1.4-2.4,2.4c-0.6,1-0.9,2.3-0.9,3.6
		c0,1.4,0.3,2.6,0.9,3.6c0.6,1,1.4,1.9,2.4,2.4c1,0.6,2.1,0.9,3.4,0.9C709.3,366.6,710.4,366.4,711.4,365.8z"/>
	<path class="st8" d="M753.6,349.9v16.9c0,3.4-0.9,6-2.6,7.6c-1.7,1.6-4.2,2.5-7.6,2.5c-1.9,0-3.6-0.3-5.3-0.8
		c-1.7-0.5-3-1.2-4.1-2.2l1.7-2.7c0.9,0.8,2,1.4,3.4,1.9c1.3,0.5,2.7,0.7,4.2,0.7c2.3,0,4-0.5,5.1-1.6c1.1-1.1,1.6-2.7,1.6-5v-1.6
		c-0.8,1-1.9,1.8-3.1,2.3c-1.2,0.5-2.5,0.8-4,0.8c-1.9,0-3.6-0.4-5.1-1.2s-2.7-1.9-3.6-3.4c-0.9-1.4-1.3-3.1-1.3-4.9
		s0.4-3.5,1.3-4.9c0.9-1.4,2.1-2.6,3.6-3.3c1.5-0.8,3.2-1.2,5.1-1.2c1.5,0,2.9,0.3,4.1,0.8c1.3,0.5,2.3,1.3,3.1,2.4v-3H753.6z
		 M746.9,364.8c1-0.5,1.8-1.3,2.4-2.3s0.9-2.1,0.9-3.3c0-1.9-0.6-3.4-1.9-4.6c-1.3-1.2-2.9-1.8-4.8-1.8c-2,0-3.6,0.6-4.9,1.8
		c-1.3,1.2-1.9,2.7-1.9,4.6c0,1.2,0.3,2.3,0.9,3.3c0.6,1,1.4,1.7,2.4,2.3c1,0.5,2.2,0.8,3.5,0.8
		C744.7,365.6,745.8,365.3,746.9,364.8z"/>
	<path class="st8" d="M778.7,349.9v19.6h-3.4v-3c-0.7,1-1.7,1.8-2.8,2.3c-1.2,0.6-2.4,0.8-3.8,0.8c-2.6,0-4.7-0.7-6.2-2.2
		c-1.5-1.4-2.3-3.6-2.3-6.4v-11.3h3.6v10.9c0,1.9,0.5,3.3,1.4,4.3c0.9,1,2.2,1.5,3.9,1.5c1.9,0,3.4-0.6,4.4-1.7s1.6-2.7,1.6-4.8
		v-10.1H778.7z"/>
	<path class="st8" d="M785.5,345.5c-0.5-0.4-0.7-1-0.7-1.6c0-0.6,0.2-1.2,0.7-1.6c0.5-0.5,1-0.7,1.7-0.7c0.7,0,1.3,0.2,1.7,0.6
		s0.7,1,0.7,1.6c0,0.7-0.2,1.2-0.7,1.7s-1,0.7-1.7,0.7C786.5,346.2,785.9,345.9,785.5,345.5z M785.4,349.9h3.6v19.6h-3.6V349.9z"/>
	<path class="st8" d="M814.2,342.1v27.5h-3.4v-3.1c-0.8,1.1-1.8,1.9-3,2.5s-2.5,0.9-4,0.9c-1.9,0-3.6-0.4-5.1-1.3s-2.7-2-3.5-3.5
		c-0.9-1.5-1.3-3.3-1.3-5.2c0-2,0.4-3.7,1.3-5.2c0.9-1.5,2-2.7,3.5-3.5s3.2-1.3,5.1-1.3c1.4,0,2.7,0.3,3.9,0.8
		c1.2,0.5,2.2,1.3,3,2.3v-10.8H814.2z M807.5,365.8c1-0.6,1.8-1.4,2.4-2.4c0.6-1,0.9-2.3,0.9-3.6c0-1.4-0.3-2.6-0.9-3.6
		c-0.6-1-1.4-1.9-2.4-2.4c-1-0.6-2.1-0.9-3.4-0.9c-1.3,0-2.4,0.3-3.4,0.9s-1.8,1.4-2.4,2.4c-0.6,1-0.9,2.3-0.9,3.6
		c0,1.4,0.3,2.6,0.9,3.6c0.6,1,1.4,1.9,2.4,2.4c1,0.6,2.1,0.9,3.4,0.9C805.4,366.6,806.5,366.4,807.5,365.8z"/>
	<path class="st8" d="M838.6,360.9h-15.9c0.2,1.7,1,3.1,2.3,4.2c1.3,1,2.9,1.6,4.8,1.6c2.3,0,4.2-0.8,5.7-2.4l2,2.3
		c-0.9,1-2,1.8-3.3,2.4c-1.3,0.5-2.8,0.8-4.4,0.8c-2.1,0-3.9-0.4-5.5-1.3c-1.6-0.9-2.8-2-3.7-3.6c-0.9-1.5-1.3-3.3-1.3-5.2
		c0-1.9,0.4-3.6,1.3-5.1s2-2.7,3.5-3.6c1.5-0.9,3.2-1.3,5.1-1.3c1.9,0,3.5,0.4,5,1.3c1.5,0.9,2.6,2,3.4,3.6c0.8,1.5,1.2,3.3,1.2,5.3
		C838.7,360.1,838.7,360.5,838.6,360.9z M824.7,354.3c-1.1,1-1.8,2.4-2,4.1h12.6c-0.2-1.7-0.9-3-2-4.1c-1.1-1-2.6-1.6-4.3-1.6
		S825.9,353.3,824.7,354.3z"/>
	<path class="st8" d="M843.6,342.1h3.6v27.5h-3.6V342.1z"/>
	<path class="st8" d="M854,345.5c-0.5-0.4-0.7-1-0.7-1.6c0-0.6,0.2-1.2,0.7-1.6c0.5-0.5,1-0.7,1.7-0.7c0.7,0,1.3,0.2,1.7,0.6
		s0.7,1,0.7,1.6c0,0.7-0.2,1.2-0.7,1.7s-1,0.7-1.7,0.7C855,346.2,854.5,345.9,854,345.5z M853.9,349.9h3.6v19.6h-3.6V349.9z"/>
	<path class="st8" d="M880.7,351.9c1.5,1.4,2.2,3.6,2.2,6.3v11.3h-3.6v-10.9c0-1.9-0.5-3.3-1.4-4.3c-0.9-1-2.2-1.4-3.9-1.4
		c-1.9,0-3.4,0.6-4.6,1.7c-1.1,1.1-1.7,2.7-1.7,4.8v10.1h-3.6v-19.6h3.4v3c0.7-1,1.7-1.8,2.9-2.3c1.2-0.5,2.6-0.8,4.2-0.8
		C877.2,349.7,879.2,350.5,880.7,351.9z"/>
	<path class="st8" d="M907.2,360.9h-15.9c0.2,1.7,1,3.1,2.3,4.2c1.3,1,2.9,1.6,4.8,1.6c2.3,0,4.2-0.8,5.7-2.4l2,2.3
		c-0.9,1-2,1.8-3.3,2.4c-1.3,0.5-2.8,0.8-4.4,0.8c-2.1,0-3.9-0.4-5.5-1.3s-2.8-2-3.7-3.6c-0.9-1.5-1.3-3.3-1.3-5.2
		c0-1.9,0.4-3.6,1.3-5.1c0.9-1.5,2-2.7,3.5-3.6c1.5-0.9,3.2-1.3,5.1-1.3c1.9,0,3.5,0.4,5,1.3c1.5,0.9,2.6,2,3.4,3.6s1.2,3.3,1.2,5.3
		C907.3,360.1,907.3,360.5,907.2,360.9z M893.3,354.3c-1.1,1-1.8,2.4-2,4.1h12.6c-0.2-1.7-0.9-3-2-4.1c-1.1-1-2.6-1.6-4.3-1.6
		S894.5,353.3,893.3,354.3z"/>
	<path class="st8" d="M913.2,369.1c-1.5-0.4-2.6-1-3.5-1.6l1.5-2.8c0.9,0.6,1.9,1.1,3.1,1.5s2.5,0.6,3.7,0.6c3.1,0,4.7-0.9,4.7-2.7
		c0-0.6-0.2-1.1-0.6-1.4c-0.4-0.3-0.9-0.6-1.6-0.8c-0.6-0.2-1.5-0.3-2.7-0.5c-1.6-0.2-2.9-0.5-3.9-0.9c-1-0.3-1.9-0.9-2.6-1.6
		c-0.7-0.8-1.1-1.8-1.1-3.2c0-1.8,0.7-3.2,2.2-4.3c1.5-1.1,3.5-1.6,6-1.6c1.3,0,2.6,0.2,3.9,0.5c1.3,0.3,2.4,0.8,3.2,1.3l-1.5,2.8
		c-1.6-1-3.5-1.6-5.7-1.6c-1.5,0-2.7,0.2-3.4,0.7c-0.8,0.5-1.2,1.1-1.2,2c0,0.6,0.2,1.1,0.7,1.5c0.4,0.4,1,0.6,1.6,0.8
		c0.7,0.2,1.6,0.4,2.8,0.6c1.6,0.3,2.9,0.6,3.8,0.9c1,0.3,1.8,0.8,2.5,1.6s1,1.8,1,3.1c0,1.8-0.8,3.2-2.3,4.2
		c-1.5,1-3.6,1.6-6.2,1.6C916.2,369.8,914.7,369.5,913.2,369.1z"/>
	<path class="st8" d="M929.8,369c-0.5-0.5-0.7-1.1-0.7-1.8c0-0.7,0.2-1.3,0.7-1.8c0.5-0.5,1.1-0.7,1.8-0.7s1.3,0.2,1.7,0.7
		c0.5,0.5,0.7,1.1,0.7,1.8s-0.2,1.4-0.7,1.8c-0.5,0.5-1.1,0.7-1.7,0.7C930.9,369.8,930.3,369.5,929.8,369z"/>
</g>
</svg>
