<?xml version="1.0" encoding="utf-8"?>
<!-- Generator: Adobe Illustrator 24.3.0, SVG Export Plug-In . SVG Version: 6.00 Build 0)  -->
<svg version="1.1" id="Layer_1" xmlns="http://www.w3.org/2000/svg" xmlns:xlink="http://www.w3.org/1999/xlink" x="0px" y="0px"
	 viewBox="0 0 1617.9 582.4" style="enable-background:new 0 0 1617.9 582.4;" xml:space="preserve">
<style type="text/css">
	.st0{fill:#69BFC3;}
	.st1{fill:none;stroke:#FFFFFF;stroke-width:3;stroke-miterlimit:10;}
	.st2{opacity:0.5;fill:#434343;enable-background:new    ;}
	.st3{fill:url(#SVGID_1_);}
	.st4{fill:url(#SVGID_2_);}
	.st5{fill:url(#SVGID_3_);}
	.st6{opacity:0.1;enable-background:new    ;}
	.st7{fill:#FFFFFF;}
	.st8{fill:#606161;}
</style>
<g id="Layer_2_1_">
	<g id="Layer_1-2">
		<path class="st0" d="M1524.2,582.4H295.1c-51.8,0-93.7-130.4-93.7-291.2l0,0c0-160.8,42-291.2,93.7-291.2h1229.1
			c51.8,0,93.7,130.4,93.7,291.2l0,0C1617.9,452,1575.9,582.4,1524.2,582.4z"/>
		<line class="st1" x1="427" y1="247.7" x2="1587.9" y2="247.7"/>
		<path class="st2" d="M187.9,132c97.9,0,191.4,70.2,191.4,168.1s-62.1,174.5-160,174.5S38.4,393.2,38.4,295.3S90,132,187.9,132z"/>
		
			<radialGradient id="SVGID_1_" cx="7817.8682" cy="7790.1777" r="501.559" gradientTransform="matrix(0 -1 1 0 -7761.4219 7878.7759)" gradientUnits="userSpaceOnUse">
			<stop  offset="0" style="stop-color:#FFFFFF"/>
			<stop  offset="0.231" style="stop-color:#FCFCFC"/>
			<stop  offset="0.42" style="stop-color:#F2F2F2"/>
			<stop  offset="0.594" style="stop-color:#E0E0E1"/>
			<stop  offset="0.759" style="stop-color:#C8C8C9"/>
			<stop  offset="0.917" style="stop-color:#AAAAAA"/>
			<stop  offset="1" style="stop-color:#969697"/>
		</radialGradient>
		<path class="st3" d="M206.8,86.9c114.2,0,206.8,92.6,206.8,206.8S321,500.5,206.8,500.5S0,407.9,0,293.7S92.6,86.9,206.8,86.9z"/>
		
			<radialGradient id="SVGID_2_" cx="7733.4121" cy="7845.6318" r="478.154" gradientTransform="matrix(0 -1 1 0 -7761.4219 7878.7759)" gradientUnits="userSpaceOnUse">
			<stop  offset="0" style="stop-color:#FFFFFF"/>
			<stop  offset="0.258" style="stop-color:#FCFCFC"/>
			<stop  offset="0.468" style="stop-color:#F2F2F2"/>
			<stop  offset="0.662" style="stop-color:#E0E0E1"/>
			<stop  offset="0.846" style="stop-color:#C9C9C9"/>
			<stop  offset="1" style="stop-color:#AEAEAF"/>
		</radialGradient>
		<path class="st4" d="M206.8,96.6c108.9,0,197.2,88.3,197.2,197.2S315.7,491,206.8,491S9.6,402.7,9.6,293.8
			C9.6,184.8,97.9,96.6,206.8,96.6z"/>
		
			<radialGradient id="SVGID_3_" cx="7442.5601" cy="8104.1104" r="528.506" gradientTransform="matrix(0 -1 1 0 -7761.4219 7878.7759)" gradientUnits="userSpaceOnUse">
			<stop  offset="0" style="stop-color:#FFFFFF"/>
			<stop  offset="0.165" style="stop-color:#F8F8F8"/>
			<stop  offset="0.411" style="stop-color:#E3E3E3"/>
			<stop  offset="0.709" style="stop-color:#C2C2C2"/>
			<stop  offset="1" style="stop-color:#9A9A9A"/>
		</radialGradient>
		<path class="st5" d="M206.8,135.2c87.5,0,158.5,71,158.5,158.5s-71,158.5-158.5,158.5s-158.5-71-158.5-158.5
			C48.3,206.2,119.2,135.2,206.8,135.2C206.8,135.2,206.8,135.2,206.8,135.2z"/>
		<path class="st6" d="M206.8,149.5c79.6,0,144.2,64.6,144.2,144.2s-64.6,144.2-144.2,144.2S62.6,373.3,62.6,293.7
			C62.6,214.1,127.2,149.5,206.8,149.5z"/>
		<g>
			<path class="st7" d="M438.9,156h-12.1v-7.1h32.9v7.1h-12.1v30.7h-8.7V156z"/>
			<path class="st7" d="M489.2,174.5h-22c0.4,1.7,1.4,3.3,2.8,4.3c1.6,1.1,3.6,1.6,5.5,1.6c1.4,0,2.7-0.2,4-0.7
				c1.2-0.5,2.3-1.2,3.3-2.1l4.5,4.9c-2.7,3.1-6.7,4.7-12,4.7c-3,0.1-6-0.6-8.7-1.9c-2.4-1.2-4.4-3-5.8-5.3c-1.4-2.3-2.1-5-2.1-7.7
				c0-2.7,0.7-5.4,2-7.7c1.3-2.3,3.2-4.1,5.6-5.3c4.9-2.5,10.7-2.6,15.6-0.1c2.3,1.2,4.2,3,5.4,5.3c1.4,2.4,2,5.2,2,8
				C489.3,172.4,489.3,173.1,489.2,174.5z M469.5,165.2c-1.3,1.1-2.2,2.7-2.4,4.4h14.3c-0.2-1.7-1.1-3.3-2.4-4.4
				c-1.3-1.1-3-1.7-4.8-1.6C472.5,163.5,470.8,164.1,469.5,165.2z"/>
			<path class="st7" d="M500.7,185.2c-2.4-1.2-4.4-3-5.8-5.3c-2.8-4.8-2.8-10.7,0-15.4c1.4-2.3,3.4-4.1,5.8-5.3
				c2.6-1.3,5.4-2,8.3-1.9c2.8-0.1,5.6,0.6,8,1.9c2.2,1.2,4,3.1,5,5.5l-6.5,3.5c-1.2-2.5-3.8-4-6.5-4c-2-0.1-4,0.7-5.5,2.2
				c-2.9,3.4-2.9,8.4,0,11.8c1.4,1.4,3.4,2.2,5.5,2.2c2.8,0.1,5.3-1.5,6.5-4l6.5,3.6c-1,2.3-2.8,4.2-5,5.4c-2.5,1.3-5.2,2-8,1.9
				C506.1,187.2,503.2,186.5,500.7,185.2z"/>
			<path class="st7" d="M553,160.4c2.2,2.2,3.3,5.4,3.3,9.6v16.6h-8.4v-15.3c0.1-1.8-0.4-3.7-1.5-5.2c-1.1-1.2-2.7-1.8-4.4-1.7
				c-1.9-0.1-3.7,0.6-5.1,2c-1.3,1.3-1.9,3.3-1.9,5.9v14.4h-8.4v-40.1h8.4v14c1.1-1.1,2.5-2,4-2.6c1.7-0.6,3.4-0.9,5.2-0.9
				C547.5,157.1,550.7,158.2,553,160.4z"/>
			<path class="st7" d="M590.3,160.4c2.2,2.2,3.3,5.4,3.3,9.6v16.6h-8.4v-15.3c0.1-1.8-0.4-3.7-1.5-5.2c-1.1-1.2-2.7-1.8-4.4-1.7
				c-1.9-0.1-3.7,0.6-5.1,2c-1.3,1.3-1.9,3.3-1.9,5.9v14.4H564v-29h8v3.4c1.2-1.2,2.6-2.2,4.2-2.8c1.7-0.7,3.6-1,5.5-1
				C584.8,157.1,588,158.2,590.3,160.4z"/>
			<path class="st7" d="M607.2,185.2c-2.4-1.2-4.3-3-5.7-5.3c-2.7-4.8-2.7-10.7,0-15.4c1.4-2.3,3.3-4.1,5.7-5.3
				c5.2-2.6,11.3-2.6,16.4,0c2.3,1.2,4.3,3.1,5.7,5.3c2.7,4.8,2.7,10.7,0,15.4c-1.4,2.3-3.3,4.1-5.7,5.3
				C618.4,187.8,612.4,187.8,607.2,185.2z M620.7,178c2.8-3.4,2.8-8.3,0-11.7c-1.4-1.5-3.3-2.3-5.3-2.2c-2-0.1-4,0.7-5.3,2.2
				c-2.8,3.4-2.8,8.3,0,11.7c1.4,1.5,3.3,2.2,5.3,2.2C617.4,180.3,619.3,179.5,620.7,178L620.7,178z"/>
			<path class="st7" d="M637,146.6h8.4v40.1H637V146.6z"/>
			<path class="st7" d="M658.8,185.2c-2.4-1.2-4.3-3.1-5.7-5.3c-2.7-4.8-2.7-10.7,0-15.4c1.4-2.3,3.3-4.1,5.7-5.3
				c5.2-2.6,11.3-2.6,16.4,0c2.3,1.2,4.3,3.1,5.7,5.3c2.7,4.8,2.7,10.7,0,15.4c-1.4,2.3-3.3,4.1-5.7,5.3
				C670,187.8,664,187.8,658.8,185.2z M672.3,178c2.8-3.4,2.8-8.3,0-11.7c-1.4-1.5-3.3-2.3-5.3-2.2c-2-0.1-4,0.7-5.3,2.2
				c-2.8,3.4-2.8,8.3,0,11.7c1.4,1.5,3.3,2.2,5.3,2.2C669,180.3,671,179.5,672.3,178L672.3,178z"/>
			<path class="st7" d="M718.5,157.6v24.2c0,5.3-1.4,9.3-4.2,11.9c-2.8,2.6-6.8,3.9-12.1,3.9c-2.7,0-5.4-0.3-8-1
				c-2.3-0.6-4.4-1.6-6.3-3l3.3-6c1.4,1.1,3,1.9,4.6,2.4c1.8,0.6,3.7,0.9,5.6,0.9c2.9,0,5.1-0.7,6.5-2c1.4-1.3,2.1-3.3,2.1-6v-1.2
				c-2.2,2.4-5.3,3.6-9.2,3.6c-2.5,0-5.1-0.6-7.3-1.8c-2.2-1.1-4-2.8-5.3-4.9c-2.6-4.6-2.6-10.1,0-14.7c1.3-2.1,3.1-3.8,5.3-4.9
				c2.3-1.2,4.8-1.8,7.3-1.8c4.2,0,7.4,1.4,9.6,4.2v-3.7L718.5,157.6z M708.1,176.4c2.8-2.8,2.8-7.5,0-10.3c-1.5-1.3-3.5-2.1-5.5-2
				c-2-0.1-4,0.6-5.5,2c-2.8,2.8-2.9,7.4-0.1,10.2c0,0,0.1,0.1,0.1,0.1c1.5,1.3,3.5,2,5.5,2C704.6,178.5,706.6,177.7,708.1,176.4z"
				/>
			<path class="st7" d="M755.2,157.6l-13.1,30.8c-1.3,3.3-3,5.7-4.9,7.1c-2.1,1.4-4.6,2.1-7.1,2.1c-1.5,0-3-0.2-4.5-0.7
				c-1.3-0.4-2.6-1.1-3.6-1.9l3.1-6c0.7,0.6,1.4,1,2.2,1.4c0.8,0.3,1.7,0.5,2.5,0.5c1,0,2-0.2,2.8-0.8c0.9-0.8,1.5-1.7,1.9-2.8
				l0.1-0.3L722,157.6h8.7l8.2,19.7l8.2-19.7L755.2,157.6z"/>
			<path class="st7" d="M774.5,148.9h17.2c3.8-0.1,7.5,0.7,10.9,2.3c3,1.5,5.6,3.8,7.3,6.6c3.5,6.2,3.5,13.7,0,19.9
				c-1.8,2.9-4.3,5.2-7.3,6.6c-3.4,1.6-7.1,2.4-10.9,2.3h-17.2V148.9z M791.3,179.5c3.3,0.2,6.6-1,9-3.2c4.5-4.8,4.5-12.3,0-17.1
				c-2.5-2.2-5.7-3.3-9-3.2h-8v23.4H791.3z"/>
			<path class="st7" d="M830.6,158.3c1.9-0.8,3.9-1.1,5.9-1.1v7.8c-0.9-0.1-1.6-0.1-1.9-0.1c-2.1-0.1-4.1,0.6-5.7,2
				c-1.4,1.3-2.1,3.4-2.1,6.1v13.7h-8.4v-29h8v3.8C827.6,160.1,829,158.9,830.6,158.3z"/>
			<path class="st7" d="M842,152.2c-1.8-1.7-2-4.6-0.2-6.5c0.1-0.1,0.2-0.2,0.2-0.2c1-0.9,2.4-1.4,3.8-1.4c1.4-0.1,2.7,0.4,3.8,1.3
				c0.9,0.8,1.5,2,1.5,3.2c0,1.3-0.5,2.6-1.5,3.5C847.4,154,844.2,154.1,842,152.2L842,152.2z M841.6,157.6h8.4v29h-8.4V157.6z"/>
			<path class="st7" d="M886.7,157.6l-12.3,29h-8.7l-12.2-29h8.7l8,19.8l8.3-19.8L886.7,157.6z"/>
			<path class="st7" d="M917.6,174.5h-22c0.3,1.7,1.4,3.3,2.8,4.3c1.6,1.1,3.6,1.6,5.5,1.6c1.4,0,2.7-0.2,4-0.7
				c1.2-0.5,2.3-1.2,3.3-2.1l4.5,4.9c-2.7,3.1-6.7,4.7-12,4.7c-3,0.1-6-0.6-8.7-1.9c-2.4-1.2-4.4-3-5.8-5.3c-1.4-2.3-2.1-5-2.1-7.7
				c0-2.7,0.7-5.4,2-7.7c1.3-2.3,3.2-4.1,5.6-5.3c4.9-2.5,10.7-2.6,15.6-0.1c2.3,1.2,4.2,3,5.4,5.3c1.4,2.4,2,5.2,2,8
				C917.8,172.4,917.7,173.1,917.6,174.5z M897.9,165.2c-1.3,1.1-2.2,2.7-2.4,4.4h14.3c-0.2-1.7-1.1-3.3-2.4-4.4
				c-1.3-1.1-3-1.7-4.8-1.6C900.9,163.5,899.2,164.1,897.9,165.2z"/>
			<path class="st7" d="M949.7,160.4c2.2,2.2,3.3,5.4,3.3,9.6v16.6h-8.4v-15.3c0.1-1.8-0.4-3.7-1.5-5.2c-1.1-1.2-2.7-1.8-4.4-1.7
				c-1.9-0.1-3.7,0.6-5.1,2c-1.3,1.3-1.9,3.3-1.9,5.9v14.4h-8.4v-29h8v3.4c1.2-1.2,2.6-2.2,4.2-2.8c1.7-0.7,3.6-1,5.5-1
				C944.2,157.1,947.4,158.2,949.7,160.4z"/>
			<path class="st7" d="M980.3,186.1c-2.4-0.6-4.7-1.7-6.7-3.2l3-6.6c1.8,1.3,3.7,2.2,5.8,2.9c2.2,0.7,4.4,1.1,6.7,1.1
				c1.9,0.1,3.8-0.2,5.5-1.1c1.1-0.6,1.8-1.7,1.8-2.9c0-0.9-0.4-1.7-1.1-2.2c-0.8-0.6-1.7-1.1-2.7-1.4c-1.1-0.4-2.6-0.8-4.5-1.2
				c-2.4-0.5-4.8-1.2-7.1-2.1c-1.8-0.7-3.5-1.8-4.7-3.3c-1.4-1.7-2.1-3.9-2-6c0-2.1,0.6-4.2,1.8-6c1.3-1.9,3.2-3.4,5.4-4.2
				c2.8-1.1,5.8-1.6,8.8-1.6c2.4,0,4.8,0.3,7.1,0.9c2.1,0.5,4.2,1.3,6,2.5l-2.7,6.6c-3.2-1.9-6.8-2.9-10.5-3
				c-1.9-0.1-3.8,0.3-5.4,1.2c-1.1,0.7-1.8,1.9-1.8,3.1c0,1.3,0.8,2.4,2,2.9c2,0.8,4.1,1.5,6.2,1.9c2.4,0.5,4.8,1.2,7.1,2.1
				c1.8,0.7,3.4,1.8,4.7,3.2c1.4,1.7,2.1,3.8,2,6c0,2.1-0.6,4.2-1.8,5.9c-1.4,1.9-3.2,3.4-5.4,4.2c-2.8,1.1-5.8,1.6-8.8,1.6
				C986,187.3,983.1,186.9,980.3,186.1z"/>
			<path class="st7" d="M1039.7,157.6v29h-8v-3.5c-1.1,1.2-2.5,2.2-4,2.9c-1.6,0.7-3.3,1-5,1c-3.8,0-6.8-1.1-9.1-3.3
				c-2.2-2.2-3.3-5.5-3.3-9.8v-16.4h8.4v15.2c0,4.7,2,7,5.9,7c1.8,0.1,3.6-0.6,4.9-2c1.2-1.3,1.8-3.3,1.8-5.9v-14.4H1039.7z"/>
			<path class="st7" d="M1050.2,186.2c-1.9-0.4-3.8-1.2-5.5-2.2l2.8-6c1.5,0.9,3,1.6,4.7,2c1.8,0.5,3.6,0.8,5.4,0.8
				c3.6,0,5.3-0.9,5.3-2.6c0-0.9-0.6-1.6-1.5-1.8c-1.5-0.5-3-0.8-4.5-0.9c-2-0.3-4-0.7-5.9-1.2c-1.5-0.5-2.9-1.3-4-2.5
				c-1.2-1.4-1.8-3.2-1.7-5.1c0-1.8,0.5-3.5,1.6-4.9c1.2-1.5,2.8-2.7,4.6-3.3c2.3-0.8,4.8-1.2,7.2-1.2c2.1,0,4.1,0.2,6.1,0.7
				c1.8,0.4,3.5,1,5,1.9l-2.8,6c-2.6-1.4-5.4-2.2-8.4-2.2c-1.4-0.1-2.8,0.2-4.1,0.8c-0.8,0.3-1.3,1.1-1.3,1.9c0,0.9,0.6,1.7,1.5,1.9
				c1.5,0.5,3.1,0.8,4.6,1c2,0.3,3.9,0.7,5.8,1.3c1.5,0.4,2.9,1.3,3.9,2.5c1.2,1.4,1.8,3.2,1.7,5c0,1.7-0.6,3.4-1.6,4.8
				c-1.2,1.5-2.9,2.6-4.7,3.3c-2.4,0.8-4.9,1.2-7.4,1.2C1054.9,187.1,1052.5,186.8,1050.2,186.2z"/>
			<path class="st7" d="M1094.9,185.3c-0.9,0.7-2,1.1-3.1,1.4c-1.2,0.3-2.5,0.5-3.8,0.5c-3.5,0-6.1-0.9-8-2.6s-2.8-4.4-2.8-7.8
				v-11.9h-4.5v-6.5h4.5v-7.1h8.4v7.1h7.2v6.5h-7.2v11.8c-0.1,1,0.3,2,0.9,2.8c0.7,0.7,1.7,1.1,2.7,1c1.2,0,2.4-0.3,3.4-1.1
				L1094.9,185.3z"/>
			<path class="st7" d="M1121.7,160.4c2.4,2.1,3.6,5.4,3.6,9.7v16.6h-7.9v-3.6c-1.6,2.7-4.5,4-8.9,4c-2,0-4-0.3-5.8-1.1
				c-1.5-0.7-2.8-1.7-3.8-3.1c-0.9-1.4-1.3-2.9-1.3-4.5c-0.1-2.5,1-4.9,3.1-6.4c2-1.5,5.2-2.3,9.4-2.3h6.7c0.1-1.6-0.5-3.1-1.7-4.2
				c-1.4-1.1-3.2-1.6-5-1.5c-1.5,0-3.1,0.2-4.6,0.7c-1.4,0.4-2.7,1.1-3.8,2l-3-5.9c1.7-1.2,3.7-2.1,5.7-2.6c2.2-0.6,4.5-0.9,6.8-0.9
				C1115.9,157.2,1119.3,158.3,1121.7,160.4z M1114.5,180.5c1.1-0.7,2-1.7,2.4-2.9v-3h-5.8c-3.5,0-5.2,1.1-5.2,3.4
				c0,1,0.4,2,1.3,2.6c1,0.7,2.3,1,3.5,0.9C1112.1,181.5,1113.4,181.1,1114.5,180.5L1114.5,180.5z"/>
			<path class="st7" d="M1133.4,152.2c-1.8-1.7-2-4.6-0.2-6.5c0.1-0.1,0.2-0.2,0.2-0.2c1-0.9,2.4-1.4,3.8-1.4
				c1.4-0.1,2.7,0.4,3.8,1.3c0.9,0.8,1.5,2,1.5,3.2c0,1.3-0.5,2.6-1.5,3.5c-1,0.9-2.4,1.4-3.8,1.4
				C1135.8,153.7,1134.4,153.2,1133.4,152.2z M1133,157.6h8.4v29h-8.4V157.6z"/>
			<path class="st7" d="M1175.6,160.4c2.2,2.2,3.3,5.4,3.3,9.6v16.6h-8.4v-15.3c0.1-1.8-0.4-3.7-1.5-5.2c-1.1-1.2-2.7-1.8-4.4-1.7
				c-1.9-0.1-3.7,0.6-5.1,2c-1.3,1.3-1.9,3.3-1.9,5.9v14.4h-8.4v-29h8v3.4c1.2-1.2,2.6-2.2,4.2-2.8c1.7-0.7,3.6-1,5.5-1
				C1170.1,157.1,1173.2,158.2,1175.6,160.4z"/>
			<path class="st7" d="M1208.6,160.4c2.4,2.1,3.6,5.4,3.6,9.7v16.6h-7.9v-3.6c-1.6,2.7-4.5,4-8.9,4c-2,0-4-0.3-5.8-1.1
				c-1.5-0.7-2.8-1.7-3.8-3.1c-0.9-1.4-1.3-2.9-1.3-4.5c-0.1-2.5,1-4.9,3.1-6.4c2-1.5,5.2-2.3,9.4-2.3h6.7c0.1-1.6-0.5-3.1-1.7-4.2
				c-1.4-1.1-3.2-1.6-5-1.5c-1.5,0-3.1,0.2-4.6,0.7c-1.4,0.4-2.7,1.1-3.8,2l-3-5.9c1.7-1.2,3.7-2.1,5.7-2.6c2.2-0.6,4.5-0.9,6.8-0.9
				C1202.7,157.2,1206.2,158.3,1208.6,160.4z M1201.4,180.5c1.1-0.7,2-1.7,2.4-2.9v-3h-5.8c-3.5,0-5.2,1.1-5.2,3.4
				c0,1,0.4,2,1.3,2.6c1,0.7,2.3,1,3.5,0.9C1198.9,181.5,1200.2,181.1,1201.4,180.5L1201.4,180.5z"/>
			<path class="st7" d="M1244.4,159.1c2.2,1.2,4,3,5.2,5.2c2.5,4.9,2.5,10.8,0,15.7c-1.2,2.2-3,4-5.2,5.2c-2.3,1.3-4.8,1.9-7.4,1.9
				c-4,0-7-1.3-9.1-3.8v3.3h-8v-40.1h8.4v14.1c2.3-2.4,5.5-3.7,8.7-3.5C1239.6,157.2,1242.1,157.8,1244.4,159.1z M1240.8,178
				c2.8-3.4,2.8-8.3,0-11.7c-2.9-2.9-7.7-2.9-10.6,0c-2.8,3.4-2.8,8.3,0,11.7C1233.2,180.9,1237.9,180.9,1240.8,178z"/>
			<path class="st7" d="M1257.1,146.6h8.4v40.1h-8.4V146.6z"/>
			<path class="st7" d="M1301.6,174.5h-22c0.4,1.7,1.4,3.3,2.8,4.3c1.6,1.1,3.6,1.6,5.5,1.6c1.4,0,2.7-0.2,4-0.7
				c1.2-0.5,2.3-1.2,3.3-2.1l4.5,4.9c-2.7,3.1-6.7,4.7-12,4.7c-3,0.1-6-0.6-8.7-1.9c-2.4-1.2-4.4-3-5.8-5.3c-1.4-2.3-2.1-5-2.1-7.7
				c0-2.7,0.7-5.4,2-7.7c1.3-2.3,3.2-4.1,5.6-5.3c4.9-2.5,10.7-2.6,15.6-0.1c2.3,1.2,4.2,3,5.4,5.3c1.4,2.4,2,5.2,2,8
				C1301.8,172.4,1301.7,173.1,1301.6,174.5z M1281.9,165.2c-1.3,1.1-2.2,2.7-2.4,4.4h14.3c-0.2-1.7-1.1-3.3-2.4-4.4
				c-1.3-1.1-3-1.7-4.8-1.6C1285,163.5,1283.3,164.1,1281.9,165.2L1281.9,165.2z"/>
			<path class="st7" d="M1327,186.1c-2.4-0.6-4.7-1.7-6.7-3.2l3-6.6c1.8,1.3,3.7,2.2,5.8,2.9c2.2,0.7,4.4,1.1,6.7,1.1
				c1.9,0.1,3.8-0.2,5.5-1.1c1.1-0.6,1.8-1.7,1.8-2.9c0-0.9-0.4-1.7-1.1-2.2c-0.8-0.6-1.7-1.1-2.7-1.4c-1.1-0.4-2.6-0.8-4.5-1.2
				c-2.4-0.5-4.8-1.2-7.1-2.1c-1.8-0.7-3.5-1.8-4.7-3.3c-1.4-1.7-2.1-3.9-2-6c0-2.1,0.6-4.2,1.8-6c1.3-1.9,3.2-3.4,5.4-4.2
				c2.8-1.1,5.8-1.6,8.8-1.6c2.4,0,4.8,0.3,7.1,0.9c2.1,0.5,4.2,1.3,6,2.5l-2.7,6.6c-3.2-1.9-6.8-2.9-10.5-3
				c-1.9-0.1-3.8,0.3-5.4,1.2c-1.1,0.7-1.8,1.9-1.8,3.1c0,1.3,0.8,2.4,2,2.9c2,0.8,4.1,1.5,6.2,1.9c2.4,0.5,4.8,1.2,7.1,2.1
				c1.8,0.7,3.4,1.8,4.7,3.2c1.4,1.7,2.1,3.8,2,6c0,2.1-0.6,4.2-1.8,5.9c-1.4,1.9-3.2,3.4-5.4,4.2c-2.8,1.1-5.8,1.6-8.8,1.6
				C1332.7,187.3,1329.8,186.9,1327,186.1z"/>
			<path class="st7" d="M1362.7,185.2c-2.4-1.2-4.3-3.1-5.7-5.3c-2.7-4.8-2.7-10.7,0-15.4c1.4-2.3,3.3-4.1,5.7-5.3
				c5.2-2.6,11.3-2.6,16.4,0c2.3,1.2,4.3,3.1,5.7,5.3c2.7,4.8,2.7,10.7,0,15.4c-1.4,2.3-3.3,4.1-5.7,5.3
				C1374,187.8,1367.9,187.8,1362.7,185.2z M1376.3,178c2.8-3.4,2.8-8.3,0-11.7c-1.4-1.5-3.3-2.3-5.3-2.2c-2-0.1-4,0.7-5.3,2.2
				c-2.8,3.4-2.8,8.3,0,11.7c1.4,1.5,3.3,2.2,5.3,2.2C1372.9,180.3,1374.9,179.5,1376.3,178L1376.3,178z"/>
			<path class="st7" d="M1392.5,146.6h8.4v40.1h-8.4V146.6z"/>
			<path class="st7" d="M1438,157.6v29h-8v-3.5c-1.1,1.2-2.5,2.2-4,2.9c-1.6,0.7-3.3,1-5,1c-3.8,0-6.8-1.1-9.1-3.3
				c-2.2-2.2-3.3-5.5-3.3-9.8v-16.4h8.4v15.2c0,4.7,2,7,5.9,7c1.8,0.1,3.6-0.6,4.9-2c1.2-1.3,1.8-3.3,1.8-5.9v-14.4H1438z"/>
			<path class="st7" d="M1464.6,185.3c-0.9,0.7-2,1.1-3.1,1.4c-1.2,0.3-2.5,0.5-3.8,0.5c-3.5,0-6.1-0.9-8-2.6
				c-1.9-1.8-2.8-4.4-2.8-7.8v-11.9h-4.5v-6.5h4.5v-7.1h8.4v7.1h7.2v6.5h-7.2v11.8c-0.1,1,0.3,2,0.9,2.8c0.7,0.7,1.7,1.1,2.7,1
				c1.2,0,2.4-0.3,3.4-1.1L1464.6,185.3z"/>
			<path class="st7" d="M1469.7,152.2c-1.8-1.7-2-4.6-0.2-6.5c0.1-0.1,0.2-0.2,0.2-0.2c1-0.9,2.4-1.4,3.8-1.4
				c1.4-0.1,2.7,0.4,3.8,1.3c0.9,0.8,1.5,2,1.5,3.2c0,1.3-0.5,2.6-1.5,3.5c-1,0.9-2.4,1.4-3.8,1.4
				C1472.1,153.7,1470.8,153.2,1469.7,152.2z M1469.3,157.6h8.4v29h-8.4L1469.3,157.6z"/>
			<path class="st7" d="M1491.1,185.2c-2.4-1.2-4.3-3-5.7-5.3c-2.7-4.8-2.7-10.7,0-15.4c1.4-2.3,3.3-4.1,5.7-5.3
				c5.2-2.6,11.3-2.6,16.4,0c2.3,1.2,4.3,3.1,5.7,5.3c2.7,4.8,2.7,10.7,0,15.4c-1.4,2.3-3.3,4.1-5.7,5.3
				C1502.4,187.8,1496.3,187.8,1491.1,185.2z M1504.7,178c2.8-3.4,2.8-8.3,0-11.7c-1.4-1.5-3.3-2.3-5.3-2.2c-2-0.1-4,0.7-5.3,2.2
				c-2.8,3.4-2.8,8.3,0,11.7c1.4,1.5,3.3,2.2,5.3,2.2C1501.4,180.3,1503.3,179.5,1504.7,178L1504.7,178z"/>
			<path class="st7" d="M1547.3,160.4c2.2,2.2,3.3,5.4,3.3,9.6v16.6h-8.4v-15.3c0.1-1.8-0.4-3.7-1.5-5.2c-1.1-1.2-2.7-1.8-4.4-1.7
				c-1.9-0.1-3.7,0.6-5.1,2c-1.3,1.3-1.9,3.3-1.9,5.9v14.4h-8.4v-29h8v3.4c1.2-1.2,2.6-2.2,4.2-2.8c1.7-0.7,3.6-1,5.5-1
				C1541.8,157.1,1544.9,158.2,1547.3,160.4z"/>
			<path class="st7" d="M1560.9,186.2c-1.9-0.4-3.8-1.2-5.5-2.2l2.8-6c1.5,0.9,3,1.6,4.7,2c1.8,0.5,3.6,0.8,5.4,0.8
				c3.6,0,5.3-0.9,5.3-2.6c0-0.9-0.6-1.6-1.5-1.8c-1.5-0.5-3-0.8-4.5-0.9c-2-0.3-4-0.7-5.9-1.2c-1.5-0.5-2.9-1.3-4-2.5
				c-1.2-1.4-1.8-3.2-1.7-5.1c0-1.8,0.5-3.5,1.6-4.9c1.2-1.5,2.8-2.7,4.6-3.3c2.3-0.8,4.8-1.2,7.2-1.2c2.1,0,4.1,0.2,6.1,0.7
				c1.8,0.4,3.5,1,5,1.9l-2.8,6c-2.6-1.4-5.4-2.2-8.4-2.2c-1.4-0.1-2.8,0.2-4.1,0.8c-0.8,0.3-1.3,1.1-1.3,1.9c0,0.9,0.6,1.7,1.5,1.9
				c1.5,0.5,3.1,0.8,4.6,1c2,0.3,3.9,0.7,5.8,1.3c1.5,0.4,2.9,1.3,3.9,2.5c1.2,1.4,1.8,3.2,1.7,5c0,1.7-0.6,3.4-1.6,4.8
				c-1.2,1.5-2.9,2.6-4.7,3.3c-2.4,0.8-4.9,1.2-7.4,1.2C1565.6,187.1,1563.2,186.8,1560.9,186.2z"/>
		</g>
		<g>
			<path class="st7" d="M438.4,292.5h-10.6v-3.8h25.6v3.8h-10.6v27.1h-4.4V292.5z"/>
			<path class="st7" d="M477.2,298.5c1.7,1.7,2.6,4.2,2.6,7.6v13.5h-4.2v-13c0.1-1.9-0.4-3.7-1.6-5.1c-1.2-1.2-2.9-1.8-4.7-1.7
				c-2-0.1-4,0.6-5.4,2c-1.4,1.6-2.1,3.7-2,5.8v12h-4.2v-32.7h4.2v12.7c0.9-1.1,2.1-2,3.5-2.6c1.5-0.6,3.1-0.9,4.8-0.9
				C472.7,295.8,475.2,296.7,477.2,298.5z"/>
			<path class="st7" d="M508.8,309.2h-19c0.2,2,1.2,3.7,2.7,5c1.6,1.3,3.7,1.9,5.8,1.9c2.6,0.1,5-0.9,6.8-2.8l2.3,2.7
				c-1.1,1.2-2.4,2.2-4,2.8c-3.9,1.5-8.1,1.3-11.9-0.6c-1.9-1-3.4-2.4-4.4-4.3c-1.1-1.9-1.6-4-1.6-6.2c0-2.1,0.5-4.3,1.5-6.1
				c1-1.8,2.4-3.3,4.2-4.3c1.8-1,3.9-1.6,6-1.5c2.1,0,4.2,0.5,6,1.5c1.7,1,3.2,2.5,4.1,4.3c1,1.9,1.5,4.1,1.5,6.3
				C508.9,308.4,508.9,308.8,508.8,309.2z M492.2,301.3c-1.4,1.3-2.2,3-2.4,4.9h15c-0.2-1.9-1-3.6-2.4-4.8
				C499.5,298.9,495.2,298.9,492.2,301.3L492.2,301.3z"/>
			<path class="st7" d="M530.5,318.2c-1.8-1-3.3-2.5-4.4-4.3c-2.1-3.8-2.1-8.5,0-12.3c1-1.8,2.6-3.3,4.4-4.2c2-1,4.2-1.6,6.4-1.5
				c2,0,3.9,0.4,5.7,1.3c1.6,0.8,3,2.1,3.9,3.7l-3.2,2.1c-0.7-1.1-1.6-1.9-2.7-2.5c-1.1-0.6-2.4-0.9-3.6-0.8c-1.4,0-2.9,0.3-4.1,1
				c-1.2,0.7-2.2,1.7-2.9,2.9c-0.7,1.3-1.1,2.8-1,4.3c0,1.5,0.3,3,1,4.3c0.7,1.2,1.7,2.2,2.9,2.9c1.3,0.7,2.7,1,4.1,1
				c1.3,0,2.5-0.3,3.6-0.8c1.1-0.6,2.1-1.5,2.7-2.5l3.2,2c-0.9,1.6-2.2,2.9-3.9,3.7c-1.8,0.9-3.7,1.3-5.7,1.3
				C534.6,319.8,532.4,319.3,530.5,318.2z"/>
			<path class="st7" d="M571.1,298.5c1.8,1.7,2.6,4.2,2.6,7.6v13.5h-4.2v-13c0.1-1.9-0.4-3.7-1.6-5.1c-1.2-1.2-2.9-1.8-4.7-1.7
				c-2-0.1-4,0.6-5.4,2c-1.4,1.6-2.1,3.7-2,5.8v12h-4.2v-32.7h4.2v12.7c0.9-1.1,2.1-2,3.5-2.6c1.5-0.6,3.1-0.9,4.8-0.9
				C566.6,295.8,569.2,296.7,571.1,298.5z"/>
			<path class="st7" d="M597.6,298.3c1.7,1.6,2.6,4,2.6,7.1v14.1h-4v-3.1c-0.7,1.1-1.8,2-3,2.5c-1.5,0.6-3.1,0.9-4.7,0.9
				c-2.3,0.1-4.5-0.6-6.3-1.9c-2.8-2.3-3.2-6.4-0.9-9.2c0.2-0.3,0.5-0.5,0.8-0.8c1.5-1.3,3.9-1.9,7.2-1.9h6.7v-0.8
				c0.1-1.6-0.5-3.1-1.6-4.2c-1.3-1.1-3-1.6-4.7-1.5c-1.4,0-2.8,0.2-4.1,0.7c-1.2,0.4-2.4,1-3.4,1.8l-1.8-3.2c1.3-1,2.8-1.8,4.3-2.2
				c1.7-0.5,3.5-0.8,5.3-0.8C593.4,295.9,595.8,296.7,597.6,298.3z M593.3,315.4c1.2-0.7,2.1-1.8,2.6-3.1v-3.3h-6.5
				c-3.6,0-5.4,1.2-5.4,3.6c0,1.1,0.5,2.1,1.4,2.8c1.1,0.7,2.5,1.1,3.8,1C590.6,316.6,592.1,316.2,593.3,315.4L593.3,315.4z"/>
			<path class="st7" d="M608,286.8h4.2v32.7H608V286.8z"/>
			<path class="st7" d="M620.3,286.8h4.2v32.7h-4.2V286.8z"/>
			<path class="st7" d="M653.7,309.2h-19c0.2,2,1.2,3.7,2.7,5c1.6,1.3,3.7,1.9,5.8,1.9c2.6,0.1,5-0.9,6.8-2.8l2.3,2.7
				c-1.1,1.2-2.4,2.2-4,2.8c-3.9,1.5-8.1,1.3-11.8-0.6c-1.9-1-3.4-2.4-4.4-4.3c-1.1-1.9-1.6-4-1.6-6.2c0-2.1,0.5-4.3,1.5-6.1
				c1-1.8,2.4-3.3,4.2-4.3c1.8-1,3.9-1.6,6-1.5c2.1,0,4.2,0.5,6,1.5c1.7,1,3.2,2.5,4.1,4.3c1,1.9,1.5,4.1,1.5,6.3
				C653.7,308.4,653.7,308.8,653.7,309.2z M637.1,301.3c-1.4,1.3-2.2,3-2.4,4.9h15c-0.2-1.9-1-3.6-2.4-4.8
				C644.4,298.9,640,298.9,637.1,301.3L637.1,301.3z"/>
			<path class="st7" d="M679.2,298.5c1.8,1.7,2.6,4.2,2.6,7.6v13.5h-4.2v-13c0.1-1.9-0.4-3.7-1.6-5.1c-1.2-1.2-2.9-1.8-4.7-1.7
				c-2-0.1-4,0.6-5.4,2c-1.4,1.6-2.1,3.7-2,5.8v12h-4.2v-23.4h4.1v3.5c0.9-1.2,2.1-2.2,3.5-2.8c1.6-0.7,3.3-1,5-1
				C674.7,295.8,677.3,296.7,679.2,298.5z"/>
			<path class="st7" d="M712.2,296.1v20.2c0,4.1-1,7.1-3,9.1c-2,2-5.1,2.9-9.1,2.9c-2.1,0-4.3-0.3-6.3-0.9c-1.8-0.5-3.4-1.4-4.9-2.6
				l2-3.3c1.2,1,2.6,1.8,4,2.2c1.6,0.5,3.3,0.8,5,0.8c2.7,0,4.8-0.6,6.1-1.9s2-3.3,2-5.9v-1.9c-1,1.2-2.3,2.1-3.7,2.7
				c-1.5,0.6-3.1,0.9-4.7,0.9c-2.1,0-4.2-0.5-6.1-1.4c-1.8-0.9-3.2-2.3-4.3-4c-2.1-3.7-2.1-8.1,0-11.8c1-1.7,2.5-3.1,4.3-4
				c1.9-1,4-1.4,6.1-1.4c1.7,0,3.4,0.3,4.9,1c1.5,0.6,2.8,1.6,3.7,2.9v-3.6L712.2,296.1z M704.1,313.9c1.2-0.6,2.2-1.6,2.9-2.7
				c0.7-1.2,1.1-2.6,1-3.9c0.1-2.1-0.7-4.1-2.3-5.5c-3.4-2.8-8.2-2.8-11.6,0c-1.5,1.4-2.3,3.4-2.3,5.5c0,1.4,0.3,2.8,1,3.9
				c0.7,1.2,1.7,2.1,2.9,2.7c1.3,0.7,2.7,1,4.2,1C701.4,314.9,702.9,314.5,704.1,313.9L704.1,313.9z"/>
			<path class="st7" d="M741.3,309.2h-19c0.2,2,1.2,3.7,2.7,5c1.6,1.3,3.7,1.9,5.8,1.9c2.6,0.1,5-0.9,6.8-2.8l2.3,2.7
				c-1.1,1.2-2.4,2.2-4,2.8c-3.9,1.5-8.1,1.3-11.9-0.6c-1.9-1-3.4-2.4-4.4-4.3c-1.1-1.9-1.6-4-1.6-6.2c0-2.1,0.5-4.3,1.5-6.1
				c1-1.8,2.4-3.3,4.2-4.3c1.8-1,3.9-1.6,6-1.5c2.1,0,4.2,0.5,6,1.5c1.7,1,3.2,2.5,4.1,4.3c1,1.9,1.5,4.1,1.5,6.3
				C741.4,308.4,741.4,308.8,741.3,309.2z M724.8,301.3c-1.4,1.3-2.2,3-2.4,4.9h15c-0.2-1.9-1-3.6-2.4-4.8
				C732,298.9,727.7,298.9,724.8,301.3L724.8,301.3z"/>
			<path class="st7" d="M794.5,296.1l-8.7,23.4h-4.1l-6.8-17.7l-6.8,17.7h-4.1l-8.7-23.4h4l6.8,18.6l7.1-18.6h3.6l6.9,18.7l7-18.7
				L794.5,296.1z"/>
			<path class="st7" d="M798.9,290.8c-0.5-0.5-0.8-1.2-0.8-1.9c0-0.7,0.3-1.5,0.8-2c0.5-0.5,1.3-0.8,2.1-0.8c0.8,0,1.5,0.3,2.1,0.8
				c0.5,0.5,0.8,1.2,0.8,1.9c0,0.8-0.3,1.5-0.8,2c-0.5,0.5-1.3,0.8-2.1,0.8C800.2,291.7,799.4,291.4,798.9,290.8z M798.8,296.1h4.2
				v23.4h-4.2V296.1z"/>
			<path class="st7" d="M811.1,286.8h4.2v32.7h-4.2V286.8z"/>
			<path class="st7" d="M823.5,286.8h4.2v32.7h-4.2V286.8z"/>
			<path class="st7" d="M869.7,286.8v32.7h-4.1v-3.7c-0.9,1.3-2.1,2.3-3.6,3c-1.5,0.7-3.1,1-4.8,1c-2.1,0-4.2-0.5-6.1-1.5
				c-1.8-1-3.2-2.4-4.2-4.2c-2-3.9-2-8.6,0-12.5c1-1.8,2.4-3.2,4.2-4.2c1.9-1,4-1.5,6.1-1.5c1.6,0,3.2,0.3,4.6,0.9
				c1.4,0.6,2.6,1.6,3.5,2.8v-12.9H869.7z M861.7,315c1.2-0.7,2.2-1.7,2.8-2.9c1.4-2.7,1.4-5.9,0-8.6c-0.6-1.2-1.6-2.2-2.8-2.9
				c-2.5-1.4-5.5-1.4-8.1,0c-1.2,0.7-2.2,1.7-2.8,2.9c-1.4,2.7-1.4,5.9,0,8.6c0.7,1.2,1.6,2.2,2.8,2.9
				C856.1,316.4,859.2,316.4,861.7,315z"/>
			<path class="st7" d="M898.8,309.2h-19c0.2,2,1.2,3.7,2.7,5c1.6,1.3,3.7,1.9,5.8,1.9c2.6,0.1,5-0.9,6.8-2.8l2.3,2.7
				c-1.1,1.2-2.4,2.2-4,2.8c-3.9,1.5-8.1,1.3-11.8-0.6c-1.9-1-3.4-2.4-4.4-4.3c-1.1-1.9-1.6-4-1.6-6.2c0-2.1,0.5-4.3,1.5-6.1
				c1-1.8,2.4-3.3,4.2-4.3c1.8-1,3.9-1.6,6-1.5c2.1,0,4.2,0.5,6,1.5c1.7,1,3.2,2.5,4.1,4.3c1,1.9,1.5,4.1,1.5,6.3
				C898.9,308.4,898.8,308.8,898.8,309.2z M882.2,301.3c-1.4,1.3-2.2,3-2.4,4.9h15c-0.2-1.9-1-3.6-2.4-4.8
				C889.5,298.9,885.2,298.9,882.2,301.3L882.2,301.3z"/>
			<path class="st7" d="M925,296.1l-10.2,23.4h-4.3l-10.2-23.4h4.4l8,18.8l8.2-18.8L925,296.1z"/>
			<path class="st7" d="M929,290.8c-0.5-0.5-0.8-1.2-0.8-1.9c0-0.7,0.3-1.5,0.8-2c0.5-0.5,1.3-0.8,2.1-0.8c0.8,0,1.5,0.3,2.1,0.8
				c0.5,0.5,0.8,1.2,0.8,1.9c0,0.8-0.3,1.5-0.8,2c-0.5,0.5-1.3,0.8-2.1,0.8C930.3,291.7,929.6,291.4,929,290.8z M929,296.1h4.2v23.4
				H929V296.1z"/>
			<path class="st7" d="M942.5,319c-1.5-0.4-2.9-1-4.1-2l1.8-3.4c1.1,0.8,2.4,1.4,3.8,1.8c1.4,0.4,2.9,0.7,4.5,0.7
				c3.7,0,5.6-1.1,5.6-3.2c0-0.6-0.3-1.3-0.8-1.7c-0.6-0.4-1.2-0.7-1.9-0.9c-0.8-0.2-1.8-0.4-3.2-0.6c-1.6-0.2-3.1-0.6-4.6-1
				c-1.2-0.4-2.2-1-3.1-1.9c-0.9-1.1-1.4-2.4-1.3-3.8c0-2,1-4,2.6-5.1c2.1-1.4,4.6-2.1,7.1-1.9c1.6,0,3.1,0.2,4.7,0.6
				c1.4,0.3,2.7,0.8,3.8,1.5l-1.8,3.4c-2-1.3-4.4-1.9-6.8-1.9c-1.4-0.1-2.8,0.2-4.1,0.9c-0.9,0.5-1.4,1.4-1.4,2.3
				c0,0.7,0.3,1.4,0.8,1.8c0.6,0.5,1.2,0.8,2,1c0.8,0.2,1.9,0.4,3.3,0.7c1.5,0.2,3.1,0.6,4.6,1c1.1,0.4,2.2,1,3,1.9
				c0.9,1,1.3,2.4,1.2,3.7c0,2-1,4-2.7,5.1c-2.2,1.4-4.8,2-7.4,1.9C946.1,319.8,944.3,319.5,942.5,319z"/>
			<path class="st7" d="M984.5,309.2h-19c0.2,2,1.2,3.7,2.7,5c1.6,1.3,3.7,1.9,5.8,1.9c2.6,0.1,5-0.9,6.8-2.8l2.3,2.7
				c-1.1,1.2-2.4,2.2-4,2.8c-3.9,1.5-8.1,1.3-11.8-0.6c-1.9-1-3.4-2.4-4.4-4.3c-1.1-1.9-1.6-4-1.6-6.2c0-2.1,0.5-4.3,1.5-6.1
				c1-1.8,2.4-3.3,4.2-4.3c1.8-1,3.9-1.6,6-1.5c2.1,0,4.2,0.5,6,1.5c1.7,1,3.2,2.5,4.1,4.3c1,1.9,1.5,4.1,1.5,6.3
				C984.5,308.4,984.5,308.8,984.5,309.2z M967.9,301.3c-1.4,1.3-2.2,3-2.4,4.9h15c-0.2-1.9-1-3.6-2.4-4.8
				C975.1,298.9,970.8,298.9,967.9,301.3L967.9,301.3z"/>
			<path class="st7" d="M1002.4,290.8c-0.5-0.5-0.8-1.2-0.8-1.9c0-0.7,0.3-1.5,0.8-2c0.5-0.5,1.3-0.8,2.1-0.8c0.8,0,1.5,0.3,2.1,0.8
				c0.5,0.5,0.8,1.2,0.8,1.9c0,0.8-0.3,1.5-0.8,2c-0.5,0.5-1.3,0.8-2.1,0.8C1003.6,291.7,1002.9,291.4,1002.4,290.8z M1002.3,296.1
				h4.2v23.4h-4.2V296.1z"/>
			<path class="st7" d="M1034.2,298.5c1.8,1.7,2.6,4.2,2.6,7.6v13.5h-4.2v-13c0.1-1.9-0.4-3.7-1.6-5.1c-1.2-1.2-2.9-1.8-4.7-1.7
				c-2-0.1-4,0.6-5.4,2c-1.4,1.6-2.1,3.7-2,5.8v12h-4.2v-23.4h4.1v3.5c0.9-1.2,2.1-2.2,3.5-2.8c1.6-0.7,3.3-1,5-1
				C1029.7,295.8,1032.3,296.7,1034.2,298.5z"/>
			<path class="st7" d="M1064.2,298.5c1.8,1.7,2.6,4.2,2.6,7.6v13.5h-4.2v-13c0.1-1.9-0.4-3.7-1.6-5.1c-1.2-1.2-2.9-1.8-4.7-1.7
				c-2-0.1-4,0.6-5.4,2c-1.4,1.6-2.1,3.7-2,5.8v12h-4.2v-23.4h4.1v3.5c0.9-1.2,2.1-2.2,3.5-2.8c1.6-0.7,3.3-1,5-1
				C1059.8,295.8,1062.3,296.7,1064.2,298.5z"/>
			<path class="st7" d="M1078.6,318.2c-1.8-1-3.3-2.5-4.3-4.3c-2.1-3.8-2.1-8.5,0-12.3c1-1.8,2.5-3.3,4.3-4.2c3.9-2,8.6-2,12.5,0
				c1.8,1,3.3,2.5,4.3,4.2c2.1,3.8,2.1,8.5,0,12.3c-1,1.8-2.5,3.3-4.3,4.3C1087.2,320.3,1082.5,320.3,1078.6,318.2z M1088.9,315
				c1.2-0.7,2.2-1.7,2.8-2.9c1.4-2.7,1.4-5.9,0-8.6c-0.6-1.2-1.6-2.2-2.8-2.9c-2.5-1.4-5.6-1.4-8.1,0c-1.2,0.7-2.2,1.7-2.8,2.9
				c-1.4,2.7-1.4,5.9,0,8.6c0.7,1.2,1.6,2.2,2.8,2.9C1083.3,316.4,1086.4,316.4,1088.9,315z"/>
			<path class="st7" d="M1122.9,296.1l-10.2,23.4h-4.3l-10.2-23.4h4.4l8,18.8l8.2-18.8L1122.9,296.1z"/>
			<path class="st7" d="M1142.1,298.3c1.7,1.6,2.6,4,2.6,7.1v14.1h-4v-3.1c-0.7,1.1-1.8,2-3,2.5c-1.5,0.6-3.1,0.9-4.7,0.9
				c-2.3,0.1-4.5-0.6-6.3-1.9c-2.8-2.3-3.2-6.4-0.9-9.2c0.2-0.3,0.5-0.5,0.8-0.8c1.5-1.3,3.9-1.9,7.1-1.9h6.7v-0.8
				c0.1-1.6-0.5-3.1-1.6-4.2c-1.3-1.1-3-1.6-4.7-1.5c-1.4,0-2.8,0.2-4.1,0.7c-1.2,0.4-2.4,1-3.4,1.8l-1.8-3.2c1.3-1,2.8-1.8,4.3-2.2
				c1.7-0.5,3.5-0.8,5.3-0.8C1137.9,295.9,1140.4,296.7,1142.1,298.3z M1137.9,315.4c1.2-0.7,2.1-1.8,2.6-3.1v-3.3h-6.5
				c-3.6,0-5.4,1.2-5.4,3.6c0,1.1,0.5,2.1,1.4,2.8c1.1,0.7,2.5,1.1,3.8,1C1135.2,316.6,1136.6,316.2,1137.9,315.4z"/>
			<path class="st7" d="M1165.7,318.2c-0.7,0.6-1.5,1-2.3,1.2c-0.9,0.3-1.9,0.4-2.8,0.4c-2,0.1-4-0.6-5.5-1.9
				c-1.4-1.5-2.1-3.4-1.9-5.4v-12.8h-4v-3.5h4V291h4.2v5.1h6.7v3.5h-6.7v12.7c-0.1,1.1,0.3,2.1,0.9,2.9c0.7,0.7,1.7,1.1,2.7,1
				c1.2,0,2.4-0.4,3.3-1.1L1165.7,318.2z"/>
			<path class="st7" d="M1170.9,290.8c-0.5-0.5-0.8-1.2-0.8-1.9c0-0.7,0.3-1.5,0.8-2c0.5-0.5,1.3-0.8,2.1-0.8c0.8,0,1.5,0.3,2.1,0.8
				c0.5,0.5,0.8,1.2,0.8,1.9c0,0.8-0.3,1.5-0.8,2c-0.5,0.5-1.3,0.8-2.1,0.8C1172.2,291.7,1171.4,291.4,1170.9,290.8z M1170.8,296.1
				h4.2v23.4h-4.2L1170.8,296.1z"/>
			<path class="st7" d="M1203.8,296.1l-10.2,23.4h-4.3l-10.2-23.4h4.4l8,18.8l8.2-18.8L1203.8,296.1z"/>
			<path class="st7" d="M1228.2,309.2h-19c0.2,2,1.2,3.7,2.7,5c1.6,1.3,3.7,1.9,5.8,1.9c2.6,0.1,5-0.9,6.8-2.8l2.3,2.7
				c-1.1,1.2-2.4,2.2-3.9,2.8c-3.9,1.5-8.1,1.3-11.8-0.6c-1.9-1-3.4-2.4-4.4-4.3c-1.1-1.9-1.6-4-1.6-6.2c0-2.1,0.5-4.3,1.5-6.1
				c1-1.8,2.4-3.3,4.2-4.3c1.8-1,3.9-1.6,6-1.5c2.1,0,4.2,0.5,6,1.5c1.7,1,3.2,2.5,4.1,4.3c1,1.9,1.5,4.1,1.5,6.3
				C1228.3,308.4,1228.2,308.8,1228.2,309.2z M1211.6,301.3c-1.4,1.3-2.2,3-2.4,4.9h15c-0.2-1.9-1-3.6-2.4-4.8
				C1218.9,298.9,1214.5,298.9,1211.6,301.3L1211.6,301.3z"/>
			<path class="st7" d="M1259.2,318.2c-0.7,0.6-1.5,1-2.3,1.2c-0.9,0.3-1.9,0.4-2.8,0.4c-2,0.1-4-0.6-5.5-1.9
				c-1.4-1.5-2.1-3.4-1.9-5.4v-12.8h-4v-3.5h4V291h4.2v5.1h6.7v3.5h-6.7v12.7c-0.1,1.1,0.3,2.1,0.9,2.9c0.7,0.7,1.7,1.1,2.7,1
				c1.2,0,2.4-0.4,3.3-1.1L1259.2,318.2z"/>
			<path class="st7" d="M1284.5,309.2h-19c0.2,2,1.2,3.7,2.7,5c1.6,1.3,3.7,1.9,5.8,1.9c2.6,0.1,5-0.9,6.8-2.8l2.3,2.7
				c-1.1,1.2-2.4,2.2-4,2.8c-3.9,1.5-8.1,1.3-11.8-0.6c-1.9-1-3.4-2.4-4.4-4.3c-1.1-1.9-1.6-4-1.6-6.2c0-2.1,0.5-4.3,1.5-6.1
				c1-1.8,2.4-3.3,4.2-4.3c1.8-1,3.9-1.6,6-1.5c2.1,0,4.2,0.5,6,1.5c1.7,1,3.2,2.5,4.1,4.3c1,1.9,1.5,4.1,1.5,6.3
				C1284.6,308.4,1284.6,308.8,1284.5,309.2z M1268,301.3c-1.4,1.3-2.2,3-2.4,4.9h15c-0.2-1.9-1-3.6-2.4-4.8
				C1275.2,298.9,1270.9,298.9,1268,301.3L1268,301.3z"/>
			<path class="st7" d="M1294.3,318.2c-1.8-1-3.3-2.5-4.4-4.3c-2.1-3.8-2.1-8.5,0-12.3c1-1.8,2.6-3.3,4.4-4.2c2-1,4.2-1.6,6.4-1.5
				c2,0,3.9,0.4,5.7,1.3c1.6,0.8,3,2.1,3.9,3.7l-3.2,2.1c-0.7-1.1-1.6-1.9-2.7-2.5c-1.1-0.6-2.4-0.9-3.6-0.8c-1.4,0-2.9,0.3-4.1,1
				c-1.2,0.7-2.2,1.7-2.9,2.9c-0.7,1.3-1.1,2.8-1,4.3c0,1.5,0.3,3,1,4.3c0.7,1.2,1.7,2.2,2.9,2.9c1.3,0.7,2.7,1,4.1,1
				c1.3,0,2.5-0.3,3.6-0.8c1.1-0.6,2.1-1.5,2.7-2.5l3.2,2c-0.9,1.6-2.2,2.9-3.9,3.7c-1.8,0.9-3.7,1.3-5.7,1.3
				C1298.5,319.8,1296.3,319.3,1294.3,318.2z"/>
			<path class="st7" d="M1335,298.5c1.8,1.7,2.6,4.2,2.6,7.6v13.5h-4.2v-13c0.1-1.9-0.4-3.7-1.6-5.1c-1.2-1.2-2.9-1.8-4.7-1.7
				c-2-0.1-4,0.6-5.4,2c-1.4,1.6-2.1,3.7-2,5.8v12h-4.2v-32.7h4.2v12.7c0.9-1.1,2.1-2,3.5-2.6c1.5-0.6,3.1-0.9,4.8-0.9
				C1330.5,295.8,1333,296.7,1335,298.5z"/>
			<path class="st7" d="M1365,298.5c1.8,1.7,2.6,4.2,2.6,7.6v13.5h-4.2v-13c0.1-1.9-0.4-3.7-1.6-5.1c-1.2-1.2-2.9-1.8-4.7-1.7
				c-2-0.1-4,0.6-5.4,2c-1.4,1.6-2.1,3.7-2,5.8v12h-4.2v-23.4h4.1v3.5c0.9-1.2,2.1-2.2,3.5-2.8c1.6-0.7,3.3-1,5-1
				C1360.5,295.8,1363.1,296.7,1365,298.5z"/>
			<path class="st7" d="M1379.4,318.2c-1.8-1-3.3-2.5-4.3-4.3c-2.1-3.8-2.1-8.5,0-12.3c1-1.8,2.5-3.3,4.3-4.2c3.9-2,8.6-2,12.5,0
				c1.8,1,3.3,2.5,4.3,4.2c2.1,3.8,2.1,8.5,0,12.3c-1,1.8-2.5,3.3-4.3,4.3C1388,320.3,1383.3,320.3,1379.4,318.2z M1389.7,315
				c1.2-0.7,2.2-1.7,2.8-2.9c1.4-2.7,1.4-5.9,0-8.6c-0.6-1.2-1.6-2.2-2.8-2.9c-2.5-1.4-5.6-1.4-8.1,0c-1.2,0.7-2.2,1.7-2.8,2.9
				c-1.4,2.7-1.4,5.9,0,8.6c0.7,1.2,1.6,2.2,2.8,2.9C1384.1,316.4,1387.2,316.4,1389.7,315z"/>
			<path class="st7" d="M1403.7,286.8h4.2v32.7h-4.2V286.8z"/>
			<path class="st7" d="M1419.7,318.2c-1.8-1-3.3-2.5-4.3-4.3c-2.1-3.8-2.1-8.5,0-12.3c1-1.8,2.5-3.3,4.3-4.2c3.9-2,8.6-2,12.5,0
				c1.8,1,3.3,2.5,4.3,4.2c2.1,3.8,2.1,8.5,0,12.3c-1,1.8-2.5,3.3-4.3,4.3C1428.3,320.3,1423.6,320.3,1419.7,318.2z M1430,315
				c1.2-0.7,2.2-1.7,2.8-2.9c1.4-2.7,1.4-5.9,0-8.6c-0.6-1.2-1.6-2.2-2.8-2.9c-2.5-1.4-5.6-1.4-8.1,0c-1.2,0.7-2.2,1.7-2.8,2.9
				c-1.4,2.7-1.4,5.9,0,8.6c0.7,1.2,1.6,2.2,2.8,2.9C1424.5,316.4,1427.5,316.4,1430,315z"/>
			<path class="st7" d="M1466.4,296.1v20.2c0,4.1-1,7.1-3,9.1s-5.1,2.9-9.1,2.9c-2.1,0-4.3-0.3-6.3-0.9c-1.8-0.5-3.4-1.4-4.9-2.6
				l2-3.3c1.2,1,2.6,1.8,4,2.2c1.6,0.5,3.3,0.8,5,0.8c2.7,0,4.8-0.6,6.1-1.9c1.3-1.3,2-3.3,2-5.9v-1.9c-1,1.2-2.3,2.1-3.7,2.7
				c-1.5,0.6-3.1,0.9-4.7,0.9c-2.1,0-4.2-0.5-6.1-1.4c-1.8-0.9-3.2-2.3-4.3-4c-2.1-3.7-2.1-8.1,0-11.8c1-1.7,2.5-3.1,4.3-4
				c1.9-1,4-1.4,6.1-1.4c1.7,0,3.4,0.3,4.9,1c1.5,0.6,2.8,1.6,3.7,2.9v-3.6L1466.4,296.1z M1458.3,313.9c1.2-0.6,2.2-1.6,2.9-2.7
				c0.7-1.2,1.1-2.6,1-3.9c0.1-2.1-0.7-4.1-2.3-5.5c-3.4-2.8-8.2-2.8-11.6,0c-1.5,1.4-2.3,3.4-2.3,5.5c0,1.4,0.3,2.8,1,3.9
				c0.7,1.2,1.7,2.1,2.9,2.7C1452.6,315.2,1455.7,315.2,1458.3,313.9L1458.3,313.9z"/>
			<path class="st7" d="M1495.1,296.1l-11.3,25.7c-0.7,2-1.9,3.7-3.5,5c-1.4,1-3.1,1.5-4.8,1.5c-1.1,0-2.3-0.2-3.3-0.6
				c-1-0.3-1.9-0.9-2.7-1.6l1.8-3.2c1.1,1.1,2.6,1.7,4.2,1.7c0.9,0,1.8-0.3,2.6-0.8c0.8-0.8,1.5-1.7,1.9-2.8l0.8-1.6l-10.3-23.3h4.4
				l8.2,18.7l8.1-18.7H1495.1z"/>
			<path class="st7" d="M1497,305.6h11.9v3.7H1497V305.6z"/>
		</g>
		<g>
			<path class="st7" d="M453.7,339.7v32.7h-4.1v-3.7c-0.9,1.3-2.1,2.3-3.6,3c-1.5,0.7-3.1,1-4.8,1c-2.1,0-4.2-0.5-6.1-1.5
				c-1.8-1-3.2-2.4-4.2-4.2c-2-3.9-2-8.6,0-12.5c1-1.8,2.4-3.2,4.2-4.2c1.9-1,4-1.5,6.1-1.5c1.6,0,3.2,0.3,4.6,0.9
				c1.4,0.6,2.6,1.6,3.5,2.8v-12.9H453.7z M445.7,368c1.2-0.7,2.2-1.7,2.8-2.9c1.4-2.7,1.4-5.9,0-8.6c-0.6-1.2-1.6-2.2-2.8-2.9
				c-2.5-1.4-5.5-1.4-8.1,0c-1.2,0.7-2.2,1.7-2.8,2.9c-1.4,2.7-1.4,5.9,0,8.6c0.7,1.2,1.6,2.2,2.8,2.9
				C440.2,369.4,443.2,369.4,445.7,368z"/>
			<path class="st7" d="M469.1,349.9c1.6-0.7,3.4-1.1,5.3-1.1v4.1c-0.3,0-0.6,0-1,0c-2-0.1-4,0.6-5.4,2.1c-1.4,1.6-2.1,3.7-2,5.8
				v11.7h-4.2v-23.4h4.1v3.9C466.6,351.7,467.7,350.6,469.1,349.9z"/>
			<path class="st7" d="M479.6,343.8c-0.5-0.5-0.8-1.2-0.8-1.9c0-0.7,0.3-1.4,0.8-2c0.5-0.5,1.3-0.8,2.1-0.8c0.8,0,1.5,0.3,2.1,0.8
				c0.5,0.5,0.8,1.2,0.8,1.9c0,0.8-0.3,1.5-0.8,2c-0.5,0.5-1.3,0.8-2.1,0.8C480.9,344.6,480.2,344.3,479.6,343.8z M479.6,349.1h4.2
				v23.4h-4.2L479.6,349.1z"/>
			<path class="st7" d="M512.6,349.1l-10.2,23.4H498l-10.2-23.4h4.4l8,18.8l8.2-18.8H512.6z"/>
			<path class="st7" d="M536.9,362.2h-19c0.2,2,1.2,3.7,2.7,5c1.6,1.3,3.7,1.9,5.8,1.9c2.6,0.1,5-0.9,6.8-2.8l2.3,2.7
				c-1.1,1.2-2.4,2.2-4,2.8c-3.9,1.5-8.1,1.3-11.9-0.6c-1.9-1-3.4-2.4-4.4-4.3c-1.1-1.9-1.6-4-1.6-6.2c0-2.1,0.5-4.3,1.5-6.1
				c1-1.8,2.4-3.3,4.2-4.3c1.8-1,3.9-1.6,6-1.5c2.1,0,4.2,0.5,6,1.5c1.7,1,3.2,2.5,4.1,4.3c1,1.9,1.5,4.1,1.5,6.3
				C537,361.3,537,361.8,536.9,362.2z M520.4,354.3c-1.4,1.3-2.2,3-2.4,4.9h15c-0.2-1.9-1-3.6-2.4-4.8
				C527.6,351.8,523.3,351.8,520.4,354.3L520.4,354.3z"/>
			<path class="st7" d="M562.5,351.5c1.8,1.7,2.6,4.2,2.6,7.6v13.5h-4.2v-13c0.1-1.9-0.4-3.7-1.6-5.1c-1.2-1.2-2.9-1.8-4.7-1.7
				c-2-0.1-4,0.6-5.4,2c-1.4,1.6-2.1,3.7-2,5.8v12h-4.2v-23.4h4.1v3.5c0.9-1.2,2.1-2.2,3.5-2.8c1.6-0.7,3.3-1,5-1
				C558,348.7,560.6,349.7,562.5,351.5z"/>
			<path class="st7" d="M586,372c-1.5-0.4-2.9-1.1-4.1-2l1.8-3.4c1.1,0.8,2.4,1.4,3.8,1.8c1.4,0.4,2.9,0.7,4.5,0.7
				c3.7,0,5.6-1.1,5.6-3.2c0-0.6-0.3-1.3-0.8-1.7c-0.6-0.4-1.2-0.7-1.9-0.9c-0.8-0.2-1.8-0.4-3.2-0.6c-1.6-0.2-3.1-0.6-4.6-1
				c-1.2-0.4-2.2-1-3.1-1.9c-0.9-1.1-1.4-2.4-1.3-3.8c0-2,1-4,2.6-5.1c2.1-1.4,4.6-2,7.1-1.9c1.6,0,3.1,0.2,4.7,0.6
				c1.4,0.3,2.7,0.8,3.8,1.5l-1.8,3.4c-2-1.3-4.4-1.9-6.8-1.9c-1.4-0.1-2.8,0.2-4.1,0.9c-0.9,0.5-1.4,1.4-1.4,2.3
				c0,0.7,0.3,1.4,0.8,1.8c0.6,0.5,1.2,0.8,2,1c0.8,0.2,1.9,0.4,3.3,0.7c1.5,0.2,3.1,0.6,4.6,1c1.1,0.4,2.2,1,3,1.9
				c0.9,1,1.3,2.4,1.2,3.7c0,2-1,4-2.7,5.1c-2.2,1.4-4.8,2-7.4,1.9C589.7,372.8,587.8,372.5,586,372z"/>
			<path class="st7" d="M610.7,371.2c-1.8-1-3.3-2.5-4.3-4.3c-2.1-3.8-2.1-8.5,0-12.3c1-1.8,2.5-3.3,4.3-4.2c3.9-2,8.6-2,12.5,0
				c1.8,1,3.3,2.5,4.3,4.2c2.1,3.8,2.1,8.5,0,12.3c-1,1.8-2.5,3.3-4.3,4.3C619.3,373.3,614.6,373.3,610.7,371.2L610.7,371.2z
				 M621,368c1.2-0.7,2.2-1.7,2.8-2.9c1.4-2.7,1.4-5.9,0-8.6c-0.6-1.2-1.6-2.2-2.8-2.9c-2.5-1.4-5.6-1.4-8.1,0
				c-1.2,0.7-2.2,1.7-2.8,2.9c-1.4,2.7-1.4,5.9,0,8.6c0.7,1.2,1.6,2.2,2.8,2.9C615.4,369.4,618.5,369.4,621,368z"/>
			<path class="st7" d="M635,339.7h4.2v32.7H635V339.7z"/>
			<path class="st7" d="M669.1,349.1v23.4h-4V369c-0.9,1.2-2,2.2-3.4,2.8c-1.4,0.7-3,1-4.6,1c-2.7,0.2-5.4-0.8-7.4-2.6
				c-1.8-1.7-2.7-4.3-2.7-7.6v-13.5h4.2v13c-0.1,1.9,0.4,3.7,1.6,5.1c1.2,1.2,2.9,1.9,4.7,1.7c2,0.1,3.9-0.6,5.3-2
				c1.4-1.6,2.1-3.6,1.9-5.7v-12.1H669.1z"/>
			<path class="st7" d="M690.3,371.1c-0.7,0.6-1.5,1-2.3,1.2c-0.9,0.3-1.9,0.4-2.8,0.4c-2,0.1-4-0.6-5.5-1.9
				c-1.4-1.5-2.1-3.4-1.9-5.4v-12.8h-4v-3.5h4V344h4.2v5.1h6.7v3.5H682v12.7c-0.1,1.1,0.3,2.1,1,2.9c0.7,0.7,1.7,1.1,2.7,1
				c1.2,0,2.4-0.4,3.3-1.1L690.3,371.1z"/>
			<path class="st7" d="M695.5,343.8c-0.5-0.5-0.8-1.2-0.8-1.9c0-0.7,0.3-1.4,0.8-2c0.5-0.5,1.3-0.8,2.1-0.8c0.8,0,1.5,0.3,2.1,0.8
				c0.5,0.5,0.8,1.2,0.8,1.9c0,0.8-0.3,1.5-0.8,2c-0.5,0.5-1.3,0.8-2.1,0.8C696.8,344.6,696,344.3,695.5,343.8z M695.4,349.1h4.2
				v23.4h-4.2V349.1z"/>
			<path class="st7" d="M711.5,371.2c-1.8-1-3.3-2.5-4.3-4.3c-2.1-3.8-2.1-8.5,0-12.3c1-1.8,2.5-3.3,4.3-4.2c3.9-2,8.6-2,12.5,0
				c1.8,1,3.3,2.5,4.3,4.2c2.1,3.8,2.1,8.5,0,12.3c-1,1.8-2.5,3.3-4.3,4.3C720.1,373.3,715.4,373.3,711.5,371.2L711.5,371.2z
				 M721.8,368c1.2-0.7,2.2-1.7,2.8-2.9c1.4-2.7,1.4-5.9,0-8.6c-0.6-1.2-1.6-2.2-2.8-2.9c-2.5-1.4-5.6-1.4-8.1,0
				c-1.2,0.7-2.2,1.7-2.8,2.9c-1.4,2.7-1.4,5.9,0,8.6c0.7,1.2,1.6,2.2,2.8,2.9C716.2,369.4,719.3,369.4,721.8,368z"/>
			<path class="st7" d="M755.3,351.5c1.8,1.7,2.6,4.2,2.6,7.6v13.5h-4.2v-13c0.1-1.9-0.4-3.7-1.6-5.1c-1.2-1.2-2.9-1.8-4.7-1.7
				c-2-0.1-4,0.6-5.4,2c-1.4,1.6-2.1,3.7-2,5.8v12h-4.2v-23.4h4.1v3.5c0.9-1.2,2.1-2.2,3.5-2.8c1.6-0.7,3.3-1,5-1
				C750.9,348.7,753.4,349.7,755.3,351.5z"/>
			<path class="st7" d="M767,372c-1.5-0.4-2.9-1.1-4.1-2l1.8-3.4c1.1,0.8,2.4,1.4,3.8,1.8c1.4,0.4,2.9,0.7,4.5,0.7
				c3.7,0,5.6-1.1,5.6-3.2c0-0.6-0.3-1.3-0.8-1.7c-0.6-0.4-1.2-0.7-1.9-0.9c-0.8-0.2-1.8-0.4-3.2-0.6c-1.6-0.2-3.1-0.6-4.6-1
				c-1.2-0.4-2.2-1-3.1-1.9c-0.9-1.1-1.4-2.4-1.3-3.8c0-2,1-4,2.6-5.1c2.1-1.4,4.6-2,7.1-1.9c1.6,0,3.1,0.2,4.7,0.6
				c1.4,0.3,2.7,0.8,3.8,1.5l-1.8,3.4c-2-1.3-4.4-1.9-6.8-1.9c-1.4-0.1-2.8,0.2-4.1,0.9c-0.9,0.5-1.4,1.4-1.4,2.3
				c0,0.7,0.3,1.4,0.8,1.8c0.6,0.5,1.2,0.8,2,1c0.8,0.2,1.9,0.4,3.3,0.7c1.5,0.2,3.1,0.6,4.6,1c1.1,0.4,2.2,1,3,1.9
				c0.9,1,1.3,2.4,1.2,3.7c0,2-1,4-2.7,5.1c-2.2,1.4-4.8,2-7.4,1.9C770.7,372.8,768.8,372.5,767,372z"/>
			<path class="st7" d="M813,371.1c-0.7,0.6-1.5,1-2.3,1.2c-0.9,0.3-1.9,0.4-2.8,0.4c-2,0.1-4-0.6-5.5-1.9c-1.4-1.5-2.1-3.4-1.9-5.4
				v-12.8h-4v-3.5h4V344h4.2v5.1h6.7v3.5h-6.7v12.7c-0.1,1.1,0.3,2.1,0.9,2.9c0.7,0.7,1.7,1.1,2.7,1c1.2,0,2.4-0.4,3.3-1.1
				L813,371.1z"/>
			<path class="st7" d="M821,371.2c-1.8-1-3.3-2.5-4.3-4.3c-2.1-3.8-2.1-8.5,0-12.3c1-1.8,2.5-3.3,4.3-4.2c3.9-2,8.6-2,12.5,0
				c1.8,1,3.3,2.5,4.3,4.2c2.1,3.8,2.1,8.5,0,12.3c-1,1.8-2.5,3.3-4.3,4.3C829.6,373.3,824.9,373.3,821,371.2z M831.3,368
				c1.2-0.7,2.2-1.7,2.8-2.9c1.4-2.7,1.4-5.9,0-8.6c-0.6-1.2-1.6-2.2-2.8-2.9c-2.5-1.4-5.6-1.4-8.1,0c-1.2,0.7-2.2,1.7-2.8,2.9
				c-1.4,2.7-1.4,5.9,0,8.6c0.7,1.2,1.6,2.2,2.8,2.9C825.8,369.4,828.8,369.4,831.3,368z"/>
			<path class="st7" d="M876.8,351.5c1.8,1.7,2.6,4.2,2.6,7.6v13.5h-4.2v-13c0.1-1.9-0.4-3.7-1.6-5.1c-1.2-1.2-2.9-1.8-4.7-1.7
				c-2-0.1-4,0.6-5.4,2c-1.4,1.6-2.1,3.7-2,5.8v12h-4.2v-32.7h4.2v12.7c0.9-1.1,2.1-2,3.5-2.6c1.5-0.6,3.1-1,4.8-0.9
				C872.3,348.7,874.8,349.7,876.8,351.5z"/>
			<path class="st7" d="M908.4,362.2h-19c0.2,2,1.2,3.7,2.7,5c1.6,1.3,3.7,1.9,5.8,1.9c2.6,0.1,5-0.9,6.8-2.8l2.3,2.7
				c-1.1,1.2-2.4,2.2-4,2.8c-3.9,1.5-8.1,1.3-11.8-0.6c-1.9-1-3.4-2.4-4.4-4.3c-1.1-1.9-1.6-4-1.6-6.2c0-2.1,0.5-4.3,1.5-6.1
				c1-1.8,2.4-3.3,4.2-4.3c1.8-1,3.9-1.6,6-1.5c2.1,0,4.2,0.5,6,1.5c1.7,1,3.2,2.5,4.1,4.3c1,1.9,1.5,4.1,1.5,6.3
				C908.5,361.3,908.5,361.8,908.4,362.2z M891.8,354.3c-1.4,1.3-2.2,3-2.4,4.9h15c-0.2-1.9-1-3.6-2.4-4.8
				C899.1,351.8,894.8,351.8,891.8,354.3L891.8,354.3z"/>
			<path class="st7" d="M914.4,339.7h4.2v32.7h-4.2V339.7z"/>
			<path class="st7" d="M945.2,350.4c1.8,1,3.2,2.4,4.2,4.2c2,3.9,2,8.6,0,12.5c-1,1.8-2.4,3.2-4.2,4.2c-1.9,1-4,1.5-6.1,1.5
				c-1.6,0-3.2-0.3-4.6-1c-1.4-0.6-2.6-1.6-3.6-2.8V381h-4.2v-32h4.1v3.7c0.9-1.3,2.1-2.3,3.6-2.9c1.5-0.7,3.1-1,4.8-1
				C941.2,348.8,943.3,349.4,945.2,350.4z M942.8,368c1.2-0.7,2.2-1.7,2.8-2.9c1.4-2.7,1.4-5.9,0-8.6c-0.7-1.2-1.6-2.2-2.8-2.9
				c-1.2-0.7-2.6-1-4-1c-1.4,0-2.8,0.3-4,1c-1.2,0.7-2.2,1.7-2.8,2.9c-0.7,1.3-1.1,2.8-1,4.3c0,1.5,0.3,3,1,4.3
				c0.6,1.2,1.6,2.2,2.8,2.9C937.2,369.4,940.3,369.4,942.8,368L942.8,368z"/>
			<path class="st7" d="M972.5,371.2c-1.8-1-3.3-2.5-4.4-4.3c-2.1-3.8-2.1-8.5,0-12.3c1-1.8,2.6-3.3,4.4-4.2c2-1,4.2-1.6,6.4-1.5
				c2,0,3.9,0.4,5.7,1.3c1.6,0.8,3,2.1,3.9,3.7l-3.2,2.1c-0.7-1.1-1.6-1.9-2.7-2.5c-1.1-0.6-2.4-0.9-3.6-0.8c-1.4,0-2.9,0.3-4.1,1
				c-1.2,0.7-2.2,1.7-2.9,2.9c-1.4,2.7-1.4,5.9,0,8.7c0.7,1.2,1.7,2.2,2.9,2.9c1.3,0.7,2.7,1,4.1,1c1.3,0,2.5-0.3,3.6-0.8
				c1.1-0.6,2.1-1.5,2.7-2.5l3.2,2c-0.9,1.6-2.2,2.9-3.9,3.7c-1.8,0.9-3.7,1.3-5.7,1.3C976.6,372.8,974.4,372.3,972.5,371.2z"/>
			<path class="st7" d="M993.9,343.8c-0.5-0.5-0.8-1.2-0.8-1.9c0-0.7,0.3-1.4,0.8-2c0.5-0.5,1.3-0.8,2.1-0.8c0.8,0,1.5,0.3,2.1,0.8
				c0.5,0.5,0.8,1.2,0.8,1.9c0,0.8-0.3,1.5-0.8,2c-0.5,0.5-1.3,0.8-2.1,0.8C995.2,344.6,994.5,344.3,993.9,343.8z M993.9,349.1h4.2
				v23.4h-4.2L993.9,349.1z"/>
			<path class="st7" d="M1019.3,371.1c-0.7,0.6-1.5,1-2.3,1.2c-0.9,0.3-1.9,0.4-2.8,0.4c-2,0.1-4-0.6-5.5-1.9
				c-1.4-1.5-2.1-3.4-1.9-5.4v-12.8h-4v-3.5h4V344h4.2v5.1h6.7v3.5h-6.7v12.7c-0.1,1.1,0.3,2.1,0.9,2.9c0.7,0.7,1.7,1.1,2.7,1
				c1.2,0,2.4-0.4,3.3-1.1L1019.3,371.1z"/>
			<path class="st7" d="M1024.5,343.8c-0.5-0.5-0.8-1.2-0.8-1.9c0-0.7,0.3-1.4,0.8-2c0.5-0.5,1.3-0.8,2.1-0.8c0.8,0,1.5,0.3,2.1,0.8
				c0.5,0.5,0.8,1.2,0.8,1.9c0,0.8-0.3,1.5-0.8,2c-0.5,0.5-1.3,0.8-2.1,0.8C1025.8,344.6,1025.1,344.3,1024.5,343.8z M1024.4,349.1
				h4.2v23.4h-4.2V349.1z"/>
			<path class="st7" d="M1057.8,362.2h-19c0.2,2,1.2,3.7,2.7,5c1.6,1.3,3.7,1.9,5.8,1.9c2.6,0.1,5-0.9,6.8-2.8l2.3,2.7
				c-1.1,1.2-2.4,2.2-3.9,2.8c-3.9,1.5-8.1,1.3-11.9-0.6c-1.9-1-3.4-2.4-4.4-4.3c-1.1-1.9-1.6-4-1.6-6.2c0-2.1,0.5-4.3,1.5-6.1
				c1-1.8,2.4-3.3,4.2-4.3c1.8-1,3.9-1.6,6-1.5c2.1,0,4.2,0.5,6,1.5c1.7,1,3.2,2.5,4.1,4.3c1,1.9,1.5,4.1,1.5,6.3
				C1057.9,361.3,1057.9,361.8,1057.8,362.2z M1041.2,354.3c-1.4,1.3-2.2,3-2.4,4.9h15c-0.2-1.9-1-3.6-2.4-4.8
				C1048.5,351.8,1044.2,351.8,1041.2,354.3L1041.2,354.3z"/>
			<path class="st7" d="M1065,372c-1.5-0.4-2.9-1.1-4.1-2l1.8-3.4c1.1,0.8,2.4,1.4,3.8,1.8c1.4,0.4,2.9,0.7,4.5,0.7
				c3.7,0,5.6-1.1,5.6-3.2c0-0.6-0.3-1.3-0.8-1.7c-0.6-0.4-1.2-0.7-1.9-0.9c-0.8-0.2-1.8-0.4-3.2-0.6c-1.6-0.2-3.1-0.6-4.6-1
				c-1.2-0.4-2.2-1-3.1-1.9c-0.9-1.1-1.4-2.4-1.3-3.8c0-2,1-4,2.6-5.1c2.1-1.4,4.6-2,7.1-1.9c1.6,0,3.1,0.2,4.7,0.6
				c1.4,0.3,2.7,0.8,3.8,1.5l-1.8,3.4c-2-1.3-4.4-1.9-6.8-1.9c-1.4-0.1-2.8,0.2-4.1,0.9c-0.9,0.5-1.4,1.4-1.4,2.3
				c0,0.7,0.3,1.4,0.8,1.8c0.6,0.5,1.2,0.8,2,1c0.8,0.2,1.9,0.4,3.3,0.7c1.5,0.2,3.1,0.6,4.6,1c1.1,0.4,2.2,1,3,1.9
				c0.9,1,1.3,2.4,1.2,3.7c0,2-1,4-2.7,5.1c-2.2,1.4-4.8,2-7.4,1.9C1068.6,372.8,1066.8,372.5,1065,372z"/>
			<path class="st7" d="M1097.8,343.8c-0.5-0.5-0.8-1.2-0.8-1.9c0-0.7,0.3-1.4,0.8-2c0.5-0.5,1.3-0.8,2.1-0.8c0.8,0,1.5,0.3,2.1,0.8
				c0.5,0.5,0.8,1.2,0.8,1.9c0,0.8-0.3,1.5-0.8,2c-0.5,0.5-1.3,0.8-2.1,0.8C1099.1,344.6,1098.4,344.3,1097.8,343.8z M1097.8,349.1
				h4.2v23.4h-4.2V349.1z"/>
			<path class="st7" d="M1129.6,351.5c1.8,1.7,2.6,4.2,2.6,7.6v13.5h-4.2v-13c0.1-1.9-0.4-3.7-1.6-5.1c-1.2-1.2-2.9-1.8-4.7-1.7
				c-2-0.1-4,0.6-5.4,2c-1.4,1.6-2.1,3.7-2,5.8v12h-4.2v-23.4h4.1v3.5c0.9-1.2,2.1-2.2,3.5-2.8c1.6-0.7,3.3-1,5-1
				C1125.2,348.7,1127.7,349.7,1129.6,351.5z"/>
			<path class="st7" d="M1155.7,371.2c-1.8-1-3.3-2.5-4.3-4.3c-2.1-3.8-2.1-8.5,0-12.3c1-1.8,2.5-3.3,4.3-4.2c3.9-2,8.6-2,12.5,0
				c1.8,1,3.3,2.5,4.3,4.2c2.1,3.8,2.1,8.5,0,12.3c-1,1.8-2.5,3.3-4.3,4.3C1164.3,373.3,1159.7,373.3,1155.7,371.2z M1166,368
				c1.2-0.7,2.2-1.7,2.8-2.9c1.4-2.7,1.4-5.9,0-8.6c-0.6-1.2-1.6-2.2-2.8-2.9c-2.5-1.4-5.6-1.4-8.1,0c-1.2,0.7-2.2,1.7-2.8,2.9
				c-1.4,2.7-1.4,5.9,0,8.6c0.7,1.2,1.6,2.2,2.8,2.9C1160.5,369.4,1163.5,369.4,1166,368z"/>
			<path class="st7" d="M1184.8,347.1v2h6.8v3.5h-6.7v19.9h-4.2v-19.9h-4v-3.5h4V347c-0.1-2,0.6-4,2-5.5c1.5-1.4,3.6-2.2,5.7-2
				c0.9,0,1.8,0.1,2.6,0.4c0.8,0.2,1.5,0.5,2.1,1l-1.3,3.2c-0.9-0.7-2.1-1.1-3.3-1.1C1186.1,343,1184.8,344.3,1184.8,347.1z"/>
			<path class="st7" d="M1200.4,347.1v2h6.8v3.5h-6.7v19.9h-4.2v-19.9h-4v-3.5h4V347c-0.1-2,0.6-4,2-5.5c1.5-1.4,3.6-2.2,5.7-2
				c0.9,0,1.8,0.1,2.6,0.4c0.8,0.2,1.5,0.5,2.1,1l-1.3,3.2c-0.9-0.7-2.1-1.1-3.3-1.1C1201.6,343,1200.4,344.3,1200.4,347.1z"/>
			<path class="st7" d="M1231.9,362.2h-19c0.2,2,1.2,3.7,2.7,5c1.6,1.3,3.7,1.9,5.8,1.9c2.6,0.1,5-0.9,6.8-2.8l2.3,2.7
				c-1.1,1.2-2.4,2.2-3.9,2.8c-3.9,1.5-8.1,1.3-11.8-0.6c-1.9-1-3.4-2.4-4.4-4.3c-1.1-1.9-1.6-4-1.6-6.2c0-2.1,0.5-4.3,1.5-6.1
				c1-1.8,2.4-3.3,4.2-4.3c1.8-1,3.9-1.6,6-1.5c2.1,0,4.2,0.5,6,1.5c1.7,1,3.2,2.5,4.1,4.3c1,1.9,1.5,4.1,1.5,6.3
				C1232,361.3,1231.9,361.8,1231.9,362.2z M1215.3,354.3c-1.4,1.3-2.2,3-2.4,4.9h15c-0.2-1.9-1-3.6-2.4-4.8
				C1222.6,351.8,1218.3,351.8,1215.3,354.3L1215.3,354.3z"/>
			<path class="st7" d="M1245.2,349.9c1.6-0.8,3.4-1.1,5.3-1.1v4.1c-0.3,0-0.6,0-1,0c-2-0.1-4,0.6-5.4,2.1c-1.4,1.6-2.1,3.7-2,5.8
				v11.7h-4.2v-23.4h4.1v3.9C1242.6,351.7,1243.8,350.6,1245.2,349.9z"/>
			<path class="st7" d="M1255.7,343.8c-0.5-0.5-0.8-1.2-0.8-1.9c0-0.7,0.3-1.4,0.8-2c0.5-0.5,1.3-0.8,2.1-0.8c0.8,0,1.5,0.3,2.1,0.8
				c0.5,0.5,0.8,1.2,0.8,1.9c0,0.8-0.3,1.5-0.8,2c-0.5,0.5-1.3,0.8-2.1,0.8C1257,344.6,1256.2,344.3,1255.7,343.8z M1255.6,349.1
				h4.2v23.4h-4.2V349.1z"/>
			<path class="st7" d="M1287.5,351.5c1.8,1.7,2.6,4.2,2.6,7.6v13.5h-4.2v-13c0.1-1.9-0.4-3.7-1.6-5.1c-1.2-1.2-2.9-1.8-4.7-1.7
				c-2-0.1-4,0.6-5.4,2c-1.4,1.6-2.1,3.7-2,5.8v12h-4.2v-23.4h4.1v3.5c0.9-1.2,2.1-2.2,3.5-2.8c1.6-0.7,3.3-1,5-1
				C1283,348.7,1285.6,349.7,1287.5,351.5z"/>
			<path class="st7" d="M1320.5,349.1v20.2c0,4.1-1,7.1-3,9.1s-5.1,2.9-9.1,2.9c-2.1,0-4.3-0.3-6.3-0.9c-1.8-0.5-3.4-1.4-4.9-2.6
				l2-3.3c1.2,1,2.6,1.8,4,2.2c1.6,0.5,3.3,0.8,5,0.8c2.7,0,4.8-0.6,6.1-1.9s2-3.3,2-5.9v-1.8c-1,1.2-2.3,2.1-3.7,2.7
				c-1.5,0.6-3.1,0.9-4.7,0.9c-2.1,0-4.2-0.5-6.1-1.4c-1.8-0.9-3.2-2.3-4.3-4c-2.1-3.7-2.1-8.1,0-11.8c1-1.7,2.5-3.1,4.3-4
				c1.9-1,4-1.4,6.1-1.4c1.7,0,3.4,0.3,4.9,1c1.5,0.6,2.8,1.6,3.7,2.9v-3.6L1320.5,349.1z M1312.4,366.8c1.2-0.6,2.2-1.6,2.9-2.7
				c0.7-1.2,1.1-2.6,1-4c0.1-2.1-0.7-4.1-2.3-5.5c-3.4-2.8-8.2-2.8-11.6,0c-1.5,1.4-2.3,3.4-2.3,5.5c0,1.4,0.3,2.8,1,4
				c0.7,1.2,1.7,2.1,2.9,2.7C1306.8,368.1,1309.8,368.1,1312.4,366.8L1312.4,366.8z"/>
			<path class="st7" d="M1356.4,351.3c1.7,1.6,2.6,4,2.6,7.1v14.1h-4v-3.1c-0.7,1.1-1.8,2-3,2.5c-1.5,0.6-3.1,0.9-4.7,0.9
				c-2.3,0.1-4.5-0.6-6.3-1.9c-2.8-2.3-3.2-6.4-0.9-9.2c0.2-0.3,0.5-0.5,0.7-0.8c1.5-1.2,3.9-1.9,7.2-1.9h6.7v-0.8
				c0.1-1.6-0.5-3.1-1.6-4.2c-1.3-1.1-3-1.6-4.7-1.5c-1.4,0-2.8,0.2-4.1,0.7c-1.2,0.4-2.4,1-3.4,1.8l-1.8-3.2c1.3-1,2.8-1.8,4.3-2.2
				c1.7-0.5,3.5-0.8,5.3-0.8C1352.2,348.9,1354.7,349.7,1356.4,351.3z M1352.2,368.4c1.2-0.7,2.1-1.8,2.6-3.1v-3.3h-6.5
				c-3.6,0-5.4,1.2-5.4,3.6c0,1.1,0.5,2.1,1.4,2.8c1.1,0.7,2.5,1.1,3.8,1C1349.5,369.5,1350.9,369.1,1352.2,368.4L1352.2,368.4z"/>
			<path class="st7" d="M1379.9,372c-1.5-0.4-2.9-1.1-4.2-2l1.8-3.4c1.1,0.8,2.4,1.4,3.8,1.8c1.4,0.4,2.9,0.7,4.5,0.7
				c3.7,0,5.6-1.1,5.6-3.2c0-0.6-0.3-1.3-0.8-1.7c-0.6-0.4-1.2-0.7-1.9-0.9c-0.8-0.2-1.8-0.4-3.2-0.6c-1.6-0.2-3.1-0.6-4.6-1
				c-1.2-0.4-2.2-1-3.1-1.9c-0.9-1.1-1.4-2.4-1.3-3.8c0-2,1-4,2.6-5.1c2.1-1.4,4.6-2,7.1-1.9c1.6,0,3.1,0.2,4.7,0.6
				c1.4,0.3,2.7,0.8,3.8,1.5l-1.8,3.4c-2-1.3-4.4-1.9-6.8-1.9c-1.4-0.1-2.8,0.2-4.1,0.9c-0.9,0.5-1.4,1.4-1.4,2.3
				c0,0.7,0.3,1.4,0.8,1.8c0.6,0.5,1.2,0.8,2,1c0.8,0.2,1.9,0.4,3.3,0.7c1.5,0.2,3.1,0.6,4.6,1c1.1,0.4,2.2,1,3,1.9
				c0.9,1,1.3,2.4,1.2,3.7c0,2-1,4-2.7,5.1c-2.2,1.4-4.8,2-7.4,1.9C1383.6,372.8,1381.7,372.5,1379.9,372z"/>
			<path class="st7" d="M1416.8,351.3c1.7,1.6,2.6,4,2.6,7.1v14.1h-4v-3.1c-0.7,1.1-1.8,2-3,2.5c-1.5,0.6-3.1,0.9-4.7,0.9
				c-2.3,0.1-4.5-0.6-6.3-1.9c-2.8-2.3-3.2-6.4-0.9-9.2c0.2-0.3,0.5-0.5,0.7-0.8c1.5-1.2,3.9-1.9,7.2-1.9h6.7v-0.8
				c0.1-1.6-0.5-3.1-1.6-4.2c-1.3-1.1-3-1.6-4.7-1.5c-1.4,0-2.8,0.2-4.1,0.7c-1.2,0.4-2.4,1-3.4,1.8l-1.8-3.2c1.3-1,2.8-1.8,4.3-2.2
				c1.7-0.5,3.5-0.8,5.3-0.8C1412.6,348.9,1415.1,349.7,1416.8,351.3z M1412.6,368.4c1.2-0.7,2.1-1.8,2.6-3.1v-3.3h-6.5
				c-3.6,0-5.4,1.2-5.4,3.6c0,1.1,0.5,2.1,1.4,2.8c1.1,0.7,2.5,1.1,3.8,1C1409.9,369.5,1411.3,369.1,1412.6,368.4L1412.6,368.4z"/>
			<path class="st7" d="M1432,347.1v2h6.8v3.5h-6.7v19.9h-4.2v-19.9h-4v-3.5h4V347c-0.1-2,0.6-4,2-5.5c1.5-1.4,3.6-2.2,5.7-2
				c0.9,0,1.8,0.1,2.6,0.4c0.8,0.2,1.5,0.5,2.1,1l-1.3,3.2c-0.9-0.7-2.1-1.1-3.3-1.1C1433.3,343,1432,344.3,1432,347.1z"/>
			<path class="st7" d="M1463.5,362.2h-19c0.2,2,1.2,3.7,2.7,5c1.6,1.3,3.7,1.9,5.8,1.9c2.6,0.1,5-0.9,6.8-2.8l2.3,2.7
				c-1.1,1.2-2.4,2.2-3.9,2.8c-3.9,1.5-8.1,1.3-11.8-0.6c-1.9-1-3.4-2.4-4.4-4.3c-1.1-1.9-1.6-4-1.6-6.2c0-2.1,0.5-4.3,1.5-6.1
				c1-1.8,2.4-3.3,4.2-4.3c1.8-1,3.9-1.6,6-1.5c2.1,0,4.2,0.5,6,1.5c1.7,1,3.2,2.5,4.1,4.3c1,1.9,1.5,4.1,1.5,6.3
				C1463.6,361.4,1463.6,361.8,1463.5,362.2z M1446.9,354.3c-1.4,1.3-2.2,3-2.4,4.9h15c-0.2-1.9-1-3.6-2.4-4.8
				C1454.2,351.8,1449.9,351.8,1446.9,354.3L1446.9,354.3z"/>
			<path class="st7" d="M1472.6,367.6c0.5,0.6,0.8,1.3,0.8,2.1c0,0.4-0.1,0.9-0.2,1.3c-0.1,0.4-0.3,1-0.6,1.9l-2.1,6.1h-2.8l1.6-6.6
				c-0.5-0.2-1-0.6-1.3-1c-0.3-0.5-0.5-1.1-0.5-1.7c0-0.8,0.3-1.6,0.8-2.2c0.6-0.6,1.3-0.9,2.1-0.8
				C1471.3,366.7,1472,367,1472.6,367.6z"/>
		</g>
		<g>
			<path class="st7" d="M432.9,424.9c-1.5-0.4-2.9-1-4.1-2l1.8-3.4c1.1,0.8,2.4,1.4,3.8,1.8c1.4,0.4,2.9,0.7,4.5,0.7
				c3.7,0,5.6-1.1,5.6-3.2c0-0.6-0.3-1.3-0.8-1.7c-0.6-0.4-1.2-0.7-1.9-0.9c-0.8-0.2-1.8-0.4-3.2-0.6c-1.6-0.2-3.1-0.6-4.6-1
				c-1.2-0.4-2.2-1-3.1-1.9c-0.9-1.1-1.4-2.4-1.3-3.8c0-2,1-4,2.6-5.1c2.1-1.4,4.6-2,7.1-1.9c1.6,0,3.1,0.2,4.7,0.6
				c1.4,0.3,2.7,0.8,3.8,1.5l-1.8,3.4c-2-1.3-4.4-1.9-6.8-1.9c-1.4-0.1-2.8,0.2-4.1,0.9c-0.9,0.5-1.4,1.4-1.4,2.3
				c0,0.7,0.3,1.4,0.8,1.8c0.6,0.5,1.2,0.8,2,1c0.8,0.2,1.9,0.4,3.3,0.7c1.5,0.2,3.1,0.6,4.6,1c1.1,0.4,2.2,1,3,1.9
				c0.9,1,1.3,2.4,1.2,3.7c0,2-1,4-2.7,5.1c-2.2,1.4-4.8,2-7.4,1.9C436.5,425.7,434.7,425.5,432.9,424.9z"/>
			<path class="st7" d="M475.6,402.1v23.4h-4v-3.5c-0.9,1.2-2,2.2-3.4,2.8c-1.4,0.7-3,1-4.6,1c-2.7,0.2-5.4-0.8-7.4-2.6
				c-1.8-1.7-2.7-4.3-2.7-7.6v-13.5h4.2v13c-0.1,1.9,0.4,3.7,1.6,5.1c1.2,1.2,2.9,1.9,4.7,1.7c2,0.1,3.9-0.6,5.3-2
				c1.4-1.6,2.1-3.6,1.9-5.7v-12.1H475.6z"/>
			<path class="st7" d="M484.9,424.9c-1.5-0.4-2.9-1-4.1-2l1.8-3.4c1.1,0.8,2.4,1.4,3.8,1.8c1.4,0.4,2.9,0.7,4.5,0.7
				c3.7,0,5.6-1.1,5.6-3.2c0-0.6-0.3-1.3-0.8-1.7c-0.6-0.4-1.2-0.7-1.9-0.9c-0.7-0.2-1.8-0.4-3.2-0.6c-1.6-0.2-3.1-0.6-4.6-1
				c-1.2-0.4-2.2-1-3.1-1.9c-0.9-1.1-1.4-2.4-1.3-3.8c0-2,1-4,2.6-5.1c2.1-1.4,4.6-2,7.1-1.9c1.6,0,3.1,0.2,4.7,0.6
				c1.4,0.3,2.7,0.8,3.8,1.5l-1.8,3.4c-2-1.3-4.4-1.9-6.8-1.9c-1.4-0.1-2.8,0.2-4.1,0.9c-0.9,0.5-1.4,1.4-1.4,2.3
				c0,0.7,0.3,1.4,0.8,1.8c0.6,0.5,1.2,0.8,2,1c0.8,0.2,1.9,0.4,3.3,0.7c1.5,0.2,3.1,0.6,4.6,1c1.1,0.4,2.2,1,3,1.9
				c0.9,1,1.3,2.4,1.2,3.7c0,2-1,4-2.7,5.1c-2.2,1.4-4.8,2-7.4,1.9C488.5,425.7,486.6,425.5,484.9,424.9z"/>
			<path class="st7" d="M518.9,424.1c-0.7,0.6-1.5,1-2.3,1.2c-0.9,0.3-1.9,0.4-2.8,0.4c-2,0.1-4-0.6-5.5-1.9
				c-1.4-1.5-2.1-3.4-1.9-5.4v-12.8h-4v-3.5h4v-5.1h4.2v5.1h6.7v3.5h-6.7v12.7c-0.1,1.1,0.3,2.1,0.9,2.9c0.7,0.7,1.7,1.1,2.7,1
				c1.2,0,2.4-0.4,3.3-1.1L518.9,424.1z"/>
			<path class="st7" d="M540,404.2c1.7,1.6,2.6,4,2.6,7.1v14.1h-4v-3.1c-0.7,1.1-1.8,2-3,2.5c-1.5,0.6-3.1,0.9-4.7,0.9
				c-2.3,0.1-4.5-0.6-6.3-1.9c-1.5-1.2-2.4-3-2.4-5c-0.1-1.9,0.8-3.8,2.3-5c1.5-1.2,3.9-1.9,7.2-1.9h6.7v-0.8
				c0.1-1.6-0.5-3.1-1.6-4.2c-1.3-1.1-3-1.6-4.7-1.5c-1.4,0-2.8,0.2-4.1,0.7c-1.2,0.4-2.4,1-3.4,1.8l-1.8-3.2c1.3-1,2.8-1.8,4.3-2.2
				c1.7-0.5,3.5-0.8,5.3-0.8C535.8,401.8,538.3,402.6,540,404.2z M535.8,421.4c1.2-0.7,2.1-1.8,2.6-3.1V415h-6.5
				c-3.6,0-5.4,1.2-5.4,3.6c0,1.1,0.5,2.1,1.4,2.8c1.1,0.7,2.5,1.1,3.8,1C533.1,422.5,534.5,422.1,535.8,421.4L535.8,421.4z"/>
			<path class="st7" d="M550.5,396.8c-0.5-0.5-0.8-1.2-0.8-1.9c0-0.7,0.3-1.4,0.8-2c0.5-0.5,1.3-0.8,2.1-0.8c0.8,0,1.5,0.3,2.1,0.8
				c0.5,0.5,0.8,1.2,0.8,1.9c0,0.8-0.3,1.5-0.8,2c-0.5,0.5-1.3,0.8-2.1,0.8C551.8,397.6,551,397.3,550.5,396.8z M550.4,402.1h4.2
				v23.4h-4.2V402.1z"/>
			<path class="st7" d="M582.3,404.4c1.8,1.7,2.6,4.2,2.6,7.6v13.5h-4.2v-13c0.1-1.9-0.4-3.7-1.6-5.1c-1.2-1.2-2.9-1.8-4.7-1.7
				c-2-0.1-4,0.6-5.4,2c-1.4,1.6-2.1,3.7-2,5.8v12h-4.2v-23.4h4.1v3.5c0.9-1.2,2.1-2.2,3.5-2.8c1.6-0.7,3.3-1,5-1
				C577.9,401.7,580.4,402.6,582.3,404.4z"/>
			<path class="st7" d="M608.8,404.2c1.7,1.6,2.6,4,2.6,7.1v14.1h-4v-3.1c-0.7,1.1-1.8,2-3,2.5c-1.5,0.6-3.1,0.9-4.7,0.9
				c-2.3,0.1-4.5-0.6-6.3-1.9c-2.8-2.3-3.2-6.4-0.9-9.2c0.2-0.3,0.5-0.5,0.8-0.8c1.5-1.2,3.9-1.9,7.1-1.9h6.7v-0.8
				c0.1-1.6-0.5-3.1-1.6-4.2c-1.3-1.1-3-1.6-4.7-1.5c-1.4,0-2.8,0.2-4.1,0.7c-1.2,0.4-2.4,1-3.4,1.8l-1.8-3.2c1.3-1,2.8-1.8,4.3-2.2
				c1.7-0.5,3.5-0.8,5.3-0.8C604.6,401.8,607,402.6,608.8,404.2z M604.5,421.4c1.2-0.7,2.1-1.8,2.6-3.1V415h-6.5
				c-3.6,0-5.4,1.2-5.4,3.6c0,1.1,0.5,2.1,1.4,2.8c1.1,0.7,2.5,1.1,3.8,1C601.8,422.5,603.3,422.1,604.5,421.4L604.5,421.4z"/>
			<path class="st7" d="M637.7,403.3c1.8,1,3.2,2.4,4.2,4.2c2,3.9,2,8.6,0,12.5c-1,1.8-2.4,3.2-4.2,4.2c-1.9,1-4,1.5-6.1,1.5
				c-1.6,0-3.3-0.3-4.8-1c-1.4-0.7-2.7-1.7-3.6-3v3.7h-4.1v-32.7h4.2v12.9c0.9-1.2,2.1-2.2,3.5-2.8c1.5-0.6,3-1,4.6-0.9
				C633.7,401.8,635.8,402.3,637.7,403.3z M635.3,421c1.2-0.7,2.2-1.7,2.8-2.9c1.4-2.7,1.4-5.9,0-8.6c-0.7-1.2-1.6-2.2-2.8-2.9
				c-2.5-1.4-5.5-1.4-8.1,0c-1.2,0.7-2.2,1.7-2.8,2.9c-1.4,2.7-1.4,5.9,0,8.6c0.6,1.2,1.6,2.2,2.8,2.9
				C629.7,422.4,632.8,422.4,635.3,421z"/>
			<path class="st7" d="M649.3,392.7h4.2v32.7h-4.2V392.7z"/>
			<path class="st7" d="M682.7,415.2h-19c0.2,2,1.2,3.7,2.7,5c1.6,1.3,3.7,1.9,5.8,1.9c2.6,0.1,5-0.9,6.8-2.8l2.3,2.7
				c-1.1,1.2-2.4,2.2-4,2.8c-3.9,1.5-8.1,1.3-11.8-0.6c-1.9-1-3.4-2.4-4.4-4.3c-1.1-1.9-1.6-4-1.6-6.2c0-2.1,0.5-4.3,1.5-6.1
				c1-1.8,2.4-3.3,4.2-4.3c1.8-1,3.9-1.6,6-1.5c2.1,0,4.2,0.5,6,1.5c1.7,1,3.2,2.5,4.1,4.3c1,1.9,1.5,4.1,1.5,6.3
				C682.7,414.3,682.7,414.7,682.7,415.2z M666.1,407.3c-1.4,1.3-2.2,3-2.4,4.9h15c-0.2-1.9-1-3.6-2.4-4.8
				C673.4,404.8,669,404.8,666.1,407.3L666.1,407.3z"/>
			<path class="st7" d="M691.7,420.5c0.5,0.6,0.8,1.3,0.8,2.1c0,0.4-0.1,0.9-0.2,1.3c-0.1,0.4-0.3,1-0.6,1.9l-2.1,6.1h-2.8l1.6-6.6
				c-0.5-0.2-1-0.6-1.3-1c-0.3-0.5-0.5-1.1-0.5-1.7c0-0.8,0.3-1.6,0.8-2.2c0.6-0.6,1.3-0.9,2.1-0.8
				C690.5,419.6,691.2,420,691.7,420.5z"/>
			<path class="st7" d="M731.6,415.2h-19c0.2,2,1.2,3.7,2.7,5c1.6,1.3,3.7,1.9,5.8,1.9c2.6,0.1,5-0.9,6.8-2.8l2.3,2.7
				c-1.1,1.2-2.4,2.2-4,2.8c-3.9,1.5-8.1,1.3-11.9-0.6c-1.9-1-3.4-2.4-4.4-4.3c-1.1-1.9-1.6-4-1.6-6.2c0-2.1,0.5-4.3,1.5-6.1
				c1-1.8,2.4-3.3,4.2-4.3c1.8-1,3.9-1.6,6-1.5c2.1,0,4.2,0.5,6,1.5c1.7,1,3.2,2.5,4.1,4.3c1,1.9,1.5,4.1,1.5,6.3
				C731.6,414.3,731.6,414.7,731.6,415.2z M715,407.3c-1.4,1.3-2.2,3-2.4,4.9h15c-0.2-1.9-1-3.6-2.4-4.8
				C722.3,404.8,717.9,404.8,715,407.3L715,407.3z"/>
			<path class="st7" d="M742.3,400v2h6.8v3.5h-6.7v19.9h-4.2v-19.9h-4v-3.5h4V400c-0.1-2,0.6-4,2-5.5c1.5-1.4,3.6-2.2,5.7-2
				c0.9,0,1.8,0.1,2.6,0.4c0.8,0.2,1.5,0.5,2.1,1l-1.3,3.2c-0.9-0.7-2.1-1.1-3.3-1.1C743.6,395.9,742.3,397.3,742.3,400z"/>
			<path class="st7" d="M757.9,400v2h6.8v3.5H758v19.9h-4.2v-19.9h-4v-3.5h4V400c-0.1-2,0.6-4,2-5.5c1.5-1.4,3.6-2.2,5.7-2
				c0.9,0,1.8,0.1,2.6,0.4c0.8,0.2,1.5,0.5,2.1,1l-1.3,3.2c-0.9-0.7-2.1-1.1-3.3-1.1C759.1,395.9,757.9,397.3,757.9,400z"/>
			<path class="st7" d="M772.1,424.2c-1.8-1-3.3-2.5-4.4-4.3c-2.1-3.8-2.1-8.5,0-12.3c1-1.8,2.6-3.3,4.4-4.2c2-1,4.2-1.6,6.4-1.5
				c2,0,3.9,0.4,5.7,1.3c1.6,0.8,3,2.1,3.9,3.7l-3.2,2.1c-0.7-1.1-1.6-1.9-2.7-2.5c-1.1-0.6-2.4-0.9-3.6-0.8c-1.4,0-2.9,0.3-4.1,1
				c-1.2,0.7-2.2,1.7-2.9,2.9c-0.7,1.3-1.1,2.8-1,4.3c0,1.5,0.3,3,1,4.3c0.7,1.2,1.7,2.2,2.9,2.9c1.3,0.7,2.7,1,4.1,1
				c1.3,0,2.5-0.3,3.6-0.8c1.1-0.6,2.1-1.5,2.7-2.5l3.2,2c-0.9,1.6-2.2,2.9-3.9,3.7c-1.8,0.9-3.7,1.3-5.7,1.3
				C776.3,425.7,774.1,425.2,772.1,424.2z"/>
			<path class="st7" d="M793.6,396.8c-0.5-0.5-0.8-1.2-0.8-1.9c0-0.7,0.3-1.4,0.8-2c0.5-0.5,1.3-0.8,2.1-0.8c0.8,0,1.5,0.3,2.1,0.8
				c0.5,0.5,0.8,1.2,0.8,1.9c0,0.8-0.3,1.5-0.8,2c-0.5,0.5-1.3,0.8-2.1,0.8C794.9,397.6,794.1,397.3,793.6,396.8z M793.5,402.1h4.2
				v23.4h-4.2V402.1z"/>
			<path class="st7" d="M826.9,415.2h-19c0.2,2,1.2,3.7,2.7,5c1.6,1.3,3.7,1.9,5.8,1.9c2.6,0.1,5-0.9,6.8-2.8l2.3,2.7
				c-1.1,1.2-2.4,2.2-4,2.8c-3.9,1.5-8.1,1.3-11.9-0.6c-1.9-1-3.4-2.4-4.4-4.3c-1.1-1.9-1.6-4-1.6-6.2c0-2.1,0.5-4.3,1.5-6.1
				c1-1.8,2.4-3.3,4.2-4.3c1.8-1,3.9-1.6,6-1.5c2.1,0,4.2,0.5,6,1.5c1.7,1,3.2,2.5,4.1,4.3c1,1.9,1.5,4.1,1.5,6.3
				C827,414.3,827,414.7,826.9,415.2z M810.3,407.3c-1.4,1.3-2.2,3-2.4,4.9h15c-0.2-1.9-1-3.6-2.4-4.8
				C817.6,404.8,813.3,404.8,810.3,407.3L810.3,407.3z"/>
			<path class="st7" d="M852.4,404.4c1.7,1.7,2.6,4.2,2.6,7.6v13.5h-4.2v-13c0.1-1.9-0.4-3.7-1.6-5.1c-1.2-1.2-2.9-1.8-4.7-1.7
				c-2-0.1-4,0.6-5.4,2c-1.4,1.6-2.1,3.7-2,5.8v12h-4.2v-23.4h4.1v3.5c0.9-1.2,2.1-2.2,3.5-2.8c1.6-0.7,3.3-1,5-1
				C848,401.7,850.5,402.6,852.4,404.4z"/>
			<path class="st7" d="M876.1,424.1c-0.7,0.6-1.5,1-2.3,1.2c-0.9,0.3-1.9,0.4-2.8,0.4c-2,0.1-4-0.6-5.5-1.9
				c-1.4-1.5-2.1-3.4-1.9-5.4v-12.8h-4v-3.5h4v-5.1h4.2v5.1h6.7v3.5h-6.7v12.7c-0.1,1.1,0.3,2.1,0.9,2.9c0.7,0.7,1.7,1.1,2.7,1
				c1.2,0,2.4-0.4,3.3-1.1L876.1,424.1z"/>
			<path class="st7" d="M909,404.2c1.7,1.6,2.6,4,2.6,7.1v14.1h-4v-3.1c-0.7,1.1-1.8,2-3,2.5c-1.5,0.6-3.1,0.9-4.7,0.9
				c-2.3,0.1-4.5-0.6-6.3-1.9c-2.8-2.3-3.2-6.4-0.9-9.2c0.2-0.3,0.5-0.5,0.8-0.8c1.5-1.2,3.9-1.9,7.1-1.9h6.7v-0.8
				c0.1-1.6-0.5-3.1-1.6-4.2c-1.3-1.1-3-1.6-4.7-1.5c-1.4,0-2.8,0.2-4.1,0.7c-1.2,0.4-2.4,1-3.4,1.8l-1.8-3.2c1.3-1,2.8-1.8,4.3-2.2
				c1.7-0.5,3.5-0.8,5.3-0.8C904.8,401.8,907.3,402.6,909,404.2z M904.8,421.4c1.2-0.7,2.1-1.8,2.6-3.1V415h-6.5
				c-3.6,0-5.4,1.2-5.4,3.6c0,1.1,0.5,2.1,1.4,2.8c1.1,0.7,2.5,1.1,3.8,1C902.1,422.5,903.5,422.1,904.8,421.4z"/>
			<path class="st7" d="M939,404.4c1.8,1.7,2.6,4.2,2.6,7.6v13.5h-4.2v-13c0.1-1.9-0.4-3.7-1.6-5.1c-1.2-1.2-2.9-1.8-4.7-1.7
				c-2-0.1-4,0.6-5.4,2c-1.4,1.6-2.1,3.7-2,5.8v12h-4.2v-23.4h4.1v3.5c0.9-1.2,2.1-2.2,3.5-2.8c1.6-0.7,3.3-1,5-1
				C934.6,401.7,937.1,402.6,939,404.4z"/>
			<path class="st7" d="M971.7,392.7v32.7h-4.1v-3.7c-0.9,1.3-2.1,2.3-3.6,3c-1.5,0.7-3.1,1-4.8,1c-2.1,0-4.2-0.5-6.1-1.5
				c-1.8-1-3.2-2.4-4.2-4.2c-2-3.9-2-8.6,0-12.5c1-1.8,2.4-3.2,4.2-4.2c1.9-1,4-1.5,6.1-1.5c1.6,0,3.2,0.3,4.6,0.9
				c1.4,0.6,2.6,1.6,3.5,2.8v-12.9H971.7z M963.7,421c1.2-0.7,2.2-1.7,2.8-2.9c1.4-2.7,1.4-5.9,0-8.6c-0.6-1.2-1.6-2.2-2.8-2.9
				c-2.5-1.4-5.5-1.4-8.1,0c-1.2,0.7-2.2,1.7-2.8,2.9c-1.4,2.7-1.4,5.9,0,8.6c0.7,1.2,1.6,2.2,2.8,2.9
				C958.1,422.4,961.2,422.4,963.7,421z"/>
			<path class="st7" d="M992.8,424.9c-1.5-0.4-2.9-1-4.1-2l1.8-3.4c1.1,0.8,2.4,1.4,3.8,1.8c1.4,0.4,2.9,0.7,4.5,0.7
				c3.7,0,5.6-1.1,5.6-3.2c0-0.6-0.3-1.3-0.8-1.7c-0.6-0.4-1.2-0.7-1.9-0.9c-0.8-0.2-1.8-0.4-3.2-0.6c-1.6-0.2-3.1-0.6-4.6-1
				c-1.2-0.4-2.2-1-3.1-1.9c-0.9-1.1-1.4-2.4-1.3-3.8c0-2,1-4,2.6-5.1c2.1-1.4,4.6-2,7.1-1.9c1.6,0,3.1,0.2,4.7,0.6
				c1.4,0.3,2.7,0.8,3.8,1.5l-1.8,3.4c-2-1.3-4.4-1.9-6.8-1.9c-1.4-0.1-2.8,0.2-4.1,0.9c-0.9,0.5-1.4,1.4-1.4,2.3
				c0,0.7,0.3,1.4,0.8,1.8c0.6,0.5,1.2,0.8,2,1c0.8,0.2,1.9,0.4,3.3,0.7c1.5,0.2,3.1,0.6,4.6,1c1.1,0.4,2.2,1,3,1.9
				c0.9,1,1.3,2.4,1.2,3.7c0,2-1,4-2.7,5.1c-2.2,1.4-4.8,2-7.4,1.9C996.5,425.7,994.6,425.5,992.8,424.9z"/>
			<path class="st7" d="M1050,404.4c1.7,1.7,2.6,4.2,2.6,7.6v13.5h-4.2v-13c0.1-1.8-0.4-3.7-1.6-5.1c-1.2-1.2-2.8-1.8-4.5-1.7
				c-1.9-0.1-3.8,0.6-5.1,2c-1.4,1.6-2,3.7-1.9,5.8v12h-4.2v-13c0.1-1.8-0.4-3.7-1.6-5.1c-1.2-1.2-2.8-1.8-4.5-1.7
				c-1.9-0.1-3.8,0.6-5.1,2c-1.4,1.6-2,3.7-1.9,5.8v12h-4.2v-23.4h4.1v3.5c0.9-1.2,2-2.2,3.4-2.8c1.5-0.7,3.1-1,4.7-0.9
				c1.7,0,3.3,0.3,4.9,1.1c1.4,0.7,2.5,1.8,3.3,3.2c0.9-1.4,2.2-2.5,3.7-3.2c1.7-0.8,3.5-1.2,5.3-1.1
				C1045.6,401.7,1048.1,402.6,1050,404.4z"/>
			<path class="st7" d="M1076.3,404.2c1.7,1.6,2.6,4,2.6,7.1v14.1h-4v-3.1c-0.7,1.1-1.8,2-3,2.5c-1.5,0.6-3.1,0.9-4.7,0.9
				c-2.3,0.1-4.5-0.6-6.3-1.9c-2.8-2.3-3.2-6.4-0.9-9.2c0.2-0.3,0.5-0.5,0.8-0.8c1.5-1.2,3.9-1.9,7.1-1.9h6.7v-0.8
				c0.1-1.6-0.5-3.1-1.6-4.2c-1.3-1.1-3-1.6-4.7-1.5c-1.4,0-2.8,0.2-4.1,0.7c-1.2,0.4-2.4,1-3.4,1.8l-1.8-3.2c1.3-1,2.8-1.8,4.3-2.2
				c1.7-0.5,3.5-0.8,5.3-0.8C1072.1,401.8,1074.6,402.6,1076.3,404.2z M1072.1,421.4c1.2-0.7,2.1-1.8,2.6-3.1V415h-6.5
				c-3.6,0-5.4,1.2-5.4,3.6c0,1.1,0.5,2.1,1.4,2.8c1.1,0.7,2.5,1.1,3.8,1C1069.4,422.5,1070.8,422.1,1072.1,421.4L1072.1,421.4z"/>
			<path class="st7" d="M1094.1,402.9c1.6-0.7,3.4-1.1,5.3-1.1v4.1c-0.3,0-0.6,0-1,0c-2-0.1-4,0.6-5.4,2.1c-1.4,1.6-2.1,3.7-2,5.9
				v11.7h-4.2v-23.4h4.1v3.9C1091.6,404.6,1092.7,403.6,1094.1,402.9z"/>
			<path class="st7" d="M1118.7,424.1c-0.7,0.6-1.5,1-2.3,1.2c-0.9,0.3-1.9,0.4-2.8,0.4c-2,0.1-4-0.6-5.5-1.9
				c-1.4-1.5-2.1-3.4-1.9-5.4v-12.8h-4v-3.5h4v-5.1h4.2v5.1h6.7v3.5h-6.7v12.7c-0.1,1.1,0.3,2.1,0.9,2.9c0.7,0.7,1.7,1.1,2.7,1
				c1.2,0,2.4-0.4,3.3-1.1L1118.7,424.1z"/>
			<path class="st7" d="M1157.5,402.1v23.4h-4v-3.5c-0.9,1.2-2,2.2-3.4,2.8c-1.4,0.7-3,1-4.6,1c-2.7,0.2-5.4-0.8-7.4-2.6
				c-1.8-1.7-2.7-4.3-2.7-7.6v-13.5h4.2v13c-0.1,1.9,0.4,3.7,1.6,5.1c1.2,1.2,2.9,1.9,4.7,1.7c2,0.1,3.9-0.6,5.3-2
				c1.4-1.6,2.1-3.6,1.9-5.7v-12.1H1157.5z"/>
			<path class="st7" d="M1172.9,402.9c1.6-0.8,3.4-1.1,5.3-1.1v4.1c-0.3,0-0.6,0-1,0c-2-0.1-4,0.6-5.4,2.1c-1.4,1.6-2.1,3.7-2,5.8
				v11.7h-4.2v-23.4h4.1v3.9C1170.3,404.6,1171.5,403.6,1172.9,402.9z"/>
			<path class="st7" d="M1201.8,403.3c1.8,1,3.2,2.4,4.2,4.2c2,3.9,2,8.6,0,12.5c-1,1.8-2.4,3.2-4.2,4.2c-1.9,1-4,1.5-6.1,1.5
				c-1.6,0-3.3-0.3-4.8-1c-1.4-0.7-2.7-1.7-3.6-3v3.7h-4.1v-32.7h4.2v12.9c0.9-1.2,2.1-2.2,3.5-2.8c1.5-0.6,3-1,4.6-0.9
				C1197.9,401.8,1200,402.3,1201.8,403.3z M1199.4,421c1.2-0.7,2.2-1.7,2.8-2.9c1.4-2.7,1.4-5.9,0-8.6c-0.7-1.2-1.6-2.2-2.8-2.9
				c-2.5-1.4-5.5-1.4-8.1,0c-1.2,0.7-2.2,1.7-2.8,2.9c-1.4,2.7-1.4,5.9,0,8.6c0.6,1.2,1.6,2.2,2.8,2.9
				C1193.9,422.4,1196.9,422.4,1199.4,421z"/>
			<path class="st7" d="M1229.2,404.2c1.7,1.6,2.6,4,2.6,7.1v14.1h-4v-3.1c-0.7,1.1-1.8,2-3,2.5c-1.5,0.6-3.1,0.9-4.7,0.9
				c-2.3,0.1-4.5-0.6-6.3-1.9c-1.5-1.2-2.4-3-2.4-5c-0.1-1.9,0.8-3.8,2.3-5c1.5-1.2,3.9-1.9,7.2-1.9h6.7v-0.8
				c0.1-1.6-0.5-3.1-1.6-4.2c-1.3-1.1-3-1.6-4.7-1.5c-1.4,0-2.8,0.2-4.1,0.7c-1.2,0.4-2.4,1-3.4,1.8l-1.8-3.2c1.3-1,2.8-1.8,4.3-2.2
				c1.7-0.5,3.5-0.8,5.3-0.8C1225,401.8,1227.4,402.6,1229.2,404.2z M1225,421.4c1.2-0.7,2.1-1.8,2.6-3.1V415h-6.5
				c-3.6,0-5.4,1.2-5.4,3.6c0,1.1,0.5,2.1,1.4,2.8c1.1,0.7,2.5,1.1,3.8,1C1222.2,422.5,1223.7,422.1,1225,421.4L1225,421.4z"/>
			<path class="st7" d="M1259.2,404.4c1.8,1.7,2.6,4.2,2.6,7.6v13.5h-4.2v-13c0.1-1.9-0.4-3.7-1.6-5.1c-1.2-1.2-2.9-1.8-4.7-1.7
				c-2-0.1-4,0.6-5.4,2c-1.4,1.6-2.1,3.7-2,5.8v12h-4.2v-23.4h4.1v3.5c0.9-1.2,2.1-2.2,3.5-2.8c1.6-0.7,3.3-1,5-1
				C1254.7,401.7,1257.3,402.6,1259.2,404.4z"/>
			<path class="st7" d="M1294.7,424.1c-0.7,0.6-1.5,1-2.3,1.2c-0.9,0.3-1.9,0.4-2.8,0.4c-2,0.1-4-0.6-5.5-1.9
				c-1.4-1.5-2.1-3.4-1.9-5.4v-12.8h-4v-3.5h4v-5.1h4.2v5.1h6.7v3.5h-6.7v12.7c-0.1,1.1,0.3,2.1,0.9,2.9c0.7,0.7,1.7,1.1,2.7,1
				c1.2,0,2.4-0.4,3.3-1.1L1294.7,424.1z"/>
			<path class="st7" d="M1307.1,402.9c1.6-0.7,3.4-1.1,5.3-1.1v4.1c-0.3,0-0.6,0-1,0c-2-0.1-4,0.6-5.4,2.1c-1.4,1.6-2.1,3.7-2,5.8
				v11.7h-4.2v-23.4h4.1v3.9C1304.6,404.6,1305.7,403.6,1307.1,402.9z"/>
			<path class="st7" d="M1333.5,404.2c1.7,1.6,2.6,4,2.6,7.1v14.1h-4v-3.1c-0.7,1.1-1.8,2-3,2.5c-1.5,0.6-3.1,0.9-4.7,0.9
				c-2.3,0.1-4.5-0.6-6.3-1.9c-2.8-2.3-3.2-6.4-0.9-9.2c0.2-0.3,0.5-0.5,0.8-0.8c1.5-1.2,3.9-1.9,7.1-1.9h6.7v-0.8
				c0.1-1.6-0.5-3.1-1.6-4.2c-1.3-1.1-3-1.6-4.7-1.5c-1.4,0-2.8,0.2-4.1,0.7c-1.2,0.4-2.4,1-3.4,1.8l-1.8-3.2c1.3-1,2.8-1.8,4.3-2.2
				c1.7-0.5,3.5-0.8,5.3-0.8C1329.3,401.8,1331.8,402.6,1333.5,404.2z M1329.3,421.4c1.2-0.7,2.1-1.8,2.6-3.1V415h-6.5
				c-3.6,0-5.4,1.2-5.4,3.6c0,1.1,0.5,2.1,1.4,2.8c1.1,0.7,2.5,1.1,3.8,1C1326.6,422.5,1328,422.1,1329.3,421.4L1329.3,421.4z"/>
			<path class="st7" d="M1363.5,404.4c1.8,1.7,2.6,4.2,2.6,7.6v13.5h-4.2v-13c0.1-1.9-0.4-3.7-1.6-5.1c-1.2-1.2-2.9-1.8-4.7-1.7
				c-2-0.1-4,0.6-5.4,2c-1.4,1.6-2.1,3.7-2,5.8v12h-4.2v-23.4h4.1v3.5c0.9-1.2,2.1-2.2,3.5-2.8c1.6-0.7,3.3-1,5-1
				C1359,401.7,1361.6,402.6,1363.5,404.4z"/>
			<path class="st7" d="M1375.2,424.9c-1.5-0.4-2.9-1-4.1-2l1.8-3.4c1.1,0.8,2.4,1.4,3.8,1.8c1.4,0.4,2.9,0.7,4.5,0.7
				c3.7,0,5.6-1.1,5.6-3.2c0-0.6-0.3-1.3-0.8-1.7c-0.6-0.4-1.2-0.7-1.9-0.9c-0.8-0.2-1.8-0.4-3.2-0.6c-1.6-0.2-3.1-0.6-4.6-1
				c-1.2-0.4-2.2-1-3.1-1.9c-0.9-1.1-1.4-2.4-1.3-3.8c0-2,1-4,2.6-5.1c2.1-1.4,4.6-2,7.1-1.9c1.6,0,3.1,0.2,4.7,0.6
				c1.4,0.3,2.7,0.8,3.8,1.5l-1.8,3.4c-2-1.3-4.4-1.9-6.8-1.9c-1.4-0.1-2.8,0.2-4.1,0.9c-0.9,0.5-1.4,1.4-1.4,2.3
				c0,0.7,0.3,1.4,0.8,1.8c0.6,0.5,1.2,0.8,2,1c0.8,0.2,1.9,0.4,3.3,0.7c1.5,0.2,3.1,0.6,4.6,1c1.1,0.4,2.2,1,3,1.9
				c0.9,1,1.3,2.4,1.2,3.7c0,2-1,4-2.7,5.1c-2.2,1.4-4.8,2-7.4,1.9C1378.8,425.7,1377,425.5,1375.2,424.9z"/>
			<path class="st7" d="M1414.6,403.3c1.8,1,3.2,2.4,4.2,4.2c2,3.9,2,8.6,0,12.5c-1,1.8-2.4,3.2-4.2,4.2c-1.9,1-4,1.5-6.1,1.5
				c-1.6,0-3.2-0.3-4.6-1c-1.4-0.6-2.6-1.6-3.6-2.8V434h-4.2v-32h4.1v3.7c0.9-1.3,2.1-2.3,3.6-2.9c1.5-0.7,3.1-1,4.8-1
				C1410.6,401.8,1412.7,402.3,1414.6,403.3z M1412.2,421c1.2-0.7,2.2-1.7,2.8-2.9c1.4-2.7,1.4-5.9,0-8.6c-0.7-1.2-1.6-2.2-2.8-2.9
				c-1.2-0.7-2.6-1-4-1c-1.4,0-2.8,0.3-4,1c-1.2,0.7-2.2,1.7-2.8,2.9c-0.7,1.3-1.1,2.8-1,4.3c0,1.5,0.3,3,1,4.3
				c0.6,1.2,1.6,2.2,2.8,2.9C1406.6,422.3,1409.7,422.3,1412.2,421L1412.2,421z"/>
			<path class="st7" d="M1430,424.2c-1.8-1-3.3-2.5-4.3-4.3c-2.1-3.8-2.1-8.5,0-12.3c1-1.8,2.5-3.3,4.3-4.2c3.9-2,8.6-2,12.5,0
				c1.8,1,3.3,2.5,4.3,4.2c2.1,3.8,2.1,8.5,0,12.3c-1,1.8-2.5,3.3-4.3,4.3C1438.6,426.2,1433.9,426.2,1430,424.2z M1440.3,421
				c1.2-0.7,2.2-1.7,2.8-2.9c1.4-2.7,1.4-5.9,0-8.6c-0.6-1.2-1.6-2.2-2.8-2.9c-2.5-1.4-5.6-1.4-8.1,0c-1.2,0.7-2.2,1.7-2.8,2.9
				c-1.4,2.7-1.4,5.9,0,8.6c0.7,1.2,1.6,2.2,2.8,2.9C1434.7,422.3,1437.7,422.3,1440.3,421z"/>
			<path class="st7" d="M1461.6,402.9c1.6-0.7,3.4-1.1,5.3-1.1v4.1c-0.3,0-0.6,0-1,0c-2-0.1-4,0.6-5.4,2.1c-1.4,1.6-2.1,3.7-2,5.8
				v11.7h-4.2v-23.4h4.1v3.9C1459,404.6,1460.2,403.6,1461.6,402.9z"/>
			<path class="st7" d="M1486.1,424.1c-0.7,0.6-1.5,1-2.3,1.2c-0.9,0.3-1.9,0.4-2.8,0.4c-2,0.1-4-0.6-5.5-1.9
				c-1.4-1.5-2.1-3.4-1.9-5.4v-12.8h-4v-3.5h4v-5.1h4.2v5.1h6.7v3.5h-6.7v12.7c-0.1,1.1,0.3,2.1,0.9,2.9c0.7,0.7,1.7,1.1,2.7,1
				c1.2,0,2.4-0.4,3.3-1.1L1486.1,424.1z"/>
		</g>
		<g>
			<path class="st7" d="M432.9,477.9c-1.5-0.4-2.9-1-4.1-2l1.8-3.4c1.1,0.8,2.4,1.4,3.8,1.8c1.4,0.4,2.9,0.7,4.5,0.7
				c3.7,0,5.6-1.1,5.6-3.2c0-0.6-0.3-1.3-0.8-1.7c-0.6-0.4-1.2-0.7-1.9-0.9c-0.8-0.2-1.8-0.4-3.2-0.6c-1.6-0.2-3.1-0.6-4.6-1
				c-1.2-0.4-2.2-1-3.1-1.9c-0.9-1.1-1.4-2.4-1.3-3.8c0-2,1-4,2.6-5.1c2.1-1.4,4.6-2,7.1-1.9c1.6,0,3.1,0.2,4.7,0.6
				c1.4,0.3,2.7,0.8,3.8,1.5l-1.8,3.4c-2-1.3-4.4-1.9-6.8-1.9c-1.4-0.1-2.8,0.2-4.1,0.9c-0.9,0.5-1.4,1.4-1.4,2.3
				c0,0.7,0.3,1.4,0.8,1.8c0.6,0.5,1.2,0.8,2,1c0.8,0.2,1.9,0.4,3.3,0.7c1.5,0.2,3.1,0.6,4.6,1c1.1,0.4,2.2,1,3,1.9
				c0.9,1,1.3,2.4,1.2,3.7c0,2-1,4-2.7,5.1c-2.2,1.4-4.8,2-7.4,1.9C436.5,478.7,434.7,478.4,432.9,477.9z"/>
			<path class="st7" d="M474,455l-11.3,25.7c-0.7,2-1.9,3.7-3.5,5c-1.4,1-3.1,1.5-4.8,1.5c-1.1,0-2.3-0.2-3.3-0.6
				c-1-0.3-1.9-0.9-2.7-1.6l1.8-3.2c1.1,1.1,2.6,1.7,4.2,1.7c0.9,0,1.8-0.3,2.6-0.8c0.8-0.8,1.5-1.7,1.9-2.8l0.8-1.6L449.2,455h4.4
				l8.2,18.7l8.1-18.7L474,455z"/>
			<path class="st7" d="M478.9,477.9c-1.5-0.4-2.9-1-4.1-2l1.8-3.4c1.1,0.8,2.4,1.4,3.8,1.8c1.4,0.4,2.9,0.7,4.5,0.7
				c3.7,0,5.6-1.1,5.6-3.2c0-0.6-0.3-1.3-0.8-1.7c-0.6-0.4-1.2-0.7-1.9-0.9c-0.8-0.2-1.8-0.4-3.2-0.6c-1.6-0.2-3.1-0.6-4.6-1
				c-1.2-0.4-2.2-1-3.1-1.9c-0.9-1.1-1.4-2.4-1.3-3.8c0-2,1-4,2.6-5.1c2.1-1.4,4.6-2,7.1-1.9c1.6,0,3.1,0.2,4.7,0.6
				c1.4,0.3,2.7,0.8,3.8,1.5l-1.8,3.4c-2-1.3-4.4-1.9-6.8-1.9c-1.4-0.1-2.8,0.2-4.1,0.9c-0.9,0.5-1.4,1.4-1.4,2.3
				c0,0.7,0.3,1.4,0.8,1.8c0.6,0.5,1.2,0.8,2,1c0.8,0.2,1.9,0.4,3.3,0.7c1.5,0.2,3.1,0.6,4.6,1c1.1,0.4,2.2,1,3,1.9
				c0.9,1,1.3,2.4,1.2,3.7c0,2-1,4-2.7,5.1c-2.2,1.4-4.8,2-7.4,1.9C482.6,478.7,480.7,478.4,478.9,477.9z"/>
			<path class="st7" d="M513,477c-0.7,0.6-1.5,1-2.3,1.2c-0.9,0.3-1.9,0.4-2.8,0.4c-2,0.1-4-0.6-5.5-1.9c-1.4-1.5-2.1-3.4-1.9-5.4
				v-12.8h-4V455h4v-5.1h4.2v5.1h6.7v3.5h-6.7v12.7c-0.1,1.1,0.3,2.1,0.9,2.9c0.7,0.7,1.7,1.1,2.7,1c1.2,0,2.4-0.4,3.3-1.1L513,477z
				"/>
			<path class="st7" d="M538.3,468.1h-19c0.2,2,1.2,3.7,2.7,5c1.6,1.3,3.7,1.9,5.8,1.9c2.6,0.1,5-0.9,6.8-2.8l2.3,2.7
				c-1.1,1.2-2.4,2.2-4,2.8c-3.9,1.5-8.1,1.3-11.9-0.6c-1.9-1-3.4-2.4-4.4-4.3c-1.1-1.9-1.6-4-1.6-6.2c0-2.1,0.5-4.3,1.5-6.1
				c1-1.8,2.4-3.3,4.2-4.3c1.8-1,3.9-1.6,6-1.5c2.1,0,4.2,0.5,6,1.5c1.7,1,3.2,2.5,4.1,4.3c1,1.9,1.5,4.1,1.5,6.3
				C538.4,467.3,538.4,467.7,538.3,468.1z M521.8,460.2c-1.4,1.3-2.2,3-2.4,4.9h15c-0.2-1.9-1-3.6-2.4-4.8
				C529,457.8,524.7,457.7,521.8,460.2L521.8,460.2z"/>
			<path class="st7" d="M580.6,457.4c1.7,1.7,2.6,4.2,2.6,7.6v13.5h-4.2v-13c0.1-1.8-0.4-3.7-1.6-5.1c-1.2-1.2-2.8-1.8-4.5-1.7
				c-1.9-0.1-3.8,0.6-5.1,2c-1.4,1.6-2,3.7-1.9,5.8v12h-4.2v-13c0.1-1.8-0.4-3.7-1.6-5.1c-1.2-1.2-2.8-1.8-4.5-1.7
				c-1.9-0.1-3.8,0.6-5.1,2c-1.4,1.6-2,3.7-1.9,5.8v12h-4.2V455h4.1v3.5c0.9-1.2,2-2.2,3.4-2.8c1.5-0.7,3.1-1,4.7-0.9
				c1.7,0,3.4,0.3,4.9,1.1c1.4,0.7,2.5,1.8,3.3,3.2c0.9-1.4,2.2-2.5,3.7-3.2c1.7-0.8,3.5-1.2,5.3-1.1
				C576.1,454.7,578.7,455.6,580.6,457.4z"/>
			<path class="st7" d="M592.1,477.9c-1.5-0.4-2.9-1-4.1-2l1.8-3.4c1.1,0.8,2.4,1.4,3.8,1.8c1.4,0.4,2.9,0.7,4.5,0.7
				c3.7,0,5.6-1.1,5.6-3.2c0-0.6-0.3-1.3-0.8-1.7c-0.6-0.4-1.2-0.7-1.9-0.9c-0.8-0.2-1.8-0.4-3.2-0.6c-1.6-0.2-3.1-0.6-4.6-1
				c-1.2-0.4-2.2-1-3.1-1.9c-0.9-1.1-1.4-2.4-1.3-3.8c0-2,1-4,2.6-5.1c2.1-1.4,4.6-2,7.1-1.9c1.6,0,3.1,0.2,4.7,0.6
				c1.4,0.3,2.7,0.8,3.8,1.5l-1.8,3.4c-2-1.3-4.4-1.9-6.8-1.9c-1.4-0.1-2.8,0.2-4.1,0.9c-0.9,0.5-1.4,1.4-1.4,2.3
				c0,0.7,0.3,1.4,0.8,1.8c0.6,0.5,1.2,0.8,2,1c0.8,0.2,1.9,0.4,3.3,0.7c1.5,0.2,3.1,0.6,4.6,1c1.1,0.4,2.2,1,3,1.9
				c0.9,1,1.3,2.4,1.2,3.7c0,2-1,4-2.7,5.1c-2.2,1.4-4.8,2-7.4,1.9C595.8,478.7,593.9,478.4,592.1,477.9z"/>
			<path class="st7" d="M612,477.8c-0.6-0.6-0.9-1.4-0.9-2.2c0-0.8,0.3-1.6,0.9-2.1c0.6-0.6,1.3-0.9,2.1-0.9c0.8,0,1.5,0.3,2.1,0.8
				c1.1,1.2,1.1,3.1,0,4.3c-0.5,0.6-1.3,0.9-2.1,0.9C613.3,478.7,612.5,478.4,612,477.8z"/>
		</g>
		<path class="st8" d="M319,279.8c-1,1.8-2.1,3.5-3.4,5.1c-8.2,9.6-16.4,19.2-24.6,28.7c-2.4,2.8-4.2,2.8-6.6,0
			c-8.7-10.1-17.4-20.3-26.1-30.4c-0.4-0.5-0.8-1.1-1.2-1.7c-2.6-4.7-0.4-8.8,4.9-9c3.5-0.2,7.1,0,10.6-0.1h2.7
			c-1-6.3-3-12.4-5.8-18.1c-12-24-31.2-38.9-57.8-42.6c-28-3.9-51.2,6.1-69.5,27.7c-1.2,1.4-2.3,2.9-3.5,4.3
			c-4,4.9-11.2,5.6-16.2,1.7c-5.3-3.7-6.7-10.9-3.4-16.4c2.2-3.4,4.7-6.6,7.5-9.6c32.1-35.6,84.9-43.6,126.1-19.1
			c0.3,0.2,0.7,0.4,1,0.6c1.7,0.8,2.4,2.9,1.6,4.6c0,0.1-0.1,0.2-0.2,0.3c-1,1.7-3.2,2.2-4.9,1.2c0,0,0,0,0,0
			c-0.1,0-0.1-0.1-0.2-0.1c-4.6-2.4-9.2-5-14-7c-39.1-15.7-83.9-3.3-109.4,30.3c-2.2,2.9-2.4,4.9-0.6,7.3c1.5,2.4,4.7,3.2,7.1,1.7
			c0.7-0.5,1.3-1.1,1.8-1.8c27-36.6,78.7-44.4,115.3-17.3c16.6,12.2,28,30.2,31.9,50.4c0.3,1.4,0.5,2.9,0.8,4.3
			c0.6,1.9-0.4,3.9-2.3,4.5c0,0,0,0,0,0c-0.5,0.2-1,0.2-1.5,0.2c-4,0.1-8,0-12,0h-2.8c8,9.4,15.6,18.2,23.5,27.4l23.5-27.4h-11.7
			c-4.4,0-5.2-0.7-5.7-5c-1.9-15.8-7.9-30.8-17.4-43.5c-3.3-4.4-7.3-8.3-10.9-12.5c-0.9-1.1-1.4-2.4-1.4-3.8
			c0.5-2.9,3.9-3.7,6.1-1.2c5,5.2,9.7,10.7,14,16.5c8.4,11.9,13.9,25.6,16.1,40c0.1,0.7,0.3,1.4,0.4,2l0.3,0.6h10.5
			c3.1-0.2,6.1,1.4,7.7,4.1L319,279.8z"/>
		<path class="st8" d="M127.2,302.7c2.1,5.5,3.7,10.6,5.9,15.4c4.7,10.2,11.7,19.3,20.4,26.4c0.8,0.7,1.9,1.8,1.9,2.7
			c0,1.3-0.5,2.6-1.5,3.5c-1.3,1.1-3.3,0.9-4.4-0.4c-15-12.3-25.3-29.3-29.2-48.3c-1-4.9,0.2-6.4,5.1-6.4c3.7,0,7.4,0,11.1-0.1
			c0.1,0,0.2-0.1,0.6-0.4l-23-26.9l-23.2,27c0.6,0.1,1.3,0.2,1.9,0.2h11.1c3.5,0,4.6,1,5.1,4.3c2.1,15.8,8.5,30.8,18.4,43.3
			c15.6,19.8,35.9,32.1,61,35.2c35.1,4.4,63.9-7.9,86.5-34.9c1.7-2.1,3-4.3,2.1-7.1c-0.5-2.6-3-4.3-5.6-3.8c0,0-0.1,0-0.1,0
			c-0.9,0.2-1.7,0.6-2.4,1.2c-0.7,0.6-1.3,1.3-1.9,2c-13.1,17.3-32.6,28.7-54.1,31.6c-15.8,2.5-32,0.2-46.5-6.6
			c-1.3-0.7-2.3-1.9-2.7-3.3c-0.1-1.2,0.5-2.3,1.5-2.9c1.4-0.5,2.9-0.4,4.3,0.1c6.3,2.8,13,4.8,19.8,5.9c14.5,2.2,29.4,0,42.6-6.4
			c11.7-5.4,22-13.5,30.1-23.5c3.6-4.3,8.1-6.3,13.7-4.6c6.4,1.7,10.3,8.2,8.6,14.6c0,0,0,0.1,0,0.1c-0.4,1.6-1.2,3.2-2.2,4.5
			c-6.4,8.8-14.2,16.4-23.1,22.6c-45.1,32-107.6,21.4-139.6-23.6c-8.4-11.9-14.2-25.5-16.8-39.9c-0.3-1.4-0.8-1.9-2.3-1.9
			c-3.6,0.1-7.2,0.1-10.8,0c-2.6-0.1-5.2-0.4-6.4-3.2c-1-2.6-0.4-5.5,1.5-7.5c8.7-10.3,17.5-20.6,26.4-30.8c1-1.7,3.1-2.2,4.8-1.2
			c0.5,0.3,0.9,0.7,1.2,1.2c9.1,10.5,18.1,21.1,27.2,31.7c3.6,4.2,1.9,8.7-3.5,9.6c-1.3,0.2-2.6,0.3-3.9,0.3
			C133.6,302.7,130.4,302.8,127.2,302.7z"/>
		<path class="st8" d="M197.8,311.9h-32.9c-4.7,0-5.9-2-3.4-6.1c12.1-19.9,24.2-39.7,36.4-59.5c0.4-0.6,0.7-1.3,1.3-1.6
			c1.1-0.6,2.4-0.9,3.6-0.7c1,0.6,1.7,1.6,1.9,2.8c0.2,2.7,0.3,5.4,0.2,8.1v25.8h32.3c1.8,0,4,0.1,4.5,2c0.3,1.6,0,3.3-0.8,4.7
			c-3.2,5.6-6.7,11-10,16.5c-0.1,0.2-0.2,0.4-0.4,0.6c-0.8,1.8-2.9,2.5-4.7,1.7c0,0,0,0,0,0c-0.2-0.1-0.3-0.2-0.4-0.3
			c-1.6-1-2.1-3.1-1.1-4.7c0,0,0-0.1,0.1-0.1l0,0c0.1-0.1,0.1-0.2,0.2-0.3l6.6-10.8c0.4-0.6,0.7-1.3,1.3-2.2c-1.1,0-1.9-0.1-2.7-0.1
			h-27c-3.7,0-4.8-1.1-4.8-4.8v-22l-0.5-0.1c-8.9,14.6-17.9,29.2-27.1,44.3h29.8c3.9,0,4.8,1,4.8,4.9v22.5c0.7-1,1.1-1.4,1.4-1.9
			c2.8-4.5,5.5-9,8.3-13.5c1.5-2.4,3.5-3.1,5.3-1.9c1.8,1.1,2.1,3.2,0.7,5.5c-5.3,8.7-10.6,17.3-15.8,25.9c-1,1.6-2.3,2.9-4.3,2.3
			c-2.2-0.6-2.6-2.4-2.6-4.4v-29.7C197.8,313.8,197.8,312.9,197.8,311.9z"/>
	</g>
</g>
<g>
	<path class="st7" d="M756.3,169.6h14.5v4.5h-14.5V169.6z"/>
</g>
</svg>
