<svg xmlns="http://www.w3.org/2000/svg" xmlns:xlink="http://www.w3.org/1999/xlink" viewBox="0 0 1619.5 551.8"><defs><radialGradient id="radial-gradient" cx="6172.275" cy="-10075.475" r="501.559" gradientTransform="matrix(0, -1, -1, 0, -8840.822, 6217.376)" gradientUnits="userSpaceOnUse"><stop offset="0" stop-color="#fff"/><stop offset="0.231" stop-color="#fcfcfc"/><stop offset="0.42" stop-color="#f2f2f2"/><stop offset="0.594" stop-color="#e0e0e1"/><stop offset="0.759" stop-color="#c8c8c9"/><stop offset="0.917" stop-color="#aaa"/><stop offset="1" stop-color="#969697"/></radialGradient><radialGradient id="radial-gradient-2" cx="6087.819" cy="-10130.929" r="478.154" gradientTransform="matrix(0, -1, -1, 0, -8840.822, 6217.376)" gradientUnits="userSpaceOnUse"><stop offset="0" stop-color="#fff"/><stop offset="0.258" stop-color="#fcfcfc"/><stop offset="0.468" stop-color="#f2f2f2"/><stop offset="0.662" stop-color="#e0e0e1"/><stop offset="0.846" stop-color="#c9c9c9"/><stop offset="1" stop-color="#aeaeaf"/></radialGradient><radialGradient id="radial-gradient-3" cx="5796.967" cy="-10389.408" r="528.506" gradientTransform="matrix(0, -1, -1, 0, -8840.822, 6217.376)" gradientUnits="userSpaceOnUse"><stop offset="0" stop-color="#fff"/><stop offset="0.165" stop-color="#f8f8f8"/><stop offset="0.411" stop-color="#e3e3e3"/><stop offset="0.709" stop-color="#c2c2c2"/><stop offset="1" stop-color="#9a9a9a"/></radialGradient></defs><g id="Layer_2" data-name="Layer 2"><g id="Layer_1-2" data-name="Layer 1"><path d="M1322.8,551.8H93.7C42,551.8,0,428.3,0,275.9H0C0,123.5,42,0,93.7,0H1322.8c51.8,0,93.7,123.5,93.7,275.9h0C1416.5,428.3,1374.5,551.8,1322.8,551.8Z" style="fill:#606060"/><g style="isolation:isolate"><path d="M62.439,155.732q-4.507-4.48-4.508-12.795V121.772h8.747v20.84q0,10.152,8.422,10.151a7.9,7.9,0,0,0,6.263-2.456q2.159-2.457,2.159-7.695v-20.84h8.639v21.165q0,8.313-4.508,12.795t-12.607,4.481Q66.948,160.213,62.439,155.732Z" style="fill:#fff"/><path d="M126.579,133.326q3.321,3.24,3.32,9.611v16.628h-8.422V144.232a7.574,7.574,0,0,0-1.512-5.156,5.541,5.541,0,0,0-4.373-1.7,6.7,6.7,0,0,0-5.075,1.971q-1.89,1.969-1.89,5.857v14.361h-8.422V130.519h8.045v3.4a11.169,11.169,0,0,1,4.157-2.834,14.478,14.478,0,0,1,5.453-1A11.956,11.956,0,0,1,126.579,133.326Z" style="fill:#fff"/><path d="M137.512,119.505h8.422v40.06h-8.422Z" style="fill:#fff"/><path d="M159.35,158.081a14.252,14.252,0,0,1-5.7-5.318,15.558,15.558,0,0,1,0-15.442,14.25,14.25,0,0,1,5.7-5.317,18.582,18.582,0,0,1,16.44,0,14.294,14.294,0,0,1,5.669,5.317,15.552,15.552,0,0,1,0,15.442,14.3,14.3,0,0,1-5.669,5.318,18.591,18.591,0,0,1-16.44,0ZM172.9,150.9a9.295,9.295,0,0,0,0-11.715A7.016,7.016,0,0,0,167.583,137a7.1,7.1,0,0,0-5.344,2.187,9.2,9.2,0,0,0,0,11.715,7.1,7.1,0,0,0,5.344,2.187A7.02,7.02,0,0,0,172.9,150.9Z" style="fill:#fff"/><path d="M194.821,158.081a14.35,14.35,0,0,1-5.777-5.318,15.383,15.383,0,0,1,0-15.442A14.348,14.348,0,0,1,194.821,132a17.87,17.87,0,0,1,8.342-1.917A16.174,16.174,0,0,1,211.181,132a11.366,11.366,0,0,1,4.993,5.479l-6.532,3.51a7.142,7.142,0,0,0-6.533-4,7.392,7.392,0,0,0-5.453,2.159,9.1,9.1,0,0,0,0,11.77,7.389,7.389,0,0,0,5.453,2.16,7.067,7.067,0,0,0,6.533-3.995l6.532,3.562a11.594,11.594,0,0,1-4.993,5.4A15.983,15.983,0,0,1,203.163,160,17.87,17.87,0,0,1,194.821,158.081Z" style="fill:#fff"/><path d="M233.289,148.174l-4.05,4v7.4h-8.422v-40.06h8.422v22.676l12.31-11.662h10.042L239.5,142.828l13.173,16.737h-10.2Z" style="fill:#fff"/><path d="M256.666,125.12a4.572,4.572,0,0,1,0-6.7,5.34,5.34,0,0,1,3.779-1.35,5.48,5.48,0,0,1,3.78,1.3,4.156,4.156,0,0,1,1.457,3.239,4.587,4.587,0,0,1-1.457,3.483,5.284,5.284,0,0,1-3.78,1.377A5.34,5.34,0,0,1,256.666,125.12Zm-.432,5.4h8.422v29.046h-8.422Z" style="fill:#fff"/><path d="M298.859,133.326q3.321,3.24,3.32,9.611v16.628h-8.422V144.232a7.579,7.579,0,0,0-1.512-5.156,5.544,5.544,0,0,0-4.373-1.7,6.7,6.7,0,0,0-5.075,1.971q-1.89,1.969-1.89,5.857v14.361h-8.422V130.519h8.044v3.4a11.181,11.181,0,0,1,4.158-2.834,14.478,14.478,0,0,1,5.453-1A11.956,11.956,0,0,1,298.859,133.326Z" style="fill:#fff"/><path d="M340.08,130.519v24.187q0,7.99-4.158,11.878t-12.147,3.888a30.374,30.374,0,0,1-7.991-1.027,17.491,17.491,0,0,1-6.263-2.968l3.348-6.047a13.78,13.78,0,0,0,4.643,2.4,18.467,18.467,0,0,0,5.615.891q4.372,0,6.452-1.971t2.078-5.966v-1.242q-3.294,3.618-9.178,3.618a15.405,15.405,0,0,1-7.315-1.755,13.365,13.365,0,0,1-5.265-4.94,14.847,14.847,0,0,1,0-14.686,13.377,13.377,0,0,1,5.265-4.939,15.417,15.417,0,0,1,7.315-1.755q6.317,0,9.61,4.157v-3.725ZM329.633,149.28a7.3,7.3,0,0,0,0-10.311,7.759,7.759,0,0,0-5.48-1.971,7.85,7.85,0,0,0-5.507,1.971,7.233,7.233,0,0,0,0,10.311,7.846,7.846,0,0,0,5.507,1.971A7.754,7.754,0,0,0,329.633,149.28Z" style="fill:#fff"/><path d="M398.172,159.565l-.054-22.675L387,155.57h-3.941l-11.068-18.194v22.189H363.78V121.772h7.235l14.146,23.486,13.929-23.486h7.181l.107,37.793Z" style="fill:#fff"/><path d="M420.334,158.081a14.252,14.252,0,0,1-5.7-5.318,15.552,15.552,0,0,1,0-15.442,14.25,14.25,0,0,1,5.7-5.317,18.582,18.582,0,0,1,16.44,0,14.294,14.294,0,0,1,5.669,5.317,15.552,15.552,0,0,1,0,15.442,14.3,14.3,0,0,1-5.669,5.318,18.591,18.591,0,0,1-16.44,0Zm13.552-7.181a9.295,9.295,0,0,0,0-11.715A7.016,7.016,0,0,0,428.567,137a7.1,7.1,0,0,0-5.344,2.187,9.2,9.2,0,0,0,0,11.715,7.1,7.1,0,0,0,5.344,2.187A7.02,7.02,0,0,0,433.886,150.9Z" style="fill:#fff"/><path d="M474.648,131.949a13.388,13.388,0,0,1,5.21,5.238,17.268,17.268,0,0,1,0,15.71,13.381,13.381,0,0,1-5.21,5.238,14.8,14.8,0,0,1-7.37,1.862q-5.993,0-9.124-3.779v3.347h-8.045v-40.06h8.423V133.6a11.216,11.216,0,0,1,8.746-3.51A14.811,14.811,0,0,1,474.648,131.949ZM471.139,150.9a9.295,9.295,0,0,0,0-11.715,7.56,7.56,0,0,0-10.637,0,9.295,9.295,0,0,0,0,11.715,7.56,7.56,0,0,0,10.637,0Z" style="fill:#fff"/><path d="M487.794,125.12a4.572,4.572,0,0,1,0-6.7,5.34,5.34,0,0,1,3.779-1.35,5.48,5.48,0,0,1,3.78,1.3,4.156,4.156,0,0,1,1.457,3.239,4.587,4.587,0,0,1-1.457,3.483,5.284,5.284,0,0,1-3.78,1.377A5.34,5.34,0,0,1,487.794,125.12Zm-.432,5.4h8.422v29.046h-8.422Z" style="fill:#fff"/><path d="M503.612,119.505h8.423v40.06h-8.423Z" style="fill:#fff"/><path d="M520.295,125.12a4.572,4.572,0,0,1,0-6.7,5.341,5.341,0,0,1,3.78-1.35,5.476,5.476,0,0,1,3.779,1.3,4.153,4.153,0,0,1,1.458,3.239,4.584,4.584,0,0,1-1.458,3.483,5.28,5.28,0,0,1-3.779,1.377A5.341,5.341,0,0,1,520.295,125.12Zm-.432,5.4h8.423v29.046h-8.423Z" style="fill:#fff"/><path d="M554.848,158.162a8.643,8.643,0,0,1-3.05,1.376,15.423,15.423,0,0,1-3.806.459q-5.184,0-8.018-2.645t-2.834-7.775V137.646h-4.481v-6.479h4.481v-7.073h8.422v7.073H552.8v6.479h-7.235V149.47a3.963,3.963,0,0,0,.945,2.834,3.5,3.5,0,0,0,2.672,1,5.414,5.414,0,0,0,3.4-1.08Z" style="fill:#fff"/><path d="M587.89,130.519l-13.119,30.828q-2,5.02-4.94,7.073a12.109,12.109,0,0,1-7.1,2.052,14.768,14.768,0,0,1-4.481-.7,9.9,9.9,0,0,1-3.618-1.944l3.078-5.993a7.259,7.259,0,0,0,2.241,1.35,6.975,6.975,0,0,0,2.51.486,4.458,4.458,0,0,0,2.808-.837,7.125,7.125,0,0,0,1.943-2.78l.108-.271-12.58-29.262h8.693l8.152,19.707,8.207-19.707Z" style="fill:#fff"/><path d="M607.217,121.772h17.169a24.138,24.138,0,0,1,10.879,2.349,17.594,17.594,0,0,1,7.343,6.613,20.153,20.153,0,0,1,0,19.87,17.587,17.587,0,0,1-7.343,6.613,24.138,24.138,0,0,1-10.879,2.348H607.217Zm16.738,30.613A12.7,12.7,0,0,0,633,149.227a12.54,12.54,0,0,0,0-17.116,12.7,12.7,0,0,0-9.043-3.158h-7.991v23.432Z" style="fill:#fff"/><path d="M673.3,133.3q3.615,3.212,3.617,9.69v16.575h-7.882v-3.617Q666.659,160,660.181,160a13.74,13.74,0,0,1-5.8-1.134,8.651,8.651,0,0,1-3.752-3.131,8.144,8.144,0,0,1-1.3-4.535,7.569,7.569,0,0,1,3.05-6.371q3.051-2.321,9.422-2.321H668.5a5.37,5.37,0,0,0-1.674-4.238,7.372,7.372,0,0,0-5.021-1.486,14.625,14.625,0,0,0-4.562.73,12.034,12.034,0,0,0-3.806,1.97l-3.024-5.884a18.229,18.229,0,0,1,5.7-2.592,25.548,25.548,0,0,1,6.83-.918Q669.684,130.087,673.3,133.3Zm-7.181,20.03a5.475,5.475,0,0,0,2.376-2.943v-2.969h-5.777q-5.184,0-5.183,3.4a3.03,3.03,0,0,0,1.268,2.565,5.716,5.716,0,0,0,3.483.944A7.335,7.335,0,0,0,666.12,153.33Z" style="fill:#fff"/><path d="M703.264,158.162a8.643,8.643,0,0,1-3.05,1.376,15.423,15.423,0,0,1-3.806.459q-5.184,0-8.018-2.645t-2.834-7.775V137.646h-4.481v-6.479h4.481v-7.073h8.422v7.073h7.235v6.479h-7.235V149.47a3.963,3.963,0,0,0,.945,2.834,3.5,3.5,0,0,0,2.672,1,5.414,5.414,0,0,0,3.4-1.08Z" style="fill:#fff"/><path d="M730.1,133.3q3.617,3.212,3.617,9.69v16.575h-7.882v-3.617Q723.456,160,716.978,160a13.737,13.737,0,0,1-5.8-1.134,8.648,8.648,0,0,1-3.753-3.131,8.152,8.152,0,0,1-1.3-4.535,7.568,7.568,0,0,1,3.051-6.371q3.049-2.321,9.421-2.321h6.7a5.37,5.37,0,0,0-1.674-4.238,7.37,7.37,0,0,0-5.021-1.486,14.625,14.625,0,0,0-4.562.73,12.034,12.034,0,0,0-3.806,1.97l-3.023-5.884a18.234,18.234,0,0,1,5.695-2.592,25.553,25.553,0,0,1,6.83-.918Q726.48,130.087,730.1,133.3Zm-7.18,20.03a5.469,5.469,0,0,0,2.375-2.943v-2.969h-5.777q-5.183,0-5.183,3.4a3.031,3.031,0,0,0,1.269,2.565,5.711,5.711,0,0,0,3.482.944A7.341,7.341,0,0,0,722.917,153.33Z" style="fill:#fff"/><path d="M744.026,159.106a18.45,18.45,0,0,1-5.507-2.24l2.808-6.047a17.666,17.666,0,0,0,4.7,2.025,19.678,19.678,0,0,0,5.4.783q5.344,0,5.345-2.646a1.874,1.874,0,0,0-1.458-1.782,21.732,21.732,0,0,0-4.481-.918,43.085,43.085,0,0,1-5.885-1.241,9.136,9.136,0,0,1-4.022-2.483,7.065,7.065,0,0,1-1.7-5.076,7.953,7.953,0,0,1,1.593-4.886,10.251,10.251,0,0,1,4.643-3.321,19.847,19.847,0,0,1,7.208-1.187,28.337,28.337,0,0,1,6.127.675,17.153,17.153,0,0,1,5.048,1.862l-2.807,5.993a16.768,16.768,0,0,0-8.368-2.159,8.513,8.513,0,0,0-4.05.756,2.221,2.221,0,0,0-1.349,1.943,1.927,1.927,0,0,0,1.457,1.89,25.721,25.721,0,0,0,4.644,1.025,49.845,49.845,0,0,1,5.83,1.27,8.765,8.765,0,0,1,3.942,2.456,6.974,6.974,0,0,1,1.674,4.967,7.675,7.675,0,0,1-1.62,4.805,10.343,10.343,0,0,1-4.724,3.267A21.077,21.077,0,0,1,751.1,160,28.208,28.208,0,0,1,744.026,159.106Z" style="fill:#fff"/><path d="M798.285,147.418H776.312a6.835,6.835,0,0,0,2.807,4.265,9.288,9.288,0,0,0,5.507,1.566,11.148,11.148,0,0,0,4.022-.675,9.754,9.754,0,0,0,3.267-2.133L796.4,155.3q-4.1,4.7-11.986,4.7a18.965,18.965,0,0,1-8.692-1.916,14.042,14.042,0,0,1-5.831-5.318,14.652,14.652,0,0,1-2.052-7.721,14.841,14.841,0,0,1,2.025-7.693A14.168,14.168,0,0,1,775.421,132a17.214,17.214,0,0,1,15.63-.081,13.4,13.4,0,0,1,5.426,5.264,15.7,15.7,0,0,1,1.97,7.963Q798.447,145.312,798.285,147.418Zm-19.706-9.341a6.893,6.893,0,0,0-2.375,4.428h14.307a6.972,6.972,0,0,0-2.376-4.4,7.105,7.105,0,0,0-4.751-1.646A7.257,7.257,0,0,0,778.579,138.077Z" style="fill:#fff"/><path d="M822.8,158.162a8.643,8.643,0,0,1-3.05,1.376,15.426,15.426,0,0,1-3.807.459q-5.182,0-8.017-2.645t-2.834-7.775V137.646h-4.481v-6.479h4.481v-7.073h8.422v7.073h7.235v6.479H813.51V149.47a3.963,3.963,0,0,0,.945,2.834,3.5,3.5,0,0,0,2.672,1,5.409,5.409,0,0,0,3.4-1.08Z" style="fill:#fff"/><path d="M830.247,159.106a18.446,18.446,0,0,1-5.508-2.24l2.808-6.047a17.666,17.666,0,0,0,4.7,2.025,19.685,19.685,0,0,0,5.4.783q5.344,0,5.344-2.646a1.874,1.874,0,0,0-1.458-1.782,21.719,21.719,0,0,0-4.48-.918,43.1,43.1,0,0,1-5.886-1.241,9.127,9.127,0,0,1-4.021-2.483,7.065,7.065,0,0,1-1.7-5.076,7.959,7.959,0,0,1,1.593-4.886,10.26,10.26,0,0,1,4.644-3.321,19.841,19.841,0,0,1,7.207-1.187,28.346,28.346,0,0,1,6.128.675,17.164,17.164,0,0,1,5.048,1.862l-2.807,5.993a16.775,16.775,0,0,0-8.369-2.159,8.509,8.509,0,0,0-4.049.756,2.222,2.222,0,0,0-1.35,1.943,1.929,1.929,0,0,0,1.457,1.89,25.762,25.762,0,0,0,4.644,1.025,49.868,49.868,0,0,1,5.831,1.27,8.756,8.756,0,0,1,3.941,2.456,6.969,6.969,0,0,1,1.674,4.967,7.669,7.669,0,0,1-1.62,4.805,10.338,10.338,0,0,1-4.724,3.267,21.073,21.073,0,0,1-7.37,1.16A28.2,28.2,0,0,1,830.247,159.106Z" style="fill:#fff"/></g><line x1="54.6" y1="211.7" x2="1159.7" y2="211.7" style="fill:none;stroke:#fff;stroke-miterlimit:10;stroke-width:3px"/><g style="isolation:isolate"><path d="M60.113,265.468H49.521v-3.84H75.075v3.84H64.482v27.054H60.113Z" style="fill:#fff"/><path d="M98.841,271.492q2.627,2.582,2.626,7.57v13.46H97.23V279.547a7.179,7.179,0,0,0-1.633-5.12,6.14,6.14,0,0,0-4.678-1.721,7.29,7.29,0,0,0-5.429,2.008,7.852,7.852,0,0,0-1.986,5.76v12.048H79.267V259.774H83.5V272.44a8.758,8.758,0,0,1,3.465-2.6,11.93,11.93,0,0,1,4.789-.927A9.666,9.666,0,0,1,98.841,271.492Z" style="fill:#fff"/><path d="M130.508,282.239H111.53a7.338,7.338,0,0,0,2.714,4.965A8.854,8.854,0,0,0,120,289.08a8.673,8.673,0,0,0,6.753-2.825l2.34,2.736a10.234,10.234,0,0,1-3.95,2.825,14.9,14.9,0,0,1-11.851-.551,10.862,10.862,0,0,1-4.436-4.259,12.207,12.207,0,0,1-1.567-6.18,12.412,12.412,0,0,1,1.523-6.135,10.92,10.92,0,0,1,4.193-4.258,11.945,11.945,0,0,1,6.025-1.523,11.7,11.7,0,0,1,5.98,1.523,10.712,10.712,0,0,1,4.1,4.258,12.99,12.99,0,0,1,1.478,6.268A12.367,12.367,0,0,1,130.508,282.239Zm-16.573-7.9a7.47,7.47,0,0,0-2.405,4.854h15.006a7.527,7.527,0,0,0-2.406-4.833,7.9,7.9,0,0,0-10.195-.021Z" style="fill:#fff"/><path d="M148.405,263.834a2.6,2.6,0,0,1-.817-1.941,2.677,2.677,0,0,1,.817-1.964,2.783,2.783,0,0,1,2.052-.817,2.871,2.871,0,0,1,2.052.773,2.531,2.531,0,0,1,.817,1.92,2.727,2.727,0,0,1-.817,2.008,2.786,2.786,0,0,1-2.052.816A2.822,2.822,0,0,1,148.405,263.834Zm-.067,5.3h4.238v23.391h-4.238Z" style="fill:#fff"/><path d="M180.226,271.492q2.627,2.582,2.626,7.57v13.46h-4.237V279.547a7.183,7.183,0,0,0-1.633-5.12,6.14,6.14,0,0,0-4.678-1.721,7.29,7.29,0,0,0-5.429,2.008,7.848,7.848,0,0,0-1.986,5.76v12.048h-4.237V269.131h4.06v3.53a8.237,8.237,0,0,1,3.465-2.78,12.116,12.116,0,0,1,4.966-.971A9.666,9.666,0,0,1,180.226,271.492Z" style="fill:#fff"/><path d="M190.774,263.834a2.6,2.6,0,0,1-.816-1.941,2.676,2.676,0,0,1,.816-1.964,2.784,2.784,0,0,1,2.053-.817,2.871,2.871,0,0,1,2.052.773,2.533,2.533,0,0,1,.816,1.92,2.73,2.73,0,0,1-.816,2.008,2.786,2.786,0,0,1-2.052.816A2.822,2.822,0,0,1,190.774,263.834Zm-.066,5.3h4.237v23.391h-4.237Z" style="fill:#fff"/><path d="M216.173,291.154a6.3,6.3,0,0,1-2.3,1.214,9.6,9.6,0,0,1-2.824.419,7.5,7.5,0,0,1-5.473-1.9,7.246,7.246,0,0,1-1.942-5.429V272.617h-3.972v-3.486h3.972v-5.12h4.237v5.12h6.708v3.486h-6.708v12.667a4.105,4.105,0,0,0,.949,2.913,3.534,3.534,0,0,0,2.715,1.015,5.106,5.106,0,0,0,3.31-1.1Z" style="fill:#fff"/><path d="M221.359,263.834a2.6,2.6,0,0,1-.817-1.941,2.677,2.677,0,0,1,.817-1.964,2.783,2.783,0,0,1,2.052-.817,2.871,2.871,0,0,1,2.052.773,2.531,2.531,0,0,1,.817,1.92,2.727,2.727,0,0,1-.817,2.008,2.786,2.786,0,0,1-2.052.816A2.822,2.822,0,0,1,221.359,263.834Zm-.067,5.3h4.238v23.391h-4.238Z" style="fill:#fff"/><path d="M249.561,271.293q2.582,2.384,2.582,7.106v14.123h-4.016v-3.089a6.714,6.714,0,0,1-3.023,2.494,11.557,11.557,0,0,1-4.657.86,9.742,9.742,0,0,1-6.289-1.9,6.523,6.523,0,0,1-.111-9.953q2.251-1.875,7.15-1.875h6.709v-.839a5.406,5.406,0,0,0-1.589-4.194,6.706,6.706,0,0,0-4.678-1.456,12.387,12.387,0,0,0-4.061.685,10.456,10.456,0,0,0-3.354,1.831l-1.766-3.178a12.8,12.8,0,0,1,4.326-2.228,18.1,18.1,0,0,1,5.341-.773Q246.979,268.91,249.561,271.293Zm-4.215,17.146a6.186,6.186,0,0,0,2.56-3.067v-3.266h-6.532q-5.385,0-5.385,3.62a3.273,3.273,0,0,0,1.369,2.78,6.245,6.245,0,0,0,3.795,1.015A7.862,7.862,0,0,0,245.346,288.439Z" style="fill:#fff"/><path d="M273.151,291.154a6.31,6.31,0,0,1-2.3,1.214,9.6,9.6,0,0,1-2.825.419,7.5,7.5,0,0,1-5.472-1.9,7.246,7.246,0,0,1-1.942-5.429V272.617h-3.972v-3.486h3.972v-5.12h4.237v5.12h6.708v3.486h-6.708v12.667a4.1,4.1,0,0,0,.949,2.913,3.531,3.531,0,0,0,2.714,1.015,5.1,5.1,0,0,0,3.31-1.1Z" style="fill:#fff"/><path d="M278.336,263.834a2.6,2.6,0,0,1-.816-1.941,2.68,2.68,0,0,1,.816-1.964,2.784,2.784,0,0,1,2.053-.817,2.871,2.871,0,0,1,2.052.773,2.533,2.533,0,0,1,.816,1.92,2.73,2.73,0,0,1-.816,2.008,2.786,2.786,0,0,1-2.052.816A2.822,2.822,0,0,1,278.336,263.834Zm-.066,5.3h4.237v23.391H278.27Z" style="fill:#fff"/><path d="M311.283,269.131l-10.239,23.391h-4.325l-10.24-23.391h4.414l8.032,18.758,8.209-18.758Z" style="fill:#fff"/><path d="M335.646,282.239H316.667a7.343,7.343,0,0,0,2.715,4.965,8.852,8.852,0,0,0,5.759,1.876,8.673,8.673,0,0,0,6.753-2.825l2.339,2.736a10.219,10.219,0,0,1-3.95,2.825,14.9,14.9,0,0,1-11.85-.551A10.862,10.862,0,0,1,314,287.006a12.207,12.207,0,0,1-1.567-6.18,12.412,12.412,0,0,1,1.523-6.135,10.906,10.906,0,0,1,4.193-4.258,11.943,11.943,0,0,1,6.024-1.523,11.708,11.708,0,0,1,5.981,1.523,10.7,10.7,0,0,1,4.1,4.258,12.979,12.979,0,0,1,1.479,6.268A12.367,12.367,0,0,1,335.646,282.239Zm-16.573-7.9a7.471,7.471,0,0,0-2.406,4.854h15.006a7.526,7.526,0,0,0-2.405-4.833,7.9,7.9,0,0,0-10.195-.021Z" style="fill:#fff"/><path d="M388.873,269.131l-8.739,23.391h-4.06l-6.753-17.742-6.841,17.742h-4.061l-8.694-23.391h4.016l6.8,18.625,7.062-18.625h3.575l6.929,18.713,6.973-18.713Z" style="fill:#fff"/><path d="M393.219,263.834a2.6,2.6,0,0,1-.816-1.941,2.676,2.676,0,0,1,.816-1.964,2.783,2.783,0,0,1,2.052-.817,2.871,2.871,0,0,1,2.053.773,2.533,2.533,0,0,1,.816,1.92,2.73,2.73,0,0,1-.816,2.008,2.786,2.786,0,0,1-2.053.816A2.822,2.822,0,0,1,393.219,263.834Zm-.066,5.3h4.237v23.391h-4.237Z" style="fill:#fff"/><path d="M405.466,259.774H409.7v32.748h-4.238Z" style="fill:#fff"/><path d="M417.78,259.774h4.237v32.748H417.78Z" style="fill:#fff"/><path d="M461.54,271.492q2.625,2.582,2.626,7.57v13.46h-4.237V279.547a7.179,7.179,0,0,0-1.634-5.12,6.138,6.138,0,0,0-4.678-1.721,7.291,7.291,0,0,0-5.429,2.008,7.852,7.852,0,0,0-1.985,5.76v12.048h-4.238V259.774H446.2V272.44a8.748,8.748,0,0,1,3.464-2.6,11.93,11.93,0,0,1,4.789-.927A9.668,9.668,0,0,1,461.54,271.492Z" style="fill:#fff"/><path d="M493.207,282.239H474.229a7.338,7.338,0,0,0,2.714,4.965,8.852,8.852,0,0,0,5.759,1.876,8.673,8.673,0,0,0,6.753-2.825l2.339,2.736a10.219,10.219,0,0,1-3.95,2.825,14.9,14.9,0,0,1-11.85-.551,10.862,10.862,0,0,1-4.436-4.259,12.207,12.207,0,0,1-1.567-6.18,12.412,12.412,0,0,1,1.523-6.135,10.906,10.906,0,0,1,4.193-4.258,11.943,11.943,0,0,1,6.024-1.523,11.708,11.708,0,0,1,5.981,1.523,10.7,10.7,0,0,1,4.1,4.258,12.979,12.979,0,0,1,1.479,6.268A12.367,12.367,0,0,1,493.207,282.239Zm-16.573-7.9a7.465,7.465,0,0,0-2.405,4.854h15a7.526,7.526,0,0,0-2.4-4.833,7.9,7.9,0,0,0-10.195-.021Z" style="fill:#fff"/><path d="M499.165,259.774H503.4v32.748h-4.237Z" style="fill:#fff"/><path d="M529.971,270.41a10.811,10.811,0,0,1,4.215,4.194,13.526,13.526,0,0,1,0,12.467,10.754,10.754,0,0,1-4.215,4.216,12.3,12.3,0,0,1-6.091,1.5,10.831,10.831,0,0,1-4.612-.971,9.566,9.566,0,0,1-3.553-2.825v12.094h-4.237V269.131h4.061v3.707a9,9,0,0,1,3.575-2.935,11.281,11.281,0,0,1,4.766-.993A12.31,12.31,0,0,1,529.971,270.41Zm-2.406,17.633a7.463,7.463,0,0,0,2.825-2.913,9.448,9.448,0,0,0,0-8.607,7.316,7.316,0,0,0-2.825-2.89,8.026,8.026,0,0,0-4.038-1.016,7.827,7.827,0,0,0-3.994,1.037,7.522,7.522,0,0,0-2.825,2.892,8.621,8.621,0,0,0-1.037,4.28,8.9,8.9,0,0,0,1.015,4.3,7.269,7.269,0,0,0,2.825,2.913,8.338,8.338,0,0,0,8.054,0Z" style="fill:#fff"/><path d="M553.517,263.834a2.6,2.6,0,0,1-.817-1.941,2.677,2.677,0,0,1,.817-1.964,2.783,2.783,0,0,1,2.052-.817,2.871,2.871,0,0,1,2.052.773,2.531,2.531,0,0,1,.817,1.92,2.727,2.727,0,0,1-.817,2.008,2.786,2.786,0,0,1-2.052.816A2.822,2.822,0,0,1,553.517,263.834Zm-.067,5.3h4.238v23.391H553.45Z" style="fill:#fff"/><path d="M602.021,271.47q2.582,2.56,2.582,7.592v13.46h-4.237V279.547a7.38,7.38,0,0,0-1.567-5.12,5.749,5.749,0,0,0-4.48-1.721,6.7,6.7,0,0,0-5.119,2.008,8.071,8.071,0,0,0-1.9,5.76v12.048h-4.237V279.547a7.38,7.38,0,0,0-1.567-5.12,5.747,5.747,0,0,0-4.479-1.721,6.707,6.707,0,0,0-5.12,2.008,8.067,8.067,0,0,0-1.9,5.76v12.048h-4.237V269.131h4.06v3.486a8.208,8.208,0,0,1,3.355-2.758,11.242,11.242,0,0,1,4.722-.949,10.353,10.353,0,0,1,4.855,1.1,7.672,7.672,0,0,1,3.266,3.221,8.962,8.962,0,0,1,3.686-3.177,12,12,0,0,1,5.318-1.148A9.5,9.5,0,0,1,602.021,271.47Z" style="fill:#fff"/><path d="M630.908,270.41a10.817,10.817,0,0,1,4.215,4.194,13.526,13.526,0,0,1,0,12.467,10.761,10.761,0,0,1-4.215,4.216,12.305,12.305,0,0,1-6.091,1.5,10.828,10.828,0,0,1-4.612-.971,9.566,9.566,0,0,1-3.553-2.825v12.094h-4.237V269.131h4.06v3.707a9,9,0,0,1,3.575-2.935,11.289,11.289,0,0,1,4.767-.993A12.316,12.316,0,0,1,630.908,270.41ZM628.5,288.043a7.47,7.47,0,0,0,2.825-2.913,9.448,9.448,0,0,0,0-8.607,7.323,7.323,0,0,0-2.825-2.89,8.029,8.029,0,0,0-4.038-1.016,7.828,7.828,0,0,0-4,1.037,7.527,7.527,0,0,0-2.824,2.892,8.611,8.611,0,0,0-1.038,4.28,8.884,8.884,0,0,0,1.016,4.3,7.267,7.267,0,0,0,2.824,2.913,8.339,8.339,0,0,0,8.055,0Z" style="fill:#fff"/><path d="M649.841,269.97a11.844,11.844,0,0,1,5.252-1.06v4.1a8.151,8.151,0,0,0-.97-.044,7.129,7.129,0,0,0-5.407,2.051,8.126,8.126,0,0,0-1.964,5.849v11.651h-4.237V269.131h4.06v3.928A7.231,7.231,0,0,1,649.841,269.97Z" style="fill:#fff"/><path d="M663.832,291.242a11.189,11.189,0,0,1-4.348-4.259,12.877,12.877,0,0,1,0-12.313,11.04,11.04,0,0,1,4.348-4.237,13.61,13.61,0,0,1,12.512,0,11.08,11.08,0,0,1,4.325,4.237,12.877,12.877,0,0,1,0,12.313,11.231,11.231,0,0,1-4.325,4.259,13.438,13.438,0,0,1-12.512,0Zm10.3-3.2a7.315,7.315,0,0,0,2.8-2.913,9.631,9.631,0,0,0,0-8.607,7.173,7.173,0,0,0-2.8-2.89,8.532,8.532,0,0,0-8.076,0,7.316,7.316,0,0,0-2.825,2.89,9.448,9.448,0,0,0,0,8.607,7.463,7.463,0,0,0,2.825,2.913,8.38,8.38,0,0,0,8.076,0Z" style="fill:#fff"/><path d="M708.144,269.131,697.9,292.522h-4.325l-10.24-23.391h4.414l8.033,18.758L704,269.131Z" style="fill:#fff"/><path d="M732.506,282.239H713.528a7.338,7.338,0,0,0,2.714,4.965A8.856,8.856,0,0,0,722,289.08a8.673,8.673,0,0,0,6.753-2.825l2.34,2.736a10.234,10.234,0,0,1-3.95,2.825,14.9,14.9,0,0,1-11.851-.551,10.862,10.862,0,0,1-4.436-4.259,12.216,12.216,0,0,1-1.566-6.18,12.411,12.411,0,0,1,1.522-6.135,10.92,10.92,0,0,1,4.193-4.258,11.945,11.945,0,0,1,6.025-1.523,11.7,11.7,0,0,1,5.98,1.523,10.712,10.712,0,0,1,4.105,4.258,12.99,12.99,0,0,1,1.478,6.268A12.367,12.367,0,0,1,732.506,282.239Zm-16.573-7.9a7.47,7.47,0,0,0-2.4,4.854h15.006a7.527,7.527,0,0,0-2.406-4.833,7.9,7.9,0,0,0-10.2-.021Z" style="fill:#fff"/><path d="M763.489,291.154a6.318,6.318,0,0,1-2.3,1.214,9.6,9.6,0,0,1-2.825.419,7.5,7.5,0,0,1-5.473-1.9,7.25,7.25,0,0,1-1.941-5.429V272.617h-3.973v-3.486h3.973v-5.12h4.236v5.12H761.9v3.486h-6.709v12.667a4.1,4.1,0,0,0,.95,2.913,3.531,3.531,0,0,0,2.714,1.015,5.106,5.106,0,0,0,3.31-1.1Z" style="fill:#fff"/><path d="M788.182,271.492q2.626,2.582,2.626,7.57v13.46h-4.237V279.547a7.183,7.183,0,0,0-1.633-5.12,6.14,6.14,0,0,0-4.678-1.721,7.29,7.29,0,0,0-5.429,2.008,7.848,7.848,0,0,0-1.986,5.76v12.048h-4.237V259.774h4.237V272.44a8.751,8.751,0,0,1,3.465-2.6,11.927,11.927,0,0,1,4.789-.927A9.666,9.666,0,0,1,788.182,271.492Z" style="fill:#fff"/><path d="M819.849,282.239H800.871a7.338,7.338,0,0,0,2.714,4.965,8.852,8.852,0,0,0,5.759,1.876,8.673,8.673,0,0,0,6.753-2.825l2.34,2.736a10.23,10.23,0,0,1-3.951,2.825,14.9,14.9,0,0,1-11.85-.551,10.862,10.862,0,0,1-4.436-4.259,12.207,12.207,0,0,1-1.567-6.18,12.412,12.412,0,0,1,1.523-6.135,10.906,10.906,0,0,1,4.193-4.258,11.945,11.945,0,0,1,6.025-1.523,11.706,11.706,0,0,1,5.98,1.523,10.7,10.7,0,0,1,4.1,4.258,12.99,12.99,0,0,1,1.479,6.268A12.367,12.367,0,0,1,819.849,282.239Zm-16.573-7.9a7.465,7.465,0,0,0-2.4,4.854h15a7.526,7.526,0,0,0-2.4-4.833,7.9,7.9,0,0,0-10.2-.021Z" style="fill:#fff"/><path d="M853.634,271.293q2.582,2.384,2.582,7.106v14.123H852.2v-3.089a6.714,6.714,0,0,1-3.023,2.494,11.559,11.559,0,0,1-4.656.86,9.75,9.75,0,0,1-6.291-1.9,6.524,6.524,0,0,1-.11-9.953q2.251-1.875,7.151-1.875h6.708v-.839a5.409,5.409,0,0,0-1.588-4.194,6.711,6.711,0,0,0-4.679-1.456,12.391,12.391,0,0,0-4.061.685,10.456,10.456,0,0,0-3.354,1.831l-1.766-3.178a12.8,12.8,0,0,1,4.325-2.228,18.1,18.1,0,0,1,5.341-.773Q851.053,268.91,853.634,271.293Zm-4.215,17.146a6.181,6.181,0,0,0,2.56-3.067v-3.266h-6.532q-5.386,0-5.384,3.62a3.274,3.274,0,0,0,1.368,2.78,6.245,6.245,0,0,0,3.8,1.015A7.861,7.861,0,0,0,849.419,288.439Z" style="fill:#fff"/><path d="M868.021,291.242a11.3,11.3,0,0,1-4.391-4.259,12.721,12.721,0,0,1,0-12.313,11.152,11.152,0,0,1,4.391-4.237,13.147,13.147,0,0,1,6.377-1.523,12.245,12.245,0,0,1,5.672,1.28,9.124,9.124,0,0,1,3.862,3.707l-3.222,2.075a7.2,7.2,0,0,0-2.736-2.516,7.808,7.808,0,0,0-3.62-.839,8.354,8.354,0,0,0-4.125,1.016,7.231,7.231,0,0,0-2.87,2.89,9.539,9.539,0,0,0,0,8.651,7.212,7.212,0,0,0,2.87,2.89,8.343,8.343,0,0,0,4.125,1.016,7.8,7.8,0,0,0,3.62-.839,7.181,7.181,0,0,0,2.736-2.515l3.222,2.03a9.252,9.252,0,0,1-3.862,3.729,12.059,12.059,0,0,1-5.672,1.3A12.992,12.992,0,0,1,868.021,291.242Z" style="fill:#fff"/><path d="M892.87,291.242a11.3,11.3,0,0,1-4.391-4.259,12.721,12.721,0,0,1,0-12.313,11.152,11.152,0,0,1,4.391-4.237,13.141,13.141,0,0,1,6.377-1.523,12.248,12.248,0,0,1,5.672,1.28,9.121,9.121,0,0,1,3.861,3.707l-3.221,2.075a7.209,7.209,0,0,0-2.737-2.516,7.807,7.807,0,0,0-3.619-.839,8.36,8.36,0,0,0-4.126,1.016,7.222,7.222,0,0,0-2.869,2.89,9.539,9.539,0,0,0,0,8.651,7.2,7.2,0,0,0,2.869,2.89,8.35,8.35,0,0,0,4.126,1.016,7.794,7.794,0,0,0,3.619-.839,7.19,7.19,0,0,0,2.737-2.515l3.221,2.03a9.249,9.249,0,0,1-3.861,3.729,12.062,12.062,0,0,1-5.672,1.3A12.987,12.987,0,0,1,892.87,291.242Z" style="fill:#fff"/><path d="M934.953,282.239H915.975a7.342,7.342,0,0,0,2.714,4.965,8.852,8.852,0,0,0,5.759,1.876,8.673,8.673,0,0,0,6.753-2.825l2.34,2.736a10.234,10.234,0,0,1-3.95,2.825,14.9,14.9,0,0,1-11.851-.551,10.859,10.859,0,0,1-4.435-4.259,12.207,12.207,0,0,1-1.568-6.18,12.4,12.4,0,0,1,1.524-6.135,10.9,10.9,0,0,1,4.192-4.258,11.945,11.945,0,0,1,6.025-1.523,11.7,11.7,0,0,1,5.98,1.523,10.712,10.712,0,0,1,4.105,4.258,12.99,12.99,0,0,1,1.478,6.268A12.091,12.091,0,0,1,934.953,282.239Zm-16.573-7.9a7.47,7.47,0,0,0-2.4,4.854h15a7.526,7.526,0,0,0-2.4-4.833,7.9,7.9,0,0,0-10.2-.021Z" style="fill:#fff"/><path d="M942.1,292.015a12.1,12.1,0,0,1-4.15-1.964l1.766-3.355a12.624,12.624,0,0,0,3.752,1.766,15.442,15.442,0,0,0,4.457.662q5.562,0,5.561-3.178a2.056,2.056,0,0,0-.75-1.676,4.756,4.756,0,0,0-1.876-.906q-1.125-.285-3.2-.639a31.261,31.261,0,0,1-4.612-1.016,7.107,7.107,0,0,1-3.068-1.941,5.407,5.407,0,0,1-1.279-3.84,6,6,0,0,1,2.648-5.1,11.857,11.857,0,0,1,7.106-1.92,19.654,19.654,0,0,1,4.678.573,12.629,12.629,0,0,1,3.84,1.545l-1.81,3.355a12.164,12.164,0,0,0-6.752-1.854,7.8,7.8,0,0,0-4.105.883,2.664,2.664,0,0,0-1.413,2.339,2.23,2.23,0,0,0,.795,1.81,5.015,5.015,0,0,0,1.964.97q1.17.309,3.288.706a36.116,36.116,0,0,1,4.569,1.037,6.853,6.853,0,0,1,2.978,1.876,5.233,5.233,0,0,1,1.237,3.708,5.846,5.846,0,0,1-2.715,5.053,12.819,12.819,0,0,1-7.393,1.876A19.625,19.625,0,0,1,942.1,292.015Z" style="fill:#fff"/><path d="M964.215,292.015a12.1,12.1,0,0,1-4.15-1.964l1.766-3.355a12.624,12.624,0,0,0,3.752,1.766,15.447,15.447,0,0,0,4.457.662q5.562,0,5.562-3.178a2.056,2.056,0,0,0-.75-1.676,4.756,4.756,0,0,0-1.876-.906q-1.125-.285-3.2-.639a31.29,31.29,0,0,1-4.612-1.016,7.1,7.1,0,0,1-3.067-1.941,5.4,5.4,0,0,1-1.28-3.84,6,6,0,0,1,2.648-5.1,11.859,11.859,0,0,1,7.106-1.92,19.654,19.654,0,0,1,4.678.573,12.619,12.619,0,0,1,3.84,1.545l-1.81,3.355a12.164,12.164,0,0,0-6.752-1.854,7.8,7.8,0,0,0-4.1.883,2.663,2.663,0,0,0-1.412,2.339,2.227,2.227,0,0,0,.795,1.81,5,5,0,0,0,1.964.97q1.168.309,3.288.706a36.136,36.136,0,0,1,4.568,1.037,6.862,6.862,0,0,1,2.979,1.876,5.233,5.233,0,0,1,1.236,3.708,5.844,5.844,0,0,1-2.715,5.053,12.817,12.817,0,0,1-7.393,1.876A19.625,19.625,0,0,1,964.215,292.015Z" style="fill:#fff"/><path d="M985.2,263.834a2.6,2.6,0,0,1-.816-1.941,2.676,2.676,0,0,1,.816-1.964,2.786,2.786,0,0,1,2.053-.817,2.871,2.871,0,0,1,2.052.773,2.53,2.53,0,0,1,.816,1.92,2.726,2.726,0,0,1-.816,2.008,2.786,2.786,0,0,1-2.052.816A2.824,2.824,0,0,1,985.2,263.834Zm-.066,5.3h4.237v23.391h-4.237Z" style="fill:#fff"/><path d="M1015.94,270.41a10.8,10.8,0,0,1,4.215,4.194,13.518,13.518,0,0,1,0,12.467,10.748,10.748,0,0,1-4.215,4.216,12.3,12.3,0,0,1-6.09,1.5,11.07,11.07,0,0,1-4.767-1.015,9.167,9.167,0,0,1-3.575-2.957v3.707h-4.061V259.774h4.238v12.887a9,9,0,0,1,3.531-2.8,11.215,11.215,0,0,1,4.634-.949A12.307,12.307,0,0,1,1015.94,270.41Zm-2.405,17.633a7.46,7.46,0,0,0,2.824-2.913,9.448,9.448,0,0,0,0-8.607,7.314,7.314,0,0,0-2.824-2.89,8.491,8.491,0,0,0-8.055,0,7.13,7.13,0,0,0-2.825,2.89,9.639,9.639,0,0,0,0,8.607,7.269,7.269,0,0,0,2.825,2.913,8.339,8.339,0,0,0,8.055,0Z" style="fill:#fff"/><path d="M1027.614,263.834a2.6,2.6,0,0,1-.816-1.941,2.676,2.676,0,0,1,.816-1.964,2.783,2.783,0,0,1,2.052-.817,2.873,2.873,0,0,1,2.053.773,2.533,2.533,0,0,1,.816,1.92,2.73,2.73,0,0,1-.816,2.008,2.788,2.788,0,0,1-2.053.816A2.822,2.822,0,0,1,1027.614,263.834Zm-.066,5.3h4.237v23.391h-4.237Z" style="fill:#fff"/><path d="M1039.86,259.774h4.238v32.748h-4.238Z" style="fill:#fff"/><path d="M1052.24,263.834a2.6,2.6,0,0,1-.816-1.941,2.676,2.676,0,0,1,.816-1.964,2.786,2.786,0,0,1,2.053-.817,2.871,2.871,0,0,1,2.052.773,2.53,2.53,0,0,1,.816,1.92,2.726,2.726,0,0,1-.816,2.008,2.786,2.786,0,0,1-2.052.816A2.824,2.824,0,0,1,1052.24,263.834Zm-.066,5.3h4.237v23.391h-4.237Z" style="fill:#fff"/><path d="M1077.64,291.154a6.31,6.31,0,0,1-2.3,1.214,9.6,9.6,0,0,1-2.824.419,7.5,7.5,0,0,1-5.473-1.9,7.247,7.247,0,0,1-1.943-5.429V272.617h-3.971v-3.486h3.971v-5.12h4.238v5.12h6.708v3.486h-6.708v12.667a4.1,4.1,0,0,0,.949,2.913,3.531,3.531,0,0,0,2.714,1.015,5.1,5.1,0,0,0,3.31-1.1Z" style="fill:#fff"/><path d="M1103.018,269.131l-11.343,25.73a11.607,11.607,0,0,1-3.509,5.033,8.016,8.016,0,0,1-4.833,1.456A10.237,10.237,0,0,1,1080,300.8a6.83,6.83,0,0,1-2.67-1.611l1.81-3.178a5.9,5.9,0,0,0,4.192,1.721,4.046,4.046,0,0,0,2.582-.816,6.978,6.978,0,0,0,1.876-2.8l.75-1.632-10.327-23.348h4.413l8.165,18.713,8.077-18.713Z" style="fill:#fff"/></g><g style="isolation:isolate"><path d="M69.315,324.255q2.582,2.384,2.582,7.106v14.123H67.881V342.4a6.718,6.718,0,0,1-3.024,2.494,11.548,11.548,0,0,1-4.656.86,9.742,9.742,0,0,1-6.289-1.9A6.524,6.524,0,0,1,53.8,333.9q2.251-1.875,7.15-1.875H67.66v-.838a5.406,5.406,0,0,0-1.589-4.194,6.706,6.706,0,0,0-4.678-1.456,12.387,12.387,0,0,0-4.061.685,10.456,10.456,0,0,0-3.354,1.831l-1.766-3.178a12.794,12.794,0,0,1,4.326-2.228,18.093,18.093,0,0,1,5.34-.773Q66.733,321.872,69.315,324.255ZM65.1,341.4a6.186,6.186,0,0,0,2.56-3.067v-3.266H61.128q-5.385,0-5.385,3.62a3.273,3.273,0,0,0,1.369,2.78,6.243,6.243,0,0,0,3.795,1.015A7.862,7.862,0,0,0,65.1,341.4Z" style="fill:#fff"/><path d="M99.327,324.454q2.625,2.582,2.626,7.569v13.461H97.716V332.509a7.183,7.183,0,0,0-1.633-5.12,6.141,6.141,0,0,0-4.679-1.721,7.287,7.287,0,0,0-5.428,2.008,7.848,7.848,0,0,0-1.986,5.76v12.048H79.752V322.093h4.061v3.53a8.231,8.231,0,0,1,3.465-2.78,12.108,12.108,0,0,1,4.965-.971A9.664,9.664,0,0,1,99.327,324.454Z" style="fill:#fff"/><path d="M132.008,312.736v32.748h-4.06v-3.707a9.174,9.174,0,0,1-3.575,2.957,11.076,11.076,0,0,1-4.767,1.015,12.293,12.293,0,0,1-6.09-1.5,10.748,10.748,0,0,1-4.215-4.216,13.52,13.52,0,0,1,0-12.468,10.8,10.8,0,0,1,4.215-4.193,12.3,12.3,0,0,1,6.09-1.5,11.207,11.207,0,0,1,4.635.949,9.009,9.009,0,0,1,3.53,2.8V312.736Zm-8.032,28.269a7.28,7.28,0,0,0,2.824-2.913,9.631,9.631,0,0,0,0-8.607,7.127,7.127,0,0,0-2.824-2.89,8.491,8.491,0,0,0-8.055,0,7.31,7.31,0,0,0-2.825,2.89,9.448,9.448,0,0,0,0,8.607,7.47,7.47,0,0,0,2.825,2.913,8.339,8.339,0,0,0,8.055,0Z" style="fill:#fff"/><path d="M188.17,324.432q2.583,2.56,2.582,7.591v13.461h-4.236V332.509a7.38,7.38,0,0,0-1.567-5.12,5.749,5.749,0,0,0-4.48-1.721,6.708,6.708,0,0,0-5.12,2.008,8.071,8.071,0,0,0-1.9,5.76v12.048h-4.237V332.509a7.38,7.38,0,0,0-1.567-5.12,5.746,5.746,0,0,0-4.479-1.721,6.708,6.708,0,0,0-5.12,2.008,8.071,8.071,0,0,0-1.9,5.76v12.048h-4.237V322.093h4.061v3.486a8.212,8.212,0,0,1,3.354-2.758,11.226,11.226,0,0,1,4.722-.949,10.35,10.35,0,0,1,4.855,1.1,7.661,7.661,0,0,1,3.266,3.221,8.962,8.962,0,0,1,3.686-3.177,12.01,12.01,0,0,1,5.318-1.148A9.5,9.5,0,0,1,188.17,324.432Z" style="fill:#fff"/><path d="M202.448,344.2a11.189,11.189,0,0,1-4.348-4.259,12.877,12.877,0,0,1,0-12.313,11.04,11.04,0,0,1,4.348-4.237,13.61,13.61,0,0,1,12.512,0,11.093,11.093,0,0,1,4.325,4.237,12.877,12.877,0,0,1,0,12.313,11.244,11.244,0,0,1-4.325,4.259,13.438,13.438,0,0,1-12.512,0Zm10.3-3.2a7.328,7.328,0,0,0,2.8-2.913,9.631,9.631,0,0,0,0-8.607,7.173,7.173,0,0,0-2.8-2.89,8.534,8.534,0,0,0-8.077,0,7.307,7.307,0,0,0-2.824,2.89,9.44,9.44,0,0,0,0,8.607,7.467,7.467,0,0,0,2.824,2.913,8.382,8.382,0,0,0,8.077,0Z" style="fill:#fff"/><path d="M245.214,323.372a10.808,10.808,0,0,1,4.215,4.193,13.52,13.52,0,0,1,0,12.468,10.754,10.754,0,0,1-4.215,4.216,12.3,12.3,0,0,1-6.09,1.5,11.07,11.07,0,0,1-4.767-1.015,9.16,9.16,0,0,1-3.575-2.957v3.707h-4.061V312.736h4.237v12.887a9.012,9.012,0,0,1,3.531-2.8,11.2,11.2,0,0,1,4.635-.949A12.309,12.309,0,0,1,245.214,323.372Zm-2.405,17.633a7.474,7.474,0,0,0,2.824-2.913,9.448,9.448,0,0,0,0-8.607,7.314,7.314,0,0,0-2.824-2.89,8.491,8.491,0,0,0-8.055,0,7.124,7.124,0,0,0-2.825,2.89,9.631,9.631,0,0,0,0,8.607,7.276,7.276,0,0,0,2.825,2.913,8.339,8.339,0,0,0,8.055,0Z" style="fill:#fff"/><path d="M256.888,316.8a2.6,2.6,0,0,1-.817-1.942,2.676,2.676,0,0,1,.817-1.963,2.783,2.783,0,0,1,2.052-.817,2.871,2.871,0,0,1,2.052.773,2.531,2.531,0,0,1,.817,1.92,2.725,2.725,0,0,1-.817,2.007,2.783,2.783,0,0,1-2.052.817A2.822,2.822,0,0,1,256.888,316.8Zm-.067,5.3h4.238v23.391h-4.238Z" style="fill:#fff"/><path d="M269.135,312.736h4.237v32.748h-4.237Z" style="fill:#fff"/><path d="M281.515,316.8a2.6,2.6,0,0,1-.817-1.942,2.676,2.676,0,0,1,.817-1.963,2.783,2.783,0,0,1,2.052-.817,2.871,2.871,0,0,1,2.052.773,2.531,2.531,0,0,1,.817,1.92,2.725,2.725,0,0,1-.817,2.007,2.783,2.783,0,0,1-2.052.817A2.822,2.822,0,0,1,281.515,316.8Zm-.067,5.3h4.238v23.391h-4.238Z" style="fill:#fff"/><path d="M306.914,344.116a6.31,6.31,0,0,1-2.295,1.214,9.6,9.6,0,0,1-2.825.419,7.5,7.5,0,0,1-5.472-1.9,7.246,7.246,0,0,1-1.942-5.429V325.579h-3.972v-3.486h3.972v-5.12h4.237v5.12h6.708v3.486h-6.708v12.667a4.107,4.107,0,0,0,.949,2.913,3.531,3.531,0,0,0,2.714,1.015,5.1,5.1,0,0,0,3.31-1.1Z" style="fill:#fff"/><path d="M332.292,322.093l-11.343,25.73a11.613,11.613,0,0,1-3.509,5.032,8.01,8.01,0,0,1-4.833,1.457,10.232,10.232,0,0,1-3.332-.552,6.843,6.843,0,0,1-2.671-1.612l1.81-3.177a5.9,5.9,0,0,0,4.193,1.721,4.046,4.046,0,0,0,2.582-.816,6.985,6.985,0,0,0,1.876-2.8l.75-1.633-10.328-23.347H311.9l8.165,18.713,8.077-18.713Z" style="fill:#fff"/><path d="M351.887,344.2a11.18,11.18,0,0,1-4.347-4.259,12.877,12.877,0,0,1,0-12.313,11.031,11.031,0,0,1,4.347-4.237,13.61,13.61,0,0,1,12.512,0,11.089,11.089,0,0,1,4.326,4.237,12.877,12.877,0,0,1,0,12.313A11.24,11.24,0,0,1,364.4,344.2a13.438,13.438,0,0,1-12.512,0Zm10.305-3.2a7.322,7.322,0,0,0,2.8-2.913,9.631,9.631,0,0,0,0-8.607,7.167,7.167,0,0,0-2.8-2.89,8.532,8.532,0,0,0-8.076,0,7.31,7.31,0,0,0-2.825,2.89,9.448,9.448,0,0,0,0,8.607,7.47,7.47,0,0,0,2.825,2.913,8.38,8.38,0,0,0,8.076,0Z" style="fill:#fff"/><path d="M380.928,320.063v2.03h6.8v3.486h-6.709v19.9h-4.237v-19.9h-3.972v-3.486h3.972v-2.074a7.456,7.456,0,0,1,2.031-5.518,7.7,7.7,0,0,1,5.693-2.03,9.618,9.618,0,0,1,2.648.353,6.449,6.449,0,0,1,2.119,1.015l-1.28,3.223a5.273,5.273,0,0,0-3.266-1.1Q380.928,315.958,380.928,320.063Z" style="fill:#fff"/><path d="M422.106,323.372a10.808,10.808,0,0,1,4.215,4.193,13.52,13.52,0,0,1,0,12.468,10.754,10.754,0,0,1-4.215,4.216,12.3,12.3,0,0,1-6.09,1.5,10.832,10.832,0,0,1-4.613-.971,9.565,9.565,0,0,1-3.552-2.825v12.094h-4.238V322.093h4.061V325.8a9,9,0,0,1,3.575-2.935,11.283,11.283,0,0,1,4.767-.993A12.309,12.309,0,0,1,422.106,323.372Zm-2.4,17.633a7.467,7.467,0,0,0,2.824-2.913,9.44,9.44,0,0,0,0-8.607,7.307,7.307,0,0,0-2.824-2.89,8.031,8.031,0,0,0-4.038-1.016,7.828,7.828,0,0,0-4,1.037,7.52,7.52,0,0,0-2.824,2.892,8.611,8.611,0,0,0-1.038,4.28,8.9,8.9,0,0,0,1.015,4.3,7.276,7.276,0,0,0,2.825,2.913,8.339,8.339,0,0,0,8.055,0Z" style="fill:#fff"/><path d="M454.766,335.2H435.788a7.346,7.346,0,0,0,2.714,4.965,8.857,8.857,0,0,0,5.76,1.876,8.676,8.676,0,0,0,6.753-2.825l2.339,2.736a10.237,10.237,0,0,1-3.95,2.825,14.9,14.9,0,0,1-11.851-.551,10.859,10.859,0,0,1-4.435-4.259,12.207,12.207,0,0,1-1.567-6.18,12.409,12.409,0,0,1,1.523-6.135,10.906,10.906,0,0,1,4.193-4.258,11.941,11.941,0,0,1,6.024-1.523,11.7,11.7,0,0,1,5.98,1.523,10.705,10.705,0,0,1,4.1,4.258,12.99,12.99,0,0,1,1.478,6.268A12.091,12.091,0,0,1,454.766,335.2Zm-16.573-7.9a7.47,7.47,0,0,0-2.4,4.854h15.006a7.531,7.531,0,0,0-2.4-4.833,7.9,7.9,0,0,0-10.2-.021Z" style="fill:#fff"/><path d="M464.476,344.2a11.189,11.189,0,0,1-4.348-4.259,12.885,12.885,0,0,1,0-12.313,11.04,11.04,0,0,1,4.348-4.237,13.61,13.61,0,0,1,12.512,0,11.08,11.08,0,0,1,4.325,4.237,12.877,12.877,0,0,1,0,12.313,11.231,11.231,0,0,1-4.325,4.259,13.438,13.438,0,0,1-12.512,0Zm10.305-3.2a7.322,7.322,0,0,0,2.8-2.913,9.631,9.631,0,0,0,0-8.607,7.167,7.167,0,0,0-2.8-2.89,8.532,8.532,0,0,0-8.076,0,7.31,7.31,0,0,0-2.825,2.89,9.448,9.448,0,0,0,0,8.607,7.47,7.47,0,0,0,2.825,2.913,8.38,8.38,0,0,0,8.076,0Z" style="fill:#fff"/><path d="M507.243,323.372a10.815,10.815,0,0,1,4.215,4.193,13.528,13.528,0,0,1,0,12.468,10.761,10.761,0,0,1-4.215,4.216,12.305,12.305,0,0,1-6.091,1.5,10.828,10.828,0,0,1-4.612-.971,9.576,9.576,0,0,1-3.553-2.825v12.094H488.75V322.093h4.06V325.8a9,9,0,0,1,3.575-2.935,11.289,11.289,0,0,1,4.767-.993A12.316,12.316,0,0,1,507.243,323.372Zm-2.406,17.633a7.476,7.476,0,0,0,2.825-2.913,9.448,9.448,0,0,0,0-8.607,7.316,7.316,0,0,0-2.825-2.89,8.029,8.029,0,0,0-4.038-1.016,7.828,7.828,0,0,0-4,1.037,7.52,7.52,0,0,0-2.824,2.892,8.611,8.611,0,0,0-1.038,4.28,8.884,8.884,0,0,0,1.016,4.3,7.273,7.273,0,0,0,2.824,2.913,8.339,8.339,0,0,0,8.055,0Z" style="fill:#fff"/><path d="M518.85,312.736h4.237v32.748H518.85Z" style="fill:#fff"/><path d="M552.216,335.2H533.238a7.338,7.338,0,0,0,2.714,4.965,8.856,8.856,0,0,0,5.759,1.876,8.673,8.673,0,0,0,6.753-2.825l2.34,2.736a10.245,10.245,0,0,1-3.95,2.825A14.9,14.9,0,0,1,535,344.227a10.862,10.862,0,0,1-4.436-4.259,12.207,12.207,0,0,1-1.567-6.18,12.409,12.409,0,0,1,1.523-6.135,10.92,10.92,0,0,1,4.193-4.258,11.945,11.945,0,0,1,6.025-1.523,11.7,11.7,0,0,1,5.98,1.523,10.712,10.712,0,0,1,4.105,4.258,12.99,12.99,0,0,1,1.478,6.268A12.367,12.367,0,0,1,552.216,335.2Zm-16.573-7.9a7.47,7.47,0,0,0-2.4,4.854h15.006a7.527,7.527,0,0,0-2.406-4.833,7.9,7.9,0,0,0-10.195-.021Z" style="fill:#fff"/><path d="M586,324.255q2.583,2.384,2.582,7.106v14.123h-4.016V342.4a6.71,6.71,0,0,1-3.023,2.494,11.555,11.555,0,0,1-4.656.86,9.747,9.747,0,0,1-6.29-1.9,6.525,6.525,0,0,1-.11-9.954q2.251-1.875,7.15-1.875h6.709v-.838a5.406,5.406,0,0,0-1.589-4.194,6.709,6.709,0,0,0-4.679-1.456,12.385,12.385,0,0,0-4.06.685,10.445,10.445,0,0,0-3.354,1.831l-1.766-3.178a12.789,12.789,0,0,1,4.325-2.228,18.1,18.1,0,0,1,5.341-.773Q583.419,321.872,586,324.255ZM581.787,341.4a6.186,6.186,0,0,0,2.56-3.067v-3.266h-6.533q-5.385,0-5.384,3.62a3.274,3.274,0,0,0,1.368,2.78,6.247,6.247,0,0,0,3.8,1.015A7.867,7.867,0,0,0,581.787,341.4Z" style="fill:#fff"/><path d="M616.013,324.454q2.626,2.582,2.626,7.569v13.461H614.4V332.509a7.183,7.183,0,0,0-1.633-5.12,6.14,6.14,0,0,0-4.678-1.721,7.29,7.29,0,0,0-5.429,2.008,7.848,7.848,0,0,0-1.986,5.76v12.048h-4.237V322.093H600.5v3.53a8.234,8.234,0,0,1,3.464-2.78,12.116,12.116,0,0,1,4.966-.971A9.662,9.662,0,0,1,616.013,324.454Z" style="fill:#fff"/><path d="M648.7,312.736v32.748h-4.061v-3.707a9.178,9.178,0,0,1-3.574,2.957,11.076,11.076,0,0,1-4.767,1.015,12.3,12.3,0,0,1-6.091-1.5,10.748,10.748,0,0,1-4.215-4.216,13.52,13.52,0,0,1,0-12.468,10.8,10.8,0,0,1,4.215-4.193,12.31,12.31,0,0,1,6.091-1.5,11.2,11.2,0,0,1,4.634.949,9.012,9.012,0,0,1,3.531,2.8V312.736Zm-8.033,28.269a7.282,7.282,0,0,0,2.825-2.913,9.631,9.631,0,0,0,0-8.607,7.13,7.13,0,0,0-2.825-2.89,8.491,8.491,0,0,0-8.055,0,7.314,7.314,0,0,0-2.824,2.89,9.448,9.448,0,0,0,0,8.607,7.474,7.474,0,0,0,2.824,2.913,8.339,8.339,0,0,0,8.055,0Z" style="fill:#fff"/><path d="M690.976,322.093v20.214q0,6.134-3.045,9.069t-9.092,2.936a21.726,21.726,0,0,1-6.312-.906,12.493,12.493,0,0,1-4.855-2.581l2.031-3.266a11.969,11.969,0,0,0,4.038,2.228,15.326,15.326,0,0,0,4.966.817q4.1,0,6.068-1.942t1.964-5.914V340.9a9.363,9.363,0,0,1-3.685,2.713,12.269,12.269,0,0,1-4.745.906,12.786,12.786,0,0,1-6.068-1.435,10.67,10.67,0,0,1-4.26-4.016,12.016,12.016,0,0,1,0-11.785,10.536,10.536,0,0,1,4.26-3.994,12.951,12.951,0,0,1,6.068-1.412,12.4,12.4,0,0,1,4.921.971,9.129,9.129,0,0,1,3.729,2.869v-3.619Zm-8.055,17.742a7.186,7.186,0,0,0,2.869-2.714,7.578,7.578,0,0,0,1.037-3.95,7.157,7.157,0,0,0-2.251-5.5,9.079,9.079,0,0,0-11.607,0,7.157,7.157,0,0,0-2.251,5.5,7.568,7.568,0,0,0,1.037,3.95,7.173,7.173,0,0,0,2.869,2.714,8.767,8.767,0,0,0,4.17.971A8.678,8.678,0,0,0,682.921,339.835Z" style="fill:#fff"/><path d="M702.8,344.2a11.18,11.18,0,0,1-4.347-4.259,12.877,12.877,0,0,1,0-12.313A11.031,11.031,0,0,1,702.8,323.4a13.61,13.61,0,0,1,12.512,0,11.089,11.089,0,0,1,4.326,4.237,12.885,12.885,0,0,1,0,12.313,11.24,11.24,0,0,1-4.326,4.259,13.438,13.438,0,0,1-12.512,0Zm10.305-3.2a7.322,7.322,0,0,0,2.8-2.913,9.631,9.631,0,0,0,0-8.607,7.167,7.167,0,0,0-2.8-2.89,8.532,8.532,0,0,0-8.076,0,7.31,7.31,0,0,0-2.825,2.89,9.448,9.448,0,0,0,0,8.607,7.47,7.47,0,0,0,2.825,2.913,8.38,8.38,0,0,0,8.076,0Z" style="fill:#fff"/><path d="M730.83,344.2a11.189,11.189,0,0,1-4.348-4.259,12.885,12.885,0,0,1,0-12.313,11.04,11.04,0,0,1,4.348-4.237,13.61,13.61,0,0,1,12.512,0,11.08,11.08,0,0,1,4.325,4.237,12.877,12.877,0,0,1,0,12.313,11.231,11.231,0,0,1-4.325,4.259,13.438,13.438,0,0,1-12.512,0Zm10.3-3.2a7.322,7.322,0,0,0,2.8-2.913,9.631,9.631,0,0,0,0-8.607,7.167,7.167,0,0,0-2.8-2.89,8.532,8.532,0,0,0-8.076,0,7.31,7.31,0,0,0-2.825,2.89,9.448,9.448,0,0,0,0,8.607,7.47,7.47,0,0,0,2.825,2.913,8.38,8.38,0,0,0,8.076,0Z" style="fill:#fff"/><path d="M777.172,312.736v32.748h-4.061v-3.707a9.171,9.171,0,0,1-3.574,2.957,11.076,11.076,0,0,1-4.767,1.015,12.3,12.3,0,0,1-6.091-1.5,10.748,10.748,0,0,1-4.215-4.216,13.52,13.52,0,0,1,0-12.468,10.8,10.8,0,0,1,4.215-4.193,12.31,12.31,0,0,1,6.091-1.5,11.2,11.2,0,0,1,4.634.949,9.012,9.012,0,0,1,3.531,2.8V312.736Zm-8.033,28.269a7.282,7.282,0,0,0,2.825-2.913,9.631,9.631,0,0,0,0-8.607,7.13,7.13,0,0,0-2.825-2.89,8.491,8.491,0,0,0-8.055,0,7.314,7.314,0,0,0-2.824,2.89,9.448,9.448,0,0,0,0,8.607,7.474,7.474,0,0,0,2.824,2.913,8.339,8.339,0,0,0,8.055,0Z" style="fill:#fff"/><path d="M786.4,344.977a12.1,12.1,0,0,1-4.149-1.964l1.765-3.355a12.649,12.649,0,0,0,3.752,1.766,15.447,15.447,0,0,0,4.457.662q5.562,0,5.561-3.178a2.06,2.06,0,0,0-.75-1.677,4.762,4.762,0,0,0-1.876-.9q-1.125-.285-3.2-.639a31.248,31.248,0,0,1-4.613-1.016,7.1,7.1,0,0,1-3.067-1.942A5.4,5.4,0,0,1,783,328.89a6,6,0,0,1,2.648-5.1,11.861,11.861,0,0,1,7.106-1.92,19.6,19.6,0,0,1,4.678.573,12.619,12.619,0,0,1,3.84,1.545l-1.81,3.355a12.164,12.164,0,0,0-6.752-1.854,7.8,7.8,0,0,0-4.105.883,2.663,2.663,0,0,0-1.412,2.339,2.229,2.229,0,0,0,.794,1.809,5,5,0,0,0,1.964.971q1.17.309,3.288.706a35.942,35.942,0,0,1,4.569,1.037,6.844,6.844,0,0,1,2.979,1.876,5.231,5.231,0,0,1,1.236,3.708,5.845,5.845,0,0,1-2.715,5.053,12.814,12.814,0,0,1-7.392,1.876A19.632,19.632,0,0,1,786.4,344.977Z" style="fill:#fff"/><path d="M837.681,323.372a10.815,10.815,0,0,1,4.215,4.193,13.528,13.528,0,0,1,0,12.468,10.761,10.761,0,0,1-4.215,4.216,12.308,12.308,0,0,1-6.091,1.5,11.076,11.076,0,0,1-4.767-1.015,9.16,9.16,0,0,1-3.575-2.957v3.707h-4.06V312.736h4.237v12.887a9,9,0,0,1,3.53-2.8,11.2,11.2,0,0,1,4.635-.949A12.319,12.319,0,0,1,837.681,323.372Zm-2.407,17.633a7.472,7.472,0,0,0,2.826-2.913,9.448,9.448,0,0,0,0-8.607,7.312,7.312,0,0,0-2.826-2.89,8.489,8.489,0,0,0-8.054,0,7.121,7.121,0,0,0-2.824,2.89,9.622,9.622,0,0,0,0,8.607,7.273,7.273,0,0,0,2.824,2.913,8.338,8.338,0,0,0,8.054,0Z" style="fill:#fff"/><path d="M869.325,322.093l-11.343,25.73a11.612,11.612,0,0,1-3.508,5.032,8.014,8.014,0,0,1-4.833,1.457,10.228,10.228,0,0,1-3.332-.552,6.836,6.836,0,0,1-2.671-1.612l1.809-3.177a5.9,5.9,0,0,0,4.194,1.721,4.05,4.05,0,0,0,2.582-.816,7,7,0,0,0,1.876-2.8l.75-1.633-10.328-23.347h4.414l8.165,18.713,8.076-18.713Z" style="fill:#fff"/><path d="M906.972,322.093v23.391h-4.017v-3.531a8.506,8.506,0,0,1-3.376,2.8,10.535,10.535,0,0,1-4.568.993,10.2,10.2,0,0,1-7.37-2.582q-2.692-2.581-2.693-7.613V322.093h4.238v12.975a7.26,7.26,0,0,0,1.632,5.142,6.1,6.1,0,0,0,4.679,1.743,6.982,6.982,0,0,0,5.3-2.03,7.97,7.97,0,0,0,1.941-5.737V322.093Z" style="fill:#fff"/><path d="M934.622,324.454q2.627,2.582,2.626,7.569v13.461h-4.236V332.509a7.179,7.179,0,0,0-1.634-5.12,6.14,6.14,0,0,0-4.678-1.721,7.291,7.291,0,0,0-5.429,2.008,7.848,7.848,0,0,0-1.986,5.76v12.048h-4.237V322.093h4.06v3.53a8.243,8.243,0,0,1,3.465-2.78,12.116,12.116,0,0,1,4.966-.971A9.662,9.662,0,0,1,934.622,324.454Z" style="fill:#fff"/><path d="M945.1,312.736h4.238v32.748H945.1Z" style="fill:#fff"/><path d="M961.169,344.2a11.189,11.189,0,0,1-4.348-4.259,12.885,12.885,0,0,1,0-12.313,11.04,11.04,0,0,1,4.348-4.237,13.612,13.612,0,0,1,12.513,0,11.093,11.093,0,0,1,4.325,4.237,12.885,12.885,0,0,1,0,12.313,11.244,11.244,0,0,1-4.325,4.259,13.44,13.44,0,0,1-12.513,0Zm10.306-3.2a7.326,7.326,0,0,0,2.8-2.913,9.631,9.631,0,0,0,0-8.607,7.171,7.171,0,0,0-2.8-2.89,8.536,8.536,0,0,0-8.078,0,7.314,7.314,0,0,0-2.824,2.89,9.448,9.448,0,0,0,0,8.607,7.474,7.474,0,0,0,2.824,2.913,8.384,8.384,0,0,0,8.078,0Z" style="fill:#fff"/><path d="M989.261,344.2a11.318,11.318,0,0,1-4.392-4.259,12.721,12.721,0,0,1,0-12.313,11.168,11.168,0,0,1,4.392-4.237,13.142,13.142,0,0,1,6.378-1.523,12.247,12.247,0,0,1,5.671,1.28,9.124,9.124,0,0,1,3.862,3.707l-3.222,2.075a7.206,7.206,0,0,0-2.736-2.516,7.807,7.807,0,0,0-3.619-.839,8.362,8.362,0,0,0-4.127,1.016,7.222,7.222,0,0,0-2.869,2.89,9.539,9.539,0,0,0,0,8.651,7.209,7.209,0,0,0,2.869,2.89,8.351,8.351,0,0,0,4.127,1.016,7.794,7.794,0,0,0,3.619-.839,7.2,7.2,0,0,0,2.736-2.515l3.222,2.03a9.252,9.252,0,0,1-3.862,3.729,12.072,12.072,0,0,1-5.671,1.3A12.988,12.988,0,0,1,989.261,344.2Z" style="fill:#fff"/><path d="M1019.429,334.583l-4.856,4.5v6.4h-4.237V312.736h4.237v21.008l12.755-11.651h5.12l-9.842,9.665,10.813,13.726h-5.208Z" style="fill:#fff"/><path d="M1037.281,316.8a2.6,2.6,0,0,1-.816-1.942,2.675,2.675,0,0,1,.816-1.963,2.786,2.786,0,0,1,2.053-.817,2.871,2.871,0,0,1,2.052.773,2.53,2.53,0,0,1,.816,1.92,2.724,2.724,0,0,1-.816,2.007,2.783,2.783,0,0,1-2.052.817A2.824,2.824,0,0,1,1037.281,316.8Zm-.066,5.3h4.237v23.391h-4.237Z" style="fill:#fff"/><path d="M1069.1,324.454q2.626,2.582,2.626,7.569v13.461h-4.237V332.509a7.179,7.179,0,0,0-1.634-5.12,6.136,6.136,0,0,0-4.677-1.721,7.29,7.29,0,0,0-5.429,2.008,7.848,7.848,0,0,0-1.986,5.76v12.048h-4.238V322.093h4.061v3.53a8.237,8.237,0,0,1,3.465-2.78,12.113,12.113,0,0,1,4.966-.971A9.664,9.664,0,0,1,1069.1,324.454Z" style="fill:#fff"/><path d="M1102.094,322.093v20.214q0,6.134-3.046,9.069t-9.092,2.936a21.719,21.719,0,0,1-6.311-.906,12.486,12.486,0,0,1-4.855-2.581l2.03-3.266a11.979,11.979,0,0,0,4.038,2.228,15.33,15.33,0,0,0,4.966.817q4.105,0,6.069-1.942t1.963-5.914V340.9a9.356,9.356,0,0,1-3.685,2.713,12.261,12.261,0,0,1-4.744.906,12.79,12.79,0,0,1-6.069-1.435,10.674,10.674,0,0,1-4.259-4.016,12.009,12.009,0,0,1,0-11.785,10.54,10.54,0,0,1,4.259-3.994,12.955,12.955,0,0,1,6.069-1.412,12.4,12.4,0,0,1,4.921.971,9.142,9.142,0,0,1,3.729,2.869v-3.619Zm-8.055,17.742a7.177,7.177,0,0,0,2.868-2.714,7.568,7.568,0,0,0,1.037-3.95,7.157,7.157,0,0,0-2.251-5.5,9.079,9.079,0,0,0-11.607,0,7.16,7.16,0,0,0-2.251,5.5,7.578,7.578,0,0,0,1.037,3.95,7.18,7.18,0,0,0,2.869,2.714,8.773,8.773,0,0,0,4.171.971A8.683,8.683,0,0,0,1094.039,339.835Z" style="fill:#fff"/></g><g style="isolation:isolate"><path d="M66.512,397.079a6.317,6.317,0,0,1-2.3,1.214,9.6,9.6,0,0,1-2.824.419,7.5,7.5,0,0,1-5.473-1.9,7.243,7.243,0,0,1-1.942-5.428V378.542H50.006v-3.486h3.972v-5.12h4.237v5.12h6.708v3.486H58.215v12.667a4.107,4.107,0,0,0,.949,2.913,3.531,3.531,0,0,0,2.714,1.015,5.1,5.1,0,0,0,3.31-1.1Z" style="fill:#fff"/><path d="M91.206,377.417q2.625,2.582,2.626,7.569v13.461H89.6V385.472a7.179,7.179,0,0,0-1.634-5.12,6.138,6.138,0,0,0-4.678-1.721,7.291,7.291,0,0,0-5.429,2.008,7.849,7.849,0,0,0-1.985,5.759v12.049H71.631V365.7h4.238v12.666a8.748,8.748,0,0,1,3.464-2.6,11.93,11.93,0,0,1,4.789-.927A9.664,9.664,0,0,1,91.206,377.417Z" style="fill:#fff"/><path d="M122.872,388.164H103.894a7.342,7.342,0,0,0,2.714,4.965,8.857,8.857,0,0,0,5.76,1.876,8.679,8.679,0,0,0,6.753-2.825l2.339,2.736a10.245,10.245,0,0,1-3.95,2.825,14.894,14.894,0,0,1-11.851-.552,10.851,10.851,0,0,1-4.435-4.258,12.209,12.209,0,0,1-1.567-6.18,12.406,12.406,0,0,1,1.523-6.135,10.916,10.916,0,0,1,4.193-4.259,11.95,11.95,0,0,1,6.024-1.522,11.713,11.713,0,0,1,5.98,1.522,10.714,10.714,0,0,1,4.105,4.259,12.987,12.987,0,0,1,1.478,6.268A12.091,12.091,0,0,1,122.872,388.164Zm-16.573-7.9a7.47,7.47,0,0,0-2.405,4.854H118.9a7.528,7.528,0,0,0-2.405-4.833,7.9,7.9,0,0,0-10.2-.021Z" style="fill:#fff"/><path d="M159.2,376.335a10.808,10.808,0,0,1,4.215,4.193,13.528,13.528,0,0,1,0,12.468,10.754,10.754,0,0,1-4.215,4.216,12.305,12.305,0,0,1-6.091,1.5,10.828,10.828,0,0,1-4.612-.971,9.576,9.576,0,0,1-3.553-2.825V407.01H140.7V375.056h4.06v3.707a9,9,0,0,1,3.575-2.935,11.289,11.289,0,0,1,4.767-.993A12.316,12.316,0,0,1,159.2,376.335Zm-2.406,17.633a7.476,7.476,0,0,0,2.825-2.913,9.448,9.448,0,0,0,0-8.607,7.316,7.316,0,0,0-2.825-2.89,8.029,8.029,0,0,0-4.038-1.016,7.828,7.828,0,0,0-4,1.037,7.513,7.513,0,0,0-2.824,2.892,8.611,8.611,0,0,0-1.037,4.28,8.884,8.884,0,0,0,1.015,4.3,7.273,7.273,0,0,0,2.824,2.913,8.339,8.339,0,0,0,8.055,0Z" style="fill:#fff"/><path d="M174.555,397.167a11.189,11.189,0,0,1-4.348-4.259,12.877,12.877,0,0,1,0-12.313,11.049,11.049,0,0,1,4.348-4.238,13.618,13.618,0,0,1,12.512,0,11.1,11.1,0,0,1,4.325,4.238,12.877,12.877,0,0,1,0,12.313,11.244,11.244,0,0,1-4.325,4.259,13.438,13.438,0,0,1-12.512,0Zm10.305-3.2a7.328,7.328,0,0,0,2.8-2.913,9.631,9.631,0,0,0,0-8.607,7.173,7.173,0,0,0-2.8-2.89,8.534,8.534,0,0,0-8.077,0,7.316,7.316,0,0,0-2.825,2.89,9.448,9.448,0,0,0,0,8.607,7.476,7.476,0,0,0,2.825,2.913,8.382,8.382,0,0,0,8.077,0Z" style="fill:#fff"/><path d="M211.98,397.079a6.32,6.32,0,0,1-2.294,1.214,9.61,9.61,0,0,1-2.825.419,7.5,7.5,0,0,1-5.473-1.9,7.243,7.243,0,0,1-1.942-5.428V378.542h-3.972v-3.486h3.972v-5.12h4.237v5.12h6.709v3.486h-6.709v12.667a4.107,4.107,0,0,0,.949,2.913,3.534,3.534,0,0,0,2.715,1.015,5.106,5.106,0,0,0,3.31-1.1Z" style="fill:#fff"/><path d="M237.358,388.164H218.38a7.343,7.343,0,0,0,2.715,4.965,8.852,8.852,0,0,0,5.759,1.876,8.679,8.679,0,0,0,6.753-2.825l2.339,2.736a10.23,10.23,0,0,1-3.95,2.825,14.892,14.892,0,0,1-11.85-.552,10.847,10.847,0,0,1-4.436-4.258,12.209,12.209,0,0,1-1.567-6.18,12.406,12.406,0,0,1,1.523-6.135,10.916,10.916,0,0,1,4.193-4.259,11.953,11.953,0,0,1,6.024-1.522,11.717,11.717,0,0,1,5.981,1.522,10.712,10.712,0,0,1,4.1,4.259,12.976,12.976,0,0,1,1.479,6.268A12.137,12.137,0,0,1,237.358,388.164Zm-16.572-7.9a7.466,7.466,0,0,0-2.406,4.854h15.006a7.528,7.528,0,0,0-2.405-4.833,7.9,7.9,0,0,0-10.195-.021Z" style="fill:#fff"/><path d="M262.891,377.417q2.625,2.582,2.626,7.569v13.461H261.28V385.472a7.179,7.179,0,0,0-1.634-5.12,6.137,6.137,0,0,0-4.678-1.721,7.287,7.287,0,0,0-5.428,2.008,7.845,7.845,0,0,0-1.986,5.759v12.049h-4.238V375.056h4.061v3.53a8.231,8.231,0,0,1,3.465-2.78,12.108,12.108,0,0,1,4.965-.971A9.664,9.664,0,0,1,262.891,377.417Z" style="fill:#fff"/><path d="M286.525,397.079a6.317,6.317,0,0,1-2.295,1.214,9.6,9.6,0,0,1-2.824.419,7.5,7.5,0,0,1-5.473-1.9,7.243,7.243,0,0,1-1.942-5.428V378.542h-3.972v-3.486h3.972v-5.12h4.237v5.12h6.709v3.486h-6.709v12.667a4.107,4.107,0,0,0,.949,2.913,3.534,3.534,0,0,0,2.715,1.015,5.106,5.106,0,0,0,3.31-1.1Z" style="fill:#fff"/><path d="M291.71,369.759a2.606,2.606,0,0,1-.816-1.942,2.677,2.677,0,0,1,.816-1.963,2.784,2.784,0,0,1,2.053-.817,2.871,2.871,0,0,1,2.052.773,2.533,2.533,0,0,1,.816,1.919,2.73,2.73,0,0,1-.816,2.008,2.783,2.783,0,0,1-2.052.817A2.822,2.822,0,0,1,291.71,369.759Zm-.066,5.3h4.237v23.391h-4.237Z" style="fill:#fff"/><path d="M319.913,377.218q2.582,2.383,2.582,7.106v14.123h-4.016v-3.09a6.713,6.713,0,0,1-3.024,2.495,11.552,11.552,0,0,1-4.656.86,9.741,9.741,0,0,1-6.29-1.9,6.524,6.524,0,0,1-.11-9.953q2.251-1.875,7.15-1.875h6.709v-.839a5.405,5.405,0,0,0-1.589-4.193,6.7,6.7,0,0,0-4.679-1.456,12.385,12.385,0,0,0-4.06.685,10.445,10.445,0,0,0-3.354,1.831l-1.766-3.178a12.809,12.809,0,0,1,4.325-2.229,18.132,18.132,0,0,1,5.341-.772Q317.33,374.835,319.913,377.218ZM315.7,394.364a6.186,6.186,0,0,0,2.56-3.067v-3.266h-6.532q-5.387,0-5.385,3.619a3.275,3.275,0,0,0,1.368,2.781,6.253,6.253,0,0,0,3.8,1.015A7.862,7.862,0,0,0,315.7,394.364Z" style="fill:#fff"/><path d="M330.35,365.7h4.237v32.748H330.35Z" style="fill:#fff"/><path d="M358.288,397.167a11.189,11.189,0,0,1-4.348-4.259,12.885,12.885,0,0,1,0-12.313,11.049,11.049,0,0,1,4.348-4.238,13.618,13.618,0,0,1,12.512,0,11.089,11.089,0,0,1,4.325,4.238,12.877,12.877,0,0,1,0,12.313,11.231,11.231,0,0,1-4.325,4.259,13.438,13.438,0,0,1-12.512,0Zm10.305-3.2a7.322,7.322,0,0,0,2.8-2.913,9.631,9.631,0,0,0,0-8.607,7.167,7.167,0,0,0-2.8-2.89,8.532,8.532,0,0,0-8.076,0,7.31,7.31,0,0,0-2.825,2.89,9.448,9.448,0,0,0,0,8.607,7.47,7.47,0,0,0,2.825,2.913,8.38,8.38,0,0,0,8.076,0Z" style="fill:#fff"/><path d="M387.329,373.025v2.031h6.8v3.486h-6.708v19.905H383.18V378.542h-3.972v-3.486h3.972v-2.075a7.454,7.454,0,0,1,2.03-5.517,7.7,7.7,0,0,1,5.694-2.03,9.618,9.618,0,0,1,2.648.353,6.424,6.424,0,0,1,2.118,1.015l-1.279,3.222a5.281,5.281,0,0,0-3.266-1.1Q387.328,368.921,387.329,373.025Z" style="fill:#fff"/><path d="M431.817,375.056v23.391H427.8v-3.531a8.512,8.512,0,0,1-3.376,2.8,10.538,10.538,0,0,1-4.568.993,10.2,10.2,0,0,1-7.371-2.582q-2.692-2.582-2.692-7.613V375.056h4.237v12.975a7.261,7.261,0,0,0,1.633,5.142,6.1,6.1,0,0,0,4.679,1.743,6.982,6.982,0,0,0,5.3-2.03,7.972,7.972,0,0,0,1.942-5.738V375.056Z" style="fill:#fff"/><path d="M447.22,375.9a11.838,11.838,0,0,1,5.252-1.06v4.1a8.418,8.418,0,0,0-.971-.043,7.129,7.129,0,0,0-5.407,2.051,8.129,8.129,0,0,0-1.964,5.849v11.651h-4.237V375.056h4.061v3.927A7.229,7.229,0,0,1,447.22,375.9Z" style="fill:#fff"/><path d="M476.172,376.335a10.808,10.808,0,0,1,4.215,4.193,13.52,13.52,0,0,1,0,12.468,10.754,10.754,0,0,1-4.215,4.216,12.3,12.3,0,0,1-6.09,1.5,11.07,11.07,0,0,1-4.767-1.015,9.16,9.16,0,0,1-3.575-2.957v3.707h-4.061V365.7h4.238v12.887a9,9,0,0,1,3.53-2.8,11.2,11.2,0,0,1,4.635-.949A12.309,12.309,0,0,1,476.172,376.335Zm-2.405,17.633a7.474,7.474,0,0,0,2.824-2.913,9.448,9.448,0,0,0,0-8.607,7.314,7.314,0,0,0-2.824-2.89,8.491,8.491,0,0,0-8.055,0,7.124,7.124,0,0,0-2.825,2.89,9.631,9.631,0,0,0,0,8.607,7.276,7.276,0,0,0,2.825,2.913,8.339,8.339,0,0,0,8.055,0Z" style="fill:#fff"/><path d="M503.514,377.218q2.582,2.383,2.582,7.106v14.123H502.08v-3.09a6.711,6.711,0,0,1-3.023,2.495,11.557,11.557,0,0,1-4.657.86,9.738,9.738,0,0,1-6.289-1.9,6.525,6.525,0,0,1-.111-9.953q2.251-1.875,7.15-1.875h6.709v-.839a5.4,5.4,0,0,0-1.588-4.193,6.706,6.706,0,0,0-4.679-1.456,12.387,12.387,0,0,0-4.061.685,10.467,10.467,0,0,0-3.354,1.831l-1.765-3.178a12.809,12.809,0,0,1,4.325-2.229,18.128,18.128,0,0,1,5.341-.772Q500.932,374.835,503.514,377.218ZM499.3,394.364a6.176,6.176,0,0,0,2.56-3.067v-3.266h-6.532q-5.385,0-5.385,3.619a3.273,3.273,0,0,0,1.369,2.781,6.252,6.252,0,0,0,3.8,1.015A7.862,7.862,0,0,0,499.3,394.364Z" style="fill:#fff"/><path d="M533.526,377.417q2.625,2.582,2.626,7.569v13.461h-4.237V385.472a7.183,7.183,0,0,0-1.633-5.12,6.14,6.14,0,0,0-4.678-1.721,7.29,7.29,0,0,0-5.429,2.008,7.845,7.845,0,0,0-1.986,5.759v12.049h-4.237V375.056h4.06v3.53a8.237,8.237,0,0,1,3.465-2.78,12.111,12.111,0,0,1,4.965-.971A9.663,9.663,0,0,1,533.526,377.417Z" style="fill:#fff"/><path d="M592.138,377.4q2.582,2.56,2.582,7.591v13.461h-4.237V385.472a7.38,7.38,0,0,0-1.567-5.12,5.749,5.749,0,0,0-4.48-1.721,6.708,6.708,0,0,0-5.12,2.008,8.068,8.068,0,0,0-1.9,5.759v12.049h-4.236V385.472a7.38,7.38,0,0,0-1.567-5.12,5.749,5.749,0,0,0-4.48-1.721,6.7,6.7,0,0,0-5.119,2.008,8.064,8.064,0,0,0-1.9,5.759v12.049H555.88V375.056h4.061v3.486a8.212,8.212,0,0,1,3.354-2.758,11.228,11.228,0,0,1,4.723-.949,10.367,10.367,0,0,1,4.855,1.1,7.68,7.68,0,0,1,3.266,3.222,8.969,8.969,0,0,1,3.685-3.178,12.024,12.024,0,0,1,5.319-1.147A9.5,9.5,0,0,1,592.138,377.4Z" style="fill:#fff"/><path d="M606.415,397.167a11.189,11.189,0,0,1-4.348-4.259,12.877,12.877,0,0,1,0-12.313,11.049,11.049,0,0,1,4.348-4.238,13.618,13.618,0,0,1,12.512,0,11.089,11.089,0,0,1,4.325,4.238,12.877,12.877,0,0,1,0,12.313,11.231,11.231,0,0,1-4.325,4.259,13.438,13.438,0,0,1-12.512,0Zm10.305-3.2a7.322,7.322,0,0,0,2.8-2.913,9.631,9.631,0,0,0,0-8.607,7.167,7.167,0,0,0-2.8-2.89,8.532,8.532,0,0,0-8.076,0,7.31,7.31,0,0,0-2.825,2.89,9.448,9.448,0,0,0,0,8.607,7.47,7.47,0,0,0,2.825,2.913,8.38,8.38,0,0,0,8.076,0Z" style="fill:#fff"/><path d="M649.182,376.335a10.808,10.808,0,0,1,4.215,4.193,13.528,13.528,0,0,1,0,12.468,10.754,10.754,0,0,1-4.215,4.216,12.3,12.3,0,0,1-6.091,1.5,11.069,11.069,0,0,1-4.766-1.015,9.16,9.16,0,0,1-3.575-2.957v3.707h-4.061V365.7h4.237v12.887a9,9,0,0,1,3.531-2.8,11.2,11.2,0,0,1,4.634-.949A12.313,12.313,0,0,1,649.182,376.335Zm-2.406,17.633a7.47,7.47,0,0,0,2.825-2.913,9.448,9.448,0,0,0,0-8.607,7.31,7.31,0,0,0-2.825-2.89,8.489,8.489,0,0,0-8.054,0,7.124,7.124,0,0,0-2.825,2.89,9.631,9.631,0,0,0,0,8.607,7.276,7.276,0,0,0,2.825,2.913,8.338,8.338,0,0,0,8.054,0Z" style="fill:#fff"/><path d="M660.855,369.759a2.6,2.6,0,0,1-.816-1.942,2.673,2.673,0,0,1,.816-1.963,2.783,2.783,0,0,1,2.052-.817,2.869,2.869,0,0,1,2.052.773,2.53,2.53,0,0,1,.817,1.919,2.727,2.727,0,0,1-.817,2.008,2.781,2.781,0,0,1-2.052.817A2.822,2.822,0,0,1,660.855,369.759Zm-.066,5.3h4.237v23.391h-4.237Z" style="fill:#fff"/><path d="M673.1,365.7h4.237v32.748H673.1Z" style="fill:#fff"/><path d="M685.482,369.759a2.6,2.6,0,0,1-.816-1.942,2.673,2.673,0,0,1,.816-1.963,2.783,2.783,0,0,1,2.052-.817,2.869,2.869,0,0,1,2.052.773,2.53,2.53,0,0,1,.817,1.919,2.727,2.727,0,0,1-.817,2.008,2.781,2.781,0,0,1-2.052.817A2.822,2.822,0,0,1,685.482,369.759Zm-.066,5.3h4.237v23.391h-4.237Z" style="fill:#fff"/><path d="M710.881,397.079a6.317,6.317,0,0,1-2.295,1.214,9.6,9.6,0,0,1-2.824.419,7.5,7.5,0,0,1-5.473-1.9,7.243,7.243,0,0,1-1.942-5.428V378.542h-3.972v-3.486h3.972v-5.12h4.237v5.12h6.708v3.486h-6.708v12.667a4.107,4.107,0,0,0,.949,2.913,3.534,3.534,0,0,0,2.715,1.015,5.106,5.106,0,0,0,3.31-1.1Z" style="fill:#fff"/><path d="M736.259,375.056l-11.343,25.73a11.6,11.6,0,0,1-3.509,5.032,8.01,8.01,0,0,1-4.833,1.456,10.236,10.236,0,0,1-3.332-.551,6.844,6.844,0,0,1-2.67-1.612l1.809-3.177a5.9,5.9,0,0,0,4.193,1.721,4.046,4.046,0,0,0,2.582-.816,6.975,6.975,0,0,0,1.876-2.8l.75-1.633-10.327-23.347h4.413l8.165,18.713,8.077-18.713Z" style="fill:#fff"/><path d="M774.171,365.7v32.748H770.11V394.74a9.171,9.171,0,0,1-3.574,2.957,11.076,11.076,0,0,1-4.767,1.015,12.3,12.3,0,0,1-6.091-1.5A10.754,10.754,0,0,1,751.463,393a13.52,13.52,0,0,1,0-12.468,10.808,10.808,0,0,1,4.215-4.193,12.31,12.31,0,0,1,6.091-1.5,11.2,11.2,0,0,1,4.634.949,9.012,9.012,0,0,1,3.531,2.8V365.7Zm-8.033,28.269a7.282,7.282,0,0,0,2.825-2.913,9.631,9.631,0,0,0,0-8.607,7.13,7.13,0,0,0-2.825-2.89,8.491,8.491,0,0,0-8.055,0,7.314,7.314,0,0,0-2.824,2.89,9.448,9.448,0,0,0,0,8.607,7.474,7.474,0,0,0,2.824,2.913,8.339,8.339,0,0,0,8.055,0Z" style="fill:#fff"/><path d="M798.158,377.218q2.582,2.383,2.582,7.106v14.123h-4.016v-3.09a6.713,6.713,0,0,1-3.024,2.495,11.552,11.552,0,0,1-4.656.86,9.741,9.741,0,0,1-6.29-1.9,6.086,6.086,0,0,1-2.361-4.987,6.147,6.147,0,0,1,2.251-4.966q2.251-1.875,7.15-1.875H796.5v-.839a5.405,5.405,0,0,0-1.589-4.193,6.7,6.7,0,0,0-4.679-1.456,12.385,12.385,0,0,0-4.06.685,10.445,10.445,0,0,0-3.354,1.831l-1.766-3.178a12.818,12.818,0,0,1,4.325-2.229,18.132,18.132,0,0,1,5.341-.772Q795.576,374.835,798.158,377.218Zm-4.215,17.146a6.186,6.186,0,0,0,2.56-3.067v-3.266h-6.532q-5.387,0-5.385,3.619a3.273,3.273,0,0,0,1.369,2.781,6.248,6.248,0,0,0,3.795,1.015A7.862,7.862,0,0,0,793.943,394.364Z" style="fill:#fff"/><path d="M821.747,397.079a6.317,6.317,0,0,1-2.295,1.214,9.6,9.6,0,0,1-2.824.419,7.5,7.5,0,0,1-5.473-1.9,7.243,7.243,0,0,1-1.942-5.428V378.542h-3.972v-3.486h3.972v-5.12h4.237v5.12h6.708v3.486H813.45v12.667a4.107,4.107,0,0,0,.949,2.913,3.533,3.533,0,0,0,2.714,1.015,5.107,5.107,0,0,0,3.311-1.1Z" style="fill:#fff"/><path d="M842.821,377.218q2.583,2.383,2.582,7.106v14.123h-4.015v-3.09a6.713,6.713,0,0,1-3.024,2.495,11.552,11.552,0,0,1-4.656.86,9.741,9.741,0,0,1-6.29-1.9,6.086,6.086,0,0,1-2.361-4.987,6.147,6.147,0,0,1,2.251-4.966q2.251-1.875,7.15-1.875h6.709v-.839a5.405,5.405,0,0,0-1.589-4.193A6.7,6.7,0,0,0,834.9,378.5a12.385,12.385,0,0,0-4.06.685,10.461,10.461,0,0,0-3.355,1.831l-1.765-3.178a12.809,12.809,0,0,1,4.325-2.229,18.132,18.132,0,0,1,5.341-.772Q840.239,374.835,842.821,377.218Zm-4.215,17.146a6.183,6.183,0,0,0,2.561-3.067v-3.266h-6.532q-5.387,0-5.385,3.619a3.275,3.275,0,0,0,1.368,2.781,6.253,6.253,0,0,0,3.8,1.015A7.858,7.858,0,0,0,838.606,394.364Z" style="fill:#fff"/><path d="M866.323,397.939a12.083,12.083,0,0,1-4.148-1.963l1.765-3.355a12.679,12.679,0,0,0,3.751,1.766,15.453,15.453,0,0,0,4.458.662q5.56,0,5.561-3.178a2.058,2.058,0,0,0-.75-1.677,4.748,4.748,0,0,0-1.876-.905q-1.125-.285-3.2-.64a31.263,31.263,0,0,1-4.613-1.015,7.106,7.106,0,0,1-3.067-1.942,5.4,5.4,0,0,1-1.28-3.839,6,6,0,0,1,2.648-5.1,11.861,11.861,0,0,1,7.106-1.92,19.6,19.6,0,0,1,4.678.573,12.629,12.629,0,0,1,3.84,1.545l-1.809,3.355a12.168,12.168,0,0,0-6.753-1.854,7.8,7.8,0,0,0-4.105.883,2.663,2.663,0,0,0-1.412,2.339,2.23,2.23,0,0,0,.794,1.809,5.009,5.009,0,0,0,1.964.971q1.168.309,3.288.706a35.921,35.921,0,0,1,4.568,1.037,6.83,6.83,0,0,1,2.98,1.876,5.231,5.231,0,0,1,1.235,3.708,5.844,5.844,0,0,1-2.714,5.053,12.814,12.814,0,0,1-7.392,1.876A19.608,19.608,0,0,1,866.323,397.939Z" style="fill:#fff"/><path d="M908.3,388.164H889.317a7.343,7.343,0,0,0,2.715,4.965,8.852,8.852,0,0,0,5.759,1.876,8.676,8.676,0,0,0,6.753-2.825l2.34,2.736a10.245,10.245,0,0,1-3.95,2.825,14.894,14.894,0,0,1-11.851-.552,10.853,10.853,0,0,1-4.436-4.258,12.22,12.22,0,0,1-1.567-6.18,12.4,12.4,0,0,1,1.524-6.135,10.913,10.913,0,0,1,4.192-4.259,11.953,11.953,0,0,1,6.024-1.522,11.714,11.714,0,0,1,5.981,1.522,10.712,10.712,0,0,1,4.1,4.259,12.976,12.976,0,0,1,1.479,6.268A12.367,12.367,0,0,1,908.3,388.164Zm-16.573-7.9a7.471,7.471,0,0,0-2.406,4.854h15.006a7.524,7.524,0,0,0-2.4-4.833,7.9,7.9,0,0,0-10.2-.021Z" style="fill:#fff"/><path d="M927.406,397.079a6.317,6.317,0,0,1-2.295,1.214,9.6,9.6,0,0,1-2.824.419,7.5,7.5,0,0,1-5.473-1.9,7.246,7.246,0,0,1-1.942-5.428V378.542H910.9v-3.486h3.972v-5.12h4.237v5.12h6.708v3.486h-6.708v12.667a4.1,4.1,0,0,0,.95,2.913,3.529,3.529,0,0,0,2.713,1.015,5.107,5.107,0,0,0,3.311-1.1Z" style="fill:#fff"/><path d="M933.717,397.939a12.08,12.08,0,0,1-4.149-1.963l1.766-3.355a12.655,12.655,0,0,0,3.751,1.766,15.453,15.453,0,0,0,4.458.662q5.56,0,5.561-3.178a2.058,2.058,0,0,0-.75-1.677,4.748,4.748,0,0,0-1.876-.905q-1.125-.285-3.2-.64a31.246,31.246,0,0,1-4.612-1.015,7.1,7.1,0,0,1-3.067-1.942,5.4,5.4,0,0,1-1.281-3.839,5.994,5.994,0,0,1,2.649-5.1,11.858,11.858,0,0,1,7.105-1.92,19.605,19.605,0,0,1,4.679.573,12.629,12.629,0,0,1,3.84,1.545l-1.81,3.355a12.168,12.168,0,0,0-6.753-1.854,7.8,7.8,0,0,0-4.1.883,2.661,2.661,0,0,0-1.412,2.339,2.227,2.227,0,0,0,.794,1.809,5,5,0,0,0,1.964.971q1.168.309,3.288.706a35.961,35.961,0,0,1,4.568,1.037,6.832,6.832,0,0,1,2.979,1.876,5.227,5.227,0,0,1,1.236,3.708,5.844,5.844,0,0,1-2.714,5.053,12.817,12.817,0,0,1-7.393,1.876A19.6,19.6,0,0,1,933.717,397.939Z" style="fill:#fff"/><path d="M953.534,397.852a2.922,2.922,0,0,1-.883-2.185,2.867,2.867,0,0,1,.883-2.141,2.923,2.923,0,0,1,2.118-.86,2.82,2.82,0,0,1,2.075.838,2.931,2.931,0,0,1,.838,2.163,2.962,2.962,0,0,1-.861,2.185,2.8,2.8,0,0,1-2.052.86A2.927,2.927,0,0,1,953.534,397.852Z" style="fill:#fff"/></g><path d="M1393.8,116.2c97.9,0,191.4,70.2,191.4,168.1s-62.1,174.5-160,174.5-180.9-81.4-180.9-179.3C1244.3,181.5,1295.9,116.2,1393.8,116.2Z" style="fill:#434343;opacity:0.5;isolation:isolate"/><path d="M1412.7,71.1c114.2,0,206.8,92.6,206.8,206.8s-92.6,206.8-206.8,206.8-206.8-92.6-206.8-206.8S1298.5,71.1,1412.7,71.1Z" style="fill:url(#radial-gradient)"/><path d="M1412.7,80.7c108.9,0,197.2,88.3,197.2,197.2s-88.3,197.2-197.2,197.2-197.2-88.3-197.2-197.2,88.3-197.1,197.2-197.2Z" style="fill:url(#radial-gradient-2)"/><path d="M1412.7,119.4a158.5,158.5,0,1,1-158.5,158.5,158.484,158.484,0,0,1,158.5-158.5Z" style="fill:url(#radial-gradient-3)"/><path d="M1412.7,133.7a144.2,144.2,0,1,1-144.2,144.2,144.251,144.251,0,0,1,144.2-144.2Z" style="opacity:0.10000000149011612;isolation:isolate"/><path d="M1424.3,214.6a44.683,44.683,0,0,0-4.5-.9,14.55,14.55,0,0,0-14.9,7.1,4.129,4.129,0,0,1-.7,1.1,3.665,3.665,0,0,1-5,1.5,3.819,3.819,0,0,1-1.6-5.2h0c0-.1.1-.1.1-.2a21.82,21.82,0,0,1,8.4-8.9,22.374,22.374,0,0,1,19.2-1.9,3.867,3.867,0,0,1,2.9,4.3A3.659,3.659,0,0,1,1424.3,214.6Z" style="fill:#606161"/><path d="M1393.5,230.6a3.842,3.842,0,0,1,3.8-4h0a3.9,3.9,0,0,1-.1,7.8h0A3.777,3.777,0,0,1,1393.5,230.6Z" style="fill:#606161"/><path d="M1426.6,324.4c0-4.7.2-9.1-.1-13.4a8.4,8.4,0,0,0-8.9-7.5,8.817,8.817,0,0,0-9.1,7.6c-.1.4,0,.9-.1,1.3a3.822,3.822,0,0,1-4.2,3.4h0a3.843,3.843,0,0,1-3.3-4.1,16.179,16.179,0,0,1,16.5-15.8,9.151,9.151,0,0,1,1.6.1c7.8.8,13.1,5.2,14.7,12.6a43.546,43.546,0,0,1,.5,8c.1,2.1-.1,4.3.1,6.4a2.076,2.076,0,0,0,1.2,1.4,6.185,6.185,0,0,1,5.4,6.6v23a6.327,6.327,0,0,1-5.9,6.6h-.6c-11.2.1-22.5.1-33.7,0a6.277,6.277,0,0,1-6.5-6.1V331.4c0-4.5,2.4-7,6.9-7h25.5Zm6.6,28.5V332.1h-31.4v20.8Z" style="fill:#606161"/><path d="M1321.1,287.2a69.6,69.6,0,0,1,3.1-9.1,27.281,27.281,0,0,1,19.4-14.7c.5-.1,1-.3,1.2-.3,0-3.4-.1-6.7,0-10a42.151,42.151,0,0,1,12.1-28,43.057,43.057,0,0,1,27.7-13.3,2.937,2.937,0,0,0,1.8-1.3c7.2-13.6,18.5-20.2,33.8-19.7,14.9.5,29,13,31.6,27.7a3.54,3.54,0,0,0,2.4,3.1,29.372,29.372,0,0,1,16.1,16.7,2.471,2.471,0,0,0,2.8,1.8,39.7,39.7,0,0,1,38.9,26.7c6.8,19.4-3.8,42.3-23.1,49.4a44.436,44.436,0,0,1-15.3,2.7,40.666,40.666,0,0,1,.4,4.7,55.718,55.718,0,0,1-16.3,43.2,54.211,54.211,0,0,1-31.4,16.1c-1.4.2-2.8.5-4.2.7h-9c-4-.8-8.2-1.3-12.1-2.5a56.826,56.826,0,0,1-39.8-57.9c.1-1.4.3-2.8.4-4.4-4.3,0-8.4.1-12.4,0a27.21,27.21,0,0,1-25.3-16.1,61.814,61.814,0,0,1-2.7-8.3v-7.2Zm151.1,24.4a65.5,65.5,0,0,0,8.9-1c12.3-2.8,20.6-10.3,24-22.4,3.5-12.3.3-23.2-9-31.9a30.31,30.31,0,0,0-25.6-8.2c-4.2.5-5.1-.2-6.5-4.3a35.56,35.56,0,0,0-3.9-7.8,20.365,20.365,0,0,0-11.4-8.1,5.039,5.039,0,0,1-4-5c-.1-1-.2-2-.4-3a26.942,26.942,0,0,0-31-20.9,25.984,25.984,0,0,0-20.5,16.6,5.825,5.825,0,0,1-5.8,4,34.887,34.887,0,0,0-28.8,16.5,35.325,35.325,0,0,0-4.6,28.8c.9,3.9-.5,5.6-4.4,5.7a20.034,20.034,0,0,0-16.1,8,20.234,20.234,0,0,0,12.7,32.4c4.9.7,9.9.2,14.8.5,2.2.1,2.9-.6,3.6-2.6a56.437,56.437,0,0,1,61-37.6,55.312,55.312,0,0,1,42.5,30.1c1.7,3.1,2.9,6.5,4.5,10.2Zm-5.8,17.3a49.089,49.089,0,1,0-51,47.1,49.074,49.074,0,0,0,51-47.1Z" style="fill:#606161"/></g></g></svg>