<?xml version="1.0" encoding="utf-8"?>
<!-- Generator: Adobe Illustrator 25.2.0, SVG Export Plug-In . SVG Version: 6.00 Build 0)  -->
<svg version="1.1" id="Layer_1" xmlns="http://www.w3.org/2000/svg" xmlns:xlink="http://www.w3.org/1999/xlink" x="0px" y="0px"
	 viewBox="0 0 1770.5 498" style="enable-background:new 0 0 1770.5 498;" xml:space="preserve">
<style type="text/css">
	.st0{fill:#DF4452;}
	.st1{opacity:0.5;fill:#434343;enable-background:new    ;}
	.st2{fill:url(#SVGID_1_);}
	.st3{fill:url(#SVGID_2_);}
	.st4{fill:url(#SVGID_3_);}
	.st5{opacity:0.1;enable-background:new    ;}
	.st6{fill:#606161;}
	.st7{fill:#FFFFFF;}
	.st8{fill:none;stroke:#FFFFFF;stroke-width:3;stroke-miterlimit:10;}
</style>
<path class="st0" d="M1669,450.2H338.1c-56,0-101.5-89.2-101.5-199.2l0,0c0-110,45.4-199.2,101.5-199.2H1669
	c56,0,101.5,89.2,101.5,199.2l0,0C1770.5,361,1725.1,450.2,1669,450.2z"/>
<path class="st1" d="M226.3,54.3c117.9,0,230.4,84.5,230.4,202.4s-74.8,210-192.6,210c-117.9,0-217.8-98-217.8-215.9
	C46.2,133,108.4,54.3,226.3,54.3z"/>
<radialGradient id="SVGID_1_" cx="8381.6523" cy="-6541.1831" r="603.809" gradientTransform="matrix(6.123234e-17 -1 -1 -6.123234e-17 -6506.5659 8350.3545)" gradientUnits="userSpaceOnUse">
	<stop  offset="0" style="stop-color:#FFFFFF"/>
	<stop  offset="0.231" style="stop-color:#FCFCFC"/>
	<stop  offset="0.42" style="stop-color:#F2F2F2"/>
	<stop  offset="0.594" style="stop-color:#E0E0E1"/>
	<stop  offset="0.759" style="stop-color:#C8C8C9"/>
	<stop  offset="0.917" style="stop-color:#AAAAAA"/>
	<stop  offset="1" style="stop-color:#969697"/>
</radialGradient>
<path class="st2" d="M249,0c137.5,0,249,111.5,249,249S386.5,498,249,498S0,386.5,0,249S111.5,0,249,0z"/>
<radialGradient id="SVGID_2_" cx="8279.9785" cy="-6607.9429" r="575.632" gradientTransform="matrix(6.123234e-17 -1 -1 -6.123234e-17 -6506.5659 8350.3545)" gradientUnits="userSpaceOnUse">
	<stop  offset="0" style="stop-color:#FFFFFF"/>
	<stop  offset="0.257" style="stop-color:#FCFCFC"/>
	<stop  offset="0.468" style="stop-color:#F2F2F2"/>
	<stop  offset="0.662" style="stop-color:#E0E0E1"/>
	<stop  offset="0.846" style="stop-color:#C9C9C9"/>
	<stop  offset="1" style="stop-color:#AEAEAF"/>
</radialGradient>
<path class="st3" d="M249,11.6c131.1,0,237.4,106.3,237.4,237.4S380.1,486.4,249,486.4S11.6,380.1,11.6,249S117.9,11.6,249,11.6
	L249,11.6z"/>
<radialGradient id="SVGID_3_" cx="7929.833" cy="-6919.1157" r="636.249" gradientTransform="matrix(6.123234e-17 -1 -1 -6.123234e-17 -6506.5659 8350.3545)" gradientUnits="userSpaceOnUse">
	<stop  offset="0" style="stop-color:#FFFFFF"/>
	<stop  offset="0.164" style="stop-color:#F8F8F8"/>
	<stop  offset="0.411" style="stop-color:#E3E3E3"/>
	<stop  offset="0.709" style="stop-color:#C2C2C2"/>
	<stop  offset="1" style="stop-color:#9A9A9A"/>
</radialGradient>
<path class="st4" d="M249,58.2c105.4,0,190.9,85.4,190.9,190.8S354.4,439.9,249,439.9S58.2,354.4,58.2,249S143.6,58.2,249,58.2z"/>
<path class="st5" d="M249,75.4c95.9,0,173.6,77.7,173.6,173.6c0,95.9-77.7,173.6-173.6,173.6c-95.9,0-173.6-77.7-173.6-173.6
	C75.4,153.1,153.1,75.4,249,75.4L249,75.4z"/>
<path class="st6" d="M312.8,160.2c0.2,0.2,0.4,0.3,0.7,0.4c6,1.5,10.1,7.1,9.8,13.2c0,23,0,45.9,0,68.9v8.1h-8.8v-2.5
	c0-24.5,0-49,0-73.6c0-4.7-1.2-5.9-5.8-5.9c-48,0-95.9,0-143.9,0c-4.5,0-5.8,1.3-5.8,5.8c0,33.6,0,67.1,0,100.7c0,4.6,1.3,5.8,6,5.9
	c17.2,0,34.4,0,51.7,0h2.8v8.6H211v17.3h17v8.6h-34.4v-8.5h8.5v-17.3h-2.2h-36.1c-7.1,0.4-13.2-5.1-13.5-12.2c0-0.5,0-1,0-1.5
	c0-34.1,0-68.2,0-102.3c-0.4-6.3,3.8-12,10-13.4c0.2-0.1,0.3-0.2,0.5-0.3L312.8,160.2z"/>
<path class="st6" d="M357.8,352.7c-4.6,4.7-9,9.4-13.7,14c-1.6,1.5-4.2,1.5-5.7-0.2c0,0,0,0,0,0c-0.1-0.1-0.2-0.2-0.3-0.3
	c-2.3-2.3-4.6-4.6-6.9-6.9c-6.3-6.3-12.6-12.6-18.9-18.9c-3.3-3.3-3.3-5.1,0-8.4c0.6-0.6,1.2-1.1,1.7-1.5l-9.1-9.1
	c-12.1,9.9-28.4,13.1-43.3,8.5c-10.6-3-19.8-9.9-25.7-19.2c-14.2-21.7-8.1-50.9,13.6-65.1c21.7-14.2,50.9-8.1,65.1,13.6
	c11.2,17.1,10,39.6-2.9,55.4l9.3,9.2c0.7-0.9,1.5-1.9,2.3-2.7c1.5-1.7,4.2-1.9,5.9-0.4c0,0,0,0,0,0c0.2,0.1,0.3,0.3,0.4,0.4
	c9,8.9,17.9,17.8,26.8,26.8c0.5,0.6,1,1.2,1.5,1.9L357.8,352.7z M236.8,285c0.1,21.1,17.3,38.1,38.4,38c21.1-0.1,38.1-17.3,38-38.4
	c-0.1-21.1-17.3-38.1-38.4-38c-21,0.1-38,17.1-38,38C236.8,284.8,236.8,284.9,236.8,285z M346.9,351.5l-20.7-20.7l-5.3,5.2
	l20.6,20.6L346.9,351.5z"/>
<path class="st6" d="M192.1,219.5c-1.8-1.8-3.5-3.6-5.2-5.3c-0.2-0.2-0.4-0.5-0.9-1c2-1.9,3.9-3.7,5.8-5.6
	c3.5-3.4,6.9-6.9,10.3-10.3c0.8-0.6,1.1-1.7,0.7-2.6c-1.9-5.4,0-11.4,4.7-14.7c4.5-3.2,10.6-3.2,15.2,0c4.7,3.3,6.6,9.3,4.7,14.7
	c-0.4,0.9-0.2,2,0.6,2.6c3.6,3.5,7.1,7,10.6,10.6c0.6,0.8,1.7,1.1,2.6,0.6c2.8-1,5.8-1,8.5,0c0.8,0.2,1.6,0,2.2-0.5
	c3.7-3.6,7.3-7.3,11-10.8c1-0.9,0.7-1.7,0.4-2.7c-2.3-6.8,1.4-14.1,8.2-16.4c6.8-2.3,14.1,1.4,16.4,8.2c0,0.1,0,0.1,0.1,0.2
	c0.1,0.3,0.2,0.7,0.3,1c1.2,4.5-0.3,9.3-3.7,12.4c-3.3,3.4-8.3,4.5-12.7,2.9c-1.1-0.5-2.4-0.2-3.1,0.8c-3.4,3.5-6.8,6.9-10.3,10.3
	c-0.9,0.7-1.1,1.8-0.7,2.8c2.3,6.7-1.3,14-8,16.3c0,0,0,0,0,0l0,0c-0.2,0.1-0.4,0.1-0.6,0.2c-6.7,2.1-13.8-1.7-15.9-8.4c0,0,0,0,0,0
	l0,0c-0.1-0.3-0.2-0.6-0.2-0.9c-0.3-2.4-0.3-4.9,0.2-7.4c0.1-1,0.3-1.7-0.5-2.5c-3.7-3.6-7.2-7.3-10.9-10.8
	c-0.6-0.5-1.4-0.7-2.2-0.5c-2.8,1-5.8,0.9-8.5-0.1c-0.9-0.4-2-0.1-2.6,0.7c-5.1,5.1-10.2,10.2-15.3,15.3
	C192.8,218.9,192.6,219.1,192.1,219.5z M219.4,190.5c0.1-2.3-1.8-4.3-4.1-4.3c-2.3-0.1-4.3,1.8-4.3,4.1l0,0v0
	c-0.1,2.3,1.8,4.3,4.1,4.4C217.4,194.7,219.3,192.9,219.4,190.5C219.4,190.5,219.4,190.5,219.4,190.5L219.4,190.5z M275.8,194.7
	c2.3-0.1,4.2-1.9,4.2-4.3c-0.1-2.3-2-4.2-4.3-4.3c-2.4,0-4.3,2-4.3,4.4c0,0,0,0,0,0l0,0v0c0,2.3,1.9,4.1,4.2,4.1c0,0,0,0,0,0
	C275.7,194.7,275.7,194.7,275.8,194.7L275.8,194.7z M249.6,220.6c0-2.3-1.9-4.2-4.1-4.2l0,0l0,0h-0.1c-2.3,0-4.2,1.9-4.3,4.2
	c0.1,2.4,2,4.3,4.4,4.3C247.9,224.9,249.7,223,249.6,220.6L249.6,220.6z"/>
<path class="st6" d="M189.1,264.2v8.6c-4,0-8.1-0.3-12-0.8c-5.3-1.2-9.2-5.8-9.4-11.3c-0.2-3.1,0-6.3,0-9.6h8.6c0,2.4,0,4.9,0,7.3
	c0,3.9,1.6,5.5,5.5,5.5c2.3,0,4.6,0,6.9,0C188.8,264,189,264.1,189.1,264.2z"/>
<path class="st6" d="M167.7,242.2v-8.5h8.4v8.5L167.7,242.2z"/>
<path class="st6" d="M275.7,255.5c14.9-0.9,30.5,12.7,30.1,29.9h-8.4c-1.4-13-8.6-20.2-21.7-21.6L275.7,255.5z"/>
<g>
	<path class="st7" d="M521.2,85.7h8.1v35.1h-8.1V85.7z"/>
	<path class="st7" d="M561.5,96.4c2.1,2,3.1,5,3.1,8.9v15.4h-7.8v-14.2c0.1-1.7-0.4-3.4-1.4-4.8c-1.1-1.1-2.5-1.7-4.1-1.6
		c-1.8-0.1-3.5,0.6-4.7,1.8c-1.3,1.5-1.9,3.5-1.8,5.4v13.3h-7.8v-27h7.5V97c1.1-1.2,2.4-2.1,3.9-2.6c1.6-0.6,3.3-0.9,5.1-0.9
		C556.4,93.3,559.4,94.4,561.5,96.4z"/>
	<path class="st7" d="M599.5,83.6v37.2H592v-3.1c-1.9,2.3-4.7,3.5-8.4,3.5c-2.4,0-4.8-0.6-6.9-1.7c-2-1.1-3.7-2.8-4.8-4.9
		c-2.3-4.6-2.3-10,0-14.6c1.1-2,2.8-3.7,4.8-4.9c2.1-1.1,4.5-1.7,6.9-1.7c3-0.2,6,1,8.1,3.3V83.6H599.5z M589.8,112.8
		c2.6-3.2,2.6-7.7,0-10.9c-2.7-2.7-7.1-2.7-9.9,0c-2.6,3.2-2.6,7.7,0,10.9C582.7,115.5,587.1,115.5,589.8,112.8z"/>
	<path class="st7" d="M633.9,93.8v27h-7.4v-3.2c-1,1.2-2.3,2.1-3.7,2.7c-1.5,0.6-3.1,0.9-4.7,0.9c-3.1,0.2-6.1-0.9-8.4-3.1
		c-2.1-2-3.1-5.1-3.1-9.1V93.8h7.8v14.1c0,4.3,1.8,6.5,5.5,6.5c1.7,0.1,3.3-0.6,4.5-1.8c1.2-1.5,1.8-3.5,1.7-5.4V93.8H633.9z"/>
	<path class="st7" d="M643.6,120.4c-1.8-0.4-3.5-1.1-5.1-2.1l2.6-5.6c1.4,0.8,2.8,1.5,4.4,1.9c1.6,0.5,3.3,0.7,5,0.7
		c3.3,0,5-0.8,5-2.5c0-0.8-0.6-1.5-1.4-1.7c-1.4-0.4-2.7-0.7-4.2-0.9c-1.8-0.3-3.7-0.6-5.5-1.2c-1.4-0.4-2.7-1.2-3.7-2.3
		c-1.1-1.3-1.7-3-1.6-4.7c0-1.6,0.5-3.2,1.5-4.5c1.1-1.4,2.6-2.5,4.3-3.1c2.1-0.8,4.4-1.2,6.7-1.1c1.9,0,3.8,0.2,5.7,0.6
		c1.6,0.3,3.2,0.9,4.7,1.7l-2.6,5.6c-2.4-1.3-5.1-2-7.8-2c-1.3-0.1-2.6,0.2-3.8,0.7c-0.7,0.3-1.2,1-1.3,1.8c0,0.8,0.6,1.6,1.4,1.8
		c1.4,0.4,2.8,0.8,4.3,1c1.8,0.3,3.6,0.7,5.4,1.2c1.4,0.4,2.7,1.2,3.7,2.3c1.1,1.3,1.7,2.9,1.6,4.6c0,1.6-0.5,3.2-1.5,4.5
		c-1.1,1.4-2.7,2.5-4.4,3c-2.2,0.8-4.5,1.1-6.8,1.1C648,121.2,645.8,120.9,643.6,120.4z"/>
	<path class="st7" d="M685.2,119.5c-0.9,0.6-1.8,1-2.8,1.3c-1.2,0.3-2.3,0.4-3.5,0.4c-3.2,0-5.7-0.8-7.4-2.5s-2.6-4-2.6-7.2v-11.1
		h-4.2v-6h4.2v-6.6h7.8v6.6h6.7v6h-6.7v11c-0.1,1,0.3,1.9,0.9,2.6c0.7,0.6,1.6,1,2.5,0.9c1.1,0,2.2-0.3,3.2-1L685.2,119.5z"/>
	<path class="st7" d="M700.8,94.4c1.7-0.7,3.6-1,5.5-1v7.2c-0.9-0.1-1.5-0.1-1.8-0.1c-1.9-0.1-3.8,0.6-5.3,1.9
		c-1.3,1.3-1.9,3.1-1.9,5.6v12.7h-7.8v-27h7.5v3.6C698,96.1,699.3,95.1,700.8,94.4z"/>
	<path class="st7" d="M738.7,93.8l-12.2,28.6c-1.2,3.1-2.8,5.3-4.6,6.6c-1.9,1.3-4.3,2-6.6,1.9c-1.4,0-2.8-0.2-4.2-0.7
		c-1.2-0.4-2.4-1-3.4-1.8l2.9-5.6c0.6,0.5,1.3,1,2.1,1.3c0.7,0.3,1.5,0.4,2.3,0.5c0.9,0,1.9-0.2,2.6-0.8c0.8-0.7,1.4-1.6,1.8-2.6
		l0.1-0.3l-11.7-27.2h8.1l7.6,18.3l7.6-18.3L738.7,93.8z"/>
	<path class="st7" d="M746.8,112.8c0.9,0.9,1.4,2.2,1.4,3.5c0,0.7-0.1,1.4-0.2,2c-0.3,1-0.7,2-1.1,3l-2.9,7.2h-5l2.2-8
		c-0.8-0.3-1.5-0.9-2-1.6c-0.5-0.8-0.7-1.7-0.7-2.6c-0.1-1.3,0.4-2.6,1.4-3.5c0.9-0.9,2.2-1.4,3.5-1.3
		C744.6,111.4,745.8,111.9,746.8,112.8z"/>
	<path class="st7" d="M790.5,120.8l-6.8-9.8h-7.5v9.8h-8.1V85.7h15.2c2.8-0.1,5.5,0.5,8.1,1.6c2.2,0.9,4,2.5,5.3,4.4
		c1.3,2,1.9,4.4,1.9,6.8c0.2,4.9-2.7,9.3-7.2,11.1l7.9,11.3H790.5z M788.5,93.9c-1.6-1.2-3.6-1.7-5.6-1.6h-6.6v12.2h6.6
		c2,0.1,4-0.4,5.6-1.6c2.5-2.4,2.5-6.4,0.1-8.9C788.6,94,788.5,93.9,788.5,93.9L788.5,93.9z"/>
	<path class="st7" d="M830.7,109.5h-20.4c0.3,1.6,1.3,3,2.6,4c1.5,1,3.3,1.5,5.1,1.5c1.3,0,2.5-0.2,3.7-0.6c1.1-0.4,2.2-1.1,3-2
		l4.2,4.5c-2.5,2.9-6.2,4.4-11.1,4.4c-2.8,0.1-5.6-0.6-8.1-1.8c-2.2-1.1-4.1-2.8-5.4-4.9c-1.3-2.2-1.9-4.6-1.9-7.2
		c0-2.5,0.6-5,1.9-7.1c1.2-2.1,3-3.8,5.2-5c4.5-2.3,9.9-2.4,14.5-0.1c2.1,1.1,3.9,2.8,5,4.9c1.3,2.3,1.9,4.8,1.8,7.4
		C830.9,107.5,830.8,108.2,830.7,109.5z M812.4,100.9c-1.2,1-2,2.5-2.2,4.1h13.3c-0.2-1.6-1-3-2.2-4.1c-1.2-1-2.8-1.6-4.4-1.5
		C815.3,99.3,813.7,99.8,812.4,100.9z"/>
	<path class="st7" d="M838.6,120.4c-1.8-0.4-3.5-1.1-5.1-2.1l2.6-5.6c1.4,0.8,2.8,1.5,4.4,1.9c1.6,0.5,3.3,0.7,5,0.7
		c3.3,0,5-0.8,5-2.5c0-0.8-0.6-1.5-1.4-1.7c-1.4-0.4-2.7-0.7-4.2-0.9c-1.8-0.3-3.7-0.6-5.5-1.2c-1.4-0.4-2.7-1.2-3.7-2.3
		c-1.1-1.3-1.7-3-1.6-4.7c0-1.6,0.5-3.2,1.5-4.5c1.1-1.4,2.6-2.5,4.3-3.1c2.1-0.8,4.4-1.2,6.7-1.1c1.9,0,3.8,0.2,5.7,0.6
		c1.6,0.3,3.2,0.9,4.7,1.7l-2.6,5.6c-2.4-1.3-5.1-2-7.8-2c-1.3-0.1-2.6,0.2-3.8,0.7c-0.7,0.3-1.2,1-1.3,1.8c0,0.8,0.6,1.6,1.4,1.8
		c1.4,0.4,2.8,0.8,4.3,1c1.8,0.3,3.6,0.7,5.4,1.2c1.4,0.4,2.7,1.2,3.7,2.3c1.1,1.3,1.7,2.9,1.6,4.6c0,1.6-0.5,3.2-1.5,4.5
		c-1.1,1.4-2.7,2.5-4.4,3c-2.2,0.8-4.5,1.1-6.8,1.1C843,121.2,840.8,120.9,838.6,120.4z"/>
	<path class="st7" d="M889,109.5h-20.4c0.3,1.6,1.3,3,2.6,4c1.5,1,3.3,1.5,5.1,1.5c1.3,0,2.5-0.2,3.7-0.6c1.1-0.4,2.2-1.1,3-2
		l4.2,4.5c-2.5,2.9-6.2,4.4-11.1,4.4c-2.8,0.1-5.6-0.6-8.1-1.8c-2.2-1.1-4.1-2.8-5.4-4.9c-1.3-2.2-1.9-4.6-1.9-7.2
		c0-2.5,0.6-5,1.9-7.1c1.2-2.1,3-3.8,5.2-5c4.5-2.3,9.9-2.4,14.5-0.1c2.1,1.1,3.9,2.8,5,4.9c1.3,2.3,1.9,4.8,1.8,7.4
		C889.2,107.5,889.1,108.2,889,109.5z M870.7,100.9c-1.2,1-2,2.5-2.2,4.1h13.3c-0.2-1.6-1-3-2.2-4.1c-1.2-1-2.8-1.6-4.4-1.5
		C873.5,99.3,872,99.8,870.7,100.9L870.7,100.9z"/>
	<path class="st7" d="M914.1,96.4c2.2,2,3.4,5,3.4,9v15.4h-7.3v-3.4c-1.5,2.5-4.2,3.8-8.2,3.8c-1.9,0-3.7-0.3-5.4-1.1
		c-1.4-0.6-2.6-1.6-3.5-2.9c-0.8-1.3-1.2-2.7-1.2-4.2c-0.1-2.3,1-4.5,2.8-5.9c1.9-1.4,4.8-2.2,8.7-2.2h6.2c0.1-1.5-0.5-2.9-1.6-3.9
		c-1.3-1-3-1.5-4.7-1.4c-1.4,0-2.9,0.2-4.2,0.7c-1.3,0.4-2.5,1-3.5,1.8l-2.8-5.5c1.6-1.1,3.4-1.9,5.3-2.4c2.1-0.6,4.2-0.9,6.3-0.9
		C908.7,93.4,911.9,94.4,914.1,96.4z M907.5,115c1-0.6,1.8-1.6,2.2-2.7v-2.8h-5.4c-3.2,0-4.8,1.1-4.8,3.2c0,0.9,0.4,1.8,1.2,2.4
		c1,0.6,2.1,0.9,3.2,0.9C905.1,116,906.4,115.6,907.5,115L907.5,115z"/>
	<path class="st7" d="M935.8,94.4c1.7-0.7,3.6-1,5.5-1v7.2c-0.9-0.1-1.5-0.1-1.8-0.1c-1.9-0.1-3.8,0.6-5.3,1.9
		c-1.3,1.3-1.9,3.1-1.9,5.6v12.7h-7.8v-27h7.5v3.6C933,96.1,934.3,95.1,935.8,94.4z"/>
	<path class="st7" d="M951,119.4c-2.2-1.1-4.1-2.8-5.4-4.9c-2.6-4.4-2.6-9.9,0-14.3c1.3-2.1,3.2-3.8,5.4-4.9
		c2.4-1.2,5.1-1.8,7.7-1.8c2.6-0.1,5.2,0.6,7.4,1.8c2.1,1.1,3.7,2.9,4.6,5.1l-6.1,3.3c-1.1-2.3-3.5-3.8-6.1-3.7
		c-1.9-0.1-3.7,0.7-5.1,2c-2.7,3.2-2.7,7.8,0,10.9c1.3,1.3,3.2,2.1,5.1,2c2.6,0.1,4.9-1.4,6.1-3.7l6.1,3.3c-1,2.1-2.6,3.9-4.6,5
		c-2.3,1.2-4.8,1.9-7.4,1.8C956.1,121.3,953.4,120.6,951,119.4z"/>
	<path class="st7" d="M999.6,96.4c2.1,2,3.1,5,3.1,8.9v15.4h-7.8v-14.2c0.1-1.7-0.4-3.4-1.4-4.8c-1.1-1.1-2.5-1.7-4.1-1.6
		c-1.8-0.1-3.5,0.6-4.7,1.8c-1.3,1.5-1.9,3.5-1.8,5.4v13.3h-7.8V83.6h7.8v13c1.1-1.1,2.4-1.9,3.8-2.4c1.5-0.6,3.2-0.8,4.8-0.8
		C994.5,93.3,997.4,94.4,999.6,96.4z"/>
	<path class="st7" d="M1016.2,112.8c0.9,0.9,1.4,2.2,1.4,3.5c0,0.7-0.1,1.4-0.3,2c-0.3,1-0.7,2-1.1,3l-2.9,7.2h-5l2.2-8
		c-0.8-0.3-1.5-0.9-2-1.6c-0.5-0.8-0.7-1.7-0.7-2.6c-0.1-1.3,0.4-2.6,1.4-3.5c0.9-0.9,2.2-1.4,3.5-1.3
		C1014.1,111.4,1015.3,111.9,1016.2,112.8z"/>
	<path class="st7" d="M1060.8,113.3h-16.3l-3.1,7.5h-8.3l15.6-35.1h8l15.7,35.1h-8.5L1060.8,113.3z M1058.2,107.1l-5.6-13.4
		l-5.6,13.4H1058.2z"/>
	<path class="st7" d="M1080.5,119.4c-2.2-1.1-4.1-2.8-5.4-4.9c-2.6-4.4-2.6-9.9,0-14.3c1.3-2.1,3.2-3.8,5.4-4.9
		c2.4-1.2,5.1-1.8,7.7-1.8c2.6-0.1,5.2,0.6,7.4,1.8c2.1,1.1,3.7,2.9,4.6,5.1l-6.1,3.3c-1.1-2.3-3.5-3.8-6.1-3.7
		c-1.9-0.1-3.7,0.7-5.1,2c-2.7,3.2-2.7,7.8,0,10.9c1.3,1.3,3.2,2.1,5.1,2c2.6,0.1,4.9-1.4,6.1-3.7l6.1,3.3c-1,2.1-2.6,3.9-4.6,5
		c-2.3,1.2-4.8,1.9-7.4,1.8C1085.6,121.3,1082.9,120.6,1080.5,119.4z"/>
	<path class="st7" d="M1125.4,96.4c2.2,2,3.4,5,3.4,9v15.4h-7.3v-3.4c-1.5,2.5-4.2,3.8-8.2,3.8c-1.9,0-3.7-0.3-5.4-1.1
		c-1.4-0.6-2.6-1.6-3.5-2.9c-0.8-1.3-1.2-2.7-1.2-4.2c-0.1-2.3,1-4.5,2.8-5.9c1.9-1.4,4.8-2.2,8.7-2.2h6.2c0.1-1.5-0.5-2.9-1.6-3.9
		c-1.3-1-3-1.5-4.7-1.4c-1.4,0-2.9,0.2-4.2,0.7c-1.3,0.4-2.5,1-3.5,1.8l-2.8-5.5c1.6-1.1,3.4-1.9,5.3-2.4c2.1-0.6,4.2-0.9,6.3-0.9
		C1119.9,93.4,1123.2,94.4,1125.4,96.4z M1118.7,115c1-0.6,1.8-1.6,2.2-2.7v-2.8h-5.4c-3.2,0-4.8,1.1-4.8,3.2c0,0.9,0.4,1.8,1.2,2.4
		c1,0.6,2.1,0.9,3.2,0.9C1116.4,116,1117.6,115.6,1118.7,115L1118.7,115z"/>
	<path class="st7" d="M1163.6,83.6v37.2h-7.5v-3.1c-1.9,2.3-4.7,3.5-8.4,3.5c-2.4,0-4.8-0.6-6.9-1.7c-2-1.1-3.7-2.8-4.8-4.9
		c-2.3-4.6-2.3-10,0-14.6c1.1-2.1,2.8-3.7,4.8-4.9c2.1-1.1,4.5-1.7,6.9-1.7c3-0.2,6,1,8.1,3.3V83.6H1163.6z M1154,112.8
		c2.6-3.2,2.6-7.7,0-10.9c-2.7-2.7-7.1-2.7-9.9,0c-2.6,3.2-2.6,7.7,0,10.9C1146.8,115.5,1151.2,115.5,1154,112.8z"/>
	<path class="st7" d="M1197.1,109.5h-20.4c0.3,1.6,1.3,3,2.6,4c1.5,1,3.3,1.5,5.1,1.5c1.3,0,2.5-0.2,3.7-0.6c1.1-0.4,2.2-1.1,3-2
		l4.2,4.5c-2.5,2.9-6.3,4.4-11.1,4.4c-2.8,0.1-5.6-0.6-8.1-1.8c-2.2-1.1-4.1-2.8-5.4-4.9c-1.3-2.2-1.9-4.6-1.9-7.2
		c0-2.5,0.6-5,1.9-7.1c1.2-2.1,3-3.8,5.2-5c4.5-2.3,9.9-2.4,14.5-0.1c2.1,1.1,3.9,2.8,5,4.9c1.3,2.3,1.9,4.8,1.8,7.4
		C1197.2,107.5,1197.2,108.2,1197.1,109.5z M1178.8,100.9c-1.2,1-2,2.5-2.2,4.1h13.3c-0.2-1.6-1-3-2.2-4.1c-1.2-1-2.8-1.6-4.4-1.5
		C1181.6,99.3,1180,99.8,1178.8,100.9L1178.8,100.9z"/>
	<path class="st7" d="M1245,96.4c2,2,3,5,3,8.9v15.4h-7.8v-14.2c0.1-1.7-0.3-3.4-1.3-4.8c-1-1.1-2.3-1.7-3.8-1.6
		c-1.6-0.1-3.2,0.6-4.4,1.8c-1.2,1.5-1.7,3.4-1.6,5.3v13.5h-7.8v-14.2c0-4.2-1.7-6.4-5.1-6.4c-1.6-0.1-3.2,0.6-4.3,1.8
		c-1.2,1.5-1.7,3.4-1.6,5.3v13.5h-7.8v-27h7.5v3.1c1-1.1,2.3-2,3.7-2.6c1.5-0.6,3.1-0.9,4.8-0.9c1.8,0,3.6,0.4,5.2,1.1
		c1.5,0.7,2.8,1.9,3.7,3.3c1.1-1.4,2.5-2.5,4.2-3.3c1.7-0.8,3.6-1.2,5.5-1.2C1240,93.3,1242.9,94.4,1245,96.4z"/>
	<path class="st7" d="M1255.4,88.8c-1.7-1.6-1.8-4.3-0.2-6c0.1-0.1,0.1-0.1,0.2-0.2c1-0.9,2.2-1.3,3.5-1.3c1.3-0.1,2.5,0.4,3.5,1.2
		c0.9,0.8,1.4,1.9,1.4,3c0,1.2-0.5,2.4-1.4,3.2c-1,0.9-2.2,1.3-3.5,1.3C1257.7,90.1,1256.4,89.7,1255.4,88.8z M1255,93.8h7.8v27
		h-7.8V93.8z"/>
	<path class="st7" d="M1275.4,119.4c-2.2-1.1-4.1-2.8-5.4-4.9c-4-6.4-2-14.8,4.4-18.7c0.3-0.2,0.6-0.4,1-0.6
		c2.4-1.2,5.1-1.8,7.7-1.8c2.6-0.1,5.2,0.6,7.4,1.8c2.1,1.1,3.7,2.9,4.6,5.1l-6.1,3.3c-1.1-2.3-3.5-3.8-6.1-3.7
		c-1.9-0.1-3.7,0.7-5.1,2c-2.7,3.2-2.7,7.8,0,10.9c1.3,1.3,3.2,2.1,5.1,2c2.6,0.1,4.9-1.4,6.1-3.7l6.1,3.3c-1,2.1-2.6,3.9-4.6,5
		c-2.3,1.2-4.8,1.9-7.4,1.8C1280.5,121.3,1277.8,120.6,1275.4,119.4z"/>
	<path class="st7" d="M1302.3,120.4c-1.8-0.4-3.5-1.1-5.1-2.1l2.6-5.6c1.4,0.8,2.8,1.5,4.4,1.9c1.6,0.5,3.3,0.7,5,0.7
		c3.3,0,5-0.8,5-2.5c0-0.8-0.6-1.5-1.4-1.7c-1.4-0.4-2.7-0.7-4.2-0.9c-1.8-0.3-3.7-0.6-5.5-1.2c-1.4-0.4-2.7-1.2-3.7-2.3
		c-1.1-1.3-1.7-3-1.6-4.7c0-1.6,0.5-3.2,1.5-4.5c1.1-1.4,2.6-2.5,4.3-3.1c2.1-0.8,4.4-1.2,6.7-1.1c1.9,0,3.8,0.2,5.7,0.6
		c1.6,0.3,3.2,0.9,4.7,1.7l-2.6,5.6c-2.4-1.3-5.1-2-7.8-2c-1.3-0.1-2.6,0.2-3.8,0.7c-0.7,0.3-1.2,1-1.3,1.8c0,0.8,0.6,1.6,1.4,1.8
		c1.4,0.4,2.8,0.8,4.3,1c1.8,0.3,3.6,0.7,5.4,1.2c1.4,0.4,2.7,1.2,3.7,2.3c1.1,1.3,1.7,2.9,1.6,4.6c0,1.6-0.5,3.2-1.5,4.5
		c-1.1,1.4-2.7,2.5-4.4,3c-2.2,0.8-4.5,1.1-6.8,1.1C1306.6,121.2,1304.4,120.9,1302.3,120.4z"/>
	<path class="st7" d="M1361.1,96.4c2.2,2,3.4,5,3.4,9v15.4h-7.3v-3.4c-1.5,2.5-4.2,3.8-8.2,3.8c-1.9,0-3.7-0.3-5.4-1.1
		c-1.4-0.6-2.6-1.6-3.5-2.9c-0.8-1.3-1.2-2.7-1.2-4.2c-0.1-2.3,1-4.5,2.8-5.9c1.9-1.4,4.8-2.2,8.7-2.2h6.2c0.1-1.5-0.5-2.9-1.6-3.9
		c-1.3-1-3-1.5-4.7-1.4c-1.4,0-2.9,0.2-4.2,0.7c-1.3,0.4-2.5,1-3.5,1.8l-2.8-5.5c1.6-1.1,3.4-1.9,5.3-2.4c2.1-0.6,4.2-0.9,6.3-0.9
		C1355.6,93.4,1358.8,94.4,1361.1,96.4z M1354.4,115c1-0.6,1.8-1.6,2.2-2.7v-2.8h-5.4c-3.2,0-4.8,1.1-4.8,3.2c0,0.9,0.4,1.8,1.2,2.4
		c1,0.6,2.1,0.9,3.2,0.9C1352.1,116,1353.3,115.6,1354.4,115L1354.4,115z"/>
	<path class="st7" d="M1396,96.4c2.1,2,3.1,5,3.1,8.9v15.4h-7.8v-14.2c0.1-1.7-0.4-3.4-1.4-4.8c-1.1-1.1-2.5-1.7-4.1-1.6
		c-1.8-0.1-3.5,0.6-4.7,1.8c-1.3,1.5-1.9,3.5-1.8,5.4v13.3h-7.8v-27h7.5V97c1.1-1.2,2.4-2.1,3.9-2.6c1.6-0.6,3.3-0.9,5.1-0.9
		C1390.9,93.3,1393.8,94.4,1396,96.4z"/>
	<path class="st7" d="M1433.9,83.6v37.2h-7.5v-3.1c-1.9,2.3-4.7,3.5-8.4,3.5c-2.4,0-4.8-0.6-6.9-1.7c-2-1.1-3.7-2.8-4.8-4.9
		c-2.3-4.6-2.3-10,0-14.6c1.1-2.1,2.8-3.7,4.8-4.9c2.1-1.1,4.5-1.7,6.9-1.7c3-0.2,6,1,8.1,3.3V83.6H1433.9z M1424.3,112.8
		c2.6-3.2,2.6-7.7,0-10.9c-2.7-2.7-7.1-2.7-9.9,0c-2.6,3.2-2.6,7.7,0,10.9C1417.2,115.5,1421.6,115.5,1424.3,112.8z"/>
	<path class="st7" d="M1463,119.1c-2.8-1.5-5.2-3.7-6.8-6.5c-3.3-5.8-3.3-12.9,0-18.7c1.6-2.7,4-5,6.8-6.5c5.6-2.8,12.2-3.1,18-0.7
		c2.4,1,4.5,2.6,6.2,4.6l-5.2,4.8c-2.2-2.6-5.4-4.2-8.8-4.1c-2,0-4,0.5-5.8,1.4c-1.7,0.9-3.1,2.3-4,4c-1.9,3.6-1.9,8,0,11.6
		c0.9,1.7,2.3,3.1,4,4c1.8,1,3.8,1.5,5.8,1.4c3.4,0,6.7-1.5,8.8-4.2l5.2,4.8c-1.7,2-3.8,3.6-6.2,4.7c-2.6,1.1-5.4,1.6-8.3,1.6
		C1469.3,121.5,1466,120.7,1463,119.1z"/>
	<path class="st7" d="M1492.5,88.8c-1.7-1.6-1.8-4.3-0.2-6c0.1-0.1,0.1-0.1,0.2-0.2c1-0.9,2.2-1.3,3.5-1.3c1.3-0.1,2.5,0.4,3.5,1.2
		c0.9,0.8,1.4,1.9,1.4,3c0,1.2-0.5,2.4-1.4,3.2c-1,0.9-2.2,1.3-3.5,1.3C1494.7,90.1,1493.4,89.7,1492.5,88.8z M1492.1,93.8h7.8v27
		h-7.8V93.8z"/>
	<path class="st7" d="M1524.6,119.5c-0.9,0.6-1.8,1-2.8,1.3c-1.2,0.3-2.3,0.4-3.5,0.4c-3.2,0-5.7-0.8-7.4-2.5
		c-1.8-1.6-2.6-4-2.6-7.2v-11.1h-4.2v-6h4.2v-6.6h7.8v6.6h6.7v6h-6.7v11c-0.1,1,0.3,1.9,0.9,2.6c0.7,0.6,1.6,1,2.5,0.9
		c1.1,0,2.2-0.3,3.2-1L1524.6,119.5z"/>
	<path class="st7" d="M1555.3,93.8l-12.2,28.6c-1.2,3.1-2.8,5.3-4.6,6.6c-1.9,1.3-4.2,2-6.6,1.9c-1.4,0-2.8-0.2-4.2-0.7
		c-1.2-0.4-2.4-1-3.4-1.8l2.9-5.6c0.6,0.5,1.3,1,2.1,1.3c0.7,0.3,1.5,0.4,2.3,0.5c0.9,0,1.8-0.2,2.6-0.8c0.8-0.7,1.4-1.6,1.8-2.6
		l0.1-0.3l-11.7-27.2h8.1l7.6,18.3l7.6-18.3L1555.3,93.8z"/>
</g>
<g>
	<path class="st7" d="M521.2,142.6h8.1v35.1h-8.1V142.6z"/>
	<path class="st7" d="M561.5,153.3c2.1,2,3.1,5,3.1,8.9v15.4h-7.8v-14.2c0.1-1.7-0.4-3.4-1.4-4.8c-1.1-1.1-2.5-1.7-4.1-1.6
		c-1.8-0.1-3.5,0.6-4.7,1.8c-1.3,1.5-1.9,3.5-1.8,5.4v13.3h-7.8v-27h7.5v3.2c1.1-1.2,2.4-2.1,3.9-2.6c1.6-0.6,3.3-0.9,5.1-0.9
		C556.4,150.2,559.4,151.3,561.5,153.3z"/>
	<path class="st7" d="M589.1,176.4c-0.9,0.6-1.8,1-2.8,1.3c-1.2,0.3-2.3,0.4-3.5,0.4c-3.2,0-5.7-0.8-7.4-2.5s-2.6-4-2.6-7.2v-11.1
		h-4.2v-6h4.2v-6.6h7.8v6.6h6.7v6h-6.7v11c-0.1,1,0.3,1.9,0.9,2.6c0.7,0.6,1.6,1,2.5,0.9c1.1,0,2.2-0.3,3.2-1L589.1,176.4z"/>
	<path class="st7" d="M618.9,166.4h-20.4c0.3,1.6,1.3,3,2.6,4c1.5,1,3.3,1.5,5.1,1.5c1.3,0,2.5-0.2,3.7-0.6c1.1-0.4,2.2-1.1,3-2
		l4.2,4.5c-2.5,2.9-6.2,4.4-11.1,4.4c-2.8,0.1-5.6-0.6-8.1-1.8c-2.2-1.1-4.1-2.8-5.4-4.9c-1.3-2.2-1.9-4.6-1.9-7.2
		c0-2.5,0.6-5,1.9-7.1c1.2-2.1,3-3.8,5.2-5c4.5-2.3,9.9-2.4,14.5-0.1c2.1,1.1,3.9,2.8,5,4.9c1.3,2.3,1.9,4.8,1.8,7.4
		C619.1,164.4,619,165.1,618.9,166.4z M600.6,157.7c-1.2,1-2,2.5-2.2,4.1h13.3c-0.2-1.6-1-3-2.2-4.1c-1.2-1-2.8-1.6-4.4-1.5
		C603.5,156.2,601.9,156.7,600.6,157.7z"/>
	<path class="st7" d="M635.5,151.3c1.7-0.7,3.6-1,5.5-1v7.2c-0.9-0.1-1.5-0.1-1.8-0.1c-1.9-0.1-3.8,0.6-5.3,1.9
		c-1.3,1.3-1.9,3.1-1.9,5.6v12.7h-7.8v-27h7.5v3.6C632.7,153,634,151.9,635.5,151.3z"/>
	<path class="st7" d="M654.5,151.3h6.9v6h-6.7v20.4h-7.8v-20.4h-4.2v-6h4.2v-1.2c-0.1-2.7,0.9-5.4,2.7-7.3c1.8-1.8,4.4-2.7,7.7-2.7
		c1.1,0,2.2,0.1,3.3,0.4c0.9,0.2,1.8,0.6,2.6,1.1l-2.1,5.7c-0.9-0.6-2-1-3.2-1c-2.4,0-3.6,1.3-3.6,3.9L654.5,151.3z"/>
	<path class="st7" d="M685.3,153.3c2.2,2,3.4,5,3.4,9v15.4h-7.3v-3.4c-1.5,2.5-4.2,3.8-8.2,3.8c-1.9,0-3.7-0.3-5.4-1.1
		c-1.4-0.6-2.6-1.6-3.5-2.9c-0.8-1.3-1.2-2.7-1.2-4.2c-0.1-2.3,1-4.5,2.8-5.9c1.9-1.4,4.8-2.2,8.7-2.2h6.2c0.1-1.5-0.5-2.9-1.6-3.9
		c-1.3-1-3-1.5-4.7-1.4c-1.4,0-2.9,0.2-4.2,0.7c-1.3,0.4-2.5,1-3.5,1.8l-2.8-5.5c1.6-1.1,3.4-1.9,5.3-2.4c2.1-0.6,4.2-0.9,6.3-0.9
		C679.9,150.3,683.1,151.3,685.3,153.3z M678.6,171.9c1-0.6,1.8-1.6,2.2-2.7v-2.8h-5.4c-3.2,0-4.8,1.1-4.8,3.2
		c0,0.9,0.4,1.8,1.2,2.4c1,0.6,2.1,0.9,3.2,0.9C676.3,172.9,677.6,172.5,678.6,171.9L678.6,171.9z"/>
	<path class="st7" d="M701.3,176.3c-2.2-1.1-4.1-2.8-5.4-4.9c-2.6-4.4-2.6-9.9,0-14.3c1.3-2.1,3.2-3.8,5.4-4.9
		c2.4-1.2,5.1-1.8,7.7-1.8c2.6-0.1,5.2,0.6,7.4,1.8c2.1,1.1,3.7,2.9,4.6,5.1l-6.1,3.3c-1.1-2.3-3.5-3.8-6.1-3.7
		c-1.9-0.1-3.7,0.7-5.1,2c-2.7,3.2-2.7,7.8,0,10.9c1.3,1.3,3.2,2.1,5.1,2c2.6,0.1,4.9-1.4,6.1-3.7l6.1,3.3c-1,2.1-2.6,3.9-4.6,5
		c-2.3,1.2-4.8,1.9-7.4,1.8C706.4,178.1,703.7,177.5,701.3,176.3z"/>
	<path class="st7" d="M751.6,166.4h-20.4c0.3,1.6,1.3,3,2.6,4c1.5,1,3.3,1.5,5.1,1.5c1.3,0,2.5-0.2,3.7-0.6c1.1-0.4,2.2-1.1,3-2
		l4.2,4.5c-2.5,2.9-6.2,4.4-11.1,4.4c-2.8,0.1-5.6-0.6-8.1-1.8c-2.2-1.1-4.1-2.8-5.4-4.9c-1.3-2.2-1.9-4.6-1.9-7.2
		c0-2.5,0.6-5,1.9-7.1c1.2-2.1,3-3.8,5.2-5c4.5-2.3,9.9-2.4,14.5-0.1c2.1,1.1,3.9,2.8,5,4.9c1.3,2.3,1.9,4.8,1.8,7.4
		C751.7,164.4,751.7,165.1,751.6,166.4z M733.3,157.7c-1.2,1-2,2.5-2.2,4.1h13.3c-0.2-1.6-1-3-2.2-4.1c-1.2-1-2.8-1.6-4.4-1.5
		C736.1,156.2,734.5,156.7,733.3,157.7L733.3,157.7z"/>
</g>
<line class="st8" x1="516.6" y1="205.2" x2="1661.5" y2="205.2"/>
<g>
	<path class="st7" d="M527.2,250.3h-8.9v-3.2h21.4v3.2h-8.9V273h-3.7V250.3z"/>
	<path class="st7" d="M559.6,255.4c1.5,1.4,2.2,3.6,2.2,6.3V273h-3.6v-10.9c0-1.9-0.5-3.3-1.4-4.3c-0.9-1-2.2-1.4-3.9-1.4
		c-1.9,0-3.4,0.6-4.6,1.7c-1.1,1.1-1.7,2.7-1.7,4.8V273h-3.6v-27.5h3.6v10.6c0.7-0.9,1.7-1.7,2.9-2.2c1.2-0.5,2.5-0.8,4-0.8
		C556.2,253.2,558.2,253.9,559.6,255.4z"/>
	<path class="st7" d="M586.2,264.4h-15.9c0.2,1.7,1,3.1,2.3,4.2s2.9,1.6,4.8,1.6c2.3,0,4.2-0.8,5.7-2.4l2,2.3c-0.9,1-2,1.8-3.3,2.4
		c-1.3,0.5-2.8,0.8-4.4,0.8c-2.1,0-3.9-0.4-5.5-1.3c-1.6-0.9-2.8-2-3.7-3.6c-0.9-1.5-1.3-3.3-1.3-5.2c0-1.9,0.4-3.6,1.3-5.1
		c0.9-1.5,2-2.7,3.5-3.6c1.5-0.9,3.2-1.3,5.1-1.3c1.9,0,3.5,0.4,5,1.3c1.5,0.9,2.6,2,3.4,3.6c0.8,1.5,1.2,3.3,1.2,5.3
		C586.3,263.6,586.2,263.9,586.2,264.4z M572.3,257.7c-1.1,1-1.8,2.4-2,4.1h12.6c-0.2-1.7-0.9-3-2-4.1c-1.1-1-2.6-1.6-4.3-1.6
		S573.4,256.7,572.3,257.7z"/>
	<path class="st7" d="M604.3,271.9c-1.6-0.9-2.8-2.1-3.7-3.6c-0.9-1.5-1.3-3.2-1.3-5.2s0.4-3.6,1.3-5.2c0.9-1.5,2.1-2.7,3.7-3.6
		c1.6-0.9,3.3-1.3,5.3-1.3c1.8,0,3.4,0.4,4.8,1.1c1.4,0.7,2.5,1.8,3.2,3.1l-2.7,1.7c-0.6-0.9-1.4-1.6-2.3-2.1
		c-0.9-0.5-1.9-0.7-3-0.7c-1.3,0-2.4,0.3-3.5,0.9c-1,0.6-1.8,1.4-2.4,2.4c-0.6,1-0.9,2.3-0.9,3.6c0,1.4,0.3,2.6,0.9,3.6
		c0.6,1,1.4,1.9,2.4,2.4c1,0.6,2.2,0.9,3.5,0.9c1.1,0,2.1-0.2,3-0.7c0.9-0.5,1.7-1.2,2.3-2.1l2.7,1.7c-0.8,1.4-1.8,2.4-3.2,3.1
		c-1.4,0.7-3,1.1-4.8,1.1C607.7,273.2,605.9,272.8,604.3,271.9z"/>
	<path class="st7" d="M638.4,255.4c1.5,1.4,2.2,3.6,2.2,6.3V273h-3.6v-10.9c0-1.9-0.5-3.3-1.4-4.3c-0.9-1-2.2-1.4-3.9-1.4
		c-1.9,0-3.4,0.6-4.6,1.7c-1.1,1.1-1.7,2.7-1.7,4.8V273H622v-27.5h3.6v10.6c0.7-0.9,1.7-1.7,2.9-2.2c1.2-0.5,2.5-0.8,4-0.8
		C635,253.2,637,253.9,638.4,255.4z"/>
	<path class="st7" d="M660.6,255.2c1.4,1.3,2.2,3.3,2.2,6V273h-3.4v-2.6c-0.6,0.9-1.4,1.6-2.5,2.1c-1.1,0.5-2.4,0.7-3.9,0.7
		c-2.2,0-4-0.5-5.3-1.6c-1.3-1.1-2-2.5-2-4.2s0.6-3.1,1.9-4.2c1.3-1,3.3-1.6,6-1.6h5.6V261c0-1.5-0.4-2.7-1.3-3.5
		c-0.9-0.8-2.2-1.2-3.9-1.2c-1.2,0-2.3,0.2-3.4,0.6c-1.1,0.4-2,0.9-2.8,1.5l-1.5-2.7c1-0.8,2.2-1.4,3.6-1.9c1.4-0.4,2.9-0.6,4.5-0.6
		C657.1,253.2,659.1,253.9,660.6,255.2z M657,269.6c1-0.6,1.7-1.5,2.1-2.6v-2.7h-5.5c-3,0-4.5,1-4.5,3c0,1,0.4,1.8,1.1,2.3
		c0.8,0.6,1.8,0.9,3.2,0.9C654.9,270.5,656.1,270.2,657,269.6z"/>
	<path class="st7" d="M669.3,245.5h3.6V273h-3.6V245.5z"/>
	<path class="st7" d="M679.7,245.5h3.6V273h-3.6V245.5z"/>
	<path class="st7" d="M707.6,264.4h-15.9c0.2,1.7,1,3.1,2.3,4.2s2.9,1.6,4.8,1.6c2.3,0,4.2-0.8,5.7-2.4l2,2.3c-0.9,1-2,1.8-3.3,2.4
		c-1.3,0.5-2.8,0.8-4.4,0.8c-2.1,0-3.9-0.4-5.5-1.3c-1.6-0.9-2.8-2-3.7-3.6c-0.9-1.5-1.3-3.3-1.3-5.2c0-1.9,0.4-3.6,1.3-5.1
		c0.9-1.5,2-2.7,3.5-3.6c1.5-0.9,3.2-1.3,5.1-1.3c1.9,0,3.5,0.4,5,1.3c1.5,0.9,2.6,2,3.4,3.6c0.8,1.5,1.2,3.3,1.2,5.3
		C707.7,263.6,707.7,263.9,707.6,264.4z M693.7,257.7c-1.1,1-1.8,2.4-2,4.1h12.6c-0.2-1.7-0.9-3-2-4.1c-1.1-1-2.6-1.6-4.3-1.6
		S694.9,256.7,693.7,257.7z"/>
	<path class="st7" d="M729,255.4c1.5,1.4,2.2,3.6,2.2,6.3V273h-3.6v-10.9c0-1.9-0.5-3.3-1.4-4.3c-0.9-1-2.2-1.4-3.9-1.4
		c-1.9,0-3.4,0.6-4.6,1.7c-1.1,1.1-1.7,2.7-1.7,4.8V273h-3.6v-19.6h3.4v3c0.7-1,1.7-1.8,2.9-2.3c1.2-0.5,2.6-0.8,4.2-0.8
		C725.6,253.2,727.6,253.9,729,255.4z"/>
	<path class="st7" d="M756.7,253.4v16.9c0,3.4-0.9,6-2.6,7.6c-1.7,1.6-4.2,2.5-7.6,2.5c-1.9,0-3.6-0.3-5.3-0.8
		c-1.7-0.5-3-1.2-4.1-2.2l1.7-2.7c0.9,0.8,2,1.4,3.4,1.9c1.3,0.5,2.7,0.7,4.2,0.7c2.3,0,4-0.5,5.1-1.6c1.1-1.1,1.6-2.7,1.6-5v-1.6
		c-0.8,1-1.9,1.8-3.1,2.3c-1.2,0.5-2.5,0.8-4,0.8c-1.9,0-3.6-0.4-5.1-1.2c-1.5-0.8-2.7-1.9-3.6-3.4c-0.9-1.4-1.3-3.1-1.3-4.9
		c0-1.8,0.4-3.5,1.3-4.9c0.9-1.4,2.1-2.6,3.6-3.3s3.2-1.2,5.1-1.2c1.5,0,2.9,0.3,4.1,0.8s2.3,1.3,3.1,2.4v-3H756.7z M749.9,268.3
		c1-0.5,1.8-1.3,2.4-2.3c0.6-1,0.9-2.1,0.9-3.3c0-1.9-0.6-3.4-1.9-4.6c-1.3-1.2-2.9-1.8-4.8-1.8c-2,0-3.6,0.6-4.9,1.8
		c-1.3,1.2-1.9,2.7-1.9,4.6c0,1.2,0.3,2.3,0.9,3.3c0.6,1,1.4,1.7,2.4,2.3c1,0.5,2.2,0.8,3.5,0.8
		C747.8,269.1,748.9,268.8,749.9,268.3z"/>
	<path class="st7" d="M781.1,264.4h-15.9c0.2,1.7,1,3.1,2.3,4.2s2.9,1.6,4.8,1.6c2.3,0,4.2-0.8,5.7-2.4l2,2.3c-0.9,1-2,1.8-3.3,2.4
		c-1.3,0.5-2.8,0.8-4.4,0.8c-2.1,0-3.9-0.4-5.5-1.3c-1.6-0.9-2.8-2-3.7-3.6c-0.9-1.5-1.3-3.3-1.3-5.2c0-1.9,0.4-3.6,1.3-5.1
		c0.9-1.5,2-2.7,3.5-3.6c1.5-0.9,3.2-1.3,5.1-1.3c1.9,0,3.5,0.4,5,1.3c1.5,0.9,2.6,2,3.4,3.6c0.8,1.5,1.2,3.3,1.2,5.3
		C781.2,263.6,781.2,263.9,781.1,264.4z M767.2,257.7c-1.1,1-1.8,2.4-2,4.1h12.6c-0.2-1.7-0.9-3-2-4.1c-1.1-1-2.6-1.6-4.3-1.6
		S768.4,256.7,767.2,257.7z"/>
	<path class="st7" d="M825.7,253.4l-7.3,19.6H815l-5.7-14.9l-5.7,14.9h-3.4l-7.3-19.6h3.4L802,269l5.9-15.6h3l5.8,15.7l5.8-15.7
		H825.7z"/>
	<path class="st7" d="M829.4,248.9c-0.5-0.4-0.7-1-0.7-1.6c0-0.6,0.2-1.2,0.7-1.6c0.5-0.5,1-0.7,1.7-0.7c0.7,0,1.3,0.2,1.7,0.6
		s0.7,1,0.7,1.6c0,0.7-0.2,1.2-0.7,1.7c-0.5,0.5-1,0.7-1.7,0.7C830.4,249.6,829.8,249.4,829.4,248.9z M829.3,253.4h3.6V273h-3.6
		V253.4z"/>
	<path class="st7" d="M839.6,245.5h3.6V273h-3.6V245.5z"/>
	<path class="st7" d="M850,245.5h3.6V273H850V245.5z"/>
	<path class="st7" d="M887.9,264.4H872c0.2,1.7,1,3.1,2.3,4.2s2.9,1.6,4.8,1.6c2.3,0,4.2-0.8,5.7-2.4l2,2.3c-0.9,1-2,1.8-3.3,2.4
		c-1.3,0.5-2.8,0.8-4.4,0.8c-2.1,0-3.9-0.4-5.5-1.3c-1.6-0.9-2.8-2-3.7-3.6c-0.9-1.5-1.3-3.3-1.3-5.2c0-1.9,0.4-3.6,1.3-5.1
		c0.9-1.5,2-2.7,3.5-3.6c1.5-0.9,3.2-1.3,5.1-1.3c1.9,0,3.5,0.4,5,1.3c1.5,0.9,2.6,2,3.4,3.6c0.8,1.5,1.2,3.3,1.2,5.3
		C888,263.6,887.9,263.9,887.9,264.4z M874,257.7c-1.1,1-1.8,2.4-2,4.1h12.6c-0.2-1.7-0.9-3-2-4.1c-1.1-1-2.6-1.6-4.3-1.6
		S875.1,256.7,874,257.7z"/>
	<path class="st7" d="M909.3,255.4c1.5,1.4,2.2,3.6,2.2,6.3V273h-3.6v-10.9c0-1.9-0.5-3.3-1.4-4.3s-2.2-1.4-3.9-1.4
		c-1.9,0-3.4,0.6-4.6,1.7c-1.1,1.1-1.7,2.7-1.7,4.8V273h-3.6v-19.6h3.4v3c0.7-1,1.7-1.8,2.9-2.3s2.6-0.8,4.2-0.8
		C905.8,253.2,907.8,253.9,909.3,255.4z"/>
	<path class="st7" d="M936.9,253.4v16.9c0,3.4-0.9,6-2.6,7.6c-1.7,1.6-4.2,2.5-7.6,2.5c-1.8,0-3.6-0.3-5.3-0.8s-3-1.2-4.1-2.2
		l1.7-2.7c0.9,0.8,2,1.4,3.4,1.9s2.7,0.7,4.2,0.7c2.3,0,4-0.5,5.1-1.6c1.1-1.1,1.6-2.7,1.6-5v-1.6c-0.8,1-1.9,1.8-3.1,2.3
		c-1.2,0.5-2.5,0.8-4,0.8c-1.9,0-3.6-0.4-5.1-1.2c-1.5-0.8-2.7-1.9-3.6-3.4c-0.9-1.4-1.3-3.1-1.3-4.9c0-1.8,0.4-3.5,1.3-4.9
		c0.9-1.4,2.1-2.6,3.6-3.3s3.2-1.2,5.1-1.2c1.5,0,2.9,0.3,4.1,0.8s2.3,1.3,3.1,2.4v-3H936.9z M930.2,268.3c1-0.5,1.8-1.3,2.4-2.3
		c0.6-1,0.9-2.1,0.9-3.3c0-1.9-0.6-3.4-1.9-4.6c-1.3-1.2-2.9-1.8-4.8-1.8c-2,0-3.6,0.6-4.9,1.8c-1.3,1.2-1.9,2.7-1.9,4.6
		c0,1.2,0.3,2.3,0.9,3.3c0.6,1,1.4,1.7,2.4,2.3c1,0.5,2.2,0.8,3.5,0.8C928,269.1,929.2,268.8,930.2,268.3z"/>
	<path class="st7" d="M957.1,255.2c1.4,1.3,2.2,3.3,2.2,6V273h-3.4v-2.6c-0.6,0.9-1.4,1.6-2.5,2.1c-1.1,0.5-2.4,0.7-3.9,0.7
		c-2.2,0-4-0.5-5.3-1.6c-1.3-1.1-2-2.5-2-4.2s0.6-3.1,1.9-4.2c1.3-1,3.3-1.6,6-1.6h5.6V261c0-1.5-0.4-2.7-1.3-3.5
		c-0.9-0.8-2.2-1.2-3.9-1.2c-1.2,0-2.3,0.2-3.4,0.6c-1.1,0.4-2,0.9-2.8,1.5l-1.5-2.7c1-0.8,2.2-1.4,3.6-1.9c1.4-0.4,2.9-0.6,4.5-0.6
		C953.6,253.2,955.7,253.9,957.1,255.2z M953.6,269.6c1-0.6,1.7-1.5,2.1-2.6v-2.7h-5.5c-3,0-4.5,1-4.5,3c0,1,0.4,1.8,1.1,2.3
		c0.8,0.6,1.8,0.9,3.2,0.9S952.6,270.2,953.6,269.6z"/>
	<path class="st7" d="M984.7,253.4v16.9c0,3.4-0.9,6-2.6,7.6c-1.7,1.6-4.2,2.5-7.6,2.5c-1.8,0-3.6-0.3-5.3-0.8s-3-1.2-4.1-2.2
		l1.7-2.7c0.9,0.8,2,1.4,3.4,1.9s2.7,0.7,4.2,0.7c2.3,0,4-0.5,5.1-1.6c1.1-1.1,1.6-2.7,1.6-5v-1.6c-0.8,1-1.9,1.8-3.1,2.3
		c-1.2,0.5-2.5,0.8-4,0.8c-1.9,0-3.6-0.4-5.1-1.2c-1.5-0.8-2.7-1.9-3.6-3.4c-0.9-1.4-1.3-3.1-1.3-4.9c0-1.8,0.4-3.5,1.3-4.9
		c0.9-1.4,2.1-2.6,3.6-3.3s3.2-1.2,5.1-1.2c1.5,0,2.9,0.3,4.1,0.8s2.3,1.3,3.1,2.4v-3H984.7z M978,268.3c1-0.5,1.8-1.3,2.4-2.3
		c0.6-1,0.9-2.1,0.9-3.3c0-1.9-0.6-3.4-1.9-4.6c-1.3-1.2-2.9-1.8-4.8-1.8c-2,0-3.6,0.6-4.9,1.8c-1.3,1.2-1.9,2.7-1.9,4.6
		c0,1.2,0.3,2.3,0.9,3.3c0.6,1,1.4,1.7,2.4,2.3c1,0.5,2.2,0.8,3.5,0.8C975.8,269.1,976.9,268.8,978,268.3z"/>
	<path class="st7" d="M1009.1,264.4h-15.9c0.2,1.7,1,3.1,2.3,4.2s2.9,1.6,4.8,1.6c2.3,0,4.2-0.8,5.7-2.4l2,2.3c-0.9,1-2,1.8-3.3,2.4
		c-1.3,0.5-2.8,0.8-4.4,0.8c-2.1,0-3.9-0.4-5.5-1.3c-1.6-0.9-2.8-2-3.7-3.6c-0.9-1.5-1.3-3.3-1.3-5.2c0-1.9,0.4-3.6,1.3-5.1
		c0.9-1.5,2-2.7,3.5-3.6c1.5-0.9,3.2-1.3,5.1-1.3s3.5,0.4,5,1.3c1.5,0.9,2.6,2,3.4,3.6c0.8,1.5,1.2,3.3,1.2,5.3
		C1009.2,263.6,1009.2,263.9,1009.1,264.4z M995.2,257.7c-1.1,1-1.8,2.4-2,4.1h12.6c-0.2-1.7-0.9-3-2-4.1c-1.1-1-2.6-1.6-4.3-1.6
		S996.4,256.7,995.2,257.7z"/>
	<path class="st7" d="M1025.1,272.6c-1.5-0.4-2.6-1-3.5-1.6l1.5-2.8c0.9,0.6,1.9,1.1,3.1,1.5c1.2,0.4,2.5,0.6,3.7,0.6
		c3.1,0,4.7-0.9,4.7-2.7c0-0.6-0.2-1.1-0.6-1.4c-0.4-0.3-0.9-0.6-1.6-0.8c-0.6-0.2-1.5-0.3-2.7-0.5c-1.6-0.2-2.9-0.5-3.9-0.9
		c-1-0.3-1.9-0.9-2.6-1.6s-1.1-1.8-1.1-3.2c0-1.8,0.7-3.2,2.2-4.3c1.5-1.1,3.5-1.6,6-1.6c1.3,0,2.6,0.2,3.9,0.5s2.4,0.8,3.2,1.3
		l-1.5,2.8c-1.6-1-3.5-1.6-5.7-1.6c-1.5,0-2.7,0.2-3.4,0.7s-1.2,1.1-1.2,2c0,0.6,0.2,1.1,0.7,1.5s1,0.6,1.6,0.8
		c0.7,0.2,1.6,0.4,2.8,0.6c1.6,0.3,2.9,0.6,3.8,0.9c1,0.3,1.8,0.8,2.5,1.6c0.7,0.7,1,1.8,1,3.1c0,1.8-0.8,3.2-2.3,4.2
		c-1.5,1-3.6,1.6-6.2,1.6C1028.1,273.2,1026.6,273,1025.1,272.6z"/>
	<path class="st7" d="M1053.6,271.8c-0.5,0.4-1.2,0.8-1.9,1c-0.8,0.2-1.6,0.4-2.4,0.4c-2,0-3.5-0.5-4.6-1.6
		c-1.1-1.1-1.6-2.6-1.6-4.6v-10.8h-3.3v-2.9h3.3v-4.3h3.6v4.3h5.6v2.9h-5.6v10.6c0,1.1,0.3,1.9,0.8,2.4c0.5,0.6,1.3,0.9,2.3,0.9
		c1.1,0,2-0.3,2.8-0.9L1053.6,271.8z"/>
	<path class="st7" d="M1076.2,253.4V273h-3.4v-3c-0.7,1-1.7,1.8-2.8,2.3c-1.2,0.6-2.4,0.8-3.8,0.8c-2.6,0-4.7-0.7-6.2-2.2
		c-1.5-1.4-2.3-3.6-2.3-6.4v-11.3h3.6v10.9c0,1.9,0.5,3.3,1.4,4.3c0.9,1,2.2,1.5,3.9,1.5c1.9,0,3.4-0.6,4.4-1.7
		c1.1-1.1,1.6-2.7,1.6-4.8v-10.1H1076.2z"/>
	<path class="st7" d="M1101.5,245.5V273h-3.4v-3.1c-0.8,1.1-1.8,1.9-3,2.5s-2.5,0.9-4,0.9c-1.9,0-3.6-0.4-5.1-1.3
		c-1.5-0.8-2.7-2-3.5-3.5c-0.9-1.5-1.3-3.3-1.3-5.2s0.4-3.7,1.3-5.2c0.9-1.5,2-2.7,3.5-3.5c1.5-0.8,3.2-1.3,5.1-1.3
		c1.4,0,2.7,0.3,3.9,0.8c1.2,0.5,2.2,1.3,3,2.3v-10.8H1101.5z M1094.8,269.2c1-0.6,1.8-1.4,2.4-2.4c0.6-1,0.9-2.3,0.9-3.6
		s-0.3-2.6-0.9-3.6c-0.6-1-1.4-1.9-2.4-2.4c-1-0.6-2.1-0.9-3.4-0.9c-1.3,0-2.4,0.3-3.4,0.9c-1,0.6-1.8,1.4-2.4,2.4
		c-0.6,1-0.9,2.3-0.9,3.6s0.3,2.6,0.9,3.6c0.6,1,1.4,1.9,2.4,2.4c1,0.6,2.1,0.9,3.4,0.9C1092.6,270.1,1093.7,269.8,1094.8,269.2z"/>
	<path class="st7" d="M1125.9,264.4H1110c0.2,1.7,1,3.1,2.3,4.2s2.9,1.6,4.8,1.6c2.3,0,4.2-0.8,5.7-2.4l2,2.3c-0.9,1-2,1.8-3.3,2.4
		c-1.3,0.5-2.8,0.8-4.4,0.8c-2.1,0-3.9-0.4-5.5-1.3c-1.6-0.9-2.8-2-3.7-3.6c-0.9-1.5-1.3-3.3-1.3-5.2c0-1.9,0.4-3.6,1.3-5.1
		c0.9-1.5,2-2.7,3.5-3.6c1.5-0.9,3.2-1.3,5-1.3c1.9,0,3.5,0.4,5,1.3c1.5,0.9,2.6,2,3.4,3.6c0.8,1.5,1.2,3.3,1.2,5.3
		C1125.9,263.6,1125.9,263.9,1125.9,264.4z M1112,257.7c-1.1,1-1.8,2.4-2,4.1h12.6c-0.2-1.7-0.9-3-2-4.1c-1.1-1-2.6-1.6-4.3-1.6
		S1113.1,256.7,1112,257.7z"/>
	<path class="st7" d="M1147.3,255.4c1.5,1.4,2.2,3.6,2.2,6.3V273h-3.6v-10.9c0-1.9-0.5-3.3-1.4-4.3c-0.9-1-2.2-1.4-3.9-1.4
		c-1.9,0-3.4,0.6-4.6,1.7c-1.1,1.1-1.7,2.7-1.7,4.8V273h-3.6v-19.6h3.4v3c0.7-1,1.7-1.8,2.9-2.3c1.2-0.5,2.6-0.8,4.2-0.8
		C1143.8,253.2,1145.8,253.9,1147.3,255.4z"/>
	<path class="st7" d="M1167.1,271.8c-0.5,0.4-1.2,0.8-1.9,1c-0.8,0.2-1.6,0.4-2.4,0.4c-2,0-3.5-0.5-4.6-1.6
		c-1.1-1.1-1.6-2.6-1.6-4.6v-10.8h-3.3v-2.9h3.3v-4.3h3.6v4.3h5.6v2.9h-5.6v10.6c0,1.1,0.3,1.9,0.8,2.4c0.5,0.6,1.3,0.9,2.3,0.9
		c1.1,0,2-0.3,2.8-0.9L1167.1,271.8z"/>
	<path class="st7" d="M1172.4,272.6c-1.5-0.4-2.6-1-3.5-1.6l1.5-2.8c0.9,0.6,1.9,1.1,3.1,1.5c1.2,0.4,2.5,0.6,3.7,0.6
		c3.1,0,4.7-0.9,4.7-2.7c0-0.6-0.2-1.1-0.6-1.4c-0.4-0.3-0.9-0.6-1.6-0.8c-0.6-0.2-1.5-0.3-2.7-0.5c-1.6-0.2-2.9-0.5-3.9-0.9
		s-1.9-0.9-2.6-1.6c-0.7-0.8-1.1-1.8-1.1-3.2c0-1.8,0.7-3.2,2.2-4.3c1.5-1.1,3.5-1.6,6-1.6c1.3,0,2.6,0.2,3.9,0.5s2.4,0.8,3.2,1.3
		l-1.5,2.8c-1.6-1-3.5-1.6-5.7-1.6c-1.5,0-2.7,0.2-3.4,0.7c-0.8,0.5-1.2,1.1-1.2,2c0,0.6,0.2,1.1,0.7,1.5c0.4,0.4,1,0.6,1.6,0.8
		c0.7,0.2,1.6,0.4,2.8,0.6c1.6,0.3,2.9,0.6,3.8,0.9c1,0.3,1.8,0.8,2.5,1.6c0.7,0.7,1,1.8,1,3.1c0,1.8-0.8,3.2-2.3,4.2
		c-1.5,1-3.6,1.6-6.2,1.6C1175.4,273.2,1173.9,273,1172.4,272.6z"/>
	<path class="st7" d="M1213.2,255.2c1.4,1.3,2.2,3.3,2.2,6V273h-3.4v-2.6c-0.6,0.9-1.4,1.6-2.5,2.1c-1.1,0.5-2.4,0.7-3.9,0.7
		c-2.2,0-4-0.5-5.3-1.6c-1.3-1.1-2-2.5-2-4.2s0.6-3.1,1.9-4.2s3.3-1.6,6-1.6h5.6V261c0-1.5-0.4-2.7-1.3-3.5
		c-0.9-0.8-2.2-1.2-3.9-1.2c-1.2,0-2.3,0.2-3.4,0.6c-1.1,0.4-2,0.9-2.8,1.5l-1.5-2.7c1-0.8,2.2-1.4,3.6-1.9c1.4-0.4,2.9-0.6,4.5-0.6
		C1209.7,253.2,1211.8,253.9,1213.2,255.2z M1209.7,269.6c1-0.6,1.7-1.5,2.1-2.6v-2.7h-5.5c-3,0-4.5,1-4.5,3c0,1,0.4,1.8,1.1,2.3
		c0.8,0.6,1.8,0.9,3.2,0.9C1207.5,270.5,1208.7,270.2,1209.7,269.6z"/>
	<path class="st7" d="M1238.4,255.4c1.5,1.4,2.2,3.6,2.2,6.3V273h-3.6v-10.9c0-1.9-0.5-3.3-1.4-4.3c-0.9-1-2.2-1.4-3.9-1.4
		c-1.9,0-3.4,0.6-4.6,1.7c-1.1,1.1-1.7,2.7-1.7,4.8V273h-3.6v-19.6h3.4v3c0.7-1,1.7-1.8,2.9-2.3c1.2-0.5,2.6-0.8,4.2-0.8
		C1235,253.2,1236.9,253.9,1238.4,255.4z"/>
	<path class="st7" d="M1265.8,245.5V273h-3.4v-3.1c-0.8,1.1-1.8,1.9-3,2.5c-1.2,0.6-2.5,0.9-4,0.9c-1.9,0-3.6-0.4-5.1-1.3
		c-1.5-0.8-2.7-2-3.5-3.5s-1.3-3.3-1.3-5.2s0.4-3.7,1.3-5.2s2-2.7,3.5-3.5c1.5-0.8,3.2-1.3,5.1-1.3c1.4,0,2.7,0.3,3.9,0.8
		s2.2,1.3,3,2.3v-10.8H1265.8z M1259.1,269.2c1-0.6,1.8-1.4,2.4-2.4c0.6-1,0.9-2.3,0.9-3.6s-0.3-2.6-0.9-3.6c-0.6-1-1.4-1.9-2.4-2.4
		c-1-0.6-2.1-0.9-3.4-0.9c-1.3,0-2.4,0.3-3.4,0.9c-1,0.6-1.8,1.4-2.4,2.4c-0.6,1-0.9,2.3-0.9,3.6s0.3,2.6,0.9,3.6
		c0.6,1,1.4,1.9,2.4,2.4c1,0.6,2.1,0.9,3.4,0.9C1256.9,270.1,1258.1,269.8,1259.1,269.2z"/>
	<path class="st7" d="M1288.6,254.1c1.2-0.6,2.7-0.9,4.4-0.9v3.4c-0.2,0-0.5,0-0.8,0c-1.9,0-3.4,0.6-4.5,1.7
		c-1.1,1.1-1.6,2.8-1.6,4.9v9.8h-3.6v-19.6h3.4v3.3C1286.5,255.5,1287.4,254.7,1288.6,254.1z"/>
	<path class="st7" d="M1314.9,264.4H1299c0.2,1.7,1,3.1,2.3,4.2s2.9,1.6,4.8,1.6c2.3,0,4.2-0.8,5.7-2.4l2,2.3c-0.9,1-2,1.8-3.3,2.4
		c-1.3,0.5-2.8,0.8-4.4,0.8c-2.1,0-3.9-0.4-5.5-1.3c-1.6-0.9-2.8-2-3.7-3.6c-0.9-1.5-1.3-3.3-1.3-5.2c0-1.9,0.4-3.6,1.3-5.1
		c0.9-1.5,2-2.7,3.5-3.6c1.5-0.9,3.2-1.3,5-1.3s3.5,0.4,5,1.3c1.5,0.9,2.6,2,3.4,3.6c0.8,1.5,1.2,3.3,1.2,5.3
		C1314.9,263.6,1314.9,263.9,1314.9,264.4z M1301,257.7c-1.1,1-1.8,2.4-2,4.1h12.6c-0.2-1.7-0.9-3-2-4.1c-1.1-1-2.6-1.6-4.3-1.6
		C1303.5,256.2,1302.1,256.7,1301,257.7z"/>
	<path class="st7" d="M1320.9,272.6c-1.5-0.4-2.6-1-3.5-1.6l1.5-2.8c0.9,0.6,1.9,1.1,3.1,1.5c1.2,0.4,2.5,0.6,3.7,0.6
		c3.1,0,4.7-0.9,4.7-2.7c0-0.6-0.2-1.1-0.6-1.4c-0.4-0.3-0.9-0.6-1.6-0.8c-0.6-0.2-1.5-0.3-2.7-0.5c-1.6-0.2-2.9-0.5-3.9-0.9
		s-1.9-0.9-2.6-1.6c-0.7-0.8-1.1-1.8-1.1-3.2c0-1.8,0.7-3.2,2.2-4.3c1.5-1.1,3.5-1.6,6-1.6c1.3,0,2.6,0.2,3.9,0.5
		c1.3,0.3,2.4,0.8,3.2,1.3l-1.5,2.8c-1.6-1-3.5-1.6-5.7-1.6c-1.5,0-2.7,0.2-3.4,0.7c-0.8,0.5-1.2,1.1-1.2,2c0,0.6,0.2,1.1,0.7,1.5
		c0.4,0.4,1,0.6,1.6,0.8c0.7,0.2,1.6,0.4,2.8,0.6c1.6,0.3,2.9,0.6,3.8,0.9c1,0.3,1.8,0.8,2.5,1.6c0.7,0.7,1,1.8,1,3.1
		c0,1.8-0.8,3.2-2.3,4.2c-1.5,1-3.6,1.6-6.2,1.6C1323.9,273.2,1322.3,273,1320.9,272.6z"/>
	<path class="st7" d="M1356,264.4h-15.9c0.2,1.7,1,3.1,2.3,4.2s2.9,1.6,4.8,1.6c2.3,0,4.2-0.8,5.7-2.4l2,2.3c-0.9,1-2,1.8-3.3,2.4
		c-1.3,0.5-2.8,0.8-4.4,0.8c-2.1,0-3.9-0.4-5.5-1.3c-1.6-0.9-2.8-2-3.7-3.6c-0.9-1.5-1.3-3.3-1.3-5.2c0-1.9,0.4-3.6,1.3-5.1
		c0.9-1.5,2-2.7,3.5-3.6c1.5-0.9,3.2-1.3,5.1-1.3c1.9,0,3.5,0.4,5,1.3c1.5,0.9,2.6,2,3.4,3.6c0.8,1.5,1.2,3.3,1.2,5.3
		C1356.1,263.6,1356.1,263.9,1356,264.4z M1342.1,257.7c-1.1,1-1.8,2.4-2,4.1h12.6c-0.2-1.7-0.9-3-2-4.1c-1.1-1-2.6-1.6-4.3-1.6
		C1344.7,256.2,1343.3,256.7,1342.1,257.7z"/>
	<path class="st7" d="M1373.9,255.2c1.4,1.3,2.2,3.3,2.2,6V273h-3.4v-2.6c-0.6,0.9-1.4,1.6-2.5,2.1c-1.1,0.5-2.4,0.7-3.9,0.7
		c-2.2,0-4-0.5-5.3-1.6c-1.3-1.1-2-2.5-2-4.2s0.6-3.1,1.9-4.2s3.3-1.6,6-1.6h5.6V261c0-1.5-0.4-2.7-1.3-3.5
		c-0.9-0.8-2.2-1.2-3.9-1.2c-1.2,0-2.3,0.2-3.4,0.6c-1.1,0.4-2,0.9-2.8,1.5l-1.5-2.7c1-0.8,2.2-1.4,3.6-1.9c1.4-0.4,2.9-0.6,4.5-0.6
		C1370.3,253.2,1372.4,253.9,1373.9,255.2z M1370.3,269.6c1-0.6,1.7-1.5,2.1-2.6v-2.7h-5.5c-3,0-4.5,1-4.5,3c0,1,0.4,1.8,1.1,2.3
		c0.8,0.6,1.8,0.9,3.2,0.9C1368.2,270.5,1369.3,270.2,1370.3,269.6z"/>
	<path class="st7" d="M1388.7,254.1c1.2-0.6,2.7-0.9,4.4-0.9v3.4c-0.2,0-0.5,0-0.8,0c-1.9,0-3.4,0.6-4.5,1.7
		c-1.1,1.1-1.6,2.8-1.6,4.9v9.8h-3.6v-19.6h3.4v3.3C1386.6,255.5,1387.5,254.7,1388.7,254.1z"/>
	<path class="st7" d="M1400.5,271.9c-1.6-0.9-2.8-2.1-3.7-3.6c-0.9-1.5-1.3-3.2-1.3-5.2s0.4-3.6,1.3-5.2c0.9-1.5,2.1-2.7,3.7-3.6
		c1.6-0.9,3.3-1.3,5.3-1.3c1.8,0,3.4,0.4,4.8,1.1c1.4,0.7,2.5,1.8,3.2,3.1l-2.7,1.7c-0.6-0.9-1.4-1.6-2.3-2.1
		c-0.9-0.5-1.9-0.7-3-0.7c-1.3,0-2.4,0.3-3.5,0.9c-1,0.6-1.8,1.4-2.4,2.4c-0.6,1-0.9,2.3-0.9,3.6c0,1.4,0.3,2.6,0.9,3.6
		c0.6,1,1.4,1.9,2.4,2.4s2.2,0.9,3.5,0.9c1.1,0,2.1-0.2,3-0.7c0.9-0.5,1.7-1.2,2.3-2.1l2.7,1.7c-0.8,1.4-1.8,2.4-3.2,3.1
		s-3,1.1-4.8,1.1C1403.9,273.2,1402.1,272.8,1400.5,271.9z"/>
	<path class="st7" d="M1434.6,255.4c1.5,1.4,2.2,3.6,2.2,6.3V273h-3.6v-10.9c0-1.9-0.5-3.3-1.4-4.3s-2.2-1.4-3.9-1.4
		c-1.9,0-3.4,0.6-4.6,1.7c-1.1,1.1-1.7,2.7-1.7,4.8V273h-3.6v-27.5h3.6v10.6c0.7-0.9,1.7-1.7,2.9-2.2c1.2-0.5,2.5-0.8,4-0.8
		C1431.2,253.2,1433.1,253.9,1434.6,255.4z"/>
	<path class="st7" d="M1461.2,264.4h-15.9c0.2,1.7,1,3.1,2.3,4.2s2.9,1.6,4.8,1.6c2.3,0,4.2-0.8,5.7-2.4l2,2.3c-0.9,1-2,1.8-3.3,2.4
		c-1.3,0.5-2.8,0.8-4.4,0.8c-2.1,0-3.9-0.4-5.5-1.3c-1.6-0.9-2.8-2-3.7-3.6c-0.9-1.5-1.3-3.3-1.3-5.2c0-1.9,0.4-3.6,1.3-5.1
		c0.9-1.5,2-2.7,3.5-3.6c1.5-0.9,3.2-1.3,5.1-1.3s3.5,0.4,5,1.3c1.5,0.9,2.6,2,3.4,3.6c0.8,1.5,1.2,3.3,1.2,5.3
		C1461.2,263.6,1461.2,263.9,1461.2,264.4z M1447.3,257.7c-1.1,1-1.8,2.4-2,4.1h12.6c-0.2-1.7-0.9-3-2-4.1c-1.1-1-2.6-1.6-4.3-1.6
		S1448.4,256.7,1447.3,257.7z"/>
	<path class="st7" d="M1472.3,254.1c1.2-0.6,2.7-0.9,4.4-0.9v3.4c-0.2,0-0.5,0-0.8,0c-1.9,0-3.4,0.6-4.5,1.7
		c-1.1,1.1-1.6,2.8-1.6,4.9v9.8h-3.6v-19.6h3.4v3.3C1470.2,255.5,1471.1,254.7,1472.3,254.1z"/>
	<path class="st7" d="M1482.2,272.6c-1.5-0.4-2.6-1-3.5-1.6l1.5-2.8c0.9,0.6,1.9,1.1,3.1,1.5c1.2,0.4,2.5,0.6,3.7,0.6
		c3.1,0,4.7-0.9,4.7-2.7c0-0.6-0.2-1.1-0.6-1.4c-0.4-0.3-0.9-0.6-1.6-0.8c-0.6-0.2-1.5-0.3-2.7-0.5c-1.6-0.2-2.9-0.5-3.9-0.9
		s-1.9-0.9-2.6-1.6c-0.7-0.8-1.1-1.8-1.1-3.2c0-1.8,0.7-3.2,2.2-4.3c1.5-1.1,3.5-1.6,6-1.6c1.3,0,2.6,0.2,3.9,0.5
		c1.3,0.3,2.4,0.8,3.2,1.3l-1.5,2.8c-1.6-1-3.5-1.6-5.7-1.6c-1.5,0-2.7,0.2-3.4,0.7c-0.8,0.5-1.2,1.1-1.2,2c0,0.6,0.2,1.1,0.7,1.5
		c0.4,0.4,1,0.6,1.6,0.8c0.7,0.2,1.6,0.4,2.8,0.6c1.6,0.3,2.9,0.6,3.8,0.9c1,0.3,1.8,0.8,2.5,1.6c0.7,0.7,1,1.8,1,3.1
		c0,1.8-0.8,3.2-2.3,4.2c-1.5,1-3.6,1.6-6.2,1.6C1485.2,273.2,1483.7,273,1482.2,272.6z"/>
	<path class="st7" d="M1502.4,268.9c0.5,0.5,0.7,1.1,0.7,1.8c0,0.4,0,0.7-0.1,1.1c-0.1,0.3-0.3,0.9-0.5,1.6l-1.7,5.1h-2.3l1.4-5.5
		c-0.5-0.2-0.8-0.5-1.1-0.9s-0.4-0.9-0.4-1.4c0-0.7,0.2-1.3,0.7-1.8s1.1-0.7,1.8-0.7C1501.3,268.1,1501.9,268.4,1502.4,268.9z"/>
	<path class="st7" d="M1531.5,255.2c1.4,1.3,2.2,3.3,2.2,6V273h-3.4v-2.6c-0.6,0.9-1.4,1.6-2.5,2.1c-1.1,0.5-2.4,0.7-3.9,0.7
		c-2.2,0-4-0.5-5.3-1.6c-1.3-1.1-2-2.5-2-4.2s0.6-3.1,1.9-4.2c1.3-1,3.3-1.6,6-1.6h5.6V261c0-1.5-0.4-2.7-1.3-3.5
		c-0.9-0.8-2.2-1.2-3.9-1.2c-1.2,0-2.3,0.2-3.4,0.6c-1.1,0.4-2,0.9-2.8,1.5l-1.5-2.7c1-0.8,2.2-1.4,3.6-1.9c1.4-0.4,2.9-0.6,4.5-0.6
		C1528,253.2,1530,253.9,1531.5,255.2z M1527.9,269.6c1-0.6,1.7-1.5,2.1-2.6v-2.7h-5.5c-3,0-4.5,1-4.5,3c0,1,0.4,1.8,1.1,2.3
		c0.8,0.6,1.8,0.9,3.2,0.9C1525.8,270.5,1527,270.2,1527.9,269.6z"/>
	<path class="st7" d="M1556.6,255.4c1.5,1.4,2.2,3.6,2.2,6.3V273h-3.6v-10.9c0-1.9-0.5-3.3-1.4-4.3c-0.9-1-2.2-1.4-3.9-1.4
		c-1.9,0-3.4,0.6-4.6,1.7c-1.1,1.1-1.7,2.7-1.7,4.8V273h-3.6v-19.6h3.4v3c0.7-1,1.7-1.8,2.9-2.3s2.6-0.8,4.2-0.8
		C1553.2,253.2,1555.2,253.9,1556.6,255.4z"/>
	<path class="st7" d="M1584,245.5V273h-3.4v-3.1c-0.8,1.1-1.8,1.9-3,2.5s-2.5,0.9-4,0.9c-1.9,0-3.6-0.4-5.1-1.3
		c-1.5-0.8-2.7-2-3.5-3.5c-0.9-1.5-1.3-3.3-1.3-5.2s0.4-3.7,1.3-5.2c0.9-1.5,2-2.7,3.5-3.5c1.5-0.8,3.2-1.3,5.1-1.3
		c1.4,0,2.7,0.3,3.9,0.8c1.2,0.5,2.2,1.3,3,2.3v-10.8H1584z M1577.3,269.2c1-0.6,1.8-1.4,2.4-2.4c0.6-1,0.9-2.3,0.9-3.6
		s-0.3-2.6-0.9-3.6c-0.6-1-1.4-1.9-2.4-2.4c-1-0.6-2.1-0.9-3.4-0.9c-1.3,0-2.4,0.3-3.4,0.9c-1,0.6-1.8,1.4-2.4,2.4
		c-0.6,1-0.9,2.3-0.9,3.6s0.3,2.6,0.9,3.6c0.6,1,1.4,1.9,2.4,2.4c1,0.6,2.1,0.9,3.4,0.9C1575.2,270.1,1576.3,269.8,1577.3,269.2z"/>
	<path class="st7" d="M537,298.9c1.5,0.8,2.7,2,3.5,3.5c0.9,1.5,1.3,3.2,1.3,5.2c0,2-0.4,3.7-1.3,5.2c-0.9,1.5-2,2.7-3.5,3.5
		c-1.5,0.8-3.2,1.3-5.1,1.3c-1.4,0-2.7-0.3-3.9-0.8c-1.2-0.5-2.2-1.3-3-2.4v10.1h-3.6v-26.8h3.4v3.1c0.8-1.1,1.8-1.9,3-2.5
		c1.2-0.6,2.5-0.8,4-0.8C533.8,297.6,535.5,298,537,298.9z M535,313.6c1-0.6,1.8-1.4,2.4-2.4c0.6-1,0.9-2.3,0.9-3.6
		c0-1.4-0.3-2.6-0.9-3.6c-0.6-1-1.4-1.9-2.4-2.4s-2.1-0.9-3.4-0.9c-1.2,0-2.3,0.3-3.3,0.9c-1,0.6-1.8,1.4-2.4,2.4
		c-0.6,1-0.9,2.2-0.9,3.6c0,1.4,0.3,2.6,0.9,3.6c0.6,1,1.4,1.9,2.4,2.4c1,0.6,2.1,0.9,3.4,0.9C532.9,314.5,534,314.2,535,313.6z"/>
	<path class="st7" d="M552.9,298.5c1.2-0.6,2.7-0.9,4.4-0.9v3.4c-0.2,0-0.5,0-0.8,0c-1.9,0-3.4,0.6-4.5,1.7
		c-1.1,1.1-1.6,2.8-1.6,4.9v9.8h-3.6v-19.6h3.4v3.3C550.8,299.9,551.7,299.1,552.9,298.5z"/>
	<path class="st7" d="M564.6,316.3c-1.6-0.9-2.8-2.1-3.6-3.6c-0.9-1.5-1.3-3.2-1.3-5.2c0-1.9,0.4-3.6,1.3-5.2
		c0.9-1.5,2.1-2.7,3.6-3.6c1.6-0.9,3.3-1.3,5.3-1.3c1.9,0,3.7,0.4,5.2,1.3c1.5,0.9,2.8,2,3.6,3.6c0.9,1.5,1.3,3.2,1.3,5.2
		c0,1.9-0.4,3.6-1.3,5.2c-0.9,1.5-2.1,2.7-3.6,3.6c-1.5,0.9-3.3,1.3-5.2,1.3C567.9,317.6,566.2,317.2,564.6,316.3z M573.3,313.6
		c1-0.6,1.8-1.4,2.3-2.4c0.6-1,0.9-2.3,0.9-3.6c0-1.4-0.3-2.6-0.9-3.6c-0.6-1-1.4-1.9-2.3-2.4s-2.1-0.9-3.4-0.9
		c-1.3,0-2.4,0.3-3.4,0.9s-1.8,1.4-2.4,2.4c-0.6,1-0.9,2.3-0.9,3.6c0,1.4,0.3,2.6,0.9,3.6c0.6,1,1.4,1.9,2.4,2.4
		c1,0.6,2.1,0.9,3.4,0.9C571.1,314.5,572.3,314.2,573.3,313.6z"/>
	<path class="st7" d="M601.8,297.8l-8.6,19.6h-3.6l-8.6-19.6h3.7l6.7,15.7l6.9-15.7H601.8z"/>
	<path class="st7" d="M605.2,293.3c-0.5-0.4-0.7-1-0.7-1.6c0-0.6,0.2-1.2,0.7-1.6c0.5-0.5,1-0.7,1.7-0.7c0.7,0,1.3,0.2,1.7,0.6
		s0.7,1,0.7,1.6c0,0.7-0.2,1.2-0.7,1.7s-1,0.7-1.7,0.7C606.2,294,605.6,293.8,605.2,293.3z M605.1,297.8h3.6v19.6h-3.6V297.8z"/>
	<path class="st7" d="M633.9,289.9v27.5h-3.4v-3.1c-0.8,1.1-1.8,1.9-3,2.5s-2.5,0.9-4,0.9c-1.9,0-3.6-0.4-5.1-1.3s-2.7-2-3.5-3.5
		c-0.9-1.5-1.3-3.3-1.3-5.2c0-2,0.4-3.7,1.3-5.2c0.9-1.5,2-2.7,3.5-3.5s3.2-1.3,5.1-1.3c1.4,0,2.7,0.3,3.9,0.8
		c1.2,0.5,2.2,1.3,3,2.3v-10.8H633.9z M627.2,313.6c1-0.6,1.8-1.4,2.4-2.4c0.6-1,0.9-2.3,0.9-3.6c0-1.4-0.3-2.6-0.9-3.6
		c-0.6-1-1.4-1.9-2.4-2.4c-1-0.6-2.1-0.9-3.4-0.9c-1.3,0-2.4,0.3-3.4,0.9s-1.8,1.4-2.4,2.4c-0.6,1-0.9,2.3-0.9,3.6
		c0,1.4,0.3,2.6,0.9,3.6c0.6,1,1.4,1.9,2.4,2.4c1,0.6,2.1,0.9,3.4,0.9C625.1,314.5,626.2,314.2,627.2,313.6z"/>
	<path class="st7" d="M658.3,308.8h-15.9c0.2,1.7,1,3.1,2.3,4.2c1.3,1,2.9,1.6,4.8,1.6c2.3,0,4.2-0.8,5.7-2.4l2,2.3
		c-0.9,1-2,1.8-3.3,2.4c-1.3,0.5-2.8,0.8-4.4,0.8c-2.1,0-3.9-0.4-5.5-1.3c-1.6-0.9-2.8-2-3.7-3.6c-0.9-1.5-1.3-3.3-1.3-5.2
		c0-1.9,0.4-3.6,1.3-5.1s2-2.7,3.5-3.6c1.5-0.9,3.2-1.3,5.1-1.3c1.9,0,3.5,0.4,5,1.3c1.5,0.9,2.6,2,3.4,3.6c0.8,1.5,1.2,3.3,1.2,5.3
		C658.4,308,658.4,308.3,658.3,308.8z M644.4,302.1c-1.1,1-1.8,2.4-2,4.1H655c-0.2-1.7-0.9-3-2-4.1c-1.1-1-2.6-1.6-4.3-1.6
		S645.6,301.1,644.4,302.1z"/>
	<path class="st7" d="M684.3,316.2c-0.5,0.4-1.2,0.8-1.9,1c-0.8,0.2-1.6,0.4-2.4,0.4c-2,0-3.5-0.5-4.6-1.6c-1.1-1.1-1.6-2.6-1.6-4.6
		v-10.8h-3.3v-2.9h3.3v-4.3h3.6v4.3h5.6v2.9h-5.6v10.6c0,1.1,0.3,1.9,0.8,2.4c0.5,0.6,1.3,0.9,2.3,0.9c1.1,0,2-0.3,2.8-0.9
		L684.3,316.2z"/>
	<path class="st7" d="M705,299.8c1.5,1.4,2.2,3.6,2.2,6.3v11.3h-3.6v-10.9c0-1.9-0.5-3.3-1.4-4.3c-0.9-1-2.2-1.4-3.9-1.4
		c-1.9,0-3.4,0.6-4.6,1.7c-1.1,1.1-1.7,2.7-1.7,4.8v10.1h-3.6v-27.5h3.6v10.6c0.7-0.9,1.7-1.7,2.9-2.2c1.2-0.5,2.5-0.8,4-0.8
		C701.5,297.6,703.5,298.3,705,299.8z"/>
	<path class="st7" d="M731.5,308.8h-15.9c0.2,1.7,1,3.1,2.3,4.2c1.3,1,2.9,1.6,4.8,1.6c2.3,0,4.2-0.8,5.7-2.4l2,2.3
		c-0.9,1-2,1.8-3.3,2.4c-1.3,0.5-2.8,0.8-4.4,0.8c-2.1,0-3.9-0.4-5.5-1.3c-1.6-0.9-2.8-2-3.7-3.6c-0.9-1.5-1.3-3.3-1.3-5.2
		c0-1.9,0.4-3.6,1.3-5.1s2-2.7,3.5-3.6c1.5-0.9,3.2-1.3,5.1-1.3c1.9,0,3.5,0.4,5,1.3c1.5,0.9,2.6,2,3.4,3.6c0.8,1.5,1.2,3.3,1.2,5.3
		C731.6,308,731.6,308.3,731.5,308.8z M717.6,302.1c-1.1,1-1.8,2.4-2,4.1h12.6c-0.2-1.7-0.9-3-2-4.1c-1.1-1-2.6-1.6-4.3-1.6
		S718.8,301.1,717.6,302.1z"/>
	<path class="st7" d="M766.9,299.7c1.4,1.4,2.2,3.6,2.2,6.4v11.3h-3.6v-10.9c0-1.9-0.4-3.3-1.3-4.3c-0.9-1-2.1-1.4-3.8-1.4
		c-1.8,0-3.2,0.6-4.3,1.7c-1.1,1.1-1.6,2.7-1.6,4.8v10.1H751v-10.9c0-1.9-0.4-3.3-1.3-4.3c-0.9-1-2.1-1.4-3.8-1.4
		c-1.8,0-3.2,0.6-4.3,1.7c-1.1,1.1-1.6,2.7-1.6,4.8v10.1h-3.6v-19.6h3.4v2.9c0.7-1,1.7-1.8,2.8-2.3c1.2-0.5,2.5-0.8,4-0.8
		c1.5,0,2.9,0.3,4.1,0.9c1.2,0.6,2.1,1.5,2.7,2.7c0.7-1.1,1.8-2,3.1-2.7c1.3-0.6,2.8-1,4.5-1C763.5,297.6,765.5,298.3,766.9,299.7z"
		/>
	<path class="st7" d="M815.3,297.8l-7.3,19.6h-3.4l-5.7-14.9l-5.7,14.9h-3.4l-7.3-19.6h3.4l5.7,15.6l5.9-15.6h3l5.8,15.7l5.8-15.7
		H815.3z"/>
	<path class="st7" d="M818.9,293.3c-0.5-0.4-0.7-1-0.7-1.6c0-0.6,0.2-1.2,0.7-1.6c0.5-0.5,1-0.7,1.7-0.7c0.7,0,1.3,0.2,1.7,0.6
		s0.7,1,0.7,1.6c0,0.7-0.2,1.2-0.7,1.7s-1,0.7-1.7,0.7C819.9,294,819.4,293.8,818.9,293.3z M818.8,297.8h3.6v19.6h-3.6V297.8z"/>
	<path class="st7" d="M840.2,316.2c-0.5,0.4-1.2,0.8-1.9,1c-0.8,0.2-1.6,0.4-2.4,0.4c-2,0-3.5-0.5-4.6-1.6c-1.1-1.1-1.6-2.6-1.6-4.6
		v-10.8h-3.3v-2.9h3.3v-4.3h3.6v4.3h5.6v2.9h-5.6v10.6c0,1.1,0.3,1.9,0.8,2.4c0.5,0.6,1.3,0.9,2.3,0.9c1.1,0,2-0.3,2.8-0.9
		L840.2,316.2z"/>
	<path class="st7" d="M860.9,299.8c1.5,1.4,2.2,3.6,2.2,6.3v11.3h-3.6v-10.9c0-1.9-0.5-3.3-1.4-4.3c-0.9-1-2.2-1.4-3.9-1.4
		c-1.9,0-3.4,0.6-4.6,1.7c-1.1,1.1-1.7,2.7-1.7,4.8v10.1h-3.6v-27.5h3.6v10.6c0.7-0.9,1.7-1.7,2.9-2.2c1.2-0.5,2.5-0.8,4-0.8
		C857.4,297.6,859.4,298.3,860.9,299.8z"/>
	<path class="st7" d="M910,299.7c1.4,1.4,2.2,3.6,2.2,6.4v11.3h-3.6v-10.9c0-1.9-0.4-3.3-1.3-4.3c-0.9-1-2.1-1.4-3.8-1.4
		c-1.8,0-3.2,0.6-4.3,1.7c-1.1,1.1-1.6,2.7-1.6,4.8v10.1h-3.6v-10.9c0-1.9-0.4-3.3-1.3-4.3s-2.1-1.4-3.8-1.4c-1.8,0-3.2,0.6-4.3,1.7
		c-1.1,1.1-1.6,2.7-1.6,4.8v10.1h-3.6v-19.6h3.4v2.9c0.7-1,1.7-1.8,2.8-2.3c1.2-0.5,2.5-0.8,4-0.8c1.5,0,2.9,0.3,4.1,0.9
		c1.2,0.6,2.1,1.5,2.7,2.7c0.7-1.1,1.8-2,3.1-2.7c1.3-0.6,2.8-1,4.5-1C906.6,297.6,908.6,298.3,910,299.7z"/>
	<path class="st7" d="M936.5,308.8h-15.9c0.2,1.7,1,3.1,2.3,4.2c1.3,1,2.9,1.6,4.8,1.6c2.3,0,4.2-0.8,5.7-2.4l2,2.3
		c-0.9,1-2,1.8-3.3,2.4c-1.3,0.5-2.8,0.8-4.4,0.8c-2.1,0-3.9-0.4-5.5-1.3s-2.8-2-3.7-3.6c-0.9-1.5-1.3-3.3-1.3-5.2
		c0-1.9,0.4-3.6,1.3-5.1s2-2.7,3.5-3.6c1.5-0.9,3.2-1.3,5.1-1.3s3.5,0.4,5,1.3c1.5,0.9,2.6,2,3.4,3.6c0.8,1.5,1.2,3.3,1.2,5.3
		C936.6,308,936.6,308.3,936.5,308.8z M922.6,302.1c-1.1,1-1.8,2.4-2,4.1h12.6c-0.2-1.7-0.9-3-2-4.1c-1.1-1-2.6-1.6-4.3-1.6
		S923.8,301.1,922.6,302.1z"/>
	<path class="st7" d="M957.9,299.8c1.5,1.4,2.2,3.6,2.2,6.3v11.3h-3.6v-10.9c0-1.9-0.5-3.3-1.4-4.3s-2.2-1.4-3.9-1.4
		c-1.9,0-3.4,0.6-4.6,1.7c-1.1,1.1-1.7,2.7-1.7,4.8v10.1h-3.6v-19.6h3.4v3c0.7-1,1.7-1.8,2.9-2.3c1.2-0.5,2.6-0.8,4.2-0.8
		C954.5,297.6,956.4,298.3,957.9,299.8z"/>
	<path class="st7" d="M977.7,316.2c-0.5,0.4-1.2,0.8-1.9,1c-0.8,0.2-1.6,0.4-2.4,0.4c-2,0-3.5-0.5-4.6-1.6c-1.1-1.1-1.6-2.6-1.6-4.6
		v-10.8h-3.3v-2.9h3.3v-4.3h3.6v4.3h5.6v2.9h-5.6v10.6c0,1.1,0.3,1.9,0.8,2.4c0.5,0.6,1.3,0.9,2.3,0.9c1.1,0,2-0.3,2.8-0.9
		L977.7,316.2z"/>
	<path class="st7" d="M984.5,316.3c-1.6-0.9-2.8-2.1-3.6-3.6c-0.9-1.5-1.3-3.2-1.3-5.2c0-1.9,0.4-3.6,1.3-5.2
		c0.9-1.5,2.1-2.7,3.6-3.6c1.6-0.9,3.3-1.3,5.3-1.3c1.9,0,3.7,0.4,5.2,1.3c1.5,0.9,2.8,2,3.6,3.6c0.9,1.5,1.3,3.2,1.3,5.2
		c0,1.9-0.4,3.6-1.3,5.2c-0.9,1.5-2.1,2.7-3.6,3.6c-1.5,0.9-3.3,1.3-5.2,1.3C987.8,317.6,986,317.2,984.5,316.3z M993.1,313.6
		c1-0.6,1.8-1.4,2.3-2.4c0.6-1,0.9-2.3,0.9-3.6c0-1.4-0.3-2.6-0.9-3.6c-0.6-1-1.4-1.9-2.3-2.4s-2.1-0.9-3.4-0.9
		c-1.3,0-2.4,0.3-3.4,0.9c-1,0.6-1.8,1.4-2.4,2.4c-0.6,1-0.9,2.3-0.9,3.6c0,1.4,0.3,2.6,0.9,3.6c0.6,1,1.4,1.9,2.4,2.4
		c1,0.6,2.1,0.9,3.4,0.9C991,314.5,992.1,314.2,993.1,313.6z"/>
	<path class="st7" d="M1011,298.5c1.2-0.6,2.7-0.9,4.4-0.9v3.4c-0.2,0-0.5,0-0.8,0c-1.9,0-3.4,0.6-4.5,1.7c-1.1,1.1-1.6,2.8-1.6,4.9
		v9.8h-3.6v-19.6h3.4v3.3C1008.9,299.9,1009.8,299.1,1011,298.5z"/>
	<path class="st7" d="M1019.8,293.3c-0.5-0.4-0.7-1-0.7-1.6c0-0.6,0.2-1.2,0.7-1.6c0.5-0.5,1-0.7,1.7-0.7c0.7,0,1.3,0.2,1.7,0.6
		s0.7,1,0.7,1.6c0,0.7-0.2,1.2-0.7,1.7s-1,0.7-1.7,0.7C1020.8,294,1020.3,293.8,1019.8,293.3z M1019.8,297.8h3.6v19.6h-3.6V297.8z"
		/>
	<path class="st7" d="M1046.5,299.8c1.5,1.4,2.2,3.6,2.2,6.3v11.3h-3.6v-10.9c0-1.9-0.5-3.3-1.4-4.3c-0.9-1-2.2-1.4-3.9-1.4
		c-1.9,0-3.4,0.6-4.6,1.7c-1.1,1.1-1.7,2.7-1.7,4.8v10.1h-3.6v-19.6h3.4v3c0.7-1,1.7-1.8,2.9-2.3c1.2-0.5,2.6-0.8,4.2-0.8
		C1043,297.6,1045,298.3,1046.5,299.8z"/>
	<path class="st7" d="M1074.1,297.8v16.9c0,3.4-0.9,6-2.6,7.6c-1.7,1.6-4.2,2.5-7.6,2.5c-1.9,0-3.6-0.3-5.3-0.8
		c-1.7-0.5-3-1.2-4.1-2.2l1.7-2.7c0.9,0.8,2,1.4,3.4,1.9c1.3,0.5,2.7,0.7,4.2,0.7c2.3,0,4-0.5,5.1-1.6c1.1-1.1,1.6-2.7,1.6-5v-1.6
		c-0.8,1-1.9,1.8-3.1,2.3s-2.5,0.8-4,0.8c-1.9,0-3.6-0.4-5.1-1.2s-2.7-1.9-3.6-3.4c-0.9-1.4-1.3-3.1-1.3-4.9s0.4-3.5,1.3-4.9
		c0.9-1.4,2.1-2.6,3.6-3.3c1.5-0.8,3.2-1.2,5.1-1.2c1.5,0,2.9,0.3,4.1,0.8c1.3,0.5,2.3,1.3,3.1,2.4v-3H1074.1z M1067.4,312.7
		c1-0.5,1.8-1.3,2.4-2.3c0.6-1,0.9-2.1,0.9-3.3c0-1.9-0.6-3.4-1.9-4.6c-1.3-1.2-2.9-1.8-4.8-1.8c-2,0-3.6,0.6-4.9,1.8
		c-1.3,1.2-1.9,2.7-1.9,4.6c0,1.2,0.3,2.3,0.9,3.3s1.4,1.7,2.4,2.3c1,0.5,2.2,0.8,3.5,0.8C1065.2,313.5,1066.4,313.2,1067.4,312.7z"
		/>
	<path class="st7" d="M1106.4,298.9c1.5,0.8,2.7,2,3.5,3.5c0.9,1.5,1.3,3.2,1.3,5.2c0,2-0.4,3.7-1.3,5.2c-0.8,1.5-2,2.7-3.5,3.5
		c-1.5,0.8-3.2,1.3-5.1,1.3c-1.5,0-2.8-0.3-4-0.9c-1.2-0.6-2.2-1.4-3-2.5v3.1h-3.4v-27.5h3.6v10.8c0.8-1,1.8-1.8,3-2.3
		c1.2-0.5,2.5-0.8,3.9-0.8C1103.2,297.6,1104.9,298,1106.4,298.9z M1104.4,313.6c1-0.6,1.8-1.4,2.4-2.4c0.6-1,0.9-2.3,0.9-3.6
		c0-1.4-0.3-2.6-0.9-3.6c-0.6-1-1.4-1.9-2.4-2.4c-1-0.6-2.1-0.9-3.4-0.9c-1.2,0-2.4,0.3-3.4,0.9c-1,0.6-1.8,1.4-2.4,2.4
		c-0.6,1-0.9,2.3-0.9,3.6c0,1.4,0.3,2.6,0.9,3.6c0.6,1,1.4,1.9,2.4,2.4c1,0.6,2.1,0.9,3.4,0.9
		C1102.2,314.5,1103.4,314.2,1104.4,313.6z"/>
	<path class="st7" d="M1132.9,297.8l-9.5,21.6c-0.8,2-1.8,3.4-2.9,4.2c-1.1,0.8-2.5,1.2-4.1,1.2c-1,0-1.9-0.2-2.8-0.5
		c-0.9-0.3-1.6-0.8-2.2-1.4l1.5-2.7c1,1,2.2,1.4,3.5,1.4c0.9,0,1.6-0.2,2.2-0.7c0.6-0.5,1.1-1.2,1.6-2.3l0.6-1.4l-8.7-19.6h3.7
		l6.8,15.7l6.8-15.7H1132.9z"/>
	<path class="st7" d="M1149.4,316.3c-1.6-0.9-2.8-2.1-3.7-3.6c-0.9-1.5-1.3-3.2-1.3-5.2c0-1.9,0.4-3.6,1.3-5.2s2.1-2.7,3.7-3.6
		c1.6-0.9,3.3-1.3,5.3-1.3c1.8,0,3.4,0.4,4.8,1.1c1.4,0.7,2.5,1.8,3.2,3.1l-2.7,1.7c-0.6-0.9-1.4-1.6-2.3-2.1
		c-0.9-0.5-1.9-0.7-3-0.7c-1.3,0-2.4,0.3-3.5,0.9c-1,0.6-1.8,1.4-2.4,2.4c-0.6,1-0.9,2.3-0.9,3.6c0,1.4,0.3,2.6,0.9,3.6
		c0.6,1,1.4,1.9,2.4,2.4c1,0.6,2.2,0.9,3.5,0.9c1.1,0,2.1-0.2,3-0.7s1.7-1.2,2.3-2.1l2.7,1.7c-0.8,1.4-1.8,2.4-3.2,3.1
		c-1.4,0.7-3,1.1-4.8,1.1C1152.7,317.6,1150.9,317.2,1149.4,316.3z"/>
	<path class="st7" d="M1167.4,293.3c-0.5-0.4-0.7-1-0.7-1.6c0-0.6,0.2-1.2,0.7-1.6c0.5-0.5,1-0.7,1.7-0.7c0.7,0,1.3,0.2,1.7,0.6
		c0.5,0.4,0.7,1,0.7,1.6c0,0.7-0.2,1.2-0.7,1.7c-0.5,0.5-1,0.7-1.7,0.7C1168.4,294,1167.8,293.8,1167.4,293.3z M1167.3,297.8h3.6
		v19.6h-3.6V297.8z"/>
	<path class="st7" d="M1188.7,316.2c-0.5,0.4-1.2,0.8-1.9,1s-1.6,0.4-2.4,0.4c-2,0-3.5-0.5-4.6-1.6c-1.1-1.1-1.6-2.6-1.6-4.6v-10.8
		h-3.3v-2.9h3.3v-4.3h3.6v4.3h5.6v2.9h-5.6v10.6c0,1.1,0.3,1.9,0.8,2.4c0.5,0.6,1.3,0.9,2.3,0.9c1.1,0,2-0.3,2.8-0.9L1188.7,316.2z"
		/>
	<path class="st7" d="M1193,293.3c-0.5-0.4-0.7-1-0.7-1.6c0-0.6,0.2-1.2,0.7-1.6c0.5-0.5,1-0.7,1.7-0.7c0.7,0,1.3,0.2,1.7,0.6
		s0.7,1,0.7,1.6c0,0.7-0.2,1.2-0.7,1.7s-1,0.7-1.7,0.7C1194,294,1193.5,293.8,1193,293.3z M1192.9,297.8h3.6v19.6h-3.6V297.8z"/>
	<path class="st7" d="M1220.9,308.8H1205c0.2,1.7,1,3.1,2.3,4.2c1.3,1,2.9,1.6,4.8,1.6c2.3,0,4.2-0.8,5.7-2.4l2,2.3
		c-0.9,1-2,1.8-3.3,2.4c-1.3,0.5-2.8,0.8-4.4,0.8c-2.1,0-3.9-0.4-5.5-1.3c-1.6-0.9-2.8-2-3.7-3.6c-0.9-1.5-1.3-3.3-1.3-5.2
		c0-1.9,0.4-3.6,1.3-5.1s2-2.7,3.5-3.6c1.5-0.9,3.2-1.3,5-1.3c1.9,0,3.5,0.4,5,1.3c1.5,0.9,2.6,2,3.4,3.6s1.2,3.3,1.2,5.3
		C1221,308,1221,308.3,1220.9,308.8z M1207,302.1c-1.1,1-1.8,2.4-2,4.1h12.6c-0.2-1.7-0.9-3-2-4.1c-1.1-1-2.6-1.6-4.3-1.6
		S1208.2,301.1,1207,302.1z"/>
	<path class="st7" d="M1226.9,317c-1.5-0.4-2.6-1-3.5-1.6l1.5-2.8c0.9,0.6,1.9,1.1,3.1,1.5s2.5,0.6,3.7,0.6c3.1,0,4.7-0.9,4.7-2.7
		c0-0.6-0.2-1.1-0.6-1.4c-0.4-0.3-0.9-0.6-1.6-0.8c-0.6-0.2-1.5-0.3-2.7-0.5c-1.6-0.2-2.9-0.5-3.9-0.9c-1-0.3-1.9-0.9-2.6-1.6
		s-1.1-1.8-1.1-3.2c0-1.8,0.7-3.2,2.2-4.3c1.5-1.1,3.5-1.6,6-1.6c1.3,0,2.6,0.2,3.9,0.5c1.3,0.3,2.4,0.8,3.2,1.3l-1.5,2.8
		c-1.6-1-3.5-1.6-5.7-1.6c-1.5,0-2.7,0.2-3.4,0.7c-0.8,0.5-1.2,1.1-1.2,2c0,0.6,0.2,1.1,0.7,1.5c0.4,0.4,1,0.6,1.6,0.8
		c0.7,0.2,1.6,0.4,2.8,0.6c1.6,0.3,2.9,0.6,3.8,0.9s1.8,0.8,2.5,1.6c0.7,0.7,1,1.8,1,3.1c0,1.8-0.8,3.2-2.3,4.2
		c-1.5,1-3.6,1.6-6.2,1.6C1229.9,317.6,1228.4,317.4,1226.9,317z"/>
	<path class="st7" d="M1267.8,299.6c1.4,1.3,2.2,3.3,2.2,6v11.8h-3.4v-2.6c-0.6,0.9-1.4,1.6-2.5,2.1c-1.1,0.5-2.4,0.7-3.9,0.7
		c-2.2,0-4-0.5-5.3-1.6c-1.3-1.1-2-2.5-2-4.2s0.6-3.1,1.9-4.2c1.3-1,3.3-1.6,6-1.6h5.6v-0.7c0-1.5-0.4-2.7-1.3-3.5
		c-0.9-0.8-2.2-1.2-3.9-1.2c-1.2,0-2.3,0.2-3.4,0.6c-1.1,0.4-2,0.9-2.8,1.5l-1.5-2.7c1-0.8,2.2-1.4,3.6-1.9s2.9-0.6,4.5-0.6
		C1264.3,297.6,1266.3,298.3,1267.8,299.6z M1264.2,314c1-0.6,1.7-1.5,2.1-2.6v-2.7h-5.5c-3,0-4.5,1-4.5,3c0,1,0.4,1.8,1.1,2.3
		s1.8,0.9,3.2,0.9S1263.3,314.6,1264.2,314z"/>
	<path class="st7" d="M1292.9,299.8c1.5,1.4,2.2,3.6,2.2,6.3v11.3h-3.6v-10.9c0-1.9-0.5-3.3-1.4-4.3c-0.9-1-2.2-1.4-3.9-1.4
		c-1.9,0-3.4,0.6-4.6,1.7c-1.1,1.1-1.7,2.7-1.7,4.8v10.1h-3.6v-19.6h3.4v3c0.7-1,1.7-1.8,2.9-2.3c1.2-0.5,2.6-0.8,4.2-0.8
		C1289.5,297.6,1291.5,298.3,1292.9,299.8z"/>
	<path class="st7" d="M1320.3,289.9v27.5h-3.4v-3.1c-0.8,1.1-1.8,1.9-3,2.5s-2.5,0.9-4,0.9c-1.9,0-3.6-0.4-5.1-1.3
		c-1.5-0.8-2.7-2-3.5-3.5c-0.9-1.5-1.3-3.3-1.3-5.2c0-2,0.4-3.7,1.3-5.2c0.9-1.5,2-2.7,3.5-3.5c1.5-0.8,3.2-1.3,5.1-1.3
		c1.4,0,2.7,0.3,3.9,0.8c1.2,0.5,2.2,1.3,3,2.3v-10.8H1320.3z M1313.6,313.6c1-0.6,1.8-1.4,2.4-2.4c0.6-1,0.9-2.3,0.9-3.6
		c0-1.4-0.3-2.6-0.9-3.6c-0.6-1-1.4-1.9-2.4-2.4s-2.1-0.9-3.4-0.9c-1.3,0-2.4,0.3-3.4,0.9c-1,0.6-1.8,1.4-2.4,2.4
		c-0.6,1-0.9,2.3-0.9,3.6c0,1.4,0.3,2.6,0.9,3.6c0.6,1,1.4,1.9,2.4,2.4c1,0.6,2.1,0.9,3.4,0.9
		C1311.5,314.5,1312.6,314.2,1313.6,313.6z"/>
	<path class="st7" d="M1348.1,316.2c-0.5,0.4-1.2,0.8-1.9,1c-0.8,0.2-1.6,0.4-2.4,0.4c-2,0-3.5-0.5-4.6-1.6
		c-1.1-1.1-1.6-2.6-1.6-4.6v-10.8h-3.3v-2.9h3.3v-4.3h3.6v4.3h5.6v2.9h-5.6v10.6c0,1.1,0.3,1.9,0.8,2.4c0.5,0.6,1.3,0.9,2.3,0.9
		c1.1,0,2-0.3,2.8-0.9L1348.1,316.2z"/>
	<path class="st7" d="M1368.8,299.8c1.5,1.4,2.2,3.6,2.2,6.3v11.3h-3.6v-10.9c0-1.9-0.5-3.3-1.4-4.3c-0.9-1-2.2-1.4-3.9-1.4
		c-1.9,0-3.4,0.6-4.6,1.7c-1.1,1.1-1.7,2.7-1.7,4.8v10.1h-3.6v-27.5h3.6v10.6c0.7-0.9,1.7-1.7,2.9-2.2c1.2-0.5,2.5-0.8,4-0.8
		C1365.3,297.6,1367.3,298.3,1368.8,299.8z"/>
	<path class="st7" d="M1395.3,308.8h-15.9c0.2,1.7,1,3.1,2.3,4.2c1.3,1,2.9,1.6,4.8,1.6c2.3,0,4.2-0.8,5.7-2.4l2,2.3
		c-0.9,1-2,1.8-3.3,2.4c-1.3,0.5-2.8,0.8-4.4,0.8c-2.1,0-3.9-0.4-5.5-1.3c-1.6-0.9-2.8-2-3.7-3.6c-0.9-1.5-1.3-3.3-1.3-5.2
		c0-1.9,0.4-3.6,1.3-5.1c0.9-1.5,2-2.7,3.5-3.6c1.5-0.9,3.2-1.3,5-1.3s3.5,0.4,5,1.3c1.5,0.9,2.6,2,3.4,3.6s1.2,3.3,1.2,5.3
		C1395.4,308,1395.3,308.3,1395.3,308.8z M1381.4,302.1c-1.1,1-1.8,2.4-2,4.1h12.6c-0.2-1.7-0.9-3-2-4.1c-1.1-1-2.6-1.6-4.3-1.6
		C1384,300.6,1382.6,301.1,1381.4,302.1z"/>
	<path class="st7" d="M1410.3,293.3c-0.5-0.4-0.7-1-0.7-1.6c0-0.6,0.2-1.2,0.7-1.6c0.5-0.5,1-0.7,1.7-0.7s1.3,0.2,1.7,0.6
		c0.5,0.4,0.7,1,0.7,1.6c0,0.7-0.2,1.2-0.7,1.7c-0.5,0.5-1,0.7-1.7,0.7S1410.8,293.8,1410.3,293.3z M1410.2,297.8h3.6v19.6h-3.6
		V297.8z"/>
	<path class="st7" d="M1437,299.8c1.5,1.4,2.2,3.6,2.2,6.3v11.3h-3.6v-10.9c0-1.9-0.5-3.3-1.4-4.3c-0.9-1-2.2-1.4-3.9-1.4
		c-1.9,0-3.4,0.6-4.6,1.7c-1.1,1.1-1.7,2.7-1.7,4.8v10.1h-3.6v-19.6h3.4v3c0.7-1,1.7-1.8,2.9-2.3c1.2-0.5,2.6-0.8,4.2-0.8
		C1433.5,297.6,1435.5,298.3,1437,299.8z"/>
	<path class="st7" d="M1464.4,289.9v27.5h-3.4v-3.1c-0.8,1.1-1.8,1.9-3,2.5s-2.5,0.9-4,0.9c-1.9,0-3.6-0.4-5.1-1.3
		c-1.5-0.8-2.7-2-3.5-3.5c-0.9-1.5-1.3-3.3-1.3-5.2c0-2,0.4-3.7,1.3-5.2c0.9-1.5,2-2.7,3.5-3.5c1.5-0.8,3.2-1.3,5.1-1.3
		c1.4,0,2.7,0.3,3.9,0.8c1.2,0.5,2.2,1.3,3,2.3v-10.8H1464.4z M1457.6,313.6c1-0.6,1.8-1.4,2.4-2.4c0.6-1,0.9-2.3,0.9-3.6
		c0-1.4-0.3-2.6-0.9-3.6c-0.6-1-1.4-1.9-2.4-2.4s-2.1-0.9-3.4-0.9c-1.3,0-2.4,0.3-3.4,0.9c-1,0.6-1.8,1.4-2.4,2.4
		c-0.6,1-0.9,2.3-0.9,3.6c0,1.4,0.3,2.6,0.9,3.6c0.6,1,1.4,1.9,2.4,2.4c1,0.6,2.1,0.9,3.4,0.9
		C1455.5,314.5,1456.6,314.2,1457.6,313.6z"/>
	<path class="st7" d="M1489.4,297.8v19.6h-3.4v-3c-0.7,1-1.7,1.8-2.8,2.3c-1.2,0.6-2.4,0.8-3.8,0.8c-2.6,0-4.7-0.7-6.2-2.2
		c-1.5-1.4-2.3-3.6-2.3-6.4v-11.3h3.6v10.9c0,1.9,0.5,3.3,1.4,4.3c0.9,1,2.2,1.5,3.9,1.5c1.9,0,3.4-0.6,4.4-1.7
		c1.1-1.1,1.6-2.7,1.6-4.8v-10.1H1489.4z"/>
	<path class="st7" d="M1497.2,317c-1.5-0.4-2.6-1-3.5-1.6l1.5-2.8c0.9,0.6,1.9,1.1,3.1,1.5s2.5,0.6,3.7,0.6c3.1,0,4.7-0.9,4.7-2.7
		c0-0.6-0.2-1.1-0.6-1.4c-0.4-0.3-0.9-0.6-1.6-0.8c-0.6-0.2-1.5-0.3-2.7-0.5c-1.6-0.2-2.9-0.5-3.9-0.9c-1-0.3-1.9-0.9-2.6-1.6
		s-1.1-1.8-1.1-3.2c0-1.8,0.7-3.2,2.2-4.3c1.5-1.1,3.5-1.6,6-1.6c1.3,0,2.6,0.2,3.9,0.5c1.3,0.3,2.4,0.8,3.2,1.3l-1.5,2.8
		c-1.6-1-3.5-1.6-5.7-1.6c-1.5,0-2.7,0.2-3.4,0.7c-0.8,0.5-1.2,1.1-1.2,2c0,0.6,0.2,1.1,0.7,1.5c0.4,0.4,1,0.6,1.6,0.8
		c0.7,0.2,1.6,0.4,2.8,0.6c1.6,0.3,2.9,0.6,3.8,0.9s1.8,0.8,2.5,1.6c0.7,0.7,1,1.8,1,3.1c0,1.8-0.8,3.2-2.3,4.2
		c-1.5,1-3.6,1.6-6.2,1.6C1500.2,317.6,1498.6,317.4,1497.2,317z"/>
	<path class="st7" d="M1525.7,316.2c-0.5,0.4-1.2,0.8-1.9,1s-1.6,0.4-2.4,0.4c-2,0-3.5-0.5-4.6-1.6c-1.1-1.1-1.6-2.6-1.6-4.6v-10.8
		h-3.3v-2.9h3.3v-4.3h3.6v4.3h5.6v2.9h-5.6v10.6c0,1.1,0.3,1.9,0.8,2.4c0.5,0.6,1.3,0.9,2.3,0.9c1.1,0,2-0.3,2.8-0.9L1525.7,316.2z"
		/>
	<path class="st7" d="M1536.2,298.5c1.2-0.6,2.7-0.9,4.4-0.9v3.4c-0.2,0-0.5,0-0.8,0c-1.9,0-3.4,0.6-4.5,1.7
		c-1.1,1.1-1.6,2.8-1.6,4.9v9.8h-3.6v-19.6h3.4v3.3C1534,299.9,1534.9,299.1,1536.2,298.5z"/>
	<path class="st7" d="M1563.1,297.8l-9.5,21.6c-0.8,2-1.8,3.4-2.9,4.2c-1.1,0.8-2.5,1.2-4.1,1.2c-1,0-1.9-0.2-2.8-0.5
		c-0.9-0.3-1.6-0.8-2.2-1.4l1.5-2.7c1,1,2.2,1.4,3.5,1.4c0.9,0,1.6-0.2,2.2-0.7c0.6-0.5,1.1-1.2,1.6-2.3l0.6-1.4l-8.7-19.6h3.7
		l6.8,15.7l6.8-15.7H1563.1z"/>
	<path class="st7" d="M1587.4,316.2c-0.5,0.4-1.2,0.8-1.9,1s-1.6,0.4-2.4,0.4c-2,0-3.5-0.5-4.6-1.6c-1.1-1.1-1.6-2.6-1.6-4.6v-10.8
		h-3.3v-2.9h3.3v-4.3h3.6v4.3h5.6v2.9h-5.6v10.6c0,1.1,0.3,1.9,0.8,2.4c0.5,0.6,1.3,0.9,2.3,0.9c1.1,0,2-0.3,2.8-0.9L1587.4,316.2z"
		/>
	<path class="st7" d="M1594.2,316.3c-1.6-0.9-2.8-2.1-3.6-3.6c-0.9-1.5-1.3-3.2-1.3-5.2c0-1.9,0.4-3.6,1.3-5.2
		c0.9-1.5,2.1-2.7,3.6-3.6c1.6-0.9,3.3-1.3,5.3-1.3c1.9,0,3.7,0.4,5.2,1.3c1.5,0.9,2.8,2,3.6,3.6c0.9,1.5,1.3,3.2,1.3,5.2
		c0,1.9-0.4,3.6-1.3,5.2c-0.9,1.5-2.1,2.7-3.6,3.6s-3.3,1.3-5.2,1.3C1597.5,317.6,1595.7,317.2,1594.2,316.3z M1602.8,313.6
		c1-0.6,1.8-1.4,2.3-2.4c0.6-1,0.9-2.3,0.9-3.6c0-1.4-0.3-2.6-0.9-3.6c-0.6-1-1.3-1.9-2.3-2.4c-1-0.6-2.1-0.9-3.4-0.9
		s-2.4,0.3-3.4,0.9s-1.8,1.4-2.4,2.4c-0.6,1-0.9,2.3-0.9,3.6c0,1.4,0.3,2.6,0.9,3.6c0.6,1,1.4,1.9,2.4,2.4c1,0.6,2.1,0.9,3.4,0.9
		S1601.8,314.2,1602.8,313.6z"/>
	<path class="st7" d="M532.5,360.6c-0.5,0.4-1.2,0.8-1.9,1c-0.8,0.2-1.6,0.4-2.4,0.4c-2,0-3.5-0.5-4.6-1.6c-1.1-1.1-1.6-2.6-1.6-4.6
		v-10.8h-3.3v-2.9h3.3v-4.3h3.6v4.3h5.6v2.9h-5.6v10.6c0,1.1,0.3,1.9,0.8,2.4c0.5,0.6,1.3,0.9,2.3,0.9c1.1,0,2-0.3,2.8-0.9
		L532.5,360.6z"/>
	<path class="st7" d="M543,342.9c1.2-0.6,2.7-0.9,4.4-0.9v3.4c-0.2,0-0.5,0-0.8,0c-1.9,0-3.4,0.6-4.5,1.7c-1.1,1.1-1.6,2.8-1.6,4.9
		v9.8h-3.6v-19.6h3.4v3.3C540.9,344.3,541.8,343.5,543,342.9z"/>
	<path class="st7" d="M565.1,344c1.4,1.3,2.2,3.3,2.2,6v11.8h-3.4v-2.6c-0.6,0.9-1.4,1.6-2.5,2.1c-1.1,0.5-2.4,0.7-3.9,0.7
		c-2.2,0-4-0.5-5.3-1.6c-1.3-1.1-2-2.5-2-4.2s0.6-3.1,1.9-4.2c1.3-1,3.3-1.6,6-1.6h5.6v-0.7c0-1.5-0.4-2.7-1.3-3.5
		c-0.9-0.8-2.2-1.2-3.9-1.2c-1.2,0-2.3,0.2-3.4,0.6c-1.1,0.4-2,0.9-2.8,1.5l-1.5-2.7c1-0.8,2.2-1.4,3.6-1.9c1.4-0.4,2.9-0.6,4.5-0.6
		C561.6,342,563.6,342.7,565.1,344z M561.5,358.4c1-0.6,1.7-1.5,2.1-2.6v-2.7h-5.5c-3,0-4.5,1-4.5,3c0,1,0.4,1.8,1.1,2.3
		c0.8,0.6,1.8,0.9,3.2,0.9C559.4,359.3,560.6,359,561.5,358.4z"/>
	<path class="st7" d="M590.2,344.2c1.5,1.4,2.2,3.6,2.2,6.3v11.3h-3.6v-10.9c0-1.9-0.5-3.3-1.4-4.3c-0.9-1-2.2-1.4-3.9-1.4
		c-1.9,0-3.4,0.6-4.6,1.7c-1.1,1.1-1.7,2.7-1.7,4.8v10.1h-3.6v-19.6h3.4v3c0.7-1,1.7-1.8,2.9-2.3c1.2-0.5,2.6-0.8,4.2-0.8
		C586.8,342,588.8,342.7,590.2,344.2z"/>
	<path class="st7" d="M600,361.4c-1.5-0.4-2.6-1-3.5-1.6l1.5-2.8c0.9,0.6,1.9,1.1,3.1,1.5c1.2,0.4,2.5,0.6,3.7,0.6
		c3.1,0,4.7-0.9,4.7-2.7c0-0.6-0.2-1.1-0.6-1.4c-0.4-0.3-0.9-0.6-1.6-0.8c-0.6-0.2-1.5-0.3-2.7-0.5c-1.6-0.2-2.9-0.5-3.9-0.9
		s-1.9-0.9-2.6-1.6s-1.1-1.8-1.1-3.2c0-1.8,0.7-3.2,2.2-4.3c1.5-1.1,3.5-1.6,6-1.6c1.3,0,2.6,0.2,3.9,0.5c1.3,0.3,2.4,0.8,3.2,1.3
		l-1.5,2.8c-1.6-1-3.5-1.6-5.7-1.6c-1.5,0-2.7,0.2-3.4,0.7s-1.2,1.1-1.2,2c0,0.6,0.2,1.1,0.7,1.5c0.4,0.4,1,0.6,1.6,0.8
		c0.7,0.2,1.6,0.4,2.8,0.6c1.6,0.3,2.9,0.6,3.8,0.9c1,0.3,1.8,0.8,2.5,1.6c0.7,0.7,1,1.8,1,3.1c0,1.8-0.8,3.2-2.3,4.2
		c-1.5,1-3.6,1.6-6.2,1.6C603.1,362,601.5,361.8,600,361.4z"/>
	<path class="st7" d="M621.6,340.5v1.7h5.7v2.9h-5.6v16.7h-3.6v-16.7h-3.3v-2.9h3.3v-1.7c0-1.9,0.6-3.5,1.7-4.6
		c1.1-1.1,2.7-1.7,4.8-1.7c0.8,0,1.5,0.1,2.2,0.3c0.7,0.2,1.3,0.5,1.8,0.9l-1.1,2.7c-0.8-0.6-1.7-0.9-2.7-0.9
		C622.6,337,621.6,338.2,621.6,340.5z"/>
	<path class="st7" d="M633.5,360.7c-1.6-0.9-2.8-2.1-3.6-3.6c-0.9-1.5-1.3-3.2-1.3-5.2s0.4-3.6,1.3-5.2c0.9-1.5,2.1-2.7,3.6-3.6
		c1.6-0.9,3.3-1.3,5.3-1.3c1.9,0,3.7,0.4,5.2,1.3c1.5,0.9,2.8,2,3.6,3.6c0.9,1.5,1.3,3.2,1.3,5.2s-0.4,3.6-1.3,5.2
		c-0.9,1.5-2.1,2.7-3.6,3.6c-1.5,0.9-3.3,1.3-5.2,1.3C636.8,362,635,361.6,633.5,360.7z M642.1,358c1-0.6,1.8-1.4,2.3-2.4
		c0.6-1,0.9-2.3,0.9-3.6s-0.3-2.6-0.9-3.6c-0.6-1-1.4-1.9-2.3-2.4c-1-0.6-2.1-0.9-3.4-0.9c-1.3,0-2.4,0.3-3.4,0.9
		c-1,0.6-1.8,1.4-2.4,2.4c-0.6,1-0.9,2.3-0.9,3.6s0.3,2.6,0.9,3.6c0.6,1,1.4,1.9,2.4,2.4c1,0.6,2.1,0.9,3.4,0.9
		C640,358.9,641.1,358.6,642.1,358z"/>
	<path class="st7" d="M660,342.9c1.2-0.6,2.7-0.9,4.4-0.9v3.4c-0.2,0-0.5,0-0.8,0c-1.9,0-3.4,0.6-4.5,1.7c-1.1,1.1-1.6,2.8-1.6,4.9
		v9.8h-3.6v-19.6h3.4v3.3C657.8,344.3,658.8,343.5,660,342.9z"/>
	<path class="st7" d="M699.1,344.1c1.4,1.4,2.2,3.6,2.2,6.4v11.3h-3.6v-10.9c0-1.9-0.4-3.3-1.3-4.3c-0.9-1-2.1-1.4-3.8-1.4
		c-1.8,0-3.2,0.6-4.3,1.7c-1.1,1.1-1.6,2.7-1.6,4.8v10.1h-3.6v-10.9c0-1.9-0.4-3.3-1.3-4.3c-0.9-1-2.1-1.4-3.8-1.4
		c-1.8,0-3.2,0.6-4.3,1.7c-1.1,1.1-1.6,2.7-1.6,4.8v10.1h-3.6v-19.6h3.4v2.9c0.7-1,1.7-1.8,2.8-2.3c1.2-0.5,2.5-0.8,4-0.8
		c1.5,0,2.9,0.3,4.1,0.9c1.2,0.6,2.1,1.5,2.7,2.7c0.7-1.1,1.8-2,3.1-2.7c1.3-0.6,2.8-1,4.5-1C695.7,342,697.7,342.7,699.1,344.1z"/>
	<path class="st7" d="M721,360.7c-1.6-0.9-2.8-2.1-3.7-3.6c-0.9-1.5-1.3-3.2-1.3-5.2s0.4-3.6,1.3-5.2c0.9-1.5,2.1-2.7,3.7-3.6
		c1.6-0.9,3.3-1.3,5.3-1.3c1.8,0,3.4,0.4,4.8,1.1c1.4,0.7,2.5,1.8,3.2,3.1l-2.7,1.7c-0.6-0.9-1.4-1.6-2.3-2.1
		c-0.9-0.5-1.9-0.7-3-0.7c-1.3,0-2.4,0.3-3.5,0.9c-1,0.6-1.8,1.4-2.4,2.4c-0.6,1-0.9,2.3-0.9,3.6c0,1.4,0.3,2.6,0.9,3.6
		c0.6,1,1.4,1.9,2.4,2.4c1,0.6,2.2,0.9,3.5,0.9c1.1,0,2.1-0.2,3-0.7c0.9-0.5,1.7-1.2,2.3-2.1l2.7,1.7c-0.8,1.4-1.8,2.4-3.2,3.1
		c-1.4,0.7-3,1.1-4.8,1.1C724.3,362,722.6,361.6,721,360.7z"/>
	<path class="st7" d="M739,337.7c-0.5-0.4-0.7-1-0.7-1.6s0.2-1.2,0.7-1.6c0.5-0.5,1-0.7,1.7-0.7c0.7,0,1.3,0.2,1.7,0.6
		s0.7,1,0.7,1.6c0,0.7-0.2,1.2-0.7,1.7c-0.5,0.5-1,0.7-1.7,0.7C740,338.4,739.4,338.2,739,337.7z M738.9,342.2h3.6v19.6h-3.6V342.2z
		"/>
	<path class="st7" d="M760.3,360.6c-0.5,0.4-1.2,0.8-1.9,1c-0.8,0.2-1.6,0.4-2.4,0.4c-2,0-3.5-0.5-4.6-1.6c-1.1-1.1-1.6-2.6-1.6-4.6
		v-10.8h-3.3v-2.9h3.3v-4.3h3.6v4.3h5.6v2.9h-5.6v10.6c0,1.1,0.3,1.9,0.8,2.4c0.5,0.6,1.3,0.9,2.3,0.9c1.1,0,2-0.3,2.8-0.9
		L760.3,360.6z"/>
	<path class="st7" d="M764.6,337.7c-0.5-0.4-0.7-1-0.7-1.6s0.2-1.2,0.7-1.6c0.5-0.5,1-0.7,1.7-0.7c0.7,0,1.3,0.2,1.7,0.6
		s0.7,1,0.7,1.6c0,0.7-0.2,1.2-0.7,1.7c-0.5,0.5-1,0.7-1.7,0.7C765.7,338.4,765.1,338.2,764.6,337.7z M764.6,342.2h3.6v19.6h-3.6
		V342.2z"/>
	<path class="st7" d="M792.5,353.2h-15.9c0.2,1.7,1,3.1,2.3,4.2s2.9,1.6,4.8,1.6c2.3,0,4.2-0.8,5.7-2.4l2,2.3c-0.9,1-2,1.8-3.3,2.4
		c-1.3,0.5-2.8,0.8-4.4,0.8c-2.1,0-3.9-0.4-5.5-1.3c-1.6-0.9-2.8-2-3.7-3.6c-0.9-1.5-1.3-3.3-1.3-5.2c0-1.9,0.4-3.6,1.3-5.1
		c0.9-1.5,2-2.7,3.5-3.6c1.5-0.9,3.2-1.3,5.1-1.3c1.9,0,3.5,0.4,5,1.3c1.5,0.9,2.6,2,3.4,3.6c0.8,1.5,1.2,3.3,1.2,5.3
		C792.6,352.4,792.6,352.7,792.5,353.2z M778.6,346.5c-1.1,1-1.8,2.4-2,4.1h12.6c-0.2-1.7-0.9-3-2-4.1c-1.1-1-2.6-1.6-4.3-1.6
		S779.8,345.5,778.6,346.5z"/>
	<path class="st7" d="M798.5,361.4c-1.5-0.4-2.6-1-3.5-1.6l1.5-2.8c0.9,0.6,1.9,1.1,3.1,1.5c1.2,0.4,2.5,0.6,3.7,0.6
		c3.1,0,4.7-0.9,4.7-2.7c0-0.6-0.2-1.1-0.6-1.4c-0.4-0.3-0.9-0.6-1.6-0.8c-0.6-0.2-1.5-0.3-2.7-0.5c-1.6-0.2-2.9-0.5-3.9-0.9
		s-1.9-0.9-2.6-1.6s-1.1-1.8-1.1-3.2c0-1.8,0.7-3.2,2.2-4.3c1.5-1.1,3.5-1.6,6-1.6c1.3,0,2.6,0.2,3.9,0.5c1.3,0.3,2.4,0.8,3.2,1.3
		l-1.5,2.8c-1.6-1-3.5-1.6-5.7-1.6c-1.5,0-2.7,0.2-3.4,0.7s-1.2,1.1-1.2,2c0,0.6,0.2,1.1,0.7,1.5c0.4,0.4,1,0.6,1.6,0.8
		c0.7,0.2,1.6,0.4,2.8,0.6c1.6,0.3,2.9,0.6,3.8,0.9c1,0.3,1.8,0.8,2.5,1.6c0.7,0.7,1,1.8,1,3.1c0,1.8-0.8,3.2-2.3,4.2
		c-1.5,1-3.6,1.6-6.2,1.6C801.6,362,800,361.8,798.5,361.4z"/>
	<path class="st7" d="M826.1,337.7c-0.5-0.4-0.7-1-0.7-1.6s0.2-1.2,0.7-1.6c0.5-0.5,1-0.7,1.7-0.7c0.7,0,1.3,0.2,1.7,0.6
		s0.7,1,0.7,1.6c0,0.7-0.2,1.2-0.7,1.7c-0.5,0.5-1,0.7-1.7,0.7C827.1,338.4,826.5,338.2,826.1,337.7z M826,342.2h3.6v19.6H826V342.2
		z"/>
	<path class="st7" d="M852.8,344.2c1.5,1.4,2.2,3.6,2.2,6.3v11.3h-3.6v-10.9c0-1.9-0.5-3.3-1.4-4.3c-0.9-1-2.2-1.4-3.9-1.4
		c-1.9,0-3.4,0.6-4.6,1.7c-1.1,1.1-1.7,2.7-1.7,4.8v10.1h-3.6v-19.6h3.4v3c0.7-1,1.7-1.8,2.9-2.3c1.2-0.5,2.6-0.8,4.2-0.8
		C849.3,342,851.3,342.7,852.8,344.2z"/>
	<path class="st7" d="M872.6,360.6c-0.5,0.4-1.2,0.8-1.9,1c-0.8,0.2-1.6,0.4-2.4,0.4c-2,0-3.5-0.5-4.6-1.6c-1.1-1.1-1.6-2.6-1.6-4.6
		v-10.8h-3.3v-2.9h3.3v-4.3h3.6v4.3h5.6v2.9h-5.6v10.6c0,1.1,0.3,1.9,0.8,2.4c0.5,0.6,1.3,0.9,2.3,0.9c1.1,0,2-0.3,2.8-0.9
		L872.6,360.6z"/>
	<path class="st7" d="M879.3,360.7c-1.6-0.9-2.8-2.1-3.6-3.6c-0.9-1.5-1.3-3.2-1.3-5.2s0.4-3.6,1.3-5.2c0.9-1.5,2.1-2.7,3.6-3.6
		c1.6-0.9,3.3-1.3,5.3-1.3c1.9,0,3.7,0.4,5.2,1.3c1.5,0.9,2.8,2,3.6,3.6c0.9,1.5,1.3,3.2,1.3,5.2s-0.4,3.6-1.3,5.2
		c-0.9,1.5-2.1,2.7-3.6,3.6c-1.5,0.9-3.3,1.3-5.2,1.3C882.6,362,880.9,361.6,879.3,360.7z M888,358c1-0.6,1.8-1.4,2.3-2.4
		c0.6-1,0.9-2.3,0.9-3.6s-0.3-2.6-0.9-3.6c-0.6-1-1.4-1.9-2.3-2.4c-1-0.6-2.1-0.9-3.4-0.9s-2.4,0.3-3.4,0.9c-1,0.6-1.8,1.4-2.4,2.4
		c-0.6,1-0.9,2.3-0.9,3.6s0.3,2.6,0.9,3.6c0.6,1,1.4,1.9,2.4,2.4c1,0.6,2.1,0.9,3.4,0.9S887,358.6,888,358z"/>
	<path class="st7" d="M923,344c1.4,1.3,2.2,3.3,2.2,6v11.8h-3.4v-2.6c-0.6,0.9-1.4,1.6-2.5,2.1c-1.1,0.5-2.4,0.7-3.9,0.7
		c-2.2,0-4-0.5-5.3-1.6c-1.3-1.1-2-2.5-2-4.2s0.6-3.1,1.9-4.2s3.3-1.6,6-1.6h5.6v-0.7c0-1.5-0.4-2.7-1.3-3.5
		c-0.9-0.8-2.2-1.2-3.9-1.2c-1.2,0-2.3,0.2-3.4,0.6c-1.1,0.4-2,0.9-2.8,1.5l-1.5-2.7c1-0.8,2.2-1.4,3.6-1.9c1.4-0.4,2.9-0.6,4.5-0.6
		C919.5,342,921.6,342.7,923,344z M919.5,358.4c1-0.6,1.7-1.5,2.1-2.6v-2.7h-5.5c-3,0-4.5,1-4.5,3c0,1,0.4,1.8,1.1,2.3
		c0.8,0.6,1.8,0.9,3.2,0.9C917.3,359.3,918.5,359,919.5,358.4z"/>
	<path class="st7" d="M960.2,334.3v27.5h-3.4v-3.1c-0.8,1.1-1.8,1.9-3,2.5s-2.5,0.9-4,0.9c-1.9,0-3.6-0.4-5.1-1.3
		c-1.5-0.8-2.7-2-3.5-3.5c-0.9-1.5-1.3-3.3-1.3-5.2s0.4-3.7,1.3-5.2c0.9-1.5,2-2.7,3.5-3.5c1.5-0.8,3.2-1.3,5.1-1.3
		c1.4,0,2.7,0.3,3.9,0.8c1.2,0.5,2.2,1.3,3,2.3v-10.8H960.2z M953.5,358c1-0.6,1.8-1.4,2.4-2.4c0.6-1,0.9-2.3,0.9-3.6
		s-0.3-2.6-0.9-3.6c-0.6-1-1.4-1.9-2.4-2.4c-1-0.6-2.1-0.9-3.4-0.9c-1.3,0-2.4,0.3-3.4,0.9c-1,0.6-1.8,1.4-2.4,2.4
		c-0.6,1-0.9,2.3-0.9,3.6s0.3,2.6,0.9,3.6c0.6,1,1.4,1.9,2.4,2.4c1,0.6,2.1,0.9,3.4,0.9C951.4,358.9,952.5,358.6,953.5,358z"/>
	<path class="st7" d="M967,337.7c-0.5-0.4-0.7-1-0.7-1.6s0.2-1.2,0.7-1.6c0.5-0.5,1-0.7,1.7-0.7c0.7,0,1.3,0.2,1.7,0.6
		c0.5,0.4,0.7,1,0.7,1.6c0,0.7-0.2,1.2-0.7,1.7c-0.5,0.5-1,0.7-1.7,0.7C968,338.4,967.5,338.2,967,337.7z M967,342.2h3.6v19.6H967
		V342.2z"/>
	<path class="st7" d="M996,342.2v16.9c0,3.4-0.9,6-2.6,7.6s-4.2,2.5-7.6,2.5c-1.8,0-3.6-0.3-5.3-0.8c-1.7-0.5-3-1.2-4.1-2.2l1.7-2.7
		c0.9,0.8,2,1.4,3.4,1.9c1.3,0.5,2.7,0.7,4.2,0.7c2.3,0,4-0.5,5.1-1.6c1.1-1.1,1.6-2.7,1.6-5v-1.6c-0.8,1-1.9,1.8-3.1,2.3
		c-1.2,0.5-2.5,0.8-4,0.8c-1.9,0-3.6-0.4-5.1-1.2c-1.5-0.8-2.7-1.9-3.6-3.4c-0.9-1.4-1.3-3.1-1.3-4.9c0-1.8,0.4-3.5,1.3-4.9
		c0.9-1.4,2.1-2.6,3.6-3.3c1.5-0.8,3.2-1.2,5.1-1.2c1.5,0,2.9,0.3,4.1,0.8c1.3,0.5,2.3,1.3,3.1,2.4v-3H996z M989.3,357.1
		c1-0.5,1.8-1.3,2.4-2.3c0.6-1,0.9-2.1,0.9-3.3c0-1.9-0.6-3.4-1.9-4.6c-1.3-1.2-2.9-1.8-4.8-1.8c-2,0-3.6,0.6-4.9,1.8
		c-1.3,1.2-1.9,2.7-1.9,4.6c0,1.2,0.3,2.3,0.9,3.3c0.6,1,1.4,1.7,2.4,2.3c1,0.5,2.2,0.8,3.5,0.8
		C987.1,357.9,988.3,357.6,989.3,357.1z"/>
	<path class="st7" d="M1002.9,337.7c-0.5-0.4-0.7-1-0.7-1.6s0.2-1.2,0.7-1.6c0.5-0.5,1-0.7,1.7-0.7c0.7,0,1.3,0.2,1.7,0.6
		s0.7,1,0.7,1.6c0,0.7-0.2,1.2-0.7,1.7c-0.5,0.5-1,0.7-1.7,0.7C1003.9,338.4,1003.3,338.2,1002.9,337.7z M1002.8,342.2h3.6v19.6
		h-3.6V342.2z"/>
	<path class="st7" d="M1024.2,360.6c-0.5,0.4-1.2,0.8-1.9,1c-0.8,0.2-1.6,0.4-2.4,0.4c-2,0-3.5-0.5-4.6-1.6
		c-1.1-1.1-1.6-2.6-1.6-4.6v-10.8h-3.3v-2.9h3.3v-4.3h3.6v4.3h5.6v2.9h-5.6v10.6c0,1.1,0.3,1.9,0.8,2.4c0.5,0.6,1.3,0.9,2.3,0.9
		c1.1,0,2-0.3,2.8-0.9L1024.2,360.6z"/>
	<path class="st7" d="M1041.8,344c1.4,1.3,2.2,3.3,2.2,6v11.8h-3.4v-2.6c-0.6,0.9-1.4,1.6-2.5,2.1c-1.1,0.5-2.4,0.7-3.9,0.7
		c-2.2,0-4-0.5-5.3-1.6c-1.3-1.1-2-2.5-2-4.2s0.6-3.1,1.9-4.2s3.3-1.6,6-1.6h5.6v-0.7c0-1.5-0.4-2.7-1.3-3.5
		c-0.9-0.8-2.2-1.2-3.9-1.2c-1.2,0-2.3,0.2-3.4,0.6c-1.1,0.4-2,0.9-2.8,1.5l-1.5-2.7c1-0.8,2.2-1.4,3.6-1.9c1.4-0.4,2.9-0.6,4.5-0.6
		C1038.3,342,1040.4,342.7,1041.8,344z M1038.3,358.4c1-0.6,1.7-1.5,2.1-2.6v-2.7h-5.5c-3,0-4.5,1-4.5,3c0,1,0.4,1.8,1.1,2.3
		c0.8,0.6,1.8,0.9,3.2,0.9C1036.1,359.3,1037.3,359,1038.3,358.4z"/>
	<path class="st7" d="M1050.6,334.3h3.6v27.5h-3.6V334.3z"/>
	<path class="st7" d="M1060.9,334.3h3.6v27.5h-3.6V334.3z"/>
	<path class="st7" d="M1071.2,334.3h3.6v27.5h-3.6V334.3z"/>
	<path class="st7" d="M1098.9,342.2l-9.5,21.6c-0.8,2-1.8,3.4-2.9,4.2c-1.1,0.8-2.5,1.2-4.1,1.2c-1,0-1.9-0.2-2.8-0.5
		s-1.6-0.8-2.2-1.4l1.5-2.7c1,1,2.2,1.4,3.5,1.4c0.9,0,1.6-0.2,2.2-0.7c0.6-0.5,1.1-1.2,1.6-2.3l0.6-1.4l-8.7-19.6h3.7l6.8,15.7
		l6.8-15.7H1098.9z"/>
	<path class="st7" d="M1100.5,350.1h10v3.1h-10V350.1z"/>
	<path class="st7" d="M1133.9,353.2H1118c0.2,1.7,1,3.1,2.3,4.2s2.9,1.6,4.8,1.6c2.3,0,4.2-0.8,5.7-2.4l2,2.3c-0.9,1-2,1.8-3.3,2.4
		c-1.3,0.5-2.8,0.8-4.4,0.8c-2.1,0-3.9-0.4-5.5-1.3c-1.6-0.9-2.8-2-3.7-3.6c-0.9-1.5-1.3-3.3-1.3-5.2c0-1.9,0.4-3.6,1.3-5.1
		c0.9-1.5,2-2.7,3.5-3.6c1.5-0.9,3.2-1.3,5.1-1.3s3.5,0.4,5,1.3c1.5,0.9,2.6,2,3.4,3.6c0.8,1.5,1.2,3.3,1.2,5.3
		C1134,352.4,1134,352.7,1133.9,353.2z M1120,346.5c-1.1,1-1.8,2.4-2,4.1h12.6c-0.2-1.7-0.9-3-2-4.1c-1.1-1-2.6-1.6-4.3-1.6
		S1121.2,345.5,1120,346.5z"/>
	<path class="st7" d="M1155.3,344.2c1.5,1.4,2.2,3.6,2.2,6.3v11.3h-3.6v-10.9c0-1.9-0.5-3.3-1.4-4.3s-2.2-1.4-3.9-1.4
		c-1.9,0-3.4,0.6-4.6,1.7c-1.1,1.1-1.7,2.7-1.7,4.8v10.1h-3.6v-19.6h3.4v3c0.7-1,1.7-1.8,2.9-2.3s2.6-0.8,4.2-0.8
		C1151.9,342,1153.9,342.7,1155.3,344.2z"/>
	<path class="st7" d="M1177.5,344c1.4,1.3,2.2,3.3,2.2,6v11.8h-3.4v-2.6c-0.6,0.9-1.4,1.6-2.5,2.1c-1.1,0.5-2.4,0.7-3.9,0.7
		c-2.2,0-4-0.5-5.3-1.6c-1.3-1.1-2-2.5-2-4.2s0.6-3.1,1.9-4.2s3.3-1.6,6-1.6h5.6v-0.7c0-1.5-0.4-2.7-1.3-3.5
		c-0.9-0.8-2.2-1.2-3.9-1.2c-1.2,0-2.3,0.2-3.4,0.6c-1.1,0.4-2,0.9-2.8,1.5l-1.5-2.7c1-0.8,2.2-1.4,3.6-1.9c1.4-0.4,2.9-0.6,4.5-0.6
		C1174,342,1176.1,342.7,1177.5,344z M1174,358.4c1-0.6,1.7-1.5,2.1-2.6v-2.7h-5.5c-3,0-4.5,1-4.5,3c0,1,0.4,1.8,1.1,2.3
		c0.8,0.6,1.8,0.9,3.2,0.9C1171.8,359.3,1173,359,1174,358.4z"/>
	<path class="st7" d="M1201.8,343.3c1.5,0.8,2.7,2,3.5,3.5s1.3,3.2,1.3,5.2s-0.4,3.7-1.3,5.2s-2,2.7-3.5,3.5
		c-1.5,0.8-3.2,1.3-5.1,1.3c-1.5,0-2.8-0.3-4-0.9s-2.2-1.4-3-2.5v3.1h-3.4v-27.5h3.6v10.8c0.8-1,1.8-1.8,3-2.3s2.5-0.8,3.9-0.8
		C1198.5,342,1200.2,342.4,1201.8,343.3z M1199.7,358c1-0.6,1.8-1.4,2.4-2.4c0.6-1,0.9-2.3,0.9-3.6s-0.3-2.6-0.9-3.6
		c-0.6-1-1.4-1.9-2.4-2.4c-1-0.6-2.1-0.9-3.4-0.9c-1.2,0-2.4,0.3-3.4,0.9c-1,0.6-1.8,1.4-2.4,2.4c-0.6,1-0.9,2.3-0.9,3.6
		s0.3,2.6,0.9,3.6c0.6,1,1.4,1.9,2.4,2.4c1,0.6,2.1,0.9,3.4,0.9C1197.6,358.9,1198.7,358.6,1199.7,358z"/>
	<path class="st7" d="M1211.5,334.3h3.6v27.5h-3.6V334.3z"/>
	<path class="st7" d="M1239.5,353.2h-15.9c0.2,1.7,1,3.1,2.3,4.2s2.9,1.6,4.8,1.6c2.3,0,4.2-0.8,5.7-2.4l2,2.3c-0.9,1-2,1.8-3.3,2.4
		c-1.3,0.5-2.8,0.8-4.4,0.8c-2.1,0-3.9-0.4-5.5-1.3c-1.6-0.9-2.8-2-3.7-3.6c-0.9-1.5-1.3-3.3-1.3-5.2c0-1.9,0.4-3.6,1.3-5.1
		c0.9-1.5,2-2.7,3.5-3.6c1.5-0.9,3.2-1.3,5.1-1.3c1.9,0,3.5,0.4,5,1.3c1.5,0.9,2.6,2,3.4,3.6c0.8,1.5,1.2,3.3,1.2,5.3
		C1239.5,352.4,1239.5,352.7,1239.5,353.2z M1225.6,346.5c-1.1,1-1.8,2.4-2,4.1h12.6c-0.2-1.7-0.9-3-2-4.1c-1.1-1-2.6-1.6-4.3-1.6
		C1228.1,345,1226.7,345.5,1225.6,346.5z"/>
	<path class="st7" d="M1263,334.3v27.5h-3.4v-3.1c-0.8,1.1-1.8,1.9-3,2.5c-1.2,0.6-2.5,0.9-4,0.9c-1.9,0-3.6-0.4-5.1-1.3
		c-1.5-0.8-2.7-2-3.5-3.5s-1.3-3.3-1.3-5.2s0.4-3.7,1.3-5.2s2-2.7,3.5-3.5c1.5-0.8,3.2-1.3,5.1-1.3c1.4,0,2.7,0.3,3.9,0.8
		s2.2,1.3,3,2.3v-10.8H1263z M1256.2,358c1-0.6,1.8-1.4,2.4-2.4c0.6-1,0.9-2.3,0.9-3.6s-0.3-2.6-0.9-3.6c-0.6-1-1.4-1.9-2.4-2.4
		c-1-0.6-2.1-0.9-3.4-0.9c-1.3,0-2.4,0.3-3.4,0.9c-1,0.6-1.8,1.4-2.4,2.4c-0.6,1-0.9,2.3-0.9,3.6s0.3,2.6,0.9,3.6
		c0.6,1,1.4,1.9,2.4,2.4c1,0.6,2.1,0.9,3.4,0.9C1254.1,358.9,1255.2,358.6,1256.2,358z"/>
	<path class="st7" d="M1297.9,342.2v19.6h-3.4v-3c-0.7,1-1.7,1.8-2.8,2.3s-2.4,0.8-3.8,0.8c-2.6,0-4.7-0.7-6.2-2.2
		c-1.5-1.4-2.3-3.6-2.3-6.4v-11.3h3.6v10.9c0,1.9,0.5,3.3,1.4,4.3s2.2,1.5,3.9,1.5c1.9,0,3.4-0.6,4.4-1.7c1.1-1.1,1.6-2.7,1.6-4.8
		v-10.1H1297.9z"/>
	<path class="st7" d="M1310.8,342.9c1.2-0.6,2.7-0.9,4.4-0.9v3.4c-0.2,0-0.5,0-0.8,0c-1.9,0-3.4,0.6-4.5,1.7
		c-1.1,1.1-1.6,2.8-1.6,4.9v9.8h-3.6v-19.6h3.4v3.3C1308.7,344.3,1309.6,343.5,1310.8,342.9z"/>
	<path class="st7" d="M1335.1,343.3c1.5,0.8,2.7,2,3.5,3.5c0.9,1.5,1.3,3.2,1.3,5.2s-0.4,3.7-1.3,5.2c-0.9,1.5-2,2.7-3.5,3.5
		c-1.5,0.8-3.2,1.3-5.1,1.3c-1.5,0-2.8-0.3-4-0.9c-1.2-0.6-2.2-1.4-3-2.5v3.1h-3.4v-27.5h3.6v10.8c0.8-1,1.8-1.8,3-2.3
		s2.5-0.8,3.9-0.8C1331.9,342,1333.6,342.4,1335.1,343.3z M1333.1,358c1-0.6,1.8-1.4,2.4-2.4c0.6-1,0.9-2.3,0.9-3.6
		s-0.3-2.6-0.9-3.6c-0.6-1-1.4-1.9-2.4-2.4c-1-0.6-2.1-0.9-3.4-0.9c-1.2,0-2.4,0.3-3.4,0.9c-1,0.6-1.8,1.4-2.4,2.4
		c-0.6,1-0.9,2.3-0.9,3.6s0.3,2.6,0.9,3.6c0.6,1,1.4,1.9,2.4,2.4c1,0.6,2.1,0.9,3.4,0.9C1331,358.9,1332.1,358.6,1333.1,358z"/>
	<path class="st7" d="M1358,344c1.4,1.3,2.2,3.3,2.2,6v11.8h-3.4v-2.6c-0.6,0.9-1.4,1.6-2.5,2.1c-1.1,0.5-2.4,0.7-3.9,0.7
		c-2.2,0-4-0.5-5.3-1.6c-1.3-1.1-2-2.5-2-4.2s0.6-3.1,1.9-4.2s3.3-1.6,6-1.6h5.6v-0.7c0-1.5-0.4-2.7-1.3-3.5
		c-0.9-0.8-2.2-1.2-3.9-1.2c-1.2,0-2.3,0.2-3.4,0.6c-1.1,0.4-2,0.9-2.8,1.5l-1.5-2.7c1-0.8,2.2-1.4,3.6-1.9c1.4-0.4,2.9-0.6,4.5-0.6
		C1354.5,342,1356.6,342.7,1358,344z M1354.5,358.4c1-0.6,1.7-1.5,2.1-2.6v-2.7h-5.5c-3,0-4.5,1-4.5,3c0,1,0.4,1.8,1.1,2.3
		c0.8,0.6,1.8,0.9,3.2,0.9C1352.3,359.3,1353.5,359,1354.5,358.4z"/>
	<path class="st7" d="M1383.2,344.2c1.5,1.4,2.2,3.6,2.2,6.3v11.3h-3.6v-10.9c0-1.9-0.5-3.3-1.4-4.3s-2.2-1.4-3.9-1.4
		c-1.9,0-3.4,0.6-4.6,1.7c-1.1,1.1-1.7,2.7-1.7,4.8v10.1h-3.6v-19.6h3.4v3c0.7-1,1.7-1.8,2.9-2.3s2.6-0.8,4.2-0.8
		C1379.7,342,1381.7,342.7,1383.2,344.2z"/>
	<path class="st7" d="M1432.3,344.1c1.4,1.4,2.2,3.6,2.2,6.4v11.3h-3.6v-10.9c0-1.9-0.4-3.3-1.3-4.3c-0.9-1-2.1-1.4-3.8-1.4
		c-1.8,0-3.2,0.6-4.3,1.7c-1.1,1.1-1.6,2.7-1.6,4.8v10.1h-3.6v-10.9c0-1.9-0.4-3.3-1.3-4.3s-2.1-1.4-3.8-1.4c-1.8,0-3.2,0.6-4.3,1.7
		c-1.1,1.1-1.6,2.7-1.6,4.8v10.1h-3.6v-19.6h3.4v2.9c0.7-1,1.7-1.8,2.8-2.3c1.2-0.5,2.5-0.8,4-0.8c1.5,0,2.9,0.3,4.1,0.9
		c1.2,0.6,2.1,1.5,2.7,2.7c0.7-1.1,1.8-2,3.1-2.7c1.3-0.6,2.8-1,4.5-1C1428.9,342,1430.9,342.7,1432.3,344.1z"/>
	<path class="st7" d="M1441.1,337.7c-0.5-0.4-0.7-1-0.7-1.6s0.2-1.2,0.7-1.6c0.5-0.5,1-0.7,1.7-0.7c0.7,0,1.3,0.2,1.7,0.6
		s0.7,1,0.7,1.6c0,0.7-0.2,1.2-0.7,1.7c-0.5,0.5-1,0.7-1.7,0.7C1442.1,338.4,1441.5,338.2,1441.1,337.7z M1441,342.2h3.6v19.6h-3.6
		V342.2z"/>
	<path class="st7" d="M1451.4,334.3h3.6v27.5h-3.6V334.3z"/>
	<path class="st7" d="M1479.3,353.2h-15.9c0.2,1.7,1,3.1,2.3,4.2s2.9,1.6,4.8,1.6c2.3,0,4.2-0.8,5.7-2.4l2,2.3c-0.9,1-2,1.8-3.3,2.4
		c-1.3,0.5-2.8,0.8-4.4,0.8c-2.1,0-3.9-0.4-5.5-1.3c-1.6-0.9-2.8-2-3.7-3.6c-0.9-1.5-1.3-3.3-1.3-5.2c0-1.9,0.4-3.6,1.3-5.1
		c0.9-1.5,2-2.7,3.5-3.6c1.5-0.9,3.2-1.3,5.1-1.3c1.9,0,3.5,0.4,5,1.3c1.5,0.9,2.6,2,3.4,3.6c0.8,1.5,1.2,3.3,1.2,5.3
		C1479.4,352.4,1479.4,352.7,1479.3,353.2z M1465.4,346.5c-1.1,1-1.8,2.4-2,4.1h12.6c-0.2-1.7-0.9-3-2-4.1c-1.1-1-2.6-1.6-4.3-1.6
		C1468,345,1466.6,345.5,1465.4,346.5z"/>
	<path class="st7" d="M1502.6,342.2v19.6h-3.4v-3c-0.7,1-1.7,1.8-2.8,2.3c-1.2,0.6-2.4,0.8-3.8,0.8c-2.6,0-4.7-0.7-6.2-2.2
		s-2.3-3.6-2.3-6.4v-11.3h3.6v10.9c0,1.9,0.5,3.3,1.4,4.3c0.9,1,2.2,1.5,3.9,1.5c1.9,0,3.4-0.6,4.4-1.7c1.1-1.1,1.6-2.7,1.6-4.8
		v-10.1H1502.6z"/>
	<path class="st7" d="M1508.4,361.3c-0.5-0.5-0.7-1.1-0.7-1.8c0-0.7,0.2-1.3,0.7-1.8c0.5-0.5,1.1-0.7,1.8-0.7s1.3,0.2,1.7,0.7
		c0.5,0.5,0.7,1.1,0.7,1.8c0,0.7-0.2,1.4-0.7,1.8c-0.5,0.5-1.1,0.7-1.7,0.7C1509.5,362,1508.9,361.8,1508.4,361.3z"/>
</g>
</svg>
