<svg xmlns="http://www.w3.org/2000/svg" xmlns:xlink="http://www.w3.org/1999/xlink" viewBox="0 0 1770.504 498.015"><defs><radialGradient id="radial-gradient" cx="7362.653" cy="7687.742" r="603.809" gradientTransform="translate(-7653.125 7331.354) rotate(-90)" gradientUnits="userSpaceOnUse"><stop offset="0" stop-color="#fff"/><stop offset="0.231" stop-color="#fcfcfc"/><stop offset="0.42" stop-color="#f2f2f2"/><stop offset="0.594" stop-color="#e0e0e1"/><stop offset="0.759" stop-color="#c8c8c9"/><stop offset="0.917" stop-color="#aaa"/><stop offset="1" stop-color="#969697"/></radialGradient><radialGradient id="radial-gradient-2" cx="7260.979" cy="7754.502" r="575.632" gradientTransform="translate(-7653.125 7331.354) rotate(-90)" gradientUnits="userSpaceOnUse"><stop offset="0" stop-color="#fff"/><stop offset="0.257" stop-color="#fcfcfc"/><stop offset="0.468" stop-color="#f2f2f2"/><stop offset="0.662" stop-color="#e0e0e1"/><stop offset="0.846" stop-color="#c9c9c9"/><stop offset="1" stop-color="#aeaeaf"/></radialGradient><radialGradient id="radial-gradient-3" cx="6910.833" cy="8065.675" r="636.249" gradientTransform="translate(-7653.125 7331.354) rotate(-90)" gradientUnits="userSpaceOnUse"><stop offset="0" stop-color="#fff"/><stop offset="0.164" stop-color="#f8f8f8"/><stop offset="0.411" stop-color="#e3e3e3"/><stop offset="0.709" stop-color="#c2c2c2"/><stop offset="1" stop-color="#9a9a9a"/></radialGradient></defs><g id="Layer_2" data-name="Layer 2"><g id="Layer_1-2" data-name="Layer 1"><g id="Layer_2-2" data-name="Layer 2"><g id="Layer_1-2-2" data-name="Layer 1-2"><path d="M1669.019,450.178H338.109c-56.049,0-101.485-89.2-101.485-199.235h0c0-110.035,45.436-199.235,101.485-199.235h1330.91c56.049,0,101.485,89.2,101.485,199.235h0C1770.5,360.977,1725.068,450.178,1669.019,450.178Z" style="fill:#df4452"/><path d="M226.259,54.318c117.874,0,230.389,84.482,230.389,202.361S381.893,466.721,264.005,466.721c-117.86,0-217.807-98-217.807-215.887C46.2,132.965,108.385,54.318,226.259,54.318Z" style="fill:#434343;opacity:0.5;isolation:isolate"/><path d="M249.008,0C386.531,0,498.015,111.485,498.015,249.008S386.531,498.015,249.008,498.015.005,386.536,0,249.017,111.483,0,249.008,0Z" style="fill:url(#radial-gradient)"/><path d="M249.008,11.615C380.116,11.615,486.4,117.9,486.4,249.008S380.115,486.4,249.007,486.4,11.62,380.121,11.615,249.017,117.889,11.62,249,11.615Z" style="fill:url(#radial-gradient-2)"/><path d="M249,58.159c105.4,0,190.85,85.442,190.853,190.844S354.414,439.854,249.012,439.856,58.169,354.423,58.159,249.026,143.6,58.167,249,58.159Z" style="fill:url(#radial-gradient-3)"/><path d="M249,75.4a173.589,173.589,0,1,1-.01,0Z" style="opacity:0.10000000149011612;isolation:isolate"/><path d="M312.83,160.18a3.4,3.4,0,0,0,.67.39,13.053,13.053,0,0,1,9.8,13.242q.026,34.447.007,68.895v8.141h-8.8v-2.491q0-36.777,0-73.555c0-4.687-1.216-5.938-5.821-5.938q-71.935-.006-143.869,0c-4.483,0-5.83,1.332-5.831,5.774q-.007,50.355,0,100.708c0,4.559,1.321,5.849,5.962,5.85q25.836.006,51.671,0h2.77v8.624h-8.417V307.1h17.039v8.6H193.65v-8.519h8.458V289.872h-2.2l-36.069,0a12.865,12.865,0,0,1-13.528-13.633q-.006-51.163,0-102.329a12.805,12.805,0,0,1,10.029-13.4,2.144,2.144,0,0,0,.5-.327Z" style="fill:#606161"/><path d="M357.819,352.7c-4.556,4.68-9.04,9.434-13.707,14a4.029,4.029,0,0,1-5.7-.161,4.16,4.16,0,0,1-.285-.337c-2.33-2.253-4.593-4.575-6.885-6.867q-9.454-9.454-18.909-18.911c-3.272-3.274-3.285-5.13-.036-8.358.573-.569,1.229-1.055,1.714-1.468l-9.147-9.138a46.628,46.628,0,0,1-43.329,8.478,45.214,45.214,0,0,1-25.726-19.2,47.024,47.024,0,1,1,75.823,3.98L320.9,323.9a27.218,27.218,0,0,1,2.317-2.7,4.178,4.178,0,0,1,5.895-.406,4.079,4.079,0,0,1,.424.428q13.453,13.335,26.809,26.768a19.654,19.654,0,0,1,1.478,1.876ZM236.783,285.049a38.2,38.2,0,1,0,0-.315Q236.782,284.892,236.783,285.049ZM346.938,351.5l-20.666-20.655-5.347,5.247,20.562,20.641Z" style="fill:#606161"/><path d="M192.131,219.511c-1.783-1.848-3.471-3.594-5.154-5.345-.228-.237-.434-.5-.879-1,1.96-1.9,3.906-3.747,5.811-5.637,3.453-3.425,6.86-6.9,10.337-10.3a2.124,2.124,0,0,0,.662-2.591,12.841,12.841,0,0,1,4.651-14.741,13.1,13.1,0,0,1,15.165-.012A12.848,12.848,0,0,1,227.4,194.62a2.128,2.128,0,0,0,.627,2.6q5.367,5.236,10.6,10.6a2.086,2.086,0,0,0,2.621.622,12.72,12.72,0,0,1,8.531-.04,2.655,2.655,0,0,0,2.2-.5c3.7-3.559,7.254-7.267,10.958-10.82.964-.926.714-1.685.4-2.677a12.97,12.97,0,1,1,24.693-7.943q.164.505.284,1.025a12.373,12.373,0,0,1-3.743,12.386,12.153,12.153,0,0,1-12.74,2.9,2.578,2.578,0,0,0-3.123.784q-5.079,5.235-10.319,10.314a2.3,2.3,0,0,0-.689,2.786,12.84,12.84,0,0,1-8.015,16.294h0q-.309.1-.624.194a12.707,12.707,0,0,1-15.9-8.384h0q-.132-.426-.233-.859a21.57,21.57,0,0,1,.226-7.357c.132-1.023.263-1.7-.541-2.488-3.668-3.592-7.246-7.276-10.945-10.833a2.657,2.657,0,0,0-2.213-.474,12.532,12.532,0,0,1-8.528-.074,2.077,2.077,0,0,0-2.6.722q-7.633,7.7-15.323,15.342C192.82,218.935,192.607,219.1,192.131,219.511Zm27.252-29.049a4.231,4.231,0,0,0-8.46-.194v.046a4.231,4.231,0,0,0,8.459.245c0-.032,0-.065,0-.1Zm56.375,4.213a4.332,4.332,0,0,0,4.229-4.267,4.476,4.476,0,0,0-4.281-4.276,4.334,4.334,0,0,0-4.258,4.41h0v.025a4.154,4.154,0,0,0,4.2,4.111c.038,0,.075,0,.113,0Zm-26.114,25.951a4.151,4.151,0,0,0-4.147-4.155h0l-.119,0a4.327,4.327,0,0,0-4.273,4.219,4.464,4.464,0,0,0,4.435,4.318,4.323,4.323,0,0,0,4.1-4.384Z" style="fill:#606161"/><path d="M189.122,264.181v8.648a87.529,87.529,0,0,1-12.04-.835,12,12,0,0,1-9.388-11.283c-.2-3.146-.036-6.315-.036-9.6h8.576c0,2.409-.007,4.871,0,7.333.014,3.9,1.618,5.487,5.535,5.506,2.291.011,4.582.02,6.873.039A1.8,1.8,0,0,1,189.122,264.181Z" style="fill:#606161"/><path d="M167.707,242.228V233.7h8.352v8.524Z" style="fill:#606161"/><path d="M275.74,255.488c14.89-.858,30.488,12.66,30.076,29.926h-8.4c-1.362-13.019-8.607-20.151-21.677-21.645Z" style="fill:#606161"/><g style="isolation:isolate"><path d="M521.163,85.715h8.122v35.1h-8.122Z" style="fill:#fff"/><path d="M561.546,96.444q3.084,3.007,3.084,8.924V120.81h-7.821V106.571a7.038,7.038,0,0,0-1.4-4.788,5.152,5.152,0,0,0-4.061-1.579,6.226,6.226,0,0,0-4.713,1.829,7.581,7.581,0,0,0-1.755,5.441V120.81h-7.821V93.837h7.47V97a10.393,10.393,0,0,1,3.861-2.632,13.454,13.454,0,0,1,5.064-.927A11.1,11.1,0,0,1,561.546,96.444Z" style="fill:#fff"/><path d="M599.474,83.609v37.2H592V117.7q-2.908,3.51-8.423,3.51a14,14,0,0,1-6.894-1.7,12.2,12.2,0,0,1-4.838-4.863,16.143,16.143,0,0,1,0-14.64,12.211,12.211,0,0,1,4.838-4.863,14.014,14.014,0,0,1,6.894-1.7,10.263,10.263,0,0,1,8.072,3.258V83.609Zm-9.626,29.154a8.546,8.546,0,0,0,0-10.88,7.022,7.022,0,0,0-9.877,0,8.546,8.546,0,0,0,0,10.88,7.022,7.022,0,0,0,9.877,0Z" style="fill:#fff"/><path d="M633.867,93.837V120.81h-7.421V117.6a10.355,10.355,0,0,1-3.71,2.682,11.657,11.657,0,0,1-4.662.928,11.482,11.482,0,0,1-8.423-3.059q-3.109-3.057-3.109-9.074V93.837h7.822v14.088q0,6.517,5.465,6.518a5.874,5.874,0,0,0,4.512-1.831,7.719,7.719,0,0,0,1.7-5.439V93.837Z" style="fill:#fff"/><path d="M643.643,120.384a17.152,17.152,0,0,1-5.114-2.081l2.607-5.615a16.372,16.372,0,0,0,4.362,1.88,18.271,18.271,0,0,0,5.014.727q4.962,0,4.963-2.457a1.738,1.738,0,0,0-1.353-1.654,20.14,20.14,0,0,0-4.162-.853,40.031,40.031,0,0,1-5.465-1.153,8.475,8.475,0,0,1-3.735-2.306,6.562,6.562,0,0,1-1.579-4.713,7.382,7.382,0,0,1,1.479-4.537,9.532,9.532,0,0,1,4.312-3.084,18.433,18.433,0,0,1,6.693-1.1,26.257,26.257,0,0,1,5.69.627,15.931,15.931,0,0,1,4.688,1.729l-2.607,5.565a15.577,15.577,0,0,0-7.771-2,7.908,7.908,0,0,0-3.761.7,2.064,2.064,0,0,0-1.253,1.8,1.792,1.792,0,0,0,1.354,1.754,23.974,23.974,0,0,0,4.311.953,46.2,46.2,0,0,1,5.415,1.178,8.133,8.133,0,0,1,3.66,2.282,6.471,6.471,0,0,1,1.554,4.612,7.12,7.12,0,0,1-1.5,4.462,9.609,9.609,0,0,1-4.387,3.033,19.535,19.535,0,0,1-6.843,1.078A26.222,26.222,0,0,1,643.643,120.384Z" style="fill:#fff"/><path d="M685.155,119.506a8.007,8.007,0,0,1-2.833,1.278,14.28,14.28,0,0,1-3.534.427q-4.814,0-7.446-2.457t-2.632-7.22v-11.08h-4.161V94.439h4.161V87.87h7.822v6.569h6.718v6.015h-6.718v10.981a3.683,3.683,0,0,0,.877,2.632,3.246,3.246,0,0,0,2.482.927,5.023,5.023,0,0,0,3.158-1Z" style="fill:#fff"/><path d="M700.822,94.439a14.039,14.039,0,0,1,5.49-1v7.219q-1.3-.1-1.754-.1a7.171,7.171,0,0,0-5.265,1.88q-1.906,1.881-1.9,5.64V120.81h-7.821V93.837h7.47V97.4A8.7,8.7,0,0,1,700.822,94.439Z" style="fill:#fff"/><path d="M738.7,93.837l-12.183,28.627q-1.856,4.662-4.588,6.568a11.239,11.239,0,0,1-6.593,1.906,13.68,13.68,0,0,1-4.161-.653,9.184,9.184,0,0,1-3.359-1.8l2.858-5.566a6.73,6.73,0,0,0,2.08,1.254,6.481,6.481,0,0,0,2.332.451,4.138,4.138,0,0,0,2.607-.777,6.613,6.613,0,0,0,1.805-2.582l.1-.251L707.917,93.837h8.071l7.571,18.3,7.62-18.3Z" style="fill:#fff"/><path d="M746.771,112.813a4.664,4.664,0,0,1,1.354,3.484,8.238,8.238,0,0,1-.25,2.006,22.622,22.622,0,0,1-1.1,3.008l-2.857,7.219h-4.963l2.2-7.971a4.112,4.112,0,0,1-1.98-1.629,4.751,4.751,0,0,1-.727-2.633,4.618,4.618,0,0,1,1.379-3.484,4.822,4.822,0,0,1,3.485-1.328A4.732,4.732,0,0,1,746.771,112.813Z" style="fill:#fff"/><path d="M790.54,120.81l-6.769-9.777H776.3v9.777h-8.122V85.715H783.37a19.514,19.514,0,0,1,8.1,1.554,12.028,12.028,0,0,1,5.289,4.412,12.15,12.15,0,0,1,1.855,6.768,11.431,11.431,0,0,1-7.219,11.08l7.871,11.281Zm-2.056-26.9a8.532,8.532,0,0,0-5.565-1.58H776.3v12.234h6.618a8.437,8.437,0,0,0,5.565-1.605,6.325,6.325,0,0,0,0-9.049Z" style="fill:#fff"/><path d="M830.748,109.529H810.342a6.351,6.351,0,0,0,2.607,3.96,8.625,8.625,0,0,0,5.114,1.455,10.349,10.349,0,0,0,3.735-.626,9.066,9.066,0,0,0,3.034-1.981l4.161,4.512q-3.81,4.362-11.13,4.362a17.611,17.611,0,0,1-8.072-1.78,13.035,13.035,0,0,1-5.415-4.939,13.6,13.6,0,0,1-1.9-7.169,13.789,13.789,0,0,1,1.88-7.144,13.178,13.178,0,0,1,5.164-4.964,15.993,15.993,0,0,1,14.514-.075,12.449,12.449,0,0,1,5.039,4.888,14.579,14.579,0,0,1,1.83,7.395Q830.9,107.575,830.748,109.529Zm-18.3-8.673a6.405,6.405,0,0,0-2.206,4.111h13.286a6.471,6.471,0,0,0-2.206-4.086,6.59,6.59,0,0,0-4.412-1.529A6.732,6.732,0,0,0,812.448,100.856Z" style="fill:#fff"/><path d="M838.619,120.384a17.152,17.152,0,0,1-5.114-2.081l2.607-5.615a16.386,16.386,0,0,0,4.362,1.88,18.271,18.271,0,0,0,5.014.727q4.962,0,4.963-2.457a1.738,1.738,0,0,0-1.353-1.654,20.14,20.14,0,0,0-4.162-.853,40.031,40.031,0,0,1-5.465-1.153,8.475,8.475,0,0,1-3.735-2.306,6.562,6.562,0,0,1-1.579-4.713,7.382,7.382,0,0,1,1.479-4.537,9.532,9.532,0,0,1,4.312-3.084,18.433,18.433,0,0,1,6.693-1.1,26.257,26.257,0,0,1,5.69.627,15.931,15.931,0,0,1,4.688,1.729l-2.607,5.565a15.577,15.577,0,0,0-7.771-2,7.908,7.908,0,0,0-3.761.7,2.064,2.064,0,0,0-1.253,1.8,1.792,1.792,0,0,0,1.354,1.754,23.974,23.974,0,0,0,4.311.953,46.155,46.155,0,0,1,5.415,1.178,8.128,8.128,0,0,1,3.66,2.282,6.471,6.471,0,0,1,1.554,4.612,7.12,7.12,0,0,1-1.5,4.462,9.6,9.6,0,0,1-4.387,3.033,19.535,19.535,0,0,1-6.843,1.078A26.222,26.222,0,0,1,838.619,120.384Z" style="fill:#fff"/><path d="M889.005,109.529H868.6a6.343,6.343,0,0,0,2.607,3.96,8.623,8.623,0,0,0,5.114,1.455,10.352,10.352,0,0,0,3.735-.626,9.062,9.062,0,0,0,3.033-1.981l4.161,4.512q-3.81,4.362-11.13,4.362a17.611,17.611,0,0,1-8.072-1.78,13.035,13.035,0,0,1-5.415-4.939,13.6,13.6,0,0,1-1.9-7.169,13.788,13.788,0,0,1,1.879-7.144,13.184,13.184,0,0,1,5.164-4.964,16,16,0,0,1,14.515-.075,12.462,12.462,0,0,1,5.039,4.888,14.589,14.589,0,0,1,1.829,7.395Q889.155,107.575,889.005,109.529Zm-18.3-8.673a6.4,6.4,0,0,0-2.206,4.111h13.286a6.471,6.471,0,0,0-2.206-4.086,6.6,6.6,0,0,0-4.413-1.529A6.732,6.732,0,0,0,870.706,100.856Z" style="fill:#fff"/><path d="M914.123,96.418q3.358,2.983,3.359,9V120.81h-7.32v-3.36q-2.207,3.76-8.223,3.761a12.758,12.758,0,0,1-5.389-1.053,8.041,8.041,0,0,1-3.485-2.908,7.573,7.573,0,0,1-1.2-4.212,7.027,7.027,0,0,1,2.833-5.916q2.832-2.154,8.749-2.155h6.217a4.985,4.985,0,0,0-1.555-3.936,6.845,6.845,0,0,0-4.662-1.379,13.62,13.62,0,0,0-4.237.677,11.214,11.214,0,0,0-3.534,1.83l-2.808-5.465a16.958,16.958,0,0,1,5.289-2.406,23.708,23.708,0,0,1,6.343-.852Q910.763,93.436,914.123,96.418Zm-6.668,18.6a5.084,5.084,0,0,0,2.206-2.733v-2.757H904.3q-4.814,0-4.813,3.159a2.809,2.809,0,0,0,1.178,2.381,5.305,5.305,0,0,0,3.234.877A6.811,6.811,0,0,0,907.455,115.019Z" style="fill:#fff"/><path d="M935.806,94.439a14.039,14.039,0,0,1,5.49-1v7.219q-1.3-.1-1.755-.1a7.175,7.175,0,0,0-5.265,1.88q-1.9,1.881-1.9,5.64V120.81h-7.821V93.837h7.47V97.4A8.69,8.69,0,0,1,935.806,94.439Z" style="fill:#fff"/><path d="M951,119.431a13.313,13.313,0,0,1-5.364-4.939,14.282,14.282,0,0,1,0-14.339A13.332,13.332,0,0,1,951,95.215a16.587,16.587,0,0,1,7.746-1.779,15.015,15.015,0,0,1,7.445,1.779,10.56,10.56,0,0,1,4.638,5.089l-6.066,3.259a6.633,6.633,0,0,0-6.067-3.71,6.861,6.861,0,0,0-5.063,2.006,8.446,8.446,0,0,0,0,10.929,6.86,6.86,0,0,0,5.063,2.005,6.563,6.563,0,0,0,6.067-3.71l6.066,3.31a10.777,10.777,0,0,1-4.638,5.013,14.834,14.834,0,0,1-7.445,1.8A16.587,16.587,0,0,1,951,119.431Z" style="fill:#fff"/><path d="M999.629,96.444q3.084,3.007,3.084,8.924V120.81h-7.821V106.571a7.033,7.033,0,0,0-1.405-4.788,5.148,5.148,0,0,0-4.06-1.579,6.226,6.226,0,0,0-4.713,1.829,7.581,7.581,0,0,0-1.755,5.441V120.81h-7.821v-37.2h7.821V96.645a10.4,10.4,0,0,1,3.761-2.382,13.579,13.579,0,0,1,4.812-.827A11.1,11.1,0,0,1,999.629,96.444Z" style="fill:#fff"/><path d="M1016.249,112.813a4.667,4.667,0,0,1,1.354,3.484,8.24,8.24,0,0,1-.251,2.006,22.582,22.582,0,0,1-1.1,3.008l-2.857,7.219h-4.964l2.206-7.971a4.114,4.114,0,0,1-1.981-1.629,4.75,4.75,0,0,1-.726-2.633,4.621,4.621,0,0,1,1.378-3.484,4.822,4.822,0,0,1,3.485-1.328A4.735,4.735,0,0,1,1016.249,112.813Z" style="fill:#fff"/><path d="M1060.769,113.289h-16.294l-3.109,7.521h-8.322l15.643-35.095h8.021l15.692,35.1h-8.523Zm-2.557-6.167-5.566-13.436-5.564,13.436Z" style="fill:#fff"/><path d="M1080.547,119.431a13.313,13.313,0,0,1-5.364-4.939,14.282,14.282,0,0,1,0-14.339,13.332,13.332,0,0,1,5.364-4.938,16.587,16.587,0,0,1,7.746-1.779,15.015,15.015,0,0,1,7.445,1.779,10.564,10.564,0,0,1,4.638,5.089l-6.066,3.259a6.633,6.633,0,0,0-6.067-3.71,6.861,6.861,0,0,0-5.063,2.006,8.446,8.446,0,0,0,0,10.929,6.86,6.86,0,0,0,5.063,2.005,6.564,6.564,0,0,0,6.067-3.71l6.066,3.31a10.782,10.782,0,0,1-4.638,5.013,14.834,14.834,0,0,1-7.445,1.8A16.587,16.587,0,0,1,1080.547,119.431Z" style="fill:#fff"/><path d="M1125.394,96.418q3.359,2.983,3.359,9V120.81h-7.32v-3.36q-2.207,3.76-8.223,3.761a12.758,12.758,0,0,1-5.389-1.053,8.041,8.041,0,0,1-3.485-2.908,7.565,7.565,0,0,1-1.2-4.212,7.027,7.027,0,0,1,2.833-5.916q2.832-2.154,8.749-2.155h6.217a4.985,4.985,0,0,0-1.555-3.936,6.846,6.846,0,0,0-4.662-1.379,13.615,13.615,0,0,0-4.237.677,11.219,11.219,0,0,0-3.535,1.83l-2.807-5.465a16.947,16.947,0,0,1,5.289-2.406,23.7,23.7,0,0,1,6.343-.852Q1122.034,93.436,1125.394,96.418Zm-6.668,18.6a5.084,5.084,0,0,0,2.206-2.733v-2.757h-5.366q-4.812,0-4.812,3.159a2.809,2.809,0,0,0,1.178,2.381,5.305,5.305,0,0,0,3.234.877A6.811,6.811,0,0,0,1118.726,115.019Z" style="fill:#fff"/><path d="M1163.6,83.609v37.2h-7.471V117.7q-2.907,3.51-8.423,3.51a14,14,0,0,1-6.893-1.7,12.192,12.192,0,0,1-4.838-4.863,16.143,16.143,0,0,1,0-14.64,12.2,12.2,0,0,1,4.838-4.863,14.007,14.007,0,0,1,6.893-1.7,10.262,10.262,0,0,1,8.072,3.258V83.609Zm-9.627,29.154a8.543,8.543,0,0,0,0-10.88,7.021,7.021,0,0,0-9.876,0,8.543,8.543,0,0,0,0,10.88,7.021,7.021,0,0,0,9.876,0Z" style="fill:#fff"/><path d="M1197.086,109.529h-20.4a6.347,6.347,0,0,0,2.607,3.96,8.623,8.623,0,0,0,5.114,1.455,10.349,10.349,0,0,0,3.735-.626,9.062,9.062,0,0,0,3.033-1.981l4.162,4.512q-3.812,4.362-11.131,4.362a17.607,17.607,0,0,1-8.071-1.78,13.029,13.029,0,0,1-5.415-4.939,13.6,13.6,0,0,1-1.9-7.169,13.8,13.8,0,0,1,1.879-7.144,13.18,13.18,0,0,1,5.165-4.964,15.993,15.993,0,0,1,14.514-.075,12.449,12.449,0,0,1,5.039,4.888,14.579,14.579,0,0,1,1.829,7.395Q1197.236,107.575,1197.086,109.529Zm-18.3-8.673a6.4,6.4,0,0,0-2.206,4.111h13.286a6.471,6.471,0,0,0-2.206-4.086,6.592,6.592,0,0,0-4.412-1.529A6.732,6.732,0,0,0,1178.787,100.856Z" style="fill:#fff"/><path d="M1245.041,96.418q2.982,2.983,2.983,8.95V120.81H1240.2V106.571a7.314,7.314,0,0,0-1.328-4.788,4.677,4.677,0,0,0-3.786-1.579,5.578,5.578,0,0,0-4.361,1.78,7.664,7.664,0,0,0-1.605,5.289V120.81H1221.3V106.571q0-6.368-5.114-6.367a5.519,5.519,0,0,0-4.312,1.78,7.673,7.673,0,0,0-1.6,5.289V120.81h-7.821V93.837h7.47v3.108a9.882,9.882,0,0,1,3.685-2.607,12.4,12.4,0,0,1,4.789-.9,11.6,11.6,0,0,1,5.163,1.128,9.152,9.152,0,0,1,3.711,3.284,11.06,11.06,0,0,1,4.185-3.259,13.205,13.205,0,0,1,5.54-1.153A10.879,10.879,0,0,1,1245.041,96.418Z" style="fill:#fff"/><path d="M1255.444,88.823a4.246,4.246,0,0,1,0-6.216,4.962,4.962,0,0,1,3.51-1.254,5.084,5.084,0,0,1,3.509,1.2,3.862,3.862,0,0,1,1.354,3.009,4.261,4.261,0,0,1-1.354,3.233,4.9,4.9,0,0,1-3.509,1.278A4.961,4.961,0,0,1,1255.444,88.823Zm-.4,5.014h7.821V120.81h-7.821Z" style="fill:#fff"/><path d="M1275.423,119.431a13.313,13.313,0,0,1-5.364-4.939,13.6,13.6,0,0,1,5.364-19.277,16.587,16.587,0,0,1,7.746-1.779,15.015,15.015,0,0,1,7.445,1.779,10.564,10.564,0,0,1,4.638,5.089l-6.066,3.259a6.633,6.633,0,0,0-6.067-3.71,6.861,6.861,0,0,0-5.063,2.006,8.446,8.446,0,0,0,0,10.929,6.86,6.86,0,0,0,5.063,2.005,6.564,6.564,0,0,0,6.067-3.71l6.066,3.31a10.782,10.782,0,0,1-4.638,5.013,14.834,14.834,0,0,1-7.445,1.8A16.587,16.587,0,0,1,1275.423,119.431Z" style="fill:#fff"/><path d="M1302.271,120.384a17.159,17.159,0,0,1-5.115-2.081l2.608-5.615a16.378,16.378,0,0,0,4.361,1.88,18.271,18.271,0,0,0,5.014.727q4.962,0,4.964-2.457a1.739,1.739,0,0,0-1.354-1.654,20.14,20.14,0,0,0-4.162-.853,40.064,40.064,0,0,1-5.465-1.153,8.466,8.466,0,0,1-3.734-2.306,6.558,6.558,0,0,1-1.58-4.713,7.382,7.382,0,0,1,1.479-4.537,9.527,9.527,0,0,1,4.312-3.084,18.437,18.437,0,0,1,6.693-1.1,26.251,26.251,0,0,1,5.69.627,15.931,15.931,0,0,1,4.688,1.729l-2.607,5.565a15.575,15.575,0,0,0-7.771-2,7.908,7.908,0,0,0-3.761.7,2.064,2.064,0,0,0-1.253,1.8,1.791,1.791,0,0,0,1.354,1.754,23.974,23.974,0,0,0,4.311.953,46.2,46.2,0,0,1,5.415,1.178,8.141,8.141,0,0,1,3.661,2.282,6.475,6.475,0,0,1,1.553,4.612,7.12,7.12,0,0,1-1.5,4.462,9.606,9.606,0,0,1-4.386,3.033,19.545,19.545,0,0,1-6.844,1.078A26.214,26.214,0,0,1,1302.271,120.384Z" style="fill:#fff"/><path d="M1361.079,96.418q3.359,2.983,3.359,9V120.81h-7.32v-3.36q-2.207,3.76-8.222,3.761a12.752,12.752,0,0,1-5.389-1.053,8.038,8.038,0,0,1-3.486-2.908,7.573,7.573,0,0,1-1.2-4.212,7.03,7.03,0,0,1,2.833-5.916q2.832-2.154,8.749-2.155h6.217a4.985,4.985,0,0,0-1.554-3.936,6.849,6.849,0,0,0-4.663-1.379,13.625,13.625,0,0,0-4.237.677,11.214,11.214,0,0,0-3.534,1.83l-2.808-5.465a16.969,16.969,0,0,1,5.289-2.406,23.708,23.708,0,0,1,6.343-.852Q1357.72,93.436,1361.079,96.418Zm-6.668,18.6a5.079,5.079,0,0,0,2.206-2.733v-2.757h-5.365q-4.812,0-4.813,3.159a2.811,2.811,0,0,0,1.178,2.381,5.306,5.306,0,0,0,3.235.877A6.8,6.8,0,0,0,1354.411,115.019Z" style="fill:#fff"/><path d="M1396,96.444q3.084,3.007,3.083,8.924V120.81h-7.821V106.571a7.033,7.033,0,0,0-1.4-4.788,5.152,5.152,0,0,0-4.061-1.579,6.226,6.226,0,0,0-4.713,1.829,7.581,7.581,0,0,0-1.754,5.441V120.81h-7.821V93.837h7.47V97a10.4,10.4,0,0,1,3.86-2.632,13.458,13.458,0,0,1,5.064-.927A11.1,11.1,0,0,1,1396,96.444Z" style="fill:#fff"/><path d="M1433.926,83.609v37.2h-7.471V117.7q-2.907,3.51-8.423,3.51a14,14,0,0,1-6.893-1.7,12.192,12.192,0,0,1-4.838-4.863,16.143,16.143,0,0,1,0-14.64,12.2,12.2,0,0,1,4.838-4.863,14.007,14.007,0,0,1,6.893-1.7,10.262,10.262,0,0,1,8.072,3.258V83.609Zm-9.627,29.154a8.543,8.543,0,0,0,0-10.88,7.021,7.021,0,0,0-9.876,0,8.543,8.543,0,0,0,0,10.88,7.021,7.021,0,0,0,9.876,0Z" style="fill:#fff"/><path d="M1462.978,119.08a17.394,17.394,0,0,1-6.819-6.468,18.859,18.859,0,0,1,0-18.7,17.394,17.394,0,0,1,6.819-6.468,21.751,21.751,0,0,1,18-.727,16.523,16.523,0,0,1,6.192,4.613l-5.215,4.813a11.21,11.21,0,0,0-8.823-4.112,11.728,11.728,0,0,0-5.817,1.429,10.157,10.157,0,0,0-3.985,3.986,12.55,12.55,0,0,0,0,11.632,10.163,10.163,0,0,0,3.985,3.986,11.717,11.717,0,0,0,5.817,1.428,11.153,11.153,0,0,0,8.823-4.161l5.215,4.814a16.263,16.263,0,0,1-6.217,4.662,20.645,20.645,0,0,1-8.272,1.6A20.158,20.158,0,0,1,1462.978,119.08Z" style="fill:#fff"/><path d="M1492.482,88.823a4.246,4.246,0,0,1,0-6.216,4.962,4.962,0,0,1,3.51-1.254,5.084,5.084,0,0,1,3.509,1.2,3.862,3.862,0,0,1,1.354,3.009A4.261,4.261,0,0,1,1499.5,88.8a4.9,4.9,0,0,1-3.509,1.278A4.961,4.961,0,0,1,1492.482,88.823Zm-.4,5.014h7.821V120.81h-7.821Z" style="fill:#fff"/><path d="M1524.568,119.506a8,8,0,0,1-2.832,1.278,14.282,14.282,0,0,1-3.535.427q-4.812,0-7.445-2.457t-2.632-7.22v-11.08h-4.161V94.439h4.161V87.87h7.821v6.569h6.718v6.015h-6.718v10.981a3.683,3.683,0,0,0,.877,2.632,3.25,3.25,0,0,0,2.483.927,5.023,5.023,0,0,0,3.158-1Z" style="fill:#fff"/><path d="M1555.252,93.837l-12.183,28.627q-1.855,4.662-4.588,6.568a11.238,11.238,0,0,1-6.592,1.906,13.675,13.675,0,0,1-4.161-.653,9.181,9.181,0,0,1-3.36-1.8l2.859-5.566a6.719,6.719,0,0,0,2.08,1.254,6.477,6.477,0,0,0,2.332.451,4.135,4.135,0,0,0,2.606-.777,6.6,6.6,0,0,0,1.805-2.582l.1-.251-11.681-27.173h8.072l7.57,18.3,7.62-18.3Z" style="fill:#fff"/></g><g style="isolation:isolate"><path d="M521.163,142.6h8.122V177.7h-8.122Z" style="fill:#fff"/><path d="M561.546,153.332q3.084,3.009,3.084,8.925V177.7h-7.821V163.46a7.036,7.036,0,0,0-1.4-4.788,5.148,5.148,0,0,0-4.061-1.579,6.223,6.223,0,0,0-4.713,1.829,7.578,7.578,0,0,0-1.755,5.44V177.7h-7.821V150.726h7.47v3.158a10.369,10.369,0,0,1,3.861-2.632,13.454,13.454,0,0,1,5.064-.928A11.1,11.1,0,0,1,561.546,153.332Z" style="fill:#fff"/><path d="M589.1,176.4a8.007,8.007,0,0,1-2.833,1.278,14.328,14.328,0,0,1-3.534.427q-4.814,0-7.446-2.457t-2.632-7.22v-11.08H568.49v-6.016h4.161v-6.568h7.822v6.568h6.717v6.016h-6.717v10.98a3.68,3.68,0,0,0,.877,2.632,3.247,3.247,0,0,0,2.482.928,5.023,5.023,0,0,0,3.158-1Z" style="fill:#fff"/><path d="M618.927,166.418H598.521a6.353,6.353,0,0,0,2.607,3.96,8.628,8.628,0,0,0,5.115,1.454,10.356,10.356,0,0,0,3.735-.626,9.069,9.069,0,0,0,3.033-1.98l4.161,4.511q-3.81,4.363-11.13,4.363a17.6,17.6,0,0,1-8.072-1.781,13.032,13.032,0,0,1-5.415-4.938,13.6,13.6,0,0,1-1.9-7.169,13.786,13.786,0,0,1,1.88-7.144,13.178,13.178,0,0,1,5.164-4.964,15.989,15.989,0,0,1,14.514-.076,12.461,12.461,0,0,1,5.04,4.889,14.586,14.586,0,0,1,1.829,7.4Q619.077,164.462,618.927,166.418Zm-18.3-8.674a6.405,6.405,0,0,0-2.206,4.112h13.287a6.47,6.47,0,0,0-2.207-4.086,6.591,6.591,0,0,0-4.412-1.53A6.734,6.734,0,0,0,600.627,157.744Z" style="fill:#fff"/><path d="M635.547,151.327a14.035,14.035,0,0,1,5.49-1v7.22q-1.305-.1-1.755-.1a7.168,7.168,0,0,0-5.264,1.879q-1.907,1.881-1.9,5.641V177.7h-7.821V150.726h7.47v3.559A8.7,8.7,0,0,1,635.547,151.327Z" style="fill:#fff"/><path d="M654.473,151.327h6.919v6.016h-6.718V177.7h-7.821V157.343h-4.162v-6.016h4.162v-1.2a9.838,9.838,0,0,1,2.732-7.319q2.731-2.708,7.7-2.707a14.343,14.343,0,0,1,3.334.376,8.116,8.116,0,0,1,2.632,1.077l-2.056,5.666a5.347,5.347,0,0,0-3.158-.953q-3.561,0-3.56,3.911Z" style="fill:#fff"/><path d="M685.307,153.307q3.359,2.984,3.359,9V177.7h-7.32v-3.359q-2.207,3.761-8.222,3.761a12.775,12.775,0,0,1-5.39-1.053,8.032,8.032,0,0,1-3.484-2.908,7.57,7.57,0,0,1-1.2-4.212,7.026,7.026,0,0,1,2.833-5.916q2.832-2.155,8.749-2.155h6.217a4.988,4.988,0,0,0-1.554-3.936,6.849,6.849,0,0,0-4.663-1.379,13.62,13.62,0,0,0-4.237.677,11.193,11.193,0,0,0-3.534,1.83l-2.808-5.465a16.946,16.946,0,0,1,5.289-2.406,23.709,23.709,0,0,1,6.343-.853Q681.946,150.324,685.307,153.307Zm-6.668,18.6a5.081,5.081,0,0,0,2.206-2.732v-2.757H675.48q-4.814,0-4.813,3.158a2.814,2.814,0,0,0,1.178,2.382,5.305,5.305,0,0,0,3.234.877A6.8,6.8,0,0,0,678.639,171.907Z" style="fill:#fff"/><path d="M701.324,176.319a13.311,13.311,0,0,1-5.364-4.938,14.282,14.282,0,0,1,0-14.339,13.332,13.332,0,0,1,5.364-4.938,16.587,16.587,0,0,1,7.746-1.78,15.019,15.019,0,0,1,7.446,1.78,10.553,10.553,0,0,1,4.637,5.089l-6.066,3.258a6.634,6.634,0,0,0-6.066-3.71,6.861,6.861,0,0,0-5.064,2.006,8.447,8.447,0,0,0,0,10.93,6.861,6.861,0,0,0,5.064,2,6.564,6.564,0,0,0,6.066-3.71l6.066,3.309a10.772,10.772,0,0,1-4.637,5.014,14.849,14.849,0,0,1-7.446,1.805A16.576,16.576,0,0,1,701.324,176.319Z" style="fill:#fff"/><path d="M751.585,166.418H731.18a6.353,6.353,0,0,0,2.607,3.96,8.625,8.625,0,0,0,5.114,1.454,10.349,10.349,0,0,0,3.735-.626,9.059,9.059,0,0,0,3.033-1.98l4.162,4.511q-3.81,4.363-11.13,4.363a17.6,17.6,0,0,1-8.072-1.781,13.032,13.032,0,0,1-5.415-4.938,13.6,13.6,0,0,1-1.905-7.169,13.786,13.786,0,0,1,1.88-7.144,13.171,13.171,0,0,1,5.164-4.964,15.989,15.989,0,0,1,14.514-.076,12.452,12.452,0,0,1,5.039,4.889,14.576,14.576,0,0,1,1.83,7.4Q751.736,164.462,751.585,166.418Zm-18.3-8.674a6.405,6.405,0,0,0-2.206,4.112h13.286a6.469,6.469,0,0,0-2.206-4.086,6.591,6.591,0,0,0-4.412-1.53A6.732,6.732,0,0,0,733.286,157.744Z" style="fill:#fff"/></g><g style="isolation:isolate"><path d="M529.937,251.535h-8.656V248.4h20.881v3.137h-8.655v22.107h-3.57Z" style="fill:#fff"/><path d="M561.581,256.458q2.145,2.109,2.146,6.185v11h-3.462v-10.6a5.872,5.872,0,0,0-1.334-4.183,5.019,5.019,0,0,0-3.823-1.407,5.957,5.957,0,0,0-4.436,1.641,6.414,6.414,0,0,0-1.623,4.707v9.845h-3.462V246.883h3.462v10.351a7.14,7.14,0,0,1,2.831-2.128,9.751,9.751,0,0,1,3.913-.758A7.9,7.9,0,0,1,561.581,256.458Z" style="fill:#fff"/><path d="M587.456,265.239H571.949a6,6,0,0,0,2.218,4.057,7.231,7.231,0,0,0,4.706,1.533,7.09,7.09,0,0,0,5.518-2.308l1.911,2.236a8.369,8.369,0,0,1-3.228,2.308,12.163,12.163,0,0,1-9.683-.451,8.869,8.869,0,0,1-3.624-3.48,9.982,9.982,0,0,1-1.28-5.049,10.134,10.134,0,0,1,1.244-5.013,8.921,8.921,0,0,1,3.426-3.48,9.762,9.762,0,0,1,4.923-1.244,9.569,9.569,0,0,1,4.886,1.244,8.752,8.752,0,0,1,3.354,3.48,10.613,10.613,0,0,1,1.208,5.122A9.921,9.921,0,0,1,587.456,265.239Zm-13.542-6.455a6.1,6.1,0,0,0-1.965,3.967H584.21a6.147,6.147,0,0,0-1.965-3.949,6.458,6.458,0,0,0-8.331-.018Z" style="fill:#fff"/><path d="M605.145,272.6a9.231,9.231,0,0,1-3.588-3.481,10.39,10.39,0,0,1,0-10.061,9.115,9.115,0,0,1,3.588-3.462,10.742,10.742,0,0,1,5.211-1.244,9.995,9.995,0,0,1,4.634,1.046,7.468,7.468,0,0,1,3.156,3.029l-2.633,1.695a5.89,5.89,0,0,0-2.236-2.055,6.388,6.388,0,0,0-2.957-.686,6.834,6.834,0,0,0-3.372.83,5.9,5.9,0,0,0-2.344,2.362,7.146,7.146,0,0,0-.848,3.516,7.219,7.219,0,0,0,.848,3.552A5.9,5.9,0,0,0,606.948,270a6.823,6.823,0,0,0,3.372.83,6.375,6.375,0,0,0,2.957-.685,5.877,5.877,0,0,0,2.236-2.056l2.633,1.659a7.569,7.569,0,0,1-3.156,3.047,9.856,9.856,0,0,1-4.634,1.065A10.608,10.608,0,0,1,605.145,272.6Z" style="fill:#fff"/><path d="M638.359,256.458q2.145,2.109,2.146,6.185v11h-3.462v-10.6a5.867,5.867,0,0,0-1.335-4.183,5.015,5.015,0,0,0-3.822-1.407,5.957,5.957,0,0,0-4.436,1.641,6.414,6.414,0,0,0-1.623,4.707v9.845h-3.462V246.883h3.462v10.351a7.133,7.133,0,0,1,2.831-2.128,9.747,9.747,0,0,1,3.913-.758A7.9,7.9,0,0,1,638.359,256.458Z" style="fill:#fff"/><path d="M659.96,256.3q2.11,1.948,2.11,5.807v11.54h-3.281v-2.525a5.469,5.469,0,0,1-2.471,2.037,9.41,9.41,0,0,1-3.8.7,7.966,7.966,0,0,1-5.139-1.551,5.33,5.33,0,0,1-.09-8.133q1.839-1.533,5.841-1.532h5.482v-.686a4.416,4.416,0,0,0-1.3-3.426,5.48,5.48,0,0,0-3.823-1.19,10.088,10.088,0,0,0-3.318.56,8.546,8.546,0,0,0-2.74,1.5l-1.443-2.6a10.478,10.478,0,0,1,3.535-1.82,14.772,14.772,0,0,1,4.363-.632A8.644,8.644,0,0,1,659.96,256.3Zm-3.443,14.011a5.062,5.062,0,0,0,2.091-2.506v-2.669h-5.337q-4.4,0-4.4,2.957a2.679,2.679,0,0,0,1.118,2.273,5.117,5.117,0,0,0,3.1.829A6.425,6.425,0,0,0,656.517,270.306Z" style="fill:#fff"/><path d="M668.489,246.883h3.462v26.759h-3.462Z" style="fill:#fff"/><path d="M678.551,246.883h3.462v26.759h-3.462Z" style="fill:#fff"/><path d="M705.814,265.239H690.307a6,6,0,0,0,2.217,4.057,7.234,7.234,0,0,0,4.707,1.533,7.09,7.09,0,0,0,5.518-2.308l1.911,2.236a8.377,8.377,0,0,1-3.228,2.308,12.163,12.163,0,0,1-9.683-.451,8.869,8.869,0,0,1-3.624-3.48,9.972,9.972,0,0,1-1.28-5.049,10.134,10.134,0,0,1,1.244-5.013,8.914,8.914,0,0,1,3.426-3.48,9.762,9.762,0,0,1,4.923-1.244,9.569,9.569,0,0,1,4.886,1.244,8.752,8.752,0,0,1,3.354,3.48,10.613,10.613,0,0,1,1.208,5.122A9.921,9.921,0,0,1,705.814,265.239Zm-13.542-6.455a6.1,6.1,0,0,0-1.965,3.967h12.261A6.152,6.152,0,0,0,700.6,258.8a6.458,6.458,0,0,0-8.331-.018Z" style="fill:#fff"/><path d="M726.676,256.458q2.145,2.109,2.146,6.185v11H725.36v-10.6a5.867,5.867,0,0,0-1.335-4.183,5.015,5.015,0,0,0-3.822-1.407,5.957,5.957,0,0,0-4.436,1.641,6.414,6.414,0,0,0-1.623,4.707v9.845h-3.462V254.528H714v2.885a6.732,6.732,0,0,1,2.831-2.271,9.889,9.889,0,0,1,4.057-.794A7.9,7.9,0,0,1,726.676,256.458Z" style="fill:#fff"/><path d="M753.632,254.528v16.517q0,5.013-2.488,7.411t-7.429,2.4a17.768,17.768,0,0,1-5.157-.74,10.207,10.207,0,0,1-3.967-2.11l1.659-2.668a9.787,9.787,0,0,0,3.3,1.821,12.526,12.526,0,0,0,4.057.667,6.8,6.8,0,0,0,4.958-1.587,6.529,6.529,0,0,0,1.6-4.833v-1.514a7.67,7.67,0,0,1-3.011,2.219,10.05,10.05,0,0,1-3.877.739,10.436,10.436,0,0,1-4.958-1.173,8.7,8.7,0,0,1-3.48-3.281,9.815,9.815,0,0,1,0-9.629,8.6,8.6,0,0,1,3.48-3.264,10.58,10.58,0,0,1,4.958-1.154,10.124,10.124,0,0,1,4.021.794,7.457,7.457,0,0,1,3.048,2.344v-2.958Zm-6.581,14.5a5.872,5.872,0,0,0,2.344-2.218,6.2,6.2,0,0,0,.848-3.228,5.855,5.855,0,0,0-1.84-4.49,7.42,7.42,0,0,0-9.484,0,5.854,5.854,0,0,0-1.839,4.49,6.19,6.19,0,0,0,.847,3.228,5.866,5.866,0,0,0,2.344,2.218,7.162,7.162,0,0,0,3.408.793A7.087,7.087,0,0,0,747.051,269.026Z" style="fill:#fff"/><path d="M777.434,265.239H761.927a6,6,0,0,0,2.218,4.057,7.231,7.231,0,0,0,4.706,1.533,7.09,7.09,0,0,0,5.518-2.308l1.911,2.236a8.369,8.369,0,0,1-3.228,2.308,12.163,12.163,0,0,1-9.683-.451,8.869,8.869,0,0,1-3.624-3.48,9.982,9.982,0,0,1-1.28-5.049,10.134,10.134,0,0,1,1.244-5.013,8.921,8.921,0,0,1,3.426-3.48,9.762,9.762,0,0,1,4.923-1.244,9.569,9.569,0,0,1,4.886,1.244,8.752,8.752,0,0,1,3.354,3.48,10.613,10.613,0,0,1,1.208,5.122A9.921,9.921,0,0,1,777.434,265.239Zm-13.542-6.455a6.1,6.1,0,0,0-1.965,3.967h12.261a6.147,6.147,0,0,0-1.965-3.949,6.458,6.458,0,0,0-8.331-.018Z" style="fill:#fff"/><path d="M820.925,254.528l-7.14,19.114h-3.318l-5.517-14.5-5.59,14.5h-3.318l-7.1-19.114h3.281l5.554,15.219,5.77-15.219h2.921l5.662,15.291,5.7-15.291Z" style="fill:#fff"/><path d="M824.477,250.2a2.129,2.129,0,0,1-.667-1.587,2.188,2.188,0,0,1,.667-1.605,2.275,2.275,0,0,1,1.677-.667,2.348,2.348,0,0,1,1.677.631,2.075,2.075,0,0,1,.667,1.569,2.232,2.232,0,0,1-.667,1.641,2.274,2.274,0,0,1-1.677.667A2.3,2.3,0,0,1,824.477,250.2Zm-.054,4.327h3.462v19.114h-3.462Z" style="fill:#fff"/><path d="M834.484,246.883h3.462v26.759h-3.462Z" style="fill:#fff"/><path d="M844.545,246.883h3.462v26.759h-3.462Z" style="fill:#fff"/><path d="M881.51,265.239H866a6,6,0,0,0,2.218,4.057,7.232,7.232,0,0,0,4.707,1.533,7.088,7.088,0,0,0,5.517-2.308l1.911,2.236a8.366,8.366,0,0,1-3.227,2.308,12.163,12.163,0,0,1-9.683-.451,8.869,8.869,0,0,1-3.624-3.48,9.972,9.972,0,0,1-1.28-5.049,10.134,10.134,0,0,1,1.244-5.013,8.918,8.918,0,0,1,3.425-3.48,9.767,9.767,0,0,1,4.923-1.244,9.57,9.57,0,0,1,4.887,1.244,8.752,8.752,0,0,1,3.354,3.48,10.613,10.613,0,0,1,1.208,5.122A9.921,9.921,0,0,1,881.51,265.239Zm-13.542-6.455A6.11,6.11,0,0,0,866,262.751h12.262A6.148,6.148,0,0,0,876.3,258.8a6.457,6.457,0,0,0-8.33-.018Z" style="fill:#fff"/><path d="M902.372,256.458q2.145,2.109,2.146,6.185v11h-3.462v-10.6a5.872,5.872,0,0,0-1.335-4.183,5.016,5.016,0,0,0-3.823-1.407,5.953,5.953,0,0,0-4.435,1.641,6.414,6.414,0,0,0-1.623,4.707v9.845h-3.462V254.528H889.7v2.885a6.726,6.726,0,0,1,2.831-2.271,9.888,9.888,0,0,1,4.056-.794A7.9,7.9,0,0,1,902.372,256.458Z" style="fill:#fff"/><path d="M929.328,254.528v16.517q0,5.013-2.488,7.411t-7.429,2.4a17.768,17.768,0,0,1-5.157-.74,10.207,10.207,0,0,1-3.967-2.11l1.659-2.668a9.787,9.787,0,0,0,3.3,1.821,12.526,12.526,0,0,0,4.057.667,6.8,6.8,0,0,0,4.958-1.587,6.529,6.529,0,0,0,1.605-4.833v-1.514a7.67,7.67,0,0,1-3.011,2.219,10.05,10.05,0,0,1-3.877.739,10.436,10.436,0,0,1-4.958-1.173,8.7,8.7,0,0,1-3.48-3.281,9.808,9.808,0,0,1,0-9.629,8.6,8.6,0,0,1,3.48-3.264,10.58,10.58,0,0,1,4.958-1.154,10.124,10.124,0,0,1,4.021.794,7.46,7.46,0,0,1,3.047,2.344v-2.958Zm-6.581,14.5a5.872,5.872,0,0,0,2.344-2.218,6.2,6.2,0,0,0,.847-3.228,5.854,5.854,0,0,0-1.839-4.49,7.42,7.42,0,0,0-9.484,0,5.855,5.855,0,0,0-1.84,4.49,6.191,6.191,0,0,0,.848,3.228,5.866,5.866,0,0,0,2.344,2.218,7.159,7.159,0,0,0,3.408.793A7.087,7.087,0,0,0,922.747,269.026Z" style="fill:#fff"/><path d="M948.964,256.3q2.11,1.948,2.11,5.807v11.54h-3.282v-2.525a5.461,5.461,0,0,1-2.47,2.037,9.41,9.41,0,0,1-3.8.7,7.967,7.967,0,0,1-5.14-1.551,5.331,5.331,0,0,1-.09-8.133q1.841-1.533,5.842-1.532h5.482v-.686a4.413,4.413,0,0,0-1.3-3.426,5.475,5.475,0,0,0-3.822-1.19,10.083,10.083,0,0,0-3.318.56,8.546,8.546,0,0,0-2.74,1.5l-1.443-2.6a10.473,10.473,0,0,1,3.534-1.82,14.784,14.784,0,0,1,4.364-.632A8.644,8.644,0,0,1,948.964,256.3Zm-3.443,14.011a5.067,5.067,0,0,0,2.091-2.506v-2.669h-5.338q-4.4,0-4.4,2.957a2.677,2.677,0,0,0,1.118,2.273,5.113,5.113,0,0,0,3.1.829A6.427,6.427,0,0,0,945.521,270.306Z" style="fill:#fff"/><path d="M975.884,254.528v16.517q0,5.013-2.488,7.411t-7.429,2.4a17.763,17.763,0,0,1-5.157-.74,10.207,10.207,0,0,1-3.967-2.11l1.659-2.668a9.787,9.787,0,0,0,3.3,1.821,12.52,12.52,0,0,0,4.056.667,6.8,6.8,0,0,0,4.959-1.587,6.529,6.529,0,0,0,1.605-4.833v-1.514a7.677,7.677,0,0,1-3.011,2.219,10.05,10.05,0,0,1-3.877.739,10.443,10.443,0,0,1-4.959-1.173A8.708,8.708,0,0,1,957.1,268.4a9.808,9.808,0,0,1,0-9.629,8.6,8.6,0,0,1,3.479-3.264,10.587,10.587,0,0,1,4.959-1.154,10.128,10.128,0,0,1,4.021.794,7.463,7.463,0,0,1,3.048,2.344v-2.958Zm-6.581,14.5a5.863,5.863,0,0,0,2.343-2.218,6.191,6.191,0,0,0,.848-3.228,5.854,5.854,0,0,0-1.839-4.49,7.42,7.42,0,0,0-9.484,0,5.851,5.851,0,0,0-1.84,4.49,6.182,6.182,0,0,0,.848,3.228,5.863,5.863,0,0,0,2.343,2.218,7.169,7.169,0,0,0,3.409.793A7.087,7.087,0,0,0,969.3,269.026Z" style="fill:#fff"/><path d="M999.686,265.239H984.178A6,6,0,0,0,986.4,269.3a7.232,7.232,0,0,0,4.707,1.533,7.088,7.088,0,0,0,5.517-2.308l1.911,2.236a8.373,8.373,0,0,1-3.227,2.308,12.165,12.165,0,0,1-9.684-.451,8.881,8.881,0,0,1-3.624-3.48,9.982,9.982,0,0,1-1.28-5.049,10.145,10.145,0,0,1,1.244-5.013,8.928,8.928,0,0,1,3.426-3.48,9.764,9.764,0,0,1,4.923-1.244,9.564,9.564,0,0,1,4.886,1.244,8.752,8.752,0,0,1,3.354,3.48,10.613,10.613,0,0,1,1.208,5.122A10.153,10.153,0,0,1,999.686,265.239Zm-13.542-6.455a6.1,6.1,0,0,0-1.966,3.967h12.261a6.147,6.147,0,0,0-1.965-3.949,6.457,6.457,0,0,0-8.33-.018Z" style="fill:#fff"/><path d="M1015.229,273.227a9.852,9.852,0,0,1-3.39-1.6l1.442-2.741a10.328,10.328,0,0,0,3.066,1.443,12.592,12.592,0,0,0,3.641.541q4.545,0,4.544-2.6a1.685,1.685,0,0,0-.612-1.371,3.918,3.918,0,0,0-1.533-.74q-.921-.233-2.615-.522a25.635,25.635,0,0,1-3.768-.829,5.815,5.815,0,0,1-2.507-1.587,4.417,4.417,0,0,1-1.046-3.138,4.9,4.9,0,0,1,2.164-4.165,9.691,9.691,0,0,1,5.806-1.569,16.026,16.026,0,0,1,3.823.469,10.338,10.338,0,0,1,3.138,1.262l-1.479,2.74a9.947,9.947,0,0,0-5.517-1.514,6.381,6.381,0,0,0-3.355.722,2.176,2.176,0,0,0-1.153,1.911,1.82,1.82,0,0,0,.648,1.478,4.1,4.1,0,0,0,1.606.794q.956.252,2.686.577a29.4,29.4,0,0,1,3.733.847,5.565,5.565,0,0,1,2.433,1.533,4.27,4.27,0,0,1,1.01,3.029,4.775,4.775,0,0,1-2.218,4.129,10.463,10.463,0,0,1-6.04,1.534A16,16,0,0,1,1015.229,273.227Z" style="fill:#fff"/><path d="M1043.068,272.524a5.188,5.188,0,0,1-1.875.992,7.873,7.873,0,0,1-2.307.343,6.133,6.133,0,0,1-4.472-1.551,5.92,5.92,0,0,1-1.587-4.437V257.377h-3.246v-2.849h3.246v-4.183h3.462v4.183h5.482v2.849h-5.482v10.351a3.356,3.356,0,0,0,.775,2.38,2.887,2.887,0,0,0,2.218.829,4.169,4.169,0,0,0,2.705-.9Z" style="fill:#fff"/><path d="M1065.066,254.528v19.114h-3.282v-2.885a6.964,6.964,0,0,1-2.759,2.29,8.6,8.6,0,0,1-3.732.812,8.339,8.339,0,0,1-6.022-2.111q-2.2-2.109-2.2-6.221v-11h3.462v10.6a5.935,5.935,0,0,0,1.334,4.2,4.983,4.983,0,0,0,3.822,1.425,5.709,5.709,0,0,0,4.329-1.659,6.516,6.516,0,0,0,1.586-4.689v-9.881Z" style="fill:#fff"/><path d="M1089.7,246.883v26.759h-3.317v-3.03a7.483,7.483,0,0,1-2.921,2.416,9.043,9.043,0,0,1-3.895.831,10.054,10.054,0,0,1-4.977-1.227,8.778,8.778,0,0,1-3.443-3.444,11.044,11.044,0,0,1,0-10.188,8.818,8.818,0,0,1,3.443-3.426,10.054,10.054,0,0,1,4.977-1.226,9.174,9.174,0,0,1,3.787.775,7.353,7.353,0,0,1,2.884,2.29v-10.53Zm-6.563,23.1a5.945,5.945,0,0,0,2.308-2.381,7.862,7.862,0,0,0,0-7.032,5.822,5.822,0,0,0-2.308-2.362,6.937,6.937,0,0,0-6.581,0,5.976,5.976,0,0,0-2.308,2.362,7.713,7.713,0,0,0,0,7.032,6.106,6.106,0,0,0,2.308,2.381,6.815,6.815,0,0,0,6.581,0Z" style="fill:#fff"/><path d="M1113.462,265.239h-15.507a6,6,0,0,0,2.218,4.057,7.231,7.231,0,0,0,4.706,1.533,7.087,7.087,0,0,0,5.517-2.308l1.912,2.236a8.377,8.377,0,0,1-3.228,2.308,12.163,12.163,0,0,1-9.683-.451,8.869,8.869,0,0,1-3.624-3.48,9.982,9.982,0,0,1-1.28-5.049,10.134,10.134,0,0,1,1.244-5.013,8.914,8.914,0,0,1,3.426-3.48,9.762,9.762,0,0,1,4.923-1.244,9.569,9.569,0,0,1,4.886,1.244,8.745,8.745,0,0,1,3.354,3.48,10.613,10.613,0,0,1,1.208,5.122A9.921,9.921,0,0,1,1113.462,265.239Zm-13.542-6.455a6.109,6.109,0,0,0-1.965,3.967h12.262a6.157,6.157,0,0,0-1.966-3.949,6.458,6.458,0,0,0-8.331-.018Z" style="fill:#fff"/><path d="M1134.324,256.458q2.145,2.109,2.146,6.185v11h-3.462v-10.6a5.872,5.872,0,0,0-1.334-4.183,5.019,5.019,0,0,0-3.823-1.407,5.957,5.957,0,0,0-4.436,1.641,6.414,6.414,0,0,0-1.623,4.707v9.845h-3.462V254.528h3.318v2.885a6.732,6.732,0,0,1,2.831-2.271,9.889,9.889,0,0,1,4.057-.794A7.894,7.894,0,0,1,1134.324,256.458Z" style="fill:#fff"/><path d="M1153.636,272.524a5.2,5.2,0,0,1-1.875.992,7.886,7.886,0,0,1-2.309.343,6.133,6.133,0,0,1-4.472-1.551,5.923,5.923,0,0,1-1.586-4.437V257.377h-3.246v-2.849h3.246v-4.183h3.461v4.183h5.482v2.849h-5.482v10.351a3.357,3.357,0,0,0,.776,2.38,2.886,2.886,0,0,0,2.218.829,4.169,4.169,0,0,0,2.705-.9Z" style="fill:#fff"/><path d="M1158.792,273.227a9.88,9.88,0,0,1-3.39-1.6l1.443-2.741a10.345,10.345,0,0,0,3.065,1.443,12.6,12.6,0,0,0,3.643.541q4.543,0,4.544-2.6a1.683,1.683,0,0,0-.614-1.371,3.92,3.92,0,0,0-1.532-.74q-.919-.233-2.615-.522a25.652,25.652,0,0,1-3.769-.829,5.808,5.808,0,0,1-2.505-1.587,4.408,4.408,0,0,1-1.046-3.138,4.9,4.9,0,0,1,2.164-4.165,9.686,9.686,0,0,1,5.8-1.569,16.026,16.026,0,0,1,3.823.469,10.31,10.31,0,0,1,3.137,1.262l-1.478,2.74a9.953,9.953,0,0,0-5.518-1.514,6.368,6.368,0,0,0-3.353.722,2.176,2.176,0,0,0-1.155,1.911,1.819,1.819,0,0,0,.65,1.478,4.089,4.089,0,0,0,1.6.794q.956.252,2.687.577a29.384,29.384,0,0,1,3.732.847,5.577,5.577,0,0,1,2.435,1.533,4.27,4.27,0,0,1,1.01,3.029,4.777,4.777,0,0,1-2.218,4.129,10.466,10.466,0,0,1-6.041,1.534A16.005,16.005,0,0,1,1158.792,273.227Z" style="fill:#fff"/><path d="M1198.623,256.3q2.11,1.948,2.11,5.807v11.54h-3.282v-2.525a5.461,5.461,0,0,1-2.47,2.037,9.406,9.406,0,0,1-3.8.7,7.967,7.967,0,0,1-5.14-1.551,5.331,5.331,0,0,1-.09-8.133q1.841-1.533,5.842-1.532h5.482v-.686a4.416,4.416,0,0,0-1.3-3.426,5.48,5.48,0,0,0-3.823-1.19,10.088,10.088,0,0,0-3.318.56,8.546,8.546,0,0,0-2.74,1.5l-1.443-2.6a10.478,10.478,0,0,1,3.535-1.82,14.772,14.772,0,0,1,4.363-.632A8.644,8.644,0,0,1,1198.623,256.3Zm-3.443,14.011a5.062,5.062,0,0,0,2.091-2.506v-2.669h-5.337q-4.4,0-4.4,2.957a2.677,2.677,0,0,0,1.118,2.273,5.115,5.115,0,0,0,3.1.829A6.427,6.427,0,0,0,1195.18,270.306Z" style="fill:#fff"/><path d="M1223.146,256.458q2.145,2.109,2.146,6.185v11h-3.462v-10.6a5.867,5.867,0,0,0-1.335-4.183,5.016,5.016,0,0,0-3.822-1.407,5.956,5.956,0,0,0-4.436,1.641,6.414,6.414,0,0,0-1.623,4.707v9.845h-3.462V254.528h3.318v2.885a6.726,6.726,0,0,1,2.831-2.271,9.888,9.888,0,0,1,4.056-.794A7.9,7.9,0,0,1,1223.146,256.458Z" style="fill:#fff"/><path d="M1249.85,246.883v26.759h-3.318v-3.03a7.476,7.476,0,0,1-2.921,2.416,9.035,9.035,0,0,1-3.894.831,10.056,10.056,0,0,1-4.978-1.227,8.778,8.778,0,0,1-3.443-3.444,11.052,11.052,0,0,1,0-10.188,8.818,8.818,0,0,1,3.443-3.426,10.055,10.055,0,0,1,4.978-1.226,9.169,9.169,0,0,1,3.786.775,7.363,7.363,0,0,1,2.885,2.29v-10.53Zm-6.564,23.1a5.954,5.954,0,0,0,2.309-2.381,7.871,7.871,0,0,0,0-7.032,5.831,5.831,0,0,0-2.309-2.362,6.937,6.937,0,0,0-6.581,0,5.976,5.976,0,0,0-2.308,2.362,7.721,7.721,0,0,0,0,7.032,6.106,6.106,0,0,0,2.308,2.381,6.815,6.815,0,0,0,6.581,0Z" style="fill:#fff"/><path d="M1272.1,255.214a9.68,9.68,0,0,1,4.291-.866V257.7a6.778,6.778,0,0,0-.793-.036,5.825,5.825,0,0,0-4.418,1.677,6.634,6.634,0,0,0-1.605,4.778v9.521h-3.462V254.528h3.318v3.21A5.9,5.9,0,0,1,1272.1,255.214Z" style="fill:#fff"/><path d="M1297.669,265.239h-15.508a6,6,0,0,0,2.218,4.057,7.234,7.234,0,0,0,4.707,1.533,7.092,7.092,0,0,0,5.518-2.308l1.911,2.236a8.384,8.384,0,0,1-3.228,2.308,12.163,12.163,0,0,1-9.683-.451,8.878,8.878,0,0,1-3.625-3.48,9.982,9.982,0,0,1-1.28-5.049,10.145,10.145,0,0,1,1.244-5.013,8.928,8.928,0,0,1,3.426-3.48,9.767,9.767,0,0,1,4.923-1.244,9.57,9.57,0,0,1,4.887,1.244,8.749,8.749,0,0,1,3.353,3.48,10.6,10.6,0,0,1,1.208,5.122A9.876,9.876,0,0,1,1297.669,265.239Zm-13.542-6.455a6.11,6.11,0,0,0-1.966,3.967h12.262a6.153,6.153,0,0,0-1.966-3.949,6.457,6.457,0,0,0-8.33-.018Z" style="fill:#fff"/><path d="M1303.511,273.227a9.861,9.861,0,0,1-3.39-1.6l1.442-2.741a10.352,10.352,0,0,0,3.066,1.443,12.6,12.6,0,0,0,3.642.541q4.545,0,4.544-2.6a1.685,1.685,0,0,0-.613-1.371,3.92,3.92,0,0,0-1.532-.74q-.919-.233-2.615-.522a25.652,25.652,0,0,1-3.769-.829,5.817,5.817,0,0,1-2.506-1.587,4.413,4.413,0,0,1-1.046-3.138,4.9,4.9,0,0,1,2.164-4.165,9.689,9.689,0,0,1,5.806-1.569,16.011,16.011,0,0,1,3.822.469,10.306,10.306,0,0,1,3.138,1.262l-1.478,2.74a9.953,9.953,0,0,0-5.518-1.514,6.375,6.375,0,0,0-3.354.722,2.177,2.177,0,0,0-1.154,1.911,1.819,1.819,0,0,0,.65,1.478,4.082,4.082,0,0,0,1.6.794q.955.252,2.687.577a29.384,29.384,0,0,1,3.732.847,5.577,5.577,0,0,1,2.435,1.533,4.274,4.274,0,0,1,1.009,3.029,4.776,4.776,0,0,1-2.217,4.129,10.468,10.468,0,0,1-6.041,1.534A16.005,16.005,0,0,1,1303.511,273.227Z" style="fill:#fff"/><path d="M1337.807,265.239H1322.3a6,6,0,0,0,2.218,4.057,7.232,7.232,0,0,0,4.707,1.533,7.088,7.088,0,0,0,5.517-2.308l1.911,2.236a8.373,8.373,0,0,1-3.227,2.308,12.165,12.165,0,0,1-9.684-.451,8.881,8.881,0,0,1-3.624-3.48,9.982,9.982,0,0,1-1.28-5.049,10.145,10.145,0,0,1,1.244-5.013,8.928,8.928,0,0,1,3.426-3.48,9.767,9.767,0,0,1,4.923-1.244,9.564,9.564,0,0,1,4.886,1.244,8.752,8.752,0,0,1,3.354,3.48,10.6,10.6,0,0,1,1.208,5.122A10.153,10.153,0,0,1,1337.807,265.239Zm-13.542-6.455a6.1,6.1,0,0,0-1.966,3.967h12.262a6.153,6.153,0,0,0-1.966-3.949,6.457,6.457,0,0,0-8.33-.018Z" style="fill:#fff"/><path d="M1355.171,256.3q2.109,1.948,2.109,5.807v11.54H1354v-2.525a5.464,5.464,0,0,1-2.471,2.037,9.41,9.41,0,0,1-3.8.7,7.966,7.966,0,0,1-5.139-1.551,5.33,5.33,0,0,1-.09-8.133q1.839-1.533,5.842-1.532h5.481v-.686a4.416,4.416,0,0,0-1.3-3.426,5.484,5.484,0,0,0-3.824-1.19,10.082,10.082,0,0,0-3.317.56,8.551,8.551,0,0,0-2.741,1.5l-1.443-2.6a10.483,10.483,0,0,1,3.534-1.82,14.789,14.789,0,0,1,4.364-.632A8.647,8.647,0,0,1,1355.171,256.3Zm-3.444,14.011a5.057,5.057,0,0,0,2.091-2.506v-2.669h-5.337q-4.4,0-4.4,2.957a2.679,2.679,0,0,0,1.118,2.273,5.12,5.12,0,0,0,3.1.829A6.424,6.424,0,0,0,1351.727,270.306Z" style="fill:#fff"/><path d="M1369.686,255.214a9.68,9.68,0,0,1,4.291-.866V257.7a6.778,6.778,0,0,0-.793-.036,5.825,5.825,0,0,0-4.418,1.677,6.634,6.634,0,0,0-1.605,4.778v9.521H1363.7V254.528h3.318v3.21A5.9,5.9,0,0,1,1369.686,255.214Z" style="fill:#fff"/><path d="M1381.172,272.6a9.234,9.234,0,0,1-3.589-3.481,10.4,10.4,0,0,1,0-10.061,9.118,9.118,0,0,1,3.589-3.462,10.742,10.742,0,0,1,5.211-1.244,10,10,0,0,1,4.634,1.046,7.46,7.46,0,0,1,3.155,3.029l-2.633,1.695a5.9,5.9,0,0,0-2.235-2.055,6.388,6.388,0,0,0-2.957-.686,6.834,6.834,0,0,0-3.372.83,5.9,5.9,0,0,0-2.344,2.362,7.136,7.136,0,0,0-.848,3.516,7.209,7.209,0,0,0,.848,3.552,5.9,5.9,0,0,0,2.344,2.362,6.823,6.823,0,0,0,3.372.83,6.375,6.375,0,0,0,2.957-.685,5.882,5.882,0,0,0,2.235-2.056l2.633,1.659a7.561,7.561,0,0,1-3.155,3.047,9.859,9.859,0,0,1-4.634,1.065A10.608,10.608,0,0,1,1381.172,272.6Z" style="fill:#fff"/><path d="M1414.386,256.458q2.144,2.109,2.145,6.185v11h-3.462v-10.6a5.872,5.872,0,0,0-1.334-4.183,5.017,5.017,0,0,0-3.823-1.407,5.955,5.955,0,0,0-4.435,1.641,6.414,6.414,0,0,0-1.623,4.707v9.845h-3.462V246.883h3.462v10.351a7.133,7.133,0,0,1,2.831-2.128,9.747,9.747,0,0,1,3.913-.758A7.9,7.9,0,0,1,1414.386,256.458Z" style="fill:#fff"/><path d="M1440.261,265.239h-15.508a6,6,0,0,0,2.218,4.057,7.232,7.232,0,0,0,4.707,1.533,7.088,7.088,0,0,0,5.517-2.308l1.911,2.236a8.373,8.373,0,0,1-3.227,2.308,12.165,12.165,0,0,1-9.684-.451,8.881,8.881,0,0,1-3.624-3.48,9.982,9.982,0,0,1-1.28-5.049,10.145,10.145,0,0,1,1.244-5.013,8.928,8.928,0,0,1,3.426-3.48,9.767,9.767,0,0,1,4.923-1.244,9.57,9.57,0,0,1,4.887,1.244,8.756,8.756,0,0,1,3.353,3.48,10.6,10.6,0,0,1,1.208,5.122A9.876,9.876,0,0,1,1440.261,265.239Zm-13.542-6.455a6.105,6.105,0,0,0-1.966,3.967h12.262a6.153,6.153,0,0,0-1.966-3.949,6.457,6.457,0,0,0-8.33-.018Z" style="fill:#fff"/><path d="M1451.115,255.214a9.686,9.686,0,0,1,4.291-.866V257.7a6.766,6.766,0,0,0-.793-.036,5.826,5.826,0,0,0-4.418,1.677,6.638,6.638,0,0,0-1.6,4.778v9.521h-3.462V254.528h3.317v3.21A5.906,5.906,0,0,1,1451.115,255.214Z" style="fill:#fff"/><path d="M1460.78,273.227a9.856,9.856,0,0,1-3.389-1.6l1.442-2.741a10.322,10.322,0,0,0,3.065,1.443,12.6,12.6,0,0,0,3.642.541q4.543,0,4.544-2.6a1.685,1.685,0,0,0-.612-1.371,3.915,3.915,0,0,0-1.534-.74q-.919-.233-2.614-.522a25.606,25.606,0,0,1-3.768-.829,5.815,5.815,0,0,1-2.507-1.587,4.417,4.417,0,0,1-1.046-3.138,4.9,4.9,0,0,1,2.164-4.165,9.689,9.689,0,0,1,5.806-1.569,16.032,16.032,0,0,1,3.823.469,10.348,10.348,0,0,1,3.138,1.262l-1.479,2.74a9.947,9.947,0,0,0-5.517-1.514,6.381,6.381,0,0,0-3.355.722,2.174,2.174,0,0,0-1.153,1.911,1.82,1.82,0,0,0,.648,1.478,4.1,4.1,0,0,0,1.606.794q.954.252,2.686.577a29.446,29.446,0,0,1,3.733.847,5.571,5.571,0,0,1,2.433,1.533,4.27,4.27,0,0,1,1.01,3.029,4.775,4.775,0,0,1-2.218,4.129,10.463,10.463,0,0,1-6.04,1.534A16.01,16.01,0,0,1,1460.78,273.227Z" style="fill:#fff"/><path d="M1500.611,256.3q2.111,1.948,2.11,5.807v11.54h-3.282v-2.525a5.467,5.467,0,0,1-2.47,2.037,9.415,9.415,0,0,1-3.805.7,7.968,7.968,0,0,1-5.139-1.551,5.33,5.33,0,0,1-.089-8.133q1.838-1.533,5.841-1.532h5.482v-.686a4.416,4.416,0,0,0-1.3-3.426,5.481,5.481,0,0,0-3.823-1.19,10.088,10.088,0,0,0-3.318.56,8.551,8.551,0,0,0-2.741,1.5l-1.442-2.6a10.473,10.473,0,0,1,3.534-1.82,14.777,14.777,0,0,1,4.363-.632A8.645,8.645,0,0,1,1500.611,256.3Zm-3.444,14.011a5.059,5.059,0,0,0,2.092-2.506v-2.669h-5.337q-4.4,0-4.4,2.957a2.68,2.68,0,0,0,1.119,2.273,5.117,5.117,0,0,0,3.1.829A6.424,6.424,0,0,0,1497.167,270.306Z" style="fill:#fff"/><path d="M1525.134,256.458q2.144,2.109,2.145,6.185v11h-3.462v-10.6a5.872,5.872,0,0,0-1.334-4.183,5.017,5.017,0,0,0-3.823-1.407,5.955,5.955,0,0,0-4.435,1.641,6.414,6.414,0,0,0-1.623,4.707v9.845h-3.462V254.528h3.318v2.885a6.726,6.726,0,0,1,2.831-2.271,9.889,9.889,0,0,1,4.057-.794A7.9,7.9,0,0,1,1525.134,256.458Z" style="fill:#fff"/><path d="M1551.838,246.883v26.759h-3.317v-3.03a7.5,7.5,0,0,1-2.922,2.416,9.039,9.039,0,0,1-3.895.831,10.045,10.045,0,0,1-4.976-1.227,8.79,8.79,0,0,1-3.445-3.444,11.052,11.052,0,0,1,0-10.188,8.83,8.83,0,0,1,3.445-3.426,10.045,10.045,0,0,1,4.976-1.226,9.174,9.174,0,0,1,3.787.775,7.363,7.363,0,0,1,2.885,2.29v-10.53Zm-6.564,23.1a5.945,5.945,0,0,0,2.308-2.381,7.862,7.862,0,0,0,0-7.032,5.822,5.822,0,0,0-2.308-2.362,6.937,6.937,0,0,0-6.581,0,5.969,5.969,0,0,0-2.308,2.362,7.713,7.713,0,0,0,0,7.032,6.1,6.1,0,0,0,2.308,2.381,6.815,6.815,0,0,0,6.581,0Z" style="fill:#fff"/></g><g style="isolation:isolate"><path d="M554.044,303.42q2.111,2.092,2.11,6.2v11h-3.462v-10.6a6.036,6.036,0,0,0-1.28-4.184,4.7,4.7,0,0,0-3.661-1.406,5.486,5.486,0,0,0-4.183,1.64,6.6,6.6,0,0,0-1.55,4.707v9.845h-3.462v-10.6a6.036,6.036,0,0,0-1.281-4.184,4.7,4.7,0,0,0-3.66-1.406,5.483,5.483,0,0,0-4.183,1.64,6.593,6.593,0,0,0-1.551,4.707v9.845h-3.462V301.509h3.318v2.849a6.7,6.7,0,0,1,2.741-2.254,9.172,9.172,0,0,1,3.858-.776,8.451,8.451,0,0,1,3.967.9,6.268,6.268,0,0,1,2.669,2.631,7.334,7.334,0,0,1,3.011-2.6,9.829,9.829,0,0,1,4.346-.938A7.766,7.766,0,0,1,554.044,303.42Z" style="fill:#fff"/><path d="M579.847,312.22H564.34a6,6,0,0,0,2.218,4.057,7.237,7.237,0,0,0,4.706,1.533,7.091,7.091,0,0,0,5.518-2.309l1.911,2.236a8.359,8.359,0,0,1-3.228,2.308,12.167,12.167,0,0,1-9.683-.45,8.865,8.865,0,0,1-3.624-3.481,9.978,9.978,0,0,1-1.28-5.048,10.129,10.129,0,0,1,1.244-5.013,8.923,8.923,0,0,1,3.426-3.481,9.762,9.762,0,0,1,4.923-1.244,9.569,9.569,0,0,1,4.886,1.244,8.754,8.754,0,0,1,3.354,3.481,10.606,10.606,0,0,1,1.208,5.121A9.937,9.937,0,0,1,579.847,312.22ZM566.3,305.765a6.109,6.109,0,0,0-1.965,3.967H576.6a6.155,6.155,0,0,0-1.966-3.95,6.456,6.456,0,0,0-8.331-.017Z" style="fill:#fff"/><path d="M600.709,303.439q2.145,2.109,2.146,6.184v11h-3.462v-10.6a5.874,5.874,0,0,0-1.334-4.184,5.022,5.022,0,0,0-3.823-1.406,5.961,5.961,0,0,0-4.436,1.64,6.415,6.415,0,0,0-1.623,4.707v9.845h-3.462V301.509h3.318v2.885a6.735,6.735,0,0,1,2.831-2.272,9.906,9.906,0,0,1,4.057-.794A7.893,7.893,0,0,1,600.709,303.439Z" style="fill:#fff"/><path d="M620.021,319.5a5.158,5.158,0,0,1-1.875.992,7.851,7.851,0,0,1-2.308.343,6.133,6.133,0,0,1-4.472-1.551,5.921,5.921,0,0,1-1.587-4.436V304.358h-3.245v-2.849h3.245v-4.184h3.462v4.184h5.482v2.849h-5.482v10.35a3.357,3.357,0,0,0,.776,2.38,2.88,2.88,0,0,0,2.217.829,4.172,4.172,0,0,0,2.7-.9Z" style="fill:#fff"/><path d="M626.62,319.576a9.134,9.134,0,0,1-3.552-3.48,10.527,10.527,0,0,1,0-10.062,9.029,9.029,0,0,1,3.552-3.462,11.125,11.125,0,0,1,10.224,0,9.075,9.075,0,0,1,3.534,3.462,10.527,10.527,0,0,1,0,10.062,9.182,9.182,0,0,1-3.534,3.48,10.977,10.977,0,0,1-10.224,0Zm8.421-2.614a5.982,5.982,0,0,0,2.29-2.381,7.871,7.871,0,0,0,0-7.032,5.859,5.859,0,0,0-2.29-2.361,6.975,6.975,0,0,0-6.6,0,5.967,5.967,0,0,0-2.308,2.361,7.721,7.721,0,0,0,0,7.032,6.092,6.092,0,0,0,2.308,2.381,6.845,6.845,0,0,0,6.6,0Z" style="fill:#fff"/><path d="M652.441,302.194a9.683,9.683,0,0,1,4.291-.866v3.355a6.552,6.552,0,0,0-.793-.036,5.826,5.826,0,0,0-4.418,1.676,6.64,6.64,0,0,0-1.6,4.779v9.52h-3.462V301.509h3.317v3.21A5.909,5.909,0,0,1,652.441,302.194Z" style="fill:#fff"/><path d="M661.042,297.182a2.131,2.131,0,0,1-.667-1.587,2.192,2.192,0,0,1,.667-1.606,2.275,2.275,0,0,1,1.677-.667,2.348,2.348,0,0,1,1.677.631,2.077,2.077,0,0,1,.667,1.57,2.23,2.23,0,0,1-.667,1.64,2.27,2.27,0,0,1-1.677.667A2.307,2.307,0,0,1,661.042,297.182Zm-.054,4.327h3.462v19.113h-3.462Z" style="fill:#fff"/><path d="M687.043,303.439q2.145,2.109,2.146,6.184v11h-3.462v-10.6a5.874,5.874,0,0,0-1.334-4.184,5.022,5.022,0,0,0-3.823-1.406,5.961,5.961,0,0,0-4.436,1.64,6.415,6.415,0,0,0-1.623,4.707v9.845h-3.462V301.509h3.318v2.885a6.735,6.735,0,0,1,2.831-2.272,9.906,9.906,0,0,1,4.057-.794A7.893,7.893,0,0,1,687.043,303.439Z" style="fill:#fff"/><path d="M714,301.509v16.517q0,5.012-2.489,7.411t-7.428,2.4a17.8,17.8,0,0,1-5.158-.739,10.207,10.207,0,0,1-3.967-2.11l1.659-2.668a9.8,9.8,0,0,0,3.3,1.821,12.558,12.558,0,0,0,4.057.667,6.806,6.806,0,0,0,4.959-1.587,6.535,6.535,0,0,0,1.605-4.833v-1.515a7.661,7.661,0,0,1-3.012,2.219,10.05,10.05,0,0,1-3.877.739,10.425,10.425,0,0,1-4.958-1.173,8.7,8.7,0,0,1-3.48-3.281,9.815,9.815,0,0,1,0-9.629,8.587,8.587,0,0,1,3.48-3.263,10.569,10.569,0,0,1,4.958-1.155,10.142,10.142,0,0,1,4.021.794,7.474,7.474,0,0,1,3.048,2.344v-2.957Zm-6.582,14.5a5.859,5.859,0,0,0,2.344-2.218,6.187,6.187,0,0,0,.848-3.227,5.855,5.855,0,0,0-1.839-4.491,7.425,7.425,0,0,0-9.485,0,5.855,5.855,0,0,0-1.839,4.491,6.187,6.187,0,0,0,.847,3.227,5.865,5.865,0,0,0,2.344,2.218,7.162,7.162,0,0,0,3.408.794A7.088,7.088,0,0,0,707.418,316.006Z" style="fill:#fff"/><path d="M745.41,302.555a8.821,8.821,0,0,1,3.444,3.426,11.05,11.05,0,0,1,0,10.187,8.781,8.781,0,0,1-3.444,3.444,10.04,10.04,0,0,1-4.976,1.227,9.033,9.033,0,0,1-3.895-.83,7.477,7.477,0,0,1-2.921-2.416v3.029H730.3V293.863h3.462v10.531a7.347,7.347,0,0,1,2.885-2.29,9.155,9.155,0,0,1,3.787-.776A10.04,10.04,0,0,1,745.41,302.555Zm-1.965,14.407a6.1,6.1,0,0,0,2.308-2.381,7.721,7.721,0,0,0,0-7.032,5.974,5.974,0,0,0-2.308-2.361,6.939,6.939,0,0,0-6.582,0,5.813,5.813,0,0,0-2.308,2.361,7.871,7.871,0,0,0,0,7.032,5.932,5.932,0,0,0,2.308,2.381,6.81,6.81,0,0,0,6.582,0Z" style="fill:#fff"/><path d="M771.267,301.509,762,322.533a9.483,9.483,0,0,1-2.868,4.112,6.545,6.545,0,0,1-3.948,1.19,8.341,8.341,0,0,1-2.724-.451,5.6,5.6,0,0,1-2.181-1.316l1.478-2.6a4.825,4.825,0,0,0,3.427,1.407,3.3,3.3,0,0,0,2.109-.668,5.686,5.686,0,0,0,1.533-2.29l.613-1.334L751,301.509h3.606l6.672,15.291,6.6-15.291Z" style="fill:#fff"/><path d="M787.333,319.576a9.224,9.224,0,0,1-3.589-3.48,10.4,10.4,0,0,1,0-10.062,9.118,9.118,0,0,1,3.589-3.462,10.738,10.738,0,0,1,5.21-1.244,10,10,0,0,1,4.634,1.046,7.462,7.462,0,0,1,3.156,3.029l-2.633,1.7a5.886,5.886,0,0,0-2.236-2.056,6.385,6.385,0,0,0-2.957-.685,6.839,6.839,0,0,0-3.372.83,5.9,5.9,0,0,0-2.343,2.361,7.788,7.788,0,0,0,0,7.068,5.9,5.9,0,0,0,2.343,2.363,6.839,6.839,0,0,0,3.372.83,6.373,6.373,0,0,0,2.957-.686,5.867,5.867,0,0,0,2.236-2.055l2.633,1.659a7.563,7.563,0,0,1-3.156,3.047,9.853,9.853,0,0,1-4.634,1.064A10.6,10.6,0,0,1,787.333,319.576Z" style="fill:#fff"/><path d="M804.859,297.182a2.132,2.132,0,0,1-.668-1.587,2.193,2.193,0,0,1,.668-1.606,2.275,2.275,0,0,1,1.677-.667,2.345,2.345,0,0,1,1.676.631,2.075,2.075,0,0,1,.668,1.57,2.227,2.227,0,0,1-.668,1.64,2.268,2.268,0,0,1-1.676.667A2.307,2.307,0,0,1,804.859,297.182Zm-.054,4.327h3.462v19.113h-3.462Z" style="fill:#fff"/><path d="M825.612,319.5a5.158,5.158,0,0,1-1.875.992,7.842,7.842,0,0,1-2.308.343,6.129,6.129,0,0,1-4.471-1.551,5.917,5.917,0,0,1-1.587-4.436V304.358h-3.246v-2.849h3.246v-4.184h3.462v4.184h5.481v2.849h-5.481v10.35a3.356,3.356,0,0,0,.775,2.38,2.884,2.884,0,0,0,2.218.829,4.176,4.176,0,0,0,2.7-.9Z" style="fill:#fff"/><path d="M829.85,297.182a2.128,2.128,0,0,1-.668-1.587,2.189,2.189,0,0,1,.668-1.606,2.274,2.274,0,0,1,1.676-.667,2.348,2.348,0,0,1,1.677.631,2.075,2.075,0,0,1,.668,1.57,2.227,2.227,0,0,1-.668,1.64,2.27,2.27,0,0,1-1.677.667A2.307,2.307,0,0,1,829.85,297.182Zm-.055,4.327h3.462v19.113H829.8Z" style="fill:#fff"/><path d="M857.059,312.22H841.551a6.008,6.008,0,0,0,2.218,4.057,7.237,7.237,0,0,0,4.707,1.533,7.089,7.089,0,0,0,5.517-2.309l1.911,2.236a8.363,8.363,0,0,1-3.227,2.308,12.168,12.168,0,0,1-9.683-.45,8.865,8.865,0,0,1-3.624-3.481,9.969,9.969,0,0,1-1.281-5.048,10.14,10.14,0,0,1,1.244-5.013,8.93,8.93,0,0,1,3.426-3.481,9.764,9.764,0,0,1,4.923-1.244,9.564,9.564,0,0,1,4.886,1.244,8.741,8.741,0,0,1,3.354,3.481,10.6,10.6,0,0,1,1.208,5.121A10.169,10.169,0,0,1,857.059,312.22Zm-13.542-6.455a6.11,6.11,0,0,0-1.966,3.967h12.262a6.155,6.155,0,0,0-1.966-3.95,6.455,6.455,0,0,0-8.33-.017Z" style="fill:#fff"/><path d="M862.9,320.207a9.88,9.88,0,0,1-3.39-1.6l1.443-2.742a10.323,10.323,0,0,0,3.065,1.444,12.633,12.633,0,0,0,3.642.541q4.544,0,4.544-2.6a1.685,1.685,0,0,0-.613-1.371,3.905,3.905,0,0,0-1.532-.739q-.921-.233-2.615-.523a25.523,25.523,0,0,1-3.769-.829,5.808,5.808,0,0,1-2.506-1.587,4.412,4.412,0,0,1-1.046-3.137,4.9,4.9,0,0,1,2.164-4.165,9.689,9.689,0,0,1,5.806-1.57,16.083,16.083,0,0,1,3.823.469,10.331,10.331,0,0,1,3.137,1.263l-1.478,2.74a9.945,9.945,0,0,0-5.518-1.515,6.384,6.384,0,0,0-3.354.722,2.177,2.177,0,0,0-1.154,1.911,1.824,1.824,0,0,0,.649,1.479,4.1,4.1,0,0,0,1.605.794q.956.252,2.687.577a29.406,29.406,0,0,1,3.732.846,5.571,5.571,0,0,1,2.434,1.534,4.266,4.266,0,0,1,1.01,3.029,4.777,4.777,0,0,1-2.218,4.129,10.47,10.47,0,0,1-6.04,1.533A16.005,16.005,0,0,1,862.9,320.207Z" style="fill:#fff"/><path d="M902.732,303.276q2.111,1.947,2.11,5.806v11.54H901.56V318.1a5.479,5.479,0,0,1-2.47,2.037,9.412,9.412,0,0,1-3.805.7,7.966,7.966,0,0,1-5.139-1.551,5.331,5.331,0,0,1-.09-8.133q1.839-1.531,5.842-1.532h5.482v-.685a4.415,4.415,0,0,0-1.3-3.426,5.481,5.481,0,0,0-3.823-1.191,10.11,10.11,0,0,0-3.318.56,8.551,8.551,0,0,0-2.741,1.5l-1.442-2.6a10.464,10.464,0,0,1,3.534-1.82,14.777,14.777,0,0,1,4.363-.632A8.646,8.646,0,0,1,902.732,303.276Zm-3.444,14.01a5.059,5.059,0,0,0,2.092-2.506v-2.669h-5.338q-4.4,0-4.4,2.958a2.676,2.676,0,0,0,1.118,2.272,5.108,5.108,0,0,0,3.1.829A6.424,6.424,0,0,0,899.288,317.286Z" style="fill:#fff"/><path d="M927.254,303.439q2.145,2.109,2.145,6.184v11h-3.461v-10.6a5.874,5.874,0,0,0-1.334-4.184,5.022,5.022,0,0,0-3.823-1.406,5.961,5.961,0,0,0-4.436,1.64,6.415,6.415,0,0,0-1.623,4.707v9.845H911.26V301.509h3.318v2.885a6.735,6.735,0,0,1,2.831-2.272,9.906,9.906,0,0,1,4.057-.794A7.893,7.893,0,0,1,927.254,303.439Z" style="fill:#fff"/><path d="M953.958,293.863v26.759h-3.317v-3.029a7.509,7.509,0,0,1-2.922,2.416,9.039,9.039,0,0,1-3.9.83,10.035,10.035,0,0,1-4.976-1.227,8.783,8.783,0,0,1-3.445-3.444,11.05,11.05,0,0,1,0-10.187,8.823,8.823,0,0,1,3.445-3.426,10.035,10.035,0,0,1,4.976-1.227,9.159,9.159,0,0,1,3.787.776,7.347,7.347,0,0,1,2.885,2.29V293.863Zm-6.563,23.1a5.937,5.937,0,0,0,2.307-2.381,7.862,7.862,0,0,0,0-7.032,5.817,5.817,0,0,0-2.307-2.361,6.939,6.939,0,0,0-6.582,0,5.96,5.96,0,0,0-2.308,2.361,7.713,7.713,0,0,0,0,7.032,6.085,6.085,0,0,0,2.308,2.381,6.81,6.81,0,0,0,6.582,0Z" style="fill:#fff"/><path d="M970.276,297.182a2.132,2.132,0,0,1-.668-1.587,2.193,2.193,0,0,1,.668-1.606,2.276,2.276,0,0,1,1.677-.667,2.348,2.348,0,0,1,1.677.631,2.077,2.077,0,0,1,.667,1.57,2.23,2.23,0,0,1-.667,1.64,2.27,2.27,0,0,1-1.677.667A2.309,2.309,0,0,1,970.276,297.182Zm-.054,4.327h3.462v19.113h-3.462Z" style="fill:#fff"/><path d="M996.277,303.439q2.145,2.109,2.146,6.184v11h-3.462v-10.6a5.874,5.874,0,0,0-1.334-4.184,5.022,5.022,0,0,0-3.823-1.406,5.961,5.961,0,0,0-4.436,1.64,6.415,6.415,0,0,0-1.623,4.707v9.845h-3.462V301.509H983.6v2.885a6.722,6.722,0,0,1,2.831-2.272,9.9,9.9,0,0,1,4.056-.794A7.891,7.891,0,0,1,996.277,303.439Z" style="fill:#fff"/><path d="M1022.981,293.863v26.759h-3.317v-3.029a7.494,7.494,0,0,1-2.922,2.416,9.034,9.034,0,0,1-3.894.83,10.038,10.038,0,0,1-4.977-1.227,8.781,8.781,0,0,1-3.444-3.444,11.05,11.05,0,0,1,0-10.187,8.821,8.821,0,0,1,3.444-3.426,10.038,10.038,0,0,1,4.977-1.227,9.162,9.162,0,0,1,3.787.776,7.362,7.362,0,0,1,2.885,2.29V293.863Zm-6.563,23.1a5.939,5.939,0,0,0,2.308-2.381,7.862,7.862,0,0,0,0-7.032,5.819,5.819,0,0,0-2.308-2.361,6.937,6.937,0,0,0-6.581,0,5.963,5.963,0,0,0-2.309,2.361,7.721,7.721,0,0,0,0,7.032,6.088,6.088,0,0,0,2.309,2.381,6.808,6.808,0,0,0,6.581,0Z" style="fill:#fff"/><path d="M1047.359,301.509v19.113h-3.281v-2.885a6.955,6.955,0,0,1-2.759,2.29,8.591,8.591,0,0,1-3.732.812,8.341,8.341,0,0,1-6.023-2.11q-2.2-2.11-2.2-6.221v-11h3.462v10.6a5.935,5.935,0,0,0,1.335,4.2,4.979,4.979,0,0,0,3.822,1.424,5.7,5.7,0,0,0,4.328-1.659,6.514,6.514,0,0,0,1.586-4.688v-9.881Z" style="fill:#fff"/><path d="M1054.933,320.207a9.871,9.871,0,0,1-3.39-1.6l1.442-2.742a10.329,10.329,0,0,0,3.066,1.444,12.626,12.626,0,0,0,3.641.541q4.545,0,4.544-2.6a1.685,1.685,0,0,0-.612-1.371,3.9,3.9,0,0,0-1.533-.739q-.919-.233-2.614-.523a25.523,25.523,0,0,1-3.769-.829,5.805,5.805,0,0,1-2.507-1.587,4.416,4.416,0,0,1-1.046-3.137,4.9,4.9,0,0,1,2.164-4.165,9.691,9.691,0,0,1,5.806-1.57,16.077,16.077,0,0,1,3.823.469,10.327,10.327,0,0,1,3.138,1.263l-1.479,2.74a9.94,9.94,0,0,0-5.517-1.515,6.391,6.391,0,0,0-3.355.722,2.176,2.176,0,0,0-1.153,1.911,1.824,1.824,0,0,0,.648,1.479,4.1,4.1,0,0,0,1.606.794q.955.252,2.686.577a29.386,29.386,0,0,1,3.733.846,5.567,5.567,0,0,1,2.433,1.534,4.266,4.266,0,0,1,1.01,3.029,4.777,4.777,0,0,1-2.218,4.129,10.47,10.47,0,0,1-6.04,1.533A16,16,0,0,1,1054.933,320.207Z" style="fill:#fff"/><path d="M1082.772,319.5a5.15,5.15,0,0,1-1.875.992,7.847,7.847,0,0,1-2.308.343,6.133,6.133,0,0,1-4.472-1.551,5.921,5.921,0,0,1-1.587-4.436V304.358h-3.245v-2.849h3.245v-4.184h3.462v4.184h5.482v2.849h-5.482v10.35a3.357,3.357,0,0,0,.776,2.38,2.88,2.88,0,0,0,2.217.829,4.172,4.172,0,0,0,2.705-.9Z" style="fill:#fff"/><path d="M1092.941,302.194a9.688,9.688,0,0,1,4.292-.866v3.355a6.571,6.571,0,0,0-.794-.036,5.823,5.823,0,0,0-4.417,1.676,6.641,6.641,0,0,0-1.605,4.779v9.52h-3.462V301.509h3.318v3.21A5.911,5.911,0,0,1,1092.941,302.194Z" style="fill:#fff"/><path d="M1119.2,301.509l-9.268,21.024a9.491,9.491,0,0,1-2.867,4.112,6.549,6.549,0,0,1-3.949,1.19,8.336,8.336,0,0,1-2.723-.451,5.6,5.6,0,0,1-2.182-1.316l1.479-2.6a4.825,4.825,0,0,0,3.426,1.407,3.308,3.308,0,0,0,2.11-.668,5.7,5.7,0,0,0,1.532-2.29l.613-1.334-8.438-19.077h3.606l6.671,15.291,6.6-15.291Z" style="fill:#fff"/><path d="M1142.888,319.5a5.158,5.158,0,0,1-1.875.992,7.847,7.847,0,0,1-2.308.343,6.133,6.133,0,0,1-4.472-1.551,5.921,5.921,0,0,1-1.587-4.436V304.358H1129.4v-2.849h3.246v-4.184h3.462v4.184h5.482v2.849h-5.482v10.35a3.352,3.352,0,0,0,.776,2.38,2.882,2.882,0,0,0,2.218.829,4.176,4.176,0,0,0,2.7-.9Z" style="fill:#fff"/><path d="M1149.487,319.576a9.141,9.141,0,0,1-3.552-3.48,10.52,10.52,0,0,1,0-10.062,9.035,9.035,0,0,1,3.552-3.462,11.125,11.125,0,0,1,10.224,0,9.068,9.068,0,0,1,3.534,3.462,10.527,10.527,0,0,1,0,10.062,9.175,9.175,0,0,1-3.534,3.48,10.977,10.977,0,0,1-10.224,0Zm8.42-2.614a5.962,5.962,0,0,0,2.29-2.381,7.862,7.862,0,0,0,0-7.032,5.84,5.84,0,0,0-2.29-2.361,6.971,6.971,0,0,0-6.6,0,5.956,5.956,0,0,0-2.309,2.361,7.713,7.713,0,0,0,0,7.032,6.081,6.081,0,0,0,2.309,2.381,6.841,6.841,0,0,0,6.6,0Z" style="fill:#fff"/><path d="M1189.769,319.5a5.158,5.158,0,0,1-1.875.992,7.851,7.851,0,0,1-2.308.343,6.133,6.133,0,0,1-4.472-1.551,5.921,5.921,0,0,1-1.587-4.436V304.358h-3.246v-2.849h3.246v-4.184h3.462v4.184h5.482v2.849h-5.482v10.35a3.352,3.352,0,0,0,.776,2.38,2.881,2.881,0,0,0,2.217.829,4.179,4.179,0,0,0,2.706-.9Z" style="fill:#fff"/><path d="M1199.938,302.194a9.686,9.686,0,0,1,4.291-.866v3.355a6.545,6.545,0,0,0-.792-.036,5.824,5.824,0,0,0-4.418,1.676,6.636,6.636,0,0,0-1.605,4.779v9.52h-3.462V301.509h3.318v3.21A5.9,5.9,0,0,1,1199.938,302.194Z" style="fill:#fff"/><path d="M1221.485,303.276q2.112,1.947,2.111,5.806v11.54h-3.283V318.1a5.476,5.476,0,0,1-2.469,2.037,9.415,9.415,0,0,1-3.805.7,7.969,7.969,0,0,1-5.14-1.551,5.332,5.332,0,0,1-.089-8.133q1.839-1.531,5.841-1.532h5.483v-.685a4.415,4.415,0,0,0-1.3-3.426,5.477,5.477,0,0,0-3.822-1.191,10.115,10.115,0,0,0-3.319.56,8.546,8.546,0,0,0-2.74,1.5l-1.442-2.6a10.464,10.464,0,0,1,3.534-1.82,14.772,14.772,0,0,1,4.363-.632A8.643,8.643,0,0,1,1221.485,303.276Zm-3.443,14.01a5.069,5.069,0,0,0,2.092-2.506v-2.669H1214.8q-4.4,0-4.4,2.958a2.677,2.677,0,0,0,1.119,2.272,5.1,5.1,0,0,0,3.1.829A6.425,6.425,0,0,0,1218.042,317.286Z" style="fill:#fff"/><path d="M1246.008,303.439q2.145,2.109,2.146,6.184v11h-3.462v-10.6a5.87,5.87,0,0,0-1.335-4.184,5.018,5.018,0,0,0-3.822-1.406,5.957,5.957,0,0,0-4.435,1.64,6.415,6.415,0,0,0-1.623,4.707v9.845h-3.462V301.509h3.317v2.885a6.735,6.735,0,0,1,2.831-2.272,9.909,9.909,0,0,1,4.057-.794A7.893,7.893,0,0,1,1246.008,303.439Z" style="fill:#fff"/><path d="M1255.547,320.207a9.88,9.88,0,0,1-3.39-1.6l1.443-2.742a10.311,10.311,0,0,0,3.065,1.444,12.628,12.628,0,0,0,3.642.541q4.543,0,4.544-2.6a1.685,1.685,0,0,0-.613-1.371,3.9,3.9,0,0,0-1.533-.739q-.919-.233-2.614-.523a25.523,25.523,0,0,1-3.769-.829,5.817,5.817,0,0,1-2.507-1.587,4.416,4.416,0,0,1-1.045-3.137,4.9,4.9,0,0,1,2.164-4.165,9.688,9.688,0,0,1,5.805-1.57,16.085,16.085,0,0,1,3.824.469,10.331,10.331,0,0,1,3.137,1.263l-1.478,2.74a9.945,9.945,0,0,0-5.518-1.515,6.384,6.384,0,0,0-3.354.722,2.175,2.175,0,0,0-1.154,1.911,1.821,1.821,0,0,0,.649,1.479,4.093,4.093,0,0,0,1.605.794q.955.252,2.687.577a29.406,29.406,0,0,1,3.732.846,5.576,5.576,0,0,1,2.434,1.534,4.266,4.266,0,0,1,1.01,3.029,4.779,4.779,0,0,1-2.218,4.129,10.473,10.473,0,0,1-6.04,1.533A16,16,0,0,1,1255.547,320.207Z" style="fill:#fff"/><path d="M1276.535,299.85v1.659h5.554v2.849h-5.482v16.264h-3.461V304.358H1269.9v-2.849h3.247v-1.695a6.091,6.091,0,0,1,1.658-4.508,6.288,6.288,0,0,1,4.652-1.658,7.822,7.822,0,0,1,2.164.288,5.253,5.253,0,0,1,1.731.829l-1.045,2.633a4.314,4.314,0,0,0-2.669-.9Q1276.534,296.5,1276.535,299.85Z" style="fill:#fff"/><path d="M1288.147,319.576a9.141,9.141,0,0,1-3.552-3.48,10.52,10.52,0,0,1,0-10.062,9.035,9.035,0,0,1,3.552-3.462,11.125,11.125,0,0,1,10.224,0,9.068,9.068,0,0,1,3.534,3.462,10.52,10.52,0,0,1,0,10.062,9.175,9.175,0,0,1-3.534,3.48,10.977,10.977,0,0,1-10.224,0Zm8.42-2.614a5.962,5.962,0,0,0,2.29-2.381,7.854,7.854,0,0,0,0-7.032,5.84,5.84,0,0,0-2.29-2.361,6.971,6.971,0,0,0-6.6,0,5.963,5.963,0,0,0-2.309,2.361,7.721,7.721,0,0,0,0,7.032,6.088,6.088,0,0,0,2.309,2.381,6.841,6.841,0,0,0,6.6,0Z" style="fill:#fff"/><path d="M1313.968,302.194a9.685,9.685,0,0,1,4.292-.866v3.355a6.582,6.582,0,0,0-.794-.036,5.822,5.822,0,0,0-4.417,1.676,6.641,6.641,0,0,0-1.606,4.779v9.52h-3.462V301.509h3.319v3.21A5.9,5.9,0,0,1,1313.968,302.194Z" style="fill:#fff"/><path d="M1352.141,303.42q2.109,2.092,2.109,6.2v11h-3.462v-10.6a6.036,6.036,0,0,0-1.28-4.184,4.7,4.7,0,0,0-3.66-1.406,5.485,5.485,0,0,0-4.184,1.64,6.6,6.6,0,0,0-1.551,4.707v9.845h-3.462v-10.6a6.031,6.031,0,0,0-1.28-4.184,4.7,4.7,0,0,0-3.66-1.406,5.488,5.488,0,0,0-4.184,1.64,6.6,6.6,0,0,0-1.55,4.707v9.845h-3.462V301.509h3.318v2.849a6.7,6.7,0,0,1,2.74-2.254,9.178,9.178,0,0,1,3.86-.776,8.45,8.45,0,0,1,3.966.9,6.26,6.26,0,0,1,2.668,2.631,7.343,7.343,0,0,1,3.012-2.6,9.826,9.826,0,0,1,4.346-.938A7.77,7.77,0,0,1,1352.141,303.42Z" style="fill:#fff"/><path d="M1373.453,319.576a9.229,9.229,0,0,1-3.588-3.48,10.392,10.392,0,0,1,0-10.062,9.122,9.122,0,0,1,3.588-3.462,10.742,10.742,0,0,1,5.211-1.244,10,10,0,0,1,4.634,1.046,7.468,7.468,0,0,1,3.156,3.029l-2.633,1.7a5.886,5.886,0,0,0-2.236-2.056,6.387,6.387,0,0,0-2.957-.685,6.839,6.839,0,0,0-3.372.83,5.9,5.9,0,0,0-2.344,2.361,7.788,7.788,0,0,0,0,7.068,5.91,5.91,0,0,0,2.344,2.363,6.839,6.839,0,0,0,3.372.83,6.376,6.376,0,0,0,2.957-.686,5.867,5.867,0,0,0,2.236-2.055l2.633,1.659a7.569,7.569,0,0,1-3.156,3.047,9.853,9.853,0,0,1-4.634,1.064A10.608,10.608,0,0,1,1373.453,319.576Z" style="fill:#fff"/><path d="M1390.979,297.182a2.13,2.13,0,0,1-.666-1.587,2.191,2.191,0,0,1,.666-1.606,2.278,2.278,0,0,1,1.677-.667,2.346,2.346,0,0,1,1.677.631,2.075,2.075,0,0,1,.668,1.57,2.227,2.227,0,0,1-.668,1.64,2.268,2.268,0,0,1-1.677.667A2.311,2.311,0,0,1,1390.979,297.182Zm-.053,4.327h3.462v19.113h-3.462Z" style="fill:#fff"/><path d="M1411.733,319.5a5.142,5.142,0,0,1-1.875.992,7.84,7.84,0,0,1-2.307.343,6.133,6.133,0,0,1-4.472-1.551,5.921,5.921,0,0,1-1.587-4.436V304.358h-3.246v-2.849h3.246v-4.184h3.462v4.184h5.482v2.849h-5.482v10.35a3.356,3.356,0,0,0,.775,2.38,2.884,2.884,0,0,0,2.218.829,4.174,4.174,0,0,0,2.705-.9Z" style="fill:#fff"/><path d="M1415.971,297.182a2.127,2.127,0,0,1-.667-1.587,2.188,2.188,0,0,1,.667-1.606,2.275,2.275,0,0,1,1.676-.667,2.346,2.346,0,0,1,1.677.631,2.071,2.071,0,0,1,.668,1.57,2.223,2.223,0,0,1-.668,1.64,2.268,2.268,0,0,1-1.677.667A2.308,2.308,0,0,1,1415.971,297.182Zm-.054,4.327h3.462v19.113h-3.462Z" style="fill:#fff"/><path d="M1443.18,312.22h-15.507a6,6,0,0,0,2.218,4.057,7.235,7.235,0,0,0,4.706,1.533,7.087,7.087,0,0,0,5.517-2.309l1.911,2.236a8.356,8.356,0,0,1-3.227,2.308,12.168,12.168,0,0,1-9.683-.45,8.865,8.865,0,0,1-3.624-3.481,9.978,9.978,0,0,1-1.28-5.048,10.129,10.129,0,0,1,1.244-5.013,8.917,8.917,0,0,1,3.426-3.481,9.762,9.762,0,0,1,4.923-1.244,9.563,9.563,0,0,1,4.885,1.244,8.75,8.75,0,0,1,3.355,3.481,10.606,10.606,0,0,1,1.208,5.121A9.937,9.937,0,0,1,1443.18,312.22Zm-13.542-6.455a6.109,6.109,0,0,0-1.965,3.967h12.262a6.16,6.16,0,0,0-1.966-3.95,6.456,6.456,0,0,0-8.331-.017Z" style="fill:#fff"/><path d="M1449.021,320.207a9.883,9.883,0,0,1-3.389-1.6l1.442-2.742a10.353,10.353,0,0,0,3.066,1.444,12.633,12.633,0,0,0,3.642.541q4.545,0,4.544-2.6a1.685,1.685,0,0,0-.613-1.371,3.905,3.905,0,0,0-1.532-.739q-.921-.233-2.616-.523a25.506,25.506,0,0,1-3.768-.829,5.8,5.8,0,0,1-2.506-1.587,4.412,4.412,0,0,1-1.046-3.137,4.9,4.9,0,0,1,2.164-4.165,9.689,9.689,0,0,1,5.806-1.57,16.069,16.069,0,0,1,3.822.469,10.316,10.316,0,0,1,3.138,1.263l-1.479,2.74a9.94,9.94,0,0,0-5.517-1.515,6.384,6.384,0,0,0-3.354.722,2.177,2.177,0,0,0-1.154,1.911,1.824,1.824,0,0,0,.649,1.479,4.093,4.093,0,0,0,1.605.794q.955.252,2.686.577a29.427,29.427,0,0,1,3.733.846,5.576,5.576,0,0,1,2.434,1.534,4.266,4.266,0,0,1,1.01,3.029,4.777,4.777,0,0,1-2.218,4.129,10.472,10.472,0,0,1-6.041,1.533A16.015,16.015,0,0,1,1449.021,320.207Z" style="fill:#fff"/><path d="M1475.87,297.182a2.131,2.131,0,0,1-.667-1.587,2.192,2.192,0,0,1,.667-1.606,2.276,2.276,0,0,1,1.677-.667,2.348,2.348,0,0,1,1.677.631,2.075,2.075,0,0,1,.668,1.57,2.227,2.227,0,0,1-.668,1.64,2.27,2.27,0,0,1-1.677.667A2.309,2.309,0,0,1,1475.87,297.182Zm-.054,4.327h3.462v19.113h-3.462Z" style="fill:#fff"/><path d="M1501.871,303.439q2.145,2.109,2.146,6.184v11h-3.462v-10.6a5.879,5.879,0,0,0-1.334-4.184,5.023,5.023,0,0,0-3.824-1.406,5.958,5.958,0,0,0-4.435,1.64,6.415,6.415,0,0,0-1.623,4.707v9.845h-3.462V301.509h3.318v2.885a6.735,6.735,0,0,1,2.831-2.272,9.906,9.906,0,0,1,4.057-.794A7.893,7.893,0,0,1,1501.871,303.439Z" style="fill:#fff"/><path d="M1521.183,319.5a5.158,5.158,0,0,1-1.875.992,7.847,7.847,0,0,1-2.308.343,6.133,6.133,0,0,1-4.472-1.551,5.921,5.921,0,0,1-1.587-4.436V304.358H1507.7v-2.849h3.246v-4.184h3.462v4.184h5.482v2.849H1514.4v10.35a3.352,3.352,0,0,0,.776,2.38,2.881,2.881,0,0,0,2.217.829,4.179,4.179,0,0,0,2.706-.9Z" style="fill:#fff"/><path d="M1527.782,319.576a9.141,9.141,0,0,1-3.552-3.48,10.527,10.527,0,0,1,0-10.062,9.035,9.035,0,0,1,3.552-3.462,11.125,11.125,0,0,1,10.224,0,9.061,9.061,0,0,1,3.534,3.462,10.527,10.527,0,0,1,0,10.062,9.168,9.168,0,0,1-3.534,3.48,10.977,10.977,0,0,1-10.224,0Zm8.421-2.614a5.975,5.975,0,0,0,2.29-2.381,7.871,7.871,0,0,0,0-7.032,5.853,5.853,0,0,0-2.29-2.361,6.973,6.973,0,0,0-6.6,0,5.96,5.96,0,0,0-2.308,2.361,7.713,7.713,0,0,0,0,7.032,6.085,6.085,0,0,0,2.308,2.381,6.843,6.843,0,0,0,6.6,0Z" style="fill:#fff"/></g><g style="isolation:isolate"><path d="M537.456,350.254q2.109,1.948,2.109,5.807V367.6h-3.281v-2.525a5.464,5.464,0,0,1-2.471,2.037,9.406,9.406,0,0,1-3.8.7,7.966,7.966,0,0,1-5.139-1.551,5.33,5.33,0,0,1-.09-8.133q1.839-1.533,5.842-1.532H536.1v-.686a4.417,4.417,0,0,0-1.3-3.426,5.48,5.48,0,0,0-3.823-1.19,10.082,10.082,0,0,0-3.317.56,8.551,8.551,0,0,0-2.741,1.5l-1.443-2.6a10.478,10.478,0,0,1,3.535-1.82,14.772,14.772,0,0,1,4.363-.632A8.649,8.649,0,0,1,537.456,350.254Zm-3.444,14.011a5.069,5.069,0,0,0,2.092-2.506V359.09h-5.338q-4.4,0-4.4,2.957a2.676,2.676,0,0,0,1.118,2.272,5.11,5.11,0,0,0,3.1.83A6.425,6.425,0,0,0,534.012,364.265Z" style="fill:#fff"/><path d="M573.716,340.842V367.6H570.4v-3.03a7.49,7.49,0,0,1-2.921,2.416,9.043,9.043,0,0,1-3.895.831,10.049,10.049,0,0,1-4.977-1.227,8.787,8.787,0,0,1-3.444-3.444,11.052,11.052,0,0,1,0-10.188,8.827,8.827,0,0,1,3.444-3.426,10.049,10.049,0,0,1,4.977-1.226,9.177,9.177,0,0,1,3.787.775,7.36,7.36,0,0,1,2.884,2.29v-10.53Zm-6.563,23.1a5.945,5.945,0,0,0,2.308-2.381,7.864,7.864,0,0,0,0-7.033,5.826,5.826,0,0,0-2.308-2.361,6.937,6.937,0,0,0-6.581,0,5.973,5.973,0,0,0-2.308,2.361,7.715,7.715,0,0,0,0,7.033,6.1,6.1,0,0,0,2.308,2.381,6.815,6.815,0,0,0,6.581,0Z" style="fill:#fff"/><path d="M580.334,344.16a2.129,2.129,0,0,1-.667-1.587,2.188,2.188,0,0,1,.667-1.6,2.275,2.275,0,0,1,1.677-.667,2.348,2.348,0,0,1,1.677.631,2.075,2.075,0,0,1,.667,1.569,2.232,2.232,0,0,1-.667,1.641,2.274,2.274,0,0,1-1.677.667A2.3,2.3,0,0,1,580.334,344.16Zm-.054,4.327h3.462V367.6H580.28Z" style="fill:#fff"/><path d="M608.625,348.487V365q0,5.013-2.489,7.411t-7.428,2.4a17.77,17.77,0,0,1-5.158-.74,10.207,10.207,0,0,1-3.967-2.11l1.659-2.668a9.787,9.787,0,0,0,3.3,1.821,12.531,12.531,0,0,0,4.057.667,6.806,6.806,0,0,0,4.959-1.587,6.533,6.533,0,0,0,1.605-4.833V363.85a7.68,7.68,0,0,1-3.012,2.219,10.05,10.05,0,0,1-3.877.739,10.436,10.436,0,0,1-4.958-1.173,8.7,8.7,0,0,1-3.48-3.281,9.815,9.815,0,0,1,0-9.629,8.6,8.6,0,0,1,3.48-3.264,10.58,10.58,0,0,1,4.958-1.154,10.124,10.124,0,0,1,4.021.794,7.463,7.463,0,0,1,3.048,2.343v-2.957Zm-6.582,14.5a5.866,5.866,0,0,0,2.344-2.218,6.191,6.191,0,0,0,.848-3.228,5.854,5.854,0,0,0-1.839-4.49,7.421,7.421,0,0,0-9.485,0,5.854,5.854,0,0,0-1.839,4.49,6.19,6.19,0,0,0,.847,3.228,5.872,5.872,0,0,0,2.344,2.218,7.162,7.162,0,0,0,3.408.793A7.087,7.087,0,0,0,602.043,362.985Z" style="fill:#fff"/><path d="M615.278,344.16a2.13,2.13,0,0,1-.668-1.587,2.189,2.189,0,0,1,.668-1.6,2.275,2.275,0,0,1,1.677-.667,2.345,2.345,0,0,1,1.676.631,2.073,2.073,0,0,1,.668,1.569,2.229,2.229,0,0,1-.668,1.641,2.272,2.272,0,0,1-1.676.667A2.3,2.3,0,0,1,615.278,344.16Zm-.054,4.327h3.462V367.6h-3.462Z" style="fill:#fff"/><path d="M636.032,366.483a5.2,5.2,0,0,1-1.875.992,7.885,7.885,0,0,1-2.308.343,6.133,6.133,0,0,1-4.472-1.551,5.92,5.92,0,0,1-1.587-4.437V351.336h-3.246v-2.849h3.246V344.3h3.462v4.183h5.481v2.849h-5.481v10.351a3.356,3.356,0,0,0,.775,2.38,2.887,2.887,0,0,0,2.218.829,4.167,4.167,0,0,0,2.705-.9Z" style="fill:#fff"/><path d="M653.251,350.254q2.111,1.948,2.11,5.807V367.6h-3.282v-2.525a5.467,5.467,0,0,1-2.47,2.037,9.411,9.411,0,0,1-3.805.7,7.966,7.966,0,0,1-5.139-1.551,5.331,5.331,0,0,1-.09-8.133q1.839-1.533,5.842-1.532H651.9v-.686a4.416,4.416,0,0,0-1.3-3.426,5.481,5.481,0,0,0-3.823-1.19,10.083,10.083,0,0,0-3.318.56,8.551,8.551,0,0,0-2.741,1.5l-1.442-2.6a10.464,10.464,0,0,1,3.534-1.82,14.777,14.777,0,0,1,4.363-.632A8.645,8.645,0,0,1,653.251,350.254Zm-3.444,14.011a5.059,5.059,0,0,0,2.092-2.506V359.09h-5.337q-4.4,0-4.4,2.957a2.674,2.674,0,0,0,1.118,2.272,5.108,5.108,0,0,0,3.1.83A6.424,6.424,0,0,0,649.807,364.265Z" style="fill:#fff"/><path d="M661.78,340.842h3.462V367.6H661.78Z" style="fill:#fff"/><path d="M671.841,340.842H675.3V367.6h-3.462Z" style="fill:#fff"/><path d="M698.816,348.487l-9.268,21.025a9.493,9.493,0,0,1-2.867,4.111,6.551,6.551,0,0,1-3.949,1.191,8.332,8.332,0,0,1-2.723-.452,5.58,5.58,0,0,1-2.182-1.316l1.479-2.6a4.821,4.821,0,0,0,3.426,1.408,3.3,3.3,0,0,0,2.109-.668,5.693,5.693,0,0,0,1.533-2.29l.613-1.334-8.439-19.078h3.607l6.671,15.291,6.6-15.291Z" style="fill:#fff"/><path d="M710.536,356.205h9.7V359.2h-9.7Z" style="fill:#fff"/><path d="M743.136,359.2H727.629a6,6,0,0,0,2.218,4.057,7.237,7.237,0,0,0,4.706,1.533,7.09,7.09,0,0,0,5.518-2.308l1.911,2.236a8.369,8.369,0,0,1-3.228,2.308,12.163,12.163,0,0,1-9.683-.451,8.869,8.869,0,0,1-3.624-3.48,9.982,9.982,0,0,1-1.28-5.049,10.145,10.145,0,0,1,1.244-5.013,8.921,8.921,0,0,1,3.426-3.48,9.764,9.764,0,0,1,4.923-1.244,9.569,9.569,0,0,1,4.886,1.244,8.752,8.752,0,0,1,3.354,3.48,10.611,10.611,0,0,1,1.208,5.121A9.92,9.92,0,0,1,743.136,359.2Zm-13.542-6.455a6.109,6.109,0,0,0-1.965,3.967h12.262a6.153,6.153,0,0,0-1.966-3.949,6.458,6.458,0,0,0-8.331-.018Z" style="fill:#fff"/><path d="M764,350.417q2.145,2.109,2.146,6.185v11h-3.462V357a5.872,5.872,0,0,0-1.335-4.183,5.017,5.017,0,0,0-3.823-1.407,5.953,5.953,0,0,0-4.435,1.641,6.414,6.414,0,0,0-1.623,4.707V367.6h-3.462V348.487h3.318v2.885a6.726,6.726,0,0,1,2.831-2.271,9.888,9.888,0,0,1,4.056-.794A7.9,7.9,0,0,1,764,350.417Z" style="fill:#fff"/><path d="M785.6,350.254q2.11,1.948,2.11,5.807V367.6h-3.282v-2.525a5.467,5.467,0,0,1-2.47,2.037,9.411,9.411,0,0,1-3.8.7,7.966,7.966,0,0,1-5.139-1.551,5.331,5.331,0,0,1-.09-8.133q1.839-1.533,5.842-1.532h5.482v-.686a4.416,4.416,0,0,0-1.3-3.426,5.48,5.48,0,0,0-3.823-1.19,10.088,10.088,0,0,0-3.318.56,8.551,8.551,0,0,0-2.741,1.5l-1.442-2.6a10.473,10.473,0,0,1,3.534-1.82,14.777,14.777,0,0,1,4.363-.632A8.645,8.645,0,0,1,785.6,350.254Zm-3.444,14.011a5.059,5.059,0,0,0,2.092-2.506V359.09h-5.337q-4.4,0-4.4,2.957a2.674,2.674,0,0,0,1.118,2.272,5.11,5.11,0,0,0,3.1.83A6.424,6.424,0,0,0,782.156,364.265Z" style="fill:#fff"/><path d="M809.239,349.533a8.821,8.821,0,0,1,3.444,3.426,11.052,11.052,0,0,1,0,10.188,8.781,8.781,0,0,1-3.444,3.444,10.051,10.051,0,0,1-4.976,1.227,9.033,9.033,0,0,1-3.895-.831,7.469,7.469,0,0,1-2.921-2.416v3.03h-3.318V340.842h3.462v10.53a7.356,7.356,0,0,1,2.885-2.29,9.171,9.171,0,0,1,3.787-.775A10.05,10.05,0,0,1,809.239,349.533Zm-1.965,14.408a6.106,6.106,0,0,0,2.308-2.381,7.723,7.723,0,0,0,0-7.033,5.98,5.98,0,0,0-2.308-2.361,6.939,6.939,0,0,0-6.582,0,5.826,5.826,0,0,0-2.308,2.361,7.873,7.873,0,0,0,0,7.033,5.945,5.945,0,0,0,2.308,2.381,6.817,6.817,0,0,0,6.582,0Z" style="fill:#fff"/><path d="M818.723,340.842h3.462V367.6h-3.462Z" style="fill:#fff"/><path d="M845.987,359.2H830.479a6,6,0,0,0,2.218,4.057,7.237,7.237,0,0,0,4.707,1.533,7.087,7.087,0,0,0,5.517-2.308l1.912,2.236a8.377,8.377,0,0,1-3.228,2.308,12.163,12.163,0,0,1-9.683-.451,8.869,8.869,0,0,1-3.624-3.48,9.972,9.972,0,0,1-1.28-5.049,10.134,10.134,0,0,1,1.244-5.013,8.914,8.914,0,0,1,3.426-3.48,9.761,9.761,0,0,1,4.922-1.244,9.57,9.57,0,0,1,4.887,1.244,8.752,8.752,0,0,1,3.354,3.48,10.611,10.611,0,0,1,1.208,5.121A9.92,9.92,0,0,1,845.987,359.2Zm-13.542-6.455a6.11,6.11,0,0,0-1.966,3.967h12.262a6.148,6.148,0,0,0-1.966-3.949,6.457,6.457,0,0,0-8.33-.018Z" style="fill:#fff"/><path d="M868.886,340.842V367.6h-3.317v-3.03a7.486,7.486,0,0,1-2.922,2.416,9.035,9.035,0,0,1-3.894.831,10.049,10.049,0,0,1-4.977-1.227,8.787,8.787,0,0,1-3.444-3.444,11.052,11.052,0,0,1,0-10.188,8.827,8.827,0,0,1,3.444-3.426,10.049,10.049,0,0,1,4.977-1.226,9.177,9.177,0,0,1,3.787.775,7.36,7.36,0,0,1,2.884,2.29v-10.53Zm-6.563,23.1a5.945,5.945,0,0,0,2.308-2.381,7.873,7.873,0,0,0,0-7.033,5.826,5.826,0,0,0-2.308-2.361,6.937,6.937,0,0,0-6.581,0,5.973,5.973,0,0,0-2.308,2.361,7.715,7.715,0,0,0,0,7.033,6.1,6.1,0,0,0,2.308,2.381,6.815,6.815,0,0,0,6.581,0Z" style="fill:#fff"/><path d="M902.965,348.487V367.6h-3.281v-2.885a6.977,6.977,0,0,1-2.759,2.29,8.607,8.607,0,0,1-3.733.812,8.341,8.341,0,0,1-6.022-2.111q-2.2-2.109-2.2-6.221v-11h3.462v10.6a5.926,5.926,0,0,0,1.335,4.2,4.98,4.98,0,0,0,3.822,1.425,5.708,5.708,0,0,0,4.328-1.659,6.516,6.516,0,0,0,1.586-4.689v-9.881Z" style="fill:#fff"/><path d="M915.551,349.173a9.683,9.683,0,0,1,4.291-.866v3.354a6.778,6.778,0,0,0-.793-.036,5.826,5.826,0,0,0-4.418,1.677,6.638,6.638,0,0,0-1.605,4.778V367.6h-3.462V348.487h3.318v3.21A5.906,5.906,0,0,1,915.551,349.173Z" style="fill:#fff"/><path d="M939.208,349.533a8.825,8.825,0,0,1,3.443,3.426,11.044,11.044,0,0,1,0,10.188,8.785,8.785,0,0,1-3.443,3.444,10.054,10.054,0,0,1-4.977,1.227,9.039,9.039,0,0,1-3.895-.831,7.473,7.473,0,0,1-2.92-2.416v3.03H924.1V340.842h3.462v10.53a7.353,7.353,0,0,1,2.884-2.29,9.174,9.174,0,0,1,3.787-.775A10.054,10.054,0,0,1,939.208,349.533Zm-1.966,14.408a6.115,6.115,0,0,0,2.309-2.381,7.731,7.731,0,0,0,0-7.033,5.989,5.989,0,0,0-2.309-2.361,6.937,6.937,0,0,0-6.581,0,5.826,5.826,0,0,0-2.308,2.361,7.864,7.864,0,0,0,0,7.033,5.945,5.945,0,0,0,2.308,2.381,6.815,6.815,0,0,0,6.581,0Z" style="fill:#fff"/><path d="M961.549,350.254q2.109,1.948,2.109,5.807V367.6h-3.281v-2.525a5.464,5.464,0,0,1-2.471,2.037,9.41,9.41,0,0,1-3.8.7,7.966,7.966,0,0,1-5.139-1.551,5.33,5.33,0,0,1-.09-8.133q1.839-1.533,5.842-1.532H960.2v-.686a4.413,4.413,0,0,0-1.3-3.426,5.48,5.48,0,0,0-3.823-1.19,10.082,10.082,0,0,0-3.317.56,8.551,8.551,0,0,0-2.741,1.5l-1.443-2.6a10.483,10.483,0,0,1,3.534-1.82,14.789,14.789,0,0,1,4.364-.632A8.647,8.647,0,0,1,961.549,350.254ZM958.1,364.265a5.054,5.054,0,0,0,2.092-2.506V359.09h-5.337q-4.4,0-4.4,2.957a2.676,2.676,0,0,0,1.118,2.272,5.111,5.111,0,0,0,3.1.83A6.418,6.418,0,0,0,958.1,364.265Z" style="fill:#fff"/><path d="M986.071,350.417q2.145,2.109,2.146,6.185v11h-3.462V357a5.872,5.872,0,0,0-1.334-4.183,5.019,5.019,0,0,0-3.823-1.407,5.957,5.957,0,0,0-4.436,1.641,6.414,6.414,0,0,0-1.623,4.707V367.6h-3.462V348.487H973.4v2.885a6.72,6.72,0,0,1,2.831-2.271,9.884,9.884,0,0,1,4.056-.794A7.894,7.894,0,0,1,986.071,350.417Z" style="fill:#fff"/><path d="M1033.962,350.4q2.11,2.091,2.11,6.2v11h-3.462V357a6.033,6.033,0,0,0-1.28-4.183,4.7,4.7,0,0,0-3.661-1.407,5.481,5.481,0,0,0-4.183,1.641,6.6,6.6,0,0,0-1.55,4.707V367.6h-3.462V357a6.033,6.033,0,0,0-1.281-4.183,4.7,4.7,0,0,0-3.661-1.407,5.477,5.477,0,0,0-4.182,1.641,6.591,6.591,0,0,0-1.551,4.707V367.6h-3.462V348.487h3.317v2.849a6.725,6.725,0,0,1,2.742-2.254,9.188,9.188,0,0,1,3.858-.775,8.468,8.468,0,0,1,3.967.9,6.275,6.275,0,0,1,2.669,2.632,7.327,7.327,0,0,1,3.01-2.6,9.835,9.835,0,0,1,4.346-.937A7.763,7.763,0,0,1,1033.962,350.4Z" style="fill:#fff"/><path d="M1042.509,344.16a2.125,2.125,0,0,1-.667-1.587,2.184,2.184,0,0,1,.667-1.6,2.276,2.276,0,0,1,1.677-.667,2.345,2.345,0,0,1,1.676.631,2.069,2.069,0,0,1,.668,1.569,2.226,2.226,0,0,1-.668,1.641,2.272,2.272,0,0,1-1.676.667A2.306,2.306,0,0,1,1042.509,344.16Zm-.054,4.327h3.462V367.6h-3.462Z" style="fill:#fff"/><path d="M1052.517,340.842h3.462V367.6h-3.462Z" style="fill:#fff"/><path d="M1079.779,359.2h-15.507a6,6,0,0,0,2.218,4.057,7.237,7.237,0,0,0,4.706,1.533,7.09,7.09,0,0,0,5.518-2.308l1.911,2.236a8.362,8.362,0,0,1-3.228,2.308,12.16,12.16,0,0,1-9.682-.451,8.857,8.857,0,0,1-3.624-3.48,9.972,9.972,0,0,1-1.28-5.049,10.134,10.134,0,0,1,1.244-5.013,8.912,8.912,0,0,1,3.425-3.48,9.764,9.764,0,0,1,4.923-1.244,9.569,9.569,0,0,1,4.886,1.244,8.748,8.748,0,0,1,3.355,3.48,10.623,10.623,0,0,1,1.208,5.121A9.966,9.966,0,0,1,1079.779,359.2Zm-13.542-6.455a6.114,6.114,0,0,0-1.965,3.967h12.262a6.148,6.148,0,0,0-1.966-3.949,6.458,6.458,0,0,0-8.331-.018Z" style="fill:#fff"/><path d="M1102.463,348.487V367.6h-3.281v-2.885a6.977,6.977,0,0,1-2.759,2.29,8.613,8.613,0,0,1-3.733.812,8.341,8.341,0,0,1-6.022-2.111q-2.2-2.109-2.2-6.221v-11h3.462v10.6a5.926,5.926,0,0,0,1.335,4.2,4.978,4.978,0,0,0,3.822,1.425,5.7,5.7,0,0,0,4.327-1.659,6.513,6.513,0,0,0,1.587-4.689v-9.881Z" style="fill:#fff"/><path d="M1108.161,367.113a2.384,2.384,0,0,1-.722-1.784,2.348,2.348,0,0,1,.722-1.75,2.4,2.4,0,0,1,1.731-.7,2.308,2.308,0,0,1,1.695.686,2.62,2.62,0,0,1-.019,3.551,2.283,2.283,0,0,1-1.676.7A2.389,2.389,0,0,1,1108.161,367.113Z" style="fill:#fff"/></g><line x1="516.578" y1="205.233" x2="1661.467" y2="205.233" style="fill:none;stroke:#fff;stroke-miterlimit:10;stroke-width:3px"/></g></g></g></g></svg>