<?xml version="1.0" encoding="utf-8"?>
<!-- Generator: Adobe Illustrator 26.0.1, SVG Export Plug-In . SVG Version: 6.00 Build 0)  -->
<svg version="1.1" id="Layer_1" xmlns="http://www.w3.org/2000/svg" xmlns:xlink="http://www.w3.org/1999/xlink" x="0px" y="0px"
	 viewBox="0 0 685.6 685.6" style="enable-background:new 0 0 685.6 685.6;" xml:space="preserve">
<style type="text/css">
	.st0{fill:#F4C75C;}
	.st1{fill:#69BFC3;}
	.st2{fill:#FFFFFF;}
	.st3{fill:#DC4351;}
	.st4{fill:#171717;}
</style>
<rect id="Rectangle_11_00000155865780565631953160000010821497477255257222_" x="24.8" y="629.2" class="st0" width="634" height="49"/>
<rect id="Rectangle_11" x="24.8" y="583.4" class="st1" width="634" height="49"/>
<g id="_9TH_NOVEMBER_2020">
	<g>
		<path class="st2" d="M288.7,599.4c1.7,1.7,2.5,4.2,2.5,7.4c0.1,2.1-0.4,4.1-1.3,6c-0.9,1.6-2.2,3-3.8,3.8
			c-1.8,0.9-3.7,1.3-5.7,1.3c-1.1,0-2.2-0.1-3.3-0.4c-0.9-0.2-1.8-0.6-2.7-1.1l2.1-4.1c1.1,0.7,2.4,1.1,3.7,1
			c1.3,0.1,2.5-0.4,3.5-1.2c1-0.9,1.5-2.2,1.6-3.5c-1.3,1-2.9,1.6-4.6,1.5c-1.2,0-2.4-0.3-3.5-0.8c-1-0.5-1.9-1.3-2.5-2.3
			s-1-2.2-1-3.4c0-1.3,0.4-2.6,1.1-3.6c0.7-1.1,1.7-1.9,2.9-2.4C281.4,596.1,285.7,596.8,288.7,599.4L288.7,599.4z M284.2,605.4
			c1-1,1-2.7,0-3.7l0,0c-0.6-0.5-1.3-0.7-2.1-0.7c-0.7,0-1.4,0.2-2,0.7c-0.5,0.5-0.8,1.2-0.8,1.9c0,0.7,0.3,1.4,0.8,1.9
			C281.3,606.3,283,606.3,284.2,605.4L284.2,605.4z"/>
	</g>
	<g>
		<path class="st2" d="M295.9,598.7h-3.6v-2.6h10.6v2.6h-3.6v9.2h-3.4V598.7z"/>
		<path class="st2" d="M315.4,596v11.8H312v-4.6h-4.6v4.6H304V596h3.4v4.5h4.6V596H315.4z"/>
	</g>
	<g>
		<path class="st2" d="M346.4,597.3v20.3h-4.7l-9-10.8v10.8H327v-20.3h4.7l9,10.8v-10.8H346.4z"/>
		<path class="st2" d="M354.9,616.6c-5.1-2.7-7-8.9-4.4-14c1-1.9,2.5-3.4,4.4-4.4c3.6-1.8,7.9-1.8,11.6,0c5.1,2.7,7,8.9,4.4,14
			c-1,1.9-2.5,3.4-4.4,4.4C362.8,618.4,358.5,618.4,354.9,616.6L354.9,616.6z M363.4,612.5c0.8-0.5,1.5-1.2,2-2c1-1.9,1-4.2,0-6.1
			c-0.5-0.9-1.2-1.6-2-2c-1.7-1-3.8-1-5.6,0c-0.8,0.5-1.5,1.2-2,2c-1,1.9-1,4.2,0,6.1c0.5,0.8,1.2,1.5,2,2
			C359.6,613.5,361.7,613.5,363.4,612.5z"/>
		<path class="st2" d="M394.8,597.3l-8.7,20.3h-5.7l-8.7-20.3h6.2l5.5,13.2l5.6-13.2H394.8z"/>
		<path class="st2" d="M412.3,613.1v4.4H396v-20.3h16v4.4h-10.3v3.4h9v4.3h-9v3.7L412.3,613.1L412.3,613.1z"/>
		<path class="st2" d="M433.8,617.6l-0.1-10.8l-5.2,8.8H426l-5.2-8.5v10.5h-5.3v-20.3h4.7l7.1,11.7l7-11.7h4.7l0.1,20.3H433.8z"/>
		<path class="st2" d="M461.5,608.9c0.7,0.9,1,2,1,3.1c0.1,1.7-0.7,3.2-2.1,4.1c-1.9,1.1-4,1.6-6.2,1.5h-11v-20.3h10.4
			c2.1-0.1,4.1,0.4,5.9,1.4c1.3,0.9,2,2.3,2,3.9c0,0.9-0.2,1.8-0.7,2.6s-1.2,1.4-2,1.8C459.8,607.3,460.8,608,461.5,608.9z
			 M448.9,601.4v3.9h4c1.9,0,2.9-0.7,2.9-2s-1-2-2.9-2L448.9,601.4z M456.7,611.4c0-1.4-1-2.1-3-2.1h-4.8v4.1h4.8
			C455.7,613.4,456.7,612.7,456.7,611.4L456.7,611.4z"/>
		<path class="st2" d="M481.8,613.1v4.4h-16.3v-20.3h15.9v4.4h-10.2v3.4h9v4.3h-9v3.7L481.8,613.1L481.8,613.1z"/>
		<path class="st2" d="M493.8,612.2h-3.1v5.4H485v-20.3h9.3c1.6,0,3.3,0.3,4.8,0.9c3.7,1.7,5.3,6.1,3.5,9.8
			c-0.1,0.2-0.2,0.4-0.3,0.6c-0.7,1.1-1.7,2-3,2.6l4.4,6.4h-6.1L493.8,612.2z M496.6,602.6c-0.8-0.6-1.7-0.8-2.7-0.8h-3.2v5.9h3.2
			c1,0.1,1.9-0.2,2.7-0.8c0.6-0.6,0.9-1.4,0.9-2.2S497.2,603.1,496.6,602.6z"/>
		<path class="st2" d="M510.9,612.2c0.6,0.6,1,1.5,0.9,2.4c0,0.4-0.1,0.9-0.2,1.3c-0.2,0.7-0.5,1.4-0.8,2l-1.8,4.2h-3.5l1.4-4.7
			c-0.5-0.2-1-0.6-1.3-1.1s-0.5-1.1-0.5-1.7c0-0.9,0.3-1.7,0.9-2.4c0.6-0.6,1.5-0.9,2.4-0.9C509.4,611.3,510.2,611.6,510.9,612.2z"
			/>
		<path class="st2" d="M537.7,613v4.6h-15.8V614l7.6-7.1c0.6-0.5,1.1-1.1,1.5-1.8c0.2-0.5,0.4-1,0.4-1.5c0-0.6-0.2-1.2-0.7-1.5
			c-0.6-0.4-1.2-0.6-1.9-0.5c-0.7,0-1.4,0.2-2.1,0.5c-0.6,0.3-1.2,0.8-1.5,1.5l-4.3-2.4c0.8-1.3,2-2.4,3.3-3.1
			c1.6-0.8,3.3-1.2,5.1-1.1c1.4,0,2.8,0.2,4.1,0.8c1.1,0.4,2.1,1.2,2.8,2.2s1,2.1,1,3.3c0,1.1-0.2,2.1-0.7,3.1
			c-0.7,1.3-1.6,2.4-2.7,3.3l-3.8,3.5h7.7V613z"/>
		<path class="st2" d="M543.7,616.7c-1.4-0.9-2.5-2.1-3.2-3.6c-1.5-3.6-1.5-7.7,0-11.3c0.7-1.5,1.8-2.8,3.2-3.6
			c2.9-1.7,6.4-1.7,9.2,0c1.4,0.9,2.5,2.1,3.2,3.6c1.5,3.6,1.5,7.7,0,11.3c-0.7,1.5-1.8,2.8-3.2,3.6
			C550.1,618.4,546.5,618.4,543.7,616.7z M550.6,611.9c1.1-2.9,1.1-6,0-8.9c-0.7-1.3-2.3-1.8-3.5-1.1c-0.5,0.2-0.9,0.6-1.1,1.1
			c-1.1,2.9-1.1,6.1,0,8.9c0.7,1.3,2.3,1.8,3.5,1.1C550,612.7,550.4,612.3,550.6,611.9z"/>
		<path class="st2" d="M574.7,613v4.6h-15.8V614l7.6-7.1c0.6-0.5,1.1-1.1,1.5-1.8c0.2-0.5,0.4-1,0.4-1.5c0-0.6-0.2-1.2-0.7-1.5
			c-0.6-0.4-1.2-0.6-1.9-0.5c-0.7,0-1.4,0.2-2.1,0.5c-0.6,0.3-1.2,0.8-1.5,1.5l-4.3-2.4c0.8-1.3,2-2.4,3.3-3.1
			c1.6-0.8,3.3-1.2,5.1-1.1c1.4,0,2.8,0.2,4.1,0.8c1.1,0.4,2.1,1.2,2.8,2.2s1,2.1,1,3.3c0,1.1-0.2,2.1-0.7,3.1
			c-0.7,1.3-1.6,2.4-2.7,3.3l-3.8,3.5h7.7V613z"/>
		<path class="st2" d="M580.7,616.7c-1.4-0.9-2.5-2.1-3.2-3.6c-1.5-3.6-1.5-7.7,0-11.3c0.7-1.5,1.8-2.8,3.2-3.6
			c2.9-1.7,6.4-1.7,9.2,0c1.4,0.9,2.5,2.1,3.2,3.6c1.5,3.6,1.5,7.7,0,11.3c-0.7,1.5-1.8,2.8-3.2,3.6
			C587.1,618.4,583.5,618.4,580.7,616.7z M587.6,611.9c1.1-2.9,1.1-6.1,0-8.9c-0.7-1.3-2.3-1.8-3.5-1.1c-0.5,0.2-0.9,0.6-1.1,1.1
			c-1.1,2.9-1.1,6,0,8.9c0.7,1.3,2.3,1.8,3.5,1.1C587,612.7,587.4,612.3,587.6,611.9z"/>
	</g>
</g>
<g id="INNOVATIVE_URBAN_MOBILITY_CHALLENGE">
	<g>
		<path class="st3" d="M27.6,554.5H33v18.9h-5.4V554.5z"/>
		<path class="st3" d="M54.8,554.5v18.9h-4.4L42,563.3v10.1h-5.2v-18.9h4.4l8.3,10.1v-10.1H54.8z"/>
		<path class="st3" d="M76.5,554.5v18.9h-4.4l-8.3-10.1v10.1h-5.2v-18.9H63l8.3,10.1v-10.1H76.5z"/>
		<path class="st3" d="M84.5,572.5c-4.7-2.5-6.6-8.3-4.1-13c0.9-1.7,2.3-3.2,4.1-4.1c3.4-1.7,7.4-1.7,10.8,0c1.5,0.8,2.8,2,3.8,3.5
			c1.8,3.1,1.8,7,0,10.1c-0.9,1.5-2.2,2.7-3.8,3.5C91.9,574.2,87.9,574.2,84.5,572.5L84.5,572.5z M92.5,568.7
			c0.8-0.5,1.4-1.1,1.8-1.9c0.9-1.8,0.9-3.9,0-5.6c-0.4-0.8-1.1-1.4-1.8-1.9c-1.6-0.9-3.6-0.9-5.2,0c-0.8,0.5-1.4,1.1-1.8,1.9
			c-0.9,1.8-0.9,3.9,0,5.6c0.4,0.8,1.1,1.4,1.8,1.9C88.9,569.6,90.9,569.6,92.5,568.7z"/>
		<path class="st3" d="M121.7,554.5l-8.1,18.9h-5.3l-8.1-18.9h5.7l5.1,12.3l5.2-12.3H121.7z"/>
		<path class="st3" d="M134.8,569.7h-8l-1.5,3.7h-5.4l8.3-18.9h5.3l8.4,18.9h-5.6L134.8,569.7z M133.2,565.8l-2.4-6l-2.4,6H133.2z"
			/>
		<path class="st3" d="M146.4,558.7h-5.8v-4.2h16.9v4.2h-5.8v14.7h-5.3L146.4,558.7z"/>
		<path class="st3" d="M159.6,554.5h5.3v18.9h-5.3V554.5z"/>
		<path class="st3" d="M187.8,554.5l-8.1,18.9h-5.3l-8.1-18.9h5.8l5.1,12.3l5.2-12.3H187.8z"/>
		<path class="st3" d="M204.1,569.3v4.1h-15.2v-18.9h14.8v4.1h-9.5v3.2h8.4v4h-8.4v3.5L204.1,569.3z"/>
		<path class="st3" d="M217.1,571.5c-1.6-1.8-2.5-4.1-2.3-6.5v-10.5h5.4v10.3c0,3,1.2,4.5,3.6,4.5s3.6-1.5,3.6-4.5v-10.3h5.3V565
			c0.2,2.4-0.7,4.7-2.3,6.5C226.4,574.6,220.9,574.6,217.1,571.5L217.1,571.5z"/>
		<path class="st3" d="M244.4,568.4h-2.9v5h-5.3v-18.9h8.6c1.5,0,3,0.3,4.4,0.9c2.5,1,4,3.5,3.9,6.1c0,1.3-0.3,2.5-1,3.6
			c-0.7,1-1.6,1.9-2.7,2.4l4.1,5.9h-5.7L244.4,568.4z M247,559.4c-0.7-0.5-1.6-0.8-2.5-0.7h-3v5.5h3c0.9,0.1,1.8-0.2,2.5-0.7
			c0.6-0.5,0.9-1.2,0.8-2C247.9,560.7,247.6,560,247,559.4L247,559.4z"/>
		<path class="st3" d="M273.2,565.3c0.6,0.8,0.9,1.9,0.9,2.9c0.1,1.5-0.7,3-2,3.8c-1.8,1-3.8,1.5-5.8,1.4h-10.2v-18.9h9.7
			c1.9-0.1,3.9,0.3,5.5,1.3c1.2,0.8,1.9,2.2,1.9,3.6c0,0.9-0.2,1.7-0.7,2.4c-0.5,0.7-1.1,1.3-1.9,1.7
			C271.7,563.9,272.6,564.5,273.2,565.3z M261.4,558.3v3.7h3.7c1.8,0,2.7-0.6,2.7-1.8s-0.9-1.8-2.7-1.8L261.4,558.3z M268.7,567.6
			c0-1.3-0.9-1.9-2.8-1.9h-4.5v3.8h4.5C267.8,569.5,268.7,568.9,268.7,567.6z"/>
		<path class="st3" d="M289.6,569.7h-8l-1.5,3.7h-5.5l8.3-18.9h5.3l8.4,18.9H291L289.6,569.7z M288,565.8l-2.4-6l-2.4,6H288z"/>
		<path class="st3" d="M316.1,554.5v18.9h-4.4l-8.3-10.1v10.1h-5.2v-18.9h4.4l8.3,10.1v-10.1H316.1z"/>
		<path class="st3" d="M344.8,573.4v-10l-4.9,8.2h-2.4l-4.8-7.9v9.8h-4.9v-18.9h4.4l6.6,10.9l6.5-10.9h4.4l0.1,18.9L344.8,573.4z"/>
		<path class="st3" d="M357.6,572.5c-1.5-0.8-2.8-2-3.8-3.5c-1.8-3.1-1.8-7,0-10.1c0.9-1.5,2.2-2.7,3.8-3.5c3.4-1.7,7.4-1.7,10.8,0
			c4.7,2.5,6.6,8.3,4.1,13c-0.9,1.7-2.3,3.2-4.1,4.1C365,574.2,361,574.2,357.6,572.5L357.6,572.5z M365.6,568.7
			c0.8-0.5,1.4-1.1,1.8-1.9c0.9-1.8,0.9-3.9,0-5.6c-0.4-0.8-1.1-1.5-1.8-1.9c-1.6-0.9-3.6-0.9-5.2,0c-0.8,0.5-1.4,1.1-1.8,1.9
			c-0.9,1.8-0.9,3.9,0,5.6c0.4,0.8,1.1,1.5,1.8,1.9C362.1,569.6,364,569.6,365.6,568.7z"/>
		<path class="st3" d="M393.4,565.3c0.6,0.8,0.9,1.9,0.9,2.9c0.1,1.5-0.7,3-2,3.8c-1.8,1-3.8,1.5-5.8,1.4h-10.2v-18.9h9.6
			c1.9-0.1,3.9,0.3,5.5,1.3c1.2,0.8,1.9,2.2,1.9,3.6c0,0.9-0.2,1.7-0.7,2.4c-0.5,0.7-1.1,1.3-1.9,1.7
			C391.9,563.9,392.8,564.5,393.4,565.3z M381.6,558.3v3.7h3.7c1.8,0,2.7-0.6,2.7-1.8s-0.9-1.8-2.7-1.8L381.6,558.3z M388.9,567.6
			c0-1.3-0.9-1.9-2.8-1.9h-4.5v3.8h4.5C388,569.5,388.9,568.9,388.9,567.6L388.9,567.6z"/>
		<path class="st3" d="M397.1,554.5h5.4v18.9h-5.4V554.5z"/>
		<path class="st3" d="M406.3,554.5h5.4v14.7h9v4.2h-14.4V554.5z"/>
		<path class="st3" d="M422.7,554.5h5.4v18.9h-5.4V554.5z"/>
		<path class="st3" d="M435.9,558.7h-5.8v-4.2H447v4.2h-5.8v14.7h-5.3L435.9,558.7z"/>
		<path class="st3" d="M458.7,566.6v6.8h-5.4v-6.9l-7.2-12h5.6l4.5,7.5l4.5-7.5h5.2L458.7,566.6z"/>
		<path class="st3" d="M479.2,572.5c-1.5-0.8-2.8-2-3.7-3.5c-1.8-3.1-1.8-7,0-10.2c0.9-1.5,2.2-2.7,3.7-3.5c1.6-0.9,3.5-1.3,5.3-1.3
			c1.6,0,3.2,0.3,4.7,0.9c1.4,0.6,2.5,1.5,3.5,2.6l-3.4,3.1c-1.1-1.4-2.7-2.2-4.5-2.2c-1,0-1.9,0.2-2.7,0.7
			c-0.8,0.4-1.4,1.1-1.9,1.9c-0.9,1.8-0.9,3.9,0,5.6c0.4,0.8,1.1,1.5,1.9,1.9c0.8,0.5,1.8,0.7,2.7,0.7c1.7,0,3.4-0.8,4.5-2.2
			l3.4,3.1c-0.9,1.2-2.1,2.1-3.5,2.6c-1.5,0.6-3.1,0.9-4.7,0.9C482.7,573.8,480.9,573.4,479.2,572.5z"/>
		<path class="st3" d="M513,554.5v18.9h-5.3V566h-7.3v7.4h-5.3v-18.9h5.3v7.1h7.3v-7.1H513z"/>
		<path class="st3" d="M529.5,569.7h-8l-1.5,3.7h-5.5l8.3-18.9h5.3l8.4,18.9H531L529.5,569.7z M527.9,565.8l-2.4-6l-2.4,6H527.9z"/>
		<path class="st3" d="M538,554.5h5.3v14.7h9v4.2H538V554.5z"/>
		<path class="st3" d="M554.5,554.5h5.3v14.7h9v4.2h-14.3V554.5z"/>
		<path class="st3" d="M586.2,569.3v4.1H571v-18.9h14.8v4.1h-9.5v3.2h8.4v4h-8.4v3.5L586.2,569.3z"/>
		<path class="st3" d="M607.1,554.5v18.9h-4.4l-8.3-10.1v10.1h-5.2v-18.9h4.4l8.3,10.1v-10.1H607.1z"/>
		<path class="st3" d="M623.6,563.5h4.7v7.8c-1.1,0.8-2.4,1.4-3.7,1.8c-1.4,0.4-2.8,0.6-4.2,0.6c-1.9,0-3.7-0.4-5.3-1.3
			c-1.5-0.8-2.8-2-3.7-3.5c-1.8-3.1-1.8-7,0-10.2c0.9-1.5,2.2-2.7,3.8-3.5c1.7-0.9,3.5-1.3,5.4-1.3c1.6,0,3.2,0.3,4.8,0.9
			c1.4,0.6,2.6,1.4,3.5,2.6l-3.4,3.1c-1.1-1.3-2.8-2.1-4.6-2.1c-2.8-0.2-5.2,2-5.4,4.8c0,0.2,0,0.4,0,0.6c0,1,0.2,1.9,0.7,2.8
			c0.4,0.8,1.1,1.5,1.9,1.9c0.9,0.5,1.8,0.7,2.8,0.7s2-0.2,2.9-0.6v-5.1H623.6z"/>
		<path class="st3" d="M646.9,569.3v4.1h-15.2v-18.9h14.8v4.1H637v3.2h8.4v4H637v3.5L646.9,569.3z"/>
	</g>
</g>
<g id="logo-05">
	<g id="Group_5">
		<g id="Group_3">
			<path id="Path_9" class="st0" d="M84.7,263.5c6.7-7.4,12.6-13.6,20.4-17.5c11.8-5.9,24-8,36.6-2.7c7,2.9,11.2,8.4,13.6,15.4
				c0.5,1.4,0.1,3.6,1.7,4c2,0.5,2.6-1.8,3.6-3c11.5-13.9,26.3-20.9,44.3-19c15.6,1.7,25,13.7,25.2,30.8c0.2,12.7-2.4,25.1-4.7,37.5
				c-3.3,17.7-6.9,35.3-10.1,53c-0.6,3.2-1.8,4.3-5.1,4.1c-7-0.3-13.9-0.2-20.9,0c-3,0-3.6-0.7-3-3.7c4.4-22.9,8.7-45.9,12.8-68.9
				c1-5,1.3-10.1,1-15.1c-1-13.4-14.3-17.4-24.9-10.7c-12.8,8.2-18.8,21-21.8,35.1c-4.3,19.7-7.7,39.5-11.3,59.3
				c-0.6,3.1-1.7,4-4.8,4c-6.8-0.2-13.6-0.3-20.4,0c-4.2,0.2-4.3-1.3-3.6-4.8c4.7-24,9.2-48,13.5-72c1-4.7,0.9-9.6-0.3-14.2
				c-2.5-8.8-10-12.7-18.7-9.7c-10.3,3.6-16.3,11.7-21.4,20.7c-7.2,12.9-8.3,27.5-11.1,41.7C73,339.4,70.9,351,69,362.7
				c-0.5,2.9-1.7,3.4-4.3,3.4c-7-0.1-13.9-0.2-20.9,0c-3.3,0.1-4.4-0.9-3.8-4.2c3.4-18.1,6.8-36.2,10.1-54.4
				c3.7-20.1,8-40,10.4-60.4c0.3-3.1,1.6-4.2,4.7-4.1c5.9,0.2,11.8,0.2,17.6,0c2.8-0.1,3.8,0.8,3.7,3.7
				C86.5,251.9,85.6,257,84.7,263.5z"/>
			<path id="Path_10" class="st0" d="M263,309.9c1.2-21.4,11.3-45.5,37-60.4c20-11.5,41.3-13.6,62.1-1.6
				c12.6,7.2,19.5,18.9,21.5,33.3c3.1,21.9-2,41.8-14.9,59.7c-16,22.1-45.5,32.6-71.3,25.8C277.9,361.5,262.2,342.9,263,309.9z
				 M353.7,292.4c0.1-1.8,0.1-3.7,0-5.5c-1.2-8.5-3.9-16.2-12-20.7c-10.1-5.7-24.1-2.6-32.3,7c-11,13-16.1,28.2-15.9,45
				c0.1,6.6,1.3,13.1,5.5,18.6c9.1,11.9,26.8,13.1,39.5-1.9C348.8,322.8,353.4,308.2,353.7,292.4L353.7,292.4z"/>
			<path id="Path_11" class="st0" d="M581.5,315.8H581c-9.3,0-9.9,0.8-7.7,10c2.6,10.6,10.2,17.4,21.3,18.9
				c12.5,1.7,24.2-0.7,35.7-5.5c4.8-2,5.1-2,5.5,3.2c0.1,4.2,0.7,8.3,1.6,12.3c0.8,2.8-0.2,4.6-3.1,5.7c-19.7,8-40,11-60.6,4.9
				c-13.5-4-22.5-13.6-27.2-27.3c-10.6-31.3,6.1-73,34.3-88.9c18.5-10.4,37.9-13.4,57.2-2.3c14.2,8.2,17.3,22.9,13.6,37.9
				s-16,21.5-29.5,25.7C609,314.8,595.2,315.2,581.5,315.8z M584.8,293.7c2.3-0.2,6.3-0.4,10.3-0.8c8-0.7,16-1.6,23.1-5.9
				c4.6-2.5,7.3-7.5,6.7-12.7c-0.3-5.2-3-8.5-7.7-10.4c-4.8-1.9-10.1-2-15-0.4c-11.7,3.4-19,11.5-23.9,22.2
				C574.8,293,575.2,293.7,584.8,293.7L584.8,293.7z"/>
			<path id="Path_12" class="st0" d="M456.8,334.6c6.5-13.5,12.2-26.9,18.8-39.9c7.8-15.5,15.5-31.1,23.1-46.7
				c1.8-3.6,3.8-5.2,8.1-5c8.8,0.4,17.6,0.1,26.7,0.1c-0.3,2.5-1.6,4.3-2.6,6.1c-18.6,33.3-37.2,66.6-55.8,99.9
				c-2.7,4.8-5.5,9.6-8,14.4c-0.9,1.7-1.8,2.6-3.8,2.6c-8.2-0.1-16.4-0.1-24.6,0c-2,0-2.9-0.5-3.3-2.7
				c-6.6-38.9-13.4-77.8-20.1-116.7c-0.5-2.6,0.3-3.7,3.1-3.6c7.9,0.1,15.8,0.2,23.7,0c2.9-0.1,3.6,1.2,3.9,3.8
				c2,16.3,4.2,32.6,6.3,48.9C453.7,308.7,455.2,321.6,456.8,334.6z"/>
		</g>
		<g id="Group_4">
			<path id="Path_13" class="st4" d="M216.7,178.8c1.9-4.2,3.4-7.4,4.9-10.7c11.7-26.8,23.4-53.6,35-80.4c1.3-3,2.8-3.9,5.8-3.7
				c4,0.2,8.1,0.1,12.6,0.1c-0.6,1.8-0.9,3-1.4,4.1c-15.8,36.1-31.7,72.1-47.4,108.2c-1.5,3.4-3.4,4.2-7,4.7
				c-7.9,1-11.3-2.3-14.2-9.3c-9.6-23.7-20.1-47.1-30.3-70.6c-0.5-1.3-1.2-2.5-1.8-3.7c-0.4,0.1-0.8,0.1-1.1,0.2V201
				c-5.6,0-10.4,0.1-15.3-0.1c-0.7,0-1.6-1.3-1.9-2.2c-0.2-0.8-0.2-1.7-0.1-2.6c0-35.7,0.1-71.3-0.1-107c0-4.1,1.3-5.3,5.2-5
				c3.8,0.3,7.6,0.3,11.4,0c3.1-0.2,4.6,1,5.8,3.8c12.4,28.5,24.8,57.1,37.4,85.6C214.8,174.8,215.5,176.3,216.7,178.8z"/>
			<path id="Path_14" class="st4" d="M123.8,118.1c-5.1,0-10,0.1-14.9-0.1c-0.9-0.1-2.2-1.6-2.6-2.7c-4.8-13.2-12.3-18.8-26.5-18.8
				c-5.6,0-11.3,0.6-16.8,1.9c-6.1,1.5-10.7,5.3-11.4,12.2c-0.7,7.5,1.8,12.4,9.2,15.5c8.6,3.5,17.5,6.1,26.3,9.1
				c6.8,2.4,13.8,4.6,20.4,7.5c11.9,5.1,19.3,14,19.1,27.4s-7.1,22.6-19.2,28c-11.5,5.1-23.8,5.1-36,4.4c-10.3-0.6-20.1-3.4-28-10.4
				c-7.5-6.7-10.9-15.4-12.3-25.2c-0.4-3,0.7-4.2,3.8-4.1c3.8,0.2,8.2-1.1,11.1,0.5c2.4,1.3,2.9,5.9,4.2,9.1
				c2.7,7.2,8.9,12.6,16.5,14.1c10.6,2.5,21.1,2.5,31.2-1.8c3.8-1.7,7.2-4.3,9.7-7.6c3.8-5,2.3-12-2.4-17.1s-11-6.9-17.2-8.9
				c-12.1-4.1-24.3-7.9-36.3-12.1c-9.3-3.3-15.5-9.8-17-19.7c-1.7-11.1,1.1-21,10.7-28.1c9.9-7.3,21.3-10,33.3-9.2
				c7.7,0.5,15.8,1.2,23,3.9C116.1,91.3,122.6,102.8,123.8,118.1z"/>
			<path id="Path_15" class="st4" d="M507.8,146.8c0.8,0.6,1.7,1.1,2.7,1.6c9.7,3.2,13.7,10.5,14.8,20c0.6,5.7,1,11.6,2.2,17.2
				c1.1,5.1,3.2,10.1,4.9,15.3c-4.8,0-10.1,0.2-15.4-0.1c-1.6-0.4-2.9-1.6-3.5-3.1c-1.7-7-2.9-14.1-4.3-21.1
				c-0.5-2.6-0.6-5.2-1.3-7.7c-2.3-8.8-8.2-13.2-19.3-13.7c-10.2-0.4-20.4-0.1-30.6-0.1c-2.9,0-3.7,1.2-3.7,4
				c0.1,12.6,0,25.2,0.1,37.8c0,3.2-0.9,4.5-4.2,4.1c-4.1-0.4-9.6,1-12.1-1.1c-2.1-1.9-0.9-7.6-0.9-11.6c0-14.3,0.1-28.7-0.1-43
				c0-3.6,1-4.7,4.7-4.7c15.3,0.2,30.6-0.1,45.9,0.2c20.7,0.3,25.4-15.4,21.8-29.8c-1.9-7.7-8.3-11.1-15.4-11.4
				c-13.3-0.7-26.7-0.3-40.1-0.4c-2.2,0-4.4,0.2-6.5,0.1c-3.3-0.1-8.8,0.5-9.4-0.9c-1.5-3.5-0.9-7.9-0.7-11.9c0-0.8,1.9-2.2,2.8-2.1
				c19.6,0.2,39.4-0.8,58.9,1.1c23.1,2.2,30.6,19.2,28.3,38.1C526,135,519.8,142.9,507.8,146.8z"/>
			<path id="Path_16" class="st4" d="M597.2,149.8v-45.2c0-6.1,0-6.1-6-6.2c-9.9,0-19.8-0.1-29.7,0c-3.2,0-4.3-0.9-4.3-4.2
				c0-10.2-0.1-10.2,10.2-10.2c27,0,53.9,0.1,80.8-0.1c4,0,5,1.3,4.8,5c-0.3,11.2,1.4,9.4-9.4,9.5c-7.7,0.1-15.4,0-23.2,0
				c-6.8,0-6.8,0-6.8,6.6c0,30.1-0.1,60.3,0.1,90.5c0,4.1-0.9,6-5.3,5.4c-2.3-0.3-4.7-0.3-7,0c-3.7,0.4-4.4-1.3-4.4-4.5
				C597.3,180.9,597.2,165.4,597.2,149.8L597.2,149.8z"/>
			<path id="Path_17" class="st4" d="M414.1,200.8c-4.9,0-9-0.3-13,0.1s-5.8-1.1-7.2-4.9c-12.8-34.6-25.6-69.1-38.6-103.5
				c-1-2.7-2-5.3-3.1-8.5c5.4,0,10-0.3,14.6,0.2c1.4,0.2,3.2,2.2,3.8,3.7c9.7,24.8,19.3,49.6,28.9,74.3c4.3,11,8.6,22.1,12.9,33.1
				C412.9,196.9,413.3,198.6,414.1,200.8z"/>
			<path id="Path_18" class="st4" d="M304.2,200.8c2.4-6.4,4.6-12.2,6.8-17.9c5.1-13.1,10.2-26.1,15.2-39.2c0.9-2.4,2.1-3.4,4.8-3.3
				c6.4,0.2,12.8-0.1,19.2,0.2c1.7,0.2,3.2,1.2,4.1,2.7c1.7,3.3,2.9,6.9,4.7,11.5c-5.1,0-9.5,0.3-13.8-0.1s-6.4,1.3-7.8,5.4
				c-4.3,12.4-9,24.7-13.4,37c-1,2.7-2.2,4-5.3,3.8C314,200.6,309.4,200.8,304.2,200.8z"/>
			<path id="Path_19" class="st4" d="M261.4,139.1h17.9v62.3h-17.9V139.1z"/>
		</g>
	</g>
</g>
<g id="_9TH_NOVEMBER_2020-2">
	<g>
		<path class="st2" d="M89.8,597.7h5.7v15.8h9.7v4.6H89.8V597.7z"/>
		<path class="st2" d="M121.3,614h-8.6l-1.6,3.9h-5.9l9-20.3h5.7l9,20.3h-6L121.3,614z M119.7,609.8l-2.6-6.5l-2.6,6.5H119.7z"/>
		<path class="st2" d="M132.4,615.9c-1.7-1.6-2.5-4-2.5-7v-11.2h5.7v11.1c0,3.3,1.3,4.9,3.9,4.9c2.6,0,3.8-1.6,3.8-4.9v-11.1h5.6
			v11.2c0.2,2.6-0.7,5.1-2.5,7C142.4,619.2,136.5,619.2,132.4,615.9L132.4,615.9z"/>
		<path class="st2" d="M172.2,597.7V618h-4.7l-9-10.8V618h-5.6v-20.3h4.7l9,10.8v-10.9h5.6V597.7z"/>
		<path class="st2" d="M180.7,617c-1.7-0.9-3-2.2-4-3.8c-1.9-3.4-1.9-7.5,0-10.9c1-1.6,2.3-2.9,4-3.8c1.8-0.9,3.7-1.4,5.7-1.3
			c1.7,0,3.4,0.3,5,1c1.4,0.6,2.7,1.6,3.7,2.8l-3.7,3.3c-1.1-1.5-2.9-2.4-4.8-2.4c-1,0-2.1,0.2-3,0.7c-0.8,0.5-1.5,1.2-2,2
			c-0.9,1.9-0.9,4.2,0,6.1c0.5,0.9,1.2,1.6,2,2c2.6,1.4,5.9,0.7,7.7-1.7l3.7,3.3c-1,1.2-2.3,2.2-3.7,2.8c-1.6,0.7-3.3,1-5,1
			C184.4,618.4,182.4,617.9,180.7,617z"/>
		<path class="st2" d="M217,597.7V618h-5.7v-8h-7.8v8h-5.7v-20.3h5.7v7.6h7.8v-7.6H217z"/>
		<path class="st2" d="M237.3,613.5v4.5H221v-20.3h16v4.4h-10.3v3.4h9v4.3h-9v3.7H237.3z"/>
		<path class="st2" d="M240.5,597.7h9.6c2,0,4.1,0.4,5.9,1.2c1.6,0.8,3,2,4,3.5c1.9,3.3,1.9,7.4,0,10.7c-1,1.5-2.4,2.8-4,3.5
			c-1.9,0.9-3.9,1.3-5.9,1.2h-9.6V597.7z M249.9,613.4c1.5,0.1,3-0.5,4.2-1.5c2.1-2.3,2.1-5.9,0-8.2c-1.2-1-2.7-1.5-4.2-1.5h-3.6
			v11.1h3.6V613.4z"/>
	</g>
</g>
<g>
	<path d="M77.8,665.6c-1.8-0.9-3.1-2.2-4.1-3.9s-1.5-3.5-1.5-5.6s0.5-4,1.5-5.6c1-1.7,2.4-3,4.1-3.9c1.8-0.9,3.7-1.4,5.9-1.4
		c1.9,0,3.6,0.3,5.2,1c1.5,0.7,2.8,1.7,3.8,2.9l-3.8,3.4c-1.4-1.6-3-2.5-4.9-2.5c-1.1,0-2.2,0.2-3,0.8c-0.9,0.5-1.6,1.2-2.1,2.1
		c-0.5,0.9-0.7,2-0.7,3.1c0,1.2,0.2,2.2,0.7,3.1c0.5,0.9,1.2,1.6,2.1,2.1s1.9,0.8,3,0.8c1.9,0,3.6-0.8,4.9-2.5l3.8,3.4
		c-1,1.3-2.3,2.3-3.8,2.9s-3.3,1-5.2,1C81.5,667,79.6,666.5,77.8,665.6z"/>
	<path d="M97.2,664.4c-1.7-1.7-2.6-4.1-2.6-7.2v-11.6h5.9V657c0,3.4,1.3,5,4,5c2.6,0,4-1.7,4-5v-11.5h5.9v11.6
		c0,3.1-0.9,5.5-2.6,7.2s-4.2,2.5-7.3,2.5S99,666.1,97.2,664.4z"/>
	<path d="M118.1,645.6h5.9v16.3h10v4.7h-16L118.1,645.6L118.1,645.6z"/>
	<path d="M155,666.6l-0.1-11.1l-5.4,9.1h-2.6l-5.4-8.8v10.8H136v-21h4.9l7.4,12.1l7.2-12.1h4.9l0.1,21H155z"/>
	<path d="M164.3,645.6h5.9v21h-5.9V645.6z"/>
	<path d="M194.2,645.6v21h-4.9l-9.3-11.2v11.2h-5.8v-21h4.9l9.3,11.2v-11.2H194.2L194.2,645.6z"/>
	<path d="M212.1,662.5h-8.9l-1.6,4.1h-6.1l9.3-21h5.9l9.3,21h-6.2L212.1,662.5z M210.4,658.1l-2.7-6.7l-2.7,6.7H210.4z"/>
	<path d="M224.7,650.3h-6.4v-4.7h18.8v4.7h-6.4v16.3h-5.9v-16.3H224.7z"/>
	<path d="M255.8,662v4.6h-16.9v-21h16.5v4.6h-10.6v3.5h9.3v4.4h-9.3v3.8h11V662z"/>
	<path d="M258.8,645.6h9.9c2.3,0,4.3,0.4,6.1,1.3c1.8,0.9,3.2,2.1,4.1,3.7c1,1.6,1.5,3.4,1.5,5.5s-0.5,4-1.5,5.5
		c-1,1.6-2.4,2.8-4.1,3.7c-1.8,0.9-3.8,1.3-6.1,1.3h-9.9V645.6z M268.5,661.8c1.8,0,3.2-0.5,4.3-1.5c1.1-1,1.6-2.4,1.6-4.2
		s-0.5-3.2-1.6-4.2s-2.5-1.5-4.3-1.5h-3.8v11.5L268.5,661.8L268.5,661.8z"/>
	<path d="M305.3,656.1c0.9,1.1,1.4,2.4,1.4,3.9c0,1.2-0.3,2.4-1,3.5s-1.7,1.9-3.1,2.6c-1.4,0.6-3.1,1-5.1,1c-1.5,0-2.9-0.2-4.4-0.5
		c-1.5-0.4-2.7-0.9-3.8-1.5l2.2-4.5c0.8,0.6,1.7,1,2.8,1.3c1,0.3,2,0.5,3,0.5s1.8-0.2,2.4-0.6s0.9-0.9,0.9-1.6c0-1.4-1.1-2-3.2-2
		H295v-3.8l3.8-4h-8.3v-4.6h15.2v3.7l-4.4,4.7C303.1,654.3,304.4,655,305.3,656.1z"/>
	<path d="M317.3,645.6v21h-5.9v-16.4h-3.9v-4.6H317.3L317.3,645.6z"/>
	<path d="M321.7,656.5c-0.9-0.2-1.7-0.6-2.3-1l1.1-2.6c0.5,0.4,1.2,0.7,1.9,0.9c0.7,0.2,1.4,0.3,2.1,0.3c1.3,0,2-0.3,2-1
		c0-0.3-0.2-0.6-0.6-0.8s-1-0.3-1.8-0.5c-0.9-0.2-1.7-0.4-2.3-0.6c-0.6-0.2-1.1-0.6-1.6-1.1c-0.4-0.5-0.7-1.2-0.7-2
		c0-0.7,0.2-1.4,0.6-2s1-1.1,1.8-1.4c0.8-0.3,1.8-0.5,3-0.5c0.8,0,1.6,0.1,2.4,0.3c0.8,0.2,1.5,0.4,2.1,0.8l-1.1,2.6
		c-1.2-0.6-2.3-0.9-3.4-0.9c-0.7,0-1.2,0.1-1.5,0.3c-0.3,0.2-0.5,0.5-0.5,0.8c0,0.3,0.2,0.6,0.6,0.7c0.4,0.2,1,0.3,1.8,0.5
		c0.9,0.2,1.7,0.4,2.3,0.6c0.6,0.2,1.1,0.6,1.6,1.1c0.4,0.5,0.7,1.2,0.7,2c0,0.7-0.2,1.4-0.6,2s-1,1.1-1.8,1.4
		c-0.8,0.4-1.8,0.5-3,0.5C323.6,656.8,322.7,656.7,321.7,656.5z"/>
	<path d="M333.9,647.1h-3.8v-2.7h11v2.7h-3.7v9.5h-3.5V647.1z"/>
	<path d="M351.5,645.6h9.9c2.3,0,4.3,0.4,6.1,1.3c1.8,0.9,3.2,2.1,4.1,3.7c1,1.6,1.5,3.4,1.5,5.5s-0.5,4-1.5,5.5
		c-1,1.6-2.4,2.8-4.1,3.7c-1.8,0.9-3.8,1.3-6.1,1.3h-9.9V645.6z M361.2,661.8c1.8,0,3.2-0.5,4.3-1.5c1.1-1,1.6-2.4,1.6-4.2
		s-0.5-3.2-1.6-4.2s-2.5-1.5-4.3-1.5h-3.8v11.5L361.2,661.8L361.2,661.8z"/>
	<path d="M392.8,662v4.6h-16.9v-21h16.5v4.6h-10.6v3.5h9.3v4.4h-9.3v3.8h11V662z"/>
	<path d="M400.3,665.6c-1.8-0.9-3.1-2.2-4.1-3.9s-1.5-3.5-1.5-5.6s0.5-4,1.5-5.6c1-1.6,2.4-3,4.1-3.9c1.8-0.9,3.7-1.4,5.9-1.4
		c1.9,0,3.6,0.3,5.2,1c1.5,0.7,2.8,1.7,3.8,2.9l-3.8,3.4c-1.4-1.6-3-2.5-5-2.5c-1.1,0-2.2,0.2-3,0.8c-0.9,0.5-1.6,1.2-2.1,2.1
		s-0.7,2-0.7,3.1c0,1.2,0.2,2.2,0.7,3.1c0.5,0.9,1.2,1.6,2.1,2.1s1.9,0.8,3,0.8c1.9,0,3.6-0.8,5-2.5l3.8,3.4c-1,1.3-2.3,2.3-3.8,2.9
		s-3.3,1-5.2,1C404,667,402,666.5,400.3,665.6z"/>
	<path d="M434.4,662v4.6h-16.9v-21H434v4.6h-10.6v3.5h9.3v4.4h-9.3v3.8h11V662z"/>
	<path d="M456.3,666.6l-0.1-11.1l-5.4,9.1h-2.6l-5.4-8.8v10.8h-5.5v-21h4.9l7.4,12.1l7.2-12.1h4.9l0.1,21H456.3z"/>
	<path d="M484.6,657.6c0.7,0.9,1,2,1,3.2c0,1.8-0.7,3.3-2.2,4.3s-3.6,1.5-6.4,1.5h-11.3v-21h10.7c2.7,0,4.7,0.5,6.1,1.5
		s2.1,2.3,2.1,4c0,1-0.2,1.9-0.7,2.7s-1.2,1.4-2.1,1.9C483,656,483.9,656.7,484.6,657.6z M471.5,649.9v4h4.1c2,0,3-0.7,3-2s-1-2-3-2
		H471.5L471.5,649.9z M479.6,660.1c0-1.4-1-2.1-3.1-2.1h-5v4.3h5C478.6,662.3,479.6,661.6,479.6,660.1z"/>
	<path d="M505.3,662v4.6h-16.9v-21h16.5v4.6h-10.6v3.5h9.3v4.4h-9.3v3.8h11V662z"/>
	<path d="M517.4,661h-3.2v5.6h-5.9v-21h9.6c1.9,0,3.5,0.3,5,0.9c1.4,0.6,2.5,1.5,3.2,2.7c0.8,1.2,1.1,2.5,1.1,4.1
		c0,1.5-0.4,2.8-1.1,4s-1.7,2-3,2.7l4.5,6.6h-6.4L517.4,661z M520.2,651.1c-0.6-0.5-1.5-0.8-2.8-0.8h-3.3v6.2h3.3
		c1.2,0,2.1-0.3,2.8-0.8s0.9-1.3,0.9-2.3C521.2,652.4,520.8,651.6,520.2,651.1z"/>
	<path d="M534.7,661c0.6,0.6,1,1.4,1,2.4c0,0.5-0.1,0.9-0.2,1.4c-0.1,0.5-0.4,1.2-0.8,2.1l-1.9,4.4h-3.6l1.4-4.9
		c-0.6-0.3-1-0.6-1.3-1.2c-0.3-0.5-0.5-1.1-0.5-1.8c0-1,0.3-1.8,1-2.4s1.5-0.9,2.5-0.9C533.2,660.1,534,660.4,534.7,661z"/>
	<path d="M561.8,661.9v4.7h-16.3v-3.7l7.9-7.4c0.8-0.7,1.3-1.3,1.5-1.8s0.4-1,0.4-1.5c0-0.7-0.2-1.2-0.7-1.6c-0.5-0.4-1.1-0.6-2-0.6
		c-0.8,0-1.5,0.2-2.1,0.5c-0.7,0.3-1.2,0.9-1.6,1.5l-4.4-2.5c0.8-1.4,2-2.4,3.4-3.2c1.5-0.8,3.2-1.2,5.2-1.2c1.6,0,3,0.3,4.2,0.8
		s2.2,1.3,2.9,2.2c0.7,1,1,2.1,1,3.4c0,1.1-0.2,2.2-0.7,3.2s-1.4,2.2-2.8,3.4l-4,3.7h8.1V661.9z"/>
	<path d="M567.6,665.7c-1.4-0.9-2.5-2.1-3.3-3.8s-1.2-3.6-1.2-5.9c0-2.3,0.4-4.2,1.2-5.9c0.8-1.6,1.9-2.9,3.3-3.8
		c1.4-0.9,3-1.3,4.8-1.3s3.4,0.4,4.8,1.3c1.4,0.9,2.5,2.1,3.3,3.8c0.8,1.7,1.2,3.6,1.2,5.9s-0.4,4.2-1.2,5.9
		c-0.8,1.6-1.9,2.9-3.3,3.8c-1.4,0.9-3,1.3-4.8,1.3S569,666.6,567.6,665.7z M574.8,660.7c0.6-1,0.9-2.5,0.9-4.6s-0.3-3.6-0.9-4.6
		c-0.6-1-1.4-1.5-2.4-1.5s-1.8,0.5-2.4,1.5c-0.6,1-0.9,2.5-0.9,4.6s0.3,3.6,0.9,4.6c0.6,1,1.4,1.5,2.4,1.5
		C573.4,662.1,574.2,661.6,574.8,660.7z"/>
	<path d="M599.4,661.9v4.7H583v-3.7l7.9-7.4c0.8-0.7,1.3-1.3,1.5-1.8s0.4-1,0.4-1.5c0-0.7-0.2-1.2-0.7-1.6c-0.5-0.4-1.1-0.6-2-0.6
		c-0.8,0-1.5,0.2-2.1,0.5c-0.7,0.3-1.2,0.9-1.6,1.5l-4.4-2.5c0.8-1.4,2-2.4,3.4-3.2c1.5-0.8,3.2-1.2,5.2-1.2c1.6,0,3,0.3,4.2,0.8
		s2.2,1.3,2.9,2.2c0.7,1,1,2.1,1,3.4c0,1.1-0.2,2.2-0.7,3.2s-1.4,2.2-2.8,3.4l-4,3.7h8.2V661.9z"/>
	<path d="M609.8,645.6v21h-5.9v-16.4H600v-4.6H609.8L609.8,645.6z"/>
</g>
<g>
	<path class="st4" d="M216.6,481.9v22.9h-79.6v-18.1l38.3-35.8c3.7-3.5,6.2-6.5,7.4-9c1.3-2.5,1.9-5,1.9-7.5c0-3.3-1.1-5.9-3.4-7.7
		c-2.2-1.8-5.5-2.8-9.8-2.8c-3.8,0-7.3,0.9-10.4,2.6c-3.2,1.7-5.8,4.2-7.8,7.4l-21.5-12c4-6.6,9.6-11.8,16.8-15.6
		c7.2-3.8,15.7-5.7,25.5-5.7c7.8,0,14.7,1.3,20.7,3.8c6,2.5,10.7,6.2,14,10.9c3.4,4.7,5,10.2,5,16.4c0,5.5-1.2,10.8-3.6,15.7
		c-2.4,4.9-7,10.5-13.8,16.7l-19.3,17.8H216.6z"/>
	<path class="st4" d="M275.9,500.6c-6.8-4.2-12.1-10.3-16-18.3c-3.8-8-5.8-17.5-5.8-28.5c0-11,1.9-20.5,5.8-28.5
		c3.8-8,9.2-14.1,16-18.3c6.8-4.2,14.6-6.3,23.4-6.3c8.7,0,16.4,2.1,23.2,6.3c6.8,4.2,12.1,10.3,16,18.3c3.8,8,5.8,17.5,5.8,28.5
		c0,11-1.9,20.5-5.8,28.5c-3.8,8-9.2,14.1-16,18.3c-6.8,4.2-14.6,6.3-23.2,6.3C290.5,506.8,282.7,504.7,275.9,500.6z M310.9,476.1
		c2.9-4.7,4.3-12.2,4.3-22.4c0-10.2-1.4-17.7-4.3-22.4c-2.9-4.7-6.7-7.1-11.6-7.1c-5,0-8.9,2.4-11.8,7.1c-2.9,4.7-4.3,12.2-4.3,22.4
		c0,10.2,1.4,17.7,4.3,22.4c2.9,4.7,6.8,7.1,11.8,7.1C304.1,483.2,308,480.8,310.9,476.1z"/>
	<path class="st4" d="M461.2,481.9v22.9h-79.6v-18.1l38.3-35.8c3.7-3.5,6.2-6.5,7.4-9c1.3-2.5,1.9-5,1.9-7.5c0-3.3-1.1-5.9-3.4-7.7
		c-2.2-1.8-5.5-2.8-9.8-2.8c-3.8,0-7.3,0.9-10.4,2.6c-3.2,1.7-5.8,4.2-7.8,7.4l-21.5-12c4-6.6,9.6-11.8,16.8-15.6
		c7.2-3.8,15.7-5.7,25.5-5.7c7.8,0,14.7,1.3,20.7,3.8c6,2.5,10.7,6.2,14,10.9c3.4,4.7,5,10.2,5,16.4c0,5.5-1.2,10.8-3.6,15.7
		c-2.4,4.9-7,10.5-13.8,16.7l-19.3,17.8H461.2z"/>
	<path class="st4" d="M542.7,402.6v102.2h-28.9v-79.9h-19v-22.3H542.7z"/>
</g>
</svg>
