<svg xmlns="http://www.w3.org/2000/svg" viewBox="0 0 685.61 685.61"><defs><style>.cls-1{fill:#69bfc3;}.cls-2{fill:#151516;}.cls-3{isolation:isolate;}.cls-4{fill:#fff;}.cls-5{fill:#dc4351;}.cls-6{fill:#f4c75c;}.cls-7{fill:#171717;}.cls-8{fill:none;}</style></defs><g id="Layer_2" data-name="Layer 2"><g id="Layer_1-2" data-name="Layer 1"><rect id="Rectangle_11" data-name="Rectangle 11" class="cls-1" x="24.76" y="443.39" width="634" height="49"/><rect id="Rectangle_12" data-name="Rectangle 12" class="cls-2" x="24.76" y="545.39" width="242" height="61"/><rect id="Rectangle_13" data-name="Rectangle 13" class="cls-2" x="24.76" y="613.39" width="279.46" height="60"/><rect id="Rectangle_13-2" data-name="Rectangle 13" class="cls-2" x="323.7" y="613.39" width="307.26" height="60"/><g id="_9TH_NOVEMBER_2020" data-name=" 9TH NOVEMBER 2020" class="cls-3"><g class="cls-3"><path class="cls-4" d="M288.68,459.43c1.68,1.72,2.52,4.2,2.52,7.42a12.47,12.47,0,0,1-1.34,6,9.09,9.09,0,0,1-3.8,3.82,11.92,11.92,0,0,1-5.67,1.3,13.52,13.52,0,0,1-3.28-.39,9,9,0,0,1-2.67-1.09l2.09-4.12a6.31,6.31,0,0,0,3.74,1.05,5.08,5.08,0,0,0,3.52-1.2,5.23,5.23,0,0,0,1.59-3.5,6.78,6.78,0,0,1-4.56,1.48,7.8,7.8,0,0,1-3.51-.8,6.22,6.22,0,0,1-2.53-2.26,6,6,0,0,1-.95-3.35,6.45,6.45,0,0,1,1.06-3.64,7,7,0,0,1,2.87-2.43,10.27,10.27,0,0,1,10.92,1.72Zm-4.46,5.93a2.61,2.61,0,0,0,0-3.71,2.94,2.94,0,0,0-2.07-.71,2.85,2.85,0,0,0-2,.69,2.45,2.45,0,0,0-.77,1.89,2.41,2.41,0,0,0,.77,1.86,3.28,3.28,0,0,0,4.05,0Z"/></g><g class="cls-3"><path class="cls-4" d="M295.89,458.7h-3.63v-2.65h10.6v2.65h-3.62v9.19h-3.35Z"/><path class="cls-4" d="M315.38,456.05v11.84H312v-4.62h-4.56v4.62h-3.35V456.05h3.35v4.45H312v-4.45Z"/></g><g class="cls-3"><path class="cls-4" d="M346.35,457.26v20.3h-4.73l-9-10.82v10.82H327v-20.3h4.73l9,10.81V457.26Z"/><path class="cls-4" d="M354.86,476.6a10.38,10.38,0,0,1,0-18.39,13,13,0,0,1,11.57,0,10.38,10.38,0,0,1,0,18.39,13,13,0,0,1-11.57,0Zm8.57-4.12a5.16,5.16,0,0,0,2-2,6.65,6.65,0,0,0,0-6.06,5.19,5.19,0,0,0-2-2.05,5.75,5.75,0,0,0-5.57,0,5.19,5.19,0,0,0-2,2.05,6.65,6.65,0,0,0,0,6.06,5.16,5.16,0,0,0,2,2,5.68,5.68,0,0,0,5.57,0Z"/><path class="cls-4" d="M394.84,457.26l-8.7,20.3h-5.66l-8.67-20.3H378l5.51,13.22,5.62-13.22Z"/><path class="cls-4" d="M412.32,473.12v4.44H396v-20.3H412v4.43H401.71v3.42h9v4.3h-9v3.71Z"/><path class="cls-4" d="M433.84,477.56l-.06-10.76-5.22,8.75H426l-5.19-8.46v10.47h-5.31v-20.3h4.73L427.37,469l7-11.71h4.73l.06,20.3Z"/><path class="cls-4" d="M461.51,468.87a5,5,0,0,1,1,3.12,4.68,4.68,0,0,1-2.14,4.12,11.13,11.13,0,0,1-6.21,1.45h-11v-20.3h10.38a10.21,10.21,0,0,1,5.92,1.43,4.52,4.52,0,0,1,2,3.87,4.88,4.88,0,0,1-.71,2.6,5,5,0,0,1-2,1.81A5.75,5.75,0,0,1,461.51,468.87Zm-12.65-7.47v3.92h3.95c1.93,0,2.9-.66,2.9-2s-1-2-2.9-2Zm7.83,10c0-1.37-1-2.06-3-2.06h-4.82v4.12h4.82C455.69,473.41,456.69,472.72,456.69,471.35Z"/><path class="cls-4" d="M481.78,473.12v4.44h-16.3v-20.3H481.4v4.43H471.16v3.42h9v4.3h-9v3.71Z"/><path class="cls-4" d="M493.84,472.16h-3.13v5.4H485v-20.3h9.28a11.55,11.55,0,0,1,4.78.91,7.38,7.38,0,0,1,3.21,10.44,7,7,0,0,1-2.95,2.57l4.38,6.38h-6.15Zm2.73-9.6a4,4,0,0,0-2.67-.78h-3.19v5.94h3.19a4,4,0,0,0,2.67-.76,2.74,2.74,0,0,0,.9-2.19A2.79,2.79,0,0,0,496.57,462.56Z"/><path class="cls-4" d="M510.86,472.19a3.12,3.12,0,0,1,.93,2.35,5.51,5.51,0,0,1-.17,1.33,14.75,14.75,0,0,1-.78,2L509,482.11h-3.45l1.36-4.73a2.84,2.84,0,0,1-1.26-1.11,3.28,3.28,0,0,1-.45-1.73,3.12,3.12,0,0,1,.93-2.35,3.28,3.28,0,0,1,2.38-.9A3.21,3.21,0,0,1,510.86,472.19Z"/><path class="cls-4" d="M537.72,473v4.56H521.91V474l7.6-7.11a7.06,7.06,0,0,0,1.48-1.78,3.26,3.26,0,0,0,.38-1.49,1.91,1.91,0,0,0-.67-1.54,3,3,0,0,0-1.94-.55,4.3,4.3,0,0,0-2.08.51,4.16,4.16,0,0,0-1.55,1.46l-4.26-2.38a8.31,8.31,0,0,1,3.33-3.1,10.82,10.82,0,0,1,5.08-1.13,10.48,10.48,0,0,1,4.1.75,6.5,6.5,0,0,1,2.79,2.16,5.55,5.55,0,0,1,1,3.27,7.05,7.05,0,0,1-.71,3.11,12,12,0,0,1-2.74,3.32L529.89,473Z"/><path class="cls-4" d="M543.69,476.71a8.37,8.37,0,0,1-3.17-3.63,14.55,14.55,0,0,1,0-11.34,8.34,8.34,0,0,1,3.17-3.64,9.18,9.18,0,0,1,9.25,0,8.36,8.36,0,0,1,3.18,3.64,14.67,14.67,0,0,1,0,11.34,8.39,8.39,0,0,1-3.18,3.63,9.18,9.18,0,0,1-9.25,0Zm6.95-4.85a12.1,12.1,0,0,0,0-8.91,2.62,2.62,0,0,0-4.64,0,12,12,0,0,0,0,8.91,2.62,2.62,0,0,0,4.64,0Z"/><path class="cls-4" d="M574.69,473v4.56h-15.8V474l7.6-7.11a7.2,7.2,0,0,0,1.47-1.78,3.14,3.14,0,0,0,.38-1.49,1.88,1.88,0,0,0-.67-1.54,3,3,0,0,0-1.94-.55,4.29,4.29,0,0,0-2.07.51,4.09,4.09,0,0,0-1.55,1.46l-4.27-2.38a8.41,8.41,0,0,1,3.34-3.1,10.77,10.77,0,0,1,5.07-1.13,10.54,10.54,0,0,1,4.11.75,6.46,6.46,0,0,1,2.78,2.16,5.49,5.49,0,0,1,1,3.27,7.05,7.05,0,0,1-.71,3.11,11.78,11.78,0,0,1-2.74,3.32L566.86,473Z"/><path class="cls-4" d="M580.67,476.71a8.33,8.33,0,0,1-3.18-3.63,14.67,14.67,0,0,1,0-11.34,8.3,8.3,0,0,1,3.18-3.64,9.18,9.18,0,0,1,9.25,0,8.34,8.34,0,0,1,3.17,3.64,14.55,14.55,0,0,1,0,11.34,8.37,8.37,0,0,1-3.17,3.63,9.18,9.18,0,0,1-9.25,0Zm6.94-4.85a12,12,0,0,0,0-8.91,2.62,2.62,0,0,0-4.64,0,12.1,12.1,0,0,0,0,8.91,2.62,2.62,0,0,0,4.64,0Z"/></g></g><g id="INNOVATIVE_URBAN_MOBILITY_CHALLENGE" data-name="INNOVATIVE URBAN MOBILITY CHALLENGE" class="cls-3"><g class="cls-3"><path class="cls-5" d="M27.65,404.49H33v18.9H27.65Z"/><path class="cls-5" d="M54.78,404.49v18.9h-4.4L42,413.32v10.07H36.8v-18.9h4.4l8.34,10.07V404.49Z"/><path class="cls-5" d="M76.54,404.49v18.9h-4.4L63.8,413.32v10.07H58.56v-18.9H63l8.34,10.07V404.49Z"/><path class="cls-5" d="M84.47,422.5a9.66,9.66,0,0,1,0-17.12,12.05,12.05,0,0,1,10.77,0A9.61,9.61,0,0,1,99,408.89,10,10,0,0,1,99,419a9.61,9.61,0,0,1-3.75,3.51,12.05,12.05,0,0,1-10.77,0Zm8-3.83a5,5,0,0,0,1.83-1.91,6.19,6.19,0,0,0,0-5.64,5,5,0,0,0-1.83-1.91,5.36,5.36,0,0,0-5.19,0,5,5,0,0,0-1.83,1.91,6.19,6.19,0,0,0,0,5.64,5,5,0,0,0,1.83,1.91,5.36,5.36,0,0,0,5.19,0Z"/><path class="cls-5" d="M121.69,404.49l-8.1,18.9h-5.27l-8.07-18.9H106l5.13,12.31,5.23-12.31Z"/><path class="cls-5" d="M134.81,419.72h-8l-1.49,3.67h-5.45l8.34-18.9h5.27l8.37,18.9h-5.57Zm-1.57-3.94-2.43-6-2.43,6Z"/><path class="cls-5" d="M146.45,408.73h-5.81v-4.24h16.93v4.24h-5.78v14.66h-5.34Z"/><path class="cls-5" d="M159.57,404.49h5.34v18.9h-5.34Z"/><path class="cls-5" d="M187.84,404.49l-8.1,18.9h-5.27l-8.07-18.9h5.78l5.13,12.31,5.23-12.31Z"/><path class="cls-5" d="M204.12,419.26v4.13H188.94v-18.9h14.83v4.13h-9.54v3.19h8.4v4h-8.4v3.46Z"/><path class="cls-5" d="M217.12,421.47a8.7,8.7,0,0,1-2.34-6.5V404.49h5.35V414.8c0,3,1.19,4.54,3.59,4.54s3.56-1.51,3.56-4.54V404.49h5.27V415a8.7,8.7,0,0,1-2.34,6.5,10.46,10.46,0,0,1-13.09,0Z"/><path class="cls-5" d="M244.43,418.37h-2.92v5h-5.34v-18.9h8.64a10.71,10.71,0,0,1,4.45.85,6.38,6.38,0,0,1,3.94,6.14,6.59,6.59,0,0,1-1,3.58,6.42,6.42,0,0,1-2.74,2.39l4.08,5.94h-5.72Zm2.54-8.94a3.68,3.68,0,0,0-2.49-.73h-3v5.54h3a3.74,3.74,0,0,0,2.49-.72,2.55,2.55,0,0,0,.83-2A2.6,2.6,0,0,0,247,409.43Z"/><path class="cls-5" d="M273.21,415.3a4.66,4.66,0,0,1,.92,2.91,4.36,4.36,0,0,1-2,3.83,10.31,10.31,0,0,1-5.78,1.35h-10.2v-18.9h9.66a9.51,9.51,0,0,1,5.51,1.34,4.19,4.19,0,0,1,1.89,3.6,4.51,4.51,0,0,1-.66,2.42,4.59,4.59,0,0,1-1.88,1.68A5.32,5.32,0,0,1,273.21,415.3Zm-11.77-6.95V412h3.67c1.8,0,2.7-.62,2.7-1.84s-.9-1.81-2.7-1.81Zm7.29,9.26c0-1.28-.94-1.92-2.81-1.92h-4.48v3.84h4.48C267.79,419.53,268.73,418.89,268.73,417.61Z"/><path class="cls-5" d="M289.57,419.72h-8l-1.49,3.67h-5.45l8.34-18.9h5.27l8.37,18.9h-5.56ZM288,415.78l-2.44-6-2.42,6Z"/><path class="cls-5" d="M316.11,404.49v18.9h-4.4l-8.34-10.07v10.07h-5.24v-18.9h4.4l8.34,10.07V404.49Z"/><path class="cls-5" d="M344.81,423.39l-.05-10-4.86,8.16h-2.38l-4.83-7.89v9.75h-4.94v-18.9h4.4l6.64,10.91,6.48-10.91h4.4l.06,18.9Z"/><path class="cls-5" d="M357.65,422.5A9.61,9.61,0,0,1,353.9,419a10.06,10.06,0,0,1,0-10.1,9.61,9.61,0,0,1,3.75-3.51,12.05,12.05,0,0,1,10.77,0,9.66,9.66,0,0,1,0,17.12,12.05,12.05,0,0,1-10.77,0Zm8-3.83a5,5,0,0,0,1.84-1.91,6.27,6.27,0,0,0,0-5.64,5,5,0,0,0-1.84-1.91,5.34,5.34,0,0,0-5.18,0,4.9,4.9,0,0,0-1.84,1.91,6.27,6.27,0,0,0,0,5.64,4.9,4.9,0,0,0,1.84,1.91,5.34,5.34,0,0,0,5.18,0Z"/><path class="cls-5" d="M393.41,415.3a4.66,4.66,0,0,1,.92,2.91,4.34,4.34,0,0,1-2,3.83,10.29,10.29,0,0,1-5.78,1.35h-10.2v-18.9H386a9.49,9.49,0,0,1,5.51,1.34,4.19,4.19,0,0,1,1.89,3.6,4.51,4.51,0,0,1-.66,2.42,4.63,4.63,0,0,1-1.87,1.68A5.29,5.29,0,0,1,393.41,415.3Zm-11.77-6.95V412h3.67c1.8,0,2.7-.62,2.7-1.84s-.9-1.81-2.7-1.81Zm7.29,9.26c0-1.28-.93-1.92-2.81-1.92h-4.48v3.84h4.48C388,419.53,388.93,418.89,388.93,417.61Z"/><path class="cls-5" d="M397.11,404.49h5.35v18.9h-5.35Z"/><path class="cls-5" d="M406.26,404.49h5.35v14.66h9v4.24H406.26Z"/><path class="cls-5" d="M422.73,404.49h5.35v18.9h-5.35Z"/><path class="cls-5" d="M435.91,408.73H430.1v-4.24H447v4.24h-5.78v14.66h-5.34Z"/><path class="cls-5" d="M458.7,416.61v6.78h-5.35v-6.86l-7.21-12h5.65l4.48,7.51,4.48-7.51h5.18Z"/><path class="cls-5" d="M479.23,422.51a9.45,9.45,0,0,1-3.71-3.49,10.23,10.23,0,0,1,0-10.16,9.38,9.38,0,0,1,3.71-3.49,11.16,11.16,0,0,1,5.33-1.26,11.45,11.45,0,0,1,4.67.92,8.9,8.9,0,0,1,3.46,2.65l-3.4,3.07a5.62,5.62,0,0,0-4.46-2.21,5.51,5.51,0,0,0-2.74.67,4.75,4.75,0,0,0-1.86,1.91,6.35,6.35,0,0,0,0,5.64,4.75,4.75,0,0,0,1.86,1.91,5.51,5.51,0,0,0,2.74.67,5.62,5.62,0,0,0,4.46-2.21l3.4,3.07a8.9,8.9,0,0,1-3.46,2.65,11.45,11.45,0,0,1-4.67.92A11.16,11.16,0,0,1,479.23,422.51Z"/><path class="cls-5" d="M513.05,404.49v18.9H507.7V416h-7.29v7.37h-5.34v-18.9h5.34v7.1h7.29v-7.1Z"/><path class="cls-5" d="M529.49,419.72h-8L520,423.39h-5.45l8.34-18.9h5.27l8.37,18.9H531Zm-1.57-3.94-2.43-6-2.43,6Z"/><path class="cls-5" d="M538.05,404.49h5.35v14.66h9v4.24H538.05Z"/><path class="cls-5" d="M554.52,404.49h5.35v14.66h9v4.24H554.52Z"/><path class="cls-5" d="M586.16,419.26v4.13H571v-18.9h14.82v4.13h-9.53v3.19h8.4v4h-8.4v3.46Z"/><path class="cls-5" d="M607.11,404.49v18.9h-4.4l-8.34-10.07v10.07h-5.24v-18.9h4.4l8.35,10.07V404.49Z"/><path class="cls-5" d="M623.56,413.53h4.72v7.83a12.35,12.35,0,0,1-3.72,1.79,15,15,0,0,1-4.22.62,11.2,11.2,0,0,1-5.34-1.26,9.44,9.44,0,0,1-3.73-3.49,10.23,10.23,0,0,1,0-10.16,9.25,9.25,0,0,1,3.76-3.49,11.49,11.49,0,0,1,5.42-1.26,12.2,12.2,0,0,1,4.76.89,9.14,9.14,0,0,1,3.5,2.57l-3.4,3.08a6,6,0,0,0-4.59-2.11,5.09,5.09,0,0,0-5.4,5.4,5.68,5.68,0,0,0,.68,2.79,4.85,4.85,0,0,0,1.89,1.92,5.54,5.54,0,0,0,2.78.69,6.88,6.88,0,0,0,2.89-.62Z"/><path class="cls-5" d="M646.86,419.26v4.13H631.68v-18.9h14.83v4.13H637v3.19h8.39v4H637v3.46Z"/></g></g><g id="_SmartMove" data-name=" SmartMove" class="cls-3"><g class="cls-3"><path class="cls-6" d="M65.17,573l-.46,3.88h3.38v3.49H64.28l-.51,4H60.1l.51-4H57.29l-.51,4H53.1l.52-4H50.21v-3.49h3.84l.46-3.88h-3.4v-3.49h3.83l.51-4h3.67l-.51,4h3.32l.52-4h3.67l-.52,4H69V573Zm-3.67,0H58.18l-.46,3.88H61Z"/><path class="cls-6" d="M72.81,584.21A9.39,9.39,0,0,1,70,583.12l1.54-3.51a8.78,8.78,0,0,0,2.38,1,10.65,10.65,0,0,0,2.72.36,4.2,4.2,0,0,0,1.77-.26.8.8,0,0,0,.53-.74c0-.32-.21-.55-.64-.69a14.22,14.22,0,0,0-2-.39,18.62,18.62,0,0,1-3-.57A4.54,4.54,0,0,1,71.14,577a3.72,3.72,0,0,1-.89-2.65,4,4,0,0,1,.84-2.49,5.47,5.47,0,0,1,2.44-1.73,10.31,10.31,0,0,1,3.85-.64,15.35,15.35,0,0,1,3.16.33,9,9,0,0,1,2.61.91l-1.53,3.49a8.55,8.55,0,0,0-4.22-1.08,4.19,4.19,0,0,0-1.78.28.85.85,0,0,0-.57.74c0,.35.21.58.63.72a15.49,15.49,0,0,0,2,.42,23.32,23.32,0,0,1,3,.62,4.55,4.55,0,0,1,2.07,1.28,3.68,3.68,0,0,1,.88,2.61,4,4,0,0,1-.84,2.47A5.41,5.41,0,0,1,80.36,584a11,11,0,0,1-3.93.62A15.77,15.77,0,0,1,72.81,584.21Z"/><path class="cls-6" d="M109.25,571.13a6.69,6.69,0,0,1,1.61,4.89v8.37h-5.13v-7.53a3.65,3.65,0,0,0-.58-2.27,2,2,0,0,0-1.64-.73,2.35,2.35,0,0,0-1.86.81,3.67,3.67,0,0,0-.7,2.46v7.26H95.82v-7.53q0-3-2.22-3a2.38,2.38,0,0,0-1.89.81,3.72,3.72,0,0,0-.7,2.46v7.26H85.88V569.76h4.89v1.53A5.07,5.07,0,0,1,92.7,570a6.5,6.5,0,0,1,2.44-.45,6.42,6.42,0,0,1,2.76.57,4.69,4.69,0,0,1,2,1.73,5.55,5.55,0,0,1,2.18-1.7,7,7,0,0,1,2.89-.6A5.8,5.8,0,0,1,109.25,571.13Z"/><path class="cls-6" d="M125.9,571.17a6.41,6.41,0,0,1,1.91,5.09v8.13H123V582.5c-.74,1.42-2.17,2.13-4.32,2.13a6.85,6.85,0,0,1-2.94-.59,4.4,4.4,0,0,1-1.88-1.61,4.26,4.26,0,0,1-.63-2.31,3.74,3.74,0,0,1,1.59-3.22,8.42,8.42,0,0,1,4.92-1.15h2.91c-.09-1.55-1.12-2.32-3.1-2.32a7,7,0,0,0-2.14.34,5.44,5.44,0,0,0-1.83.93l-1.73-3.49a9.43,9.43,0,0,1,3-1.25,13.87,13.87,0,0,1,3.49-.45A8.32,8.32,0,0,1,125.9,571.17ZM121.71,581a2.41,2.41,0,0,0,1-1.27v-1.27h-2.21c-1.5,0-2.24.5-2.24,1.49a1.31,1.31,0,0,0,.51,1.08,2.2,2.2,0,0,0,1.4.4A2.82,2.82,0,0,0,121.71,581Z"/><path class="cls-6" d="M138,570a7.74,7.74,0,0,1,2.87-.5v4.62a11.47,11.47,0,0,0-1.16-.08,3.19,3.19,0,0,0-3.51,3.62v6.72h-5.13V569.76h4.89v1.75A4.78,4.78,0,0,1,138,570Z"/><path class="cls-6" d="M153.52,583.8a5.43,5.43,0,0,1-1.58.62,9.13,9.13,0,0,1-2,.21,6.28,6.28,0,0,1-4.4-1.4A5.38,5.38,0,0,1,144,579v-4.91h-2.13V570.3H144v-3.81h5.13v3.81h3.35v3.83h-3.35V579a1.73,1.73,0,0,0,.42,1.23,1.45,1.45,0,0,0,1.12.44,2.78,2.78,0,0,0,1.57-.45Z"/><path class="cls-6" d="M178.86,571.13a6.68,6.68,0,0,1,1.6,4.89v8.37h-5.13v-7.53a3.59,3.59,0,0,0-.58-2.27,2,2,0,0,0-1.63-.73,2.35,2.35,0,0,0-1.87.81,3.72,3.72,0,0,0-.7,2.46v7.26h-5.13v-7.53c0-2-.74-3-2.21-3a2.38,2.38,0,0,0-1.89.81,3.67,3.67,0,0,0-.7,2.46v7.26h-5.13V569.76h4.88v1.53A5.15,5.15,0,0,1,162.3,570a6.55,6.55,0,0,1,2.45-.45,6.41,6.41,0,0,1,2.75.57,4.63,4.63,0,0,1,2,1.73,5.65,5.65,0,0,1,2.19-1.7,6.89,6.89,0,0,1,2.89-.6A5.81,5.81,0,0,1,178.86,571.13Z"/><path class="cls-6" d="M187,583.66a7.34,7.34,0,0,1-3-2.7A7.38,7.38,0,0,1,187,570.47a9.2,9.2,0,0,1,4.25-1,9.31,9.31,0,0,1,4.27,1,7.18,7.18,0,0,1,2.94,2.67,7.81,7.81,0,0,1,0,7.82,7.25,7.25,0,0,1-2.94,2.7,9.19,9.19,0,0,1-4.27,1A9.1,9.1,0,0,1,187,583.66Zm6.46-4a3.66,3.66,0,0,0,.86-2.57,3.58,3.58,0,0,0-.86-2.54,2.93,2.93,0,0,0-2.22-.92,2.9,2.9,0,0,0-2.21.92,3.54,3.54,0,0,0-.87,2.54,3.62,3.62,0,0,0,.87,2.57,2.84,2.84,0,0,0,2.21.94A2.88,2.88,0,0,0,193.48,579.62Z"/><path class="cls-6" d="M216.91,569.76l-6,14.63h-5.29l-6-14.63h5.26l3.51,8.93,3.7-8.93Z"/><path class="cls-6" d="M232.71,578.37H222.07a2.92,2.92,0,0,0,1.25,1.74,4.16,4.16,0,0,0,2.34.61,5,5,0,0,0,1.82-.3,5.41,5.41,0,0,0,1.55-1l2.7,2.81a8,8,0,0,1-6.23,2.37,9.92,9.92,0,0,1-4.51-1,7.17,7.17,0,0,1-4.08-6.61,7.36,7.36,0,0,1,1-3.88,7.26,7.26,0,0,1,2.88-2.69,8.77,8.77,0,0,1,4.13-1,8.59,8.59,0,0,1,4,.91,6.91,6.91,0,0,1,2.82,2.62,7.69,7.69,0,0,1,1,4.06S232.76,577.56,232.71,578.37ZM223,573.83a3,3,0,0,0-1,1.84h6a3,3,0,0,0-1-1.84,3.28,3.28,0,0,0-4,0Z"/></g></g><g id="_ReimagineMobility" data-name=" ReimagineMobility" class="cls-3"><g class="cls-3"><path class="cls-6" d="M65.17,641l-.46,3.88h3.38v3.49H64.28l-.51,4H60.1l.51-4H57.29l-.51,4H53.1l.52-4H50.21v-3.49h3.84l.46-3.88h-3.4v-3.49h3.83l.51-4h3.67l-.51,4h3.32l.52-4h3.67l-.52,4H69V641Zm-3.67,0H58.18l-.46,3.88H61Z"/><path class="cls-6" d="M86.66,632.36v20H81.78v-1.46a5.29,5.29,0,0,1-4.3,1.7,7.28,7.28,0,0,1-3.64-.93A6.75,6.75,0,0,1,71.23,649a8.85,8.85,0,0,1,0-8,6.67,6.67,0,0,1,2.61-2.63,7.37,7.37,0,0,1,3.64-.92,5.32,5.32,0,0,1,4,1.51v-6.66Zm-5.91,15.26a3.62,3.62,0,0,0,.87-2.57,3.58,3.58,0,0,0-.86-2.54,2.86,2.86,0,0,0-2.2-.92,2.91,2.91,0,0,0-2.21.92,3.54,3.54,0,0,0-.86,2.54,3.62,3.62,0,0,0,.86,2.57,2.86,2.86,0,0,0,2.21.94A2.82,2.82,0,0,0,80.75,647.62Z"/><path class="cls-6" d="M90.25,635.35a2.63,2.63,0,0,1,0-3.89,3.28,3.28,0,0,1,2.27-.78,3.39,3.39,0,0,1,2.27.74,2.4,2.4,0,0,1,.87,1.91,2.61,2.61,0,0,1-.87,2,3.64,3.64,0,0,1-4.54,0ZM90,637.76h5.13v14.63H90Z"/><path class="cls-6" d="M114.15,637.76v12q0,4.06-2.21,6.11c-1.48,1.36-3.6,2-6.38,2a15.94,15.94,0,0,1-4-.49A9.46,9.46,0,0,1,98.3,656l1.86-3.59a6.58,6.58,0,0,0,2.26,1.15,9.07,9.07,0,0,0,2.68.42,4.23,4.23,0,0,0,3-.89,3.49,3.49,0,0,0,1-2.65v-.48a5.42,5.42,0,0,1-4.35,1.72,7.59,7.59,0,0,1-3.59-.87,6.74,6.74,0,0,1-2.62-2.49,7.54,7.54,0,0,1,0-7.4,6.72,6.72,0,0,1,2.62-2.48,7.6,7.6,0,0,1,3.59-.88,5.27,5.27,0,0,1,4.59,2v-1.78Zm-6,9a2.82,2.82,0,0,0,.9-2.16,2.78,2.78,0,0,0-.89-2.15,3.23,3.23,0,0,0-2.29-.82,3.28,3.28,0,0,0-2.31.82,3,3,0,0,0,0,4.31,3.28,3.28,0,0,0,2.3.84A3.21,3.21,0,0,0,108.17,646.72Z"/><path class="cls-6" d="M117.74,635.35a2.63,2.63,0,0,1,0-3.89,3.26,3.26,0,0,1,2.27-.78,3.41,3.41,0,0,1,2.27.74,2.42,2.42,0,0,1,.86,1.91,2.63,2.63,0,0,1-.86,2,3.64,3.64,0,0,1-4.54,0Zm-.3,2.41h5.13v14.63h-5.13Z"/><path class="cls-6" d="M136,651.8a5.32,5.32,0,0,1-1.58.62,9,9,0,0,1-2,.21,6.27,6.27,0,0,1-4.4-1.4,5.38,5.38,0,0,1-1.54-4.19v-4.91h-2.13V638.3h2.13v-3.81h5.13v3.81H135v3.83h-3.35V647a1.73,1.73,0,0,0,.42,1.23,1.45,1.45,0,0,0,1.12.44,2.75,2.75,0,0,0,1.56-.45Z"/><path class="cls-6" d="M149.76,639.17a6.38,6.38,0,0,1,1.92,5.09v8.13H146.9V650.5q-1.11,2.13-4.32,2.13a6.82,6.82,0,0,1-2.94-.59,4.34,4.34,0,0,1-1.88-1.61,4.26,4.26,0,0,1-.63-2.31,3.74,3.74,0,0,1,1.59-3.22,8.41,8.41,0,0,1,4.91-1.15h2.92c-.09-1.55-1.13-2.32-3.11-2.32a7,7,0,0,0-2.13.34,5.44,5.44,0,0,0-1.83.93l-1.73-3.49A9.37,9.37,0,0,1,140.7,638a14,14,0,0,1,3.5-.45A8.3,8.3,0,0,1,149.76,639.17ZM145.58,649a2.41,2.41,0,0,0,1-1.27v-1.27h-2.21c-1.5,0-2.25.5-2.25,1.49a1.29,1.29,0,0,0,.52,1.08,2.2,2.2,0,0,0,1.4.4A2.82,2.82,0,0,0,145.58,649Z"/><path class="cls-6" d="M154.92,632.36h5.13v20h-5.13Z"/><path class="cls-6" d="M165.07,652.21a9.29,9.29,0,0,1-2.86-1.09l1.54-3.51a8.71,8.71,0,0,0,2.37,1,10.78,10.78,0,0,0,2.73.36,4.2,4.2,0,0,0,1.77-.26.8.8,0,0,0,.53-.74c0-.32-.22-.55-.64-.69a14.22,14.22,0,0,0-2-.39,18.41,18.41,0,0,1-3-.57A4.54,4.54,0,0,1,163.4,645a3.68,3.68,0,0,1-.89-2.65,4,4,0,0,1,.83-2.49,5.5,5.5,0,0,1,2.45-1.73,10.29,10.29,0,0,1,3.84-.64,15.27,15.27,0,0,1,3.16.33,9,9,0,0,1,2.62.91l-1.54,3.49a8.51,8.51,0,0,0-4.21-1.08,4.19,4.19,0,0,0-1.78.28.85.85,0,0,0-.57.74c0,.35.21.58.62.72a16.25,16.25,0,0,0,2,.42,23.15,23.15,0,0,1,3,.62,4.6,4.6,0,0,1,2.07,1.28,3.67,3.67,0,0,1,.87,2.61,3.94,3.94,0,0,1-.83,2.47,5.41,5.41,0,0,1-2.47,1.71,11,11,0,0,1-3.93.62A15.71,15.71,0,0,1,165.07,652.21Z"/><path class="cls-6" d="M181.24,651.66a7.25,7.25,0,0,1-4-6.61,7.24,7.24,0,0,1,4-6.58,9.93,9.93,0,0,1,8.52,0,7.18,7.18,0,0,1,2.94,2.67,7.81,7.81,0,0,1,0,7.82,7.25,7.25,0,0,1-2.94,2.7,9.82,9.82,0,0,1-8.51,0Zm6.46-4a3.66,3.66,0,0,0,.86-2.57,3.58,3.58,0,0,0-.86-2.54,2.93,2.93,0,0,0-2.22-.92,2.9,2.9,0,0,0-2.21.92,3.54,3.54,0,0,0-.87,2.54,3.62,3.62,0,0,0,.87,2.57,2.84,2.84,0,0,0,2.21.94A2.88,2.88,0,0,0,187.7,647.62Z"/><path class="cls-6" d="M196.12,632.36h5.13v20h-5.13Z"/><path class="cls-6" d="M220,637.76v14.63h-4.89v-1.57a5.08,5.08,0,0,1-1.94,1.35,6.29,6.29,0,0,1-2.4.46A6.15,6.15,0,0,1,206.2,651a6.81,6.81,0,0,1-1.68-5v-8.18h5.13v7.34a3.71,3.71,0,0,0,.62,2.4,2.18,2.18,0,0,0,1.81.76,2.53,2.53,0,0,0,2-.85,3.82,3.82,0,0,0,.77-2.61v-7Z"/><path class="cls-6" d="M233.35,651.8a5.32,5.32,0,0,1-1.58.62,9,9,0,0,1-2,.21,6.27,6.27,0,0,1-4.4-1.4,5.38,5.38,0,0,1-1.54-4.19v-4.91h-2.13V638.3h2.13v-3.81H229v3.81h3.35v3.83H229V647a1.73,1.73,0,0,0,.42,1.23,1.45,1.45,0,0,0,1.12.44,2.75,2.75,0,0,0,1.56-.45Z"/><path class="cls-6" d="M235.62,635.35a2.63,2.63,0,0,1,0-3.89,3.26,3.26,0,0,1,2.27-.78,3.41,3.41,0,0,1,2.27.74,2.42,2.42,0,0,1,.86,1.91,2.63,2.63,0,0,1-.86,2,3.64,3.64,0,0,1-4.54,0Zm-.3,2.41h5.13v14.63h-5.13Z"/><path class="cls-6" d="M246.88,651.66a7.21,7.21,0,0,1-4-6.61,7.21,7.21,0,0,1,4-6.58,9.93,9.93,0,0,1,8.52,0,7.27,7.27,0,0,1,2.95,2.67,7.41,7.41,0,0,1-2.95,10.52,9.8,9.8,0,0,1-8.5,0Zm6.45-4a3.62,3.62,0,0,0,.87-2.57,3.54,3.54,0,0,0-.87-2.54,2.9,2.9,0,0,0-2.21-.92,2.93,2.93,0,0,0-2.22.92,3.58,3.58,0,0,0-.86,2.54,3.66,3.66,0,0,0,.86,2.57,2.88,2.88,0,0,0,2.22.94A2.84,2.84,0,0,0,253.33,647.62Z"/><path class="cls-6" d="M275.67,639.13a6.53,6.53,0,0,1,1.66,4.89v8.37H272.2v-7.53q0-3-2.4-3a2.76,2.76,0,0,0-2.12.86,3.73,3.73,0,0,0-.79,2.6v7.07h-5.13V637.76h4.88v1.59a5.71,5.71,0,0,1,2.05-1.36,6.91,6.91,0,0,1,2.6-.48A6,6,0,0,1,275.67,639.13Z"/><path class="cls-6" d="M282.25,652.21a9.29,9.29,0,0,1-2.86-1.09l1.54-3.51a8.58,8.58,0,0,0,2.37,1A10.78,10.78,0,0,0,286,649a4.2,4.2,0,0,0,1.77-.26.79.79,0,0,0,.52-.74q0-.48-.63-.69a14.22,14.22,0,0,0-2-.39,18.77,18.77,0,0,1-3-.57,4.59,4.59,0,0,1-2.12-1.29,3.72,3.72,0,0,1-.89-2.65,4,4,0,0,1,.84-2.49,5.53,5.53,0,0,1,2.44-1.73,10.35,10.35,0,0,1,3.85-.64,15.27,15.27,0,0,1,3.16.33,9.11,9.11,0,0,1,2.62.91l-1.54,3.49a8.54,8.54,0,0,0-4.21-1.08,4.16,4.16,0,0,0-1.78.28.85.85,0,0,0-.57.74c0,.35.21.58.62.72a15.86,15.86,0,0,0,2.05.42,23.15,23.15,0,0,1,3,.62,4.6,4.6,0,0,1,2.07,1.28,3.67,3.67,0,0,1,.87,2.61,4,4,0,0,1-.83,2.47,5.45,5.45,0,0,1-2.48,1.71,10.86,10.86,0,0,1-3.92.62A15.71,15.71,0,0,1,282.25,652.21Z"/></g></g><g id="_ReimagineMobility-2" data-name=" ReimagineMobility" class="cls-3"><g class="cls-3"><path class="cls-6" d="M357.17,641l-.46,3.88h3.38v3.49h-3.81l-.51,4H352.1l.51-4h-3.32l-.51,4H345.1l.52-4h-3.41v-3.49h3.84l.46-3.88h-3.4v-3.49h3.83l.51-4h3.68l-.52,4h3.32l.52-4h3.67l-.52,4H361V641Zm-3.67,0h-3.32l-.46,3.88H353Z"/><path class="cls-6" d="M394.34,639.13a6.68,6.68,0,0,1,1.6,4.89v8.37h-5.13v-7.53a3.59,3.59,0,0,0-.58-2.27,2,2,0,0,0-1.63-.73,2.35,2.35,0,0,0-1.86.81,3.67,3.67,0,0,0-.7,2.46v7.26h-5.13v-7.53q0-3-2.22-3a2.38,2.38,0,0,0-1.89.81,3.67,3.67,0,0,0-.7,2.46v7.26H371V637.76h4.89v1.53a5.07,5.07,0,0,1,1.93-1.33,6.46,6.46,0,0,1,2.44-.45,6.38,6.38,0,0,1,2.75.57,4.71,4.71,0,0,1,2,1.73,5.55,5.55,0,0,1,2.18-1.7,6.92,6.92,0,0,1,2.89-.6A5.8,5.8,0,0,1,394.34,639.13Z"/><path class="cls-6" d="M402.5,651.66a7.25,7.25,0,0,1-4-6.61,7.24,7.24,0,0,1,4-6.58,9.93,9.93,0,0,1,8.52,0,7.18,7.18,0,0,1,2.94,2.67,7.74,7.74,0,0,1,0,7.82,7.25,7.25,0,0,1-2.94,2.7,9.82,9.82,0,0,1-8.51,0Zm6.46-4a3.66,3.66,0,0,0,.86-2.57,3.58,3.58,0,0,0-.86-2.54,3.13,3.13,0,0,0-4.43,0,3.54,3.54,0,0,0-.86,2.54,3.62,3.62,0,0,0,.86,2.57,3.08,3.08,0,0,0,4.43,0Z"/><path class="cls-6" d="M430.22,638.43a6.69,6.69,0,0,1,2.59,2.63,8.77,8.77,0,0,1,0,8,6.77,6.77,0,0,1-2.59,2.66,7.21,7.21,0,0,1-3.63.93,5.3,5.3,0,0,1-4.32-1.7v1.46h-4.89v-20h5.13V639a5.49,5.49,0,0,1,4.08-1.51A7.31,7.31,0,0,1,430.22,638.43Zm-2.5,9.19a3.62,3.62,0,0,0,.87-2.57,3.54,3.54,0,0,0-.87-2.54,2.9,2.9,0,0,0-2.21-.92,2.93,2.93,0,0,0-2.22.92,3.58,3.58,0,0,0-.86,2.54,3.66,3.66,0,0,0,.86,2.57,2.88,2.88,0,0,0,2.22.94A2.84,2.84,0,0,0,427.72,647.62Z"/><path class="cls-6" d="M436.44,635.35a2.63,2.63,0,0,1,0-3.89,3.28,3.28,0,0,1,2.27-.78,3.39,3.39,0,0,1,2.27.74,2.42,2.42,0,0,1,.86,1.91,2.63,2.63,0,0,1-.86,2,3.64,3.64,0,0,1-4.54,0Zm-.29,2.41h5.13v14.63h-5.13Z"/><path class="cls-6" d="M444.6,632.36h5.13v20H444.6Z"/><path class="cls-6" d="M453.34,635.35a2.63,2.63,0,0,1,0-3.89,3.28,3.28,0,0,1,2.27-.78,3.39,3.39,0,0,1,2.27.74,2.4,2.4,0,0,1,.87,1.91,2.61,2.61,0,0,1-.87,2,3.64,3.64,0,0,1-4.54,0Zm-.29,2.41h5.13v14.63h-5.13Z"/><path class="cls-6" d="M471.6,651.8a5.43,5.43,0,0,1-1.58.62,9.06,9.06,0,0,1-2,.21,6.28,6.28,0,0,1-4.4-1.4,5.41,5.41,0,0,1-1.54-4.19v-4.91H460V638.3h2.13v-3.81h5.13v3.81h3.35v3.83h-3.35V647a1.73,1.73,0,0,0,.42,1.23,1.45,1.45,0,0,0,1.12.44,2.76,2.76,0,0,0,1.57-.45Z"/><path class="cls-6" d="M488.71,637.76,482.4,653a8.29,8.29,0,0,1-2.7,3.8,6.72,6.72,0,0,1-3.89,1.09,8,8,0,0,1-2.34-.36,5.82,5.82,0,0,1-1.9-1l1.78-3.59a3.12,3.12,0,0,0,1,.63,3.57,3.57,0,0,0,1.23.23,2.18,2.18,0,0,0,1.2-.3,2.22,2.22,0,0,0,.8-.94l-6.27-14.82h5.27l3.59,8.93,3.62-8.93Z"/><path class="cls-6" d="M491.5,652.21a9.36,9.36,0,0,1-2.87-1.09l1.54-3.51a8.78,8.78,0,0,0,2.38,1,10.78,10.78,0,0,0,2.73.36,4.18,4.18,0,0,0,1.76-.26.79.79,0,0,0,.53-.74q0-.48-.63-.69a14.74,14.74,0,0,0-2-.39,18.62,18.62,0,0,1-3-.57,4.59,4.59,0,0,1-2.12-1.29,3.72,3.72,0,0,1-.89-2.65,4,4,0,0,1,.84-2.49,5.53,5.53,0,0,1,2.44-1.73,10.31,10.31,0,0,1,3.85-.64,15.35,15.35,0,0,1,3.16.33,9.22,9.22,0,0,1,2.62.91l-1.54,3.49a8.54,8.54,0,0,0-4.21-1.08,4.24,4.24,0,0,0-1.79.28.85.85,0,0,0-.56.74c0,.35.2.58.62.72a15.86,15.86,0,0,0,2.05.42,23.52,23.52,0,0,1,3,.62,4.52,4.52,0,0,1,2.06,1.28,3.63,3.63,0,0,1,.88,2.61,4,4,0,0,1-.84,2.47A5.41,5.41,0,0,1,499,652a11,11,0,0,1-3.93.62A15.62,15.62,0,0,1,491.5,652.21Z"/><path class="cls-6" d="M507.67,651.66a7.21,7.21,0,0,1-4-6.61,7.21,7.21,0,0,1,4-6.58,9.93,9.93,0,0,1,8.52,0,7.27,7.27,0,0,1,3,2.67,7.41,7.41,0,0,1-3,10.52,9.8,9.8,0,0,1-8.5,0Zm6.45-4a3.62,3.62,0,0,0,.87-2.57,3.54,3.54,0,0,0-.87-2.54,3.13,3.13,0,0,0-4.43,0,3.58,3.58,0,0,0-.86,2.54,3.66,3.66,0,0,0,.86,2.57,3.08,3.08,0,0,0,4.43,0Z"/><path class="cls-6" d="M522.54,632.36h5.13v20h-5.13Z"/><path class="cls-6" d="M546.39,637.76v14.63H541.5v-1.57a5.11,5.11,0,0,1-2,1.35,6.22,6.22,0,0,1-2.4.46,6.11,6.11,0,0,1-4.52-1.67,6.77,6.77,0,0,1-1.69-5v-8.18h5.13v7.34a3.77,3.77,0,0,0,.62,2.4,2.2,2.2,0,0,0,1.81.76,2.57,2.57,0,0,0,2-.85,3.82,3.82,0,0,0,.77-2.61v-7Z"/><path class="cls-6" d="M559.78,651.8a5.32,5.32,0,0,1-1.58.62,9,9,0,0,1-2,.21,6.3,6.3,0,0,1-4.4-1.4,5.41,5.41,0,0,1-1.54-4.19v-4.91h-2.13V638.3h2.13v-3.81h5.13v3.81h3.35v3.83H555.4V647a1.73,1.73,0,0,0,.42,1.23,1.45,1.45,0,0,0,1.12.44,2.76,2.76,0,0,0,1.57-.45Z"/><path class="cls-6" d="M562,635.35a2.63,2.63,0,0,1,0-3.89,3.28,3.28,0,0,1,2.27-.78,3.39,3.39,0,0,1,2.27.74,2.4,2.4,0,0,1,.87,1.91,2.61,2.61,0,0,1-.87,2,3.64,3.64,0,0,1-4.54,0Zm-.29,2.41h5.13v14.63h-5.13Z"/><path class="cls-6" d="M573.3,651.66a7.25,7.25,0,0,1-4-6.61,7.24,7.24,0,0,1,4-6.58,9.93,9.93,0,0,1,8.52,0,7.18,7.18,0,0,1,2.94,2.67,7.81,7.81,0,0,1,0,7.82,7.25,7.25,0,0,1-2.94,2.7,9.82,9.82,0,0,1-8.51,0Zm6.46-4a3.66,3.66,0,0,0,.86-2.57,3.58,3.58,0,0,0-.86-2.54,2.93,2.93,0,0,0-2.22-.92,2.9,2.9,0,0,0-2.21.92,3.54,3.54,0,0,0-.87,2.54,3.62,3.62,0,0,0,.87,2.57,2.84,2.84,0,0,0,2.21.94A2.88,2.88,0,0,0,579.76,647.62Z"/><path class="cls-6" d="M602.1,639.13a6.53,6.53,0,0,1,1.66,4.89v8.37h-5.13v-7.53q0-3-2.4-3a2.75,2.75,0,0,0-2.12.86,3.73,3.73,0,0,0-.8,2.6v7.07h-5.13V637.76h4.89v1.59a5.62,5.62,0,0,1,2-1.36,6.86,6.86,0,0,1,2.59-.48A6,6,0,0,1,602.1,639.13Z"/><path class="cls-6" d="M608.67,652.21a9.39,9.39,0,0,1-2.86-1.09l1.54-3.51a8.78,8.78,0,0,0,2.38,1,10.65,10.65,0,0,0,2.72.36,4.2,4.2,0,0,0,1.77-.26.8.8,0,0,0,.53-.74c0-.32-.21-.55-.64-.69a14.22,14.22,0,0,0-2-.39,18.62,18.62,0,0,1-3-.57A4.54,4.54,0,0,1,607,645a3.72,3.72,0,0,1-.89-2.65,4,4,0,0,1,.84-2.49,5.47,5.47,0,0,1,2.44-1.73,10.31,10.31,0,0,1,3.85-.64,15.35,15.35,0,0,1,3.16.33,9,9,0,0,1,2.61.91l-1.53,3.49a8.55,8.55,0,0,0-4.22-1.08,4.19,4.19,0,0,0-1.78.28.85.85,0,0,0-.57.74c0,.35.21.58.63.72a15.49,15.49,0,0,0,2.05.42,23.32,23.32,0,0,1,3,.62,4.55,4.55,0,0,1,2.07,1.28,3.68,3.68,0,0,1,.88,2.61,4,4,0,0,1-.84,2.47,5.41,5.41,0,0,1-2.47,1.71,11,11,0,0,1-3.93.62A15.77,15.77,0,0,1,608.67,652.21Z"/></g></g><g id="logo-05"><g id="Group_5" data-name="Group 5"><g id="Group_3" data-name="Group 3"><path id="Path_9" data-name="Path 9" class="cls-6" d="M84.73,273.48c6.69-7.42,12.59-13.62,20.4-17.52,11.83-5.92,24-8,36.61-2.68,7,2.91,11.22,8.36,13.57,15.42.46,1.4.13,3.6,1.73,4,2,.5,2.58-1.75,3.6-3,11.52-13.87,26.27-20.93,44.31-19,15.65,1.68,25,13.72,25.24,30.81.2,12.69-2.4,25.07-4.71,37.46-3.28,17.68-6.86,35.3-10.13,53-.58,3.18-1.77,4.26-5.08,4.11-7-.29-13.92-.19-20.87,0-3,0-3.59-.67-3-3.7q6.6-34.39,12.77-68.87a58.9,58.9,0,0,0,1-15.11c-1-13.4-14.3-17.43-24.88-10.69-12.82,8.18-18.78,21.05-21.84,35.13-4.27,19.66-7.74,39.5-11.33,59.3-.57,3.1-1.72,4-4.76,3.95-6.8-.19-13.62-.29-20.4,0-4.16.19-4.26-1.27-3.59-4.77q7-36,13.5-72a31.39,31.39,0,0,0-.29-14.2c-2.51-8.8-10-12.72-18.71-9.71-10.34,3.6-16.35,11.73-21.37,20.74-7.21,12.94-8.33,27.54-11.09,41.67C73.14,349.41,71,361,69.08,372.7c-.47,2.86-1.68,3.41-4.26,3.35-6.95-.15-13.92-.2-20.87,0-3.35.11-4.37-.94-3.76-4.2,3.42-18.11,6.75-36.24,10.11-54.35,3.73-20.07,8.05-40,10.35-60.37.35-3.08,1.59-4.21,4.72-4.11,5.88.2,11.75.19,17.62,0,2.85-.09,3.75.83,3.68,3.67C86.48,261.9,85.57,267,84.73,273.48Z"/><path id="Path_10" data-name="Path 10" class="cls-6" d="M263,319.85c1.2-21.38,11.32-45.54,37.05-60.35,20-11.52,41.28-13.61,62.11-1.63,12.61,7.25,19.46,18.87,21.46,33.26,3.06,21.89-2,41.75-14.93,59.68-16,22.15-45.51,32.59-71.27,25.81C277.88,371.47,262.19,352.86,263,319.85Zm90.74-17.49a39.42,39.42,0,0,0-.05-5.54c-1.22-8.46-3.89-16.19-12-20.72-10.09-5.67-24.09-2.59-32.26,7-11,13-16.06,28.16-15.87,45.05.08,6.64,1.26,13.09,5.48,18.64,9.07,11.91,26.79,13.1,39.48-1.9,10.25-12.11,14.83-26.71,15.18-42.57Z"/><path id="Path_11" data-name="Path 11" class="cls-6" d="M581.45,325.83H581c-9.29,0-9.91.81-7.67,10.05,2.6,10.63,10.23,17.4,21.31,18.92,12.45,1.71,24.25-.73,35.68-5.51,4.85-2,5.14-2,5.46,3.21a62.54,62.54,0,0,0,1.6,12.33c.78,2.83-.23,4.59-3.06,5.73-19.69,8-40,11-60.58,4.94-13.54-4-22.48-13.56-27.16-27.34-10.63-31.32,6.07-73,34.33-88.88,18.51-10.39,37.93-13.45,57.22-2.26,14.15,8.21,17.28,22.93,13.63,37.91s-16,21.45-29.53,25.71C609,324.76,595.18,325.19,581.45,325.83Zm3.36-22.13c2.28-.17,6.3-.43,10.29-.8,8-.74,15.95-1.61,23.08-5.9a12.89,12.89,0,0,0,6.72-12.69c-.29-5.19-3-8.47-7.74-10.44a22.07,22.07,0,0,0-14.95-.43c-11.66,3.38-19,11.55-23.93,22.2C574.82,303,575.22,303.73,584.81,303.7Z"/><path id="Path_12" data-name="Path 12" class="cls-6" d="M456.78,344.6c6.53-13.45,12.2-26.87,18.8-39.89q11.76-23.23,23.06-46.7c1.75-3.61,3.82-5.21,8.09-5,8.77.41,17.59.12,26.66.12-.28,2.53-1.56,4.27-2.57,6.07q-27.9,50-55.82,99.88c-2.68,4.81-5.46,9.56-8,14.42-.88,1.66-1.77,2.59-3.82,2.56-8.19-.12-16.38-.09-24.57,0-2,0-2.89-.46-3.27-2.7Q425.37,315,415.2,256.67c-.45-2.6.29-3.66,3.06-3.62,7.89.12,15.77.16,23.66,0,2.87-.06,3.6,1.16,3.92,3.76,2,16.31,4.21,32.6,6.26,48.91C453.74,318.69,455.22,331.64,456.78,344.6Z"/></g><g id="Group_4" data-name="Group 4"><path id="Path_13" data-name="Path 13" class="cls-7" d="M216.73,188.8c1.92-4.21,3.44-7.43,4.87-10.7,11.69-26.8,23.42-53.59,35-80.45,1.26-3,2.84-3.86,5.84-3.7,4,.22,8.06.06,12.58.06-.6,1.76-.92,3-1.43,4.12-15.81,36.06-31.7,72.09-47.4,108.19-1.5,3.45-3.43,4.22-7,4.71-7.92,1-11.29-2.26-14.16-9.33-9.64-23.73-20.11-47.12-30.27-70.64-.54-1.27-1.18-2.5-1.78-3.74-.37.06-.75.14-1.13.19v83.27c-5.57,0-10.45.08-15.32-.1-.7,0-1.55-1.33-1.94-2.22a7,7,0,0,1-.09-2.58c0-35.66.08-71.32-.1-107,0-4.12,1.26-5.29,5.18-5a74.14,74.14,0,0,0,11.35,0c3.13-.23,4.61,1,5.83,3.8q18.57,42.82,37.4,85.55C214.75,184.82,215.52,186.31,216.73,188.8Z"/><path id="Path_14" data-name="Path 14" class="cls-7" d="M123.79,128.14c-5.12,0-10,.15-14.9-.13-.94-.06-2.2-1.57-2.61-2.68-4.84-13.18-12.3-18.75-26.51-18.75A69.48,69.48,0,0,0,63,108.51c-6.07,1.51-10.73,5.35-11.39,12.2-.73,7.49,1.81,12.43,9.21,15.48,8.56,3.52,17.52,6.06,26.28,9.12,6.84,2.39,13.78,4.62,20.4,7.49,11.94,5.15,19.27,14,19.12,27.4s-7.08,22.55-19.22,28c-11.53,5.14-23.76,5.1-36,4.37-10.35-.61-20.07-3.41-28-10.43-7.55-6.68-10.94-15.44-12.27-25.19-.41-3,.67-4.24,3.79-4.06,3.78.2,8.25-1.11,11.14.51,2.39,1.32,2.92,5.94,4.24,9.13a22.41,22.41,0,0,0,16.48,14.11c10.58,2.48,21.13,2.48,31.17-1.79a24.84,24.84,0,0,0,9.71-7.57c3.75-5,2.26-12-2.38-17.06s-11-6.87-17.15-8.94c-12.1-4.05-24.28-7.87-36.32-12.11-9.31-3.28-15.55-9.82-17-19.69-1.67-11.13,1.11-21,10.7-28.08,9.91-7.33,21.3-10,33.3-9.2,7.74.5,15.8,1.24,23,3.87C116.08,101.28,122.55,112.81,123.79,128.14Z"/><path id="Path_15" data-name="Path 15" class="cls-7" d="M507.82,156.75a18.08,18.08,0,0,0,2.67,1.59c9.71,3.18,13.72,10.46,14.77,20,.62,5.74,1,11.56,2.18,17.18,1.09,5.13,3.18,10.05,4.91,15.32-4.75,0-10.07.2-15.36-.14a5.07,5.07,0,0,1-3.47-3.15c-1.66-7-2.94-14.05-4.31-21.1-.5-2.55-.61-5.19-1.27-7.68-2.3-8.79-8.25-13.25-19.31-13.67-10.17-.4-20.37-.05-30.56-.14-2.9,0-3.69,1.24-3.68,4,.1,12.61-.05,25.21.12,37.82.05,3.24-.9,4.47-4.2,4.15-4.14-.39-9.63,1-12.07-1.15-2.1-1.85-.89-7.59-.9-11.61,0-14.34.08-28.7-.1-43,0-3.57,1-4.72,4.68-4.68,15.29.2,30.58-.06,45.85.19,20.73.32,25.4-15.41,21.83-29.82-1.9-7.68-8.26-11.08-15.36-11.44-13.32-.69-26.71-.32-40.06-.38-2.19,0-4.37.16-6.55.07-3.27-.14-8.83.51-9.4-.86-1.47-3.47-.87-7.88-.72-11.9,0-.78,1.85-2.15,2.82-2.13,19.63.16,39.38-.8,58.85,1.09,23.09,2.25,30.62,19.15,28.28,38.06C526,145,519.85,152.93,507.82,156.75Z"/><path id="Path_16" data-name="Path 16" class="cls-7" d="M597.21,159.81V114.59c0-6.1-.05-6.14-6-6.15-9.9,0-19.81-.1-29.7,0-3.18,0-4.29-.9-4.29-4.2C557.25,94,557.11,94,567.47,94c26.95,0,53.88.09,80.83-.09,4,0,5,1.26,4.84,5-.35,11.18,1.4,9.41-9.4,9.54-7.73.09-15.44,0-23.16,0-6.81,0-6.82,0-6.82,6.6,0,30.15-.1,60.31.06,90.46,0,4.07-.9,6-5.28,5.37a27.18,27.18,0,0,0-7,0c-3.67.43-4.39-1.3-4.37-4.52.11-15.51,0-31,0-46.54Z"/><path id="Path_17" data-name="Path 17" class="cls-7" d="M414.08,210.82c-4.85,0-8.95-.3-13,.09s-5.83-1.12-7.2-4.85q-19.16-51.84-38.62-103.54c-1-2.65-2-5.32-3.15-8.51,5.35,0,10-.29,14.59.17,1.4.15,3.18,2.16,3.79,3.7,9.72,24.75,19.26,49.56,28.87,74.35q6.41,16.56,12.87,33.13C412.86,206.93,413.34,208.58,414.08,210.82Z"/><path id="Path_18" data-name="Path 18" class="cls-7" d="M304.22,210.82c2.42-6.38,4.56-12.17,6.79-17.91,5.06-13.06,10.23-26.07,15.19-39.16.92-2.44,2.14-3.35,4.75-3.28,6.38.16,12.8-.1,19.18.17a5.74,5.74,0,0,1,4.07,2.66c1.72,3.29,2.87,6.88,4.69,11.48-5.06,0-9.47.32-13.82-.08s-6.37,1.3-7.78,5.39c-4.26,12.42-9,24.66-13.44,37-1,2.71-2.2,4-5.26,3.79C314,210.62,309.42,210.82,304.22,210.82Z"/><path id="Path_19" data-name="Path 19" class="cls-7" d="M261.36,149.05h17.92v62.3H261.36Z"/></g></g></g><g id="_9TH_NOVEMBER_2020-2" data-name=" 9TH NOVEMBER 2020" class="cls-3"><g class="cls-3"><path class="cls-4" d="M89.82,457.66h5.74v15.75h9.69V478H89.82Z"/><path class="cls-4" d="M121.34,474h-8.58l-1.6,3.94H105.3l9-20.3h5.65l9,20.3h-6Zm-1.68-4.24-2.61-6.49-2.61,6.49Z"/><path class="cls-4" d="M132.43,475.9q-2.51-2.46-2.5-7V457.66h5.74v11.08q0,4.88,3.85,4.87c2.56,0,3.83-1.62,3.83-4.87V457.66H149v11.25a9.36,9.36,0,0,1-2.51,7,11.25,11.25,0,0,1-14.07,0Z"/><path class="cls-4" d="M172.21,457.66V478h-4.73l-9-10.82V478h-5.63v-20.3h4.73l9,10.82V457.66Z"/><path class="cls-4" d="M180.66,477a10.1,10.1,0,0,1-4-3.76,11,11,0,0,1,0-10.9,10.17,10.17,0,0,1,4-3.76,12.11,12.11,0,0,1,5.73-1.34,12.45,12.45,0,0,1,5,1,9.84,9.84,0,0,1,3.71,2.84l-3.66,3.31a6,6,0,0,0-4.78-2.38,5.87,5.87,0,0,0-3,.73,5,5,0,0,0-2,2,6.82,6.82,0,0,0,0,6.06,5.12,5.12,0,0,0,2,2.05,6.13,6.13,0,0,0,7.73-1.66l3.66,3.31a9.74,9.74,0,0,1-3.71,2.84,12.29,12.29,0,0,1-5,1A12,12,0,0,1,180.66,477Z"/><path class="cls-4" d="M217,457.66V478h-5.74V470h-7.83V478h-5.74v-20.3h5.74v7.63h7.83v-7.63Z"/><path class="cls-4" d="M237.34,473.53V478H221v-20.3H237v4.44H226.73v3.42h9v4.29h-9v3.72Z"/><path class="cls-4" d="M240.53,457.66h9.6a13.48,13.48,0,0,1,5.92,1.25,9.39,9.39,0,0,1,4,3.54,10.84,10.84,0,0,1,0,10.73,9.43,9.43,0,0,1-4,3.53,13.34,13.34,0,0,1-5.92,1.25h-9.6Zm9.37,15.72a5.88,5.88,0,0,0,4.19-1.48,6.08,6.08,0,0,0,0-8.18,5.92,5.92,0,0,0-4.19-1.48h-3.63v11.14Z"/></g></g><rect class="cls-8" width="685.61" height="685.61"/></g></g></svg>