<svg xmlns="http://www.w3.org/2000/svg" xmlns:xlink="http://www.w3.org/1999/xlink" viewBox="0 0 1621.1 582.4"><defs><radialGradient id="radial-gradient" cx="8184.231" cy="-6846.023" r="501.559" gradientTransform="matrix(0, -1, -1, 0, -6817.222, 8240.976)" gradientUnits="userSpaceOnUse"><stop offset="0" stop-color="#fff"/><stop offset="0.231" stop-color="#fcfcfc"/><stop offset="0.42" stop-color="#f2f2f2"/><stop offset="0.594" stop-color="#e0e0e1"/><stop offset="0.759" stop-color="#c8c8c9"/><stop offset="0.917" stop-color="#aaa"/><stop offset="1" stop-color="#969697"/></radialGradient><radialGradient id="radial-gradient-2" cx="8099.776" cy="-6901.478" r="478.154" gradientTransform="matrix(0, -1, -1, 0, -6817.222, 8240.976)" gradientUnits="userSpaceOnUse"><stop offset="0" stop-color="#fff"/><stop offset="0.258" stop-color="#fcfcfc"/><stop offset="0.468" stop-color="#f2f2f2"/><stop offset="0.662" stop-color="#e0e0e1"/><stop offset="0.846" stop-color="#c9c9c9"/><stop offset="1" stop-color="#aeaeaf"/></radialGradient><radialGradient id="radial-gradient-3" cx="7808.923" cy="-7159.957" r="528.506" gradientTransform="matrix(0, -1, -1, 0, -6817.222, 8240.976)" gradientUnits="userSpaceOnUse"><stop offset="0" stop-color="#fff"/><stop offset="0.165" stop-color="#f8f8f8"/><stop offset="0.411" stop-color="#e3e3e3"/><stop offset="0.709" stop-color="#c2c2c2"/><stop offset="1" stop-color="#9a9a9a"/></radialGradient></defs><g id="Layer_2" data-name="Layer 2"><g id="Layer_1-2" data-name="Layer 1"><path d="M1527.4,582.4H298.3c-51.7,0-93.7-130.4-93.7-291.2h0C204.6,130.4,246.6,0,298.3,0H1527.4c51.8,0,93.7,130.4,93.7,291.2h0C1621.1,452,1579.1,582.4,1527.4,582.4Z" style="fill:#df4452"/><path d="M188,127.9c97.9,0,191.4,70.2,191.4,168.1s-62.1,174.5-160,174.5S38.5,389.1,38.5,291.2C38.4,193.2,90.1,127.9,188,127.9Z" style="fill:#434343;opacity:0.5;isolation:isolate"/><path d="M206.9,82.7c114.2,0,206.8,92.6,206.8,206.8S321.1,496.3,206.9,496.3C92.7,496.4.1,403.8,0,289.6,0,175.4,92.7,82.7,206.9,82.7Z" style="fill:url(#radial-gradient)"/><path d="M206.9,92.4c108.9,0,197.2,88.3,197.2,197.2S315.8,486.8,206.9,486.8,9.7,398.5,9.7,289.6,98,92.4,206.9,92.4Z" style="fill:url(#radial-gradient-2)"/><path d="M206.9,131.1A158.5,158.5,0,1,1,48.4,289.6c-.1-87.6,70.9-158.5,158.5-158.5Z" style="fill:url(#radial-gradient-3)"/><path d="M206.9,145.4A144.2,144.2,0,1,1,62.7,289.6,144.251,144.251,0,0,1,206.9,145.4Z" style="opacity:0.10000000149011612;isolation:isolate"/><path d="M259.9,215.8l.6.3a10.761,10.761,0,0,1,8.1,11v64h-7.3V227.9c0-3.9-1-4.9-4.8-4.9H137c-3.7,0-4.8,1.1-4.8,4.8v83.7c0,3.8,1.1,4.9,5,4.9h45.2v7.2h-7V338h14.2v7.1H161.1V338h7V323.6H136.3a10.641,10.641,0,0,1-11.2-10.1V227.3a10.551,10.551,0,0,1,8.3-11.1,1.38,1.38,0,0,0,.4-.3Z" style="fill:#606161"/><path d="M297.3,375.7c-3.8,3.9-7.5,7.8-11.4,11.6a3.319,3.319,0,0,1-4.7-.1c-.1-.1-.2-.2-.2-.3l-5.7-5.7-15.7-15.7c-2.7-2.7-2.7-4.3,0-6.9a12.986,12.986,0,0,1,1.4-1.2l-7.6-7.6a38.71,38.71,0,0,1-36,7A38,38,0,0,1,196,340.9a39.08,39.08,0,1,1,63,3.2l7.7,7.6a20,20,0,0,1,1.9-2.2,3.48,3.48,0,0,1,4.9-.3l.4.4c7.5,7.4,14.9,14.8,22.3,22.2a9.55,9.55,0,0,1,1.2,1.6ZM196.7,319.5a31.75,31.75,0,1,0,0-.3Zm91.5,55.2L271,357.5l-4.4,4.4L283.7,379Z" style="fill:#606161"/><path d="M159.6,265.1c-1.5-1.5-2.9-3-4.3-4.4a6.529,6.529,0,0,1-.7-.8c1.6-1.6,3.2-3.1,4.8-4.7,2.9-2.8,5.7-5.7,8.6-8.6a1.856,1.856,0,0,0,.6-2.2,10.534,10.534,0,0,1,3.9-12.2,10.813,10.813,0,0,1,12.6,0,10.623,10.623,0,0,1,3.9,12.2,1.823,1.823,0,0,0,.5,2.2c3,2.9,5.9,5.8,8.8,8.8a1.7,1.7,0,0,0,2.2.5,10.8,10.8,0,0,1,7.1,0,2.319,2.319,0,0,0,1.8-.4c3.1-3,6-6,9.1-9,.8-.8.6-1.4.3-2.2a10.852,10.852,0,0,1,7-13.6,10.7,10.7,0,0,1,13.5,7,2.92,2.92,0,0,1,.2.9,10.278,10.278,0,0,1-3.1,10.3,10.167,10.167,0,0,1-10.6,2.4,2.186,2.186,0,0,0-2.6.7c-2.8,2.9-5.7,5.8-8.6,8.6a2,2,0,0,0-.6,2.3,10.621,10.621,0,0,1-6.7,13.5h0c-.2.1-.3.1-.5.2a10.543,10.543,0,0,1-13.2-7h0c-.1-.2-.1-.5-.2-.7a17.879,17.879,0,0,1,.2-6.1c.1-.9.2-1.4-.4-2.1-3-3-6-6-9.1-9a2.319,2.319,0,0,0-1.8-.4,10.206,10.206,0,0,1-7.1-.1,1.734,1.734,0,0,0-2.2.6c-4.2,4.3-8.5,8.5-12.7,12.7A7.684,7.684,0,0,0,159.6,265.1ZM182.3,241a3.5,3.5,0,1,0-7-.2h0a3.5,3.5,0,0,0,7,.2Zm46.8,3.5a3.543,3.543,0,0,0,3.5-3.5,3.793,3.793,0,0,0-3.6-3.6,3.525,3.525,0,0,0-3.5,3.7h0a3.548,3.548,0,0,0,3.6,3.4ZM207.4,266a3.523,3.523,0,0,0-3.4-3.5h-.1a3.543,3.543,0,0,0-3.5,3.5,3.738,3.738,0,0,0,3.7,3.6,3.533,3.533,0,0,0,3.3-3.6Z" style="fill:#606161"/><path d="M157.1,302.2v7.2a67.25,67.25,0,0,1-10-.7,10.029,10.029,0,0,1-7.8-9.4c-.2-2.6,0-5.2,0-8h7.1v6.1c0,3.2,1.3,4.6,4.6,4.6h5.7C156.9,302.1,157,302.1,157.1,302.2Z" style="fill:#606161"/><path d="M229.1,295c12.4-.7,25.3,10.5,25,24.9h-7c-1.1-10.8-7.1-16.7-18-18Z" style="fill:#606161"/><g style="isolation:isolate"><path d="M441.14,119h8.747v37.793H441.14Z" style="fill:#fff"/><path d="M484.628,130.554q3.321,3.24,3.321,9.61v16.629h-8.423V141.46a7.577,7.577,0,0,0-1.511-5.156,5.544,5.544,0,0,0-4.373-1.7,6.705,6.705,0,0,0-5.076,1.97q-1.89,1.971-1.889,5.858v14.361h-8.423V127.746H466.3v3.4a11.181,11.181,0,0,1,4.157-2.834,14.478,14.478,0,0,1,5.453-1A11.955,11.955,0,0,1,484.628,130.554Z" style="fill:#fff"/><path d="M525.471,116.732v40.061h-8.044v-3.348q-3.132,3.782-9.071,3.78a15.089,15.089,0,0,1-7.423-1.835,13.137,13.137,0,0,1-5.21-5.238,17.383,17.383,0,0,1,0-15.765,13.135,13.135,0,0,1,5.21-5.237,15.089,15.089,0,0,1,7.423-1.836q5.561,0,8.693,3.51V116.732Zm-10.366,31.4a9.2,9.2,0,0,0,0-11.716,7.562,7.562,0,0,0-10.636,0,9.2,9.2,0,0,0,0,11.716,7.562,7.562,0,0,0,10.636,0Z" style="fill:#fff"/><path d="M562.508,127.746v29.047h-7.991v-3.455a11.178,11.178,0,0,1-4,2.889,12.586,12.586,0,0,1-5.021,1q-5.724,0-9.07-3.293t-3.348-9.773V127.746h8.423v15.172q0,7.019,5.885,7.019a6.325,6.325,0,0,0,4.858-1.971q1.836-1.971,1.836-5.859V127.746Z" style="fill:#fff"/><path d="M573.036,156.334a18.5,18.5,0,0,1-5.508-2.24l2.808-6.047a17.633,17.633,0,0,0,4.7,2.024,19.645,19.645,0,0,0,5.4.783q5.346,0,5.345-2.645a1.873,1.873,0,0,0-1.458-1.782,21.65,21.65,0,0,0-4.481-.918,43.39,43.39,0,0,1-5.885-1.241,9.129,9.129,0,0,1-4.022-2.484,7.062,7.062,0,0,1-1.7-5.075,7.954,7.954,0,0,1,1.593-4.887,10.25,10.25,0,0,1,4.643-3.32,19.846,19.846,0,0,1,7.208-1.188,28.353,28.353,0,0,1,6.128.675,17.174,17.174,0,0,1,5.048,1.863l-2.808,5.993a16.758,16.758,0,0,0-8.368-2.159,8.527,8.527,0,0,0-4.05.755,2.224,2.224,0,0,0-1.349,1.944,1.928,1.928,0,0,0,1.457,1.889,25.615,25.615,0,0,0,4.644,1.026,49.665,49.665,0,0,1,5.83,1.269,8.777,8.777,0,0,1,3.942,2.456,6.975,6.975,0,0,1,1.674,4.967,7.67,7.67,0,0,1-1.62,4.806,10.342,10.342,0,0,1-4.724,3.266,21.049,21.049,0,0,1-7.37,1.161A28.194,28.194,0,0,1,573.036,156.334Z" style="fill:#fff"/><path d="M617.738,155.39a8.643,8.643,0,0,1-3.05,1.376,15.471,15.471,0,0,1-3.806.459q-5.184,0-8.018-2.646t-2.834-7.774V134.873h-4.481V128.4h4.481v-7.074h8.422V128.4h7.235v6.478h-7.235V146.7a3.962,3.962,0,0,0,.945,2.834,3.5,3.5,0,0,0,2.672,1,5.408,5.408,0,0,0,3.4-1.08Z" style="fill:#fff"/><path d="M634.61,128.4a15.126,15.126,0,0,1,5.912-1.081v7.775q-1.4-.106-1.889-.108a7.718,7.718,0,0,0-5.669,2.025q-2.052,2.023-2.052,6.073v13.714H622.49V127.746h8.044v3.834A9.35,9.35,0,0,1,634.61,128.4Z" style="fill:#fff"/><path d="M675.4,127.746,662.28,158.574q-2,5.022-4.94,7.073a12.1,12.1,0,0,1-7.1,2.052,14.737,14.737,0,0,1-4.481-.7,9.9,9.9,0,0,1-3.617-1.943l3.077-5.993a7.249,7.249,0,0,0,2.241,1.349,6.975,6.975,0,0,0,2.51.486,4.464,4.464,0,0,0,2.808-.836,7.13,7.13,0,0,0,1.943-2.781l.108-.27-12.58-29.263h8.693l8.153,19.707,8.206-19.707Z" style="fill:#fff"/><path d="M684.092,148.182a5.026,5.026,0,0,1,1.457,3.752,8.876,8.876,0,0,1-.27,2.16,24.5,24.5,0,0,1-1.187,3.239l-3.078,7.774h-5.345l2.376-8.584a4.427,4.427,0,0,1-2.133-1.754,5.118,5.118,0,0,1-.783-2.835,4.971,4.971,0,0,1,1.485-3.752,5.19,5.19,0,0,1,3.752-1.431A5.1,5.1,0,0,1,684.092,148.182Z" style="fill:#fff"/><path d="M731.224,156.793l-7.289-10.528h-8.044v10.528h-8.747V119H723.5a21.008,21.008,0,0,1,8.719,1.674,12.957,12.957,0,0,1,5.7,4.751,13.1,13.1,0,0,1,2,7.289,12.309,12.309,0,0,1-7.774,11.932l8.477,12.147Zm-2.213-28.966a9.191,9.191,0,0,0-5.994-1.7h-7.126V139.3h7.126a9.084,9.084,0,0,0,5.994-1.728,6.813,6.813,0,0,0,0-9.745Z" style="fill:#fff"/><path d="M774.523,144.646H752.549a6.836,6.836,0,0,0,2.808,4.264,9.289,9.289,0,0,0,5.507,1.567,11.151,11.151,0,0,0,4.022-.675,9.75,9.75,0,0,0,3.266-2.133l4.482,4.858q-4.1,4.7-11.986,4.7a18.972,18.972,0,0,1-8.693-1.916,14.05,14.05,0,0,1-5.831-5.319,14.648,14.648,0,0,1-2.051-7.72,14.835,14.835,0,0,1,2.025-7.694,14.182,14.182,0,0,1,5.561-5.345,17.212,17.212,0,0,1,15.629-.081,13.4,13.4,0,0,1,5.426,5.264,15.7,15.7,0,0,1,1.971,7.964Q774.685,142.539,774.523,144.646Zm-19.706-9.341a6.9,6.9,0,0,0-2.376,4.427h14.307a6.964,6.964,0,0,0-2.375-4.4,7.1,7.1,0,0,0-4.751-1.646A7.257,7.257,0,0,0,754.817,135.305Z" style="fill:#fff"/><path d="M783,156.334a18.5,18.5,0,0,1-5.507-2.24l2.808-6.047a17.633,17.633,0,0,0,4.7,2.024,19.64,19.64,0,0,0,5.4.783q5.344,0,5.345-2.645a1.873,1.873,0,0,0-1.458-1.782,21.665,21.665,0,0,0-4.481-.918,43.39,43.39,0,0,1-5.885-1.241,9.129,9.129,0,0,1-4.022-2.484,7.062,7.062,0,0,1-1.7-5.075,7.954,7.954,0,0,1,1.593-4.887,10.25,10.25,0,0,1,4.643-3.32,19.846,19.846,0,0,1,7.208-1.188,28.353,28.353,0,0,1,6.128.675,17.156,17.156,0,0,1,5.047,1.863l-2.807,5.993a16.758,16.758,0,0,0-8.368-2.159,8.527,8.527,0,0,0-4.05.755,2.223,2.223,0,0,0-1.349,1.944,1.928,1.928,0,0,0,1.457,1.889,25.615,25.615,0,0,0,4.644,1.026,49.665,49.665,0,0,1,5.83,1.269,8.777,8.777,0,0,1,3.942,2.456,6.975,6.975,0,0,1,1.674,4.967,7.67,7.67,0,0,1-1.62,4.806,10.342,10.342,0,0,1-4.724,3.266,21.053,21.053,0,0,1-7.37,1.161A28.208,28.208,0,0,1,783,156.334Z" style="fill:#fff"/><path d="M837.258,144.646H815.285a6.835,6.835,0,0,0,2.807,4.264,9.289,9.289,0,0,0,5.507,1.567,11.148,11.148,0,0,0,4.022-.675,9.75,9.75,0,0,0,3.266-2.133l4.482,4.858q-4.1,4.7-11.986,4.7a18.962,18.962,0,0,1-8.692-1.916,14.044,14.044,0,0,1-5.831-5.319,14.649,14.649,0,0,1-2.052-7.72,14.845,14.845,0,0,1,2.025-7.694,14.188,14.188,0,0,1,5.561-5.345,17.214,17.214,0,0,1,15.63-.081,13.415,13.415,0,0,1,5.426,5.264,15.706,15.706,0,0,1,1.97,7.964Q837.42,142.539,837.258,144.646Zm-19.706-9.341a6.9,6.9,0,0,0-2.376,4.427h14.308a6.97,6.97,0,0,0-2.376-4.4,7.1,7.1,0,0,0-4.751-1.646A7.257,7.257,0,0,0,817.552,135.305Z" style="fill:#fff"/><path d="M864.307,130.527q3.616,3.213,3.617,9.691v16.575h-7.882v-3.617q-2.378,4.049-8.854,4.049a13.734,13.734,0,0,1-5.8-1.134,8.66,8.66,0,0,1-3.753-3.131,8.154,8.154,0,0,1-1.3-4.535,7.568,7.568,0,0,1,3.051-6.371q3.05-2.321,9.421-2.322H859.5a5.369,5.369,0,0,0-1.673-4.238,7.382,7.382,0,0,0-5.022-1.485,14.646,14.646,0,0,0-4.561.729,12.061,12.061,0,0,0-3.807,1.971l-3.024-5.885a18.281,18.281,0,0,1,5.7-2.592,25.54,25.54,0,0,1,6.829-.918Q860.69,127.314,864.307,130.527Zm-7.181,20.031a5.469,5.469,0,0,0,2.376-2.944v-2.968h-5.777q-5.183,0-5.183,3.4a3.029,3.029,0,0,0,1.269,2.564,5.713,5.713,0,0,0,3.482.945A7.332,7.332,0,0,0,857.126,150.558Z" style="fill:#fff"/><path d="M887.657,128.4a15.126,15.126,0,0,1,5.912-1.081v7.775q-1.406-.106-1.89-.108a7.721,7.721,0,0,0-5.669,2.025q-2.052,2.023-2.052,6.073v13.714h-8.421V127.746h8.043v3.834A9.358,9.358,0,0,1,887.657,128.4Z" style="fill:#fff"/><path d="M904.017,155.309a14.346,14.346,0,0,1-5.777-5.319,15.381,15.381,0,0,1,0-15.441,14.343,14.343,0,0,1,5.777-5.318,17.864,17.864,0,0,1,8.342-1.917,16.173,16.173,0,0,1,8.017,1.917,11.37,11.37,0,0,1,4.994,5.48l-6.533,3.51a7.141,7.141,0,0,0-6.533-4,7.39,7.39,0,0,0-5.453,2.159,9.1,9.1,0,0,0,0,11.769,7.387,7.387,0,0,0,5.453,2.16,7.066,7.066,0,0,0,6.533-4l6.533,3.563a11.589,11.589,0,0,1-4.994,5.4,15.982,15.982,0,0,1-8.017,1.944A17.864,17.864,0,0,1,904.017,155.309Z" style="fill:#fff"/><path d="M956.386,130.554q3.321,3.24,3.32,9.61v16.629h-8.421V141.46a7.577,7.577,0,0,0-1.512-5.156,5.544,5.544,0,0,0-4.373-1.7,6.7,6.7,0,0,0-5.075,1.97q-1.892,1.971-1.89,5.858v14.361h-8.423V116.732h8.423V130.77a11.193,11.193,0,0,1,4.049-2.565,14.646,14.646,0,0,1,5.183-.891A11.955,11.955,0,0,1,956.386,130.554Z" style="fill:#fff"/><path d="M974.284,148.182a5.027,5.027,0,0,1,1.458,3.752,8.878,8.878,0,0,1-.271,2.16,24.5,24.5,0,0,1-1.187,3.239l-3.078,7.774h-5.344l2.375-8.584a4.427,4.427,0,0,1-2.133-1.754,5.117,5.117,0,0,1-.782-2.835,4.974,4.974,0,0,1,1.484-3.752,5.19,5.19,0,0,1,3.752-1.431A5.1,5.1,0,0,1,974.284,148.182Z" style="fill:#fff"/><path d="M1022.226,148.694h-17.547l-3.348,8.1H992.37L1009.214,119h8.639l16.9,37.793h-9.178Zm-2.754-6.64-5.993-14.47-5.992,14.47Z" style="fill:#fff"/><path d="M1043.525,155.309a14.346,14.346,0,0,1-5.777-5.319,15.375,15.375,0,0,1,0-15.441,14.343,14.343,0,0,1,5.777-5.318,17.87,17.87,0,0,1,8.342-1.917,16.173,16.173,0,0,1,8.017,1.917,11.379,11.379,0,0,1,4.994,5.48l-6.533,3.51a7.141,7.141,0,0,0-6.532-4,7.388,7.388,0,0,0-5.453,2.159,9.1,9.1,0,0,0,0,11.769,7.385,7.385,0,0,0,5.453,2.16,7.064,7.064,0,0,0,6.532-4l6.533,3.563a11.6,11.6,0,0,1-4.994,5.4,15.982,15.982,0,0,1-8.017,1.944A17.87,17.87,0,0,1,1043.525,155.309Z" style="fill:#fff"/><path d="M1091.819,130.527q3.615,3.213,3.617,9.691v16.575h-7.883v-3.617q-2.376,4.049-8.854,4.049a13.74,13.74,0,0,1-5.8-1.134,8.64,8.64,0,0,1-3.752-3.131,8.146,8.146,0,0,1-1.3-4.535,7.569,7.569,0,0,1,3.05-6.371q3.05-2.321,9.422-2.322h6.694a5.37,5.37,0,0,0-1.674-4.238,7.373,7.373,0,0,0-5.02-1.485,14.659,14.659,0,0,0-4.563.729,12.05,12.05,0,0,0-3.805,1.971l-3.024-5.885a18.279,18.279,0,0,1,5.7-2.592,25.561,25.561,0,0,1,6.831-.918Q1088.2,127.314,1091.819,130.527Zm-7.181,20.031a5.471,5.471,0,0,0,2.375-2.944v-2.968h-5.776q-5.184,0-5.184,3.4a3.029,3.029,0,0,0,1.269,2.564,5.713,5.713,0,0,0,3.482.945A7.336,7.336,0,0,0,1084.638,150.558Z" style="fill:#fff"/><path d="M1132.957,116.732v40.061h-8.044v-3.348q-3.13,3.782-9.07,3.78a15.092,15.092,0,0,1-7.424-1.835,13.144,13.144,0,0,1-5.21-5.238,17.391,17.391,0,0,1,0-15.765,13.141,13.141,0,0,1,5.21-5.237,15.093,15.093,0,0,1,7.424-1.836q5.56,0,8.693,3.51V116.732Zm-10.365,31.4a9.2,9.2,0,0,0,0-11.716,7.563,7.563,0,0,0-10.637,0,9.2,9.2,0,0,0,0,11.716,7.563,7.563,0,0,0,10.637,0Z" style="fill:#fff"/><path d="M1169.022,144.646h-21.974a6.836,6.836,0,0,0,2.808,4.264,9.289,9.289,0,0,0,5.507,1.567,11.151,11.151,0,0,0,4.022-.675,9.754,9.754,0,0,0,3.267-2.133l4.481,4.858q-4.1,4.7-11.986,4.7a18.972,18.972,0,0,1-8.693-1.916,14.062,14.062,0,0,1-5.831-5.319,14.648,14.648,0,0,1-2.051-7.72,14.835,14.835,0,0,1,2.025-7.694,14.188,14.188,0,0,1,5.561-5.345,17.212,17.212,0,0,1,15.629-.081,13.4,13.4,0,0,1,5.426,5.264,15.7,15.7,0,0,1,1.971,7.964Q1169.184,142.539,1169.022,144.646Zm-19.706-9.341a6.891,6.891,0,0,0-2.375,4.427h14.306a6.964,6.964,0,0,0-2.375-4.4,7.1,7.1,0,0,0-4.751-1.646A7.257,7.257,0,0,0,1149.316,135.305Z" style="fill:#fff"/><path d="M1220.663,130.527q3.212,3.213,3.212,9.637v16.629h-8.421V141.46a7.875,7.875,0,0,0-1.431-5.156,5.031,5.031,0,0,0-4.076-1.7,6.006,6.006,0,0,0-4.7,1.916q-1.728,1.917-1.727,5.7v14.577H1195.1V141.46q0-6.855-5.507-6.856a5.938,5.938,0,0,0-4.642,1.916q-1.73,1.917-1.729,5.7v14.577H1174.8V127.746h8.044v3.348a10.644,10.644,0,0,1,3.969-2.808,13.369,13.369,0,0,1,5.156-.972,12.5,12.5,0,0,1,5.561,1.215,9.866,9.866,0,0,1,3.995,3.536,11.914,11.914,0,0,1,4.509-3.508,14.21,14.21,0,0,1,5.965-1.243A11.711,11.711,0,0,1,1220.663,130.527Z" style="fill:#fff"/><path d="M1231.867,122.348a4.573,4.573,0,0,1,0-6.7,5.341,5.341,0,0,1,3.779-1.349,5.471,5.471,0,0,1,3.779,1.3,4.152,4.152,0,0,1,1.457,3.239,4.582,4.582,0,0,1-1.457,3.482,5.28,5.28,0,0,1-3.779,1.377A5.341,5.341,0,0,1,1231.867,122.348Zm-.433,5.4h8.423v29.047h-8.423Z" style="fill:#fff"/><path d="M1253.38,155.309a14.343,14.343,0,0,1-5.776-5.319,15.375,15.375,0,0,1,0-15.441,14.341,14.341,0,0,1,5.776-5.318,17.87,17.87,0,0,1,8.342-1.917,16.174,16.174,0,0,1,8.018,1.917,11.379,11.379,0,0,1,4.994,5.48l-6.533,3.51a7.142,7.142,0,0,0-6.533-4,7.39,7.39,0,0,0-5.453,2.159,9.1,9.1,0,0,0,0,11.769,7.387,7.387,0,0,0,5.453,2.16,7.067,7.067,0,0,0,6.533-4l6.533,3.563a11.6,11.6,0,0,1-4.994,5.4,15.984,15.984,0,0,1-8.018,1.944A17.87,17.87,0,0,1,1253.38,155.309Z" style="fill:#fff"/><path d="M1282.292,156.334a18.5,18.5,0,0,1-5.507-2.24l2.807-6.047a17.647,17.647,0,0,0,4.7,2.024,19.647,19.647,0,0,0,5.4.783q5.344,0,5.345-2.645a1.874,1.874,0,0,0-1.458-1.782,21.665,21.665,0,0,0-4.481-.918,43.408,43.408,0,0,1-5.886-1.241,9.131,9.131,0,0,1-4.021-2.484,7.062,7.062,0,0,1-1.7-5.075,7.959,7.959,0,0,1,1.592-4.887,10.258,10.258,0,0,1,4.644-3.32,19.844,19.844,0,0,1,7.207-1.188,28.339,28.339,0,0,1,6.128.675,17.163,17.163,0,0,1,5.048,1.863l-2.807,5.993a16.759,16.759,0,0,0-8.369-2.159,8.525,8.525,0,0,0-4.049.755,2.223,2.223,0,0,0-1.349,1.944,1.927,1.927,0,0,0,1.457,1.889,25.621,25.621,0,0,0,4.643,1.026,49.642,49.642,0,0,1,5.831,1.269,8.782,8.782,0,0,1,3.942,2.456,6.975,6.975,0,0,1,1.674,4.967,7.671,7.671,0,0,1-1.621,4.806,10.339,10.339,0,0,1-4.723,3.266,21.057,21.057,0,0,1-7.37,1.161A28.208,28.208,0,0,1,1282.292,156.334Z" style="fill:#fff"/><path d="M1345.621,130.527q3.616,3.213,3.617,9.691v16.575h-7.882v-3.617q-2.378,4.049-8.855,4.049a13.729,13.729,0,0,1-5.8-1.134,8.648,8.648,0,0,1-3.753-3.131,8.146,8.146,0,0,1-1.3-4.535,7.565,7.565,0,0,1,3.051-6.371q3.049-2.321,9.421-2.322h6.695a5.37,5.37,0,0,0-1.674-4.238,7.377,7.377,0,0,0-5.021-1.485,14.653,14.653,0,0,0-4.562.729,12.072,12.072,0,0,0-3.807,1.971l-3.023-5.885a18.275,18.275,0,0,1,5.7-2.592,25.54,25.54,0,0,1,6.829-.918Q1342,127.314,1345.621,130.527Zm-7.181,20.031a5.478,5.478,0,0,0,2.376-2.944v-2.968h-5.778q-5.182,0-5.182,3.4a3.031,3.031,0,0,0,1.268,2.564,5.714,5.714,0,0,0,3.483.945A7.335,7.335,0,0,0,1338.44,150.558Z" style="fill:#fff"/><path d="M1383.224,130.554q3.321,3.24,3.32,9.61v16.629h-8.422V141.46a7.577,7.577,0,0,0-1.511-5.156,5.544,5.544,0,0,0-4.373-1.7,6.707,6.707,0,0,0-5.076,1.97q-1.89,1.971-1.889,5.858v14.361h-8.423V127.746h8.045v3.4a11.181,11.181,0,0,1,4.157-2.834,14.478,14.478,0,0,1,5.453-1A11.955,11.955,0,0,1,1383.224,130.554Z" style="fill:#fff"/><path d="M1424.067,116.732v40.061h-8.044v-3.348q-3.132,3.782-9.07,3.78a15.09,15.09,0,0,1-7.424-1.835,13.144,13.144,0,0,1-5.21-5.238,17.383,17.383,0,0,1,0-15.765,13.141,13.141,0,0,1,5.21-5.237,15.09,15.09,0,0,1,7.424-1.836q5.561,0,8.692,3.51V116.732Zm-10.365,31.4a9.2,9.2,0,0,0,0-11.716,7.563,7.563,0,0,0-10.637,0,9.2,9.2,0,0,0,0,11.716,7.563,7.563,0,0,0,10.637,0Z" style="fill:#fff"/><path d="M1455.353,154.931a18.728,18.728,0,0,1-7.343-6.965,20.3,20.3,0,0,1,0-20.139,18.735,18.735,0,0,1,7.343-6.965,21.822,21.822,0,0,1,10.5-2.509,22.044,22.044,0,0,1,8.881,1.727,17.8,17.8,0,0,1,6.668,4.967l-5.616,5.182a12.073,12.073,0,0,0-9.5-4.426,12.606,12.606,0,0,0-6.263,1.539,10.923,10.923,0,0,0-4.292,4.292,13.511,13.511,0,0,0,0,12.525,10.923,10.923,0,0,0,4.292,4.292,12.606,12.606,0,0,0,6.263,1.539,12.01,12.01,0,0,0,9.5-4.481l5.616,5.183a17.5,17.5,0,0,1-6.695,5.021,22.234,22.234,0,0,1-8.908,1.727A21.709,21.709,0,0,1,1455.353,154.931Z" style="fill:#fff"/><path d="M1487.125,122.348a4.573,4.573,0,0,1,0-6.7,5.347,5.347,0,0,1,3.78-1.349,5.471,5.471,0,0,1,3.779,1.3,4.153,4.153,0,0,1,1.458,3.239,4.583,4.583,0,0,1-1.458,3.482,5.28,5.28,0,0,1-3.779,1.377A5.347,5.347,0,0,1,1487.125,122.348Zm-.431,5.4h8.422v29.047h-8.422Z" style="fill:#fff"/><path d="M1521.678,155.39a8.643,8.643,0,0,1-3.05,1.376,15.471,15.471,0,0,1-3.806.459q-5.182,0-8.018-2.646t-2.834-7.774V134.873h-4.481V128.4h4.481v-7.074h8.422V128.4h7.235v6.478h-7.235V146.7a3.962,3.962,0,0,0,.945,2.834,3.5,3.5,0,0,0,2.672,1,5.408,5.408,0,0,0,3.4-1.08Z" style="fill:#fff"/><path d="M1554.72,127.746,1541.6,158.574q-2,5.022-4.94,7.073a12.1,12.1,0,0,1-7.1,2.052,14.737,14.737,0,0,1-4.481-.7,9.909,9.909,0,0,1-3.618-1.943l3.078-5.993a7.249,7.249,0,0,0,2.241,1.349,6.975,6.975,0,0,0,2.51.486,4.462,4.462,0,0,0,2.808-.836,7.12,7.12,0,0,0,1.943-2.781l.109-.27-12.58-29.263h8.692l8.152,19.707,8.207-19.707Z" style="fill:#fff"/></g><g style="isolation:isolate"><path d="M441.14,180.262h8.747v37.793H441.14Z" style="fill:#fff"/><path d="M484.628,191.815q3.321,3.242,3.321,9.611v16.629h-8.423V202.722a7.58,7.58,0,0,0-1.511-5.157,5.547,5.547,0,0,0-4.373-1.7,6.7,6.7,0,0,0-5.076,1.971q-1.89,1.969-1.889,5.857v14.362h-8.423V189.008H466.3v3.4a11.181,11.181,0,0,1,4.157-2.834,14.478,14.478,0,0,1,5.453-1A11.954,11.954,0,0,1,484.628,191.815Z" style="fill:#fff"/><path d="M514.295,216.651a8.6,8.6,0,0,1-3.05,1.376,15.423,15.423,0,0,1-3.806.459q-5.184,0-8.018-2.645t-2.834-7.775V196.135h-4.481v-6.479h4.481v-7.073h8.422v7.073h7.235v6.479h-7.235v11.824a3.962,3.962,0,0,0,.945,2.834,3.5,3.5,0,0,0,2.672,1,5.408,5.408,0,0,0,3.4-1.08Z" style="fill:#fff"/><path d="M546.419,205.907H524.446a6.835,6.835,0,0,0,2.807,4.265,9.288,9.288,0,0,0,5.507,1.566,11.135,11.135,0,0,0,4.023-.675,9.762,9.762,0,0,0,3.266-2.132l4.481,4.858q-4.1,4.7-11.986,4.7a18.952,18.952,0,0,1-8.692-1.916,14.041,14.041,0,0,1-5.831-5.318,14.652,14.652,0,0,1-2.052-7.721,14.841,14.841,0,0,1,2.025-7.693,14.188,14.188,0,0,1,5.561-5.345,17.214,17.214,0,0,1,15.63-.081,13.408,13.408,0,0,1,5.426,5.264,15.706,15.706,0,0,1,1.97,7.964Q546.581,203.8,546.419,205.907Zm-19.706-9.341a6.893,6.893,0,0,0-2.375,4.428h14.307a6.967,6.967,0,0,0-2.376-4.4,7.1,7.1,0,0,0-4.751-1.647A7.257,7.257,0,0,0,526.713,196.566Z" style="fill:#fff"/><path d="M564.317,189.656a15.141,15.141,0,0,1,5.912-1.08v7.775q-1.406-.108-1.89-.108a7.721,7.721,0,0,0-5.669,2.025q-2.052,2.023-2.051,6.073v13.714H552.2V189.008h8.045v3.834A9.359,9.359,0,0,1,564.317,189.656Z" style="fill:#fff"/><path d="M584.7,189.656h7.451v6.479h-7.235v21.92h-8.422v-21.92h-4.481v-6.479h4.481v-1.3a10.593,10.593,0,0,1,2.942-7.882q2.942-2.916,8.288-2.915a15.459,15.459,0,0,1,3.59.4,8.712,8.712,0,0,1,2.834,1.161l-2.213,6.1a5.768,5.768,0,0,0-3.4-1.026q-3.834,0-3.833,4.211Z" style="fill:#fff"/><path d="M617.9,191.789q3.615,3.213,3.617,9.69v16.576h-7.882v-3.617q-2.377,4.049-8.855,4.048a13.756,13.756,0,0,1-5.8-1.133,8.651,8.651,0,0,1-3.752-3.131,8.146,8.146,0,0,1-1.3-4.535,7.57,7.57,0,0,1,3.05-6.372q3.051-2.319,9.422-2.321H613.1a5.37,5.37,0,0,0-1.674-4.238,7.377,7.377,0,0,0-5.021-1.485,14.653,14.653,0,0,0-4.562.729,12.035,12.035,0,0,0-3.806,1.971l-3.024-5.885a18.252,18.252,0,0,1,5.7-2.592,25.548,25.548,0,0,1,6.83-.918Q614.285,188.576,617.9,191.789Zm-7.181,20.03a5.475,5.475,0,0,0,2.376-2.943v-2.969H607.32q-5.184,0-5.183,3.4a3.028,3.028,0,0,0,1.268,2.564,5.716,5.716,0,0,0,3.483.944A7.335,7.335,0,0,0,610.721,211.819Z" style="fill:#fff"/><path d="M635.151,216.57a14.337,14.337,0,0,1-5.777-5.318,15.375,15.375,0,0,1,0-15.441,14.343,14.343,0,0,1,5.777-5.318,17.864,17.864,0,0,1,8.342-1.917,16.173,16.173,0,0,1,8.017,1.917,11.379,11.379,0,0,1,4.994,5.48l-6.533,3.509a7.142,7.142,0,0,0-6.533-4,7.4,7.4,0,0,0-5.453,2.159,9.1,9.1,0,0,0,0,11.77,7.392,7.392,0,0,0,5.453,2.16,7.066,7.066,0,0,0,6.533-4l6.533,3.563a11.6,11.6,0,0,1-4.994,5.4,15.982,15.982,0,0,1-8.017,1.943A17.852,17.852,0,0,1,635.151,216.57Z" style="fill:#fff"/><path d="M689.275,205.907H667.3a6.835,6.835,0,0,0,2.807,4.265,9.288,9.288,0,0,0,5.507,1.566,11.135,11.135,0,0,0,4.023-.675,9.762,9.762,0,0,0,3.266-2.132l4.481,4.858q-4.1,4.7-11.986,4.7a18.952,18.952,0,0,1-8.692-1.916,14.041,14.041,0,0,1-5.831-5.318,14.652,14.652,0,0,1-2.052-7.721,14.841,14.841,0,0,1,2.025-7.693,14.188,14.188,0,0,1,5.561-5.345,17.214,17.214,0,0,1,15.63-.081,13.408,13.408,0,0,1,5.426,5.264,15.706,15.706,0,0,1,1.97,7.964Q689.437,203.8,689.275,205.907Zm-19.706-9.341a6.893,6.893,0,0,0-2.375,4.428H681.5a6.967,6.967,0,0,0-2.376-4.4,7.1,7.1,0,0,0-4.751-1.647A7.257,7.257,0,0,0,669.569,196.566Z" style="fill:#fff"/></g><line x1="436.2" y1="247.7" x2="1597.1" y2="247.7" style="fill:none;stroke:#fff;stroke-miterlimit:10;stroke-width:3px"/><g style="isolation:isolate"><path d="M444.561,311.305H433.969v-3.84h25.554v3.84H448.931V338.36h-4.37Z" style="fill:#fff"/><path d="M483.289,317.33q2.627,2.58,2.626,7.569V338.36h-4.236V325.384a7.182,7.182,0,0,0-1.634-5.12,6.144,6.144,0,0,0-4.678-1.721,7.291,7.291,0,0,0-5.429,2.008,7.852,7.852,0,0,0-1.985,5.76V338.36h-4.238V305.612h4.238v12.666a8.75,8.75,0,0,1,3.464-2.6,11.93,11.93,0,0,1,4.789-.926A9.662,9.662,0,0,1,483.289,317.33Z" style="fill:#fff"/><path d="M514.956,328.077H495.978a7.345,7.345,0,0,0,2.714,4.965,8.862,8.862,0,0,0,5.76,1.875,8.672,8.672,0,0,0,6.752-2.825l2.34,2.737a10.255,10.255,0,0,1-3.95,2.825,14.894,14.894,0,0,1-11.851-.552,10.853,10.853,0,0,1-4.435-4.259,12.206,12.206,0,0,1-1.567-6.179,12.4,12.4,0,0,1,1.523-6.135,10.92,10.92,0,0,1,4.192-4.259,11.947,11.947,0,0,1,6.025-1.522,11.7,11.7,0,0,1,5.98,1.522,10.721,10.721,0,0,1,4.105,4.259,12.986,12.986,0,0,1,1.478,6.267A12.107,12.107,0,0,1,514.956,328.077Zm-16.573-7.9a7.474,7.474,0,0,0-2.4,4.855h15.006a7.528,7.528,0,0,0-2.4-4.833,7.9,7.9,0,0,0-10.2-.022Z" style="fill:#fff"/><path d="M536.6,337.08a11.323,11.323,0,0,1-4.391-4.259,12.723,12.723,0,0,1,0-12.314,11.172,11.172,0,0,1,4.391-4.237,13.147,13.147,0,0,1,6.378-1.522,12.232,12.232,0,0,1,5.671,1.28,9.118,9.118,0,0,1,3.862,3.707l-3.222,2.074a7.207,7.207,0,0,0-2.736-2.516,7.818,7.818,0,0,0-3.619-.838,8.366,8.366,0,0,0-4.127,1.015,7.237,7.237,0,0,0-2.869,2.891,8.751,8.751,0,0,0-1.037,4.3,8.839,8.839,0,0,0,1.037,4.347,7.224,7.224,0,0,0,2.869,2.891,8.356,8.356,0,0,0,4.127,1.015,7.806,7.806,0,0,0,3.619-.838,7.2,7.2,0,0,0,2.736-2.516l3.222,2.03a9.254,9.254,0,0,1-3.862,3.73,12.07,12.07,0,0,1-5.671,1.3A12.993,12.993,0,0,1,536.6,337.08Z" style="fill:#fff"/><path d="M577.253,317.33q2.626,2.58,2.626,7.569V338.36h-4.237V325.384a7.182,7.182,0,0,0-1.633-5.12,6.144,6.144,0,0,0-4.678-1.721,7.29,7.29,0,0,0-5.429,2.008,7.852,7.852,0,0,0-1.986,5.76V338.36h-4.237V305.612h4.237v12.666a8.761,8.761,0,0,1,3.465-2.6,11.93,11.93,0,0,1,4.789-.926A9.662,9.662,0,0,1,577.253,317.33Z" style="fill:#fff"/><path d="M603.69,317.13q2.583,2.384,2.582,7.107V338.36h-4.016v-3.09a6.7,6.7,0,0,1-3.023,2.494,11.555,11.555,0,0,1-4.656.861,9.739,9.739,0,0,1-6.29-1.9,6.524,6.524,0,0,1-.11-9.953q2.251-1.875,7.15-1.875h6.709v-.839a5.4,5.4,0,0,0-1.589-4.193,6.7,6.7,0,0,0-4.679-1.456,12.394,12.394,0,0,0-4.061.684,10.486,10.486,0,0,0-3.354,1.831l-1.765-3.177a12.809,12.809,0,0,1,4.325-2.229,18.1,18.1,0,0,1,5.341-.772Q601.108,314.748,603.69,317.13Zm-4.215,17.147a6.185,6.185,0,0,0,2.561-3.068v-3.265H595.5q-5.385,0-5.384,3.619a3.273,3.273,0,0,0,1.368,2.78,6.247,6.247,0,0,0,3.8,1.016A7.861,7.861,0,0,0,599.475,334.277Z" style="fill:#fff"/><path d="M614.128,305.612h4.237V338.36h-4.237Z" style="fill:#fff"/><path d="M626.441,305.612h4.238V338.36h-4.238Z" style="fill:#fff"/><path d="M659.808,328.077H640.829a7.346,7.346,0,0,0,2.715,4.965,8.857,8.857,0,0,0,5.759,1.875,8.673,8.673,0,0,0,6.753-2.825l2.339,2.737a10.24,10.24,0,0,1-3.95,2.825,14.892,14.892,0,0,1-11.85-.552,10.862,10.862,0,0,1-4.436-4.259,12.206,12.206,0,0,1-1.567-6.179,12.406,12.406,0,0,1,1.523-6.135,10.916,10.916,0,0,1,4.193-4.259,11.943,11.943,0,0,1,6.024-1.522,11.707,11.707,0,0,1,5.981,1.522,10.712,10.712,0,0,1,4.1,4.259A12.975,12.975,0,0,1,659.9,326.8,12.383,12.383,0,0,1,659.808,328.077Zm-16.573-7.9a7.475,7.475,0,0,0-2.406,4.855h15.006a7.524,7.524,0,0,0-2.405-4.833,7.9,7.9,0,0,0-10.195-.022Z" style="fill:#fff"/><path d="M685.34,317.33q2.625,2.58,2.626,7.569V338.36h-4.237V325.384a7.186,7.186,0,0,0-1.633-5.12,6.144,6.144,0,0,0-4.679-1.721,7.287,7.287,0,0,0-5.428,2.008,7.848,7.848,0,0,0-1.986,5.76V338.36h-4.237V314.968h4.06V318.5a8.233,8.233,0,0,1,3.465-2.781,12.124,12.124,0,0,1,4.965-.97A9.664,9.664,0,0,1,685.34,317.33Z" style="fill:#fff"/><path d="M718.331,314.968v20.214q0,6.135-3.045,9.069t-9.092,2.936a21.76,21.76,0,0,1-6.312-.905,12.506,12.506,0,0,1-4.855-2.581l2.031-3.267a11.971,11.971,0,0,0,4.038,2.229,15.32,15.32,0,0,0,4.965.817q4.106,0,6.069-1.942t1.964-5.914V333.77a9.375,9.375,0,0,1-3.685,2.714,12.288,12.288,0,0,1-4.745.905,12.785,12.785,0,0,1-6.068-1.434,10.666,10.666,0,0,1-4.26-4.017,12.007,12.007,0,0,1,0-11.784,10.523,10.523,0,0,1,4.26-3.994,12.939,12.939,0,0,1,6.068-1.412,12.417,12.417,0,0,1,4.921.97,9.146,9.146,0,0,1,3.729,2.869v-3.619Zm-8.055,17.742A7.177,7.177,0,0,0,713.145,330a7.584,7.584,0,0,0,1.037-3.951,7.16,7.16,0,0,0-2.251-5.5,9.082,9.082,0,0,0-11.607,0,7.16,7.16,0,0,0-2.251,5.5A7.575,7.575,0,0,0,699.11,330a7.164,7.164,0,0,0,2.869,2.713,8.755,8.755,0,0,0,4.17.971A8.666,8.666,0,0,0,710.276,332.71Z" style="fill:#fff"/><path d="M747.459,328.077H728.481a7.346,7.346,0,0,0,2.715,4.965,8.857,8.857,0,0,0,5.759,1.875,8.676,8.676,0,0,0,6.753-2.825l2.339,2.737a10.24,10.24,0,0,1-3.95,2.825,14.894,14.894,0,0,1-11.851-.552,10.859,10.859,0,0,1-4.435-4.259,12.206,12.206,0,0,1-1.567-6.179,12.406,12.406,0,0,1,1.523-6.135,10.916,10.916,0,0,1,4.193-4.259,11.943,11.943,0,0,1,6.024-1.522,11.707,11.707,0,0,1,5.981,1.522,10.712,10.712,0,0,1,4.1,4.259,12.975,12.975,0,0,1,1.479,6.267A12.153,12.153,0,0,1,747.459,328.077Zm-16.572-7.9a7.471,7.471,0,0,0-2.406,4.855h15.006a7.528,7.528,0,0,0-2.4-4.833,7.9,7.9,0,0,0-10.2-.022Z" style="fill:#fff"/><path d="M800.687,314.968l-8.739,23.392h-4.06l-6.753-17.742-6.841,17.742h-4.061l-8.695-23.392h4.017l6.8,18.625,7.061-18.625h3.576l6.929,18.713,6.973-18.713Z" style="fill:#fff"/><path d="M805.034,309.671a2.6,2.6,0,0,1-.817-1.941,2.677,2.677,0,0,1,.817-1.964,2.783,2.783,0,0,1,2.052-.816,2.874,2.874,0,0,1,2.052.772,2.531,2.531,0,0,1,.816,1.92,2.726,2.726,0,0,1-.816,2.008,2.782,2.782,0,0,1-2.052.816A2.818,2.818,0,0,1,805.034,309.671Zm-.067,5.3H809.2V338.36h-4.237Z" style="fill:#fff"/><path d="M817.28,305.612h4.237V338.36H817.28Z" style="fill:#fff"/><path d="M829.593,305.612h4.237V338.36h-4.237Z" style="fill:#fff"/><path d="M874.832,328.077H855.854a7.346,7.346,0,0,0,2.715,4.965,8.857,8.857,0,0,0,5.759,1.875,8.672,8.672,0,0,0,6.752-2.825l2.34,2.737a10.248,10.248,0,0,1-3.95,2.825,14.892,14.892,0,0,1-11.85-.552,10.856,10.856,0,0,1-4.436-4.259,12.206,12.206,0,0,1-1.567-6.179,12.4,12.4,0,0,1,1.523-6.135,10.92,10.92,0,0,1,4.192-4.259,11.949,11.949,0,0,1,6.025-1.522,11.7,11.7,0,0,1,5.98,1.522,10.721,10.721,0,0,1,4.105,4.259,12.986,12.986,0,0,1,1.478,6.267A12.107,12.107,0,0,1,874.832,328.077Zm-16.573-7.9a7.474,7.474,0,0,0-2.4,4.855H870.86a7.525,7.525,0,0,0-2.406-4.833,7.9,7.9,0,0,0-10.195-.022Z" style="fill:#fff"/><path d="M900.365,317.33q2.625,2.58,2.626,7.569V338.36h-4.238V325.384a7.191,7.191,0,0,0-1.632-5.12,6.146,6.146,0,0,0-4.679-1.721,7.29,7.29,0,0,0-5.429,2.008,7.852,7.852,0,0,0-1.985,5.76V338.36H880.79V314.968h4.061V318.5a8.233,8.233,0,0,1,3.465-2.781,12.124,12.124,0,0,1,4.965-.97A9.664,9.664,0,0,1,900.365,317.33Z" style="fill:#fff"/><path d="M933.355,314.968v20.214q0,6.135-3.045,9.069t-9.092,2.936a21.748,21.748,0,0,1-6.311-.905,12.5,12.5,0,0,1-4.856-2.581l2.03-3.267a11.981,11.981,0,0,0,4.04,2.229,15.309,15.309,0,0,0,4.964.817q4.105,0,6.069-1.942t1.964-5.914V333.77a9.368,9.368,0,0,1-3.685,2.714,12.288,12.288,0,0,1-4.745.905,12.785,12.785,0,0,1-6.068-1.434,10.657,10.657,0,0,1-4.259-4.017,12.007,12.007,0,0,1,0-11.784,10.514,10.514,0,0,1,4.259-3.994,12.939,12.939,0,0,1,6.068-1.412,12.417,12.417,0,0,1,4.921.97,9.146,9.146,0,0,1,3.729,2.869v-3.619ZM925.3,332.71A7.177,7.177,0,0,0,928.169,330a7.584,7.584,0,0,0,1.037-3.951,7.16,7.16,0,0,0-2.251-5.5,9.082,9.082,0,0,0-11.607,0,7.16,7.16,0,0,0-2.251,5.5A7.584,7.584,0,0,0,914.134,330,7.17,7.17,0,0,0,917,332.71a8.755,8.755,0,0,0,4.17.971A8.663,8.663,0,0,0,925.3,332.71Z" style="fill:#fff"/><path d="M957.386,317.13q2.583,2.384,2.582,7.107V338.36h-4.015v-3.09a6.705,6.705,0,0,1-3.024,2.494,11.551,11.551,0,0,1-4.656.861,9.741,9.741,0,0,1-6.29-1.9,6.523,6.523,0,0,1-.111-9.953q2.252-1.875,7.151-1.875h6.709v-.839a5.4,5.4,0,0,0-1.589-4.193,6.7,6.7,0,0,0-4.679-1.456,12.38,12.38,0,0,0-4.06.684,10.47,10.47,0,0,0-3.355,1.831l-1.765-3.177a12.809,12.809,0,0,1,4.325-2.229,18.1,18.1,0,0,1,5.341-.772Q954.8,314.748,957.386,317.13Zm-4.215,17.147a6.185,6.185,0,0,0,2.561-3.068v-3.265H949.2q-5.387,0-5.385,3.619a3.273,3.273,0,0,0,1.368,2.78,6.247,6.247,0,0,0,3.8,1.016A7.858,7.858,0,0,0,953.171,334.277Z" style="fill:#fff"/><path d="M990.332,314.968v20.214q0,6.135-3.045,9.069t-9.091,2.936a21.755,21.755,0,0,1-6.312-.905,12.5,12.5,0,0,1-4.855-2.581l2.03-3.267a11.985,11.985,0,0,0,4.039,2.229,15.32,15.32,0,0,0,4.965.817q4.1,0,6.068-1.942t1.964-5.914V333.77a9.364,9.364,0,0,1-3.684,2.714,12.293,12.293,0,0,1-4.746.905,12.788,12.788,0,0,1-6.068-1.434,10.663,10.663,0,0,1-4.259-4.017,12.007,12.007,0,0,1,0-11.784,10.52,10.52,0,0,1,4.259-3.994,12.942,12.942,0,0,1,6.068-1.412,12.414,12.414,0,0,1,4.921.97,9.149,9.149,0,0,1,3.73,2.869v-3.619Zm-8.054,17.742A7.19,7.19,0,0,0,985.147,330a7.593,7.593,0,0,0,1.037-3.951,7.16,7.16,0,0,0-2.251-5.5,9.082,9.082,0,0,0-11.607,0,7.16,7.16,0,0,0-2.251,5.5A7.575,7.575,0,0,0,971.112,330a7.158,7.158,0,0,0,2.869,2.713,9.347,9.347,0,0,0,8.3,0Z" style="fill:#fff"/><path d="M1019.461,328.077h-18.978a7.342,7.342,0,0,0,2.715,4.965,8.856,8.856,0,0,0,5.758,1.875,8.673,8.673,0,0,0,6.753-2.825l2.34,2.737a10.248,10.248,0,0,1-3.95,2.825,14.894,14.894,0,0,1-11.851-.552,10.859,10.859,0,0,1-4.435-4.259,12.206,12.206,0,0,1-1.567-6.179,12.4,12.4,0,0,1,1.523-6.135,10.92,10.92,0,0,1,4.192-4.259,11.947,11.947,0,0,1,6.025-1.522,11.7,11.7,0,0,1,5.98,1.522,10.721,10.721,0,0,1,4.105,4.259,12.986,12.986,0,0,1,1.478,6.267A12.107,12.107,0,0,1,1019.461,328.077Zm-16.573-7.9a7.474,7.474,0,0,0-2.405,4.855h15.006a7.525,7.525,0,0,0-2.406-4.833,7.9,7.9,0,0,0-10.195-.022Z" style="fill:#fff"/><path d="M1038.484,337.852a12.1,12.1,0,0,1-4.15-1.964l1.766-3.354a12.648,12.648,0,0,0,3.752,1.765,15.412,15.412,0,0,0,4.457.662q5.562,0,5.562-3.177a2.058,2.058,0,0,0-.75-1.677,4.755,4.755,0,0,0-1.876-.905q-1.125-.286-3.2-.64a31.29,31.29,0,0,1-4.612-1.016,7.1,7.1,0,0,1-3.067-1.941,5.4,5.4,0,0,1-1.28-3.84,6,6,0,0,1,2.648-5.1,11.859,11.859,0,0,1,7.106-1.919,19.6,19.6,0,0,1,4.678.573,12.593,12.593,0,0,1,3.84,1.545l-1.81,3.354a12.172,12.172,0,0,0-6.752-1.853,7.8,7.8,0,0,0-4.105.883,2.661,2.661,0,0,0-1.412,2.338,2.226,2.226,0,0,0,.8,1.81,5,5,0,0,0,1.964.971q1.168.309,3.288.706a35.961,35.961,0,0,1,4.568,1.037,6.835,6.835,0,0,1,2.978,1.876,5.227,5.227,0,0,1,1.237,3.708,5.845,5.845,0,0,1-2.715,5.053,12.817,12.817,0,0,1-7.393,1.876A19.589,19.589,0,0,1,1038.484,337.852Z" style="fill:#fff"/><path d="M1072.556,336.992a6.349,6.349,0,0,1-2.3,1.214,9.6,9.6,0,0,1-2.825.419,7.5,7.5,0,0,1-5.473-1.9,7.244,7.244,0,0,1-1.941-5.429V318.455h-3.973v-3.487h3.973v-5.12h4.236v5.12h6.709v3.487h-6.709v12.667a4.113,4.113,0,0,0,.949,2.913,3.538,3.538,0,0,0,2.715,1.014,5.109,5.109,0,0,0,3.31-1.1Z" style="fill:#fff"/><path d="M1099.478,314.968V338.36h-4.017v-3.531a8.5,8.5,0,0,1-3.376,2.8,10.535,10.535,0,0,1-4.568.994,10.2,10.2,0,0,1-7.37-2.583q-2.692-2.58-2.693-7.613V314.968h4.238v12.976a7.26,7.26,0,0,0,1.633,5.141,6.09,6.09,0,0,0,4.678,1.744,6.978,6.978,0,0,0,5.3-2.031,7.967,7.967,0,0,0,1.942-5.737V314.968Z" style="fill:#fff"/><path d="M1129.621,305.612V338.36h-4.06v-3.707a9.179,9.179,0,0,1-3.574,2.957,11.083,11.083,0,0,1-4.767,1.015,12.3,12.3,0,0,1-6.091-1.5,10.754,10.754,0,0,1-4.215-4.216,13.52,13.52,0,0,1,0-12.468,10.8,10.8,0,0,1,4.215-4.193,12.308,12.308,0,0,1,6.091-1.5,11.2,11.2,0,0,1,4.634.949,9,9,0,0,1,3.531,2.8V305.612Zm-8.032,28.268a7.267,7.267,0,0,0,2.824-2.913,9.62,9.62,0,0,0,0-8.606,7.13,7.13,0,0,0-2.824-2.891,8.5,8.5,0,0,0-8.054,0,7.328,7.328,0,0,0-2.826,2.891,9.446,9.446,0,0,0,0,8.606,7.472,7.472,0,0,0,2.826,2.913,8.338,8.338,0,0,0,8.054,0Z" style="fill:#fff"/><path d="M1158.706,328.077h-18.978a7.346,7.346,0,0,0,2.715,4.965,8.857,8.857,0,0,0,5.759,1.875,8.672,8.672,0,0,0,6.752-2.825l2.34,2.737a10.248,10.248,0,0,1-3.95,2.825,14.892,14.892,0,0,1-11.85-.552,10.856,10.856,0,0,1-4.436-4.259,12.206,12.206,0,0,1-1.567-6.179,12.4,12.4,0,0,1,1.523-6.135,10.92,10.92,0,0,1,4.192-4.259,11.949,11.949,0,0,1,6.025-1.522,11.7,11.7,0,0,1,5.98,1.522,10.721,10.721,0,0,1,4.105,4.259,12.986,12.986,0,0,1,1.478,6.267A12.107,12.107,0,0,1,1158.706,328.077Zm-16.573-7.9a7.474,7.474,0,0,0-2.4,4.855h15.006a7.528,7.528,0,0,0-2.4-4.833,7.9,7.9,0,0,0-10.2-.022Z" style="fill:#fff"/><path d="M1184.239,317.33q2.626,2.58,2.626,7.569V338.36h-4.237V325.384a7.186,7.186,0,0,0-1.633-5.12,6.144,6.144,0,0,0-4.678-1.721,7.29,7.29,0,0,0-5.429,2.008,7.848,7.848,0,0,0-1.986,5.76V338.36h-4.238V314.968h4.061V318.5a8.245,8.245,0,0,1,3.465-2.781,12.129,12.129,0,0,1,4.966-.97A9.664,9.664,0,0,1,1184.239,317.33Z" style="fill:#fff"/><path d="M1207.873,336.992a6.344,6.344,0,0,1-2.294,1.214,9.611,9.611,0,0,1-2.826.419,7.5,7.5,0,0,1-5.472-1.9,7.245,7.245,0,0,1-1.942-5.429V318.455h-3.972v-3.487h3.972v-5.12h4.237v5.12h6.709v3.487h-6.709v12.667a4.108,4.108,0,0,0,.949,2.913,3.537,3.537,0,0,0,2.715,1.014,5.106,5.106,0,0,0,3.309-1.1Z" style="fill:#fff"/><path d="M1214.184,337.852a12.092,12.092,0,0,1-4.148-1.964l1.765-3.354a12.63,12.63,0,0,0,3.751,1.765,15.419,15.419,0,0,0,4.458.662q5.561,0,5.561-3.177a2.058,2.058,0,0,0-.75-1.677,4.748,4.748,0,0,0-1.876-.905q-1.125-.286-3.2-.64a31.248,31.248,0,0,1-4.613-1.016,7.089,7.089,0,0,1-3.067-1.941,5.4,5.4,0,0,1-1.28-3.84,6,6,0,0,1,2.648-5.1,11.86,11.86,0,0,1,7.105-1.919,19.6,19.6,0,0,1,4.679.573,12.6,12.6,0,0,1,3.84,1.545l-1.81,3.354a12.174,12.174,0,0,0-6.752-1.853,7.8,7.8,0,0,0-4.105.883,2.661,2.661,0,0,0-1.412,2.338,2.231,2.231,0,0,0,.794,1.81,5.016,5.016,0,0,0,1.964.971q1.168.309,3.288.706a35.921,35.921,0,0,1,4.568,1.037,6.841,6.841,0,0,1,2.98,1.876,5.231,5.231,0,0,1,1.235,3.708,5.844,5.844,0,0,1-2.714,5.053,12.814,12.814,0,0,1-7.392,1.876A19.6,19.6,0,0,1,1214.184,337.852Z" style="fill:#fff"/><path d="M1262.931,317.13q2.582,2.384,2.582,7.107V338.36H1261.5v-3.09a6.7,6.7,0,0,1-3.023,2.494,11.551,11.551,0,0,1-4.656.861,9.736,9.736,0,0,1-6.289-1.9,6.523,6.523,0,0,1-.111-9.953q2.251-1.875,7.15-1.875h6.709v-.839a5.4,5.4,0,0,0-1.589-4.193,6.7,6.7,0,0,0-4.679-1.456,12.384,12.384,0,0,0-4.06.684,10.465,10.465,0,0,0-3.354,1.831l-1.765-3.177a12.809,12.809,0,0,1,4.325-2.229,18.09,18.09,0,0,1,5.341-.772Q1260.349,314.748,1262.931,317.13Zm-4.215,17.147a6.188,6.188,0,0,0,2.56-3.068v-3.265h-6.532q-5.385,0-5.385,3.619a3.271,3.271,0,0,0,1.369,2.78,6.243,6.243,0,0,0,3.795,1.016A7.864,7.864,0,0,0,1258.716,334.277Z" style="fill:#fff"/><path d="M1292.943,317.33q2.625,2.58,2.626,7.569V338.36h-4.238V325.384a7.186,7.186,0,0,0-1.632-5.12,6.146,6.146,0,0,0-4.679-1.721,7.29,7.29,0,0,0-5.429,2.008,7.852,7.852,0,0,0-1.985,5.76V338.36h-4.237V314.968h4.06V318.5a8.233,8.233,0,0,1,3.465-2.781,12.124,12.124,0,0,1,4.965-.97A9.664,9.664,0,0,1,1292.943,317.33Z" style="fill:#fff"/><path d="M1325.624,305.612V338.36h-4.06v-3.707a9.186,9.186,0,0,1-3.574,2.957,11.083,11.083,0,0,1-4.767,1.015,12.294,12.294,0,0,1-6.091-1.5,10.754,10.754,0,0,1-4.215-4.216,13.52,13.52,0,0,1,0-12.468,10.8,10.8,0,0,1,4.215-4.193,12.305,12.305,0,0,1,6.091-1.5,11.2,11.2,0,0,1,4.634.949,9,9,0,0,1,3.531,2.8V305.612Zm-8.032,28.268a7.267,7.267,0,0,0,2.824-2.913,9.62,9.62,0,0,0,0-8.606,7.13,7.13,0,0,0-2.824-2.891,8.5,8.5,0,0,0-8.055,0,7.332,7.332,0,0,0-2.825,2.891,9.446,9.446,0,0,0,0,8.606,7.477,7.477,0,0,0,2.825,2.913,8.339,8.339,0,0,0,8.055,0Z" style="fill:#fff"/><path d="M1352.856,315.807a11.839,11.839,0,0,1,5.252-1.059v4.1a8.4,8.4,0,0,0-.971-.044,7.13,7.13,0,0,0-5.407,2.052,8.122,8.122,0,0,0-1.964,5.848V338.36h-4.237V314.968h4.06V318.9A7.228,7.228,0,0,1,1352.856,315.807Z" style="fill:#fff"/><path d="M1384.148,328.077h-18.979a7.346,7.346,0,0,0,2.715,4.965,8.857,8.857,0,0,0,5.759,1.875,8.673,8.673,0,0,0,6.753-2.825l2.34,2.737a10.255,10.255,0,0,1-3.95,2.825,14.894,14.894,0,0,1-11.851-.552,10.862,10.862,0,0,1-4.436-4.259,12.206,12.206,0,0,1-1.567-6.179,12.406,12.406,0,0,1,1.523-6.135,10.922,10.922,0,0,1,4.193-4.259,11.943,11.943,0,0,1,6.024-1.522,11.7,11.7,0,0,1,5.981,1.522,10.712,10.712,0,0,1,4.1,4.259,12.975,12.975,0,0,1,1.479,6.267A12.383,12.383,0,0,1,1384.148,328.077Zm-16.573-7.9a7.475,7.475,0,0,0-2.406,4.855h15.006a7.524,7.524,0,0,0-2.4-4.833,7.9,7.9,0,0,0-10.195-.022Z" style="fill:#fff"/><path d="M1391.3,337.852a12.1,12.1,0,0,1-4.148-1.964l1.765-3.354a12.653,12.653,0,0,0,3.751,1.765,15.419,15.419,0,0,0,4.458.662q5.56,0,5.561-3.177a2.058,2.058,0,0,0-.75-1.677,4.748,4.748,0,0,0-1.876-.905q-1.125-.286-3.2-.64a31.248,31.248,0,0,1-4.613-1.016,7.1,7.1,0,0,1-3.067-1.941,5.4,5.4,0,0,1-1.28-3.84,6,6,0,0,1,2.648-5.1,11.861,11.861,0,0,1,7.106-1.919,19.6,19.6,0,0,1,4.678.573,12.6,12.6,0,0,1,3.84,1.545l-1.809,3.354a12.175,12.175,0,0,0-6.753-1.853,7.8,7.8,0,0,0-4.105.883,2.661,2.661,0,0,0-1.412,2.338,2.231,2.231,0,0,0,.794,1.81,5.023,5.023,0,0,0,1.964.971q1.168.309,3.288.706a35.921,35.921,0,0,1,4.568,1.037,6.83,6.83,0,0,1,2.98,1.876,5.231,5.231,0,0,1,1.235,3.708,5.844,5.844,0,0,1-2.714,5.053,12.814,12.814,0,0,1-7.392,1.876A19.608,19.608,0,0,1,1391.3,337.852Z" style="fill:#fff"/><path d="M1433.27,328.077h-18.979a7.346,7.346,0,0,0,2.715,4.965,8.857,8.857,0,0,0,5.759,1.875,8.673,8.673,0,0,0,6.753-2.825l2.34,2.737a10.255,10.255,0,0,1-3.95,2.825,14.894,14.894,0,0,1-11.851-.552,10.862,10.862,0,0,1-4.436-4.259,12.216,12.216,0,0,1-1.567-6.179,12.4,12.4,0,0,1,1.524-6.135,10.913,10.913,0,0,1,4.192-4.259,11.943,11.943,0,0,1,6.024-1.522,11.7,11.7,0,0,1,5.981,1.522,10.712,10.712,0,0,1,4.1,4.259,12.975,12.975,0,0,1,1.479,6.267A12.107,12.107,0,0,1,1433.27,328.077Zm-16.573-7.9a7.48,7.48,0,0,0-2.406,4.855H1429.3a7.524,7.524,0,0,0-2.4-4.833,7.9,7.9,0,0,0-10.2-.022Z" style="fill:#fff"/><path d="M1454.521,317.13q2.583,2.384,2.582,7.107V338.36h-4.016v-3.09a6.708,6.708,0,0,1-3.023,2.494,11.555,11.555,0,0,1-4.656.861,9.739,9.739,0,0,1-6.29-1.9,6.523,6.523,0,0,1-.111-9.953q2.251-1.875,7.151-1.875h6.709v-.839a5.407,5.407,0,0,0-1.589-4.193,6.7,6.7,0,0,0-4.679-1.456,12.39,12.39,0,0,0-4.061.684,10.475,10.475,0,0,0-3.354,1.831l-1.766-3.177a12.814,12.814,0,0,1,4.326-2.229,18.093,18.093,0,0,1,5.34-.772Q1451.94,314.748,1454.521,317.13Zm-4.215,17.147a6.19,6.19,0,0,0,2.561-3.068v-3.265h-6.533q-5.385,0-5.384,3.619a3.273,3.273,0,0,0,1.368,2.78,6.247,6.247,0,0,0,3.8,1.016A7.861,7.861,0,0,0,1450.306,334.277Z" style="fill:#fff"/><path d="M1472.286,315.807a11.837,11.837,0,0,1,5.251-1.059v4.1a8.371,8.371,0,0,0-.97-.044,7.13,7.13,0,0,0-5.407,2.052,8.122,8.122,0,0,0-1.964,5.848V338.36h-4.238V314.968h4.061V318.9A7.223,7.223,0,0,1,1472.286,315.807Z" style="fill:#fff"/><path d="M1486.342,337.08a11.316,11.316,0,0,1-4.391-4.259,12.723,12.723,0,0,1,0-12.314,11.165,11.165,0,0,1,4.391-4.237,13.141,13.141,0,0,1,6.377-1.522,12.236,12.236,0,0,1,5.672,1.28,9.115,9.115,0,0,1,3.861,3.707l-3.221,2.074a7.209,7.209,0,0,0-2.737-2.516,7.818,7.818,0,0,0-3.619-.838,8.36,8.36,0,0,0-4.126,1.015,7.237,7.237,0,0,0-2.869,2.891,8.751,8.751,0,0,0-1.037,4.3,8.839,8.839,0,0,0,1.037,4.347,7.224,7.224,0,0,0,2.869,2.891,8.349,8.349,0,0,0,4.126,1.015,7.806,7.806,0,0,0,3.619-.838,7.2,7.2,0,0,0,2.737-2.516l3.221,2.03a9.251,9.251,0,0,1-3.861,3.73,12.074,12.074,0,0,1-5.672,1.3A12.987,12.987,0,0,1,1486.342,337.08Z" style="fill:#fff"/><path d="M1526.992,317.33q2.625,2.58,2.626,7.569V338.36h-4.238V325.384a7.186,7.186,0,0,0-1.633-5.12,6.142,6.142,0,0,0-4.678-1.721,7.29,7.29,0,0,0-5.429,2.008,7.852,7.852,0,0,0-1.985,5.76V338.36h-4.238V305.612h4.238v12.666a8.75,8.75,0,0,1,3.464-2.6,11.927,11.927,0,0,1,4.789-.926A9.664,9.664,0,0,1,1526.992,317.33Z" style="fill:#fff"/><path d="M1558.658,328.077H1539.68a7.345,7.345,0,0,0,2.714,4.965,8.862,8.862,0,0,0,5.76,1.875,8.676,8.676,0,0,0,6.753-2.825l2.339,2.737a10.244,10.244,0,0,1-3.951,2.825,14.892,14.892,0,0,1-11.85-.552,10.862,10.862,0,0,1-4.436-4.259,12.205,12.205,0,0,1-1.566-6.179,12.416,12.416,0,0,1,1.522-6.135,10.918,10.918,0,0,1,4.194-4.259,11.94,11.94,0,0,1,6.024-1.522,11.706,11.706,0,0,1,5.98,1.522,10.714,10.714,0,0,1,4.105,4.259,12.986,12.986,0,0,1,1.478,6.267A12.383,12.383,0,0,1,1558.658,328.077Zm-16.573-7.9a7.47,7.47,0,0,0-2.4,4.855h15.006a7.528,7.528,0,0,0-2.4-4.833,7.9,7.9,0,0,0-10.2-.022Z" style="fill:#fff"/><path d="M1571.943,315.807a11.839,11.839,0,0,1,5.252-1.059v4.1a8.4,8.4,0,0,0-.971-.044,7.13,7.13,0,0,0-5.407,2.052,8.122,8.122,0,0,0-1.964,5.848V338.36h-4.237V314.968h4.06V318.9A7.228,7.228,0,0,1,1571.943,315.807Z" style="fill:#fff"/><path d="M1583.771,337.852a12.1,12.1,0,0,1-4.149-1.964l1.766-3.354a12.63,12.63,0,0,0,3.751,1.765,15.419,15.419,0,0,0,4.458.662q5.561,0,5.561-3.177a2.058,2.058,0,0,0-.75-1.677,4.748,4.748,0,0,0-1.876-.905q-1.125-.286-3.2-.64a31.261,31.261,0,0,1-4.612-1.016,7.089,7.089,0,0,1-3.067-1.941,5.4,5.4,0,0,1-1.281-3.84,6,6,0,0,1,2.649-5.1,11.86,11.86,0,0,1,7.105-1.919,19.6,19.6,0,0,1,4.679.573,12.6,12.6,0,0,1,3.84,1.545l-1.81,3.354a12.175,12.175,0,0,0-6.753-1.853,7.8,7.8,0,0,0-4.1.883,2.661,2.661,0,0,0-1.412,2.338,2.228,2.228,0,0,0,.794,1.81,5.016,5.016,0,0,0,1.964.971q1.168.309,3.288.706a35.921,35.921,0,0,1,4.568,1.037,6.841,6.841,0,0,1,2.98,1.876,5.231,5.231,0,0,1,1.235,3.708,5.844,5.844,0,0,1-2.714,5.053,12.817,12.817,0,0,1-7.393,1.876A19.6,19.6,0,0,1,1583.771,337.852Z" style="fill:#fff"/></g><g style="isolation:isolate"><path d="M453.763,370.093q2.582,2.383,2.582,7.106v14.123h-4.016v-3.09a6.716,6.716,0,0,1-3.023,2.495,11.557,11.557,0,0,1-4.657.86,9.736,9.736,0,0,1-6.289-1.9,6.523,6.523,0,0,1-.111-9.953q2.251-1.875,7.15-1.875h6.709v-.839a5.4,5.4,0,0,0-1.589-4.193,6.7,6.7,0,0,0-4.678-1.456,12.387,12.387,0,0,0-4.061.685,10.456,10.456,0,0,0-3.354,1.831l-1.765-3.178a12.809,12.809,0,0,1,4.325-2.229,18.128,18.128,0,0,1,5.341-.772Q451.181,367.71,453.763,370.093Zm-4.215,17.146a6.176,6.176,0,0,0,2.56-3.067v-3.266h-6.532q-5.385,0-5.385,3.619a3.273,3.273,0,0,0,1.369,2.781,6.252,6.252,0,0,0,3.8,1.015A7.862,7.862,0,0,0,449.548,387.239Z" style="fill:#fff"/><path d="M483.775,370.292q2.625,2.582,2.626,7.569v13.461h-4.237V378.347a7.183,7.183,0,0,0-1.633-5.12,6.141,6.141,0,0,0-4.679-1.721,7.289,7.289,0,0,0-5.428,2.008,7.845,7.845,0,0,0-1.986,5.759v12.049H464.2V367.931h4.06v3.53a8.231,8.231,0,0,1,3.465-2.78,12.111,12.111,0,0,1,4.965-.971A9.664,9.664,0,0,1,483.775,370.292Z" style="fill:#fff"/><path d="M516.456,358.574v32.748H512.4v-3.707a9.174,9.174,0,0,1-3.575,2.957,11.075,11.075,0,0,1-4.766,1.015,12.294,12.294,0,0,1-6.091-1.5,10.748,10.748,0,0,1-4.215-4.216,13.52,13.52,0,0,1,0-12.468,10.8,10.8,0,0,1,4.215-4.193,12.305,12.305,0,0,1,6.091-1.5,11.205,11.205,0,0,1,4.634.949,9.019,9.019,0,0,1,3.531,2.8V358.574Zm-8.032,28.269a7.28,7.28,0,0,0,2.824-2.913,9.622,9.622,0,0,0,0-8.607,7.127,7.127,0,0,0-2.824-2.89,8.491,8.491,0,0,0-8.055,0,7.316,7.316,0,0,0-2.825,2.89,9.448,9.448,0,0,0,0,8.607,7.476,7.476,0,0,0,2.825,2.913,8.339,8.339,0,0,0,8.055,0Z" style="fill:#fff"/><path d="M572.619,370.27q2.582,2.56,2.582,7.591v13.461h-4.237V378.347a7.38,7.38,0,0,0-1.567-5.12,5.749,5.749,0,0,0-4.48-1.721,6.708,6.708,0,0,0-5.12,2.008,8.068,8.068,0,0,0-1.9,5.759v12.049h-4.237V378.347a7.38,7.38,0,0,0-1.566-5.12,5.749,5.749,0,0,0-4.48-1.721,6.708,6.708,0,0,0-5.12,2.008,8.068,8.068,0,0,0-1.9,5.759v12.049h-4.238V367.931h4.061v3.486a8.212,8.212,0,0,1,3.354-2.758,11.226,11.226,0,0,1,4.722-.949,10.362,10.362,0,0,1,4.855,1.1,7.676,7.676,0,0,1,3.267,3.222,8.962,8.962,0,0,1,3.685-3.178,12.023,12.023,0,0,1,5.318-1.147A9.5,9.5,0,0,1,572.619,370.27Z" style="fill:#fff"/><path d="M604.2,381.039H585.219A7.338,7.338,0,0,0,587.933,386a8.852,8.852,0,0,0,5.759,1.876,8.676,8.676,0,0,0,6.753-2.825l2.34,2.736a10.241,10.241,0,0,1-3.951,2.825,14.892,14.892,0,0,1-11.85-.552,10.853,10.853,0,0,1-4.436-4.258,12.209,12.209,0,0,1-1.567-6.18,12.406,12.406,0,0,1,1.523-6.135,10.916,10.916,0,0,1,4.193-4.259,11.954,11.954,0,0,1,6.025-1.522,11.716,11.716,0,0,1,5.98,1.522,10.721,10.721,0,0,1,4.105,4.259,12.987,12.987,0,0,1,1.478,6.268A12.367,12.367,0,0,1,604.2,381.039Zm-16.573-7.9a7.47,7.47,0,0,0-2.4,4.854h15.006a7.529,7.529,0,0,0-2.406-4.833,7.9,7.9,0,0,0-10.195-.021Z" style="fill:#fff"/><path d="M629.729,370.292q2.625,2.582,2.626,7.569v13.461h-4.237V378.347a7.183,7.183,0,0,0-1.633-5.12,6.14,6.14,0,0,0-4.678-1.721,7.29,7.29,0,0,0-5.429,2.008,7.845,7.845,0,0,0-1.986,5.759v12.049h-4.237V367.931h4.06v3.53a8.237,8.237,0,0,1,3.465-2.78,12.111,12.111,0,0,1,4.965-.971A9.663,9.663,0,0,1,629.729,370.292Z" style="fill:#fff"/><path d="M653.363,389.954a6.317,6.317,0,0,1-2.3,1.214,9.6,9.6,0,0,1-2.824.419,7.5,7.5,0,0,1-5.473-1.9,7.243,7.243,0,0,1-1.942-5.428V371.417h-3.972v-3.486h3.972v-5.12h4.237v5.12h6.708v3.486h-6.708v12.667a4.107,4.107,0,0,0,.949,2.913,3.531,3.531,0,0,0,2.714,1.015,5.1,5.1,0,0,0,3.31-1.1Z" style="fill:#fff"/><path d="M661.44,390.042a11.187,11.187,0,0,1-4.347-4.259,12.877,12.877,0,0,1,0-12.313,11.047,11.047,0,0,1,4.347-4.238,13.62,13.62,0,0,1,12.513,0,11.1,11.1,0,0,1,4.325,4.238,12.877,12.877,0,0,1,0,12.313,11.244,11.244,0,0,1-4.325,4.259,13.44,13.44,0,0,1-12.513,0Zm10.306-3.2a7.326,7.326,0,0,0,2.8-2.913,9.631,9.631,0,0,0,0-8.607,7.171,7.171,0,0,0-2.8-2.89,8.534,8.534,0,0,0-8.077,0,7.31,7.31,0,0,0-2.825,2.89,9.448,9.448,0,0,0,0,8.607,7.47,7.47,0,0,0,2.825,2.913,8.382,8.382,0,0,0,8.077,0Z" style="fill:#fff"/><path d="M693.041,368.77a11.838,11.838,0,0,1,5.252-1.06v4.1a8.418,8.418,0,0,0-.971-.043,7.131,7.131,0,0,0-5.407,2.051,8.129,8.129,0,0,0-1.963,5.849v11.651h-4.238V367.931h4.061v3.927A7.229,7.229,0,0,1,693.041,368.77Z" style="fill:#fff"/><path d="M703.567,362.634a2.6,2.6,0,0,1-.817-1.942,2.674,2.674,0,0,1,.817-1.963,2.783,2.783,0,0,1,2.052-.817,2.871,2.871,0,0,1,2.052.773,2.53,2.53,0,0,1,.817,1.919,2.727,2.727,0,0,1-.817,2.008,2.783,2.783,0,0,1-2.052.817A2.822,2.822,0,0,1,703.567,362.634Zm-.067,5.3h4.238v23.391H703.5Z" style="fill:#fff"/><path d="M735.388,370.292q2.626,2.582,2.626,7.569v13.461h-4.237V378.347a7.183,7.183,0,0,0-1.633-5.12,6.14,6.14,0,0,0-4.678-1.721,7.29,7.29,0,0,0-5.429,2.008,7.845,7.845,0,0,0-1.986,5.759v12.049h-4.237V367.931h4.06v3.53a8.237,8.237,0,0,1,3.465-2.78,12.116,12.116,0,0,1,4.966-.971A9.662,9.662,0,0,1,735.388,370.292Z" style="fill:#fff"/><path d="M768.379,367.931v20.214q0,6.134-3.045,9.069t-9.092,2.935a21.714,21.714,0,0,1-6.311-.9,12.479,12.479,0,0,1-4.855-2.581l2.03-3.267a11.954,11.954,0,0,0,4.038,2.229,15.326,15.326,0,0,0,4.966.817q4.1,0,6.068-1.942t1.964-5.914v-1.854a9.358,9.358,0,0,1-3.685,2.714,12.269,12.269,0,0,1-4.745.906,12.788,12.788,0,0,1-6.068-1.435,10.657,10.657,0,0,1-4.259-4.017,12.007,12.007,0,0,1,0-11.784,10.521,10.521,0,0,1,4.259-3.994,12.954,12.954,0,0,1,6.068-1.412,12.4,12.4,0,0,1,4.921.971,9.138,9.138,0,0,1,3.73,2.869v-3.619Zm-8.054,17.742a7.19,7.19,0,0,0,2.868-2.714,7.58,7.58,0,0,0,1.037-3.95,7.157,7.157,0,0,0-2.251-5.5,9.079,9.079,0,0,0-11.607,0,7.157,7.157,0,0,0-2.251,5.5,7.58,7.58,0,0,0,1.037,3.95,7.18,7.18,0,0,0,2.869,2.714,9.349,9.349,0,0,0,8.3,0Z" style="fill:#fff"/><path d="M806.821,369.21a10.815,10.815,0,0,1,4.215,4.193,13.528,13.528,0,0,1,0,12.468,10.761,10.761,0,0,1-4.215,4.216,12.305,12.305,0,0,1-6.091,1.5,11.076,11.076,0,0,1-4.767-1.015,9.16,9.16,0,0,1-3.575-2.957v3.707h-4.06V358.574h4.237v12.887a9,9,0,0,1,3.531-2.8,11.2,11.2,0,0,1,4.634-.949A12.316,12.316,0,0,1,806.821,369.21Zm-2.406,17.633a7.476,7.476,0,0,0,2.825-2.913,9.448,9.448,0,0,0,0-8.607,7.316,7.316,0,0,0-2.825-2.89,8.491,8.491,0,0,0-8.055,0,7.121,7.121,0,0,0-2.824,2.89,9.622,9.622,0,0,0,0,8.607,7.273,7.273,0,0,0,2.824,2.913,8.339,8.339,0,0,0,8.055,0Z" style="fill:#fff"/><path d="M838.465,367.931l-11.343,25.73a11.612,11.612,0,0,1-3.508,5.032,8.014,8.014,0,0,1-4.833,1.456,10.227,10.227,0,0,1-3.332-.551,6.848,6.848,0,0,1-2.671-1.612l1.809-3.177a5.9,5.9,0,0,0,4.194,1.721,4.05,4.05,0,0,0,2.582-.816,7,7,0,0,0,1.876-2.8l.75-1.633-10.328-23.347h4.414l8.165,18.713,8.076-18.713Z" style="fill:#fff"/><path d="M858.126,390.042a11.309,11.309,0,0,1-4.391-4.259,12.721,12.721,0,0,1,0-12.313,11.168,11.168,0,0,1,4.391-4.238,13.159,13.159,0,0,1,6.378-1.522,12.244,12.244,0,0,1,5.671,1.28,9.124,9.124,0,0,1,3.862,3.707l-3.221,2.074a7.213,7.213,0,0,0-2.737-2.515,7.8,7.8,0,0,0-3.619-.839,8.367,8.367,0,0,0-4.127,1.016,7.234,7.234,0,0,0-2.869,2.89,8.754,8.754,0,0,0-1.037,4.3,8.843,8.843,0,0,0,1.037,4.348,7.228,7.228,0,0,0,2.869,2.89,8.356,8.356,0,0,0,4.127,1.016,7.788,7.788,0,0,0,3.619-.839,7.208,7.208,0,0,0,2.737-2.516l3.221,2.031a9.252,9.252,0,0,1-3.862,3.729,12.07,12.07,0,0,1-5.671,1.3A12.993,12.993,0,0,1,858.126,390.042Z" style="fill:#fff"/><path d="M879.577,362.634a2.6,2.6,0,0,1-.817-1.942,2.674,2.674,0,0,1,.817-1.963,2.781,2.781,0,0,1,2.051-.817,2.871,2.871,0,0,1,2.053.773,2.533,2.533,0,0,1,.816,1.919,2.73,2.73,0,0,1-.816,2.008,2.783,2.783,0,0,1-2.053.817A2.819,2.819,0,0,1,879.577,362.634Zm-.067,5.3h4.237v23.391H879.51Z" style="fill:#fff"/><path d="M904.976,389.954a6.333,6.333,0,0,1-2.295,1.214,9.6,9.6,0,0,1-2.825.419,7.5,7.5,0,0,1-5.473-1.9,7.242,7.242,0,0,1-1.941-5.428V371.417h-3.973v-3.486h3.973v-5.12h4.236v5.12h6.709v3.486h-6.709v12.667a4.111,4.111,0,0,0,.949,2.913,3.534,3.534,0,0,0,2.715,1.015,5.1,5.1,0,0,0,3.31-1.1Z" style="fill:#fff"/><path d="M910.162,362.634a2.6,2.6,0,0,1-.817-1.942,2.674,2.674,0,0,1,.817-1.963,2.779,2.779,0,0,1,2.051-.817,2.871,2.871,0,0,1,2.053.773,2.533,2.533,0,0,1,.816,1.919,2.73,2.73,0,0,1-.816,2.008,2.783,2.783,0,0,1-2.053.817A2.818,2.818,0,0,1,910.162,362.634Zm-.067,5.3h4.237v23.391H910.1Z" style="fill:#fff"/><path d="M943.461,381.039H924.483A7.34,7.34,0,0,0,927.2,386a8.851,8.851,0,0,0,5.758,1.876,8.676,8.676,0,0,0,6.753-2.825l2.34,2.736a10.237,10.237,0,0,1-3.95,2.825,14.894,14.894,0,0,1-11.851-.552,10.851,10.851,0,0,1-4.435-4.258,12.209,12.209,0,0,1-1.567-6.18,12.4,12.4,0,0,1,1.523-6.135,10.92,10.92,0,0,1,4.192-4.259,11.957,11.957,0,0,1,6.025-1.522,11.713,11.713,0,0,1,5.98,1.522,10.721,10.721,0,0,1,4.105,4.259,12.987,12.987,0,0,1,1.478,6.268A12.091,12.091,0,0,1,943.461,381.039Zm-16.573-7.9a7.47,7.47,0,0,0-2.405,4.854h15.006a7.525,7.525,0,0,0-2.406-4.833,7.9,7.9,0,0,0-10.195-.021Z" style="fill:#fff"/><path d="M950.611,390.814a12.08,12.08,0,0,1-4.149-1.963l1.766-3.355a12.655,12.655,0,0,0,3.751,1.766,15.453,15.453,0,0,0,4.458.662q5.56,0,5.56-3.178a2.058,2.058,0,0,0-.75-1.677,4.748,4.748,0,0,0-1.876-.905q-1.125-.285-3.2-.64a31.217,31.217,0,0,1-4.612-1.015,7.1,7.1,0,0,1-3.067-1.942,5.4,5.4,0,0,1-1.281-3.839,5.994,5.994,0,0,1,2.649-5.1,11.858,11.858,0,0,1,7.105-1.92,19.605,19.605,0,0,1,4.679.573,12.64,12.64,0,0,1,3.84,1.545l-1.81,3.355a12.168,12.168,0,0,0-6.753-1.854,7.8,7.8,0,0,0-4.1.883,2.661,2.661,0,0,0-1.412,2.339,2.227,2.227,0,0,0,.794,1.809,5,5,0,0,0,1.963.971q1.17.309,3.289.706a35.961,35.961,0,0,1,4.568,1.037A6.832,6.832,0,0,1,965,380.95a5.227,5.227,0,0,1,1.236,3.708,5.846,5.846,0,0,1-2.714,5.053,12.819,12.819,0,0,1-7.393,1.876A19.6,19.6,0,0,1,950.611,390.814Z" style="fill:#fff"/><path d="M999.358,370.093q2.582,2.383,2.582,7.106v14.123h-4.016v-3.09a6.716,6.716,0,0,1-3.023,2.495,11.559,11.559,0,0,1-4.656.86,9.744,9.744,0,0,1-6.291-1.9,6.086,6.086,0,0,1-2.361-4.987,6.147,6.147,0,0,1,2.251-4.966q2.251-1.875,7.151-1.875H997.7v-.839a5.409,5.409,0,0,0-1.589-4.193,6.7,6.7,0,0,0-4.679-1.456,12.391,12.391,0,0,0-4.061.685,10.456,10.456,0,0,0-3.354,1.831l-1.766-3.178a12.818,12.818,0,0,1,4.325-2.229,18.132,18.132,0,0,1,5.341-.772Q996.777,367.71,999.358,370.093Zm-4.215,17.146a6.188,6.188,0,0,0,2.561-3.067v-3.266h-6.533q-5.387,0-5.384,3.619a3.275,3.275,0,0,0,1.368,2.781,6.251,6.251,0,0,0,3.8,1.015A7.861,7.861,0,0,0,995.143,387.239Z" style="fill:#fff"/><path d="M1029.37,370.292q2.627,2.582,2.626,7.569v13.461h-4.237V378.347a7.179,7.179,0,0,0-1.634-5.12,6.136,6.136,0,0,0-4.677-1.721,7.29,7.29,0,0,0-5.429,2.008,7.845,7.845,0,0,0-1.986,5.759v12.049H1009.8V367.931h4.061v3.53a8.237,8.237,0,0,1,3.465-2.78,12.113,12.113,0,0,1,4.966-.971A9.664,9.664,0,0,1,1029.37,370.292Z" style="fill:#fff"/><path d="M1062.051,358.574v32.748h-4.06v-3.707a9.174,9.174,0,0,1-3.575,2.957,11.075,11.075,0,0,1-4.766,1.015,12.294,12.294,0,0,1-6.091-1.5,10.748,10.748,0,0,1-4.215-4.216,13.52,13.52,0,0,1,0-12.468,10.8,10.8,0,0,1,4.215-4.193,12.305,12.305,0,0,1,6.091-1.5,11.2,11.2,0,0,1,4.634.949,9.019,9.019,0,0,1,3.531,2.8V358.574Zm-8.032,28.269a7.28,7.28,0,0,0,2.824-2.913,9.622,9.622,0,0,0,0-8.607,7.127,7.127,0,0,0-2.824-2.89,8.491,8.491,0,0,0-8.055,0,7.316,7.316,0,0,0-2.825,2.89,9.448,9.448,0,0,0,0,8.607,7.476,7.476,0,0,0,2.825,2.913,8.339,8.339,0,0,0,8.055,0Z" style="fill:#fff"/><path d="M1082.022,362.634a2.6,2.6,0,0,1-.817-1.942,2.674,2.674,0,0,1,.817-1.963,2.784,2.784,0,0,1,2.053-.817,2.868,2.868,0,0,1,2.051.773,2.53,2.53,0,0,1,.817,1.919,2.727,2.727,0,0,1-.817,2.008,2.78,2.78,0,0,1-2.051.817A2.822,2.822,0,0,1,1082.022,362.634Zm-.067,5.3h4.238v23.391h-4.238Z" style="fill:#fff"/><path d="M1113.843,370.292q2.627,2.582,2.626,7.569v13.461h-4.236V378.347a7.179,7.179,0,0,0-1.634-5.12,6.138,6.138,0,0,0-4.678-1.721,7.287,7.287,0,0,0-5.428,2.008,7.842,7.842,0,0,0-1.987,5.759v12.049h-4.237V367.931h4.06v3.53a8.243,8.243,0,0,1,3.465-2.78,12.116,12.116,0,0,1,4.966-.971A9.662,9.662,0,0,1,1113.843,370.292Z" style="fill:#fff"/><path d="M1146.526,358.574v32.748h-4.061v-3.707a9.174,9.174,0,0,1-3.575,2.957,11.07,11.07,0,0,1-4.767,1.015,12.3,12.3,0,0,1-6.09-1.5,10.748,10.748,0,0,1-4.215-4.216,13.52,13.52,0,0,1,0-12.468,10.8,10.8,0,0,1,4.215-4.193,12.309,12.309,0,0,1,6.09-1.5,11.207,11.207,0,0,1,4.635.949,9.009,9.009,0,0,1,3.53,2.8V358.574Zm-8.033,28.269a7.289,7.289,0,0,0,2.825-2.913,9.639,9.639,0,0,0,0-8.607,7.136,7.136,0,0,0-2.825-2.89,8.491,8.491,0,0,0-8.055,0,7.3,7.3,0,0,0-2.824,2.89,9.448,9.448,0,0,0,0,8.607,7.46,7.46,0,0,0,2.824,2.913,8.339,8.339,0,0,0,8.055,0Z" style="fill:#fff"/><path d="M1176.361,367.931v23.391h-4.017v-3.531a8.512,8.512,0,0,1-3.376,2.8,10.538,10.538,0,0,1-4.568.993,10.2,10.2,0,0,1-7.371-2.582q-2.693-2.582-2.693-7.613V367.931h4.238v12.975a7.265,7.265,0,0,0,1.632,5.142,6.1,6.1,0,0,0,4.679,1.743,6.981,6.981,0,0,0,5.3-2.03,7.967,7.967,0,0,0,1.942-5.738V367.931Z" style="fill:#fff"/><path d="M1185.628,390.814a12.083,12.083,0,0,1-4.148-1.963l1.766-3.355a12.661,12.661,0,0,0,3.75,1.766,15.458,15.458,0,0,0,4.458.662q5.562,0,5.561-3.178a2.058,2.058,0,0,0-.75-1.677,4.748,4.748,0,0,0-1.876-.905q-1.125-.285-3.2-.64a31.217,31.217,0,0,1-4.612-1.015,7.1,7.1,0,0,1-3.068-1.942,5.4,5.4,0,0,1-1.28-3.839,6,6,0,0,1,2.648-5.1,11.861,11.861,0,0,1,7.106-1.92,19.6,19.6,0,0,1,4.678.573,12.629,12.629,0,0,1,3.84,1.545l-1.809,3.355a12.168,12.168,0,0,0-6.753-1.854,7.8,7.8,0,0,0-4.105.883,2.663,2.663,0,0,0-1.412,2.339,2.23,2.23,0,0,0,.794,1.809,5.009,5.009,0,0,0,1.964.971q1.168.309,3.288.706a35.921,35.921,0,0,1,4.568,1.037,6.83,6.83,0,0,1,2.98,1.876,5.231,5.231,0,0,1,1.235,3.708,5.844,5.844,0,0,1-2.714,5.053,12.814,12.814,0,0,1-7.392,1.876A19.608,19.608,0,0,1,1185.628,390.814Z" style="fill:#fff"/><path d="M1219.7,389.954a6.342,6.342,0,0,1-2.3,1.214,9.606,9.606,0,0,1-2.826.419,7.5,7.5,0,0,1-5.472-1.9,7.243,7.243,0,0,1-1.942-5.428V371.417h-3.972v-3.486h3.972v-5.12h4.237v5.12h6.709v3.486H1211.4v12.667a4.107,4.107,0,0,0,.949,2.913,3.534,3.534,0,0,0,2.715,1.015,5.1,5.1,0,0,0,3.309-1.1Z" style="fill:#fff"/><path d="M1232.146,368.77a11.838,11.838,0,0,1,5.252-1.06v4.1a8.418,8.418,0,0,0-.971-.043,7.126,7.126,0,0,0-5.406,2.051,8.125,8.125,0,0,0-1.964,5.849v11.651h-4.237V367.931h4.06v3.927A7.234,7.234,0,0,1,1232.146,368.77Z" style="fill:#fff"/><path d="M1264.276,367.931l-11.343,25.73a11.6,11.6,0,0,1-3.509,5.032,8.01,8.01,0,0,1-4.833,1.456,10.236,10.236,0,0,1-3.332-.551,6.844,6.844,0,0,1-2.67-1.612l1.81-3.177a5.9,5.9,0,0,0,4.192,1.721,4.046,4.046,0,0,0,2.582-.816,6.965,6.965,0,0,0,1.876-2.8l.75-1.633-10.327-23.347h4.413l8.165,18.713,8.077-18.713Z" style="fill:#fff"/><path d="M1293.273,389.954a6.333,6.333,0,0,1-2.295,1.214,9.6,9.6,0,0,1-2.825.419,7.5,7.5,0,0,1-5.473-1.9,7.242,7.242,0,0,1-1.941-5.428V371.417h-3.973v-3.486h3.973v-5.12h4.236v5.12h6.709v3.486h-6.709v12.667a4.107,4.107,0,0,0,.949,2.913,3.534,3.534,0,0,0,2.715,1.015,5.1,5.1,0,0,0,3.31-1.1Z" style="fill:#fff"/><path d="M1301.349,390.042a11.2,11.2,0,0,1-4.348-4.259,12.885,12.885,0,0,1,0-12.313,11.056,11.056,0,0,1,4.348-4.238,13.62,13.62,0,0,1,12.513,0,11.1,11.1,0,0,1,4.325,4.238,12.885,12.885,0,0,1,0,12.313,11.244,11.244,0,0,1-4.325,4.259,13.44,13.44,0,0,1-12.513,0Zm10.306-3.2a7.326,7.326,0,0,0,2.8-2.913,9.631,9.631,0,0,0,0-8.607,7.171,7.171,0,0,0-2.8-2.89,8.534,8.534,0,0,0-8.077,0,7.31,7.31,0,0,0-2.825,2.89,9.448,9.448,0,0,0,0,8.607,7.47,7.47,0,0,0,2.825,2.913,8.382,8.382,0,0,0,8.077,0Z" style="fill:#fff"/><path d="M1350.648,389.954a6.333,6.333,0,0,1-2.295,1.214,9.6,9.6,0,0,1-2.825.419,7.5,7.5,0,0,1-5.473-1.9,7.242,7.242,0,0,1-1.941-5.428V371.417h-3.973v-3.486h3.973v-5.12h4.236v5.12h6.709v3.486h-6.709v12.667A4.107,4.107,0,0,0,1343.3,387a3.534,3.534,0,0,0,2.715,1.015,5.1,5.1,0,0,0,3.31-1.1Z" style="fill:#fff"/><path d="M1363.093,368.77a11.844,11.844,0,0,1,5.252-1.06v4.1a8.4,8.4,0,0,0-.971-.043,7.127,7.127,0,0,0-5.406,2.051,8.129,8.129,0,0,0-1.964,5.849v11.651h-4.237V367.931h4.061v3.927A7.231,7.231,0,0,1,1363.093,368.77Z" style="fill:#fff"/><path d="M1389.464,370.093q2.582,2.383,2.582,7.106v14.123h-4.016v-3.09a6.708,6.708,0,0,1-3.024,2.495,11.548,11.548,0,0,1-4.656.86,9.736,9.736,0,0,1-6.289-1.9,6.524,6.524,0,0,1-.11-9.953q2.251-1.875,7.149-1.875h6.709v-.839a5.4,5.4,0,0,0-1.589-4.193,6.7,6.7,0,0,0-4.679-1.456,12.39,12.39,0,0,0-4.06.685,10.456,10.456,0,0,0-3.354,1.831l-1.765-3.178a12.809,12.809,0,0,1,4.325-2.229,18.128,18.128,0,0,1,5.341-.772Q1386.882,367.71,1389.464,370.093Zm-4.215,17.146a6.181,6.181,0,0,0,2.56-3.067v-3.266h-6.532q-5.385,0-5.385,3.619a3.273,3.273,0,0,0,1.369,2.781,6.25,6.25,0,0,0,3.8,1.015A7.862,7.862,0,0,0,1385.249,387.239Z" style="fill:#fff"/><path d="M1419.476,370.292q2.625,2.582,2.626,7.569v13.461h-4.237V378.347a7.183,7.183,0,0,0-1.633-5.12,6.142,6.142,0,0,0-4.679-1.721,7.291,7.291,0,0,0-5.429,2.008,7.849,7.849,0,0,0-1.985,5.759v12.049H1399.9V367.931h4.06v3.53a8.231,8.231,0,0,1,3.465-2.78,12.108,12.108,0,0,1,4.965-.971A9.663,9.663,0,0,1,1419.476,370.292Z" style="fill:#fff"/><path d="M1431.15,390.814a12.086,12.086,0,0,1-4.15-1.963l1.766-3.355a12.674,12.674,0,0,0,3.752,1.766,15.447,15.447,0,0,0,4.457.662q5.562,0,5.562-3.178a2.058,2.058,0,0,0-.75-1.677,4.755,4.755,0,0,0-1.876-.905q-1.125-.285-3.2-.64a31.305,31.305,0,0,1-4.612-1.015,7.106,7.106,0,0,1-3.067-1.942,5.4,5.4,0,0,1-1.28-3.839,6,6,0,0,1,2.648-5.1,11.859,11.859,0,0,1,7.106-1.92,19.6,19.6,0,0,1,4.678.573,12.619,12.619,0,0,1,3.84,1.545l-1.81,3.355a12.164,12.164,0,0,0-6.752-1.854,7.8,7.8,0,0,0-4.105.883,2.663,2.663,0,0,0-1.412,2.339,2.225,2.225,0,0,0,.8,1.809,4.989,4.989,0,0,0,1.964.971q1.168.309,3.288.706a35.961,35.961,0,0,1,4.568,1.037,6.835,6.835,0,0,1,2.978,1.876,5.227,5.227,0,0,1,1.237,3.708,5.845,5.845,0,0,1-2.715,5.053,12.817,12.817,0,0,1-7.393,1.876A19.589,19.589,0,0,1,1431.15,390.814Z" style="fill:#fff"/><path d="M1456.836,365.9v2.031h6.8v3.486h-6.709v19.905h-4.236V371.417h-3.973v-3.486h3.973v-2.075a7.454,7.454,0,0,1,2.03-5.517,7.7,7.7,0,0,1,5.694-2.03,9.605,9.605,0,0,1,2.647.353,6.429,6.429,0,0,1,2.119,1.015l-1.28,3.222a5.279,5.279,0,0,0-3.266-1.1Q1456.836,361.8,1456.836,365.9Z" style="fill:#fff"/><path d="M1471.048,390.042a11.187,11.187,0,0,1-4.347-4.259,12.87,12.87,0,0,1,0-12.313,11.047,11.047,0,0,1,4.347-4.238,13.618,13.618,0,0,1,12.512,0,11.1,11.1,0,0,1,4.325,4.238,12.87,12.87,0,0,1,0,12.313,11.238,11.238,0,0,1-4.325,4.259,13.438,13.438,0,0,1-12.512,0Zm10.305-3.2a7.322,7.322,0,0,0,2.8-2.913,9.631,9.631,0,0,0,0-8.607,7.167,7.167,0,0,0-2.8-2.89,8.532,8.532,0,0,0-8.076,0,7.31,7.31,0,0,0-2.825,2.89,9.44,9.44,0,0,0,0,8.607,7.47,7.47,0,0,0,2.825,2.913,8.38,8.38,0,0,0,8.076,0Z" style="fill:#fff"/><path d="M1502.649,368.77a11.838,11.838,0,0,1,5.252-1.06v4.1a8.442,8.442,0,0,0-.971-.043,7.129,7.129,0,0,0-5.407,2.051,8.125,8.125,0,0,0-1.964,5.849v11.651h-4.237V367.931h4.06v3.927A7.231,7.231,0,0,1,1502.649,368.77Z" style="fill:#fff"/><path d="M1549.366,370.27q2.582,2.56,2.582,7.591v13.461h-4.237V378.347a7.38,7.38,0,0,0-1.567-5.12,5.749,5.749,0,0,0-4.48-1.721,6.708,6.708,0,0,0-5.12,2.008,8.073,8.073,0,0,0-1.9,5.759v12.049h-4.237V378.347a7.38,7.38,0,0,0-1.567-5.12,5.748,5.748,0,0,0-4.479-1.721,6.705,6.705,0,0,0-5.12,2.008,8.064,8.064,0,0,0-1.9,5.759v12.049h-4.237V367.931h4.06v3.486a8.208,8.208,0,0,1,3.355-2.758,11.226,11.226,0,0,1,4.722-.949,10.364,10.364,0,0,1,4.855,1.1,7.68,7.68,0,0,1,3.266,3.222,8.969,8.969,0,0,1,3.685-3.178,12.024,12.024,0,0,1,5.319-1.147A9.5,9.5,0,0,1,1549.366,370.27Z" style="fill:#fff"/></g><g style="isolation:isolate"><path d="M441.626,443a11.316,11.316,0,0,1-4.392-4.258,12.723,12.723,0,0,1,0-12.314,11.168,11.168,0,0,1,4.392-4.237A13.141,13.141,0,0,1,448,420.672a12.236,12.236,0,0,1,5.672,1.281,9.123,9.123,0,0,1,3.862,3.707l-3.222,2.074a7.214,7.214,0,0,0-2.736-2.516,7.82,7.82,0,0,0-3.62-.839,8.36,8.36,0,0,0-4.126,1.016,7.231,7.231,0,0,0-2.869,2.891,8.739,8.739,0,0,0-1.037,4.3,8.83,8.83,0,0,0,1.037,4.348,7.218,7.218,0,0,0,2.869,2.891,8.36,8.36,0,0,0,4.126,1.015,7.8,7.8,0,0,0,3.62-.839,7.2,7.2,0,0,0,2.736-2.515l3.222,2.03a9.266,9.266,0,0,1-3.862,3.73,12.073,12.073,0,0,1-5.672,1.3A12.976,12.976,0,0,1,441.626,443Z" style="fill:#fff"/><path d="M463.076,415.6a2.6,2.6,0,0,1-.817-1.941,2.677,2.677,0,0,1,.817-1.964,2.783,2.783,0,0,1,2.052-.816,2.87,2.87,0,0,1,2.052.772,2.531,2.531,0,0,1,.816,1.92,2.726,2.726,0,0,1-.816,2.008,2.782,2.782,0,0,1-2.052.816A2.822,2.822,0,0,1,463.076,415.6Zm-.067,5.3h4.237v23.392h-4.237Z" style="fill:#fff"/><path d="M488.475,442.917a6.324,6.324,0,0,1-2.3,1.213,9.567,9.567,0,0,1-2.825.419,7.5,7.5,0,0,1-5.472-1.9,7.245,7.245,0,0,1-1.942-5.429V424.379h-3.972v-3.486h3.972v-5.12h4.237v5.12h6.708v3.486h-6.708v12.667a4.105,4.105,0,0,0,.949,2.913,3.531,3.531,0,0,0,2.714,1.015,5.107,5.107,0,0,0,3.31-1.1Z" style="fill:#fff"/><path d="M493.661,415.6a2.6,2.6,0,0,1-.817-1.941,2.677,2.677,0,0,1,.817-1.964,2.781,2.781,0,0,1,2.052-.816,2.87,2.87,0,0,1,2.052.772,2.535,2.535,0,0,1,.816,1.92,2.73,2.73,0,0,1-.816,2.008,2.782,2.782,0,0,1-2.052.816A2.82,2.82,0,0,1,493.661,415.6Zm-.067,5.3h4.237v23.392h-4.237Z" style="fill:#fff"/><path d="M526.96,434H507.982a7.343,7.343,0,0,0,2.715,4.965,8.852,8.852,0,0,0,5.759,1.876,8.676,8.676,0,0,0,6.753-2.825l2.339,2.736a10.232,10.232,0,0,1-3.95,2.826,14.906,14.906,0,0,1-11.851-.552,10.859,10.859,0,0,1-4.435-4.259,12.207,12.207,0,0,1-1.567-6.18,12.4,12.4,0,0,1,1.523-6.134,10.9,10.9,0,0,1,4.193-4.259,11.943,11.943,0,0,1,6.024-1.523,11.708,11.708,0,0,1,5.981,1.523,10.7,10.7,0,0,1,4.1,4.259,12.975,12.975,0,0,1,1.479,6.267A12.137,12.137,0,0,1,526.96,434Zm-16.572-7.9a7.468,7.468,0,0,0-2.406,4.855h15.006a7.528,7.528,0,0,0-2.405-4.833,7.9,7.9,0,0,0-10.195-.022Z" style="fill:#fff"/><path d="M534.11,443.777a12.107,12.107,0,0,1-4.149-1.964l1.766-3.355a12.63,12.63,0,0,0,3.751,1.766,15.419,15.419,0,0,0,4.458.662q5.56,0,5.561-3.178a2.056,2.056,0,0,0-.75-1.676,4.769,4.769,0,0,0-1.876-.906q-1.125-.285-3.2-.639a31.261,31.261,0,0,1-4.612-1.016,7.1,7.1,0,0,1-3.067-1.941,5.4,5.4,0,0,1-1.28-3.84,6,6,0,0,1,2.648-5.1,11.859,11.859,0,0,1,7.106-1.92,19.6,19.6,0,0,1,4.678.574,12.579,12.579,0,0,1,3.84,1.545l-1.81,3.354a12.172,12.172,0,0,0-6.752-1.853,7.8,7.8,0,0,0-4.105.882,2.663,2.663,0,0,0-1.412,2.339,2.229,2.229,0,0,0,.794,1.81,5.015,5.015,0,0,0,1.964.97q1.168.31,3.288.707a35.748,35.748,0,0,1,4.568,1.037,6.832,6.832,0,0,1,2.979,1.876,5.225,5.225,0,0,1,1.236,3.708,5.845,5.845,0,0,1-2.714,5.052,12.817,12.817,0,0,1-7.393,1.876A19.6,19.6,0,0,1,534.11,443.777Z" style="fill:#fff"/><path d="M566.969,415.6a2.6,2.6,0,0,1-.817-1.941,2.677,2.677,0,0,1,.817-1.964,2.783,2.783,0,0,1,2.052-.816,2.87,2.87,0,0,1,2.052.772,2.532,2.532,0,0,1,.817,1.92,2.727,2.727,0,0,1-.817,2.008,2.782,2.782,0,0,1-2.052.816A2.822,2.822,0,0,1,566.969,415.6Zm-.067,5.3h4.238v23.392H566.9Z" style="fill:#fff"/><path d="M598.79,423.254q2.625,2.582,2.626,7.57v13.461h-4.237V431.309a7.183,7.183,0,0,0-1.633-5.12,6.144,6.144,0,0,0-4.678-1.721,7.29,7.29,0,0,0-5.429,2.008,7.848,7.848,0,0,0-1.986,5.76v12.049h-4.237V420.893h4.06v3.53a8.244,8.244,0,0,1,3.465-2.78,12.128,12.128,0,0,1,4.965-.971A9.667,9.667,0,0,1,598.79,423.254Z" style="fill:#fff"/><path d="M622.424,442.917a6.315,6.315,0,0,1-2.295,1.213,9.565,9.565,0,0,1-2.824.419,7.5,7.5,0,0,1-5.473-1.9,7.245,7.245,0,0,1-1.942-5.429V424.379h-3.972v-3.486h3.972v-5.12h4.237v5.12h6.708v3.486h-6.708v12.667a4.105,4.105,0,0,0,.949,2.913,3.531,3.531,0,0,0,2.714,1.015,5.107,5.107,0,0,0,3.31-1.1Z" style="fill:#fff"/><path d="M630.5,443a11.191,11.191,0,0,1-4.347-4.258,12.879,12.879,0,0,1,0-12.314A11.044,11.044,0,0,1,630.5,422.2a13.612,13.612,0,0,1,12.513,0,11.1,11.1,0,0,1,4.325,4.237,12.879,12.879,0,0,1,0,12.314A11.249,11.249,0,0,1,643.014,443a13.44,13.44,0,0,1-12.513,0Zm10.306-3.2a7.32,7.32,0,0,0,2.8-2.913,9.629,9.629,0,0,0,0-8.606,7.18,7.18,0,0,0-2.8-2.891,8.534,8.534,0,0,0-8.077,0,7.319,7.319,0,0,0-2.825,2.891,9.446,9.446,0,0,0,0,8.606,7.463,7.463,0,0,0,2.825,2.913,8.382,8.382,0,0,0,8.077,0Z" style="fill:#fff"/><path d="M682.6,423.055q2.583,2.383,2.582,7.107v14.123h-4.016V441.2a6.7,6.7,0,0,1-3.023,2.494,11.555,11.555,0,0,1-4.656.86,9.747,9.747,0,0,1-6.29-1.9,6.524,6.524,0,0,1-.11-9.953q2.251-1.875,7.15-1.875h6.709v-.839a5.4,5.4,0,0,0-1.589-4.193,6.7,6.7,0,0,0-4.679-1.457,12.385,12.385,0,0,0-4.06.685,10.445,10.445,0,0,0-3.354,1.831l-1.766-3.178a12.807,12.807,0,0,1,4.325-2.228,18.1,18.1,0,0,1,5.341-.773Q680.02,420.672,682.6,423.055ZM678.388,440.2a6.192,6.192,0,0,0,2.56-3.068v-3.265h-6.533q-5.385,0-5.384,3.619a3.273,3.273,0,0,0,1.368,2.78,6.247,6.247,0,0,0,3.8,1.016A7.876,7.876,0,0,0,678.388,440.2Z" style="fill:#fff"/><path d="M726.98,411.537v32.748h-4.061v-3.707a9.179,9.179,0,0,1-3.574,2.957,11.09,11.09,0,0,1-4.767,1.014,12.3,12.3,0,0,1-6.091-1.5,10.748,10.748,0,0,1-4.215-4.216,13.518,13.518,0,0,1,0-12.467,10.8,10.8,0,0,1,4.215-4.194,12.31,12.31,0,0,1,6.091-1.5,11.2,11.2,0,0,1,4.634.95,9,9,0,0,1,3.531,2.8V411.537Zm-8.033,28.268a7.276,7.276,0,0,0,2.825-2.913,9.629,9.629,0,0,0,0-8.606,7.138,7.138,0,0,0-2.825-2.891,8.491,8.491,0,0,0-8.055,0,7.323,7.323,0,0,0-2.824,2.891,9.446,9.446,0,0,0,0,8.606,7.467,7.467,0,0,0,2.824,2.913,8.339,8.339,0,0,0,8.055,0Z" style="fill:#fff"/><path d="M735.079,415.6a2.6,2.6,0,0,1-.817-1.941,2.677,2.677,0,0,1,.817-1.964,2.781,2.781,0,0,1,2.052-.816,2.87,2.87,0,0,1,2.052.772,2.535,2.535,0,0,1,.816,1.92,2.73,2.73,0,0,1-.816,2.008,2.782,2.782,0,0,1-2.052.816A2.82,2.82,0,0,1,735.079,415.6Zm-.067,5.3h4.237v23.392h-4.237Z" style="fill:#fff"/><path d="M769.7,420.893v20.214q0,6.135-3.046,9.069t-9.092,2.936a21.748,21.748,0,0,1-6.311-.905,12.487,12.487,0,0,1-4.855-2.582l2.03-3.266a11.974,11.974,0,0,0,4.039,2.228,15.321,15.321,0,0,0,4.965.818q4.1,0,6.068-1.943t1.964-5.914V439.7a9.361,9.361,0,0,1-3.685,2.714,12.279,12.279,0,0,1-4.744.905,12.79,12.79,0,0,1-6.069-1.435,10.674,10.674,0,0,1-4.259-4.016,12.007,12.007,0,0,1,0-11.784,10.536,10.536,0,0,1,4.259-4,12.955,12.955,0,0,1,6.069-1.412,12.413,12.413,0,0,1,4.92.971,9.149,9.149,0,0,1,3.73,2.869v-3.619Zm-8.055,17.742a7.179,7.179,0,0,0,2.869-2.714,7.587,7.587,0,0,0,1.037-3.95,7.16,7.16,0,0,0-2.251-5.5,9.08,9.08,0,0,0-11.608,0,7.163,7.163,0,0,0-2.251,5.5,7.578,7.578,0,0,0,1.037,3.95,7.173,7.173,0,0,0,2.869,2.714,8.759,8.759,0,0,0,4.171.971A8.666,8.666,0,0,0,761.648,438.635Z" style="fill:#fff"/><path d="M777.845,415.6a2.6,2.6,0,0,1-.817-1.941,2.677,2.677,0,0,1,.817-1.964,2.783,2.783,0,0,1,2.052-.816,2.87,2.87,0,0,1,2.052.772,2.532,2.532,0,0,1,.817,1.92,2.727,2.727,0,0,1-.817,2.008,2.782,2.782,0,0,1-2.052.816A2.822,2.822,0,0,1,777.845,415.6Zm-.067,5.3h4.238v23.392h-4.238Z" style="fill:#fff"/><path d="M803.244,442.917a6.324,6.324,0,0,1-2.3,1.213,9.567,9.567,0,0,1-2.825.419,7.5,7.5,0,0,1-5.472-1.9,7.245,7.245,0,0,1-1.942-5.429V424.379h-3.972v-3.486h3.972v-5.12h4.237v5.12h6.708v3.486h-6.708v12.667a4.105,4.105,0,0,0,.949,2.913,3.531,3.531,0,0,0,2.714,1.015,5.107,5.107,0,0,0,3.31-1.1Z" style="fill:#fff"/><path d="M824.318,423.055q2.582,2.383,2.582,7.107v14.123h-4.016V441.2a6.708,6.708,0,0,1-3.023,2.494,11.56,11.56,0,0,1-4.657.86,9.744,9.744,0,0,1-6.289-1.9,6.524,6.524,0,0,1-.11-9.953q2.252-1.875,7.149-1.875h6.709v-.839a5.407,5.407,0,0,0-1.588-4.193,6.706,6.706,0,0,0-4.679-1.457,12.391,12.391,0,0,0-4.061.685,10.467,10.467,0,0,0-3.354,1.831l-1.765-3.178a12.807,12.807,0,0,1,4.325-2.228,18.088,18.088,0,0,1,5.34-.773Q821.737,420.672,824.318,423.055ZM820.1,440.2a6.187,6.187,0,0,0,2.56-3.068v-3.265h-6.532q-5.385,0-5.385,3.619a3.274,3.274,0,0,0,1.369,2.78,6.245,6.245,0,0,0,3.8,1.016A7.87,7.87,0,0,0,820.1,440.2Z" style="fill:#fff"/><path d="M834.755,411.537h4.238v32.748h-4.238Z" style="fill:#fff"/><path d="M847.069,411.537h4.237v32.748h-4.237Z" style="fill:#fff"/><path d="M880.082,420.893,868.74,446.624a11.626,11.626,0,0,1-3.509,5.032,8.018,8.018,0,0,1-4.833,1.456,10.228,10.228,0,0,1-3.332-.552,6.842,6.842,0,0,1-2.671-1.611l1.809-3.178a5.908,5.908,0,0,0,4.194,1.722,4.05,4.05,0,0,0,2.582-.817,6.991,6.991,0,0,0,1.876-2.8l.75-1.633-10.328-23.348h4.414l8.165,18.713,8.076-18.713Z" style="fill:#fff"/><path d="M881.98,430.337h11.873V434H881.98Z" style="fill:#fff"/><path d="M921.878,434H902.9a7.34,7.34,0,0,0,2.715,4.965,8.851,8.851,0,0,0,5.758,1.876,8.673,8.673,0,0,0,6.753-2.825l2.34,2.736a10.239,10.239,0,0,1-3.95,2.826,14.906,14.906,0,0,1-11.851-.552,10.859,10.859,0,0,1-4.435-4.259,12.207,12.207,0,0,1-1.568-6.18,12.4,12.4,0,0,1,1.524-6.134,10.907,10.907,0,0,1,4.192-4.259,11.947,11.947,0,0,1,6.025-1.523,11.7,11.7,0,0,1,5.98,1.523,10.708,10.708,0,0,1,4.105,4.259,12.986,12.986,0,0,1,1.478,6.267A12.091,12.091,0,0,1,921.878,434Zm-16.573-7.9a7.472,7.472,0,0,0-2.4,4.855h15.006a7.525,7.525,0,0,0-2.406-4.833,7.9,7.9,0,0,0-10.2-.022Z" style="fill:#fff"/><path d="M947.411,423.254q2.625,2.582,2.626,7.57v13.461H945.8V431.309a7.183,7.183,0,0,0-1.633-5.12,6.142,6.142,0,0,0-4.678-1.721,7.29,7.29,0,0,0-5.429,2.008,7.852,7.852,0,0,0-1.985,5.76v12.049h-4.238V420.893H931.9v3.53a8.232,8.232,0,0,1,3.465-2.78,12.124,12.124,0,0,1,4.965-.971A9.668,9.668,0,0,1,947.411,423.254Z" style="fill:#fff"/><path d="M973.847,423.055q2.583,2.383,2.582,7.107v14.123h-4.016V441.2a6.7,6.7,0,0,1-3.023,2.494,11.555,11.555,0,0,1-4.656.86,9.747,9.747,0,0,1-6.29-1.9,6.523,6.523,0,0,1-.111-9.953q2.251-1.875,7.151-1.875h6.709v-.839a5.407,5.407,0,0,0-1.589-4.193,6.7,6.7,0,0,0-4.679-1.457,12.381,12.381,0,0,0-4.06.685,10.451,10.451,0,0,0-3.355,1.831l-1.765-3.178a12.807,12.807,0,0,1,4.325-2.228,18.1,18.1,0,0,1,5.341-.773Q971.265,420.672,973.847,423.055ZM969.632,440.2a6.194,6.194,0,0,0,2.561-3.068v-3.265h-6.532q-5.386,0-5.385,3.619a3.273,3.273,0,0,0,1.368,2.78,6.247,6.247,0,0,0,3.8,1.016A7.87,7.87,0,0,0,969.632,440.2Z" style="fill:#fff"/><path d="M1002.778,422.172a10.811,10.811,0,0,1,4.215,4.194,13.526,13.526,0,0,1,0,12.467,10.754,10.754,0,0,1-4.215,4.216,12.3,12.3,0,0,1-6.091,1.5,11.09,11.09,0,0,1-4.767-1.014,9.182,9.182,0,0,1-3.575-2.957v3.707h-4.06V411.537h4.237v12.886a8.986,8.986,0,0,1,3.531-2.8,11.2,11.2,0,0,1,4.634-.95A12.31,12.31,0,0,1,1002.778,422.172Zm-2.406,17.633a7.47,7.47,0,0,0,2.825-2.913,9.446,9.446,0,0,0,0-8.606,7.325,7.325,0,0,0-2.825-2.891,8.489,8.489,0,0,0-8.054,0,7.126,7.126,0,0,0-2.825,2.891,9.629,9.629,0,0,0,0,8.606,7.263,7.263,0,0,0,2.825,2.913,8.338,8.338,0,0,0,8.054,0Z" style="fill:#fff"/><path d="M1014.385,411.537h4.237v32.748h-4.237Z" style="fill:#fff"/><path d="M1047.751,434h-18.978a7.34,7.34,0,0,0,2.715,4.965,8.851,8.851,0,0,0,5.758,1.876,8.673,8.673,0,0,0,6.753-2.825l2.34,2.736a10.239,10.239,0,0,1-3.95,2.826,14.906,14.906,0,0,1-11.851-.552,10.859,10.859,0,0,1-4.435-4.259,12.207,12.207,0,0,1-1.567-6.18,12.394,12.394,0,0,1,1.523-6.134,10.907,10.907,0,0,1,4.192-4.259,11.947,11.947,0,0,1,6.025-1.523,11.7,11.7,0,0,1,5.98,1.523,10.708,10.708,0,0,1,4.105,4.259,12.986,12.986,0,0,1,1.478,6.267A12.091,12.091,0,0,1,1047.751,434Zm-16.573-7.9a7.472,7.472,0,0,0-2.405,4.855h15.006a7.525,7.525,0,0,0-2.406-4.833,7.9,7.9,0,0,0-10.195-.022Z" style="fill:#fff"/><path d="M1075.777,411.537v32.748h-4.061v-3.707a9.179,9.179,0,0,1-3.574,2.957,11.09,11.09,0,0,1-4.767,1.014,12.293,12.293,0,0,1-6.09-1.5,10.741,10.741,0,0,1-4.215-4.216,13.51,13.51,0,0,1,0-12.467,10.8,10.8,0,0,1,4.215-4.194,12.3,12.3,0,0,1,6.09-1.5,11.2,11.2,0,0,1,4.634.95,9,9,0,0,1,3.531,2.8V411.537Zm-8.032,28.268a7.273,7.273,0,0,0,2.824-2.913,9.629,9.629,0,0,0,0-8.606,7.136,7.136,0,0,0-2.824-2.891,8.491,8.491,0,0,0-8.055,0,7.319,7.319,0,0,0-2.825,2.891,9.446,9.446,0,0,0,0,8.606,7.463,7.463,0,0,0,2.825,2.913,8.339,8.339,0,0,0,8.055,0Z" style="fill:#fff"/><path d="M1117.485,420.893v23.392h-4.017v-3.532a8.512,8.512,0,0,1-3.376,2.8,10.538,10.538,0,0,1-4.568.993,10.2,10.2,0,0,1-7.371-2.582q-2.693-2.58-2.693-7.613V420.893h4.238v12.976a7.264,7.264,0,0,0,1.632,5.141,6.1,6.1,0,0,0,4.679,1.743,6.977,6.977,0,0,0,5.3-2.03,7.963,7.963,0,0,0,1.942-5.737V420.893Z" style="fill:#fff"/><path d="M1132.887,421.732a11.841,11.841,0,0,1,5.252-1.06v4.1a8.367,8.367,0,0,0-.971-.044,7.128,7.128,0,0,0-5.406,2.052,8.127,8.127,0,0,0-1.964,5.848v11.652h-4.237V420.893h4.06v3.928A7.235,7.235,0,0,1,1132.887,421.732Z" style="fill:#fff"/><path d="M1161.84,422.172a10.811,10.811,0,0,1,4.215,4.194,13.518,13.518,0,0,1,0,12.467,10.754,10.754,0,0,1-4.215,4.216,12.3,12.3,0,0,1-6.091,1.5,11.083,11.083,0,0,1-4.766-1.014,9.168,9.168,0,0,1-3.575-2.957v3.707h-4.061V411.537h4.237v12.886a9,9,0,0,1,3.532-2.8,11.2,11.2,0,0,1,4.633-.95A12.31,12.31,0,0,1,1161.84,422.172Zm-2.4,17.633a7.467,7.467,0,0,0,2.824-2.913,9.446,9.446,0,0,0,0-8.606,7.323,7.323,0,0,0-2.824-2.891,8.491,8.491,0,0,0-8.055,0,7.132,7.132,0,0,0-2.825,2.891,9.629,9.629,0,0,0,0,8.606,7.269,7.269,0,0,0,2.825,2.913,8.339,8.339,0,0,0,8.055,0Z" style="fill:#fff"/><path d="M1189.182,423.055q2.582,2.383,2.582,7.107v14.123h-4.017V441.2a6.7,6.7,0,0,1-3.023,2.494,11.552,11.552,0,0,1-4.656.86,9.742,9.742,0,0,1-6.289-1.9,6.523,6.523,0,0,1-.111-9.953q2.252-1.875,7.15-1.875h6.709v-.839a5.4,5.4,0,0,0-1.589-4.193,6.7,6.7,0,0,0-4.679-1.457,12.385,12.385,0,0,0-4.06.685,10.445,10.445,0,0,0-3.354,1.831l-1.766-3.178a12.822,12.822,0,0,1,4.326-2.228,18.09,18.09,0,0,1,5.341-.773Q1186.6,420.672,1189.182,423.055Zm-4.215,17.147a6.192,6.192,0,0,0,2.56-3.068v-3.265h-6.532q-5.385,0-5.385,3.619a3.271,3.271,0,0,0,1.369,2.78,6.243,6.243,0,0,0,3.795,1.016A7.873,7.873,0,0,0,1184.967,440.2Z" style="fill:#fff"/><path d="M1219.194,423.254q2.625,2.582,2.626,7.57v13.461h-4.238V431.309a7.188,7.188,0,0,0-1.632-5.12,6.146,6.146,0,0,0-4.679-1.721,7.29,7.29,0,0,0-5.429,2.008,7.852,7.852,0,0,0-1.985,5.76v12.049h-4.237V420.893h4.06v3.53a8.238,8.238,0,0,1,3.465-2.78,12.124,12.124,0,0,1,4.965-.971A9.668,9.668,0,0,1,1219.194,423.254Z" style="fill:#fff"/><path d="M1277.805,423.232q2.583,2.56,2.582,7.592v13.461h-4.236V431.309a7.38,7.38,0,0,0-1.568-5.12,5.752,5.752,0,0,0-4.479-1.721,6.705,6.705,0,0,0-5.12,2.008,8.071,8.071,0,0,0-1.9,5.76v12.049h-4.237V431.309a7.38,7.38,0,0,0-1.566-5.12,5.753,5.753,0,0,0-4.48-1.721,6.708,6.708,0,0,0-5.12,2.008,8.066,8.066,0,0,0-1.9,5.76v12.049h-4.238V420.893h4.061v3.486a8.189,8.189,0,0,1,3.354-2.757,11.227,11.227,0,0,1,4.722-.95,10.365,10.365,0,0,1,4.855,1.1,7.663,7.663,0,0,1,3.266,3.222,8.957,8.957,0,0,1,3.686-3.178,12.007,12.007,0,0,1,5.318-1.148A9.5,9.5,0,0,1,1277.805,423.232Z" style="fill:#fff"/><path d="M1288.265,415.6a2.6,2.6,0,0,1-.816-1.941,2.676,2.676,0,0,1,.816-1.964,2.785,2.785,0,0,1,2.053-.816,2.87,2.87,0,0,1,2.052.772,2.535,2.535,0,0,1,.816,1.92,2.73,2.73,0,0,1-.816,2.008,2.782,2.782,0,0,1-2.052.816A2.824,2.824,0,0,1,1288.265,415.6Zm-.066,5.3h4.237v23.392H1288.2Z" style="fill:#fff"/><path d="M1300.512,411.537h4.237v32.748h-4.237Z" style="fill:#fff"/><path d="M1333.878,434H1314.9a7.34,7.34,0,0,0,2.715,4.965,8.851,8.851,0,0,0,5.758,1.876,8.673,8.673,0,0,0,6.753-2.825l2.34,2.736a10.239,10.239,0,0,1-3.95,2.826,14.906,14.906,0,0,1-11.851-.552,10.859,10.859,0,0,1-4.435-4.259,12.207,12.207,0,0,1-1.568-6.18,12.4,12.4,0,0,1,1.524-6.134,10.907,10.907,0,0,1,4.192-4.259,11.947,11.947,0,0,1,6.025-1.523,11.7,11.7,0,0,1,5.98,1.523,10.708,10.708,0,0,1,4.105,4.259,12.986,12.986,0,0,1,1.478,6.267A12.091,12.091,0,0,1,1333.878,434Zm-16.573-7.9a7.472,7.472,0,0,0-2.4,4.855h15.006a7.525,7.525,0,0,0-2.406-4.833,7.9,7.9,0,0,0-10.195-.022Z" style="fill:#fff"/><path d="M1361.64,420.893v23.392h-4.017v-3.532a8.512,8.512,0,0,1-3.376,2.8,10.535,10.535,0,0,1-4.568.993,10.2,10.2,0,0,1-7.371-2.582q-2.693-2.58-2.692-7.613V420.893h4.237v12.976a7.26,7.26,0,0,0,1.633,5.141,6.1,6.1,0,0,0,4.678,1.743,6.977,6.977,0,0,0,5.3-2.03,7.963,7.963,0,0,0,1.943-5.737V420.893Z" style="fill:#fff"/><path d="M1368.613,443.689a2.92,2.92,0,0,1-.883-2.185,2.865,2.865,0,0,1,.883-2.14,2.924,2.924,0,0,1,2.118-.861,2.822,2.822,0,0,1,2.074.838,3.205,3.205,0,0,1-.022,4.348,2.8,2.8,0,0,1-2.052.86A2.927,2.927,0,0,1,1368.613,443.689Z" style="fill:#fff"/></g></g></g></svg>