<svg xmlns="http://www.w3.org/2000/svg" xmlns:xlink="http://www.w3.org/1999/xlink" viewBox="0 0 1778.709 498.015"><defs><radialGradient id="radial-gradient" cx="7774.677" cy="-8540.24" r="603.809" gradientTransform="matrix(0, -1, -1, 0, -7224.929, 7743.378)" gradientUnits="userSpaceOnUse"><stop offset="0" stop-color="#fff"/><stop offset="0.231" stop-color="#fcfcfc"/><stop offset="0.42" stop-color="#f2f2f2"/><stop offset="0.594" stop-color="#e0e0e1"/><stop offset="0.759" stop-color="#c8c8c9"/><stop offset="0.917" stop-color="#aaa"/><stop offset="1" stop-color="#969697"/></radialGradient><radialGradient id="radial-gradient-2" cx="7673.004" cy="-8606.999" r="575.632" gradientTransform="matrix(0, -1, -1, 0, -7224.929, 7743.378)" gradientUnits="userSpaceOnUse"><stop offset="0" stop-color="#fff"/><stop offset="0.257" stop-color="#fcfcfc"/><stop offset="0.468" stop-color="#f2f2f2"/><stop offset="0.662" stop-color="#e0e0e1"/><stop offset="0.846" stop-color="#c9c9c9"/><stop offset="1" stop-color="#aeaeaf"/></radialGradient><radialGradient id="radial-gradient-3" cx="7322.857" cy="-8918.173" r="636.249" gradientTransform="matrix(0, -1, -1, 0, -7224.929, 7743.378)" gradientUnits="userSpaceOnUse"><stop offset="0" stop-color="#fff"/><stop offset="0.164" stop-color="#f8f8f8"/><stop offset="0.411" stop-color="#e3e3e3"/><stop offset="0.709" stop-color="#c2c2c2"/><stop offset="1" stop-color="#9a9a9a"/></radialGradient></defs><g id="Layer_2" data-name="Layer 2"><g id="Layer_1-2" data-name="Layer 1"><g id="Layer_2-2" data-name="Layer 2"><g id="Layer_1-2-2" data-name="Layer 1-2"><g id="Layer_2-2-2" data-name="Layer 2-2"><g id="Layer_1-2-2-2" data-name="Layer 1-2-2"><path d="M100.679,461.575l1327.281,3.536c55.895.149,101.445-88.93,101.739-198.965h0c.293-110.034-44.782-199.355-100.678-199.5l-1327.28-3.54C45.846,62.957.3,152.036,0,262.07H0C-.291,372.105,44.784,461.426,100.679,461.575Z" style="fill:#f2b05a"/><path d="M1506.951,54.318c117.874,0,230.389,84.482,230.389,202.361S1662.586,466.721,1544.7,466.721c-117.859,0-217.806-98-217.806-215.887C1326.891,132.965,1389.077,54.318,1506.951,54.318Z" style="fill:#434343;opacity:0.5;isolation:isolate"/><path d="M1529.7,0c137.523,0,249.008,111.485,249.008,249.008S1667.223,498.015,1529.7,498.015s-249-111.479-249.008-249S1392.175,0,1529.7,0Z" style="fill:url(#radial-gradient)"/><path d="M1529.7,11.615c131.108,0,237.393,106.284,237.392,237.393S1660.808,486.4,1529.7,486.4s-237.387-106.279-237.393-237.383,106.274-237.4,237.383-237.4Z" style="fill:url(#radial-gradient-2)"/><path d="M1529.7,58.159c105.4,0,190.851,85.442,190.853,190.844S1635.107,439.854,1529.7,439.856s-190.842-85.433-190.853-190.83S1424.289,58.167,1529.7,58.159Z" style="fill:url(#radial-gradient-3)"/><path d="M1529.7,75.4a173.589,173.589,0,1,1-.009,0Z" style="opacity:0.10000000149011612;isolation:isolate"/><path d="M1555.992,171.714a35.182,35.182,0,0,1,5.9,3.51,10.311,10.311,0,0,1,3.022,8.21c-.049,12.852,0,25.7-.047,38.554a3.344,3.344,0,0,0,1.413,2.979,19.21,19.21,0,0,1,5.915,21.68c-.756,1.973-2.013,2.738-3.592,2.186-1.443-.5-2-1.906-1.378-3.826a13.9,13.9,0,0,0-2.817-14.589,13.25,13.25,0,0,0-13.937-4.074,13.049,13.049,0,0,0-10.186,11.281,29.61,29.61,0,0,0,.424,6.7,7.322,7.322,0,0,0,.318,1.144,2.588,2.588,0,1,1-4.821,1.884c-.029-.074-.054-.149-.076-.225a19,19,0,0,1,.114-14.757,17.519,17.519,0,0,1,5.713-7.508,2.678,2.678,0,0,0,1.111-2.454c-.031-12.681.109-25.363-.075-38.041-.09-6.206,3.092-11.115,8.665-12.431.092-.022.16-.149.239-.227Zm3.733,49.174V203.633c0-6.764.015-13.528-.007-20.292a5.836,5.836,0,0,0-4.3-6.187,5.593,5.593,0,0,0-7.045,5.883c-.044,12.391-.017,24.782-.009,37.173a2.782,2.782,0,0,0,.109.678Z" style="fill:#606161"/><path d="M1464.151,171.714c.757.333,1.528.636,2.268,1a10.945,10.945,0,0,1,6.394,10.584V270.5a17.017,17.017,0,0,1-.106,2.211,2.328,2.328,0,0,1-2.458,2.192h0a1.022,1.022,0,0,1-.123-.011,2.439,2.439,0,0,1-2.5-2.318,13.172,13.172,0,0,1-.039-1.874V183.5a5.728,5.728,0,0,0-4.792-6.429,5.521,5.521,0,0,0-6.417,4.446v0a5.608,5.608,0,0,0-.088.858c-.079,3.07.052,6.146-.077,9.213a4.49,4.49,0,0,1-1.012,2.741,2.39,2.39,0,0,1-4.078-1.553,76.139,76.139,0,0,1,.413-13.056,9.524,9.524,0,0,1,6.995-7.456,12.636,12.636,0,0,0,1.192-.554Z" style="fill:#606161"/><path d="M1509.9,171.714a31.4,31.4,0,0,1,4.213,2.082,10.44,10.44,0,0,1,4.563,8.184,41.935,41.935,0,0,1,.039,4.938,2.657,2.657,0,0,1-2.526,2.717,2.6,2.6,0,0,1-2.68-2.517V187.1c-.142-1.464-.045-2.95-.1-4.425a5.633,5.633,0,0,0-11.25-.506c-.167,1.46-.049,2.95-.1,4.425a2.649,2.649,0,0,1-2.454,2.83h-.1a2.581,2.581,0,0,1-2.6-2.562v0a1.9,1.9,0,0,1,.008-.213,19.352,19.352,0,0,1,.937-8.544,12.168,12.168,0,0,1,7.947-6.391Z" style="fill:#606161"/><path d="M1580.825,267.342a11.314,11.314,0,0,1,18.848,7.232,11.361,11.361,0,0,1,13.229,1.135,9.855,9.855,0,0,1,3.831,7.689c.051,8.192.169,16.391-.11,24.574a43.451,43.451,0,0,1-3.876,15.623,2.613,2.613,0,0,1-3.277,1.708h0c-.058-.018-.114-.038-.171-.06a2.72,2.72,0,0,1-1.4-3.562c1.093-3.924,2.281-7.827,3.192-11.794a28.678,28.678,0,0,0,.524-6.105q.093-9.558.012-19.118a5.978,5.978,0,0,0-11.921-.9c-.009.113-.015.226-.016.34-.046,1.421.019,2.846-.025,4.267a2.586,2.586,0,0,1-2.317,2.831h0c-.069.007-.14.011-.211.012a2.467,2.467,0,0,1-2.664-2.252h0a2.525,2.525,0,0,1,0-.426c-.089-3.867-.026-7.738-.063-11.606a12.683,12.683,0,0,0-.27-3.048,5.91,5.91,0,0,0-6.431-4.188,5.76,5.76,0,0,0-5.116,5.5c-.089,2.956,0,5.917-.07,8.874a3.648,3.648,0,0,1-.6,2.38,4.048,4.048,0,0,1-2.765.989c-1.46-.141-1.928-1.457-1.94-2.8-.035-3.755.025-7.511-.031-11.266a5.845,5.845,0,0,0-7.166-5.756,5.465,5.465,0,0,0-4.551,5.07c-.215,4.427-.13,8.868-.177,13.3a19.692,19.692,0,0,1-.087,2.213,2.366,2.366,0,0,1-2.484,2.243h-.073a2.445,2.445,0,0,1-2.522-2.311,12.691,12.691,0,0,1-.036-1.7V243.754a6.16,6.16,0,0,0-4.271-6.45,5.979,5.979,0,0,0-7.667,5.358c-.049.623-.024,1.251-.024,1.877v58.209c0,.512.017,1.025-.006,1.536a2.725,2.725,0,0,1-2.551,2.881,2.6,2.6,0,0,1-2.625-2.574v-.01h0c0-.065,0-.129.005-.194-.065-4.494.073-8.993-.072-13.483a17.874,17.874,0,0,0-4.734-11.053,6.805,6.805,0,0,0-8.624-.936,6.66,6.66,0,0,0-3.05,8.117c3.144,6.608,3.021,13.662,3.6,20.669a52.065,52.065,0,0,0,6.058,21.635,21.961,21.961,0,0,0,20.478,12c8.023-.01,16.046.006,24.069,0a26.926,26.926,0,0,0,22.275-11.2c.346-.45.666-.925,1.039-1.351a2.633,2.633,0,0,1,3.653-.71h0c.037.025.073.051.109.078a2.509,2.509,0,0,1,.6,3.5l0,0a2.548,2.548,0,0,1-.225.273,56.047,56.047,0,0,1-5.642,6.372,31.2,31.2,0,0,1-22.107,8.26c-8.192-.1-16.387,0-24.58-.027a26.129,26.129,0,0,1-23.626-13.6,55.029,55.029,0,0,1-7.239-23.731c-.445-4.8-.812-9.615-1.385-14.4a13.706,13.706,0,0,0-1.425-4.337,12.41,12.41,0,0,1,19.969-14.17c.159.147.342.269.822.641v-2.055c0-10.3.03-20.6-.013-30.9a11.3,11.3,0,0,1,6.467-11.087,11.06,11.06,0,0,1,15.794,9.12c.255,6.477.111,12.969.143,19.455v2.284C1571.479,260.87,1576.651,261.994,1580.825,267.342Z" style="fill:#606161"/><path d="M1496.894,285.156V234.817c0-2.729.835-4.008,2.6-4s2.58,1.286,2.58,4.019q0,49.572.01,99.143a14.015,14.015,0,0,0,.237,2.877,5.525,5.525,0,0,0,5.858,4.4,5.369,5.369,0,0,0,5.19-5.322c.089-7.621.043-15.243.068-22.864a10.687,10.687,0,0,1,.2-2.193,2.308,2.308,0,0,1,2.448-1.934,2.4,2.4,0,0,1,2.5,1.907,4.769,4.769,0,0,1,.154,1.345c.008,7.736.09,15.473-.019,23.207a10.873,10.873,0,0,1-14.628,10.453,10.546,10.546,0,0,1-7.124-9.5c-.093-12.172-.06-24.344-.073-36.516Q1496.886,292.494,1496.894,285.156Z" style="fill:#606161"/><path d="M1442.6,295.589a19.322,19.322,0,1,1,19.277,19.367h-.02A19.334,19.334,0,0,1,1442.6,295.589Zm19.24,14.076a10.583,10.583,0,1,0-14.2-4.733,10.583,10.583,0,0,0,14.2,4.733Z" style="fill:#606161"/><path d="M1507.6,229.445a19.322,19.322,0,1,1,19.359-19.285h0v.056A19.332,19.332,0,0,1,1507.6,229.445Zm14.081-19.359a14.09,14.09,0,1,0-28.18.044v.035a14.09,14.09,0,1,0,28.18.017Z" style="fill:#606161"/><path d="M1456.249,236.951v33.935a11.887,11.887,0,0,1-.036,1.533,2.646,2.646,0,0,1-2.685,2.553,2.6,2.6,0,0,1-2.557-2.5,10.565,10.565,0,0,1-.057-1.53V202.559c0-2.764.935-4.171,2.727-4.122q2.61.072,2.611,4.063Q1456.252,219.728,1456.249,236.951Z" style="fill:#606161"/><path d="M1518.745,267.986v33.449a8.638,8.638,0,0,1-.11,1.866,2.465,2.465,0,0,1-2.54,2.1,2.378,2.378,0,0,1-2.5-2.122,11.58,11.58,0,0,1-.163-1.859q-.01-33.364-.006-66.729c0-2.794.913-4.128,2.761-4.063,1.756.062,2.557,1.334,2.557,4.076Q1518.748,251.347,1518.745,267.986Z" style="fill:#606161"/><path d="M1472.7,328.063c0,2.841.136,5.689-.029,8.52a10.687,10.687,0,0,1-10.46,9.921,10.492,10.492,0,0,1-10.98-9.307c-.392-6.056-.273-12.149-.275-18.226a2.631,2.631,0,0,1,2.441-2.807,2.675,2.675,0,0,1,.335,0,2.743,2.743,0,0,1,2.525,2.944v0a1.169,1.169,0,0,1-.016.153c.039,5.515-.012,11.03.042,16.543a5.432,5.432,0,0,0,4.427,5.311,5.49,5.49,0,0,0,6.31-3.164,8.229,8.229,0,0,0,.541-2.977c.052-5.286.029-10.574.025-15.861,0-1.5.687-2.709,2.152-2.8a4.224,4.224,0,0,1,2.674,1.289c.422.393.381,1.379.392,2.1.039,2.785.016,5.571.016,8.357Z" style="fill:#606161"/><line x1="85.368" y1="203.838" x2="1230.257" y2="203.838" style="fill:none;stroke:#fff;stroke-miterlimit:10;stroke-width:3px"/><path d="M95.483,311.117q2.145,2.109,2.146,6.185v11H94.167V317.7a5.871,5.871,0,0,0-1.334-4.183,5.018,5.018,0,0,0-3.823-1.407,5.956,5.956,0,0,0-4.436,1.641,6.42,6.42,0,0,0-1.623,4.707V328.3H79.489V301.542h3.462v10.351a7.155,7.155,0,0,1,2.831-2.128,9.77,9.77,0,0,1,3.913-.758A7.9,7.9,0,0,1,95.483,311.117Z" style="fill:#fff"/><path d="M121.358,319.9H105.851a6.005,6.005,0,0,0,2.218,4.057,7.233,7.233,0,0,0,4.706,1.533,7.092,7.092,0,0,0,5.518-2.308l1.911,2.236a8.358,8.358,0,0,1-3.228,2.308,12.161,12.161,0,0,1-9.683-.451,8.872,8.872,0,0,1-3.624-3.48,9.988,9.988,0,0,1-1.28-5.049,10.144,10.144,0,0,1,1.244-5.013,8.932,8.932,0,0,1,3.426-3.48,9.758,9.758,0,0,1,4.923-1.244,9.563,9.563,0,0,1,4.886,1.244,8.745,8.745,0,0,1,3.354,3.48,10.6,10.6,0,0,1,1.208,5.122A9.62,9.62,0,0,1,121.358,319.9Zm-13.542-6.455a6.107,6.107,0,0,0-1.965,3.967h12.261a6.143,6.143,0,0,0-1.965-3.949A6.458,6.458,0,0,0,107.816,313.445Z" style="fill:#fff"/><path d="M126.227,301.542h3.462V328.3h-3.462Z" style="fill:#fff"/><path d="M151.4,310.233a8.821,8.821,0,0,1,3.444,3.426,11.05,11.05,0,0,1,0,10.188,8.781,8.781,0,0,1-3.444,3.444,10.048,10.048,0,0,1-4.976,1.227,8.858,8.858,0,0,1-3.769-.794,7.835,7.835,0,0,1-2.9-2.308V335.3h-3.462V309.188H139.6v3.029a7.348,7.348,0,0,1,2.921-2.4,9.222,9.222,0,0,1,3.9-.811A10.057,10.057,0,0,1,151.4,310.233Zm-1.965,14.408a6.113,6.113,0,0,0,2.308-2.381,7.717,7.717,0,0,0,0-7.032,5.978,5.978,0,0,0-2.308-2.362,6.565,6.565,0,0,0-3.3-.83,6.388,6.388,0,0,0-3.264.848,6.154,6.154,0,0,0-2.308,2.362,7.062,7.062,0,0,0-.847,3.5,7.29,7.29,0,0,0,.829,3.516,5.954,5.954,0,0,0,2.308,2.381,6.819,6.819,0,0,0,6.582,0Z" style="fill:#fff"/><path d="M187.785,319.9H172.278a6.005,6.005,0,0,0,2.218,4.057,7.233,7.233,0,0,0,4.706,1.533,7.092,7.092,0,0,0,5.518-2.308l1.911,2.236a8.358,8.358,0,0,1-3.228,2.308,12.161,12.161,0,0,1-9.683-.451,8.872,8.872,0,0,1-3.624-3.48,9.988,9.988,0,0,1-1.28-5.049,10.157,10.157,0,0,1,1.244-5.013,8.932,8.932,0,0,1,3.426-3.48,9.758,9.758,0,0,1,4.923-1.244,9.563,9.563,0,0,1,4.886,1.244,8.745,8.745,0,0,1,3.354,3.48,10.6,10.6,0,0,1,1.208,5.122A9.62,9.62,0,0,1,187.785,319.9Zm-13.542-6.455a6.11,6.11,0,0,0-1.965,3.967H184.54a6.149,6.149,0,0,0-1.966-3.949A6.458,6.458,0,0,0,174.243,313.445Z" style="fill:#fff"/><path d="M193.627,327.886a9.86,9.86,0,0,1-3.39-1.605l1.443-2.741a10.348,10.348,0,0,0,3.065,1.443,12.589,12.589,0,0,0,3.642.541q4.545,0,4.544-2.6a1.681,1.681,0,0,0-.612-1.371,3.924,3.924,0,0,0-1.533-.74q-.918-.232-2.615-.522a25.563,25.563,0,0,1-3.768-.829,5.82,5.82,0,0,1-2.507-1.587,4.416,4.416,0,0,1-1.046-3.138,4.9,4.9,0,0,1,2.164-4.165A9.689,9.689,0,0,1,198.82,309a16.038,16.038,0,0,1,3.823.469,10.291,10.291,0,0,1,3.137,1.262l-1.478,2.741a9.938,9.938,0,0,0-5.518-1.515,6.375,6.375,0,0,0-3.354.722,2.177,2.177,0,0,0-1.153,1.911,1.822,1.822,0,0,0,.648,1.478,4.107,4.107,0,0,0,1.6.794q.957.252,2.687.577a29.409,29.409,0,0,1,3.732.847,5.569,5.569,0,0,1,2.434,1.533,4.268,4.268,0,0,1,1.01,3.029,4.773,4.773,0,0,1-2.218,4.129,10.46,10.46,0,0,1-6.04,1.534A16.029,16.029,0,0,1,193.627,327.886Z" style="fill:#fff"/><path d="M221.467,327.183a5.181,5.181,0,0,1-1.875.992,7.878,7.878,0,0,1-2.308.343,6.131,6.131,0,0,1-4.471-1.551,5.924,5.924,0,0,1-1.587-4.437V312.036H207.98v-2.848h3.246V305h3.462v4.184h5.481v2.848h-5.481v10.351a3.36,3.36,0,0,0,.775,2.38,2.886,2.886,0,0,0,2.218.829,4.17,4.17,0,0,0,2.7-.9Z" style="fill:#fff"/><path d="M238.687,310.954q2.109,1.948,2.11,5.807V328.3h-3.282v-2.525a5.459,5.459,0,0,1-2.47,2.037,9.408,9.408,0,0,1-3.8.7,7.968,7.968,0,0,1-5.139-1.551,5.332,5.332,0,0,1-.09-8.133q1.839-1.531,5.842-1.532h5.482v-.686a4.411,4.411,0,0,0-1.3-3.426,5.473,5.473,0,0,0-3.822-1.19,10.1,10.1,0,0,0-3.318.56,8.548,8.548,0,0,0-2.741,1.5l-1.442-2.6a10.462,10.462,0,0,1,3.534-1.82,14.761,14.761,0,0,1,4.363-.632A8.648,8.648,0,0,1,238.687,310.954Zm-3.444,14.011a5.064,5.064,0,0,0,2.092-2.506V319.79H232q-4.4,0-4.4,2.957a2.681,2.681,0,0,0,1.119,2.273,5.11,5.11,0,0,0,3.1.829A6.423,6.423,0,0,0,235.243,324.965Z" style="fill:#fff"/><path d="M262.326,310.233a8.821,8.821,0,0,1,3.444,3.426,11.05,11.05,0,0,1,0,10.188,8.781,8.781,0,0,1-3.444,3.444,10.052,10.052,0,0,1-4.977,1.227,9.053,9.053,0,0,1-3.9-.83,7.5,7.5,0,0,1-2.921-2.417v3.03h-3.317V301.542h3.461v10.53a7.363,7.363,0,0,1,2.886-2.29,9.172,9.172,0,0,1,3.786-.775A10.048,10.048,0,0,1,262.326,310.233Zm-1.965,14.408a6.113,6.113,0,0,0,2.308-2.381,7.717,7.717,0,0,0,0-7.032,5.978,5.978,0,0,0-2.308-2.362,6.938,6.938,0,0,0-6.582,0,5.825,5.825,0,0,0-2.308,2.362,7.866,7.866,0,0,0,0,7.032,5.948,5.948,0,0,0,2.308,2.381A6.819,6.819,0,0,0,260.361,324.641Z" style="fill:#fff"/><path d="M271.81,301.542h3.462V328.3H271.81Z" style="fill:#fff"/><path d="M281.925,304.86a2.133,2.133,0,0,1-.667-1.587,2.193,2.193,0,0,1,.667-1.605A2.281,2.281,0,0,1,283.6,301a2.343,2.343,0,0,1,1.677.631,2.067,2.067,0,0,1,.667,1.569,2.225,2.225,0,0,1-.667,1.641,2.273,2.273,0,0,1-1.677.667A2.309,2.309,0,0,1,281.925,304.86Zm-.054,4.328h3.462V328.3h-3.462Z" style="fill:#fff"/><path d="M292.9,327.886a9.864,9.864,0,0,1-3.389-1.605l1.442-2.741a10.353,10.353,0,0,0,3.066,1.443,12.589,12.589,0,0,0,3.642.541q4.543,0,4.544-2.6a1.685,1.685,0,0,0-.613-1.371,3.91,3.91,0,0,0-1.533-.74q-.92-.232-2.615-.522a25.563,25.563,0,0,1-3.768-.829,5.82,5.82,0,0,1-2.507-1.587,4.42,4.42,0,0,1-1.045-3.138,4.9,4.9,0,0,1,2.164-4.165A9.686,9.686,0,0,1,298.094,309a15.987,15.987,0,0,1,3.823.469,10.312,10.312,0,0,1,3.138,1.262l-1.479,2.741a9.932,9.932,0,0,0-5.517-1.515,6.375,6.375,0,0,0-3.354.722,2.176,2.176,0,0,0-1.154,1.911,1.819,1.819,0,0,0,.649,1.478,4.08,4.08,0,0,0,1.605.794q.954.252,2.686.577a29.385,29.385,0,0,1,3.733.847,5.569,5.569,0,0,1,2.434,1.533,4.268,4.268,0,0,1,1.01,3.029,4.776,4.776,0,0,1-2.218,4.129,10.465,10.465,0,0,1-6.041,1.534A16.033,16.033,0,0,1,292.9,327.886Z" style="fill:#fff"/><path d="M325.993,311.117q2.148,2.109,2.146,6.185v11h-3.462V317.7a5.871,5.871,0,0,0-1.334-4.183,5.018,5.018,0,0,0-3.823-1.407,5.954,5.954,0,0,0-4.435,1.641,6.42,6.42,0,0,0-1.623,4.707V328.3H310V301.542h3.462v10.351a7.138,7.138,0,0,1,2.831-2.128,9.762,9.762,0,0,1,3.912-.758A7.893,7.893,0,0,1,325.993,311.117Z" style="fill:#fff"/><path d="M373.885,311.1q2.112,2.091,2.11,6.2v11h-3.462V317.7a6.032,6.032,0,0,0-1.28-4.183,4.7,4.7,0,0,0-3.661-1.407,5.481,5.481,0,0,0-4.183,1.641,6.6,6.6,0,0,0-1.551,4.707V328.3H358.4V317.7a6.032,6.032,0,0,0-1.28-4.183,4.7,4.7,0,0,0-3.661-1.407,5.481,5.481,0,0,0-4.183,1.641,6.6,6.6,0,0,0-1.551,4.707V328.3h-3.462V309.188h3.318v2.848a6.728,6.728,0,0,1,2.741-2.254,9.2,9.2,0,0,1,3.859-.775,8.462,8.462,0,0,1,3.967.9,6.268,6.268,0,0,1,2.668,2.632,7.341,7.341,0,0,1,3.011-2.6,9.827,9.827,0,0,1,4.346-.937A7.762,7.762,0,0,1,373.885,311.1Z" style="fill:#fff"/><path d="M400.193,309.188V328.3h-3.282v-2.885a6.959,6.959,0,0,1-2.759,2.29,8.6,8.6,0,0,1-3.732.812,8.342,8.342,0,0,1-6.023-2.111q-2.2-2.109-2.2-6.22v-11h3.462v10.6a5.929,5.929,0,0,0,1.335,4.2,4.983,4.983,0,0,0,3.822,1.425,5.708,5.708,0,0,0,4.328-1.659,6.509,6.509,0,0,0,1.587-4.689v-9.88Z" style="fill:#fff"/><path d="M417.538,327.183a5.189,5.189,0,0,1-1.875.992,7.883,7.883,0,0,1-2.308.343,6.132,6.132,0,0,1-4.472-1.551,5.927,5.927,0,0,1-1.586-4.437V312.036h-3.246v-2.848h3.25V305h3.461v4.184h5.482v2.848h-5.482v10.351a3.365,3.365,0,0,0,.776,2.38,2.886,2.886,0,0,0,2.218.829,4.172,4.172,0,0,0,2.705-.9Z" style="fill:#fff"/><path d="M439.536,309.188V328.3h-3.282v-2.885a6.959,6.959,0,0,1-2.759,2.29,8.6,8.6,0,0,1-3.732.812,8.346,8.346,0,0,1-6.023-2.111q-2.2-2.109-2.2-6.22v-11H425v10.6a5.936,5.936,0,0,0,1.334,4.2,4.983,4.983,0,0,0,3.822,1.425,5.708,5.708,0,0,0,4.328-1.659,6.509,6.509,0,0,0,1.587-4.689v-9.88Z" style="fill:#fff"/><path d="M459.172,310.954q2.109,1.948,2.109,5.807V328.3H458v-2.525a5.456,5.456,0,0,1-2.471,2.037,9.4,9.4,0,0,1-3.8.7,7.968,7.968,0,0,1-5.139-1.551,5.331,5.331,0,0,1-.09-8.133q1.839-1.531,5.842-1.532h5.482v-.686a4.414,4.414,0,0,0-1.3-3.426A5.475,5.475,0,0,0,452.7,312a10.1,10.1,0,0,0-3.317.56,8.548,8.548,0,0,0-2.741,1.5l-1.443-2.6a10.476,10.476,0,0,1,3.535-1.82,14.761,14.761,0,0,1,4.363-.632A8.645,8.645,0,0,1,459.172,310.954Zm-3.444,14.011a5.069,5.069,0,0,0,2.092-2.506V319.79h-5.338q-4.4,0-4.4,2.957a2.68,2.68,0,0,0,1.118,2.273,5.117,5.117,0,0,0,3.1.829A6.424,6.424,0,0,0,455.728,324.965Z" style="fill:#fff"/><path d="M467.7,301.542h3.462V328.3H467.7Z" style="fill:#fff"/><path d="M498.209,327.183a5.189,5.189,0,0,1-1.875.992,7.878,7.878,0,0,1-2.308.343,6.132,6.132,0,0,1-4.472-1.551,5.928,5.928,0,0,1-1.587-4.437V312.036h-3.245v-2.848h3.245V305h3.462v4.184h5.482v2.848h-5.482v10.351a3.365,3.365,0,0,0,.776,2.38,2.884,2.884,0,0,0,2.218.829,4.17,4.17,0,0,0,2.7-.9Z" style="fill:#fff"/><path d="M508.378,309.873a9.676,9.676,0,0,1,4.292-.866v3.354a6.565,6.565,0,0,0-.794-.036A5.825,5.825,0,0,0,507.459,314a6.638,6.638,0,0,0-1.605,4.778V328.3h-3.462V309.188h3.318V312.4A5.905,5.905,0,0,1,508.378,309.873Z" style="fill:#fff"/><path d="M534.992,309.188V328.3h-3.281v-2.885a6.967,6.967,0,0,1-2.759,2.29,8.607,8.607,0,0,1-3.733.812,8.341,8.341,0,0,1-6.021-2.111q-2.2-2.109-2.2-6.22v-11h3.461v10.6a5.925,5.925,0,0,0,1.336,4.2,4.981,4.981,0,0,0,3.822,1.425,5.711,5.711,0,0,0,4.328-1.659,6.523,6.523,0,0,0,1.586-4.689v-9.88Z" style="fill:#fff"/><path d="M542.565,327.886a9.86,9.86,0,0,1-3.39-1.605l1.443-2.741a10.348,10.348,0,0,0,3.065,1.443,12.589,12.589,0,0,0,3.642.541q4.545,0,4.544-2.6a1.681,1.681,0,0,0-.612-1.371,3.924,3.924,0,0,0-1.533-.74q-.918-.232-2.615-.522a25.563,25.563,0,0,1-3.768-.829,5.82,5.82,0,0,1-2.507-1.587,4.416,4.416,0,0,1-1.046-3.138,4.9,4.9,0,0,1,2.164-4.165A9.689,9.689,0,0,1,547.758,309a16.038,16.038,0,0,1,3.823.469,10.291,10.291,0,0,1,3.137,1.262l-1.478,2.741a9.938,9.938,0,0,0-5.518-1.515,6.375,6.375,0,0,0-3.354.722,2.177,2.177,0,0,0-1.153,1.911,1.822,1.822,0,0,0,.648,1.478,4.093,4.093,0,0,0,1.6.794q.957.252,2.687.577a29.37,29.37,0,0,1,3.732.847,5.569,5.569,0,0,1,2.434,1.533,4.268,4.268,0,0,1,1.01,3.029,4.773,4.773,0,0,1-2.218,4.129,10.46,10.46,0,0,1-6.04,1.534A16.033,16.033,0,0,1,542.565,327.886Z" style="fill:#fff"/><path d="M570.4,327.183a5.189,5.189,0,0,1-1.875.992,7.878,7.878,0,0,1-2.308.343,6.134,6.134,0,0,1-4.472-1.551,5.928,5.928,0,0,1-1.587-4.437V312.036h-3.245v-2.848h3.245V305h3.462v4.184H569.1v2.848h-5.482v10.351a3.354,3.354,0,0,0,.776,2.38,2.884,2.884,0,0,0,2.217.829,4.165,4.165,0,0,0,2.7-.9Z" style="fill:#fff"/><path d="M584.343,304.86a2.133,2.133,0,0,1-.668-1.587,2.194,2.194,0,0,1,.668-1.605A2.278,2.278,0,0,1,586.02,301a2.341,2.341,0,0,1,1.676.631,2.069,2.069,0,0,1,.668,1.569,2.226,2.226,0,0,1-.668,1.641,2.269,2.269,0,0,1-1.676.667A2.3,2.3,0,0,1,584.343,304.86Zm-.054,4.328h3.462V328.3h-3.462Z" style="fill:#fff"/><path d="M610.344,311.117q2.145,2.109,2.146,6.185v11h-3.462V317.7a5.871,5.871,0,0,0-1.334-4.183,5.018,5.018,0,0,0-3.823-1.407,5.956,5.956,0,0,0-4.436,1.641,6.415,6.415,0,0,0-1.622,4.707V328.3h-3.462V309.188h3.318v2.884A6.731,6.731,0,0,1,600.5,309.8a9.886,9.886,0,0,1,4.057-.794A7.9,7.9,0,0,1,610.344,311.117Z" style="fill:#fff"/><path d="M639.356,327.183a5.189,5.189,0,0,1-1.875.992,7.878,7.878,0,0,1-2.308.343,6.134,6.134,0,0,1-4.472-1.551,5.928,5.928,0,0,1-1.587-4.437V312.036h-3.245v-2.848h3.245V305h3.462v4.184h5.482v2.848h-5.482v10.351a3.365,3.365,0,0,0,.776,2.38,2.886,2.886,0,0,0,2.218.829,4.172,4.172,0,0,0,2.7-.9Z" style="fill:#fff"/><path d="M660.092,319.9H644.585a6.005,6.005,0,0,0,2.218,4.057,7.233,7.233,0,0,0,4.706,1.533,7.092,7.092,0,0,0,5.518-2.308l1.911,2.236a8.372,8.372,0,0,1-3.227,2.308,12.161,12.161,0,0,1-9.683-.451,8.881,8.881,0,0,1-3.625-3.48,9.988,9.988,0,0,1-1.28-5.049,10.157,10.157,0,0,1,1.244-5.013,8.932,8.932,0,0,1,3.426-3.48,9.758,9.758,0,0,1,4.923-1.244,9.563,9.563,0,0,1,4.886,1.244,8.738,8.738,0,0,1,3.354,3.48,10.6,10.6,0,0,1,1.208,5.122A9.62,9.62,0,0,1,660.092,319.9Zm-13.542-6.455a6.119,6.119,0,0,0-1.965,3.967h12.262a6.149,6.149,0,0,0-1.966-3.949A6.458,6.458,0,0,0,646.55,313.445Z" style="fill:#fff"/><path d="M670.947,309.873a9.689,9.689,0,0,1,4.292-.866v3.354a6.565,6.565,0,0,0-.794-.036A5.824,5.824,0,0,0,670.028,314a6.64,6.64,0,0,0-1.605,4.778V328.3h-3.462V309.188h3.318V312.4A5.905,5.905,0,0,1,670.947,309.873Z" style="fill:#fff"/><path d="M709.12,311.1q2.111,2.091,2.11,6.2v11h-3.462V317.7a6.026,6.026,0,0,0-1.281-4.183,4.7,4.7,0,0,0-3.66-1.407,5.481,5.481,0,0,0-4.183,1.641,6.6,6.6,0,0,0-1.551,4.707V328.3h-3.462V317.7a6.032,6.032,0,0,0-1.28-4.183,4.7,4.7,0,0,0-3.661-1.407,5.481,5.481,0,0,0-4.183,1.641,6.6,6.6,0,0,0-1.551,4.707V328.3h-3.462V309.188h3.318v2.848a6.728,6.728,0,0,1,2.741-2.254,9.2,9.2,0,0,1,3.859-.775,8.462,8.462,0,0,1,3.967.9,6.268,6.268,0,0,1,2.668,2.632,7.341,7.341,0,0,1,3.011-2.6A9.83,9.83,0,0,1,703.4,309,7.761,7.761,0,0,1,709.12,311.1Z" style="fill:#fff"/><path d="M718.586,327.886a9.86,9.86,0,0,1-3.39-1.605l1.443-2.741a10.348,10.348,0,0,0,3.065,1.443,12.589,12.589,0,0,0,3.642.541q4.545,0,4.544-2.6a1.681,1.681,0,0,0-.612-1.371,3.924,3.924,0,0,0-1.533-.74q-.92-.232-2.615-.522a25.576,25.576,0,0,1-3.769-.829,5.826,5.826,0,0,1-2.506-1.587,4.416,4.416,0,0,1-1.046-3.138,4.9,4.9,0,0,1,2.164-4.165A9.689,9.689,0,0,1,723.779,309a16.038,16.038,0,0,1,3.823.469,10.307,10.307,0,0,1,3.138,1.262l-1.479,2.741a9.936,9.936,0,0,0-5.518-1.515,6.379,6.379,0,0,0-3.354.722,2.177,2.177,0,0,0-1.153,1.911,1.822,1.822,0,0,0,.648,1.478,4.093,4.093,0,0,0,1.605.794q.955.252,2.687.577a29.37,29.37,0,0,1,3.732.847,5.569,5.569,0,0,1,2.434,1.533,4.268,4.268,0,0,1,1.01,3.029,4.773,4.773,0,0,1-2.218,4.129,10.46,10.46,0,0,1-6.04,1.534A16.033,16.033,0,0,1,718.586,327.886Z" style="fill:#fff"/><path d="M748.446,327.255a9.148,9.148,0,0,1-3.552-3.481,10.518,10.518,0,0,1,0-10.061,9.026,9.026,0,0,1,3.552-3.462,11.123,11.123,0,0,1,10.224,0,9.06,9.06,0,0,1,3.534,3.462,10.523,10.523,0,0,1,0,10.061,9.176,9.176,0,0,1-3.534,3.481A10.977,10.977,0,0,1,748.446,327.255Zm8.42-2.614a5.975,5.975,0,0,0,2.29-2.381,7.86,7.86,0,0,0,0-7.032,5.85,5.85,0,0,0-2.29-2.362,6.973,6.973,0,0,0-6.6,0,5.985,5.985,0,0,0-2.308,2.362,7.717,7.717,0,0,0,0,7.032,6.113,6.113,0,0,0,2.308,2.381A6.849,6.849,0,0,0,756.866,324.641Z" style="fill:#fff"/><path d="M772.174,307.528v1.66h5.554v2.848h-5.481V328.3h-3.462V312.036h-3.246v-2.848h3.246v-1.7a6.106,6.106,0,0,1,1.659-4.508,6.289,6.289,0,0,1,4.652-1.658,7.864,7.864,0,0,1,2.163.288,5.3,5.3,0,0,1,1.731.829l-1.045,2.633a4.314,4.314,0,0,0-2.669-.9Q772.174,304.175,772.174,307.528Z" style="fill:#fff"/><path d="M808.742,301.542V328.3h-3.317v-3.03a7.487,7.487,0,0,1-2.921,2.417,9.061,9.061,0,0,1-3.9.83,10.055,10.055,0,0,1-4.977-1.227,8.794,8.794,0,0,1-3.444-3.444,11.056,11.056,0,0,1,0-10.188,8.828,8.828,0,0,1,3.444-3.426,10.056,10.056,0,0,1,4.977-1.226,9.189,9.189,0,0,1,3.787.775,7.368,7.368,0,0,1,2.884,2.29v-10.53Zm-6.563,23.1a5.942,5.942,0,0,0,2.308-2.381,7.86,7.86,0,0,0,0-7.032,5.813,5.813,0,0,0-2.308-2.362,6.936,6.936,0,0,0-6.581,0,5.971,5.971,0,0,0-2.308,2.362,7.717,7.717,0,0,0,0,7.032,6.1,6.1,0,0,0,2.308,2.381A6.817,6.817,0,0,0,802.179,324.642Z" style="fill:#fff"/><path d="M828.342,310.954q2.112,1.948,2.11,5.807V328.3h-3.281v-2.525a5.467,5.467,0,0,1-2.471,2.037,9.4,9.4,0,0,1-3.8.7,7.968,7.968,0,0,1-5.139-1.551,5.331,5.331,0,0,1-.09-8.133q1.839-1.531,5.841-1.532h5.482v-.686a4.414,4.414,0,0,0-1.3-3.426,5.476,5.476,0,0,0-3.823-1.19,10.1,10.1,0,0,0-3.318.56,8.554,8.554,0,0,0-2.74,1.5l-1.443-2.6a10.476,10.476,0,0,1,3.535-1.82,14.761,14.761,0,0,1,4.363-.632A8.642,8.642,0,0,1,828.342,310.954ZM824.9,324.965a5.062,5.062,0,0,0,2.091-2.506V319.79h-5.337q-4.4,0-4.4,2.957a2.684,2.684,0,0,0,1.118,2.273,5.117,5.117,0,0,0,3.1.829A6.424,6.424,0,0,0,824.9,324.965Z" style="fill:#fff"/><path d="M847.617,327.183a5.189,5.189,0,0,1-1.875.992,7.878,7.878,0,0,1-2.308.343,6.131,6.131,0,0,1-4.471-1.551,5.924,5.924,0,0,1-1.587-4.437V312.036h-3.245v-2.848h3.245V305h3.462v4.184h5.481v2.848h-5.481v10.351a3.36,3.36,0,0,0,.775,2.38,2.886,2.886,0,0,0,2.218.829,4.174,4.174,0,0,0,2.7-.9Z" style="fill:#fff"/><path d="M864.838,310.954q2.109,1.948,2.109,5.807V328.3h-3.281v-2.525a5.467,5.467,0,0,1-2.471,2.037,9.4,9.4,0,0,1-3.8.7,7.968,7.968,0,0,1-5.139-1.551,5.332,5.332,0,0,1-.09-8.133Q854,317.3,858,317.3h5.482v-.686a4.414,4.414,0,0,0-1.3-3.426A5.476,5.476,0,0,0,858.36,312a10.1,10.1,0,0,0-3.318.56,8.548,8.548,0,0,0-2.741,1.5l-1.442-2.6a10.462,10.462,0,0,1,3.534-1.82,14.761,14.761,0,0,1,4.363-.632A8.651,8.651,0,0,1,864.838,310.954Zm-3.445,14.011a5.055,5.055,0,0,0,2.092-2.506V319.79h-5.337q-4.4,0-4.4,2.957a2.678,2.678,0,0,0,1.118,2.273,5.117,5.117,0,0,0,3.1.829,6.421,6.421,0,0,0,3.427-.884Z" style="fill:#fff"/><path d="M884.041,327.886a9.86,9.86,0,0,1-3.39-1.605l1.442-2.741a10.353,10.353,0,0,0,3.066,1.443,12.587,12.587,0,0,0,3.641.541q4.545,0,4.544-2.6a1.684,1.684,0,0,0-.612-1.371,3.91,3.91,0,0,0-1.533-.74q-.918-.232-2.614-.522a25.576,25.576,0,0,1-3.769-.829,5.829,5.829,0,0,1-2.507-1.587,4.416,4.416,0,0,1-1.046-3.138,4.9,4.9,0,0,1,2.164-4.165A9.689,9.689,0,0,1,889.233,309a15.993,15.993,0,0,1,3.823.469,10.312,10.312,0,0,1,3.138,1.262l-1.478,2.741a9.938,9.938,0,0,0-5.518-1.515,6.38,6.38,0,0,0-3.355.722,2.177,2.177,0,0,0-1.153,1.911,1.819,1.819,0,0,0,.649,1.478,4.08,4.08,0,0,0,1.6.794q.957.252,2.687.577a29.409,29.409,0,0,1,3.732.847,5.569,5.569,0,0,1,2.434,1.533,4.271,4.271,0,0,1,1.009,3.029,4.775,4.775,0,0,1-2.217,4.129,10.462,10.462,0,0,1-6.04,1.534A16.023,16.023,0,0,1,884.041,327.886Z" style="fill:#fff"/><path d="M917.128,311.117q2.145,2.109,2.146,6.185v11h-3.462V317.7a5.861,5.861,0,0,0-1.335-4.183,5.014,5.014,0,0,0-3.822-1.407,5.956,5.956,0,0,0-4.436,1.641,6.42,6.42,0,0,0-1.623,4.707V328.3h-3.462V301.542H904.6v10.351a7.138,7.138,0,0,1,2.831-2.128,9.753,9.753,0,0,1,3.913-.758A7.9,7.9,0,0,1,917.128,311.117Z" style="fill:#fff"/><path d="M938.729,310.954q2.112,1.948,2.111,5.807V328.3h-3.283v-2.525a5.462,5.462,0,0,1-2.469,2.037,9.4,9.4,0,0,1-3.8.7,7.971,7.971,0,0,1-5.14-1.551,5.332,5.332,0,0,1-.7-7.509,5.2,5.2,0,0,1,.609-.624Q927.9,317.3,931.9,317.3h5.483v-.686a4.418,4.418,0,0,0-1.3-3.426,5.473,5.473,0,0,0-3.822-1.19,10.115,10.115,0,0,0-3.319.56,8.554,8.554,0,0,0-2.74,1.5l-1.442-2.6a10.462,10.462,0,0,1,3.534-1.82,14.761,14.761,0,0,1,4.363-.632A8.644,8.644,0,0,1,938.729,310.954Zm-3.443,14.011a5.064,5.064,0,0,0,2.092-2.506V319.79H932.04q-4.4,0-4.4,2.957a2.678,2.678,0,0,0,1.118,2.273,5.117,5.117,0,0,0,3.1.829,6.424,6.424,0,0,0,3.428-.884Z" style="fill:#fff"/><path d="M953.245,309.873a9.688,9.688,0,0,1,4.291-.866v3.354a6.558,6.558,0,0,0-.793-.036A5.826,5.826,0,0,0,952.325,314a6.642,6.642,0,0,0-1.6,4.778V328.3h-3.462V309.188h3.318V312.4A5.907,5.907,0,0,1,953.245,309.873Z" style="fill:#fff"/><path d="M961.845,304.86a2.133,2.133,0,0,1-.667-1.587,2.193,2.193,0,0,1,.667-1.605,2.278,2.278,0,0,1,1.677-.667,2.343,2.343,0,0,1,1.677.631,2.069,2.069,0,0,1,.668,1.569,2.226,2.226,0,0,1-.668,1.641,2.271,2.271,0,0,1-1.677.667A2.312,2.312,0,0,1,961.845,304.86Zm-.053,4.328h3.462V328.3h-3.462Z" style="fill:#fff"/><path d="M987.846,311.117q2.145,2.109,2.146,6.185v11H986.53V317.7a5.871,5.871,0,0,0-1.334-4.183,5.018,5.018,0,0,0-3.823-1.407,5.956,5.956,0,0,0-4.436,1.641,6.42,6.42,0,0,0-1.623,4.707V328.3h-3.462V309.188h3.319v2.884A6.724,6.724,0,0,1,978,309.8a9.881,9.881,0,0,1,4.056-.794A7.892,7.892,0,0,1,987.846,311.117Z" style="fill:#fff"/><path d="M1014.8,309.188V325.7q0,5.013-2.488,7.411t-7.429,2.4a17.764,17.764,0,0,1-5.157-.74,10.222,10.222,0,0,1-3.967-2.11L997.421,330a9.79,9.79,0,0,0,3.3,1.821,12.53,12.53,0,0,0,4.057.667,6.808,6.808,0,0,0,4.959-1.587,6.531,6.531,0,0,0,1.605-4.833V324.55a7.681,7.681,0,0,1-3.011,2.219,10.055,10.055,0,0,1-3.877.739,10.433,10.433,0,0,1-4.959-1.173,8.708,8.708,0,0,1-3.48-3.281,9.818,9.818,0,0,1,0-9.629,8.607,8.607,0,0,1,3.48-3.264,10.587,10.587,0,0,1,4.959-1.154,10.122,10.122,0,0,1,4.02.794,7.448,7.448,0,0,1,3.048,2.344v-2.957Zm-6.581,14.5a5.86,5.86,0,0,0,2.344-2.218,6.182,6.182,0,0,0,.848-3.228,5.854,5.854,0,0,0-1.839-4.49,7.42,7.42,0,0,0-9.484,0,5.854,5.854,0,0,0-1.84,4.49,6.2,6.2,0,0,0,.847,3.228,5.873,5.873,0,0,0,2.344,2.218,7.17,7.17,0,0,0,3.408.794,7.079,7.079,0,0,0,3.373-.8Z" style="fill:#fff"/><path d="M1044.139,310.954q2.112,1.948,2.111,5.807V328.3h-3.283v-2.525a5.462,5.462,0,0,1-2.469,2.037,9.412,9.412,0,0,1-3.805.7,7.971,7.971,0,0,1-5.14-1.551,5.334,5.334,0,0,1-.089-8.133q1.839-1.531,5.841-1.532h5.483v-.686a4.418,4.418,0,0,0-1.3-3.426,5.473,5.473,0,0,0-3.822-1.19,10.106,10.106,0,0,0-3.319.56,8.554,8.554,0,0,0-2.74,1.5l-1.442-2.6a10.462,10.462,0,0,1,3.534-1.82,14.761,14.761,0,0,1,4.363-.632A8.64,8.64,0,0,1,1044.139,310.954Zm-3.443,14.011a5.069,5.069,0,0,0,2.092-2.506V319.79h-5.338q-4.4,0-4.4,2.957a2.681,2.681,0,0,0,1.119,2.273,5.11,5.11,0,0,0,3.1.829,6.418,6.418,0,0,0,3.432-.884Z" style="fill:#fff"/><path d="M1068.662,311.117q2.145,2.109,2.146,6.185v11h-3.462V317.7a5.861,5.861,0,0,0-1.335-4.183,5.014,5.014,0,0,0-3.822-1.407,5.954,5.954,0,0,0-4.435,1.641,6.415,6.415,0,0,0-1.623,4.707V328.3h-3.462V309.188h3.317v2.884a6.74,6.74,0,0,1,2.831-2.271,9.886,9.886,0,0,1,4.057-.794A7.9,7.9,0,0,1,1068.662,311.117Z" style="fill:#fff"/><path d="M1095.366,301.542V328.3h-3.317v-3.03a7.487,7.487,0,0,1-2.921,2.417,9.054,9.054,0,0,1-3.895.83,10.055,10.055,0,0,1-4.977-1.227,8.781,8.781,0,0,1-3.444-3.444,11.056,11.056,0,0,1,0-10.188,8.821,8.821,0,0,1,3.444-3.426,10.054,10.054,0,0,1,4.977-1.226,9.165,9.165,0,0,1,3.786.775,7.371,7.371,0,0,1,2.885,2.29v-10.53Zm-6.564,23.1a5.944,5.944,0,0,0,2.309-2.381,7.866,7.866,0,0,0,0-7.032,5.815,5.815,0,0,0-2.309-2.362,6.936,6.936,0,0,0-6.581,0,5.982,5.982,0,0,0-2.307,2.362,7.717,7.717,0,0,0,0,7.032,6.1,6.1,0,0,0,2.307,2.381A6.817,6.817,0,0,0,1088.8,324.642Z" style="fill:#fff"/><path d="M97.521,348.521v26.758H94.2V372.25a7.493,7.493,0,0,1-2.921,2.416,9.047,9.047,0,0,1-3.9.83A10.056,10.056,0,0,1,82.4,374.27a8.8,8.8,0,0,1-3.444-3.445,11.053,11.053,0,0,1,0-10.187,8.828,8.828,0,0,1,3.444-3.426,10.057,10.057,0,0,1,4.977-1.227,9.152,9.152,0,0,1,3.787.776,7.339,7.339,0,0,1,2.885,2.29v-10.53Zm-6.564,23.1a5.929,5.929,0,0,0,2.308-2.381,7.86,7.86,0,0,0,0-7.032,5.816,5.816,0,0,0-2.308-2.361,6.936,6.936,0,0,0-6.581,0,5.969,5.969,0,0,0-2.308,2.361,7.717,7.717,0,0,0,0,7.032,6.086,6.086,0,0,0,2.308,2.381A6.806,6.806,0,0,0,90.957,371.621Z" style="fill:#fff"/><path d="M121.286,366.877H105.779A6,6,0,0,0,108,370.934a7.238,7.238,0,0,0,4.706,1.533,7.088,7.088,0,0,0,5.518-2.309l1.911,2.237A8.364,8.364,0,0,1,116.9,374.7a12.165,12.165,0,0,1-9.683-.45,8.862,8.862,0,0,1-3.624-3.481,9.987,9.987,0,0,1-1.28-5.048,10.147,10.147,0,0,1,1.244-5.013,8.935,8.935,0,0,1,3.426-3.481,9.758,9.758,0,0,1,4.923-1.244,9.563,9.563,0,0,1,4.886,1.244,8.754,8.754,0,0,1,3.354,3.481,10.6,10.6,0,0,1,1.208,5.121A9.671,9.671,0,0,1,121.286,366.877Zm-13.542-6.455a6.11,6.11,0,0,0-1.965,3.967h12.262a6.151,6.151,0,0,0-1.966-3.95A6.456,6.456,0,0,0,107.744,360.422Z" style="fill:#fff"/><path d="M142.708,356.166l-8.367,19.113h-3.534l-8.367-19.113h3.607l6.563,15.327,6.708-15.327Z" style="fill:#fff"/><path d="M162.614,366.877H147.107a6,6,0,0,0,2.217,4.057,7.243,7.243,0,0,0,4.707,1.533,7.088,7.088,0,0,0,5.518-2.309l1.911,2.237a8.366,8.366,0,0,1-3.228,2.307,12.165,12.165,0,0,1-9.683-.45,8.862,8.862,0,0,1-3.624-3.481,9.974,9.974,0,0,1-1.28-5.048,10.144,10.144,0,0,1,1.244-5.013,8.928,8.928,0,0,1,3.426-3.481,9.767,9.767,0,0,1,4.922-1.244,9.567,9.567,0,0,1,4.887,1.244,8.754,8.754,0,0,1,3.354,3.481,10.6,10.6,0,0,1,1.208,5.121A9.621,9.621,0,0,1,162.614,366.877Zm-13.542-6.455a6.107,6.107,0,0,0-1.965,3.967h12.261a6.153,6.153,0,0,0-1.965-3.95,6.456,6.456,0,0,0-8.331-.017Z" style="fill:#fff"/><path d="M167.483,348.521h3.462v26.758h-3.462Z" style="fill:#fff"/><path d="M180.609,374.233a9.138,9.138,0,0,1-3.552-3.48,10.531,10.531,0,0,1,0-10.062,9.039,9.039,0,0,1,3.552-3.462,11.123,11.123,0,0,1,10.224,0,9.074,9.074,0,0,1,3.534,3.462,10.525,10.525,0,0,1,0,10.062,9.181,9.181,0,0,1-3.534,3.48A10.977,10.977,0,0,1,180.609,374.233Zm8.42-2.614a5.97,5.97,0,0,0,2.291-2.381,7.866,7.866,0,0,0,0-7.032,5.85,5.85,0,0,0-2.291-2.361,6.973,6.973,0,0,0-6.6,0,5.982,5.982,0,0,0-2.308,2.361,7.723,7.723,0,0,0,0,7.032,6.1,6.1,0,0,0,2.308,2.381A6.843,6.843,0,0,0,189.029,371.619Z" style="fill:#fff"/><path d="M215.554,357.212A8.815,8.815,0,0,1,219,360.638a11.048,11.048,0,0,1,0,10.187,8.783,8.783,0,0,1-3.444,3.445,10.054,10.054,0,0,1-4.977,1.226,8.854,8.854,0,0,1-3.768-.794,7.84,7.84,0,0,1-2.9-2.307v9.88h-3.461V356.166h3.317V359.2a7.357,7.357,0,0,1,2.921-2.4,9.22,9.22,0,0,1,3.9-.812A10.047,10.047,0,0,1,215.554,357.212Zm-1.965,14.407a6.106,6.106,0,0,0,2.308-2.381,7.717,7.717,0,0,0,0-7.032,5.975,5.975,0,0,0-2.308-2.361,6.565,6.565,0,0,0-3.3-.83,6.4,6.4,0,0,0-3.264.847,6.142,6.142,0,0,0-2.308,2.363,7.05,7.05,0,0,0-.848,3.5,7.273,7.273,0,0,0,.83,3.515,5.935,5.935,0,0,0,2.308,2.381,6.808,6.808,0,0,0,6.582,0Z" style="fill:#fff"/><path d="M252.77,348.521v26.758h-3.318V372.25a7.493,7.493,0,0,1-2.921,2.416,9.047,9.047,0,0,1-3.9.83,10.056,10.056,0,0,1-4.977-1.226,8.794,8.794,0,0,1-3.443-3.445,11.042,11.042,0,0,1,0-10.187,8.825,8.825,0,0,1,3.443-3.426,10.057,10.057,0,0,1,4.977-1.227,9.152,9.152,0,0,1,3.787.776,7.339,7.339,0,0,1,2.885,2.29v-10.53Zm-6.564,23.1a5.929,5.929,0,0,0,2.308-2.381,7.86,7.86,0,0,0,0-7.032,5.816,5.816,0,0,0-2.308-2.361,6.936,6.936,0,0,0-6.581,0,5.982,5.982,0,0,0-2.308,2.361,7.717,7.717,0,0,0,0,7.032,6.1,6.1,0,0,0,2.308,2.381A6.806,6.806,0,0,0,246.206,371.621Z" style="fill:#fff"/><path d="M272.37,357.933q2.112,1.947,2.11,5.806v11.54H271.2v-2.524a5.471,5.471,0,0,1-2.47,2.037,9.4,9.4,0,0,1-3.8.7,7.962,7.962,0,0,1-5.139-1.551,5.331,5.331,0,0,1-.7-7.5,5.418,5.418,0,0,1,.613-.627q1.839-1.533,5.842-1.533h5.482V363.6a4.411,4.411,0,0,0-1.3-3.426,5.473,5.473,0,0,0-3.822-1.19,10.13,10.13,0,0,0-3.318.559,8.548,8.548,0,0,0-2.741,1.5l-1.442-2.6a10.483,10.483,0,0,1,3.534-1.821,14.761,14.761,0,0,1,4.363-.632A8.645,8.645,0,0,1,272.37,357.933Zm-3.444,14.01a5.06,5.06,0,0,0,2.092-2.5v-2.669H265.68q-4.4,0-4.4,2.957A2.678,2.678,0,0,0,262.4,372a5.11,5.11,0,0,0,3.1.829,6.425,6.425,0,0,0,3.425-.886Z" style="fill:#fff"/><path d="M291.645,374.161a5.151,5.151,0,0,1-1.875.992,7.844,7.844,0,0,1-2.308.343,6.128,6.128,0,0,1-4.472-1.551,5.924,5.924,0,0,1-1.587-4.436V359.015h-3.245v-2.849H281.4v-4.184h3.462v4.184h5.482v2.849h-5.482v10.35a3.365,3.365,0,0,0,.776,2.38,2.884,2.884,0,0,0,2.218.829,4.175,4.175,0,0,0,2.7-.9Z" style="fill:#fff"/><path d="M308.864,357.933q2.111,1.947,2.11,5.806v11.54h-3.281v-2.524a5.473,5.473,0,0,1-2.471,2.037,9.4,9.4,0,0,1-3.8.7,7.971,7.971,0,0,1-5.14-1.551,5.33,5.33,0,0,1-.089-8.132q1.839-1.533,5.841-1.533h5.482V363.6a4.411,4.411,0,0,0-1.3-3.426,5.476,5.476,0,0,0-3.823-1.19,10.13,10.13,0,0,0-3.318.559,8.554,8.554,0,0,0-2.74,1.5l-1.443-2.6a10.492,10.492,0,0,1,3.534-1.821,14.762,14.762,0,0,1,4.364-.632A8.644,8.644,0,0,1,308.864,357.933Zm-3.443,14.01a5.058,5.058,0,0,0,2.091-2.5v-2.669h-5.337q-4.4,0-4.4,2.957A2.678,2.678,0,0,0,298.893,372a5.11,5.11,0,0,0,3.1.829,6.415,6.415,0,0,0,3.428-.886Z" style="fill:#fff"/><path d="M333.08,356.852a9.676,9.676,0,0,1,4.292-.867v3.355a6.565,6.565,0,0,0-.794-.036,5.821,5.821,0,0,0-4.417,1.676,6.642,6.642,0,0,0-1.605,4.779v9.52h-3.462V356.166h3.318v3.21A5.9,5.9,0,0,1,333.08,356.852Z" style="fill:#fff"/><path d="M358.649,366.877H343.142a6.005,6.005,0,0,0,2.218,4.057,7.238,7.238,0,0,0,4.706,1.533,7.088,7.088,0,0,0,5.518-2.309L357.5,372.4a8.355,8.355,0,0,1-3.228,2.307,12.165,12.165,0,0,1-9.683-.45,8.862,8.862,0,0,1-3.624-3.481,9.987,9.987,0,0,1-1.28-5.048,10.133,10.133,0,0,1,1.244-5.013,8.935,8.935,0,0,1,3.426-3.481,9.758,9.758,0,0,1,4.923-1.244,9.563,9.563,0,0,1,4.886,1.244,8.754,8.754,0,0,1,3.354,3.481,10.6,10.6,0,0,1,1.208,5.121A9.621,9.621,0,0,1,358.649,366.877Zm-13.542-6.455a6.107,6.107,0,0,0-1.965,3.967H355.4a6.146,6.146,0,0,0-1.965-3.95,6.456,6.456,0,0,0-8.331-.017Z" style="fill:#fff"/><path d="M363.517,348.521h3.462v26.758h-3.462Z" style="fill:#fff"/><path d="M386.615,357.933q2.112,1.947,2.11,5.806v11.54h-3.281v-2.524a5.473,5.473,0,0,1-2.471,2.037,9.4,9.4,0,0,1-3.8.7,7.965,7.965,0,0,1-5.14-1.551,5.33,5.33,0,0,1-.089-8.132q1.839-1.533,5.841-1.533h5.482V363.6a4.411,4.411,0,0,0-1.3-3.426,5.476,5.476,0,0,0-3.823-1.19,10.13,10.13,0,0,0-3.318.559,8.554,8.554,0,0,0-2.74,1.5l-1.443-2.6a10.492,10.492,0,0,1,3.534-1.821,14.762,14.762,0,0,1,4.364-.632A8.644,8.644,0,0,1,386.615,357.933Zm-3.443,14.01a5.058,5.058,0,0,0,2.091-2.5v-2.669h-5.337q-4.4,0-4.4,2.957A2.678,2.678,0,0,0,376.644,372a5.11,5.11,0,0,0,3.1.829,6.415,6.415,0,0,0,3.428-.886Z" style="fill:#fff"/><path d="M405.89,374.161a5.151,5.151,0,0,1-1.875.992,7.844,7.844,0,0,1-2.308.343,6.126,6.126,0,0,1-4.471-1.551,5.921,5.921,0,0,1-1.587-4.436V359.015H392.4v-2.849h3.246v-4.184h3.462v4.184h5.481v2.849h-5.479v10.35a3.36,3.36,0,0,0,.775,2.38,2.884,2.884,0,0,0,2.218.829,4.175,4.175,0,0,0,2.7-.9Z" style="fill:#fff"/><path d="M426.627,366.877H411.119a6.009,6.009,0,0,0,2.218,4.057,7.241,7.241,0,0,0,4.707,1.533,7.086,7.086,0,0,0,5.517-2.309l1.911,2.237a8.37,8.37,0,0,1-3.227,2.307,12.165,12.165,0,0,1-9.683-.45,8.862,8.862,0,0,1-3.624-3.481,9.985,9.985,0,0,1-1.281-5.048,10.134,10.134,0,0,1,1.245-5.013,8.932,8.932,0,0,1,3.425-3.481,9.768,9.768,0,0,1,4.923-1.244,9.563,9.563,0,0,1,4.886,1.244,8.741,8.741,0,0,1,3.354,3.481,10.586,10.586,0,0,1,1.208,5.121A9.878,9.878,0,0,1,426.627,366.877Zm-13.542-6.455a6.113,6.113,0,0,0-1.966,3.967h12.262a6.151,6.151,0,0,0-1.966-3.95A6.456,6.456,0,0,0,413.085,360.422Z" style="fill:#fff"/><path d="M449.527,348.521v26.758h-3.318V372.25a7.493,7.493,0,0,1-2.921,2.416,9.039,9.039,0,0,1-3.9.83,10.056,10.056,0,0,1-4.977-1.226,8.8,8.8,0,0,1-3.444-3.445,11.053,11.053,0,0,1,0-10.187,8.821,8.821,0,0,1,3.444-3.426,10.057,10.057,0,0,1,4.977-1.227,9.152,9.152,0,0,1,3.787.776,7.339,7.339,0,0,1,2.885,2.29v-10.53Zm-6.564,23.1a5.929,5.929,0,0,0,2.308-2.381,7.86,7.86,0,0,0,0-7.032,5.816,5.816,0,0,0-2.308-2.361,6.936,6.936,0,0,0-6.581,0,5.969,5.969,0,0,0-2.308,2.361,7.717,7.717,0,0,0,0,7.032,6.093,6.093,0,0,0,2.308,2.381A6.806,6.806,0,0,0,442.963,371.621Z" style="fill:#fff"/><path d="M484.074,356.166v16.517q0,5.012-2.488,7.411t-7.429,2.4a17.8,17.8,0,0,1-5.157-.739,10.215,10.215,0,0,1-3.967-2.11l1.659-2.668a9.807,9.807,0,0,0,3.3,1.821,12.559,12.559,0,0,0,4.058.667,6.806,6.806,0,0,0,4.958-1.587,6.53,6.53,0,0,0,1.605-4.833V371.53a7.647,7.647,0,0,1-3.011,2.219,10.055,10.055,0,0,1-3.877.739,10.433,10.433,0,0,1-4.959-1.173,8.722,8.722,0,0,1-3.48-3.281,9.818,9.818,0,0,1,0-9.629,8.6,8.6,0,0,1,3.48-3.263,10.576,10.576,0,0,1,4.959-1.155,10.127,10.127,0,0,1,4.021.794,7.467,7.467,0,0,1,3.047,2.344v-2.957Zm-6.582,14.5a5.856,5.856,0,0,0,2.345-2.218,6.2,6.2,0,0,0,.847-3.227,5.85,5.85,0,0,0-1.839-4.49,7.42,7.42,0,0,0-9.484,0,5.854,5.854,0,0,0-1.84,4.49,6.188,6.188,0,0,0,.848,3.227,5.846,5.846,0,0,0,2.344,2.218,7.17,7.17,0,0,0,3.408.794,7.08,7.08,0,0,0,3.371-.8Z" style="fill:#fff"/><path d="M508.488,356.166v19.113h-3.281V372.4a6.967,6.967,0,0,1-2.759,2.29,8.59,8.59,0,0,1-3.732.811,8.341,8.341,0,0,1-6.023-2.11q-2.2-2.111-2.2-6.221v-11h3.462v10.6a5.94,5.94,0,0,0,1.335,4.2,4.981,4.981,0,0,0,3.822,1.425,5.7,5.7,0,0,0,4.328-1.66,6.507,6.507,0,0,0,1.587-4.688v-9.881Z" style="fill:#fff"/><path d="M515.142,351.839a2.133,2.133,0,0,1-.668-1.587,2.191,2.191,0,0,1,.668-1.606,2.278,2.278,0,0,1,1.677-.667,2.345,2.345,0,0,1,1.676.631,2.072,2.072,0,0,1,.668,1.57,2.224,2.224,0,0,1-.668,1.64,2.269,2.269,0,0,1-1.676.667A2.307,2.307,0,0,1,515.142,351.839Zm-.054,4.327h3.461v19.113h-3.461Z" style="fill:#fff"/><path d="M543.18,348.521v26.758h-3.318V372.25a7.493,7.493,0,0,1-2.921,2.416,9.035,9.035,0,0,1-3.894.83,10.056,10.056,0,0,1-4.977-1.226,8.8,8.8,0,0,1-3.444-3.445,11.053,11.053,0,0,1,0-10.187,8.821,8.821,0,0,1,3.444-3.426,10.055,10.055,0,0,1,4.977-1.227,9.15,9.15,0,0,1,3.786.776,7.339,7.339,0,0,1,2.885,2.29v-10.53Zm-6.564,23.1a5.929,5.929,0,0,0,2.308-2.381,7.86,7.86,0,0,0,0-7.032,5.816,5.816,0,0,0-2.308-2.361,6.936,6.936,0,0,0-6.581,0,5.982,5.982,0,0,0-2.308,2.361,7.723,7.723,0,0,0,0,7.032,6.1,6.1,0,0,0,2.308,2.381A6.806,6.806,0,0,0,536.616,371.621Z" style="fill:#fff"/><path d="M566.945,366.877H551.438a6.005,6.005,0,0,0,2.218,4.057,7.238,7.238,0,0,0,4.706,1.533,7.088,7.088,0,0,0,5.518-2.309l1.911,2.237a8.37,8.37,0,0,1-3.227,2.307,12.165,12.165,0,0,1-9.683-.45,8.862,8.862,0,0,1-3.624-3.481,9.985,9.985,0,0,1-1.281-5.048,10.147,10.147,0,0,1,1.244-5.013,8.941,8.941,0,0,1,3.426-3.481,9.758,9.758,0,0,1,4.923-1.244,9.563,9.563,0,0,1,4.886,1.244,8.754,8.754,0,0,1,3.354,3.481,10.6,10.6,0,0,1,1.208,5.121A9.621,9.621,0,0,1,566.945,366.877ZM553.4,360.422a6.119,6.119,0,0,0-1.965,3.967H563.7a6.151,6.151,0,0,0-1.966-3.95,6.456,6.456,0,0,0-8.331-.017Z" style="fill:#fff"/><path d="M571.814,348.521h3.462v26.758h-3.462Z" style="fill:#fff"/><path d="M581.929,351.839a2.134,2.134,0,0,1-.668-1.587,2.195,2.195,0,0,1,.668-1.606,2.278,2.278,0,0,1,1.677-.667,2.341,2.341,0,0,1,1.676.631,2.072,2.072,0,0,1,.668,1.57,2.224,2.224,0,0,1-.668,1.64,2.265,2.265,0,0,1-1.676.667A2.307,2.307,0,0,1,581.929,351.839Zm-.054,4.327h3.462v19.113h-3.462Z" style="fill:#fff"/><path d="M607.93,358.1q2.145,2.109,2.146,6.184v11h-3.462v-10.6a5.864,5.864,0,0,0-1.335-4.184,5.015,5.015,0,0,0-3.822-1.406,5.956,5.956,0,0,0-4.436,1.641,6.411,6.411,0,0,0-1.623,4.707v9.844h-3.462v-19.12h3.318v2.885a6.742,6.742,0,0,1,2.831-2.272,9.9,9.9,0,0,1,4.057-.794A7.894,7.894,0,0,1,607.93,358.1Z" style="fill:#fff"/><path d="M633.8,366.877H618.3a6,6,0,0,0,2.217,4.057,7.241,7.241,0,0,0,4.707,1.533,7.086,7.086,0,0,0,5.517-2.309l1.912,2.237a8.366,8.366,0,0,1-3.228,2.307,12.165,12.165,0,0,1-9.683-.45,8.862,8.862,0,0,1-3.624-3.481,9.974,9.974,0,0,1-1.28-5.048,10.133,10.133,0,0,1,1.244-5.013,8.928,8.928,0,0,1,3.426-3.481,9.767,9.767,0,0,1,4.922-1.244,9.567,9.567,0,0,1,4.887,1.244,8.754,8.754,0,0,1,3.354,3.481,10.6,10.6,0,0,1,1.208,5.121A9.63,9.63,0,0,1,633.8,366.877Zm-13.542-6.455a6.107,6.107,0,0,0-1.965,3.967h12.261a6.147,6.147,0,0,0-1.966-3.95,6.456,6.456,0,0,0-8.33-.017Z" style="fill:#fff"/><path d="M639.647,374.864a9.884,9.884,0,0,1-3.39-1.6l1.442-2.741a10.378,10.378,0,0,0,3.066,1.443,12.623,12.623,0,0,0,3.642.541q4.543,0,4.544-2.6a1.685,1.685,0,0,0-.613-1.371,3.888,3.888,0,0,0-1.533-.739q-.918-.233-2.614-.523a25.576,25.576,0,0,1-3.769-.829,5.786,5.786,0,0,1-2.506-1.587,4.414,4.414,0,0,1-1.046-3.137,4.9,4.9,0,0,1,2.164-4.165,9.69,9.69,0,0,1,5.806-1.57,16.029,16.029,0,0,1,3.822.469,10.314,10.314,0,0,1,3.138,1.263l-1.479,2.74a9.932,9.932,0,0,0-5.517-1.515,6.386,6.386,0,0,0-3.354.722,2.176,2.176,0,0,0-1.154,1.911,1.822,1.822,0,0,0,.649,1.479,4.093,4.093,0,0,0,1.6.794q.957.252,2.686.577a29.211,29.211,0,0,1,3.733.846,5.562,5.562,0,0,1,2.434,1.534,4.263,4.263,0,0,1,1.01,3.029,4.776,4.776,0,0,1-2.218,4.129,10.472,10.472,0,0,1-6.041,1.533A15.99,15.99,0,0,1,639.647,374.864Z" style="fill:#fff"/><path d="M655.839,374.792a2.389,2.389,0,0,1-.722-1.784,2.352,2.352,0,0,1,.722-1.75,2.393,2.393,0,0,1,1.731-.7,2.308,2.308,0,0,1,1.7.685,2.619,2.619,0,0,1-.018,3.552,2.287,2.287,0,0,1-1.677.7A2.388,2.388,0,0,1,655.839,374.792Z" style="fill:#fff"/></g></g></g></g><g style="isolation:isolate"><path d="M89.85,83.385H98.6v37.793H89.85Z" style="fill:#fff"/><path d="M133.338,94.938q3.321,3.24,3.32,9.611v16.629h-8.422V105.845a7.58,7.58,0,0,0-1.512-5.157,5.547,5.547,0,0,0-4.373-1.7,6.7,6.7,0,0,0-5.075,1.97q-1.89,1.971-1.89,5.858v14.362h-8.422V92.131h8.044v3.4a11.167,11.167,0,0,1,4.157-2.835,14.487,14.487,0,0,1,5.454-1A11.957,11.957,0,0,1,133.338,94.938Z" style="fill:#fff"/><path d="M150.29,119.693a14.337,14.337,0,0,1-5.777-5.318,15.381,15.381,0,0,1,0-15.441,14.35,14.35,0,0,1,5.777-5.318,17.867,17.867,0,0,1,8.342-1.917,16.177,16.177,0,0,1,8.018,1.917,11.375,11.375,0,0,1,4.994,5.48l-6.533,3.509a7.142,7.142,0,0,0-6.533-4,7.4,7.4,0,0,0-5.454,2.16,9.1,9.1,0,0,0,0,11.769,7.393,7.393,0,0,0,5.454,2.16,7.069,7.069,0,0,0,6.533-4l6.533,3.563a11.6,11.6,0,0,1-4.994,5.4,15.986,15.986,0,0,1-8.018,1.943A17.854,17.854,0,0,1,150.29,119.693Z" style="fill:#fff"/><path d="M205.764,92.131v29.047h-7.99v-3.455a11.187,11.187,0,0,1-4,2.888,12.588,12.588,0,0,1-5.022,1q-5.722,0-9.07-3.293t-3.347-9.772V92.131h8.422V107.3q0,7.017,5.885,7.018a6.324,6.324,0,0,0,4.859-1.97q1.836-1.971,1.836-5.859V92.131Z" style="fill:#fff"/><path d="M213.593,81.117h8.422v40.061h-8.422Z" style="fill:#fff"/><path d="M235.539,119.693a14.337,14.337,0,0,1-5.777-5.318,15.375,15.375,0,0,1,0-15.441,14.35,14.35,0,0,1,5.777-5.318A17.863,17.863,0,0,1,243.88,91.7a16.174,16.174,0,0,1,8.018,1.917,11.375,11.375,0,0,1,4.994,5.48l-6.533,3.509a7.142,7.142,0,0,0-6.532-4,7.394,7.394,0,0,0-5.454,2.16,9.1,9.1,0,0,0,0,11.769,7.39,7.39,0,0,0,5.454,2.16,7.066,7.066,0,0,0,6.532-4l6.533,3.563a11.6,11.6,0,0,1-4.994,5.4,15.983,15.983,0,0,1-8.018,1.943A17.85,17.85,0,0,1,235.539,119.693Z" style="fill:#fff"/><path d="M283.832,94.912q3.618,3.213,3.619,9.691v16.575h-7.883v-3.617q-2.376,4.048-8.855,4.048a13.744,13.744,0,0,1-5.8-1.133,8.648,8.648,0,0,1-3.753-3.131,8.145,8.145,0,0,1-1.295-4.535,7.565,7.565,0,0,1,3.05-6.372q3.05-2.319,9.421-2.321h6.695a5.37,5.37,0,0,0-1.674-4.238,7.372,7.372,0,0,0-5.021-1.485,14.653,14.653,0,0,0-4.562.729,12.091,12.091,0,0,0-3.807,1.97l-3.023-5.885a18.262,18.262,0,0,1,5.7-2.591,25.508,25.508,0,0,1,6.83-.918Q280.214,91.7,283.832,94.912Zm-7.18,20.03A5.471,5.471,0,0,0,279.028,112V109.03H273.25q-5.183,0-5.182,3.4A3.031,3.031,0,0,0,269.336,115a5.714,5.714,0,0,0,3.483.944A7.332,7.332,0,0,0,276.652,114.942Z" style="fill:#fff"/><path d="M313.8,119.774a8.616,8.616,0,0,1-3.05,1.376,15.431,15.431,0,0,1-3.807.459q-5.183,0-8.018-2.645t-2.834-7.775V99.258h-4.481V92.779h4.481V85.707h8.423v7.072h7.235v6.479H304.51v11.824a3.962,3.962,0,0,0,.945,2.834,3.494,3.494,0,0,0,2.672,1,5.412,5.412,0,0,0,3.4-1.08Z" style="fill:#fff"/><path d="M345.92,109.03H323.947a6.835,6.835,0,0,0,2.807,4.265,9.29,9.29,0,0,0,5.507,1.566,11.154,11.154,0,0,0,4.023-.674,9.791,9.791,0,0,0,3.266-2.133l4.481,4.858q-4.1,4.7-11.986,4.7a18.955,18.955,0,0,1-8.692-1.916,14.035,14.035,0,0,1-5.831-5.318,14.652,14.652,0,0,1-2.052-7.721,14.844,14.844,0,0,1,2.025-7.693,14.182,14.182,0,0,1,5.561-5.345,17.214,17.214,0,0,1,15.63-.081,13.415,13.415,0,0,1,5.426,5.264,15.706,15.706,0,0,1,1.97,7.964Q346.082,106.924,345.92,109.03Zm-19.706-9.34a6.9,6.9,0,0,0-2.376,4.427h14.308a6.966,6.966,0,0,0-2.375-4.4,7.1,7.1,0,0,0-4.752-1.647A7.252,7.252,0,0,0,326.214,99.69Z" style="fill:#fff"/><path d="M385.71,119.774a8.616,8.616,0,0,1-3.05,1.376,15.426,15.426,0,0,1-3.807.459q-5.182,0-8.018-2.645T368,111.189V99.258H363.52V92.779H368V85.707h8.423v7.072h7.235v6.479h-7.235v11.824a3.962,3.962,0,0,0,.945,2.834,3.5,3.5,0,0,0,2.672,1,5.41,5.41,0,0,0,3.4-1.08Z" style="fill:#fff"/><path d="M416.835,94.938q3.32,3.24,3.321,9.611v16.629h-8.423V105.845a7.575,7.575,0,0,0-1.512-5.157,5.547,5.547,0,0,0-4.373-1.7,6.7,6.7,0,0,0-5.075,1.97q-1.89,1.971-1.89,5.858v14.362h-8.422V81.117h8.422V95.155a11.2,11.2,0,0,1,4.05-2.565,14.642,14.642,0,0,1,5.183-.891A11.956,11.956,0,0,1,416.835,94.938Z" style="fill:#fff"/><path d="M456.382,109.03H434.409a6.835,6.835,0,0,0,2.807,4.265,9.29,9.29,0,0,0,5.507,1.566,11.154,11.154,0,0,0,4.023-.674,9.8,9.8,0,0,0,3.266-2.133l4.481,4.858q-4.1,4.7-11.986,4.7a18.952,18.952,0,0,1-8.692-1.916,14.035,14.035,0,0,1-5.831-5.318,14.652,14.652,0,0,1-2.052-7.721,14.853,14.853,0,0,1,2.024-7.693,14.191,14.191,0,0,1,5.562-5.345,17.214,17.214,0,0,1,15.63-.081,13.415,13.415,0,0,1,5.426,5.264,15.706,15.706,0,0,1,1.97,7.964Q456.544,106.924,456.382,109.03Zm-19.706-9.34a6.9,6.9,0,0,0-2.376,4.427h14.308a6.966,6.966,0,0,0-2.375-4.4,7.1,7.1,0,0,0-4.752-1.647A7.252,7.252,0,0,0,436.676,99.69Z" style="fill:#fff"/><path d="M483.133,119.693a14.334,14.334,0,0,1-5.776-5.318,15.375,15.375,0,0,1,0-15.441,14.348,14.348,0,0,1,5.776-5.318,17.867,17.867,0,0,1,8.342-1.917,16.177,16.177,0,0,1,8.018,1.917,11.375,11.375,0,0,1,4.994,5.48l-6.533,3.509a7.142,7.142,0,0,0-6.533-4,7.393,7.393,0,0,0-5.453,2.16,9.1,9.1,0,0,0,0,11.769,7.389,7.389,0,0,0,5.453,2.16,7.068,7.068,0,0,0,6.533-4l6.533,3.563a11.6,11.6,0,0,1-4.994,5.4,15.986,15.986,0,0,1-8.018,1.943A17.854,17.854,0,0,1,483.133,119.693Z" style="fill:#fff"/><path d="M538.607,92.131v29.047h-7.99v-3.455a11.2,11.2,0,0,1-4,2.888,12.588,12.588,0,0,1-5.022,1q-5.723,0-9.07-3.293t-3.347-9.772V92.131h8.422V107.3q0,7.017,5.885,7.018a6.326,6.326,0,0,0,4.859-1.97q1.836-1.971,1.836-5.859V92.131Z" style="fill:#fff"/><path d="M546.436,81.117h8.422v40.061h-8.422Z" style="fill:#fff"/><path d="M583.526,119.774a8.621,8.621,0,0,1-3.051,1.376,15.426,15.426,0,0,1-3.807.459q-5.183,0-8.017-2.645t-2.834-7.775V99.258h-4.482V92.779h4.482V85.707h8.423v7.072h7.234v6.479H574.24v11.824a3.961,3.961,0,0,0,.944,2.834,3.5,3.5,0,0,0,2.673,1,5.407,5.407,0,0,0,3.4-1.08Z" style="fill:#fff"/><path d="M617.539,92.131v29.047h-7.991v-3.455a11.187,11.187,0,0,1-4,2.888,12.586,12.586,0,0,1-5.021,1q-5.724,0-9.071-3.293t-3.346-9.772V92.131h8.422V107.3q0,7.017,5.884,7.018a6.327,6.327,0,0,0,4.86-1.97q1.835-1.971,1.836-5.859V92.131Z" style="fill:#fff"/><path d="M637.488,92.779A15.138,15.138,0,0,1,643.4,91.7v7.775q-1.405-.108-1.89-.108a7.718,7.718,0,0,0-5.669,2.025q-2.052,2.023-2.052,6.073v13.714h-8.421V92.131h8.044v3.833A9.371,9.371,0,0,1,637.488,92.779Z" style="fill:#fff"/><path d="M676.443,109.03H654.469a6.836,6.836,0,0,0,2.808,4.265,9.286,9.286,0,0,0,5.507,1.566,11.152,11.152,0,0,0,4.022-.674,9.8,9.8,0,0,0,3.267-2.133l4.48,4.858q-4.1,4.7-11.985,4.7a18.956,18.956,0,0,1-8.693-1.916,14.047,14.047,0,0,1-5.831-5.318,14.651,14.651,0,0,1-2.051-7.721,14.843,14.843,0,0,1,2.024-7.693,14.184,14.184,0,0,1,5.562-5.345,17.212,17.212,0,0,1,15.629-.081,13.408,13.408,0,0,1,5.426,5.264,15.7,15.7,0,0,1,1.971,7.964Q676.605,106.924,676.443,109.03Zm-19.706-9.34a6.9,6.9,0,0,0-2.376,4.427h14.307a6.966,6.966,0,0,0-2.375-4.4,7.1,7.1,0,0,0-4.752-1.647A7.249,7.249,0,0,0,656.737,99.69Z" style="fill:#fff"/><path d="M703.086,119.693a14.239,14.239,0,0,1-5.7-5.318,15.55,15.55,0,0,1,0-15.441,14.253,14.253,0,0,1,5.7-5.318,18.582,18.582,0,0,1,16.44,0,14.3,14.3,0,0,1,5.669,5.318,15.55,15.55,0,0,1,0,15.441,14.29,14.29,0,0,1-5.669,5.318,18.591,18.591,0,0,1-16.44,0Zm13.551-7.18a9.294,9.294,0,0,0,0-11.717,7.016,7.016,0,0,0-5.317-2.186,7.106,7.106,0,0,0-5.346,2.186,9.2,9.2,0,0,0,0,11.717,7.106,7.106,0,0,0,5.346,2.186A7.016,7.016,0,0,0,716.637,112.513Z" style="fill:#fff"/><path d="M742.093,92.779h7.451v6.479H742.31v21.92h-8.423V99.258h-4.481V92.779h4.481v-1.3A10.594,10.594,0,0,1,736.83,83.6q2.94-2.916,8.287-2.915a15.452,15.452,0,0,1,3.59.4,8.734,8.734,0,0,1,2.834,1.161l-2.212,6.1a5.761,5.761,0,0,0-3.4-1.026q-3.834,0-3.834,4.211Z" style="fill:#fff"/><path d="M774.622,119.693a14.235,14.235,0,0,1-5.7-5.318,15.55,15.55,0,0,1,0-15.441,14.249,14.249,0,0,1,5.7-5.318,18.58,18.58,0,0,1,16.439,0,14.3,14.3,0,0,1,5.669,5.318,15.55,15.55,0,0,1,0,15.441,14.29,14.29,0,0,1-5.669,5.318,18.588,18.588,0,0,1-16.439,0Zm13.55-7.18a9.294,9.294,0,0,0,0-11.717,7.015,7.015,0,0,0-5.317-2.186,7.108,7.108,0,0,0-5.346,2.186,9.2,9.2,0,0,0,0,11.717,7.108,7.108,0,0,0,5.346,2.186A7.015,7.015,0,0,0,788.172,112.513Z" style="fill:#fff"/><path d="M828.936,93.562a13.385,13.385,0,0,1,5.21,5.237,17.27,17.27,0,0,1,0,15.711,13.379,13.379,0,0,1-5.21,5.237,14.8,14.8,0,0,1-7.37,1.862,11.218,11.218,0,0,1-8.746-3.508v13.55H804.4V92.131h8.044v3.348q3.13-3.78,9.124-3.78A14.8,14.8,0,0,1,828.936,93.562Zm-3.51,18.951a9.294,9.294,0,0,0,0-11.717,7.562,7.562,0,0,0-10.636,0,9.3,9.3,0,0,0,0,11.717,7.562,7.562,0,0,0,10.636,0Z" style="fill:#fff"/><path d="M869.94,109.03H847.966a6.836,6.836,0,0,0,2.808,4.265,9.286,9.286,0,0,0,5.507,1.566,11.152,11.152,0,0,0,4.022-.674,9.8,9.8,0,0,0,3.267-2.133l4.48,4.858q-4.1,4.7-11.985,4.7a18.949,18.949,0,0,1-8.692-1.916,14.044,14.044,0,0,1-5.832-5.318,14.651,14.651,0,0,1-2.051-7.721,14.843,14.843,0,0,1,2.024-7.693,14.184,14.184,0,0,1,5.562-5.345,17.214,17.214,0,0,1,15.63-.081,13.412,13.412,0,0,1,5.425,5.264,15.7,15.7,0,0,1,1.971,7.964Q870.1,106.924,869.94,109.03Zm-19.706-9.34a6.9,6.9,0,0,0-2.376,4.427h14.307a6.966,6.966,0,0,0-2.375-4.4,7.1,7.1,0,0,0-4.751-1.647A7.25,7.25,0,0,0,850.234,99.69Z" style="fill:#fff"/><path d="M902.091,94.938q3.319,3.24,3.321,9.611v16.629h-8.423V105.845a7.575,7.575,0,0,0-1.512-5.157,5.547,5.547,0,0,0-4.373-1.7,6.7,6.7,0,0,0-5.075,1.97q-1.89,1.971-1.89,5.858v14.362h-8.422V92.131h8.044v3.4a11.159,11.159,0,0,1,4.157-2.835,14.487,14.487,0,0,1,5.454-1A11.957,11.957,0,0,1,902.091,94.938Z" style="fill:#fff"/><path d="M957.888,81.117v40.061h-8.044V117.83q-3.132,3.782-9.07,3.779a15.079,15.079,0,0,1-7.424-1.835,13.128,13.128,0,0,1-5.21-5.237,17.383,17.383,0,0,1,0-15.765,13.135,13.135,0,0,1,5.21-5.237,15.09,15.09,0,0,1,7.424-1.836q5.559,0,8.692,3.509V81.117Zm-10.366,31.4a9.2,9.2,0,0,0,0-11.717,7.562,7.562,0,0,0-10.636,0,9.2,9.2,0,0,0,0,11.717,7.562,7.562,0,0,0,10.636,0Z" style="fill:#fff"/><path d="M987.744,94.912q3.616,3.213,3.618,9.691v16.575h-7.883v-3.617q-2.376,4.048-8.855,4.048a13.744,13.744,0,0,1-5.8-1.133,8.648,8.648,0,0,1-3.753-3.131,8.153,8.153,0,0,1-1.295-4.535,7.567,7.567,0,0,1,3.05-6.372q3.049-2.319,9.422-2.321h6.694a5.37,5.37,0,0,0-1.674-4.238,7.371,7.371,0,0,0-5.02-1.485,14.654,14.654,0,0,0-4.563.729,12.091,12.091,0,0,0-3.807,1.97l-3.023-5.885a18.262,18.262,0,0,1,5.7-2.591,25.513,25.513,0,0,1,6.83-.918Q984.125,91.7,987.744,94.912Zm-7.181,20.03A5.471,5.471,0,0,0,982.939,112V109.03h-5.777q-5.184,0-5.183,3.4A3.029,3.029,0,0,0,973.248,115a5.709,5.709,0,0,0,3.482.944A7.332,7.332,0,0,0,980.563,114.942Z" style="fill:#fff"/><path d="M1017.708,119.774a8.616,8.616,0,0,1-3.05,1.376,15.426,15.426,0,0,1-3.807.459q-5.183,0-8.018-2.645T1000,111.189V99.258h-4.481V92.779H1000V85.707h8.423v7.072h7.235v6.479h-7.235v11.824a3.962,3.962,0,0,0,.945,2.834,3.5,3.5,0,0,0,2.672,1,5.41,5.41,0,0,0,3.4-1.08Z" style="fill:#fff"/><path d="M1044.54,94.912q3.618,3.213,3.619,9.691v16.575h-7.883v-3.617q-2.376,4.048-8.855,4.048a13.744,13.744,0,0,1-5.8-1.133,8.648,8.648,0,0,1-3.753-3.131,8.145,8.145,0,0,1-1.295-4.535,7.565,7.565,0,0,1,3.05-6.372q3.049-2.319,9.421-2.321h6.7a5.37,5.37,0,0,0-1.674-4.238,7.372,7.372,0,0,0-5.021-1.485,14.653,14.653,0,0,0-4.562.729,12.091,12.091,0,0,0-3.807,1.97l-3.023-5.885a18.262,18.262,0,0,1,5.7-2.591,25.508,25.508,0,0,1,6.83-.918Q1040.922,91.7,1044.54,94.912Zm-7.18,20.03a5.471,5.471,0,0,0,2.376-2.943V109.03h-5.778q-5.183,0-5.182,3.4a3.031,3.031,0,0,0,1.268,2.564,5.714,5.714,0,0,0,3.483.944A7.332,7.332,0,0,0,1037.36,114.942Z" style="fill:#fff"/><path d="M1071.481,86.732a4.571,4.571,0,0,1,0-6.694,5.34,5.34,0,0,1,3.779-1.35,5.479,5.479,0,0,1,3.779,1.3,4.156,4.156,0,0,1,1.459,3.24,4.584,4.584,0,0,1-1.459,3.482,5.279,5.279,0,0,1-3.779,1.377A5.34,5.34,0,0,1,1071.481,86.732Zm-.432,5.4h8.422v29.047h-8.422Z" style="fill:#fff"/><path d="M1113.673,94.938q3.319,3.24,3.321,9.611v16.629h-8.423V105.845a7.575,7.575,0,0,0-1.512-5.157,5.547,5.547,0,0,0-4.373-1.7,6.7,6.7,0,0,0-5.075,1.97q-1.89,1.971-1.89,5.858v14.362H1087.3V92.131h8.044v3.4A11.159,11.159,0,0,1,1099.5,92.7a14.487,14.487,0,0,1,5.454-1A11.957,11.957,0,0,1,1113.673,94.938Z" style="fill:#fff"/><path d="M118.519,156.919v29.047h-7.991v-3.455a11.175,11.175,0,0,1-4,2.888,12.586,12.586,0,0,1-5.021,1q-5.724,0-9.071-3.293t-3.347-9.772V156.919h8.423v15.172q0,7.019,5.884,7.018a6.326,6.326,0,0,0,4.859-1.97q1.835-1.971,1.836-5.859V156.919Z" style="fill:#fff"/><path d="M138.467,157.567a15.145,15.145,0,0,1,5.912-1.08v7.775q-1.4-.108-1.889-.108a7.718,7.718,0,0,0-5.669,2.025q-2.052,2.023-2.052,6.073v13.714h-8.422V156.919h8.044v3.834A9.359,9.359,0,0,1,138.467,157.567Z" style="fill:#fff"/><path d="M173.939,158.35a13.385,13.385,0,0,1,5.21,5.237,17.27,17.27,0,0,1,0,15.711,13.379,13.379,0,0,1-5.21,5.237,14.8,14.8,0,0,1-7.37,1.862q-5.992,0-9.124-3.779v3.348H149.4V145.905h8.423V160a11.216,11.216,0,0,1,8.746-3.51A14.8,14.8,0,0,1,173.939,158.35Zm-3.51,18.951a9.293,9.293,0,0,0,0-11.716,7.559,7.559,0,0,0-10.636,0,9.3,9.3,0,0,0,0,11.716,7.562,7.562,0,0,0,10.636,0Z" style="fill:#fff"/><path d="M208.249,159.7q3.618,3.213,3.619,9.691v16.575h-7.883v-3.617q-2.376,4.049-8.855,4.048a13.729,13.729,0,0,1-5.8-1.133,8.648,8.648,0,0,1-3.753-3.131,8.145,8.145,0,0,1-1.3-4.535,7.562,7.562,0,0,1,3.05-6.371q3.049-2.321,9.421-2.322h6.695a5.37,5.37,0,0,0-1.674-4.238,7.377,7.377,0,0,0-5.021-1.485,14.653,14.653,0,0,0-4.562.729,12.052,12.052,0,0,0-3.807,1.971L185.358,160a18.285,18.285,0,0,1,5.7-2.592,25.548,25.548,0,0,1,6.83-.918Q204.631,156.487,208.249,159.7Zm-7.18,20.03a5.471,5.471,0,0,0,2.376-2.943v-2.969h-5.778q-5.183,0-5.182,3.4a3.031,3.031,0,0,0,1.268,2.564,5.714,5.714,0,0,0,3.483.945A7.333,7.333,0,0,0,201.069,179.73Z" style="fill:#fff"/><path d="M245.853,159.727q3.32,3.24,3.32,9.61v16.629H240.75V170.633a7.57,7.57,0,0,0-1.511-5.156,5.544,5.544,0,0,0-4.373-1.7,6.708,6.708,0,0,0-5.076,1.971q-1.888,1.971-1.889,5.857v14.362h-8.422V156.919h8.044v3.4a11.181,11.181,0,0,1,4.157-2.834,14.482,14.482,0,0,1,5.453-1A11.955,11.955,0,0,1,245.853,159.727Z" style="fill:#fff"/><path d="M317.929,159.7q3.212,3.213,3.212,9.637v16.629h-8.422V170.633a7.874,7.874,0,0,0-1.43-5.156,5.034,5.034,0,0,0-4.077-1.7,6.007,6.007,0,0,0-4.7,1.916q-1.728,1.918-1.727,5.7v14.577h-8.423V170.633q0-6.855-5.507-6.857a5.946,5.946,0,0,0-4.644,1.916q-1.728,1.918-1.727,5.7v14.577h-8.422V156.919h8.044v3.348a10.625,10.625,0,0,1,3.969-2.808,13.367,13.367,0,0,1,5.155-.972,12.5,12.5,0,0,1,5.561,1.215,9.846,9.846,0,0,1,4,3.536,11.938,11.938,0,0,1,4.508-3.509,14.224,14.224,0,0,1,5.966-1.242A11.713,11.713,0,0,1,317.929,159.7Z" style="fill:#fff"/><path d="M334.612,184.481a14.242,14.242,0,0,1-5.7-5.318,15.556,15.556,0,0,1,0-15.441,14.248,14.248,0,0,1,5.7-5.318,18.58,18.58,0,0,1,16.439,0,14.3,14.3,0,0,1,5.669,5.318,15.55,15.55,0,0,1,0,15.441,14.29,14.29,0,0,1-5.669,5.318,18.588,18.588,0,0,1-16.439,0Zm13.551-7.18a9.293,9.293,0,0,0,0-11.716,7.016,7.016,0,0,0-5.318-2.187,7.1,7.1,0,0,0-5.346,2.187,9.2,9.2,0,0,0,0,11.716,7.108,7.108,0,0,0,5.346,2.186A7.018,7.018,0,0,0,348.163,177.3Z" style="fill:#fff"/><path d="M388.925,158.35a13.385,13.385,0,0,1,5.21,5.237,17.27,17.27,0,0,1,0,15.711,13.379,13.379,0,0,1-5.21,5.237,14.8,14.8,0,0,1-7.37,1.862q-5.993,0-9.124-3.779v3.348h-8.044V145.905h8.422V160a11.216,11.216,0,0,1,8.746-3.51A14.8,14.8,0,0,1,388.925,158.35Zm-3.51,18.951a9.289,9.289,0,0,0,0-11.716,7.558,7.558,0,0,0-10.635,0,9.3,9.3,0,0,0,0,11.716,7.56,7.56,0,0,0,10.635,0Z" style="fill:#fff"/><path d="M402.071,151.521a4.573,4.573,0,0,1,0-6.7,5.343,5.343,0,0,1,3.779-1.349,5.474,5.474,0,0,1,3.779,1.295,4.157,4.157,0,0,1,1.458,3.24,4.583,4.583,0,0,1-1.458,3.482,5.279,5.279,0,0,1-3.779,1.377A5.343,5.343,0,0,1,402.071,151.521Zm-.432,5.4h8.422v29.047h-8.422Z" style="fill:#fff"/><path d="M417.89,145.905h8.422v40.061H417.89Z" style="fill:#fff"/><path d="M434.572,151.521a4.573,4.573,0,0,1,0-6.7,5.343,5.343,0,0,1,3.779-1.349,5.474,5.474,0,0,1,3.779,1.295,4.157,4.157,0,0,1,1.458,3.24,4.583,4.583,0,0,1-1.458,3.482,5.279,5.279,0,0,1-3.779,1.377A5.343,5.343,0,0,1,434.572,151.521Zm-.432,5.4h8.422v29.047H434.14Z" style="fill:#fff"/><path d="M469.125,184.563a8.633,8.633,0,0,1-3.05,1.375,15.426,15.426,0,0,1-3.807.459q-5.182,0-8.018-2.645t-2.834-7.774V164.046h-4.481v-6.479h4.481v-7.073h8.423v7.073h7.235v6.479h-7.235V175.87a3.962,3.962,0,0,0,.945,2.834,3.5,3.5,0,0,0,2.672,1,5.41,5.41,0,0,0,3.4-1.08Z" style="fill:#fff"/><path d="M502.167,156.919l-13.119,30.828q-2,5.022-4.94,7.073a12.1,12.1,0,0,1-7.1,2.052,14.742,14.742,0,0,1-4.481-.7,9.9,9.9,0,0,1-3.617-1.943l3.077-5.994a7.221,7.221,0,0,0,2.241,1.35,6.976,6.976,0,0,0,2.511.486,4.448,4.448,0,0,0,2.806-.837,7.109,7.109,0,0,0,1.945-2.78l.107-.27-12.579-29.263h8.692l8.153,19.707,8.206-19.707Z" style="fill:#fff"/></g><g style="isolation:isolate"><path d="M116.362,249.946l-8.924,26.7h-4L96.15,255.323l-7.284,21.319h-4.08l-8.924-26.7H79.79L87,271.646l7.512-21.7h3.509l7.36,21.815,7.36-21.815Z" style="fill:#fff"/><path d="M120.576,251.854a2.25,2.25,0,0,1-.706-1.678,2.315,2.315,0,0,1,.706-1.7,2.4,2.4,0,0,1,1.773-.706,2.487,2.487,0,0,1,1.774.668,2.192,2.192,0,0,1,.7,1.66,2.358,2.358,0,0,1-.7,1.734,2.407,2.407,0,0,1-1.774.706A2.441,2.441,0,0,1,120.576,251.854Zm-.057,4.576h3.661v20.212h-3.661Z" style="fill:#fff"/><path d="M142.522,275.459a5.451,5.451,0,0,1-1.983,1.049,8.3,8.3,0,0,1-2.44.362,6.476,6.476,0,0,1-4.729-1.64,6.253,6.253,0,0,1-1.678-4.69v-11.1H128.26V256.43h3.432v-4.424h3.66v4.424h5.8v3.012h-5.8v10.946a3.545,3.545,0,0,0,.821,2.516,3.051,3.051,0,0,0,2.345.877,4.41,4.41,0,0,0,2.86-.953Z" style="fill:#fff"/><path d="M163.858,258.47q2.268,2.23,2.27,6.541v11.631h-3.662V265.43a6.215,6.215,0,0,0-1.41-4.424,5.312,5.312,0,0,0-4.043-1.487,6.3,6.3,0,0,0-4.69,1.735,6.781,6.781,0,0,0-1.717,4.976v10.412h-3.661v-28.3h3.661V259.29a7.545,7.545,0,0,1,3-2.25,10.3,10.3,0,0,1,4.136-.8A8.347,8.347,0,0,1,163.858,258.47Z" style="fill:#fff"/><path d="M201.365,267.756h-16.4a6.34,6.34,0,0,0,2.345,4.29,7.651,7.651,0,0,0,4.977,1.621,7.5,7.5,0,0,0,5.834-2.44l2.021,2.364a8.837,8.837,0,0,1-3.413,2.44,12.872,12.872,0,0,1-10.239-.476,9.379,9.379,0,0,1-3.833-3.68,10.555,10.555,0,0,1-1.353-5.339,10.717,10.717,0,0,1,1.315-5.3,9.433,9.433,0,0,1,3.623-3.68,10.324,10.324,0,0,1,5.206-1.316,10.113,10.113,0,0,1,5.167,1.316,9.248,9.248,0,0,1,3.547,3.68,11.208,11.208,0,0,1,1.277,5.415A10.407,10.407,0,0,1,201.365,267.756Zm-14.32-6.826a6.456,6.456,0,0,0-2.078,4.195h12.966a6.5,6.5,0,0,0-2.079-4.176,6.825,6.825,0,0,0-8.809-.019Z" style="fill:#fff"/><path d="M210.631,254.676v1.754H216.5v3.012h-5.8v17.2h-3.661v-17.2h-3.432V256.43h3.432v-1.792a6.442,6.442,0,0,1,1.755-4.768,6.65,6.65,0,0,1,4.919-1.754,8.313,8.313,0,0,1,2.288.3,5.593,5.593,0,0,1,1.831.877l-1.107,2.784a4.557,4.557,0,0,0-2.822-.953Q210.631,251.129,210.631,254.676Z" style="fill:#fff"/><path d="M224.093,254.676v1.754h5.873v3.012h-5.8v17.2h-3.661v-17.2h-3.432V256.43h3.432v-1.792a6.442,6.442,0,0,1,1.755-4.768,6.65,6.65,0,0,1,4.919-1.754,8.313,8.313,0,0,1,2.288.3,5.593,5.593,0,0,1,1.831.877l-1.107,2.784a4.559,4.559,0,0,0-2.822-.953Q224.092,251.129,224.093,254.676Z" style="fill:#fff"/><path d="M251.322,267.756h-16.4a6.344,6.344,0,0,0,2.345,4.29,7.651,7.651,0,0,0,4.977,1.621,7.5,7.5,0,0,0,5.834-2.44l2.022,2.364a8.848,8.848,0,0,1-3.414,2.44,12.872,12.872,0,0,1-10.239-.476,9.385,9.385,0,0,1-3.833-3.68,10.555,10.555,0,0,1-1.353-5.339,10.717,10.717,0,0,1,1.315-5.3,9.433,9.433,0,0,1,3.623-3.68,10.324,10.324,0,0,1,5.206-1.316,10.113,10.113,0,0,1,5.167,1.316,9.241,9.241,0,0,1,3.547,3.68,11.208,11.208,0,0,1,1.277,5.415A10.407,10.407,0,0,1,251.322,267.756ZM237,260.93a6.456,6.456,0,0,0-2.078,4.195H247.89a6.5,6.5,0,0,0-2.079-4.176A6.825,6.825,0,0,0,237,260.93Z" style="fill:#fff"/><path d="M259.769,275.536a9.773,9.773,0,0,1-3.794-3.681,10.991,10.991,0,0,1,0-10.639,9.634,9.634,0,0,1,3.794-3.661,11.357,11.357,0,0,1,5.51-1.316,10.572,10.572,0,0,1,4.9,1.106,7.886,7.886,0,0,1,3.337,3.2l-2.784,1.792a6.216,6.216,0,0,0-2.365-2.174,6.752,6.752,0,0,0-3.127-.725,7.233,7.233,0,0,0-3.565.877,6.254,6.254,0,0,0-2.479,2.5,8.243,8.243,0,0,0,0,7.475,6.241,6.241,0,0,0,2.479,2.5,7.222,7.222,0,0,0,3.565.877,6.727,6.727,0,0,0,3.127-.725,6.2,6.2,0,0,0,2.365-2.173l2.784,1.754a7.993,7.993,0,0,1-3.337,3.222,10.421,10.421,0,0,1-4.9,1.125A11.223,11.223,0,0,1,259.769,275.536Z" style="fill:#fff"/><path d="M289.877,275.459a5.451,5.451,0,0,1-1.983,1.049,8.306,8.306,0,0,1-2.441.362,6.476,6.476,0,0,1-4.728-1.64,6.254,6.254,0,0,1-1.679-4.69v-11.1h-3.432V256.43h3.432v-4.424h3.661v4.424h5.8v3.012h-5.8v10.946a3.549,3.549,0,0,0,.82,2.516,3.051,3.051,0,0,0,2.345.877,4.408,4.408,0,0,0,2.86-.953Z" style="fill:#fff"/><path d="M294.356,251.854a2.253,2.253,0,0,1-.7-1.678,2.318,2.318,0,0,1,.7-1.7,2.409,2.409,0,0,1,1.774-.706,2.482,2.482,0,0,1,1.773.668,2.192,2.192,0,0,1,.7,1.66,2.358,2.358,0,0,1-.7,1.734,2.4,2.4,0,0,1-1.773.706A2.445,2.445,0,0,1,294.356,251.854Zm-.056,4.576h3.66v20.212H294.3Z" style="fill:#fff"/><path d="M322.824,256.43l-8.847,20.212H310.24l-8.847-20.212h3.813l6.94,16.208,7.094-16.208Z" style="fill:#fff"/><path d="M343.875,267.756h-16.4a6.34,6.34,0,0,0,2.345,4.29,7.649,7.649,0,0,0,4.977,1.621,7.5,7.5,0,0,0,5.834-2.44l2.021,2.364a8.837,8.837,0,0,1-3.413,2.44A12.872,12.872,0,0,1,329,275.555a9.379,9.379,0,0,1-3.833-3.68,10.556,10.556,0,0,1-1.354-5.339,10.718,10.718,0,0,1,1.316-5.3,9.433,9.433,0,0,1,3.623-3.68,10.321,10.321,0,0,1,5.206-1.316,10.113,10.113,0,0,1,5.167,1.316,9.248,9.248,0,0,1,3.547,3.68,11.219,11.219,0,0,1,1.277,5.415A10.407,10.407,0,0,1,343.875,267.756Zm-14.32-6.826a6.456,6.456,0,0,0-2.078,4.195h12.965a6.5,6.5,0,0,0-2.078-4.176,6.825,6.825,0,0,0-8.809-.019Z" style="fill:#fff"/><path d="M378.12,256.43v20.212h-3.471v-3.051a7.363,7.363,0,0,1-2.917,2.422,9.116,9.116,0,0,1-3.947.857,8.821,8.821,0,0,1-6.369-2.23q-2.326-2.232-2.326-6.578V256.43h3.661v11.212a6.277,6.277,0,0,0,1.411,4.442,5.266,5.266,0,0,0,4.042,1.507,6.036,6.036,0,0,0,4.577-1.754,6.89,6.89,0,0,0,1.678-4.958V256.43Z" style="fill:#fff"/><path d="M386.128,276.2a10.451,10.451,0,0,1-3.585-1.7l1.525-2.9a10.926,10.926,0,0,0,3.242,1.526,13.315,13.315,0,0,0,3.852.572q4.8,0,4.805-2.746a1.774,1.774,0,0,0-.649-1.448,4.1,4.1,0,0,0-1.62-.782q-.972-.249-2.765-.553a27.113,27.113,0,0,1-3.985-.877,6.121,6.121,0,0,1-2.65-1.679,4.663,4.663,0,0,1-1.107-3.317,5.184,5.184,0,0,1,2.288-4.4,10.249,10.249,0,0,1,6.14-1.659,16.9,16.9,0,0,1,4.043.5,10.887,10.887,0,0,1,3.317,1.334l-1.563,2.9a10.514,10.514,0,0,0-5.835-1.6,6.745,6.745,0,0,0-3.546.763,2.3,2.3,0,0,0-1.221,2.021,1.927,1.927,0,0,0,.687,1.564,4.333,4.333,0,0,0,1.7.839q1.01.266,2.841.61a30.9,30.9,0,0,1,3.947.9,5.9,5.9,0,0,1,2.574,1.621,4.518,4.518,0,0,1,1.068,3.2,5.052,5.052,0,0,1-2.346,4.367,11.08,11.08,0,0,1-6.388,1.62A16.965,16.965,0,0,1,386.128,276.2Z" style="fill:#fff"/><path d="M417.989,258.3q2.232,2.058,2.232,6.139v12.2H416.75v-2.67a5.787,5.787,0,0,1-2.612,2.155,9.985,9.985,0,0,1-4.024.743,8.411,8.411,0,0,1-5.433-1.64,5.637,5.637,0,0,1-.1-8.6q1.946-1.62,6.178-1.62h5.8v-.725a4.667,4.667,0,0,0-1.374-3.623,5.789,5.789,0,0,0-4.042-1.259,10.726,10.726,0,0,0-3.508.591,9.06,9.06,0,0,0-2.9,1.583l-1.525-2.746a11.085,11.085,0,0,1,3.737-1.926,15.665,15.665,0,0,1,4.614-.667Q415.759,256.239,417.989,258.3Zm-3.641,14.815a5.358,5.358,0,0,0,2.212-2.65v-2.822h-5.644q-4.655,0-4.653,3.127a2.828,2.828,0,0,0,1.182,2.4,5.4,5.4,0,0,0,3.28.878A6.8,6.8,0,0,0,414.348,273.114Z" style="fill:#fff"/><path d="M446.457,256.43V273.9q0,5.3-2.631,7.836t-7.856,2.537a18.791,18.791,0,0,1-5.453-.782,10.788,10.788,0,0,1-4.195-2.231l1.754-2.822a10.36,10.36,0,0,0,3.489,1.925,13.243,13.243,0,0,0,4.29.706q3.548,0,5.245-1.677a6.912,6.912,0,0,0,1.7-5.111v-1.6a8.093,8.093,0,0,1-3.184,2.345,10.617,10.617,0,0,1-4.1.782,11.037,11.037,0,0,1-5.244-1.24,9.21,9.21,0,0,1-3.68-3.47,10.375,10.375,0,0,1,0-10.182,9.077,9.077,0,0,1,3.68-3.451,11.181,11.181,0,0,1,5.244-1.221,10.719,10.719,0,0,1,4.252.839,7.909,7.909,0,0,1,3.222,2.479V256.43ZM439.5,271.761a6.212,6.212,0,0,0,2.479-2.346,6.56,6.56,0,0,0,.9-3.413,6.185,6.185,0,0,0-1.945-4.748,7.846,7.846,0,0,0-10.03,0A6.189,6.189,0,0,0,428.953,266a6.542,6.542,0,0,0,.9,3.413,6.19,6.19,0,0,0,2.478,2.346,7.59,7.59,0,0,0,3.6.839A7.513,7.513,0,0,0,439.5,271.761Z" style="fill:#fff"/><path d="M471.626,267.756h-16.4a6.345,6.345,0,0,0,2.346,4.29,7.649,7.649,0,0,0,4.977,1.621,7.5,7.5,0,0,0,5.834-2.44l2.021,2.364a8.845,8.845,0,0,1-3.413,2.44,12.872,12.872,0,0,1-10.239-.476,9.379,9.379,0,0,1-3.833-3.68,10.556,10.556,0,0,1-1.354-5.339,10.718,10.718,0,0,1,1.316-5.3,9.433,9.433,0,0,1,3.623-3.68,10.321,10.321,0,0,1,5.206-1.316,10.113,10.113,0,0,1,5.167,1.316,9.248,9.248,0,0,1,3.547,3.68,11.219,11.219,0,0,1,1.277,5.415A10.407,10.407,0,0,1,471.626,267.756Zm-14.32-6.826a6.462,6.462,0,0,0-2.079,4.195h12.966a6.5,6.5,0,0,0-2.078-4.176,6.825,6.825,0,0,0-8.809-.019Z" style="fill:#fff"/><path d="M490.274,275.536a9.68,9.68,0,0,1-3.756-3.681,11.126,11.126,0,0,1,0-10.639,9.542,9.542,0,0,1,3.756-3.661,11.762,11.762,0,0,1,10.812,0,9.586,9.586,0,0,1,3.737,3.661,11.126,11.126,0,0,1,0,10.639,9.725,9.725,0,0,1-3.737,3.681,11.621,11.621,0,0,1-10.812,0Zm8.9-2.765a6.32,6.32,0,0,0,2.422-2.517,8.33,8.33,0,0,0,0-7.437,6.207,6.207,0,0,0-2.422-2.5,7.381,7.381,0,0,0-6.979,0,6.328,6.328,0,0,0-2.44,2.5,8.156,8.156,0,0,0,0,7.437,6.444,6.444,0,0,0,2.44,2.517,7.243,7.243,0,0,0,6.979,0Z" style="fill:#fff"/><path d="M515.367,254.676v1.754h5.873v3.012h-5.8v17.2h-3.661v-17.2h-3.431V256.43h3.431v-1.792a6.442,6.442,0,0,1,1.755-4.768,6.651,6.651,0,0,1,4.919-1.754,8.313,8.313,0,0,1,2.288.3,5.593,5.593,0,0,1,1.831.877l-1.106,2.784a4.562,4.562,0,0,0-2.823-.953Q515.367,251.129,515.367,254.676Z" style="fill:#fff"/><path d="M558.46,249.946v26.7h-3.127l-16.018-19.907v19.907H535.5v-26.7h3.127l16.017,19.908V249.946Z" style="fill:#fff"/><path d="M579.72,258.3q2.23,2.058,2.231,6.139v12.2H578.48v-2.67a5.787,5.787,0,0,1-2.612,2.155,9.983,9.983,0,0,1-4.023.743,8.412,8.412,0,0,1-5.434-1.64,5.637,5.637,0,0,1-.1-8.6q1.945-1.62,6.178-1.62h5.8v-.725a4.67,4.67,0,0,0-1.373-3.623,5.791,5.791,0,0,0-4.042-1.259,10.737,10.737,0,0,0-3.509.591,9.066,9.066,0,0,0-2.9,1.583l-1.526-2.746a11.081,11.081,0,0,1,3.738-1.926,15.665,15.665,0,0,1,4.614-.667Q577.49,256.239,579.72,258.3Zm-3.642,14.815a5.352,5.352,0,0,0,2.212-2.65v-2.822h-5.644q-4.653,0-4.653,3.127a2.829,2.829,0,0,0,1.183,2.4,5.4,5.4,0,0,0,3.279.878A6.8,6.8,0,0,0,576.078,273.114Z" style="fill:#fff"/><path d="M600.1,275.459a5.451,5.451,0,0,1-1.983,1.049,8.3,8.3,0,0,1-2.44.362,6.476,6.476,0,0,1-4.729-1.64,6.258,6.258,0,0,1-1.679-4.69v-11.1h-3.431V256.43h3.431v-4.424h3.662v4.424h5.8v3.012h-5.8v10.946a3.549,3.549,0,0,0,.82,2.516,3.051,3.051,0,0,0,2.345.877,4.408,4.408,0,0,0,2.86-.953Z" style="fill:#fff"/><path d="M604.583,251.854a2.249,2.249,0,0,1-.7-1.678,2.314,2.314,0,0,1,.7-1.7,2.407,2.407,0,0,1,1.773-.706,2.486,2.486,0,0,1,1.774.668,2.192,2.192,0,0,1,.705,1.66,2.358,2.358,0,0,1-.705,1.734,2.4,2.4,0,0,1-1.774.706A2.443,2.443,0,0,1,604.583,251.854Zm-.057,4.576h3.66v20.212h-3.66Z" style="fill:#fff"/><path d="M618.407,275.536a9.689,9.689,0,0,1-3.757-3.681,11.134,11.134,0,0,1,0-10.639,9.551,9.551,0,0,1,3.757-3.661,11.762,11.762,0,0,1,10.812,0,9.586,9.586,0,0,1,3.737,3.661,11.126,11.126,0,0,1,0,10.639,9.725,9.725,0,0,1-3.737,3.681,11.621,11.621,0,0,1-10.812,0Zm8.9-2.765a6.313,6.313,0,0,0,2.422-2.517,8.322,8.322,0,0,0,0-7.437,6.2,6.2,0,0,0-2.422-2.5,7.379,7.379,0,0,0-6.978,0,6.328,6.328,0,0,0-2.44,2.5,8.156,8.156,0,0,0,0,7.437,6.444,6.444,0,0,0,2.44,2.517,7.241,7.241,0,0,0,6.978,0Z" style="fill:#fff"/><path d="M656.3,258.47q2.268,2.23,2.268,6.541v11.631H654.9V265.43a6.206,6.206,0,0,0-1.411-4.424,5.307,5.307,0,0,0-4.042-1.487,6.3,6.3,0,0,0-4.69,1.735,6.776,6.776,0,0,0-1.717,4.976v10.412h-3.66V256.43h3.508v3.05a7.119,7.119,0,0,1,2.994-2.4,10.462,10.462,0,0,1,4.29-.839A8.352,8.352,0,0,1,656.3,258.47Z" style="fill:#fff"/><path d="M679.138,258.3q2.231,2.058,2.231,6.139v12.2H677.9v-2.67a5.787,5.787,0,0,1-2.612,2.155,9.983,9.983,0,0,1-4.023.743,8.412,8.412,0,0,1-5.434-1.64,5.637,5.637,0,0,1-.1-8.6q1.946-1.62,6.178-1.62h5.8v-.725a4.67,4.67,0,0,0-1.373-3.623,5.791,5.791,0,0,0-4.042-1.259,10.737,10.737,0,0,0-3.509.591,9.066,9.066,0,0,0-2.9,1.583l-1.526-2.746a11.081,11.081,0,0,1,3.738-1.926,15.665,15.665,0,0,1,4.614-.667Q676.908,256.239,679.138,258.3ZM675.5,273.114a5.352,5.352,0,0,0,2.212-2.65v-2.822h-5.644q-4.653,0-4.653,3.127a2.829,2.829,0,0,0,1.183,2.4,5.4,5.4,0,0,0,3.279.878A6.8,6.8,0,0,0,675.5,273.114Z" style="fill:#fff"/><path d="M688.157,248.345h3.66v28.3h-3.66Z" style="fill:#fff"/><path d="M714.355,275.174a13.112,13.112,0,0,1-5.091-4.9,14.089,14.089,0,0,1,0-13.958,13.1,13.1,0,0,1,5.091-4.9,15.771,15.771,0,0,1,14.53,0,13.029,13.029,0,0,1,5.072,4.881,14.3,14.3,0,0,1,0,14,13.031,13.031,0,0,1-5.072,4.882,15.779,15.779,0,0,1-14.53,0Zm12.566-2.956a9.8,9.8,0,0,0,3.7-3.68,10.83,10.83,0,0,0,0-10.487,9.8,9.8,0,0,0-3.7-3.681,10.487,10.487,0,0,0-5.282-1.335,10.694,10.694,0,0,0-5.32,1.335,9.7,9.7,0,0,0-3.737,3.681,10.823,10.823,0,0,0,0,10.487,9.7,9.7,0,0,0,3.737,3.68,10.694,10.694,0,0,0,5.32,1.335A10.487,10.487,0,0,0,726.921,272.218Z" style="fill:#fff"/><path d="M757.066,257.536a9.332,9.332,0,0,1,3.642,3.622,11.692,11.692,0,0,1,0,10.774,9.3,9.3,0,0,1-3.642,3.642,10.625,10.625,0,0,1-5.262,1.3,9.356,9.356,0,0,1-3.986-.839,8.287,8.287,0,0,1-3.07-2.44V284.04h-3.66V256.43H744.6v3.2a7.762,7.762,0,0,1,3.089-2.535,9.737,9.737,0,0,1,4.119-.859A10.625,10.625,0,0,1,757.066,257.536Zm-2.078,15.235a6.454,6.454,0,0,0,2.441-2.517,8.164,8.164,0,0,0,0-7.437,6.337,6.337,0,0,0-2.441-2.5,6.95,6.95,0,0,0-3.49-.877,6.746,6.746,0,0,0-3.451.9,6.5,6.5,0,0,0-2.441,2.5,7.451,7.451,0,0,0-.9,3.7,7.67,7.67,0,0,0,.878,3.718,6.271,6.271,0,0,0,2.44,2.517,7.206,7.206,0,0,0,6.96,0Z" style="fill:#fff"/><path d="M785.287,267.756h-16.4a6.34,6.34,0,0,0,2.345,4.29,7.649,7.649,0,0,0,4.977,1.621,7.5,7.5,0,0,0,5.834-2.44l2.021,2.364a8.837,8.837,0,0,1-3.413,2.44,12.872,12.872,0,0,1-10.239-.476,9.379,9.379,0,0,1-3.833-3.68,10.556,10.556,0,0,1-1.354-5.339,10.718,10.718,0,0,1,1.316-5.3,9.433,9.433,0,0,1,3.623-3.68,10.321,10.321,0,0,1,5.206-1.316,10.113,10.113,0,0,1,5.167,1.316,9.248,9.248,0,0,1,3.547,3.68,11.219,11.219,0,0,1,1.277,5.415A10.407,10.407,0,0,1,785.287,267.756Zm-14.32-6.826a6.456,6.456,0,0,0-2.078,4.195h12.965a6.5,6.5,0,0,0-2.078-4.176,6.825,6.825,0,0,0-8.809-.019Z" style="fill:#fff"/><path d="M807.349,258.47q2.266,2.23,2.268,6.541v11.631h-3.661V265.43a6.21,6.21,0,0,0-1.411-4.424,5.309,5.309,0,0,0-4.042-1.487,6.3,6.3,0,0,0-4.691,1.735,6.78,6.78,0,0,0-1.716,4.976v10.412h-3.661V256.43h3.508v3.05a7.131,7.131,0,0,1,2.994-2.4,10.466,10.466,0,0,1,4.29-.839A8.353,8.353,0,0,1,807.349,258.47Z" style="fill:#fff"/><path d="M851.947,276.642l-.038-19.45L842.261,273.4h-1.754l-9.649-16.093v19.335H827.2v-26.7h3.127l11.136,18.763,10.983-18.763h3.127l.038,26.7Z" style="fill:#fff"/><path d="M866.324,275.536a9.689,9.689,0,0,1-3.757-3.681,11.134,11.134,0,0,1,0-10.639,9.551,9.551,0,0,1,3.757-3.661,11.762,11.762,0,0,1,10.812,0,9.586,9.586,0,0,1,3.737,3.661,11.126,11.126,0,0,1,0,10.639,9.725,9.725,0,0,1-3.737,3.681,11.621,11.621,0,0,1-10.812,0Zm8.9-2.765a6.313,6.313,0,0,0,2.422-2.517,8.322,8.322,0,0,0,0-7.437,6.2,6.2,0,0,0-2.422-2.5,7.379,7.379,0,0,0-6.978,0,6.328,6.328,0,0,0-2.44,2.5,8.156,8.156,0,0,0,0,7.437,6.444,6.444,0,0,0,2.44,2.517,7.241,7.241,0,0,0,6.978,0Z" style="fill:#fff"/><path d="M903.276,257.536a9.329,9.329,0,0,1,3.641,3.622,11.684,11.684,0,0,1,0,10.774,9.294,9.294,0,0,1-3.641,3.642,10.631,10.631,0,0,1-5.263,1.3,9.567,9.567,0,0,1-4.119-.877,7.918,7.918,0,0,1-3.089-2.555v3.2H887.3v-28.3h3.659V259.48a7.792,7.792,0,0,1,3.052-2.421,9.691,9.691,0,0,1,4-.82A10.632,10.632,0,0,1,903.276,257.536ZM901.2,272.771a6.458,6.458,0,0,0,2.44-2.517,8.156,8.156,0,0,0,0-7.437,6.341,6.341,0,0,0-2.44-2.5,7.343,7.343,0,0,0-6.96,0,6.163,6.163,0,0,0-2.441,2.5,8.313,8.313,0,0,0,0,7.437,6.274,6.274,0,0,0,2.441,2.517,7.206,7.206,0,0,0,6.96,0Z" style="fill:#fff"/><path d="M913.363,251.854a2.249,2.249,0,0,1-.705-1.678,2.314,2.314,0,0,1,.705-1.7,2.4,2.4,0,0,1,1.773-.706,2.486,2.486,0,0,1,1.774.668,2.2,2.2,0,0,1,.705,1.66,2.362,2.362,0,0,1-.705,1.734,2.4,2.4,0,0,1-1.774.706A2.441,2.441,0,0,1,913.363,251.854Zm-.057,4.576h3.66v20.212h-3.66Z" style="fill:#fff"/><path d="M923.946,248.345h3.66v28.3h-3.66Z" style="fill:#fff"/><path d="M934.641,251.854a2.249,2.249,0,0,1-.7-1.678,2.314,2.314,0,0,1,.7-1.7,2.408,2.408,0,0,1,1.773-.706,2.486,2.486,0,0,1,1.774.668,2.192,2.192,0,0,1,.705,1.66,2.358,2.358,0,0,1-.705,1.734,2.4,2.4,0,0,1-1.774.706A2.444,2.444,0,0,1,934.641,251.854Zm-.057,4.576h3.661v20.212h-3.661Z" style="fill:#fff"/><path d="M956.588,275.459a5.451,5.451,0,0,1-1.983,1.049,8.3,8.3,0,0,1-2.441.362,6.476,6.476,0,0,1-4.728-1.64,6.258,6.258,0,0,1-1.679-4.69v-11.1h-3.431V256.43h3.431v-4.424h3.661v4.424h5.8v3.012h-5.8v10.946a3.549,3.549,0,0,0,.821,2.516,3.05,3.05,0,0,0,2.344.877,4.409,4.409,0,0,0,2.861-.953Z" style="fill:#fff"/><path d="M978.515,256.43l-9.8,22.233a10.029,10.029,0,0,1-3.031,4.347,6.915,6.915,0,0,1-4.176,1.259,8.85,8.85,0,0,1-2.88-.477,5.916,5.916,0,0,1-2.306-1.392l1.563-2.746a5.1,5.1,0,0,0,3.623,1.488,3.5,3.5,0,0,0,2.231-.7,6.046,6.046,0,0,0,1.621-2.422l.648-1.411-8.924-20.174H960.9l7.055,16.17,6.979-16.17Z" style="fill:#fff"/><path d="M983.378,272.39a2.583,2.583,0,0,1,.7,1.849,4.545,4.545,0,0,1-.133,1.106q-.134.534-.515,1.639l-1.792,5.3h-2.4l1.411-5.681a2.381,2.381,0,0,1-1.163-.9,2.5,2.5,0,0,1-.44-1.468,2.533,2.533,0,0,1,.725-1.869,2.485,2.485,0,0,1,1.831-.724A2.341,2.341,0,0,1,983.378,272.39Z" style="fill:#fff"/><path d="M999.662,251.854a2.25,2.25,0,0,1-.706-1.678,2.315,2.315,0,0,1,.706-1.7,2.4,2.4,0,0,1,1.773-.706,2.482,2.482,0,0,1,1.773.668,2.193,2.193,0,0,1,.706,1.66,2.359,2.359,0,0,1-.706,1.734,2.4,2.4,0,0,1-1.773.706A2.441,2.441,0,0,1,999.662,251.854Zm-.057,4.576h3.66v20.212h-3.66Z" style="fill:#fff"/><path d="M1021.608,275.459a5.447,5.447,0,0,1-1.984,1.049,8.3,8.3,0,0,1-2.44.362,6.476,6.476,0,0,1-4.728-1.64,6.254,6.254,0,0,1-1.679-4.69v-11.1h-3.432V256.43h3.432v-4.424h3.661v4.424h5.8v3.012h-5.8v10.946a3.549,3.549,0,0,0,.82,2.516,3.051,3.051,0,0,0,2.345.877,4.408,4.408,0,0,0,2.86-.953Z" style="fill:#fff"/><path d="M1066.873,256.43l-7.55,20.212h-3.508l-5.835-15.33-5.911,15.33h-3.509l-7.513-20.212h3.471l5.873,16.093,6.1-16.093h3.088l5.988,16.17,6.025-16.17Z" style="fill:#fff"/><path d="M1070.629,251.854a2.253,2.253,0,0,1-.7-1.678,2.318,2.318,0,0,1,.7-1.7,2.409,2.409,0,0,1,1.774-.706,2.482,2.482,0,0,1,1.773.668,2.192,2.192,0,0,1,.705,1.66,2.358,2.358,0,0,1-.705,1.734,2.4,2.4,0,0,1-1.773.706A2.445,2.445,0,0,1,1070.629,251.854Zm-.056,4.576h3.66v20.212h-3.66Z" style="fill:#fff"/><path d="M1081.212,248.345h3.661v28.3h-3.661Z" style="fill:#fff"/><path d="M1091.852,248.345h3.66v28.3h-3.66Z" style="fill:#fff"/></g></g></g></svg>