<svg xmlns="http://www.w3.org/2000/svg" xmlns:xlink="http://www.w3.org/1999/xlink" viewBox="0 0 1751.496 498.015"><defs><radialGradient id="radial-gradient" cx="6079.523" cy="8984.702" r="603.809" gradientTransform="translate(-8950.084 6048.224) rotate(-90)" gradientUnits="userSpaceOnUse"><stop offset="0" stop-color="#fff"/><stop offset="0.231" stop-color="#fcfcfc"/><stop offset="0.42" stop-color="#f2f2f2"/><stop offset="0.594" stop-color="#e0e0e1"/><stop offset="0.759" stop-color="#c8c8c9"/><stop offset="0.917" stop-color="#aaa"/><stop offset="1" stop-color="#969697"/></radialGradient><radialGradient id="radial-gradient-2" cx="5977.849" cy="9051.461" r="575.632" gradientTransform="translate(-8950.084 6048.224) rotate(-90)" gradientUnits="userSpaceOnUse"><stop offset="0" stop-color="#fff"/><stop offset="0.257" stop-color="#fcfcfc"/><stop offset="0.468" stop-color="#f2f2f2"/><stop offset="0.662" stop-color="#e0e0e1"/><stop offset="0.846" stop-color="#c9c9c9"/><stop offset="1" stop-color="#aeaeaf"/></radialGradient><radialGradient id="radial-gradient-3" cx="5627.702" cy="9362.635" r="636.249" gradientTransform="translate(-8950.084 6048.224) rotate(-90)" gradientUnits="userSpaceOnUse"><stop offset="0" stop-color="#fff"/><stop offset="0.164" stop-color="#f8f8f8"/><stop offset="0.411" stop-color="#e3e3e3"/><stop offset="0.709" stop-color="#c2c2c2"/><stop offset="1" stop-color="#9a9a9a"/></radialGradient></defs><g id="Layer_2" data-name="Layer 2"><g id="Layer_1-2" data-name="Layer 1"><g id="Layer_2-2" data-name="Layer 2"><g id="Layer_1-2-2" data-name="Layer 1-2"><path d="M1651.109,455.6H334.6c-55.443,0-100.388-89.2-100.388-199.236h0c0-110.034,44.945-199.235,100.388-199.235H1651.109c55.442,0,100.387,89.2,100.387,199.235h0C1751.5,366.4,1706.552,455.6,1651.109,455.6Z" style="fill:#69bfc3"/><path d="M226.259,54.318c117.874,0,230.389,84.482,230.389,202.361S381.893,466.721,264.005,466.721c-117.86,0-217.807-98-217.807-215.887C46.2,132.965,108.385,54.318,226.259,54.318Z" style="fill:#434343;opacity:0.5;isolation:isolate"/><path d="M249.008,0C386.531,0,498.015,111.485,498.015,249.008S386.531,498.015,249.008,498.015.005,386.536,0,249.017,111.483,0,249.008,0Z" style="fill:url(#radial-gradient)"/><path d="M249.008,11.615C380.116,11.615,486.4,117.9,486.4,249.008S380.115,486.4,249.007,486.4,11.62,380.121,11.615,249.017,117.889,11.62,249,11.615Z" style="fill:url(#radial-gradient-2)"/><path d="M249,58.159c105.4,0,190.85,85.442,190.853,190.844S354.414,439.854,249.012,439.856,58.169,354.423,58.159,249.026,143.6,58.167,249,58.159Z" style="fill:url(#radial-gradient-3)"/><path d="M249,75.4a173.589,173.589,0,1,1-.01,0Z" style="opacity:0.10000000149011612;isolation:isolate"/><path d="M386.674,246.212a56.855,56.855,0,0,1-4.039,6.19c-9.813,11.574-19.722,23.068-29.616,34.573-2.9,3.373-5.05,3.423-7.964.045q-15.772-18.286-31.454-36.651a12.585,12.585,0,0,1-1.419-2.045c-3.148-5.642-.535-10.57,5.918-10.89,4.247-.211,8.512-.057,12.769-.066.995,0,1.989,0,3.216,0a76.81,76.81,0,0,0-6.962-21.84c-14.4-28.945-37.525-46.838-69.532-51.265-33.73-4.666-61.7,7.315-83.658,33.3-1.433,1.695-2.726,3.519-4.256,5.118a14.024,14.024,0,0,1-19.484,2.016,14.725,14.725,0,0,1-4.041-19.761,78.458,78.458,0,0,1,9.018-11.571A121.1,121.1,0,0,1,306.928,150.34c.4.233.79.483,1.173.742a4.16,4.16,0,0,1,1.956,5.55c-.06.124-.125.246-.2.364a4.277,4.277,0,0,1-5.88,1.42c-.063-.038-.125-.079-.186-.121-5.593-2.841-11.032-6.073-16.83-8.41a112.594,112.594,0,0,0-131.738,36.468c-2.664,3.515-2.877,5.924-.781,8.823a6.217,6.217,0,0,0,10.662-.082,99.147,99.147,0,0,1,177.126,39.8c.322,1.723.659,3.445.938,5.175a4.33,4.33,0,0,1-4.609,5.667c-4.811.091-9.625.028-14.437.031-.882,0-1.764,0-3.379,0l28.264,32.974,28.281-32.973c-5.17,0-9.649,0-14.128,0-5.317,0-6.266-.805-6.908-6.024a108.164,108.164,0,0,0-21-52.359c-3.967-5.31-8.843-9.935-13.113-15.033a6.636,6.636,0,0,1-1.679-4.574c.576-3.5,4.65-4.42,7.287-1.5A227.142,227.142,0,0,1,344.6,186.1a112.292,112.292,0,0,1,19.372,48.141c.131.821.316,1.633.494,2.446a3.975,3.975,0,0,0,.341.677c4.138,0,8.382.018,12.625,0a9.734,9.734,0,0,1,9.239,4.962Z" style="fill:#606161"/><path d="M155.762,273.841c2.476,6.582,4.413,12.734,7.061,18.563a89.333,89.333,0,0,0,24.56,31.792c1.018.85,2.312,2.114,2.342,3.216a6.087,6.087,0,0,1-1.765,4.226,3.876,3.876,0,0,1-5.292-.479A100.639,100.639,0,0,1,147.539,273c-1.2-5.885.242-7.708,6.177-7.725q6.663-.02,13.325-.063c.147,0,.293-.167.726-.43l-27.728-32.347-27.9,32.53a21.087,21.087,0,0,0,2.322.3c4.442.023,8.885-.006,13.327.019,4.175.024,5.511,1.152,6.088,5.2a107.234,107.234,0,0,0,22.2,52.16c18.815,23.843,43.166,38.672,73.42,42.42,42.288,5.24,76.877-9.5,104.074-42.075,2.106-2.523,3.624-5.126,2.569-8.579a5.873,5.873,0,0,0-9.8-3.1,14.594,14.594,0,0,0-2.285,2.408,98.507,98.507,0,0,1-65.072,38.077,95,95,0,0,1-55.933-8,7.025,7.025,0,0,1-3.255-3.97,4.024,4.024,0,0,1,1.861-3.527,7.617,7.617,0,0,1,5.174.161,95.2,95.2,0,0,0,23.808,7.064,88.828,88.828,0,0,0,51.324-7.664A101.938,101.938,0,0,0,318.178,307.6c4.324-5.213,9.742-7.595,16.493-5.512a14.543,14.543,0,0,1,7.695,23.133,114.862,114.862,0,0,1-27.848,27.244,120.508,120.508,0,0,1-188.249-76.416c-.315-1.738-1.005-2.284-2.718-2.244q-6.521.15-13.048.006c-3.119-.071-6.3-.483-7.649-3.874a8.615,8.615,0,0,1,1.77-9.065q15.8-18.63,31.762-37.121a4.237,4.237,0,0,1,7.281.022q16.4,19.031,32.705,38.144c4.316,5.084,2.316,10.432-4.217,11.6a28.755,28.755,0,0,1-4.691.309C163.878,273.871,160.292,273.841,155.762,273.841Z" style="fill:#606161"/><path d="M240.68,272.84h-3.266q-18.183,0-36.364-.006c-5.666-.009-7.058-2.425-4.091-7.29q21.862-35.859,43.808-71.665c.43-.7.9-1.616,1.571-1.884a7.2,7.2,0,0,1,4.276-.877,4.582,4.582,0,0,1,2.284,3.344,91.522,91.522,0,0,1,.2,9.7q.019,13.879,0,27.758v3.243h3.33q17.765,0,35.531-.009c2.206,0,4.757.095,5.419,2.367a8.09,8.09,0,0,1-.982,5.616c-3.857,6.734-8.018,13.293-12.068,19.916-.144.237-.278.481-.434.709a4.221,4.221,0,0,1-5.618,2.018,4.322,4.322,0,0,1-.535-.3,4.173,4.173,0,0,1-1.218-5.774c.068-.1.14-.2.217-.3,2.6-4.367,5.285-8.681,7.926-13.023.468-.769.888-1.568,1.522-2.691-1.3-.059-2.262-.139-3.228-.14q-16.239-.015-32.478-.011c-4.485,0-5.8-1.31-5.8-5.742q-.015-11.937,0-23.872v-2.661l-.57-.16-32.649,53.377H210.8q16.238,0,32.477,0c4.68,0,5.819,1.162,5.827,5.935q.021,11.8,0,23.6v3.466c.877-1.181,1.319-1.691,1.667-2.258,3.336-5.433,6.641-10.885,9.988-16.312,1.783-2.893,4.167-3.72,6.422-2.311,2.145,1.341,2.5,3.822.816,6.577-6.347,10.418-12.738,20.809-19.081,31.23-1.2,1.981-2.717,3.454-5.163,2.776-2.59-.719-3.074-2.922-3.073-5.289q0-17.9,0-35.808Z" style="fill:#606161"/><line x1="514.163" y1="190.815" x2="1659.052" y2="190.815" style="fill:none;stroke:#fff;stroke-miterlimit:10;stroke-width:3px"/><g style="isolation:isolate"><path d="M526.391,104.445h-11.23V97.828h30.583v6.617H534.513v28.478h-8.122Z" style="fill:#fff"/><path d="M573.067,121.643h-20.4a6.352,6.352,0,0,0,2.607,3.96,8.632,8.632,0,0,0,5.114,1.454,10.349,10.349,0,0,0,3.735-.626,9.047,9.047,0,0,0,3.033-1.981l4.162,4.512q-3.811,4.362-11.13,4.362a17.611,17.611,0,0,1-8.072-1.78,13.035,13.035,0,0,1-5.415-4.939,13.594,13.594,0,0,1-1.9-7.168,13.78,13.78,0,0,1,1.88-7.145,13.185,13.185,0,0,1,5.164-4.964,15.993,15.993,0,0,1,14.514-.075,12.458,12.458,0,0,1,5.039,4.889,14.575,14.575,0,0,1,1.83,7.394Q573.218,119.688,573.067,121.643Zm-18.3-8.674a6.4,6.4,0,0,0-2.206,4.111h13.286a6.471,6.471,0,0,0-2.206-4.086,6.6,6.6,0,0,0-4.412-1.529A6.732,6.732,0,0,0,554.768,112.969Z" style="fill:#fff"/><path d="M583.721,131.544a13.313,13.313,0,0,1-5.364-4.939,13.6,13.6,0,0,1,5.364-19.277,16.6,16.6,0,0,1,7.746-1.779,15.029,15.029,0,0,1,7.446,1.779,10.562,10.562,0,0,1,4.637,5.089l-6.066,3.259a6.633,6.633,0,0,0-6.067-3.71,6.861,6.861,0,0,0-5.063,2.006,8.446,8.446,0,0,0,0,10.929,6.86,6.86,0,0,0,5.063,2.005,6.563,6.563,0,0,0,6.067-3.71l6.066,3.31a10.777,10.777,0,0,1-4.637,5.014,14.848,14.848,0,0,1-7.446,1.8A16.587,16.587,0,0,1,583.721,131.544Z" style="fill:#fff"/><path d="M632.353,108.557q3.083,3.009,3.083,8.924v15.442h-7.821V118.685a7.039,7.039,0,0,0-1.4-4.789,5.152,5.152,0,0,0-4.061-1.579,6.226,6.226,0,0,0-4.713,1.829,7.581,7.581,0,0,0-1.754,5.441v13.336h-7.822v-37.2h7.822v13.036a10.4,10.4,0,0,1,3.76-2.382,13.589,13.589,0,0,1,4.813-.827A11.1,11.1,0,0,1,632.353,108.557Z" style="fill:#fff"/><path d="M667,108.557q3.084,3.009,3.084,8.924v15.442h-7.822V118.685a7.034,7.034,0,0,0-1.4-4.789,5.15,5.15,0,0,0-4.061-1.579,6.224,6.224,0,0,0-4.712,1.829,7.581,7.581,0,0,0-1.755,5.441v13.336h-7.821V105.95h7.47v3.158a10.383,10.383,0,0,1,3.86-2.631,13.442,13.442,0,0,1,5.064-.928A11.1,11.1,0,0,1,667,108.557Z" style="fill:#fff"/><path d="M682.638,131.544a13.219,13.219,0,0,1-5.289-4.939,14.442,14.442,0,0,1,0-14.338,13.24,13.24,0,0,1,5.289-4.939,17.267,17.267,0,0,1,15.267,0,13.29,13.29,0,0,1,5.264,4.939,14.442,14.442,0,0,1,0,14.338,13.269,13.269,0,0,1-5.264,4.939,17.258,17.258,0,0,1-15.267,0Zm12.584-6.668a8.632,8.632,0,0,0,0-10.88,6.515,6.515,0,0,0-4.938-2.03A6.6,6.6,0,0,0,685.32,114a8.546,8.546,0,0,0,0,10.88,6.6,6.6,0,0,0,4.964,2.03A6.515,6.515,0,0,0,695.222,124.876Z" style="fill:#fff"/><path d="M710.289,95.722h7.821v37.2h-7.821Z" style="fill:#fff"/><path d="M730.568,131.544a13.222,13.222,0,0,1-5.29-4.939,14.448,14.448,0,0,1,0-14.338,13.242,13.242,0,0,1,5.29-4.939,17.265,17.265,0,0,1,15.266,0,13.292,13.292,0,0,1,5.265,4.939,14.442,14.442,0,0,1,0,14.338,13.271,13.271,0,0,1-5.265,4.939,17.256,17.256,0,0,1-15.266,0Zm12.584-6.668a8.632,8.632,0,0,0,0-10.88,6.516,6.516,0,0,0-4.938-2.03A6.6,6.6,0,0,0,733.25,114a8.546,8.546,0,0,0,0,10.88,6.6,6.6,0,0,0,4.964,2.03A6.516,6.516,0,0,0,743.152,124.876Z" style="fill:#fff"/><path d="M786.043,105.95v22.46q0,7.419-3.86,11.03T770.9,143.051a28.253,28.253,0,0,1-7.42-.953,16.2,16.2,0,0,1-5.816-2.758l3.108-5.615a12.825,12.825,0,0,0,4.312,2.231,17.14,17.14,0,0,0,5.214.827q4.062,0,5.992-1.83t1.93-5.54V128.26q-3.058,3.36-8.523,3.359a14.318,14.318,0,0,1-6.794-1.629,12.412,12.412,0,0,1-4.888-4.588,13.779,13.779,0,0,1,0-13.636,12.426,12.426,0,0,1,4.888-4.588,14.329,14.329,0,0,1,6.794-1.629q5.865,0,8.924,3.86V105.95Zm-9.7,17.422a6.779,6.779,0,0,0,0-9.576,7.205,7.205,0,0,0-5.089-1.83,7.293,7.293,0,0,0-5.114,1.83,6.719,6.719,0,0,0,0,9.576,7.289,7.289,0,0,0,5.114,1.83A7.2,7.2,0,0,0,776.342,123.372Z" style="fill:#fff"/><path d="M820.085,105.95,807.9,134.577q-1.854,4.663-4.587,6.569a11.247,11.247,0,0,1-6.593,1.905,13.675,13.675,0,0,1-4.161-.653,9.176,9.176,0,0,1-3.359-1.8l2.858-5.566a6.7,6.7,0,0,0,2.08,1.254,6.477,6.477,0,0,0,2.332.451,4.138,4.138,0,0,0,2.607-.777,6.594,6.594,0,0,0,1.8-2.582l.1-.251L789.3,105.95h8.072l7.57,18.3,7.621-18.3Z" style="fill:#fff"/><path d="M838.033,97.828h15.944a22.407,22.407,0,0,1,10.1,2.181,16.34,16.34,0,0,1,6.818,6.141,18.714,18.714,0,0,1,0,18.451,16.333,16.333,0,0,1-6.818,6.141,22.407,22.407,0,0,1-10.1,2.181H838.033Zm15.543,28.427a11.794,11.794,0,0,0,8.4-2.933,11.641,11.641,0,0,0,0-15.893,11.794,11.794,0,0,0-8.4-2.933h-7.421v21.759Z" style="fill:#fff"/><path d="M890.149,106.552a14.035,14.035,0,0,1,5.49-1v7.22q-1.3-.1-1.755-.1a7.171,7.171,0,0,0-5.264,1.88q-1.906,1.881-1.9,5.64v12.735h-7.821V105.95h7.47v3.56A8.69,8.69,0,0,1,890.149,106.552Z" style="fill:#fff"/><path d="M900.7,100.937a4.245,4.245,0,0,1,0-6.217,4.958,4.958,0,0,1,3.509-1.254,5.088,5.088,0,0,1,3.51,1.2,3.862,3.862,0,0,1,1.354,3.009,4.259,4.259,0,0,1-1.354,3.233,4.9,4.9,0,0,1-3.51,1.278A4.961,4.961,0,0,1,900.7,100.937Zm-.4,5.013h7.821v26.973H900.3Z" style="fill:#fff"/><path d="M942.164,105.95l-11.381,26.973h-8.071L911.381,105.95h8.072l7.471,18.35,7.721-18.35Z" style="fill:#fff"/><path d="M970.893,121.643H950.486a6.353,6.353,0,0,0,2.608,3.96,8.632,8.632,0,0,0,5.114,1.454,10.356,10.356,0,0,0,3.735-.626,9.06,9.06,0,0,0,3.034-1.981l4.161,4.512q-3.81,4.362-11.13,4.362a17.605,17.605,0,0,1-8.072-1.78,13.035,13.035,0,0,1-5.415-4.939,13.6,13.6,0,0,1-1.906-7.168,13.781,13.781,0,0,1,1.881-7.145,13.185,13.185,0,0,1,5.164-4.964,15.993,15.993,0,0,1,14.514-.075,12.458,12.458,0,0,1,5.039,4.889,14.575,14.575,0,0,1,1.83,7.394Q971.043,119.688,970.893,121.643Zm-18.3-8.674a6.4,6.4,0,0,0-2.206,4.111h13.286a6.476,6.476,0,0,0-2.206-4.086,6.6,6.6,0,0,0-4.412-1.529A6.732,6.732,0,0,0,952.593,112.969Z" style="fill:#fff"/><path d="M1000.748,108.557q3.084,3.009,3.084,8.924v15.442H996.01V118.685a7.034,7.034,0,0,0-1.4-4.789,5.152,5.152,0,0,0-4.061-1.579,6.226,6.226,0,0,0-4.713,1.829,7.581,7.581,0,0,0-1.754,5.441v13.336h-7.821V105.95h7.47v3.158a10.379,10.379,0,0,1,3.861-2.631,13.433,13.433,0,0,1,5.063-.928A11.1,11.1,0,0,1,1000.748,108.557Z" style="fill:#fff"/><path d="M1029.124,132.4a18.836,18.836,0,0,1-6.241-2.932l2.757-6.117A18.711,18.711,0,0,0,1031,126a20.131,20.131,0,0,0,6.217,1,9.935,9.935,0,0,0,5.114-1.028,3.105,3.105,0,0,0,1.655-2.732,2.612,2.612,0,0,0-.978-2.081,7.424,7.424,0,0,0-2.507-1.329q-1.53-.5-4.136-1.1a56.742,56.742,0,0,1-6.568-1.905,10.672,10.672,0,0,1-4.387-3.058,8.254,8.254,0,0,1-1.83-5.616,9.781,9.781,0,0,1,1.654-5.54,11.135,11.135,0,0,1,4.989-3.935,20.362,20.362,0,0,1,8.148-1.454,27,27,0,0,1,6.566.8,19.4,19.4,0,0,1,5.616,2.307l-2.506,6.166a19.574,19.574,0,0,0-9.727-2.757,9.123,9.123,0,0,0-5.039,1.1,3.367,3.367,0,0,0-1.629,2.908,2.843,2.843,0,0,0,1.88,2.682,29.484,29.484,0,0,0,5.741,1.73,57.635,57.635,0,0,1,6.568,1.9,10.893,10.893,0,0,1,4.386,3.009,8.068,8.068,0,0,1,1.831,5.565,9.584,9.584,0,0,1-1.68,5.49,11.285,11.285,0,0,1-5.038,3.935,20.534,20.534,0,0,1-8.173,1.454A28.711,28.711,0,0,1,1029.124,132.4Z" style="fill:#fff"/><path d="M1084.248,105.95v26.973h-7.42v-3.209a10.358,10.358,0,0,1-3.711,2.682,11.657,11.657,0,0,1-4.662.928,11.487,11.487,0,0,1-8.423-3.058q-3.109-3.057-3.108-9.075V105.95h7.821v14.088q0,6.517,5.465,6.518a5.879,5.879,0,0,0,4.513-1.83,7.733,7.733,0,0,0,1.7-5.44V105.95Z" style="fill:#fff"/><path d="M1094.024,132.5a17.163,17.163,0,0,1-5.114-2.081l2.608-5.615a16.378,16.378,0,0,0,4.361,1.88,18.271,18.271,0,0,0,5.014.727q4.962,0,4.963-2.457a1.738,1.738,0,0,0-1.353-1.654,20.142,20.142,0,0,0-4.161-.853,39.815,39.815,0,0,1-5.465-1.153,8.464,8.464,0,0,1-3.735-2.306,6.556,6.556,0,0,1-1.579-4.713,7.382,7.382,0,0,1,1.478-4.537,9.535,9.535,0,0,1,4.313-3.084,18.427,18.427,0,0,1,6.692-1.1,26.251,26.251,0,0,1,5.69.627,15.91,15.91,0,0,1,4.688,1.729l-2.608,5.565a15.568,15.568,0,0,0-7.77-2,7.911,7.911,0,0,0-3.761.7,2.064,2.064,0,0,0-1.253,1.8,1.792,1.792,0,0,0,1.355,1.755,23.977,23.977,0,0,0,4.31.952,46.11,46.11,0,0,1,5.415,1.178,8.128,8.128,0,0,1,3.66,2.282,6.466,6.466,0,0,1,1.554,4.612,7.12,7.12,0,0,1-1.5,4.462,9.6,9.6,0,0,1-4.386,3.033,19.541,19.541,0,0,1-6.844,1.078A26.228,26.228,0,0,1,1094.024,132.5Z" style="fill:#fff"/><path d="M1135.536,131.619a8,8,0,0,1-2.833,1.278,14.274,14.274,0,0,1-3.534.427q-4.812,0-7.445-2.457t-2.632-7.22v-11.08h-4.162v-6.015h4.162V99.983h7.821v6.569h6.718v6.015h-6.718v10.981a3.68,3.68,0,0,0,.877,2.632,3.247,3.247,0,0,0,2.481.927,5.029,5.029,0,0,0,3.16-1Z" style="fill:#fff"/><path d="M1160.453,108.531q3.36,2.985,3.36,9v15.392h-7.32v-3.36q-2.208,3.761-8.222,3.761a12.757,12.757,0,0,1-5.39-1.053,8.028,8.028,0,0,1-3.485-2.908,7.573,7.573,0,0,1-1.2-4.212,7.03,7.03,0,0,1,2.832-5.916q2.833-2.154,8.75-2.155h6.217a4.984,4.984,0,0,0-1.554-3.935,6.851,6.851,0,0,0-4.663-1.379,13.624,13.624,0,0,0-4.237.676,11.224,11.224,0,0,0-3.534,1.83l-2.808-5.464a16.936,16.936,0,0,1,5.289-2.407,23.7,23.7,0,0,1,6.343-.852Q1157.1,105.549,1160.453,108.531Zm-6.668,18.6a5.077,5.077,0,0,0,2.207-2.733v-2.756h-5.365q-4.814,0-4.813,3.158a2.814,2.814,0,0,0,1.178,2.382,5.306,5.306,0,0,0,3.235.877A6.8,6.8,0,0,0,1153.785,127.132Z" style="fill:#fff"/><path d="M1171.282,100.937a4.247,4.247,0,0,1,0-6.217,4.96,4.96,0,0,1,3.51-1.254,5.086,5.086,0,0,1,3.509,1.2,3.862,3.862,0,0,1,1.354,3.009,4.259,4.259,0,0,1-1.354,3.233,4.9,4.9,0,0,1-3.509,1.278A4.963,4.963,0,0,1,1171.282,100.937Zm-.4,5.013h7.822v26.973h-7.822Z" style="fill:#fff"/><path d="M1210.463,108.557q3.085,3.009,3.084,8.924v15.442h-7.821V118.685a7.034,7.034,0,0,0-1.4-4.789,5.152,5.152,0,0,0-4.061-1.579,6.226,6.226,0,0,0-4.713,1.829,7.581,7.581,0,0,0-1.755,5.441v13.336h-7.82V105.95h7.469v3.158a10.4,10.4,0,0,1,3.861-2.631,13.431,13.431,0,0,1,5.064-.928A11.1,11.1,0,0,1,1210.463,108.557Z" style="fill:#fff"/><path d="M1241.121,108.531q3.358,2.985,3.359,9v15.392h-7.32v-3.36q-2.207,3.761-8.222,3.761a12.752,12.752,0,0,1-5.389-1.053,8.022,8.022,0,0,1-3.485-2.908,7.565,7.565,0,0,1-1.2-4.212,7.03,7.03,0,0,1,2.832-5.916q2.834-2.154,8.749-2.155h6.217a4.981,4.981,0,0,0-1.554-3.935,6.849,6.849,0,0,0-4.663-1.379,13.624,13.624,0,0,0-4.237.676,11.229,11.229,0,0,0-3.533,1.83l-2.809-5.464a16.957,16.957,0,0,1,5.289-2.407,23.714,23.714,0,0,1,6.343-.852Q1237.762,105.549,1241.121,108.531Zm-6.668,18.6a5.076,5.076,0,0,0,2.206-2.733v-2.756H1231.3q-4.814,0-4.814,3.158a2.813,2.813,0,0,0,1.179,2.382,5.3,5.3,0,0,0,3.234.877A6.805,6.805,0,0,0,1234.453,127.132Z" style="fill:#fff"/><path d="M1274.336,107.278a12.426,12.426,0,0,1,4.838,4.864,16.037,16.037,0,0,1,0,14.589,12.426,12.426,0,0,1-4.838,4.864,13.759,13.759,0,0,1-6.844,1.729q-5.565,0-8.472-3.51v3.109h-7.471v-37.2h7.822v13.086a10.412,10.412,0,0,1,8.121-3.259A13.749,13.749,0,0,1,1274.336,107.278Zm-3.259,17.6a8.628,8.628,0,0,0,0-10.88,7.022,7.022,0,0,0-9.877,0,8.632,8.632,0,0,0,0,10.88,7.022,7.022,0,0,0,9.877,0Z" style="fill:#fff"/><path d="M1286.143,95.722h7.82v37.2h-7.82Z" style="fill:#fff"/><path d="M1327.5,121.643h-20.4a6.355,6.355,0,0,0,2.606,3.96,8.635,8.635,0,0,0,5.115,1.454,10.349,10.349,0,0,0,3.735-.626,9.047,9.047,0,0,0,3.033-1.981l4.162,4.512q-3.811,4.362-11.131,4.362a17.614,17.614,0,0,1-8.072-1.78,13.026,13.026,0,0,1-5.414-4.939,13.585,13.585,0,0,1-1.9-7.168,13.789,13.789,0,0,1,1.879-7.145,13.191,13.191,0,0,1,5.164-4.964,15.993,15.993,0,0,1,14.514-.075,12.452,12.452,0,0,1,5.039,4.889,14.565,14.565,0,0,1,1.83,7.394Q1327.654,119.688,1327.5,121.643Zm-18.3-8.674A6.406,6.406,0,0,0,1307,117.08h13.287a6.472,6.472,0,0,0-2.207-4.086,6.6,6.6,0,0,0-4.412-1.529A6.732,6.732,0,0,0,1309.205,112.969Z" style="fill:#fff"/><path d="M1351.092,132.4a18.855,18.855,0,0,1-6.241-2.932l2.756-6.117a18.711,18.711,0,0,0,5.366,2.657,20.129,20.129,0,0,0,6.216,1,9.932,9.932,0,0,0,5.114-1.028,3.105,3.105,0,0,0,1.655-2.732,2.612,2.612,0,0,0-.978-2.081,7.424,7.424,0,0,0-2.507-1.329q-1.53-.5-4.136-1.1a56.718,56.718,0,0,1-6.567-1.905,10.653,10.653,0,0,1-4.387-3.058,8.254,8.254,0,0,1-1.83-5.616,9.773,9.773,0,0,1,1.654-5.54,11.137,11.137,0,0,1,4.988-3.935,20.366,20.366,0,0,1,8.148-1.454,27.01,27.01,0,0,1,6.567.8,19.386,19.386,0,0,1,5.615,2.307l-2.505,6.166a19.582,19.582,0,0,0-9.727-2.757,9.123,9.123,0,0,0-5.039,1.1,3.367,3.367,0,0,0-1.629,2.908,2.842,2.842,0,0,0,1.879,2.682,29.506,29.506,0,0,0,5.741,1.73,57.7,57.7,0,0,1,6.568,1.9,10.886,10.886,0,0,1,4.386,3.009,8.063,8.063,0,0,1,1.83,5.565,9.583,9.583,0,0,1-1.679,5.49,11.279,11.279,0,0,1-5.038,3.935,20.534,20.534,0,0,1-8.173,1.454A28.716,28.716,0,0,1,1351.092,132.4Z" style="fill:#fff"/><path d="M1384.231,131.544a13.235,13.235,0,0,1-5.29-4.939,14.448,14.448,0,0,1,0-14.338,13.255,13.255,0,0,1,5.29-4.939,17.267,17.267,0,0,1,15.267,0,13.29,13.29,0,0,1,5.264,4.939,14.435,14.435,0,0,1,0,14.338,13.269,13.269,0,0,1-5.264,4.939,17.258,17.258,0,0,1-15.267,0Zm12.584-6.668a8.628,8.628,0,0,0,0-10.88,6.515,6.515,0,0,0-4.938-2.03,6.594,6.594,0,0,0-4.963,2.03,8.546,8.546,0,0,0,0,10.88,6.594,6.594,0,0,0,4.963,2.03A6.515,6.515,0,0,0,1396.815,124.876Z" style="fill:#fff"/><path d="M1411.881,95.722h7.822v37.2h-7.822Z" style="fill:#fff"/><path d="M1454.146,105.95v26.973h-7.42v-3.209a10.372,10.372,0,0,1-3.71,2.682,11.668,11.668,0,0,1-4.662.928,11.487,11.487,0,0,1-8.424-3.058q-3.11-3.057-3.108-9.075V105.95h7.821v14.088q0,6.517,5.464,6.518a5.877,5.877,0,0,0,4.513-1.83,7.724,7.724,0,0,0,1.7-5.44V105.95Z" style="fill:#fff"/><path d="M1478.813,131.619a8.012,8.012,0,0,1-2.834,1.278,14.274,14.274,0,0,1-3.534.427q-4.813,0-7.445-2.457t-2.633-7.22v-11.08h-4.161v-6.015h4.161V99.983h7.822v6.569h6.717v6.015h-6.717v10.981a3.675,3.675,0,0,0,.877,2.632,3.248,3.248,0,0,0,2.482.927,5.028,5.028,0,0,0,3.159-1Z" style="fill:#fff"/><path d="M1483.625,100.937a4.245,4.245,0,0,1,0-6.217,4.958,4.958,0,0,1,3.51-1.254,5.09,5.09,0,0,1,3.51,1.2A3.861,3.861,0,0,1,1492,97.678a4.259,4.259,0,0,1-1.353,3.233,4.9,4.9,0,0,1-3.51,1.278A4.962,4.962,0,0,1,1483.625,100.937Zm-.4,5.013h7.82v26.973h-7.82Z" style="fill:#fff"/><path d="M1503.5,131.544a13.213,13.213,0,0,1-5.289-4.939,14.442,14.442,0,0,1,0-14.338,13.233,13.233,0,0,1,5.289-4.939,17.267,17.267,0,0,1,15.267,0,13.29,13.29,0,0,1,5.264,4.939,14.448,14.448,0,0,1,0,14.338,13.269,13.269,0,0,1-5.264,4.939,17.258,17.258,0,0,1-15.267,0Zm12.584-6.668a8.632,8.632,0,0,0,0-10.88,6.516,6.516,0,0,0-4.938-2.03,6.6,6.6,0,0,0-4.964,2.03,8.543,8.543,0,0,0,0,10.88,6.6,6.6,0,0,0,4.964,2.03A6.516,6.516,0,0,0,1516.088,124.876Z" style="fill:#fff"/><path d="M1555.645,108.557q3.084,3.009,3.084,8.924v15.442h-7.822V118.685a7.039,7.039,0,0,0-1.4-4.789,5.154,5.154,0,0,0-4.062-1.579,6.228,6.228,0,0,0-4.713,1.829,7.585,7.585,0,0,0-1.754,5.441v13.336h-7.821V105.95h7.47v3.158a10.383,10.383,0,0,1,3.86-2.631,13.436,13.436,0,0,1,5.065-.928A11.1,11.1,0,0,1,1555.645,108.557Z" style="fill:#fff"/><path d="M1568.305,132.5a17.148,17.148,0,0,1-5.115-2.081l2.607-5.615a16.386,16.386,0,0,0,4.362,1.88,18.266,18.266,0,0,0,5.014.727q4.962,0,4.964-2.457a1.738,1.738,0,0,0-1.354-1.654,20.155,20.155,0,0,0-4.162-.853,39.913,39.913,0,0,1-5.465-1.153,8.472,8.472,0,0,1-3.734-2.306,6.556,6.556,0,0,1-1.58-4.713,7.388,7.388,0,0,1,1.478-4.537,9.541,9.541,0,0,1,4.313-3.084,18.44,18.44,0,0,1,6.693-1.1,26.264,26.264,0,0,1,5.69.627,15.931,15.931,0,0,1,4.688,1.729l-2.607,5.565a15.577,15.577,0,0,0-7.771-2,7.905,7.905,0,0,0-3.761.7,2.062,2.062,0,0,0-1.252,1.8,1.791,1.791,0,0,0,1.353,1.755,23.987,23.987,0,0,0,4.312.952,46.247,46.247,0,0,1,5.415,1.178,8.138,8.138,0,0,1,3.66,2.282,6.475,6.475,0,0,1,1.553,4.612,7.125,7.125,0,0,1-1.5,4.462,9.6,9.6,0,0,1-4.388,3.033,19.535,19.535,0,0,1-6.843,1.078A26.214,26.214,0,0,1,1568.305,132.5Z" style="fill:#fff"/></g><g style="isolation:isolate"><path d="M528.7,246.191h-8.656v-3.137h20.881v3.137h-8.655V268.3H528.7Z" style="fill:#fff"/><path d="M560.345,251.114q2.145,2.11,2.146,6.185v11h-3.462V257.7a5.872,5.872,0,0,0-1.334-4.183,5.019,5.019,0,0,0-3.823-1.407,5.953,5.953,0,0,0-4.435,1.641,6.41,6.41,0,0,0-1.624,4.707V268.3h-3.461V241.539h3.461V251.89a7.146,7.146,0,0,1,2.832-2.128,9.746,9.746,0,0,1,3.912-.758A7.894,7.894,0,0,1,560.345,251.114Z" style="fill:#fff"/><path d="M586.22,259.9H570.713a6,6,0,0,0,2.218,4.056,7.231,7.231,0,0,0,4.706,1.533,7.09,7.09,0,0,0,5.518-2.308l1.911,2.236a8.369,8.369,0,0,1-3.228,2.308,12.167,12.167,0,0,1-9.683-.45,8.878,8.878,0,0,1-3.624-3.481,9.982,9.982,0,0,1-1.28-5.049,10.138,10.138,0,0,1,1.244-5.012,8.917,8.917,0,0,1,3.426-3.481A9.762,9.762,0,0,1,576.844,249a9.569,9.569,0,0,1,4.886,1.244,8.748,8.748,0,0,1,3.354,3.481,10.606,10.606,0,0,1,1.208,5.121A9.954,9.954,0,0,1,586.22,259.9Zm-13.542-6.456a6.109,6.109,0,0,0-1.965,3.967h12.262a6.153,6.153,0,0,0-1.966-3.949,6.458,6.458,0,0,0-8.331-.018Z" style="fill:#fff"/><path d="M603.909,267.252a9.231,9.231,0,0,1-3.588-3.481,10.39,10.39,0,0,1,0-10.061,9.115,9.115,0,0,1,3.588-3.462A10.745,10.745,0,0,1,609.12,249a10,10,0,0,1,4.634,1.046,7.468,7.468,0,0,1,3.156,3.029l-2.633,1.695a5.89,5.89,0,0,0-2.236-2.055,6.388,6.388,0,0,0-2.957-.686,6.844,6.844,0,0,0-3.372.83,5.907,5.907,0,0,0-2.344,2.362,7.146,7.146,0,0,0-.847,3.516,7.219,7.219,0,0,0,.847,3.552,5.9,5.9,0,0,0,2.344,2.362,6.823,6.823,0,0,0,3.372.83,6.375,6.375,0,0,0,2.957-.685,5.877,5.877,0,0,0,2.236-2.056l2.633,1.659a7.563,7.563,0,0,1-3.156,3.047,9.853,9.853,0,0,1-4.634,1.065A10.611,10.611,0,0,1,603.909,267.252Z" style="fill:#fff"/><path d="M637.123,251.114q2.145,2.11,2.146,6.185v11h-3.462V257.7a5.872,5.872,0,0,0-1.334-4.183,5.019,5.019,0,0,0-3.823-1.407,5.957,5.957,0,0,0-4.436,1.641,6.414,6.414,0,0,0-1.623,4.707V268.3h-3.462V241.539h3.462V251.89a7.15,7.15,0,0,1,2.831-2.128,9.751,9.751,0,0,1,3.913-.758A7.9,7.9,0,0,1,637.123,251.114Z" style="fill:#fff"/><path d="M658.725,250.951q2.109,1.948,2.109,5.807V268.3h-3.281v-2.525a5.475,5.475,0,0,1-2.47,2.038,9.432,9.432,0,0,1-3.8.7,7.966,7.966,0,0,1-5.139-1.551,5.33,5.33,0,0,1-.09-8.133q1.839-1.532,5.842-1.532h5.482v-.686a4.413,4.413,0,0,0-1.3-3.425A5.48,5.48,0,0,0,652.251,252a10.108,10.108,0,0,0-3.317.56,8.551,8.551,0,0,0-2.741,1.5l-1.443-2.6a10.478,10.478,0,0,1,3.535-1.82,14.772,14.772,0,0,1,4.363-.632A8.649,8.649,0,0,1,658.725,250.951Zm-3.444,14.011a5.069,5.069,0,0,0,2.092-2.506v-2.669h-5.338q-4.4,0-4.4,2.957a2.679,2.679,0,0,0,1.118,2.273,5.117,5.117,0,0,0,3.1.829A6.425,6.425,0,0,0,655.281,264.962Z" style="fill:#fff"/><path d="M667.253,241.539h3.462V268.3h-3.462Z" style="fill:#fff"/><path d="M677.315,241.539h3.462V268.3h-3.462Z" style="fill:#fff"/><path d="M704.578,259.9H689.071a6,6,0,0,0,2.218,4.056A7.231,7.231,0,0,0,696,265.485a7.09,7.09,0,0,0,5.518-2.308l1.911,2.236a8.369,8.369,0,0,1-3.228,2.308,12.167,12.167,0,0,1-9.683-.45,8.878,8.878,0,0,1-3.624-3.481,9.982,9.982,0,0,1-1.28-5.049,10.128,10.128,0,0,1,1.244-5.012,8.917,8.917,0,0,1,3.426-3.481A9.762,9.762,0,0,1,695.2,249a9.569,9.569,0,0,1,4.886,1.244,8.748,8.748,0,0,1,3.354,3.481,10.606,10.606,0,0,1,1.208,5.121A9.954,9.954,0,0,1,704.578,259.9Zm-13.542-6.456a6.1,6.1,0,0,0-1.965,3.967h12.262a6.153,6.153,0,0,0-1.966-3.949,6.458,6.458,0,0,0-8.331-.018Z" style="fill:#fff"/><path d="M725.44,251.114q2.145,2.11,2.146,6.185v11h-3.462V257.7a5.872,5.872,0,0,0-1.334-4.183,5.019,5.019,0,0,0-3.823-1.407,5.957,5.957,0,0,0-4.436,1.641,6.414,6.414,0,0,0-1.623,4.707V268.3h-3.462V249.185h3.318v2.884A6.732,6.732,0,0,1,715.6,249.8a9.906,9.906,0,0,1,4.057-.794A7.9,7.9,0,0,1,725.44,251.114Z" style="fill:#fff"/><path d="M752.4,249.185V265.7q0,5.013-2.488,7.411t-7.429,2.4a17.768,17.768,0,0,1-5.157-.74,10.207,10.207,0,0,1-3.967-2.11l1.659-2.668a9.787,9.787,0,0,0,3.3,1.821,12.531,12.531,0,0,0,4.057.667,6.811,6.811,0,0,0,4.959-1.586,6.535,6.535,0,0,0,1.6-4.833v-1.515a7.68,7.68,0,0,1-3.012,2.219,10.05,10.05,0,0,1-3.877.739,10.436,10.436,0,0,1-4.958-1.173,8.7,8.7,0,0,1-3.48-3.281,9.815,9.815,0,0,1,0-9.629,8.6,8.6,0,0,1,3.48-3.264A10.58,10.58,0,0,1,742.046,249a10.142,10.142,0,0,1,4.021.794,7.457,7.457,0,0,1,3.048,2.344v-2.957Zm-6.581,14.5a5.866,5.866,0,0,0,2.344-2.218,6.191,6.191,0,0,0,.848-3.228,5.851,5.851,0,0,0-1.84-4.49,7.42,7.42,0,0,0-9.484,0,5.854,5.854,0,0,0-1.839,4.49,6.19,6.19,0,0,0,.847,3.228,5.872,5.872,0,0,0,2.344,2.218,7.162,7.162,0,0,0,3.408.794A7.088,7.088,0,0,0,745.815,263.682Z" style="fill:#fff"/><path d="M776.2,259.9H760.691a6,6,0,0,0,2.218,4.056,7.231,7.231,0,0,0,4.706,1.533,7.09,7.09,0,0,0,5.518-2.308l1.911,2.236a8.369,8.369,0,0,1-3.228,2.308,12.167,12.167,0,0,1-9.683-.45,8.878,8.878,0,0,1-3.624-3.481,9.982,9.982,0,0,1-1.28-5.049,10.138,10.138,0,0,1,1.244-5.012,8.917,8.917,0,0,1,3.426-3.481A9.764,9.764,0,0,1,766.822,249a9.569,9.569,0,0,1,4.886,1.244,8.748,8.748,0,0,1,3.354,3.481,10.606,10.606,0,0,1,1.208,5.121A9.954,9.954,0,0,1,776.2,259.9Zm-13.542-6.456a6.109,6.109,0,0,0-1.965,3.967h12.262a6.153,6.153,0,0,0-1.966-3.949,6.458,6.458,0,0,0-8.331-.018Z" style="fill:#fff"/><path d="M819.689,249.185l-7.14,19.113h-3.318l-5.517-14.5-5.59,14.5h-3.318l-7.1-19.113h3.281l5.554,15.218,5.77-15.218h2.922l5.661,15.291,5.7-15.291Z" style="fill:#fff"/><path d="M823.241,244.857a2.127,2.127,0,0,1-.667-1.586,2.19,2.19,0,0,1,.667-1.606,2.278,2.278,0,0,1,1.677-.667,2.348,2.348,0,0,1,1.677.631,2.072,2.072,0,0,1,.667,1.569,2.227,2.227,0,0,1-.667,1.641,2.274,2.274,0,0,1-1.677.667A2.307,2.307,0,0,1,823.241,244.857Zm-.054,4.328h3.462V268.3h-3.462Z" style="fill:#fff"/><path d="M833.249,241.539h3.461V268.3h-3.461Z" style="fill:#fff"/><path d="M843.31,241.539h3.461V268.3H843.31Z" style="fill:#fff"/><path d="M881.1,241.539V268.3h-3.317v-3.029a7.5,7.5,0,0,1-2.922,2.416,9.049,9.049,0,0,1-3.894.83,10.049,10.049,0,0,1-4.977-1.227,8.781,8.781,0,0,1-3.444-3.444,11.052,11.052,0,0,1,0-10.188,8.821,8.821,0,0,1,3.444-3.426A10.049,10.049,0,0,1,870.97,249a9.169,9.169,0,0,1,3.786.775,7.365,7.365,0,0,1,2.885,2.29v-10.53Zm-6.563,23.1a5.958,5.958,0,0,0,2.308-2.381,7.871,7.871,0,0,0,0-7.032,5.834,5.834,0,0,0-2.308-2.362,6.939,6.939,0,0,0-6.582,0,5.976,5.976,0,0,0-2.308,2.362,7.721,7.721,0,0,0,0,7.032,6.106,6.106,0,0,0,2.308,2.381,6.817,6.817,0,0,0,6.582,0Z" style="fill:#fff"/><path d="M904.869,259.9H889.361a6,6,0,0,0,2.218,4.056,7.232,7.232,0,0,0,4.707,1.533,7.088,7.088,0,0,0,5.517-2.308l1.911,2.236a8.373,8.373,0,0,1-3.227,2.308,12.168,12.168,0,0,1-9.683-.45,8.878,8.878,0,0,1-3.624-3.481,9.973,9.973,0,0,1-1.281-5.049,10.128,10.128,0,0,1,1.245-5.012,8.914,8.914,0,0,1,3.425-3.481A9.767,9.767,0,0,1,895.492,249a9.564,9.564,0,0,1,4.886,1.244,8.735,8.735,0,0,1,3.354,3.481,10.6,10.6,0,0,1,1.208,5.121A9.908,9.908,0,0,1,904.869,259.9Zm-13.542-6.456a6.11,6.11,0,0,0-1.966,3.967h12.262a6.153,6.153,0,0,0-1.966-3.949,6.457,6.457,0,0,0-8.33-.018Z" style="fill:#fff"/><path d="M926.29,249.185,917.923,268.3h-3.534l-8.367-19.113h3.607l6.563,15.327,6.708-15.327Z" style="fill:#fff"/><path d="M929.59,244.857a2.128,2.128,0,0,1-.668-1.586,2.191,2.191,0,0,1,.668-1.606,2.272,2.272,0,0,1,1.676-.667,2.348,2.348,0,0,1,1.677.631,2.072,2.072,0,0,1,.667,1.569,2.227,2.227,0,0,1-.667,1.641,2.274,2.274,0,0,1-1.677.667A2.3,2.3,0,0,1,929.59,244.857Zm-.055,4.328H933V268.3h-3.462Z" style="fill:#fff"/><path d="M940.57,267.883a9.861,9.861,0,0,1-3.39-1.6l1.443-2.741a10.322,10.322,0,0,0,3.065,1.443,12.6,12.6,0,0,0,3.642.541q4.543,0,4.544-2.6a1.685,1.685,0,0,0-.612-1.371,3.925,3.925,0,0,0-1.533-.74q-.921-.233-2.616-.522a25.559,25.559,0,0,1-3.767-.829,5.8,5.8,0,0,1-2.507-1.587,4.413,4.413,0,0,1-1.046-3.138,4.9,4.9,0,0,1,2.164-4.165A9.687,9.687,0,0,1,945.763,249a16.032,16.032,0,0,1,3.823.469,10.331,10.331,0,0,1,3.137,1.262l-1.479,2.741a9.937,9.937,0,0,0-5.517-1.515,6.377,6.377,0,0,0-3.354.722,2.177,2.177,0,0,0-1.154,1.911,1.821,1.821,0,0,0,.649,1.478,4.086,4.086,0,0,0,1.6.794q.954.252,2.687.577a29.528,29.528,0,0,1,3.733.847,5.586,5.586,0,0,1,2.433,1.533,4.271,4.271,0,0,1,1.01,3.03,4.774,4.774,0,0,1-2.218,4.128,10.463,10.463,0,0,1-6.04,1.534A16.005,16.005,0,0,1,940.57,267.883Z" style="fill:#fff"/><path d="M974.865,259.9H959.358a6,6,0,0,0,2.218,4.056,7.232,7.232,0,0,0,4.707,1.533,7.092,7.092,0,0,0,5.518-2.308l1.91,2.236a8.366,8.366,0,0,1-3.227,2.308,12.168,12.168,0,0,1-9.683-.45,8.872,8.872,0,0,1-3.624-3.481,9.973,9.973,0,0,1-1.281-5.049,10.128,10.128,0,0,1,1.245-5.012,8.914,8.914,0,0,1,3.425-3.481A9.767,9.767,0,0,1,965.489,249a9.564,9.564,0,0,1,4.886,1.244,8.735,8.735,0,0,1,3.354,3.481,10.6,10.6,0,0,1,1.209,5.121A9.732,9.732,0,0,1,974.865,259.9Zm-13.541-6.456a6.11,6.11,0,0,0-1.966,3.967H971.62a6.148,6.148,0,0,0-1.966-3.949,6.457,6.457,0,0,0-8.33-.018Z" style="fill:#fff"/><path d="M989.488,244.857a2.127,2.127,0,0,1-.667-1.586,2.19,2.19,0,0,1,.667-1.606,2.28,2.28,0,0,1,1.678-.667,2.347,2.347,0,0,1,1.676.631,2.073,2.073,0,0,1,.668,1.569,2.228,2.228,0,0,1-.668,1.641,2.273,2.273,0,0,1-1.676.667A2.31,2.31,0,0,1,989.488,244.857Zm-.053,4.328H992.9V268.3h-3.461Z" style="fill:#fff"/><path d="M1015.49,251.114q2.145,2.11,2.146,6.185v11h-3.462V257.7a5.872,5.872,0,0,0-1.334-4.183,5.02,5.02,0,0,0-3.823-1.407,5.956,5.956,0,0,0-4.436,1.641,6.414,6.414,0,0,0-1.623,4.707V268.3H999.5V249.185h3.318v2.884a6.732,6.732,0,0,1,2.831-2.271A9.907,9.907,0,0,1,1009.7,249,7.9,7.9,0,0,1,1015.49,251.114Z" style="fill:#fff"/><path d="M1040.049,251.114q2.145,2.11,2.145,6.185v11h-3.462V257.7a5.872,5.872,0,0,0-1.334-4.183,5.019,5.019,0,0,0-3.823-1.407,5.953,5.953,0,0,0-4.435,1.641,6.414,6.414,0,0,0-1.623,4.707V268.3h-3.462V249.185h3.318v2.884a6.729,6.729,0,0,1,2.83-2.271,9.912,9.912,0,0,1,4.057-.794A7.9,7.9,0,0,1,1040.049,251.114Z" style="fill:#fff"/><path d="M1051.787,267.252a9.139,9.139,0,0,1-3.553-3.481,10.525,10.525,0,0,1,0-10.061,9.024,9.024,0,0,1,3.553-3.462,11.123,11.123,0,0,1,10.223,0,9.064,9.064,0,0,1,3.535,3.462,10.532,10.532,0,0,1,0,10.061,9.18,9.18,0,0,1-3.535,3.481,10.975,10.975,0,0,1-10.223,0Zm8.42-2.614a5.988,5.988,0,0,0,2.29-2.381,7.871,7.871,0,0,0,0-7.032,5.862,5.862,0,0,0-2.29-2.362,6.975,6.975,0,0,0-6.6,0,5.974,5.974,0,0,0-2.307,2.362,7.713,7.713,0,0,0,0,7.032,6.1,6.1,0,0,0,2.307,2.381,6.852,6.852,0,0,0,6.6,0Z" style="fill:#fff"/><path d="M1087.994,249.185l-8.367,19.113h-3.534l-8.366-19.113h3.605l6.564,15.327,6.708-15.327Z" style="fill:#fff"/><path d="M1103.662,250.951q2.111,1.948,2.11,5.807V268.3h-3.282v-2.525a5.467,5.467,0,0,1-2.469,2.038,9.432,9.432,0,0,1-3.805.7,7.971,7.971,0,0,1-5.14-1.551,5.331,5.331,0,0,1-.09-8.133q1.84-1.532,5.842-1.532h5.483v-.686a4.413,4.413,0,0,0-1.3-3.425,5.48,5.48,0,0,0-3.823-1.191,10.114,10.114,0,0,0-3.318.56,8.546,8.546,0,0,0-2.74,1.5l-1.443-2.6a10.478,10.478,0,0,1,3.535-1.82,14.772,14.772,0,0,1,4.363-.632A8.644,8.644,0,0,1,1103.662,250.951Zm-3.443,14.011a5.069,5.069,0,0,0,2.092-2.506v-2.669h-5.338q-4.4,0-4.4,2.957a2.677,2.677,0,0,0,1.118,2.273,5.12,5.12,0,0,0,3.1.829A6.424,6.424,0,0,0,1100.219,264.962Z" style="fill:#fff"/><path d="M1122.938,267.18a5.18,5.18,0,0,1-1.875.992,7.88,7.88,0,0,1-2.308.343,6.133,6.133,0,0,1-4.472-1.551,5.924,5.924,0,0,1-1.587-4.437V252.033h-3.245v-2.848h3.245V245h3.462v4.184h5.482v2.848h-5.482v10.351a3.352,3.352,0,0,0,.776,2.38,2.884,2.884,0,0,0,2.217.829,4.167,4.167,0,0,0,2.7-.9Z" style="fill:#fff"/><path d="M1127.175,244.857a2.123,2.123,0,0,1-.667-1.586,2.186,2.186,0,0,1,.667-1.606,2.275,2.275,0,0,1,1.677-.667,2.345,2.345,0,0,1,1.676.631,2.072,2.072,0,0,1,.667,1.569,2.227,2.227,0,0,1-.667,1.641,2.272,2.272,0,0,1-1.676.667A2.3,2.3,0,0,1,1127.175,244.857Zm-.054,4.328h3.461V268.3h-3.461Z" style="fill:#fff"/><path d="M1154.1,249.185l-8.367,19.113H1142.2l-8.367-19.113h3.607L1144,264.512l6.707-15.327Z" style="fill:#fff"/><path d="M1174,259.9h-15.508a6,6,0,0,0,2.219,4.056,7.229,7.229,0,0,0,4.706,1.533,7.09,7.09,0,0,0,5.518-2.308l1.911,2.236a8.377,8.377,0,0,1-3.228,2.308,12.165,12.165,0,0,1-9.682-.45,8.874,8.874,0,0,1-3.625-3.481,9.972,9.972,0,0,1-1.28-5.049,10.128,10.128,0,0,1,1.244-5.012,8.91,8.91,0,0,1,3.426-3.481,9.761,9.761,0,0,1,4.922-1.244,9.57,9.57,0,0,1,4.887,1.244,8.739,8.739,0,0,1,3.353,3.481,10.6,10.6,0,0,1,1.209,5.121A9.954,9.954,0,0,1,1174,259.9Zm-13.542-6.456a6.115,6.115,0,0,0-1.966,3.967h12.262a6.156,6.156,0,0,0-1.965-3.949,6.458,6.458,0,0,0-8.331-.018Z" style="fill:#fff"/><path d="M1199.318,267.18a5.188,5.188,0,0,1-1.875.992,7.885,7.885,0,0,1-2.308.343,6.133,6.133,0,0,1-4.472-1.551,5.92,5.92,0,0,1-1.587-4.437V252.033h-3.246v-2.848h3.246V245h3.462v4.184h5.482v2.848h-5.482v10.351a3.361,3.361,0,0,0,.775,2.38,2.887,2.887,0,0,0,2.218.829,4.169,4.169,0,0,0,2.705-.9Z" style="fill:#fff"/><path d="M1220.055,259.9h-15.508a6,6,0,0,0,2.218,4.056,7.231,7.231,0,0,0,4.706,1.533,7.087,7.087,0,0,0,5.517-2.308l1.912,2.236a8.369,8.369,0,0,1-3.228,2.308,12.167,12.167,0,0,1-9.683-.45,8.884,8.884,0,0,1-3.624-3.481,9.982,9.982,0,0,1-1.28-5.049,10.138,10.138,0,0,1,1.244-5.012,8.917,8.917,0,0,1,3.426-3.481,9.762,9.762,0,0,1,4.923-1.244,9.569,9.569,0,0,1,4.886,1.244,8.748,8.748,0,0,1,3.354,3.481,10.606,10.606,0,0,1,1.208,5.121A10.187,10.187,0,0,1,1220.055,259.9Zm-13.543-6.456a6.109,6.109,0,0,0-1.965,3.967h12.262a6.157,6.157,0,0,0-1.966-3.949,6.458,6.458,0,0,0-8.331-.018Z" style="fill:#fff"/><path d="M1228.042,267.252a9.234,9.234,0,0,1-3.589-3.481,10.4,10.4,0,0,1,0-10.061,9.118,9.118,0,0,1,3.589-3.462,10.742,10.742,0,0,1,5.211-1.244,10.007,10.007,0,0,1,4.634,1.046,7.468,7.468,0,0,1,3.156,3.029l-2.633,1.695a5.89,5.89,0,0,0-2.236-2.055,6.388,6.388,0,0,0-2.957-.686,6.847,6.847,0,0,0-3.372.83,5.907,5.907,0,0,0-2.344,2.362,7.146,7.146,0,0,0-.848,3.516,7.219,7.219,0,0,0,.848,3.552,5.9,5.9,0,0,0,2.344,2.362,6.826,6.826,0,0,0,3.372.83,6.375,6.375,0,0,0,2.957-.685,5.877,5.877,0,0,0,2.236-2.056l2.633,1.659a7.563,7.563,0,0,1-3.156,3.047,9.856,9.856,0,0,1-4.634,1.065A10.608,10.608,0,0,1,1228.042,267.252Z" style="fill:#fff"/><path d="M1261.256,251.114q2.145,2.11,2.146,6.185v11h-3.463V257.7a5.872,5.872,0,0,0-1.334-4.183,5.016,5.016,0,0,0-3.822-1.407,5.953,5.953,0,0,0-4.435,1.641,6.414,6.414,0,0,0-1.623,4.707V268.3h-3.463V241.539h3.463V251.89a7.132,7.132,0,0,1,2.83-2.128,9.747,9.747,0,0,1,3.913-.758A7.9,7.9,0,0,1,1261.256,251.114Z" style="fill:#fff"/><path d="M1285.814,251.114q2.145,2.11,2.147,6.185v11H1284.5V257.7a5.872,5.872,0,0,0-1.334-4.183,5.018,5.018,0,0,0-3.822-1.407,5.956,5.956,0,0,0-4.436,1.641,6.414,6.414,0,0,0-1.623,4.707V268.3h-3.463V249.185h3.319v2.884a6.726,6.726,0,0,1,2.831-2.271,9.9,9.9,0,0,1,4.056-.794A7.893,7.893,0,0,1,1285.814,251.114Z" style="fill:#fff"/><path d="M1297.553,267.252a9.143,9.143,0,0,1-3.552-3.481,10.525,10.525,0,0,1,0-10.061,9.028,9.028,0,0,1,3.552-3.462,11.125,11.125,0,0,1,10.224,0,9.068,9.068,0,0,1,3.534,3.462,10.518,10.518,0,0,1,0,10.061,9.184,9.184,0,0,1-3.534,3.481,10.977,10.977,0,0,1-10.224,0Zm8.421-2.614a5.988,5.988,0,0,0,2.29-2.381,7.862,7.862,0,0,0,0-7.032,5.862,5.862,0,0,0-2.29-2.362,6.973,6.973,0,0,0-6.6,0,5.972,5.972,0,0,0-2.309,2.362,7.721,7.721,0,0,0,0,7.032,6.1,6.1,0,0,0,2.309,2.381,6.85,6.85,0,0,0,6.6,0Z" style="fill:#fff"/><path d="M1317.387,241.539h3.463V268.3h-3.463Z" style="fill:#fff"/><path d="M1330.514,267.252a9.137,9.137,0,0,1-3.552-3.481,10.525,10.525,0,0,1,0-10.061,9.022,9.022,0,0,1,3.552-3.462,11.125,11.125,0,0,1,10.224,0,9.059,9.059,0,0,1,3.533,3.462,10.511,10.511,0,0,1,0,10.061,9.175,9.175,0,0,1-3.533,3.481,10.977,10.977,0,0,1-10.224,0Zm8.421-2.614a5.988,5.988,0,0,0,2.29-2.381,7.862,7.862,0,0,0,0-7.032,5.862,5.862,0,0,0-2.29-2.362,6.973,6.973,0,0,0-6.6,0,5.972,5.972,0,0,0-2.309,2.362,7.721,7.721,0,0,0,0,7.032,6.1,6.1,0,0,0,2.309,2.381,6.85,6.85,0,0,0,6.6,0Z" style="fill:#fff"/><path d="M1368.632,249.185V265.7q0,5.013-2.488,7.411t-7.429,2.4a17.763,17.763,0,0,1-5.157-.74,10.2,10.2,0,0,1-3.967-2.11l1.659-2.668a9.782,9.782,0,0,0,3.3,1.821,12.531,12.531,0,0,0,4.057.667,6.806,6.806,0,0,0,4.958-1.586,6.527,6.527,0,0,0,1.606-4.833v-1.515a7.666,7.666,0,0,1-3.012,2.219,10.043,10.043,0,0,1-3.877.739,10.442,10.442,0,0,1-4.958-1.173,8.708,8.708,0,0,1-3.479-3.281,9.808,9.808,0,0,1,0-9.629,8.6,8.6,0,0,1,3.479-3.264,10.586,10.586,0,0,1,4.958-1.154,10.147,10.147,0,0,1,4.022.794,7.46,7.46,0,0,1,3.047,2.344v-2.957Zm-6.581,14.5a5.872,5.872,0,0,0,2.344-2.218,6.2,6.2,0,0,0,.847-3.228,5.851,5.851,0,0,0-1.84-4.49,7.42,7.42,0,0,0-9.484,0,5.854,5.854,0,0,0-1.839,4.49,6.182,6.182,0,0,0,.848,3.228,5.859,5.859,0,0,0,2.344,2.218,7.634,7.634,0,0,0,6.78,0Z" style="fill:#fff"/><path d="M1392.145,249.185l-9.268,21.024a9.485,9.485,0,0,1-2.867,4.111,6.551,6.551,0,0,1-3.949,1.191,8.358,8.358,0,0,1-2.723-.451,5.586,5.586,0,0,1-2.182-1.317l1.479-2.6a4.818,4.818,0,0,0,3.426,1.408,3.3,3.3,0,0,0,2.109-.668,5.7,5.7,0,0,0,1.533-2.29l.613-1.334-8.439-19.077h3.606l6.671,15.291,6.6-15.291Z" style="fill:#fff"/><path d="M1393.7,256.9h9.7V259.9h-9.7Z" style="fill:#fff"/><path d="M1427.125,241.539V268.3h-3.316v-3.029a7.517,7.517,0,0,1-2.922,2.416,9.053,9.053,0,0,1-3.895.83,10.045,10.045,0,0,1-4.976-1.227,8.783,8.783,0,0,1-3.445-3.444,11.052,11.052,0,0,1,0-10.188,8.823,8.823,0,0,1,3.445-3.426,10.045,10.045,0,0,1,4.976-1.226,9.174,9.174,0,0,1,3.787.775,7.365,7.365,0,0,1,2.885,2.29v-10.53Zm-6.562,23.1a5.956,5.956,0,0,0,2.307-2.381,7.871,7.871,0,0,0,0-7.032,5.832,5.832,0,0,0-2.307-2.362,6.941,6.941,0,0,0-6.583,0,5.974,5.974,0,0,0-2.307,2.362,7.713,7.713,0,0,0,0,7.032,6.1,6.1,0,0,0,2.307,2.381,6.819,6.819,0,0,0,6.583,0Z" style="fill:#fff"/><path d="M1439.675,249.87a9.685,9.685,0,0,1,4.292-.866v3.354a6.8,6.8,0,0,0-.794-.036,5.821,5.821,0,0,0-4.417,1.677,6.639,6.639,0,0,0-1.606,4.778V268.3h-3.462V249.185h3.318v3.21A5.9,5.9,0,0,1,1439.675,249.87Z" style="fill:#fff"/><path d="M1448.275,244.857a2.127,2.127,0,0,1-.667-1.586,2.19,2.19,0,0,1,.667-1.606,2.28,2.28,0,0,1,1.678-.667,2.345,2.345,0,0,1,1.676.631,2.073,2.073,0,0,1,.668,1.569,2.228,2.228,0,0,1-.668,1.641,2.272,2.272,0,0,1-1.676.667A2.31,2.31,0,0,1,1448.275,244.857Zm-.053,4.328h3.462V268.3h-3.462Z" style="fill:#fff"/><path d="M1475.2,249.185,1466.83,268.3H1463.3l-8.366-19.113h3.605l6.565,15.327,6.707-15.327Z" style="fill:#fff"/><path d="M1495.1,259.9H1479.6a6,6,0,0,0,2.217,4.056,7.236,7.236,0,0,0,4.707,1.533,7.087,7.087,0,0,0,5.517-2.308l1.912,2.236a8.369,8.369,0,0,1-3.228,2.308,12.167,12.167,0,0,1-9.683-.45,8.884,8.884,0,0,1-3.624-3.481,9.982,9.982,0,0,1-1.28-5.049,10.138,10.138,0,0,1,1.244-5.012,8.917,8.917,0,0,1,3.426-3.481,9.759,9.759,0,0,1,4.923-1.244,9.569,9.569,0,0,1,4.886,1.244,8.748,8.748,0,0,1,3.354,3.481,10.617,10.617,0,0,1,1.208,5.121A10.482,10.482,0,0,1,1495.1,259.9Zm-13.543-6.456a6.1,6.1,0,0,0-1.965,3.967h12.261a6.152,6.152,0,0,0-1.965-3.949,6.458,6.458,0,0,0-8.331-.018Z" style="fill:#fff"/><path d="M1515.965,251.114q2.145,2.11,2.146,6.185v11h-3.463V257.7a5.872,5.872,0,0,0-1.334-4.183,5.016,5.016,0,0,0-3.822-1.407,5.953,5.953,0,0,0-4.435,1.641,6.414,6.414,0,0,0-1.623,4.707V268.3h-3.463V249.185h3.318v2.884a6.732,6.732,0,0,1,2.831-2.271,9.909,9.909,0,0,1,4.057-.794A7.9,7.9,0,0,1,1515.965,251.114Z" style="fill:#fff"/></g><g style="isolation:isolate"><path d="M524.157,314.861a9.88,9.88,0,0,1-3.39-1.6l1.442-2.741a10.365,10.365,0,0,0,3.066,1.443,12.633,12.633,0,0,0,3.642.541q4.543,0,4.544-2.6a1.685,1.685,0,0,0-.613-1.371,3.9,3.9,0,0,0-1.533-.739q-.92-.233-2.614-.522a25.637,25.637,0,0,1-3.769-.83,5.793,5.793,0,0,1-2.506-1.587,4.412,4.412,0,0,1-1.046-3.137,4.9,4.9,0,0,1,2.164-4.165,9.687,9.687,0,0,1,5.806-1.57,16.069,16.069,0,0,1,3.822.469,10.352,10.352,0,0,1,3.138,1.263l-1.478,2.74a9.945,9.945,0,0,0-5.518-1.515,6.384,6.384,0,0,0-3.354.722,2.176,2.176,0,0,0-1.154,1.911,1.821,1.821,0,0,0,.649,1.479,4.093,4.093,0,0,0,1.6.794q.956.252,2.687.577a29.384,29.384,0,0,1,3.732.847,5.56,5.56,0,0,1,2.434,1.533,4.266,4.266,0,0,1,1.01,3.029,4.776,4.776,0,0,1-2.218,4.129,10.47,10.47,0,0,1-6.04,1.533A16.005,16.005,0,0,1,524.157,314.861Z" style="fill:#fff"/><path d="M544.316,314.23a9.134,9.134,0,0,1-3.552-3.48,10.52,10.52,0,0,1,0-10.062,9.026,9.026,0,0,1,3.552-3.461,11.117,11.117,0,0,1,10.224,0,9.072,9.072,0,0,1,3.534,3.461,10.527,10.527,0,0,1,0,10.062,9.182,9.182,0,0,1-3.534,3.48,10.977,10.977,0,0,1-10.224,0Zm8.42-2.614a5.968,5.968,0,0,0,2.29-2.381,7.862,7.862,0,0,0,0-7.032,5.859,5.859,0,0,0-2.29-2.361,6.973,6.973,0,0,0-6.6,0,5.98,5.98,0,0,0-2.308,2.361,7.713,7.713,0,0,0,0,7.032,6.092,6.092,0,0,0,2.308,2.381,6.843,6.843,0,0,0,6.6,0Z" style="fill:#fff"/><path d="M564.15,288.518h3.462v26.758H564.15Z" style="fill:#fff"/><path d="M592.026,296.163v19.113h-3.281v-2.884a6.977,6.977,0,0,1-2.759,2.29,8.606,8.606,0,0,1-3.733.811,8.34,8.34,0,0,1-6.022-2.11q-2.2-2.109-2.2-6.221v-11h3.462v10.6a5.932,5.932,0,0,0,1.335,4.2,4.98,4.98,0,0,0,3.822,1.425,5.705,5.705,0,0,0,4.328-1.66,6.514,6.514,0,0,0,1.586-4.688v-9.881Z" style="fill:#fff"/><path d="M609.372,314.158a5.158,5.158,0,0,1-1.875.992,7.851,7.851,0,0,1-2.308.343,6.129,6.129,0,0,1-4.472-1.551,5.921,5.921,0,0,1-1.587-4.436V299.012h-3.245v-2.849h3.245v-4.184h3.462v4.184h5.482v2.849h-5.482v10.35a3.357,3.357,0,0,0,.776,2.38,2.881,2.881,0,0,0,2.217.829,4.177,4.177,0,0,0,2.706-.9Z" style="fill:#fff"/><path d="M613.609,291.836a2.132,2.132,0,0,1-.668-1.587,2.189,2.189,0,0,1,.668-1.605,2.271,2.271,0,0,1,1.677-.667,2.349,2.349,0,0,1,1.676.63,2.075,2.075,0,0,1,.668,1.57,2.227,2.227,0,0,1-.668,1.64,2.268,2.268,0,0,1-1.676.667A2.3,2.3,0,0,1,613.609,291.836Zm-.054,4.327h3.462v19.113h-3.462Z" style="fill:#fff"/><path d="M626.682,314.23a9.137,9.137,0,0,1-3.553-3.48,10.527,10.527,0,0,1,0-10.062,9.029,9.029,0,0,1,3.553-3.461,11.115,11.115,0,0,1,10.223,0,9.059,9.059,0,0,1,3.534,3.461,10.52,10.52,0,0,1,0,10.062,9.168,9.168,0,0,1-3.534,3.48,10.975,10.975,0,0,1-10.223,0Zm8.42-2.614a5.968,5.968,0,0,0,2.29-2.381,7.862,7.862,0,0,0,0-7.032,5.859,5.859,0,0,0-2.29-2.361,6.973,6.973,0,0,0-6.6,0A5.973,5.973,0,0,0,626.2,302.2a7.713,7.713,0,0,0,0,7.032,6.085,6.085,0,0,0,2.308,2.381,6.843,6.843,0,0,0,6.6,0Z" style="fill:#fff"/><path d="M662.509,298.093q2.145,2.109,2.146,6.184v11h-3.462v-10.6a5.874,5.874,0,0,0-1.334-4.184,5.022,5.022,0,0,0-3.823-1.406,5.953,5.953,0,0,0-4.435,1.641,6.412,6.412,0,0,0-1.623,4.707v9.844h-3.462V296.163h3.317v2.885a6.739,6.739,0,0,1,2.832-2.272,9.9,9.9,0,0,1,4.056-.794A7.9,7.9,0,0,1,662.509,298.093Z" style="fill:#fff"/><path d="M672.048,314.861a9.883,9.883,0,0,1-3.389-1.6l1.442-2.741a10.353,10.353,0,0,0,3.066,1.443,12.628,12.628,0,0,0,3.642.541q4.543,0,4.544-2.6a1.685,1.685,0,0,0-.613-1.371,3.9,3.9,0,0,0-1.533-.739q-.919-.233-2.615-.522a25.59,25.59,0,0,1-3.768-.83,5.8,5.8,0,0,1-2.507-1.587,4.416,4.416,0,0,1-1.046-3.137,4.9,4.9,0,0,1,2.165-4.165,9.686,9.686,0,0,1,5.8-1.57,16.071,16.071,0,0,1,3.823.469,10.352,10.352,0,0,1,3.138,1.263l-1.479,2.74a9.94,9.94,0,0,0-5.517-1.515,6.384,6.384,0,0,0-3.354.722,2.176,2.176,0,0,0-1.154,1.911,1.821,1.821,0,0,0,.649,1.479,4.086,4.086,0,0,0,1.605.794q.954.252,2.686.577a29.446,29.446,0,0,1,3.733.847,5.571,5.571,0,0,1,2.434,1.533,4.266,4.266,0,0,1,1.009,3.029,4.777,4.777,0,0,1-2.217,4.129,10.476,10.476,0,0,1-6.041,1.533A16.01,16.01,0,0,1,672.048,314.861Z" style="fill:#fff"/><path d="M709.589,314.158a5.158,5.158,0,0,1-1.875.992,7.842,7.842,0,0,1-2.308.343,6.125,6.125,0,0,1-4.471-1.551,5.917,5.917,0,0,1-1.587-4.436V299.012H696.1v-2.849h3.246v-4.184h3.462v4.184h5.481v2.849H702.81v10.35a3.356,3.356,0,0,0,.775,2.38,2.884,2.884,0,0,0,2.218.829,4.176,4.176,0,0,0,2.705-.9Z" style="fill:#fff"/><path d="M716.189,314.23a9.134,9.134,0,0,1-3.552-3.48,10.52,10.52,0,0,1,0-10.062,9.026,9.026,0,0,1,3.552-3.461,11.117,11.117,0,0,1,10.224,0,9.072,9.072,0,0,1,3.534,3.461,10.527,10.527,0,0,1,0,10.062,9.182,9.182,0,0,1-3.534,3.48,10.977,10.977,0,0,1-10.224,0Zm8.42-2.614a5.968,5.968,0,0,0,2.29-2.381,7.862,7.862,0,0,0,0-7.032,5.859,5.859,0,0,0-2.29-2.361,6.973,6.973,0,0,0-6.6,0A5.98,5.98,0,0,0,715.7,302.2a7.713,7.713,0,0,0,0,7.032,6.092,6.092,0,0,0,2.308,2.381,6.843,6.843,0,0,0,6.6,0Z" style="fill:#fff"/><path d="M761.718,298.093q2.145,2.109,2.146,6.184v11H760.4v-10.6a5.87,5.87,0,0,0-1.335-4.184,5.018,5.018,0,0,0-3.822-1.406,5.957,5.957,0,0,0-4.436,1.641,6.412,6.412,0,0,0-1.623,4.707v9.844h-3.462V288.518h3.462v10.35a7.143,7.143,0,0,1,2.831-2.128,9.747,9.747,0,0,1,3.913-.758A7.9,7.9,0,0,1,761.718,298.093Z" style="fill:#fff"/><path d="M787.593,306.874H772.085a6.005,6.005,0,0,0,2.218,4.057,7.237,7.237,0,0,0,4.707,1.533,7.089,7.089,0,0,0,5.517-2.309l1.911,2.237a8.364,8.364,0,0,1-3.227,2.307,12.168,12.168,0,0,1-9.683-.45,8.869,8.869,0,0,1-3.624-3.48,9.975,9.975,0,0,1-1.28-5.049,10.129,10.129,0,0,1,1.244-5.013,8.918,8.918,0,0,1,3.425-3.48,9.757,9.757,0,0,1,4.923-1.245,9.561,9.561,0,0,1,4.887,1.245,8.752,8.752,0,0,1,3.354,3.48,10.606,10.606,0,0,1,1.208,5.121A9.937,9.937,0,0,1,787.593,306.874Zm-13.542-6.455a6.11,6.11,0,0,0-1.966,3.967h12.262a6.146,6.146,0,0,0-1.966-3.949,6.453,6.453,0,0,0-8.33-.018Z" style="fill:#fff"/><path d="M792.461,288.518h3.462v26.758h-3.462Z" style="fill:#fff"/><path d="M817.632,297.209a8.814,8.814,0,0,1,3.444,3.426,11.05,11.05,0,0,1,0,10.187,8.783,8.783,0,0,1-3.444,3.445,10.047,10.047,0,0,1-4.976,1.226,8.842,8.842,0,0,1-3.769-.794,7.831,7.831,0,0,1-2.9-2.307v9.88h-3.462V296.163h3.318v3.029a7.355,7.355,0,0,1,2.921-2.4,9.217,9.217,0,0,1,3.895-.812A10.048,10.048,0,0,1,817.632,297.209Zm-1.965,14.407a6.092,6.092,0,0,0,2.308-2.381,7.721,7.721,0,0,0,0-7.032,5.98,5.98,0,0,0-2.308-2.361,6.565,6.565,0,0,0-3.3-.83,6.389,6.389,0,0,0-3.263.847,6.148,6.148,0,0,0-2.309,2.363,7.039,7.039,0,0,0-.847,3.5,7.264,7.264,0,0,0,.829,3.515,5.932,5.932,0,0,0,2.308,2.381,6.81,6.81,0,0,0,6.582,0Z" style="fill:#fff"/><path d="M839.937,314.23a9.229,9.229,0,0,1-3.588-3.48,10.392,10.392,0,0,1,0-10.062,9.12,9.12,0,0,1,3.588-3.461,10.732,10.732,0,0,1,5.211-1.245,10.007,10.007,0,0,1,4.634,1.046,7.47,7.47,0,0,1,3.156,3.03l-2.633,1.695a5.893,5.893,0,0,0-2.236-2.056,6.387,6.387,0,0,0-2.957-.685,6.834,6.834,0,0,0-3.372.83A5.9,5.9,0,0,0,839.4,302.2a7.788,7.788,0,0,0,0,7.068,5.9,5.9,0,0,0,2.344,2.363,6.823,6.823,0,0,0,3.372.83,6.376,6.376,0,0,0,2.957-.686,5.874,5.874,0,0,0,2.236-2.055l2.633,1.659a7.569,7.569,0,0,1-3.156,3.047,9.856,9.856,0,0,1-4.634,1.064A10.608,10.608,0,0,1,839.937,314.23Z" style="fill:#fff"/><path d="M857.463,291.836a2.131,2.131,0,0,1-.667-1.587,2.188,2.188,0,0,1,.667-1.605,2.274,2.274,0,0,1,1.677-.667,2.351,2.351,0,0,1,1.677.63,2.074,2.074,0,0,1,.667,1.57,2.226,2.226,0,0,1-.667,1.64,2.27,2.27,0,0,1-1.677.667A2.307,2.307,0,0,1,857.463,291.836Zm-.054,4.327h3.462v19.113h-3.462Z" style="fill:#fff"/><path d="M878.217,314.158a5.158,5.158,0,0,1-1.875.992,7.842,7.842,0,0,1-2.308.343,6.125,6.125,0,0,1-4.471-1.551,5.917,5.917,0,0,1-1.587-4.436V299.012H864.73v-2.849h3.246v-4.184h3.462v4.184h5.481v2.849h-5.481v10.35a3.356,3.356,0,0,0,.775,2.38,2.882,2.882,0,0,0,2.218.829,4.176,4.176,0,0,0,2.7-.9Z" style="fill:#fff"/><path d="M882.454,291.836a2.131,2.131,0,0,1-.667-1.587,2.188,2.188,0,0,1,.667-1.605,2.272,2.272,0,0,1,1.677-.667,2.351,2.351,0,0,1,1.677.63,2.077,2.077,0,0,1,.667,1.57,2.23,2.23,0,0,1-.667,1.64,2.27,2.27,0,0,1-1.677.667A2.3,2.3,0,0,1,882.454,291.836Zm-.054,4.327h3.462v19.113H882.4Z" style="fill:#fff"/><path d="M909.664,306.874H894.156a6.005,6.005,0,0,0,2.218,4.057,7.237,7.237,0,0,0,4.707,1.533,7.089,7.089,0,0,0,5.517-2.309l1.911,2.237a8.371,8.371,0,0,1-3.227,2.307,12.168,12.168,0,0,1-9.683-.45,8.869,8.869,0,0,1-3.624-3.48,9.975,9.975,0,0,1-1.281-5.049,10.14,10.14,0,0,1,1.244-5.013,8.928,8.928,0,0,1,3.426-3.48,9.755,9.755,0,0,1,4.923-1.245,9.554,9.554,0,0,1,4.886,1.245,8.739,8.739,0,0,1,3.354,3.48,10.6,10.6,0,0,1,1.208,5.121A10.169,10.169,0,0,1,909.664,306.874Zm-13.542-6.455a6.11,6.11,0,0,0-1.966,3.967h12.262a6.15,6.15,0,0,0-1.966-3.949,6.453,6.453,0,0,0-8.33-.018Z" style="fill:#fff"/><path d="M915.505,314.861a9.883,9.883,0,0,1-3.389-1.6l1.442-2.741a10.353,10.353,0,0,0,3.066,1.443,12.623,12.623,0,0,0,3.642.541q4.543,0,4.544-2.6a1.685,1.685,0,0,0-.613-1.371,3.91,3.91,0,0,0-1.533-.739q-.919-.233-2.615-.522a25.59,25.59,0,0,1-3.768-.83,5.8,5.8,0,0,1-2.507-1.587,4.416,4.416,0,0,1-1.045-3.137,4.9,4.9,0,0,1,2.164-4.165,9.686,9.686,0,0,1,5.8-1.57,16.077,16.077,0,0,1,3.823.469,10.335,10.335,0,0,1,3.137,1.263l-1.478,2.74a9.943,9.943,0,0,0-5.518-1.515,6.38,6.38,0,0,0-3.353.722,2.176,2.176,0,0,0-1.154,1.911,1.821,1.821,0,0,0,.649,1.479,4.086,4.086,0,0,0,1.605.794q.954.252,2.687.577a29.465,29.465,0,0,1,3.732.847,5.571,5.571,0,0,1,2.434,1.533,4.266,4.266,0,0,1,1.009,3.029,4.777,4.777,0,0,1-2.217,4.129,10.473,10.473,0,0,1-6.04,1.533A16.012,16.012,0,0,1,915.505,314.861Z" style="fill:#fff"/><path d="M942.354,291.836a2.127,2.127,0,0,1-.667-1.587,2.184,2.184,0,0,1,.667-1.605,2.272,2.272,0,0,1,1.677-.667,2.349,2.349,0,0,1,1.676.63,2.075,2.075,0,0,1,.668,1.57,2.227,2.227,0,0,1-.668,1.64,2.268,2.268,0,0,1-1.676.667A2.3,2.3,0,0,1,942.354,291.836Zm-.054,4.327h3.462v19.113H942.3Z" style="fill:#fff"/><path d="M968.354,298.093q2.146,2.109,2.146,6.184v11h-3.461v-10.6a5.87,5.87,0,0,0-1.335-4.184,5.02,5.02,0,0,0-3.823-1.406,5.957,5.957,0,0,0-4.436,1.641,6.412,6.412,0,0,0-1.623,4.707v9.844h-3.461V296.163h3.318v2.885a6.73,6.73,0,0,1,2.831-2.272,9.9,9.9,0,0,1,4.056-.794A7.9,7.9,0,0,1,968.354,298.093Z" style="fill:#fff"/><path d="M989.686,314.23a9.134,9.134,0,0,1-3.552-3.48,10.527,10.527,0,0,1,0-10.062,9.026,9.026,0,0,1,3.552-3.461,11.117,11.117,0,0,1,10.224,0,9.063,9.063,0,0,1,3.533,3.461,10.513,10.513,0,0,1,0,10.062,9.172,9.172,0,0,1-3.533,3.48,10.977,10.977,0,0,1-10.224,0Zm8.42-2.614a5.962,5.962,0,0,0,2.29-2.381,7.854,7.854,0,0,0,0-7.032,5.853,5.853,0,0,0-2.29-2.361,6.971,6.971,0,0,0-6.6,0A5.976,5.976,0,0,0,989.2,302.2a7.721,7.721,0,0,0,0,7.032,6.088,6.088,0,0,0,2.309,2.381,6.841,6.841,0,0,0,6.6,0Z" style="fill:#fff"/><path d="M1013.415,294.5v1.659h5.554v2.849h-5.482v16.264h-3.462V299.012h-3.246v-2.849h3.246v-1.695a6.092,6.092,0,0,1,1.659-4.508,6.288,6.288,0,0,1,4.652-1.658,7.827,7.827,0,0,1,2.164.288,5.258,5.258,0,0,1,1.73.829l-1.044,2.633a4.312,4.312,0,0,0-2.669-.9Q1013.415,291.15,1013.415,294.5Z" style="fill:#fff"/><path d="M1026.145,294.5v1.659h5.554v2.849h-5.482v16.264h-3.461V299.012h-3.246v-2.849h3.246v-1.695a6.1,6.1,0,0,1,1.658-4.508,6.288,6.288,0,0,1,4.652-1.658,7.817,7.817,0,0,1,2.164.288,5.283,5.283,0,0,1,1.731.829l-1.045,2.633a4.315,4.315,0,0,0-2.67-.9Q1026.146,291.15,1026.145,294.5Z" style="fill:#fff"/><path d="M1051.9,306.874h-15.508a6,6,0,0,0,2.217,4.057,7.241,7.241,0,0,0,4.707,1.533,7.087,7.087,0,0,0,5.517-2.309l1.912,2.237a8.367,8.367,0,0,1-3.228,2.307,12.167,12.167,0,0,1-9.683-.45,8.875,8.875,0,0,1-3.624-3.48,9.985,9.985,0,0,1-1.28-5.049,10.14,10.14,0,0,1,1.244-5.013,8.921,8.921,0,0,1,3.426-3.48,9.749,9.749,0,0,1,4.923-1.245,9.56,9.56,0,0,1,4.886,1.245,8.752,8.752,0,0,1,3.354,3.48,10.606,10.606,0,0,1,1.208,5.121A10.463,10.463,0,0,1,1051.9,306.874Zm-13.543-6.455a6.1,6.1,0,0,0-1.965,3.967h12.261a6.149,6.149,0,0,0-1.965-3.949,6.455,6.455,0,0,0-8.331-.018Z" style="fill:#fff"/><path d="M1062.749,296.849a9.67,9.67,0,0,1,4.292-.867v3.355a6.785,6.785,0,0,0-.794-.036,5.817,5.817,0,0,0-4.417,1.677,6.637,6.637,0,0,0-1.605,4.778v9.52h-3.462V296.163h3.317v3.21A5.906,5.906,0,0,1,1062.749,296.849Z" style="fill:#fff"/><path d="M1071.35,291.836a2.127,2.127,0,0,1-.667-1.587,2.184,2.184,0,0,1,.667-1.605,2.274,2.274,0,0,1,1.677-.667,2.349,2.349,0,0,1,1.676.63,2.075,2.075,0,0,1,.668,1.57,2.227,2.227,0,0,1-.668,1.64,2.268,2.268,0,0,1-1.676.667A2.307,2.307,0,0,1,1071.35,291.836Zm-.054,4.327h3.462v19.113H1071.3Z" style="fill:#fff"/><path d="M1097.351,298.093q2.145,2.109,2.145,6.184v11h-3.461v-10.6a5.87,5.87,0,0,0-1.335-4.184,5.019,5.019,0,0,0-3.823-1.406,5.957,5.957,0,0,0-4.436,1.641,6.412,6.412,0,0,0-1.623,4.707v9.844h-3.461V296.163h3.318v2.885a6.73,6.73,0,0,1,2.831-2.272,9.9,9.9,0,0,1,4.057-.794A7.9,7.9,0,0,1,1097.351,298.093Z" style="fill:#fff"/><path d="M1124.308,296.163V312.68q0,5.012-2.489,7.411t-7.428,2.4a17.809,17.809,0,0,1-5.158-.739,10.2,10.2,0,0,1-3.966-2.11l1.659-2.668a9.789,9.789,0,0,0,3.3,1.821,12.558,12.558,0,0,0,4.057.667,6.8,6.8,0,0,0,4.958-1.587,6.527,6.527,0,0,0,1.606-4.833v-1.515a7.661,7.661,0,0,1-3.012,2.219,10.043,10.043,0,0,1-3.877.739,10.442,10.442,0,0,1-4.958-1.172,8.7,8.7,0,0,1-3.479-3.282,9.808,9.808,0,0,1,0-9.629,8.585,8.585,0,0,1,3.479-3.263,10.574,10.574,0,0,1,4.958-1.155,10.15,10.15,0,0,1,4.022.794,7.474,7.474,0,0,1,3.046,2.344v-2.957Zm-6.581,14.5a5.85,5.85,0,0,0,2.343-2.218,6.187,6.187,0,0,0,.848-3.227,5.848,5.848,0,0,0-1.84-4.49,7.42,7.42,0,0,0-9.484,0,5.851,5.851,0,0,0-1.839,4.49,6.178,6.178,0,0,0,.848,3.227,5.85,5.85,0,0,0,2.343,2.218,7.636,7.636,0,0,0,6.781,0Z" style="fill:#fff"/><path d="M1153.645,297.93q2.109,1.948,2.109,5.806v11.54h-3.281v-2.524a5.481,5.481,0,0,1-2.471,2.037,9.412,9.412,0,0,1-3.805.7,7.956,7.956,0,0,1-5.138-1.551,5.329,5.329,0,0,1-.09-8.132q1.837-1.533,5.842-1.533h5.481v-.685a4.416,4.416,0,0,0-1.3-3.426,5.48,5.48,0,0,0-3.823-1.19,10.107,10.107,0,0,0-3.317.559,8.546,8.546,0,0,0-2.742,1.5l-1.442-2.6a10.475,10.475,0,0,1,3.534-1.821,14.777,14.777,0,0,1,4.363-.632A8.65,8.65,0,0,1,1153.645,297.93Zm-3.445,14.01a5.052,5.052,0,0,0,2.092-2.5v-2.669h-5.337q-4.4,0-4.4,2.957a2.677,2.677,0,0,0,1.118,2.272,5.107,5.107,0,0,0,3.1.829A6.425,6.425,0,0,0,1150.2,311.94Z" style="fill:#fff"/><path d="M1172.848,314.861a9.876,9.876,0,0,1-3.391-1.6l1.443-2.741a10.358,10.358,0,0,0,3.065,1.443,12.633,12.633,0,0,0,3.642.541q4.545,0,4.544-2.6a1.685,1.685,0,0,0-.612-1.371,3.91,3.91,0,0,0-1.533-.739q-.92-.233-2.615-.522a25.59,25.59,0,0,1-3.768-.83,5.79,5.79,0,0,1-2.507-1.587,4.412,4.412,0,0,1-1.046-3.137,4.9,4.9,0,0,1,2.164-4.165,9.689,9.689,0,0,1,5.806-1.57,16.083,16.083,0,0,1,3.823.469,10.335,10.335,0,0,1,3.137,1.263l-1.479,2.74a9.937,9.937,0,0,0-5.517-1.515,6.387,6.387,0,0,0-3.354.722,2.178,2.178,0,0,0-1.154,1.911,1.822,1.822,0,0,0,.65,1.479,4.089,4.089,0,0,0,1.6.794q.956.252,2.688.577a29.465,29.465,0,0,1,3.732.847,5.571,5.571,0,0,1,2.434,1.533,4.27,4.27,0,0,1,1.009,3.029,4.777,4.777,0,0,1-2.217,4.129,10.476,10.476,0,0,1-6.041,1.533A15.993,15.993,0,0,1,1172.848,314.861Z" style="fill:#fff"/><path d="M1202.978,297.93q2.11,1.948,2.11,5.806v11.54h-3.282v-2.524a5.478,5.478,0,0,1-2.47,2.037,9.415,9.415,0,0,1-3.805.7,7.96,7.96,0,0,1-5.139-1.551,5.33,5.33,0,0,1-.09-8.132q1.838-1.533,5.842-1.533h5.481v-.685a4.416,4.416,0,0,0-1.3-3.426,5.478,5.478,0,0,0-3.823-1.19,10.107,10.107,0,0,0-3.317.559,8.557,8.557,0,0,0-2.742,1.5l-1.441-2.6a10.461,10.461,0,0,1,3.533-1.821,14.782,14.782,0,0,1,4.363-.632A8.65,8.65,0,0,1,1202.978,297.93Zm-3.445,14.01a5.052,5.052,0,0,0,2.092-2.5v-2.669h-5.337q-4.4,0-4.4,2.957a2.677,2.677,0,0,0,1.117,2.272,5.11,5.11,0,0,0,3.1.829A6.419,6.419,0,0,0,1199.533,311.94Z" style="fill:#fff"/><path d="M1215.4,294.5v1.659h5.554v2.849h-5.481v16.264h-3.462V299.012h-3.245v-2.849h3.245v-1.695a6.088,6.088,0,0,1,1.659-4.508,6.286,6.286,0,0,1,4.652-1.658,7.81,7.81,0,0,1,2.163.288,5.288,5.288,0,0,1,1.732.829l-1.046,2.633a4.312,4.312,0,0,0-2.669-.9Q1215.4,291.15,1215.4,294.5Z" style="fill:#fff"/><path d="M1241.15,306.874h-15.507a6,6,0,0,0,2.217,4.057,7.238,7.238,0,0,0,4.706,1.533,7.09,7.09,0,0,0,5.518-2.309l1.912,2.237a8.367,8.367,0,0,1-3.228,2.307,12.167,12.167,0,0,1-9.683-.45,8.863,8.863,0,0,1-3.624-3.48,9.975,9.975,0,0,1-1.28-5.049,10.14,10.14,0,0,1,1.244-5.013,8.914,8.914,0,0,1,3.426-3.48,9.748,9.748,0,0,1,4.922-1.245,9.561,9.561,0,0,1,4.887,1.245,8.752,8.752,0,0,1,3.354,3.48,10.617,10.617,0,0,1,1.208,5.121A10.217,10.217,0,0,1,1241.15,306.874Zm-13.543-6.455a6.108,6.108,0,0,0-1.964,3.967H1237.9a6.146,6.146,0,0,0-1.966-3.949,6.455,6.455,0,0,0-8.331-.018Z" style="fill:#fff"/><path d="M1248.561,311.255a2.45,2.45,0,0,1,.667,1.75,4.3,4.3,0,0,1-.126,1.045c-.084.337-.248.854-.487,1.551l-1.695,5.012h-2.273l1.335-5.373a2.262,2.262,0,0,1-1.1-.847,2.365,2.365,0,0,1-.415-1.388,2.392,2.392,0,0,1,.685-1.768,2.351,2.351,0,0,1,1.732-.685A2.216,2.216,0,0,1,1248.561,311.255Z" style="fill:#fff"/><path d="M1264.879,314.861a9.9,9.9,0,0,1-3.391-1.6l1.444-2.741a10.34,10.34,0,0,0,3.064,1.443,12.635,12.635,0,0,0,3.643.541q4.543,0,4.544-2.6a1.682,1.682,0,0,0-.613-1.371,3.91,3.91,0,0,0-1.533-.739q-.92-.233-2.615-.522a25.59,25.59,0,0,1-3.768-.83,5.8,5.8,0,0,1-2.507-1.587,4.411,4.411,0,0,1-1.045-3.137,4.9,4.9,0,0,1,2.164-4.165,9.686,9.686,0,0,1,5.8-1.57,16.091,16.091,0,0,1,3.824.469,10.339,10.339,0,0,1,3.136,1.263l-1.478,2.74a9.943,9.943,0,0,0-5.518-1.515,6.38,6.38,0,0,0-3.353.722,2.177,2.177,0,0,0-1.155,1.911,1.822,1.822,0,0,0,.65,1.479,4.1,4.1,0,0,0,1.6.794q.956.252,2.688.577a29.465,29.465,0,0,1,3.732.847,5.571,5.571,0,0,1,2.434,1.533,4.266,4.266,0,0,1,1.01,3.029,4.778,4.778,0,0,1-2.218,4.129,10.473,10.473,0,0,1-6.04,1.533A16,16,0,0,1,1264.879,314.861Z" style="fill:#fff"/><path d="M1299.787,296.163v19.113h-3.281v-2.884a6.96,6.96,0,0,1-2.76,2.29,8.6,8.6,0,0,1-3.732.811,8.339,8.339,0,0,1-6.022-2.11q-2.2-2.109-2.2-6.221v-11h3.462v10.6a5.932,5.932,0,0,0,1.334,4.2,4.983,4.983,0,0,0,3.822,1.425,5.7,5.7,0,0,0,4.328-1.66,6.51,6.51,0,0,0,1.587-4.688v-9.881Z" style="fill:#fff"/><path d="M1307.359,314.861a9.877,9.877,0,0,1-3.388-1.6l1.441-2.741a10.359,10.359,0,0,0,3.067,1.443,12.626,12.626,0,0,0,3.641.541q4.543,0,4.544-2.6a1.685,1.685,0,0,0-.613-1.371,3.9,3.9,0,0,0-1.532-.739q-.921-.233-2.615-.522a25.637,25.637,0,0,1-3.769-.83,5.8,5.8,0,0,1-2.506-1.587,4.416,4.416,0,0,1-1.046-3.137,4.9,4.9,0,0,1,2.164-4.165,9.689,9.689,0,0,1,5.806-1.57,16.062,16.062,0,0,1,3.822.469,10.37,10.37,0,0,1,3.139,1.263l-1.479,2.74a9.942,9.942,0,0,0-5.517-1.515,6.388,6.388,0,0,0-3.355.722,2.177,2.177,0,0,0-1.153,1.911,1.824,1.824,0,0,0,.648,1.479,4.091,4.091,0,0,0,1.606.794q.954.252,2.685.577a29.364,29.364,0,0,1,3.733.847,5.56,5.56,0,0,1,2.434,1.533,4.266,4.266,0,0,1,1.01,3.029,4.776,4.776,0,0,1-2.218,4.129,10.472,10.472,0,0,1-6.041,1.533A16.02,16.02,0,0,1,1307.359,314.861Z" style="fill:#fff"/><path d="M1335.2,314.158a5.158,5.158,0,0,1-1.875.992,7.84,7.84,0,0,1-2.307.343,6.133,6.133,0,0,1-4.473-1.551,5.917,5.917,0,0,1-1.586-4.436V299.012h-3.246v-2.849h3.246v-4.184h3.461v4.184h5.482v2.849h-5.482v10.35a3.361,3.361,0,0,0,.775,2.38,2.886,2.886,0,0,0,2.219.829,4.176,4.176,0,0,0,2.7-.9Z" style="fill:#fff"/><path d="M1352.42,297.93q2.109,1.948,2.109,5.806v11.54h-3.281v-2.524a5.476,5.476,0,0,1-2.471,2.037,9.41,9.41,0,0,1-3.8.7,7.957,7.957,0,0,1-5.139-1.551,5.329,5.329,0,0,1-.09-8.132q1.839-1.533,5.842-1.533h5.481v-.685a4.416,4.416,0,0,0-1.3-3.426,5.484,5.484,0,0,0-3.824-1.19,10.107,10.107,0,0,0-3.317.559,8.551,8.551,0,0,0-2.741,1.5l-1.443-2.6a10.484,10.484,0,0,1,3.534-1.821,14.789,14.789,0,0,1,4.364-.632A8.647,8.647,0,0,1,1352.42,297.93Zm-3.444,14.01a5.045,5.045,0,0,0,2.091-2.5v-2.669h-5.337q-4.4,0-4.4,2.957a2.677,2.677,0,0,0,1.118,2.272,5.11,5.11,0,0,0,3.1.829A6.427,6.427,0,0,0,1348.976,311.94Z" style="fill:#fff"/><path d="M1361,291.836a2.131,2.131,0,0,1-.667-1.587,2.188,2.188,0,0,1,.667-1.605,2.275,2.275,0,0,1,1.678-.667,2.347,2.347,0,0,1,1.675.63,2.071,2.071,0,0,1,.668,1.57,2.223,2.223,0,0,1-.668,1.64,2.265,2.265,0,0,1-1.675.667A2.307,2.307,0,0,1,1361,291.836Zm-.054,4.327h3.462v19.113h-3.462Z" style="fill:#fff"/><path d="M1387,298.093q2.147,2.109,2.145,6.184v11h-3.46v-10.6a5.875,5.875,0,0,0-1.335-4.184,5.023,5.023,0,0,0-3.824-1.406,5.955,5.955,0,0,0-4.435,1.641,6.412,6.412,0,0,0-1.623,4.707v9.844h-3.461V296.163h3.317v2.885a6.736,6.736,0,0,1,2.831-2.272,9.906,9.906,0,0,1,4.057-.794A7.9,7.9,0,0,1,1387,298.093Z" style="fill:#fff"/><path d="M1408.6,297.93q2.112,1.948,2.111,5.806v11.54h-3.282v-2.524a5.484,5.484,0,0,1-2.47,2.037,9.415,9.415,0,0,1-3.805.7,7.96,7.96,0,0,1-5.139-1.551,5.33,5.33,0,0,1-.09-8.132q1.837-1.533,5.842-1.533h5.481v-.685a4.416,4.416,0,0,0-1.3-3.426,5.48,5.48,0,0,0-3.823-1.19,10.117,10.117,0,0,0-3.318.559,8.562,8.562,0,0,0-2.741,1.5l-1.441-2.6a10.461,10.461,0,0,1,3.533-1.821,14.782,14.782,0,0,1,4.363-.632A8.646,8.646,0,0,1,1408.6,297.93Zm-3.444,14.01a5.052,5.052,0,0,0,2.092-2.5v-2.669h-5.337q-4.4,0-4.4,2.957a2.677,2.677,0,0,0,1.117,2.272,5.11,5.11,0,0,0,3.1.829A6.419,6.419,0,0,0,1405.16,311.94Z" style="fill:#fff"/><path d="M1432.244,297.209a8.827,8.827,0,0,1,3.444,3.426,11.05,11.05,0,0,1,0,10.187,8.8,8.8,0,0,1-3.444,3.445,10.053,10.053,0,0,1-4.976,1.226,9.037,9.037,0,0,1-3.9-.83,7.484,7.484,0,0,1-2.921-2.416v3.029h-3.318V288.518h3.463v10.53a7.337,7.337,0,0,1,2.884-2.29,9.16,9.16,0,0,1,3.788-.776A10.053,10.053,0,0,1,1432.244,297.209Zm-1.966,14.407a6.092,6.092,0,0,0,2.308-2.381,7.713,7.713,0,0,0,0-7.032,5.98,5.98,0,0,0-2.308-2.361,6.937,6.937,0,0,0-6.581,0,5.819,5.819,0,0,0-2.308,2.361,7.862,7.862,0,0,0,0,7.032,5.926,5.926,0,0,0,2.308,2.381,6.808,6.808,0,0,0,6.581,0Z" style="fill:#fff"/><path d="M1441.729,288.518h3.46v26.758h-3.46Z" style="fill:#fff"/><path d="M1468.991,306.874h-15.507a6,6,0,0,0,2.217,4.057,7.241,7.241,0,0,0,4.707,1.533,7.092,7.092,0,0,0,5.518-2.309l1.911,2.237a8.367,8.367,0,0,1-3.228,2.307,12.167,12.167,0,0,1-9.683-.45,8.86,8.86,0,0,1-3.623-3.48,9.976,9.976,0,0,1-1.282-5.049,10.14,10.14,0,0,1,1.245-5.013,8.925,8.925,0,0,1,3.425-3.48,9.758,9.758,0,0,1,4.924-1.245,9.56,9.56,0,0,1,4.886,1.245,8.745,8.745,0,0,1,3.354,3.48,10.606,10.606,0,0,1,1.208,5.121A9.937,9.937,0,0,1,1468.991,306.874Zm-13.542-6.455a6.109,6.109,0,0,0-1.965,3.967h12.262a6.147,6.147,0,0,0-1.967-3.949,6.453,6.453,0,0,0-8.33-.018Z" style="fill:#fff"/><path d="M1476.4,311.255a2.446,2.446,0,0,1,.667,1.75,4.3,4.3,0,0,1-.126,1.045q-.126.505-.486,1.551l-1.7,5.012h-2.273l1.335-5.373a2.262,2.262,0,0,1-1.1-.847,2.365,2.365,0,0,1-.415-1.388,2.392,2.392,0,0,1,.685-1.768,2.349,2.349,0,0,1,1.732-.685A2.214,2.214,0,0,1,1476.4,311.255Z" style="fill:#fff"/><path d="M1508.949,306.874h-15.508a6,6,0,0,0,2.218,4.057,7.238,7.238,0,0,0,4.706,1.533,7.091,7.091,0,0,0,5.518-2.309l1.912,2.237a8.363,8.363,0,0,1-3.229,2.307,12.165,12.165,0,0,1-9.682-.45,8.863,8.863,0,0,1-3.624-3.48,9.975,9.975,0,0,1-1.281-5.049,10.14,10.14,0,0,1,1.245-5.013,8.918,8.918,0,0,1,3.425-3.48,9.755,9.755,0,0,1,4.923-1.245,9.566,9.566,0,0,1,4.887,1.245,8.752,8.752,0,0,1,3.354,3.48,10.617,10.617,0,0,1,1.208,5.121A10.217,10.217,0,0,1,1508.949,306.874Zm-13.543-6.455a6.114,6.114,0,0,0-1.965,3.967H1505.7a6.15,6.15,0,0,0-1.966-3.949,6.455,6.455,0,0,0-8.331-.018Z" style="fill:#fff"/><path d="M1517.711,294.5v1.659h5.555v2.849h-5.483v16.264h-3.461V299.012h-3.246v-2.849h3.246v-1.695a6.1,6.1,0,0,1,1.658-4.508,6.29,6.29,0,0,1,4.653-1.658,7.827,7.827,0,0,1,2.164.288,5.268,5.268,0,0,1,1.73.829l-1.045,2.633a4.312,4.312,0,0,0-2.669-.9Q1517.711,291.15,1517.711,294.5Z" style="fill:#fff"/><path d="M1530.441,294.5v1.659H1536v2.849h-5.481v16.264h-3.462V299.012h-3.245v-2.849h3.245v-1.695a6.088,6.088,0,0,1,1.659-4.508,6.286,6.286,0,0,1,4.652-1.658,7.81,7.81,0,0,1,2.163.288,5.288,5.288,0,0,1,1.732.829l-1.046,2.633a4.312,4.312,0,0,0-2.669-.9Q1530.441,291.15,1530.441,294.5Z" style="fill:#fff"/><path d="M1542.108,314.23a9.229,9.229,0,0,1-3.588-3.48,10.4,10.4,0,0,1,0-10.062,9.12,9.12,0,0,1,3.588-3.461,10.734,10.734,0,0,1,5.211-1.245,10,10,0,0,1,4.634,1.046,7.465,7.465,0,0,1,3.156,3.03l-2.632,1.695a5.9,5.9,0,0,0-2.237-2.056,6.385,6.385,0,0,0-2.957-.685,6.836,6.836,0,0,0-3.372.83,5.918,5.918,0,0,0-2.344,2.361,7.8,7.8,0,0,0,0,7.068,5.91,5.91,0,0,0,2.344,2.363,6.826,6.826,0,0,0,3.372.83,6.373,6.373,0,0,0,2.957-.686,5.884,5.884,0,0,0,2.237-2.055l2.632,1.659a7.563,7.563,0,0,1-3.156,3.047,9.85,9.85,0,0,1-4.634,1.064A10.611,10.611,0,0,1,1542.108,314.23Z" style="fill:#fff"/><path d="M1559.635,291.836a2.128,2.128,0,0,1-.668-1.587,2.185,2.185,0,0,1,.668-1.605,2.272,2.272,0,0,1,1.677-.667,2.351,2.351,0,0,1,1.676.63,2.071,2.071,0,0,1,.668,1.57,2.223,2.223,0,0,1-.668,1.64,2.269,2.269,0,0,1-1.676.667A2.3,2.3,0,0,1,1559.635,291.836Zm-.055,4.327h3.463v19.113h-3.463Z" style="fill:#fff"/><path d="M1586.844,306.874h-15.507a6,6,0,0,0,2.218,4.057,7.236,7.236,0,0,0,4.707,1.533,7.089,7.089,0,0,0,5.517-2.309l1.91,2.237a8.368,8.368,0,0,1-3.226,2.307,12.17,12.17,0,0,1-9.684-.45,8.875,8.875,0,0,1-3.624-3.48,9.985,9.985,0,0,1-1.28-5.049,10.129,10.129,0,0,1,1.244-5.013,8.921,8.921,0,0,1,3.426-3.48,9.757,9.757,0,0,1,4.923-1.245,9.554,9.554,0,0,1,4.886,1.245,8.752,8.752,0,0,1,3.354,3.48,10.6,10.6,0,0,1,1.208,5.121A9.672,9.672,0,0,1,1586.844,306.874Zm-13.541-6.455a6.105,6.105,0,0,0-1.966,3.967H1583.6a6.15,6.15,0,0,0-1.966-3.949,6.453,6.453,0,0,0-8.33-.018Z" style="fill:#fff"/><path d="M1607.706,298.093q2.147,2.109,2.146,6.184v11h-3.461v-10.6a5.875,5.875,0,0,0-1.335-4.184,5.021,5.021,0,0,0-3.824-1.406,5.955,5.955,0,0,0-4.435,1.641,6.412,6.412,0,0,0-1.623,4.707v9.844h-3.461V296.163h3.317v2.885a6.742,6.742,0,0,1,2.831-2.272,9.906,9.906,0,0,1,4.057-.794A7.9,7.9,0,0,1,1607.706,298.093Z" style="fill:#fff"/><path d="M1627.018,314.158a5.166,5.166,0,0,1-1.875.992,7.858,7.858,0,0,1-2.309.343,6.125,6.125,0,0,1-4.471-1.551,5.922,5.922,0,0,1-1.588-4.436V299.012h-3.245v-2.849h3.245v-4.184h3.463v4.184h5.481v2.849h-5.481v10.35a3.352,3.352,0,0,0,.776,2.38,2.879,2.879,0,0,0,2.216.829,4.175,4.175,0,0,0,2.706-.9Z" style="fill:#fff"/></g><g style="isolation:isolate"><path d="M536.22,344.91q2.109,1.948,2.11,5.807v11.54h-3.282v-2.525a5.475,5.475,0,0,1-2.47,2.038,9.432,9.432,0,0,1-3.8.7,7.966,7.966,0,0,1-5.139-1.551,5.331,5.331,0,0,1-.09-8.133q1.839-1.531,5.842-1.532h5.482v-.686a4.413,4.413,0,0,0-1.3-3.426,5.482,5.482,0,0,0-3.822-1.19,10.11,10.11,0,0,0-3.318.56,8.551,8.551,0,0,0-2.741,1.5l-1.442-2.6a10.464,10.464,0,0,1,3.534-1.82,14.772,14.772,0,0,1,4.363-.632A8.647,8.647,0,0,1,536.22,344.91Zm-3.444,14.011a5.064,5.064,0,0,0,2.092-2.506v-2.669H529.53q-4.4,0-4.4,2.957a2.678,2.678,0,0,0,1.119,2.273,5.113,5.113,0,0,0,3.1.829A6.424,6.424,0,0,0,532.776,358.921Z" style="fill:#fff"/><path d="M560.742,345.073q2.145,2.109,2.146,6.185v11h-3.462v-10.6a5.872,5.872,0,0,0-1.334-4.183,5.019,5.019,0,0,0-3.823-1.407,5.957,5.957,0,0,0-4.436,1.641,6.414,6.414,0,0,0-1.623,4.707v9.845h-3.461V343.144h3.317v2.884a6.732,6.732,0,0,1,2.831-2.271,9.906,9.906,0,0,1,4.057-.794A7.894,7.894,0,0,1,560.742,345.073Z" style="fill:#fff"/><path d="M587.446,335.5v26.759h-3.317v-3.029a7.507,7.507,0,0,1-2.921,2.416,9.057,9.057,0,0,1-3.895.83,10.049,10.049,0,0,1-4.977-1.227,8.787,8.787,0,0,1-3.444-3.444,11.052,11.052,0,0,1,0-10.188,8.827,8.827,0,0,1,3.444-3.426,10.049,10.049,0,0,1,4.977-1.226,9.177,9.177,0,0,1,3.787.775,7.369,7.369,0,0,1,2.884,2.29V335.5Zm-6.563,23.1a5.945,5.945,0,0,0,2.308-2.381,7.862,7.862,0,0,0,0-7.032,5.822,5.822,0,0,0-2.308-2.362,6.937,6.937,0,0,0-6.581,0,5.969,5.969,0,0,0-2.308,2.362,7.713,7.713,0,0,0,0,7.032A6.1,6.1,0,0,0,574.3,358.6a6.815,6.815,0,0,0,6.581,0Z" style="fill:#fff"/><path d="M604.684,361.842a9.87,9.87,0,0,1-3.39-1.6l1.443-2.741a10.334,10.334,0,0,0,3.065,1.443,12.6,12.6,0,0,0,3.642.541q4.545,0,4.544-2.6a1.682,1.682,0,0,0-.613-1.371,3.913,3.913,0,0,0-1.532-.74q-.921-.233-2.615-.522a25.652,25.652,0,0,1-3.769-.829,5.817,5.817,0,0,1-2.506-1.587,4.413,4.413,0,0,1-1.046-3.138,4.9,4.9,0,0,1,2.164-4.165,9.691,9.691,0,0,1,5.806-1.569,16.032,16.032,0,0,1,3.823.469,10.31,10.31,0,0,1,3.137,1.262l-1.478,2.741a9.943,9.943,0,0,0-5.518-1.515,6.377,6.377,0,0,0-3.354.722,2.177,2.177,0,0,0-1.154,1.911,1.821,1.821,0,0,0,.649,1.478,4.086,4.086,0,0,0,1.605.794q.956.252,2.687.577a29.384,29.384,0,0,1,3.732.847,5.578,5.578,0,0,1,2.434,1.533,4.271,4.271,0,0,1,1.01,3.03,4.774,4.774,0,0,1-2.218,4.128,10.463,10.463,0,0,1-6.04,1.534A16.005,16.005,0,0,1,604.684,361.842Z" style="fill:#fff"/><path d="M651.4,345.055q2.11,2.091,2.11,6.2v11h-3.462v-10.6a6.033,6.033,0,0,0-1.28-4.183,4.7,4.7,0,0,0-3.661-1.407,5.48,5.48,0,0,0-4.183,1.641,6.6,6.6,0,0,0-1.551,4.707v9.845h-3.461v-10.6a6.033,6.033,0,0,0-1.281-4.183,4.7,4.7,0,0,0-3.66-1.407,5.48,5.48,0,0,0-4.183,1.641,6.591,6.591,0,0,0-1.551,4.707v9.845h-3.462V343.144H625.1v2.848a6.713,6.713,0,0,1,2.74-2.254,9.192,9.192,0,0,1,3.859-.775,8.463,8.463,0,0,1,3.967.9,6.275,6.275,0,0,1,2.669,2.632,7.336,7.336,0,0,1,3.011-2.6,9.829,9.829,0,0,1,4.346-.937A7.762,7.762,0,0,1,651.4,345.055Z" style="fill:#fff"/><path d="M672.932,344.91q2.111,1.948,2.11,5.807v11.54H671.76v-2.525a5.475,5.475,0,0,1-2.47,2.038,9.429,9.429,0,0,1-3.8.7,7.966,7.966,0,0,1-5.139-1.551,5.331,5.331,0,0,1-.09-8.133q1.839-1.531,5.842-1.532h5.482v-.686a4.416,4.416,0,0,0-1.3-3.426,5.484,5.484,0,0,0-3.823-1.19,10.114,10.114,0,0,0-3.318.56,8.562,8.562,0,0,0-2.741,1.5l-1.442-2.6a10.473,10.473,0,0,1,3.534-1.82,14.777,14.777,0,0,1,4.363-.632A8.645,8.645,0,0,1,672.932,344.91Zm-3.444,14.011a5.059,5.059,0,0,0,2.092-2.506v-2.669h-5.337q-4.4,0-4.4,2.957a2.677,2.677,0,0,0,1.118,2.273,5.117,5.117,0,0,0,3.1.829A6.424,6.424,0,0,0,669.488,358.921Z" style="fill:#fff"/><path d="M687.447,343.829a9.688,9.688,0,0,1,4.292-.866v3.354a6.785,6.785,0,0,0-.794-.036,5.822,5.822,0,0,0-4.417,1.677,6.638,6.638,0,0,0-1.605,4.778v9.521h-3.462V343.144h3.318v3.21A5.9,5.9,0,0,1,687.447,343.829Z" style="fill:#fff"/><path d="M707.534,361.139a5.2,5.2,0,0,1-1.875.992,7.885,7.885,0,0,1-2.308.343,6.133,6.133,0,0,1-4.472-1.551,5.92,5.92,0,0,1-1.587-4.437V345.992h-3.246v-2.848h3.246V338.96h3.462v4.184h5.481v2.848h-5.481v10.351a3.356,3.356,0,0,0,.775,2.38,2.887,2.887,0,0,0,2.218.829,4.167,4.167,0,0,0,2.705-.9Z" style="fill:#fff"/><path d="M739.232,343.144v19.113h-3.281v-2.885a6.977,6.977,0,0,1-2.759,2.29,8.607,8.607,0,0,1-3.733.812,8.336,8.336,0,0,1-6.022-2.111q-2.2-2.109-2.2-6.22v-11H724.7v10.6a5.93,5.93,0,0,0,1.335,4.2,4.98,4.98,0,0,0,3.822,1.425,5.708,5.708,0,0,0,4.328-1.659,6.517,6.517,0,0,0,1.587-4.689v-9.88Z" style="fill:#fff"/><path d="M751.818,343.829a9.683,9.683,0,0,1,4.291-.866v3.354a6.766,6.766,0,0,0-.793-.036,5.826,5.826,0,0,0-4.418,1.677,6.638,6.638,0,0,0-1.605,4.778v9.521h-3.461V343.144h3.317v3.21A5.9,5.9,0,0,1,751.818,343.829Z" style="fill:#fff"/><path d="M775.476,344.189a8.825,8.825,0,0,1,3.443,3.426,11.044,11.044,0,0,1,0,10.188,8.785,8.785,0,0,1-3.443,3.444,10.054,10.054,0,0,1-4.977,1.227,9.05,9.05,0,0,1-3.895-.83,7.493,7.493,0,0,1-2.921-2.416v3.029h-3.318V335.5h3.462v10.53a7.365,7.365,0,0,1,2.885-2.29,9.171,9.171,0,0,1,3.787-.775A10.054,10.054,0,0,1,775.476,344.189ZM773.51,358.6a6.106,6.106,0,0,0,2.308-2.381,7.713,7.713,0,0,0,0-7.032,5.976,5.976,0,0,0-2.308-2.362,6.937,6.937,0,0,0-6.581,0,5.809,5.809,0,0,0-2.308,2.362,7.862,7.862,0,0,0,0,7.032,5.932,5.932,0,0,0,2.308,2.381,6.815,6.815,0,0,0,6.581,0Z" style="fill:#fff"/><path d="M797.816,344.91q2.11,1.948,2.11,5.807v11.54h-3.281v-2.525a5.478,5.478,0,0,1-2.471,2.038,9.427,9.427,0,0,1-3.8.7,7.969,7.969,0,0,1-5.14-1.551,5.33,5.33,0,0,1-.089-8.133q1.839-1.531,5.841-1.532h5.482v-.686a4.416,4.416,0,0,0-1.3-3.426,5.484,5.484,0,0,0-3.823-1.19,10.114,10.114,0,0,0-3.318.56,8.546,8.546,0,0,0-2.74,1.5l-1.443-2.6a10.483,10.483,0,0,1,3.534-1.82,14.784,14.784,0,0,1,4.364-.632A8.644,8.644,0,0,1,797.816,344.91Zm-3.443,14.011a5.062,5.062,0,0,0,2.091-2.506v-2.669h-5.337q-4.4,0-4.4,2.957a2.679,2.679,0,0,0,1.118,2.273,5.117,5.117,0,0,0,3.1.829A6.425,6.425,0,0,0,794.373,358.921Z" style="fill:#fff"/><path d="M822.339,345.073q2.145,2.109,2.146,6.185v11h-3.462v-10.6a5.867,5.867,0,0,0-1.335-4.183,5.015,5.015,0,0,0-3.822-1.407,5.957,5.957,0,0,0-4.436,1.641,6.414,6.414,0,0,0-1.623,4.707v9.845h-3.462V343.144h3.318v2.884a6.732,6.732,0,0,1,2.831-2.271,9.906,9.906,0,0,1,4.057-.794A7.9,7.9,0,0,1,822.339,345.073Z" style="fill:#fff"/><path d="M851.351,361.139a5.188,5.188,0,0,1-1.875.992,7.885,7.885,0,0,1-2.308.343,6.133,6.133,0,0,1-4.472-1.551,5.924,5.924,0,0,1-1.587-4.437V345.992h-3.245v-2.848h3.245V338.96h3.462v4.184h5.482v2.848h-5.482v10.351a3.357,3.357,0,0,0,.776,2.38,2.885,2.885,0,0,0,2.217.829,4.172,4.172,0,0,0,2.706-.9Z" style="fill:#fff"/><path d="M861.521,343.829a9.68,9.68,0,0,1,4.291-.866v3.354a6.778,6.778,0,0,0-.793-.036,5.825,5.825,0,0,0-4.418,1.677A6.638,6.638,0,0,0,859,352.736v9.521h-3.462V343.144h3.318v3.21A5.9,5.9,0,0,1,861.521,343.829Z" style="fill:#fff"/><path d="M883.068,344.91q2.111,1.948,2.11,5.807v11.54H881.9v-2.525a5.475,5.475,0,0,1-2.47,2.038,9.432,9.432,0,0,1-3.805.7,7.966,7.966,0,0,1-5.139-1.551,5.331,5.331,0,0,1-.09-8.133q1.839-1.531,5.842-1.532h5.482v-.686a4.413,4.413,0,0,0-1.3-3.426,5.482,5.482,0,0,0-3.822-1.19,10.11,10.11,0,0,0-3.318.56,8.551,8.551,0,0,0-2.741,1.5l-1.442-2.6a10.464,10.464,0,0,1,3.534-1.82,14.777,14.777,0,0,1,4.363-.632A8.645,8.645,0,0,1,883.068,344.91Zm-3.444,14.011a5.064,5.064,0,0,0,2.092-2.506v-2.669h-5.338q-4.4,0-4.4,2.957a2.677,2.677,0,0,0,1.118,2.273,5.113,5.113,0,0,0,3.1.829A6.424,6.424,0,0,0,879.624,358.921Z" style="fill:#fff"/><path d="M907.59,345.073q2.145,2.109,2.146,6.185v11h-3.462v-10.6a5.867,5.867,0,0,0-1.335-4.183,5.015,5.015,0,0,0-3.822-1.407,5.957,5.957,0,0,0-4.436,1.641,6.414,6.414,0,0,0-1.623,4.707v9.845H891.6V343.144h3.318v2.884a6.732,6.732,0,0,1,2.831-2.271,9.906,9.906,0,0,1,4.057-.794A7.9,7.9,0,0,1,907.59,345.073Z" style="fill:#fff"/><path d="M917.129,361.842a9.87,9.87,0,0,1-3.39-1.6l1.443-2.741a10.322,10.322,0,0,0,3.065,1.443,12.6,12.6,0,0,0,3.642.541q4.543,0,4.545-2.6a1.683,1.683,0,0,0-.614-1.371,3.918,3.918,0,0,0-1.533-.74q-.92-.233-2.614-.522a25.652,25.652,0,0,1-3.769-.829,5.817,5.817,0,0,1-2.506-1.587,4.413,4.413,0,0,1-1.046-3.138,4.9,4.9,0,0,1,2.164-4.165,9.689,9.689,0,0,1,5.806-1.569,16.032,16.032,0,0,1,3.823.469,10.32,10.32,0,0,1,3.137,1.262l-1.478,2.741a9.945,9.945,0,0,0-5.518-1.515,6.375,6.375,0,0,0-3.354.722,2.177,2.177,0,0,0-1.154,1.911,1.821,1.821,0,0,0,.649,1.478,4.086,4.086,0,0,0,1.605.794q.955.252,2.687.577a29.384,29.384,0,0,1,3.732.847,5.583,5.583,0,0,1,2.434,1.533,4.266,4.266,0,0,1,1.01,3.03,4.776,4.776,0,0,1-2.217,4.128,10.466,10.466,0,0,1-6.041,1.534A16.005,16.005,0,0,1,917.129,361.842Z" style="fill:#fff"/><path d="M949.332,344.189a8.821,8.821,0,0,1,3.444,3.426,11.044,11.044,0,0,1,0,10.188,8.781,8.781,0,0,1-3.444,3.444,10.052,10.052,0,0,1-4.977,1.227,8.848,8.848,0,0,1-3.767-.794,7.837,7.837,0,0,1-2.9-2.308v9.881h-3.461V343.144h3.317v3.029a7.349,7.349,0,0,1,2.921-2.4,9.222,9.222,0,0,1,3.894-.811A10.051,10.051,0,0,1,949.332,344.189ZM947.367,358.6a6.122,6.122,0,0,0,2.309-2.381,7.729,7.729,0,0,0,0-7.032,5.992,5.992,0,0,0-2.309-2.362,6.573,6.573,0,0,0-3.3-.83,6.38,6.38,0,0,0-3.263.848A6.136,6.136,0,0,0,938.5,349.2a7.044,7.044,0,0,0-.848,3.5,7.26,7.26,0,0,0,.83,3.516,5.936,5.936,0,0,0,2.307,2.381,6.817,6.817,0,0,0,6.582,0Z" style="fill:#fff"/><path d="M961.883,361.211a9.139,9.139,0,0,1-3.553-3.481,10.525,10.525,0,0,1,0-10.061,9.024,9.024,0,0,1,3.553-3.462,11.121,11.121,0,0,1,10.222,0,9.066,9.066,0,0,1,3.536,3.462,10.532,10.532,0,0,1,0,10.061,9.183,9.183,0,0,1-3.536,3.481,10.973,10.973,0,0,1-10.222,0Zm8.42-2.614a5.994,5.994,0,0,0,2.29-2.381,7.871,7.871,0,0,0,0-7.032,5.868,5.868,0,0,0-2.29-2.362,6.975,6.975,0,0,0-6.6,0,5.967,5.967,0,0,0-2.307,2.362,7.713,7.713,0,0,0,0,7.032A6.1,6.1,0,0,0,963.7,358.6a6.852,6.852,0,0,0,6.6,0Z" style="fill:#fff"/><path d="M987.7,343.829a9.686,9.686,0,0,1,4.291-.866v3.354a6.766,6.766,0,0,0-.793-.036,5.828,5.828,0,0,0-4.418,1.677,6.638,6.638,0,0,0-1.6,4.778v9.521h-3.462V343.144h3.318v3.21A5.9,5.9,0,0,1,987.7,343.829Z" style="fill:#fff"/><path d="M1007.789,361.139a5.18,5.18,0,0,1-1.875.992,7.875,7.875,0,0,1-2.308.343,6.13,6.13,0,0,1-4.471-1.551,5.92,5.92,0,0,1-1.587-4.437V345.992H994.3v-2.848h3.245V338.96h3.462v4.184h5.481v2.848h-5.481v10.351a3.356,3.356,0,0,0,.775,2.38,2.887,2.887,0,0,0,2.218.829,4.167,4.167,0,0,0,2.7-.9Z" style="fill:#fff"/><path d="M1022.646,361.842a9.859,9.859,0,0,1-3.388-1.6l1.441-2.741a10.346,10.346,0,0,0,3.067,1.443,12.592,12.592,0,0,0,3.641.541q4.545,0,4.544-2.6a1.685,1.685,0,0,0-.613-1.371,3.913,3.913,0,0,0-1.532-.74q-.921-.233-2.615-.522a25.652,25.652,0,0,1-3.769-.829,5.817,5.817,0,0,1-2.506-1.587,4.417,4.417,0,0,1-1.046-3.138,4.9,4.9,0,0,1,2.164-4.165,9.691,9.691,0,0,1,5.806-1.569,16.011,16.011,0,0,1,3.822.469,10.334,10.334,0,0,1,3.139,1.262l-1.479,2.741a9.942,9.942,0,0,0-5.517-1.515,6.379,6.379,0,0,0-3.355.722,2.176,2.176,0,0,0-1.153,1.911,1.82,1.82,0,0,0,.648,1.478,4.077,4.077,0,0,0,1.606.794q.956.252,2.685.577a29.323,29.323,0,0,1,3.733.847,5.578,5.578,0,0,1,2.434,1.533,4.271,4.271,0,0,1,1.01,3.03,4.774,4.774,0,0,1-2.218,4.128,10.464,10.464,0,0,1-6.041,1.534A16.02,16.02,0,0,1,1022.646,361.842Z" style="fill:#fff"/><path d="M1056.293,343.144l-9.268,21.024a9.485,9.485,0,0,1-2.867,4.111,6.547,6.547,0,0,1-3.949,1.191,8.358,8.358,0,0,1-2.723-.451,5.6,5.6,0,0,1-2.181-1.317l1.478-2.6a4.823,4.823,0,0,0,3.426,1.408,3.3,3.3,0,0,0,2.109-.668,5.684,5.684,0,0,0,1.534-2.29l.613-1.334-8.44-19.077h3.608l6.671,15.291,6.6-15.291Z" style="fill:#fff"/><path d="M1060.26,361.842a9.865,9.865,0,0,1-3.389-1.6l1.442-2.741a10.328,10.328,0,0,0,3.066,1.443,12.594,12.594,0,0,0,3.642.541q4.543,0,4.543-2.6a1.685,1.685,0,0,0-.613-1.371,3.913,3.913,0,0,0-1.532-.74q-.92-.233-2.614-.522a25.7,25.7,0,0,1-3.77-.829,5.829,5.829,0,0,1-2.506-1.587,4.417,4.417,0,0,1-1.046-3.138,4.9,4.9,0,0,1,2.164-4.165,9.691,9.691,0,0,1,5.806-1.569,16.005,16.005,0,0,1,3.822.469,10.323,10.323,0,0,1,3.139,1.262l-1.478,2.741a9.948,9.948,0,0,0-5.518-1.515,6.379,6.379,0,0,0-3.355.722,2.176,2.176,0,0,0-1.153,1.911,1.818,1.818,0,0,0,.649,1.478,4.066,4.066,0,0,0,1.605.794q.955.252,2.686.577a29.3,29.3,0,0,1,3.732.847,5.581,5.581,0,0,1,2.435,1.533,4.275,4.275,0,0,1,1.009,3.03,4.776,4.776,0,0,1-2.217,4.128,10.468,10.468,0,0,1-6.041,1.534A16.01,16.01,0,0,1,1060.26,361.842Z" style="fill:#fff"/><path d="M1088.1,361.139a5.188,5.188,0,0,1-1.875.992,7.885,7.885,0,0,1-2.308.343,6.137,6.137,0,0,1-4.473-1.551,5.923,5.923,0,0,1-1.586-4.437V345.992h-3.246v-2.848h3.246V338.96h3.461v4.184h5.483v2.848h-5.483v10.351a3.357,3.357,0,0,0,.776,2.38,2.887,2.887,0,0,0,2.218.829,4.176,4.176,0,0,0,2.706-.9Z" style="fill:#fff"/><path d="M1108.837,353.854H1093.33a6,6,0,0,0,2.217,4.057,7.236,7.236,0,0,0,4.707,1.533,7.088,7.088,0,0,0,5.517-2.308l1.912,2.236a8.384,8.384,0,0,1-3.228,2.308,12.165,12.165,0,0,1-9.684-.451,8.872,8.872,0,0,1-3.623-3.48,9.983,9.983,0,0,1-1.281-5.049,10.138,10.138,0,0,1,1.244-5.012,8.924,8.924,0,0,1,3.426-3.481,9.768,9.768,0,0,1,4.924-1.244,9.569,9.569,0,0,1,4.886,1.244,8.748,8.748,0,0,1,3.354,3.481,10.605,10.605,0,0,1,1.207,5.121A9.876,9.876,0,0,1,1108.837,353.854ZM1095.3,347.4a6.1,6.1,0,0,0-1.965,3.967h12.262a6.154,6.154,0,0,0-1.967-3.949,6.457,6.457,0,0,0-8.33-.018Z" style="fill:#fff"/><path d="M1143.33,345.055q2.111,2.091,2.11,6.2v11h-3.461v-10.6a6.033,6.033,0,0,0-1.281-4.183,4.7,4.7,0,0,0-3.661-1.407,5.483,5.483,0,0,0-4.183,1.641,6.6,6.6,0,0,0-1.55,4.707v9.845h-3.462v-10.6a6.038,6.038,0,0,0-1.28-4.183,4.7,4.7,0,0,0-3.662-1.407,5.48,5.48,0,0,0-4.182,1.641,6.6,6.6,0,0,0-1.551,4.707v9.845h-3.462V343.144h3.318v2.848a6.716,6.716,0,0,1,2.741-2.254,9.192,9.192,0,0,1,3.859-.775,8.466,8.466,0,0,1,3.967.9,6.273,6.273,0,0,1,2.668,2.632,7.326,7.326,0,0,1,3.012-2.6,9.821,9.821,0,0,1,4.345-.937A7.761,7.761,0,0,1,1143.33,345.055Z" style="fill:#fff"/><path d="M1152.8,361.842a9.87,9.87,0,0,1-3.39-1.6l1.443-2.741a10.334,10.334,0,0,0,3.065,1.443,12.6,12.6,0,0,0,3.642.541q4.543,0,4.545-2.6a1.686,1.686,0,0,0-.614-1.371,3.918,3.918,0,0,0-1.533-.74q-.919-.233-2.614-.522a25.652,25.652,0,0,1-3.769-.829,5.817,5.817,0,0,1-2.506-1.587,4.413,4.413,0,0,1-1.046-3.138,4.9,4.9,0,0,1,2.164-4.165,9.691,9.691,0,0,1,5.806-1.569,16.032,16.032,0,0,1,3.823.469,10.32,10.32,0,0,1,3.137,1.262l-1.478,2.741a9.945,9.945,0,0,0-5.518-1.515,6.375,6.375,0,0,0-3.354.722,2.175,2.175,0,0,0-1.154,1.911,1.816,1.816,0,0,0,.65,1.478,4.068,4.068,0,0,0,1.6.794q.955.252,2.687.577a29.384,29.384,0,0,1,3.732.847,5.583,5.583,0,0,1,2.434,1.533,4.266,4.266,0,0,1,1.01,3.03,4.776,4.776,0,0,1-2.217,4.128,10.466,10.466,0,0,1-6.041,1.534A16.005,16.005,0,0,1,1152.8,361.842Z" style="fill:#fff"/><path d="M1168.989,361.77a2.387,2.387,0,0,1-.721-1.785,2.347,2.347,0,0,1,.721-1.75,2.4,2.4,0,0,1,1.732-.7,2.306,2.306,0,0,1,1.694.686,2.618,2.618,0,0,1-.019,3.552,2.286,2.286,0,0,1-1.675.7A2.393,2.393,0,0,1,1168.989,361.77Z" style="fill:#fff"/></g></g></g></g></g></svg>