<svg xmlns="http://www.w3.org/2000/svg" xmlns:xlink="http://www.w3.org/1999/xlink" viewBox="0 0 1751.496 498.015"><defs><radialGradient id="radial-gradient" cx="8232.523" cy="6829.702" r="603.809" gradientTransform="translate(-6795.084 8201.224) rotate(-90)" gradientUnits="userSpaceOnUse"><stop offset="0" stop-color="#fff"/><stop offset="0.231" stop-color="#fcfcfc"/><stop offset="0.42" stop-color="#f2f2f2"/><stop offset="0.594" stop-color="#e0e0e1"/><stop offset="0.759" stop-color="#c8c8c9"/><stop offset="0.917" stop-color="#aaa"/><stop offset="1" stop-color="#969697"/></radialGradient><radialGradient id="radial-gradient-2" cx="8130.849" cy="6896.461" r="575.632" gradientTransform="translate(-6795.084 8201.224) rotate(-90)" gradientUnits="userSpaceOnUse"><stop offset="0" stop-color="#fff"/><stop offset="0.257" stop-color="#fcfcfc"/><stop offset="0.468" stop-color="#f2f2f2"/><stop offset="0.662" stop-color="#e0e0e1"/><stop offset="0.846" stop-color="#c9c9c9"/><stop offset="1" stop-color="#aeaeaf"/></radialGradient><radialGradient id="radial-gradient-3" cx="7780.702" cy="7207.635" r="636.249" gradientTransform="translate(-6795.084 8201.224) rotate(-90)" gradientUnits="userSpaceOnUse"><stop offset="0" stop-color="#fff"/><stop offset="0.164" stop-color="#f8f8f8"/><stop offset="0.411" stop-color="#e3e3e3"/><stop offset="0.709" stop-color="#c2c2c2"/><stop offset="1" stop-color="#9a9a9a"/></radialGradient></defs><g id="Layer_2" data-name="Layer 2"><g id="Layer_1-2" data-name="Layer 1"><g id="Layer_2-2" data-name="Layer 2"><g id="Layer_1-2-2" data-name="Layer 1-2"><path d="M1651.109,455.6H334.6c-55.443,0-100.388-89.2-100.388-199.236h0c0-110.034,44.945-199.235,100.388-199.235H1651.109c55.442,0,100.387,89.2,100.387,199.235h0C1751.5,366.4,1706.552,455.6,1651.109,455.6Z" style="fill:#69bfc3"/><path d="M226.259,54.318c117.874,0,230.389,84.482,230.389,202.361S381.893,466.721,264.005,466.721c-117.86,0-217.807-98-217.807-215.887C46.2,132.965,108.385,54.318,226.259,54.318Z" style="fill:#434343;opacity:0.5;isolation:isolate"/><path d="M249.008,0C386.531,0,498.015,111.485,498.015,249.008S386.531,498.015,249.008,498.015.005,386.536,0,249.017,111.483,0,249.008,0Z" style="fill:url(#radial-gradient)"/><path d="M249.008,11.615C380.116,11.615,486.4,117.9,486.4,249.008S380.115,486.4,249.007,486.4,11.62,380.121,11.615,249.017,117.889,11.62,249,11.615Z" style="fill:url(#radial-gradient-2)"/><path d="M249,58.159c105.4,0,190.85,85.442,190.853,190.844S354.414,439.854,249.012,439.856,58.169,354.423,58.159,249.026,143.6,58.167,249,58.159Z" style="fill:url(#radial-gradient-3)"/><path d="M249,75.4a173.589,173.589,0,1,1-.01,0Z" style="opacity:0.10000000149011612;isolation:isolate"/><path d="M386.674,246.212a56.855,56.855,0,0,1-4.039,6.19c-9.813,11.574-19.722,23.068-29.616,34.573-2.9,3.373-5.05,3.423-7.964.045q-15.772-18.286-31.454-36.651a12.585,12.585,0,0,1-1.419-2.045c-3.148-5.642-.535-10.57,5.918-10.89,4.247-.211,8.512-.057,12.769-.066.995,0,1.989,0,3.216,0a76.81,76.81,0,0,0-6.962-21.84c-14.4-28.945-37.525-46.838-69.532-51.265-33.73-4.666-61.7,7.315-83.658,33.3-1.433,1.695-2.726,3.519-4.256,5.118a14.024,14.024,0,0,1-19.484,2.016,14.725,14.725,0,0,1-4.041-19.761,78.458,78.458,0,0,1,9.018-11.571A121.1,121.1,0,0,1,306.928,150.34c.4.233.79.483,1.173.742a4.16,4.16,0,0,1,1.956,5.55c-.06.124-.125.246-.2.364a4.277,4.277,0,0,1-5.88,1.42c-.063-.038-.125-.079-.186-.121-5.593-2.841-11.032-6.073-16.83-8.41a112.594,112.594,0,0,0-131.738,36.468c-2.664,3.515-2.877,5.924-.781,8.823a6.217,6.217,0,0,0,10.662-.082,99.147,99.147,0,0,1,177.126,39.8c.322,1.723.659,3.445.938,5.175a4.33,4.33,0,0,1-4.609,5.667c-4.811.091-9.625.028-14.437.031-.882,0-1.764,0-3.379,0l28.264,32.974,28.281-32.973c-5.17,0-9.649,0-14.128,0-5.317,0-6.266-.805-6.908-6.024a108.164,108.164,0,0,0-21-52.359c-3.967-5.31-8.843-9.935-13.113-15.033a6.636,6.636,0,0,1-1.679-4.574c.576-3.5,4.65-4.42,7.287-1.5A227.142,227.142,0,0,1,344.6,186.1a112.292,112.292,0,0,1,19.372,48.141c.131.821.316,1.633.494,2.446a3.975,3.975,0,0,0,.341.677c4.138,0,8.382.018,12.625,0a9.734,9.734,0,0,1,9.239,4.962Z" style="fill:#606161"/><path d="M155.762,273.841c2.476,6.582,4.413,12.734,7.061,18.563a89.333,89.333,0,0,0,24.56,31.792c1.018.85,2.312,2.114,2.342,3.216a6.087,6.087,0,0,1-1.765,4.226,3.876,3.876,0,0,1-5.292-.479A100.639,100.639,0,0,1,147.539,273c-1.2-5.885.242-7.708,6.177-7.725q6.663-.02,13.325-.063c.147,0,.293-.167.726-.43l-27.728-32.347-27.9,32.53a21.087,21.087,0,0,0,2.322.3c4.442.023,8.885-.006,13.327.019,4.175.024,5.511,1.152,6.088,5.2a107.234,107.234,0,0,0,22.2,52.16c18.815,23.843,43.166,38.672,73.42,42.42,42.288,5.24,76.877-9.5,104.074-42.075,2.106-2.523,3.624-5.126,2.569-8.579a5.873,5.873,0,0,0-9.8-3.1,14.594,14.594,0,0,0-2.285,2.408,98.507,98.507,0,0,1-65.072,38.077,95,95,0,0,1-55.933-8,7.025,7.025,0,0,1-3.255-3.97,4.024,4.024,0,0,1,1.861-3.527,7.617,7.617,0,0,1,5.174.161,95.2,95.2,0,0,0,23.808,7.064,88.828,88.828,0,0,0,51.324-7.664A101.938,101.938,0,0,0,318.178,307.6c4.324-5.213,9.742-7.595,16.493-5.512a14.543,14.543,0,0,1,7.695,23.133,114.862,114.862,0,0,1-27.848,27.244,120.508,120.508,0,0,1-188.249-76.416c-.315-1.738-1.005-2.284-2.718-2.244q-6.521.15-13.048.006c-3.119-.071-6.3-.483-7.649-3.874a8.615,8.615,0,0,1,1.77-9.065q15.8-18.63,31.762-37.121a4.237,4.237,0,0,1,7.281.022q16.4,19.031,32.705,38.144c4.316,5.084,2.316,10.432-4.217,11.6a28.755,28.755,0,0,1-4.691.309C163.878,273.871,160.292,273.841,155.762,273.841Z" style="fill:#606161"/><path d="M240.68,272.84h-3.266q-18.183,0-36.364-.006c-5.666-.009-7.058-2.425-4.091-7.29q21.862-35.859,43.808-71.665c.43-.7.9-1.616,1.571-1.884a7.2,7.2,0,0,1,4.276-.877,4.582,4.582,0,0,1,2.284,3.344,91.522,91.522,0,0,1,.2,9.7q.019,13.879,0,27.758v3.243h3.33q17.765,0,35.531-.009c2.206,0,4.757.095,5.419,2.367a8.09,8.09,0,0,1-.982,5.616c-3.857,6.734-8.018,13.293-12.068,19.916-.144.237-.278.481-.434.709a4.221,4.221,0,0,1-5.618,2.018,4.322,4.322,0,0,1-.535-.3,4.173,4.173,0,0,1-1.218-5.774c.068-.1.14-.2.217-.3,2.6-4.367,5.285-8.681,7.926-13.023.468-.769.888-1.568,1.522-2.691-1.3-.059-2.262-.139-3.228-.14q-16.239-.015-32.478-.011c-4.485,0-5.8-1.31-5.8-5.742q-.015-11.937,0-23.872v-2.661l-.57-.16-32.649,53.377H210.8q16.238,0,32.477,0c4.68,0,5.819,1.162,5.827,5.935q.021,11.8,0,23.6v3.466c.877-1.181,1.319-1.691,1.667-2.258,3.336-5.433,6.641-10.885,9.988-16.312,1.783-2.893,4.167-3.72,6.422-2.311,2.145,1.341,2.5,3.822.816,6.577-6.347,10.418-12.738,20.809-19.081,31.23-1.2,1.981-2.717,3.454-5.163,2.776-2.59-.719-3.074-2.922-3.073-5.289q0-17.9,0-35.808Z" style="fill:#606161"/><line x1="514.163" y1="190.815" x2="1659.052" y2="190.815" style="fill:none;stroke:#fff;stroke-miterlimit:10;stroke-width:3px"/><g style="isolation:isolate"><path d="M526.391,104.446h-11.23V97.828h30.583v6.618H534.513v28.477h-8.122Z" style="fill:#fff"/><path d="M573.067,121.643h-20.4a6.352,6.352,0,0,0,2.607,3.96,8.632,8.632,0,0,0,5.114,1.454,10.349,10.349,0,0,0,3.735-.626,9.047,9.047,0,0,0,3.033-1.981l4.162,4.512q-3.811,4.362-11.13,4.362a17.611,17.611,0,0,1-8.072-1.78,13.035,13.035,0,0,1-5.415-4.939,13.594,13.594,0,0,1-1.9-7.168,13.78,13.78,0,0,1,1.88-7.145,13.175,13.175,0,0,1,5.164-4.963,15.985,15.985,0,0,1,14.514-.075,12.456,12.456,0,0,1,5.039,4.888,14.575,14.575,0,0,1,1.83,7.394Q573.218,119.688,573.067,121.643Zm-18.3-8.674a6.4,6.4,0,0,0-2.206,4.111h13.286a6.471,6.471,0,0,0-2.206-4.086,6.6,6.6,0,0,0-4.412-1.529A6.732,6.732,0,0,0,554.768,112.969Z" style="fill:#fff"/><path d="M583.721,131.544a13.313,13.313,0,0,1-5.364-4.939,14.28,14.28,0,0,1,0-14.338,13.325,13.325,0,0,1,5.364-4.938,16.589,16.589,0,0,1,7.747-1.78,15.011,15.011,0,0,1,7.444,1.78,10.56,10.56,0,0,1,4.638,5.089l-6.067,3.258a6.63,6.63,0,0,0-6.066-3.71,6.865,6.865,0,0,0-5.063,2.006,8.446,8.446,0,0,0,0,10.929,6.86,6.86,0,0,0,5.063,2.005,6.56,6.56,0,0,0,6.066-3.71l6.067,3.31a10.779,10.779,0,0,1-4.638,5.014,14.841,14.841,0,0,1-7.444,1.8A16.589,16.589,0,0,1,583.721,131.544Z" style="fill:#fff"/><path d="M632.354,108.557q3.082,3.009,3.083,8.924v15.442h-7.822V118.685a7.045,7.045,0,0,0-1.4-4.789,5.154,5.154,0,0,0-4.062-1.579,6.224,6.224,0,0,0-4.712,1.829,7.581,7.581,0,0,0-1.755,5.441v13.336h-7.822v-37.2h7.822v13.035a10.409,10.409,0,0,1,3.76-2.382,13.589,13.589,0,0,1,4.813-.827A11.106,11.106,0,0,1,632.354,108.557Z" style="fill:#fff"/><path d="M667,108.557q3.084,3.009,3.083,8.924v15.442h-7.821V118.685a7.039,7.039,0,0,0-1.4-4.789,5.152,5.152,0,0,0-4.061-1.579,6.226,6.226,0,0,0-4.713,1.829,7.581,7.581,0,0,0-1.755,5.441v13.336h-7.821V105.95h7.471v3.158a10.379,10.379,0,0,1,3.86-2.631,13.437,13.437,0,0,1,5.063-.928A11.106,11.106,0,0,1,667,108.557Z" style="fill:#fff"/><path d="M682.639,131.544a13.213,13.213,0,0,1-5.289-4.939,14.435,14.435,0,0,1,0-14.338,13.224,13.224,0,0,1,5.289-4.938,17.256,17.256,0,0,1,15.266,0,13.28,13.28,0,0,1,5.264,4.938,14.442,14.442,0,0,1,0,14.338,13.269,13.269,0,0,1-5.264,4.939,17.256,17.256,0,0,1-15.266,0Zm12.584-6.668a8.632,8.632,0,0,0,0-10.88,6.521,6.521,0,0,0-4.939-2.03,6.6,6.6,0,0,0-4.963,2.03,8.543,8.543,0,0,0,0,10.88,6.6,6.6,0,0,0,4.963,2.03A6.517,6.517,0,0,0,695.223,124.876Z" style="fill:#fff"/><path d="M710.288,95.723h7.821v37.2h-7.821Z" style="fill:#fff"/><path d="M730.568,131.544a13.225,13.225,0,0,1-5.289-4.939,14.442,14.442,0,0,1,0-14.338,13.237,13.237,0,0,1,5.289-4.938,17.258,17.258,0,0,1,15.267,0,13.287,13.287,0,0,1,5.264,4.938,14.442,14.442,0,0,1,0,14.338,13.275,13.275,0,0,1-5.264,4.939,17.258,17.258,0,0,1-15.267,0Zm12.584-6.668a8.628,8.628,0,0,0,0-10.88,6.518,6.518,0,0,0-4.938-2.03,6.6,6.6,0,0,0-4.963,2.03,8.543,8.543,0,0,0,0,10.88,6.6,6.6,0,0,0,4.963,2.03A6.515,6.515,0,0,0,743.152,124.876Z" style="fill:#fff"/><path d="M786.044,105.95v22.46q0,7.419-3.86,11.03T770.9,143.051a28.258,28.258,0,0,1-7.42-.953,16.207,16.207,0,0,1-5.815-2.758l3.108-5.615a12.815,12.815,0,0,0,4.312,2.231,17.135,17.135,0,0,0,5.214.827q4.06,0,5.991-1.83t1.931-5.54V128.26q-3.058,3.36-8.524,3.359a14.317,14.317,0,0,1-6.793-1.629,12.412,12.412,0,0,1-4.888-4.588,13.779,13.779,0,0,1,0-13.636,12.416,12.416,0,0,1,4.888-4.587,14.317,14.317,0,0,1,6.793-1.63q5.867,0,8.924,3.86V105.95Zm-9.7,17.422a6.782,6.782,0,0,0,0-9.576,7.208,7.208,0,0,0-5.089-1.83,7.293,7.293,0,0,0-5.114,1.83,6.717,6.717,0,0,0,0,9.576,7.289,7.289,0,0,0,5.114,1.83A7.2,7.2,0,0,0,776.343,123.372Z" style="fill:#fff"/><path d="M820.086,105.95,807.9,134.577q-1.856,4.663-4.587,6.569a11.245,11.245,0,0,1-6.593,1.905,13.675,13.675,0,0,1-4.161-.653,9.176,9.176,0,0,1-3.359-1.8l2.858-5.566a6.693,6.693,0,0,0,2.081,1.254,6.468,6.468,0,0,0,2.331.451,4.135,4.135,0,0,0,2.606-.777,6.6,6.6,0,0,0,1.806-2.582l.1-.251L789.3,105.95h8.072l7.57,18.3,7.621-18.3Z" style="fill:#fff"/><path d="M821.489,115.676h14.189v6.267H821.489Z" style="fill:#fff"/><path d="M842.4,97.828h15.943a22.4,22.4,0,0,1,10.1,2.181,16.343,16.343,0,0,1,6.819,6.141,18.721,18.721,0,0,1,0,18.451,16.336,16.336,0,0,1-6.819,6.141,22.4,22.4,0,0,1-10.1,2.181H842.4Zm15.542,28.427a11.8,11.8,0,0,0,8.4-2.933,11.644,11.644,0,0,0,0-15.893,11.8,11.8,0,0,0-8.4-2.933h-7.42v21.759Z" style="fill:#fff"/><path d="M894.511,106.552a14.054,14.054,0,0,1,5.49-1v7.22q-1.305-.1-1.755-.1a7.173,7.173,0,0,0-5.265,1.88q-1.9,1.881-1.9,5.64v12.735h-7.821V105.95h7.471v3.56A8.69,8.69,0,0,1,894.511,106.552Z" style="fill:#fff"/><path d="M905.064,100.937a4.247,4.247,0,0,1,0-6.217,4.966,4.966,0,0,1,3.51-1.254,5.087,5.087,0,0,1,3.51,1.2,3.863,3.863,0,0,1,1.354,3.009,4.258,4.258,0,0,1-1.354,3.233,4.9,4.9,0,0,1-3.51,1.278A4.965,4.965,0,0,1,905.064,100.937Zm-.4,5.013h7.821v26.973h-7.821Z" style="fill:#fff"/><path d="M946.527,105.95l-11.381,26.973h-8.072L915.743,105.95h8.072l7.47,18.35,7.722-18.35Z" style="fill:#fff"/><path d="M975.254,121.643h-20.4a6.348,6.348,0,0,0,2.607,3.96,8.626,8.626,0,0,0,5.113,1.454,10.35,10.35,0,0,0,3.736-.626,9.047,9.047,0,0,0,3.033-1.981l4.161,4.512q-3.81,4.362-11.13,4.362a17.614,17.614,0,0,1-8.072-1.78,13.026,13.026,0,0,1-5.414-4.939,13.594,13.594,0,0,1-1.905-7.168,13.789,13.789,0,0,1,1.879-7.145,13.182,13.182,0,0,1,5.164-4.963,15.987,15.987,0,0,1,14.515-.075,12.447,12.447,0,0,1,5.038,4.888,14.575,14.575,0,0,1,1.83,7.394Q975.4,119.688,975.254,121.643Zm-18.3-8.674a6.41,6.41,0,0,0-2.206,4.111h13.286a6.462,6.462,0,0,0-2.206-4.086,6.594,6.594,0,0,0-4.411-1.529A6.735,6.735,0,0,0,956.954,112.969Z" style="fill:#fff"/><path d="M1005.11,108.557q3.084,3.009,3.083,8.924v15.442h-7.821V118.685a7.045,7.045,0,0,0-1.4-4.789,5.154,5.154,0,0,0-4.062-1.579,6.228,6.228,0,0,0-4.713,1.829,7.581,7.581,0,0,0-1.755,5.441v13.336h-7.821V105.95h7.471v3.158a10.379,10.379,0,0,1,3.86-2.631,13.438,13.438,0,0,1,5.064-.928A11.1,11.1,0,0,1,1005.11,108.557Z" style="fill:#fff"/><path d="M1033.486,132.4a18.861,18.861,0,0,1-6.242-2.932l2.758-6.117a18.7,18.7,0,0,0,5.364,2.657,20.137,20.137,0,0,0,6.218,1,9.928,9.928,0,0,0,5.113-1.028,3.1,3.1,0,0,0,1.655-2.732,2.612,2.612,0,0,0-.978-2.081,7.4,7.4,0,0,0-2.507-1.329q-1.529-.5-4.136-1.1a56.8,56.8,0,0,1-6.568-1.905,10.672,10.672,0,0,1-4.387-3.058,8.258,8.258,0,0,1-1.83-5.615,9.769,9.769,0,0,1,1.655-5.54,11.124,11.124,0,0,1,4.989-3.935,20.338,20.338,0,0,1,8.146-1.454,27.026,27.026,0,0,1,6.569.8,19.421,19.421,0,0,1,5.615,2.307l-2.507,6.166a19.583,19.583,0,0,0-9.726-2.757,9.124,9.124,0,0,0-5.04,1.1,3.369,3.369,0,0,0-1.628,2.908,2.845,2.845,0,0,0,1.879,2.683,29.566,29.566,0,0,0,5.741,1.729,57.635,57.635,0,0,1,6.568,1.9,10.9,10.9,0,0,1,4.387,3.009,8.072,8.072,0,0,1,1.83,5.565,9.591,9.591,0,0,1-1.68,5.49,11.283,11.283,0,0,1-5.039,3.935,20.525,20.525,0,0,1-8.172,1.454A28.716,28.716,0,0,1,1033.486,132.4Z" style="fill:#fff"/><path d="M1088.61,105.95v26.973h-7.42v-3.209a10.355,10.355,0,0,1-3.71,2.682,11.662,11.662,0,0,1-4.663.928,11.484,11.484,0,0,1-8.422-3.058q-3.11-3.057-3.109-9.075V105.95h7.821v14.088q0,6.517,5.465,6.518a5.877,5.877,0,0,0,4.513-1.83,7.724,7.724,0,0,0,1.7-5.44V105.95Z" style="fill:#fff"/><path d="M1098.386,132.5a17.163,17.163,0,0,1-5.114-2.081l2.607-5.615a16.386,16.386,0,0,0,4.362,1.88,18.266,18.266,0,0,0,5.014.727q4.962,0,4.963-2.457a1.738,1.738,0,0,0-1.354-1.654,20.112,20.112,0,0,0-4.161-.853,39.88,39.88,0,0,1-5.465-1.153,8.48,8.48,0,0,1-3.735-2.306,6.556,6.556,0,0,1-1.579-4.713,7.384,7.384,0,0,1,1.479-4.537,9.523,9.523,0,0,1,4.312-3.083,18.418,18.418,0,0,1,6.693-1.1,26.266,26.266,0,0,1,5.691.627,15.963,15.963,0,0,1,4.687,1.729l-2.607,5.565a15.572,15.572,0,0,0-7.771-2,7.905,7.905,0,0,0-3.761.7,2.064,2.064,0,0,0-1.252,1.8,1.791,1.791,0,0,0,1.353,1.755,23.987,23.987,0,0,0,4.312.952,46.247,46.247,0,0,1,5.415,1.178,8.13,8.13,0,0,1,3.659,2.282,6.471,6.471,0,0,1,1.554,4.612,7.119,7.119,0,0,1-1.5,4.462,9.607,9.607,0,0,1-4.387,3.033,19.545,19.545,0,0,1-6.844,1.078A26.216,26.216,0,0,1,1098.386,132.5Z" style="fill:#fff"/><path d="M1139.9,131.619a8,8,0,0,1-2.833,1.278,14.274,14.274,0,0,1-3.534.427q-4.814,0-7.445-2.457t-2.632-7.22V112.568h-4.161v-6.016h4.161V99.983h7.821v6.569h6.718v6.016h-6.718v10.98a3.68,3.68,0,0,0,.877,2.632,3.25,3.25,0,0,0,2.483.927,5.027,5.027,0,0,0,3.158-1Z" style="fill:#fff"/><path d="M1164.815,108.532q3.36,2.984,3.36,9v15.392h-7.321v-3.36q-2.205,3.761-8.221,3.761a12.76,12.76,0,0,1-5.39-1.053,8.025,8.025,0,0,1-3.484-2.908,7.557,7.557,0,0,1-1.2-4.212,7.028,7.028,0,0,1,2.832-5.916q2.831-2.154,8.749-2.155h6.217a4.982,4.982,0,0,0-1.555-3.935,6.845,6.845,0,0,0-4.662-1.379,13.619,13.619,0,0,0-4.237.676,11.251,11.251,0,0,0-3.535,1.83l-2.807-5.464a16.954,16.954,0,0,1,5.29-2.407,23.693,23.693,0,0,1,6.341-.852Q1161.456,105.549,1164.815,108.532Zm-6.668,18.6a5.073,5.073,0,0,0,2.207-2.733v-2.756h-5.365q-4.814,0-4.813,3.158a2.812,2.812,0,0,0,1.178,2.382,5.305,5.305,0,0,0,3.234.877A6.805,6.805,0,0,0,1158.147,127.132Z" style="fill:#fff"/><path d="M1175.645,100.937a4.245,4.245,0,0,1,0-6.217,4.962,4.962,0,0,1,3.509-1.254,5.087,5.087,0,0,1,3.51,1.2,3.863,3.863,0,0,1,1.354,3.009,4.258,4.258,0,0,1-1.354,3.233,4.9,4.9,0,0,1-3.51,1.278A4.961,4.961,0,0,1,1175.645,100.937Zm-.4,5.013h7.821v26.973h-7.821Z" style="fill:#fff"/><path d="M1214.826,108.557q3.084,3.009,3.083,8.924v15.442h-7.821V118.685a7.045,7.045,0,0,0-1.4-4.789,5.154,5.154,0,0,0-4.062-1.579,6.226,6.226,0,0,0-4.713,1.829,7.581,7.581,0,0,0-1.755,5.441v13.336h-7.821V105.95h7.471v3.158a10.379,10.379,0,0,1,3.86-2.631,13.438,13.438,0,0,1,5.064-.928A11.1,11.1,0,0,1,1214.826,108.557Z" style="fill:#fff"/><path d="M1245.483,108.532q3.36,2.984,3.36,9v15.392h-7.321v-3.36q-2.2,3.761-8.221,3.761a12.76,12.76,0,0,1-5.39-1.053,8.025,8.025,0,0,1-3.484-2.908,7.557,7.557,0,0,1-1.2-4.212,7.028,7.028,0,0,1,2.832-5.916q2.831-2.154,8.749-2.155h6.216a4.981,4.981,0,0,0-1.554-3.935,6.845,6.845,0,0,0-4.662-1.379,13.619,13.619,0,0,0-4.237.676,11.251,11.251,0,0,0-3.535,1.83l-2.807-5.464a16.954,16.954,0,0,1,5.29-2.407,23.693,23.693,0,0,1,6.341-.852Q1242.124,105.549,1245.483,108.532Zm-6.668,18.6a5.067,5.067,0,0,0,2.206-2.733v-2.756h-5.364q-4.813,0-4.813,3.158a2.812,2.812,0,0,0,1.178,2.382,5.305,5.305,0,0,0,3.234.877A6.805,6.805,0,0,0,1238.815,127.132Z" style="fill:#fff"/><path d="M1278.7,107.278a12.432,12.432,0,0,1,4.838,4.864,16.037,16.037,0,0,1,0,14.589,12.426,12.426,0,0,1-4.838,4.864,13.757,13.757,0,0,1-6.844,1.729q-5.563,0-8.472-3.51v3.109h-7.471v-37.2h7.821v13.085a10.42,10.42,0,0,1,8.122-3.259A13.746,13.746,0,0,1,1278.7,107.278Zm-3.259,17.6a8.628,8.628,0,0,0,0-10.88,7.021,7.021,0,0,0-9.876,0,8.632,8.632,0,0,0,0,10.88,7.021,7.021,0,0,0,9.876,0Z" style="fill:#fff"/><path d="M1290.5,95.723h7.821v37.2H1290.5Z" style="fill:#fff"/><path d="M1331.866,121.643h-20.4a6.348,6.348,0,0,0,2.607,3.96,8.63,8.63,0,0,0,5.114,1.454,10.349,10.349,0,0,0,3.735-.626,9.037,9.037,0,0,0,3.033-1.981l4.161,4.512q-3.81,4.362-11.13,4.362a17.614,17.614,0,0,1-8.072-1.78,13.032,13.032,0,0,1-5.414-4.939,13.6,13.6,0,0,1-1.9-7.168,13.79,13.79,0,0,1,1.88-7.145,13.175,13.175,0,0,1,5.164-4.963,15.985,15.985,0,0,1,14.514-.075,12.449,12.449,0,0,1,5.039,4.888,14.585,14.585,0,0,1,1.83,7.394Q1332.017,119.688,1331.866,121.643Zm-18.3-8.674a6.41,6.41,0,0,0-2.206,4.111h13.286a6.457,6.457,0,0,0-2.206-4.086,6.593,6.593,0,0,0-4.411-1.529A6.737,6.737,0,0,0,1313.566,112.969Z" style="fill:#fff"/><path d="M1355.454,132.4a18.852,18.852,0,0,1-6.242-2.932l2.758-6.117a18.7,18.7,0,0,0,5.364,2.657,20.137,20.137,0,0,0,6.218,1,9.931,9.931,0,0,0,5.113-1.028,3.1,3.1,0,0,0,1.654-2.732,2.611,2.611,0,0,0-.977-2.081,7.424,7.424,0,0,0-2.507-1.329q-1.53-.5-4.136-1.1a56.742,56.742,0,0,1-6.568-1.905,10.672,10.672,0,0,1-4.387-3.058,8.253,8.253,0,0,1-1.83-5.615,9.776,9.776,0,0,1,1.654-5.54,11.132,11.132,0,0,1,4.99-3.935,20.335,20.335,0,0,1,8.146-1.454,27.017,27.017,0,0,1,6.568.8,19.416,19.416,0,0,1,5.616,2.307l-2.507,6.166a19.584,19.584,0,0,0-9.727-2.757,9.123,9.123,0,0,0-5.039,1.1,3.368,3.368,0,0,0-1.629,2.908,2.845,2.845,0,0,0,1.88,2.683,29.575,29.575,0,0,0,5.74,1.729,57.66,57.66,0,0,1,6.569,1.9,10.9,10.9,0,0,1,4.387,3.009,8.072,8.072,0,0,1,1.83,5.565,9.591,9.591,0,0,1-1.68,5.49,11.283,11.283,0,0,1-5.039,3.935,20.525,20.525,0,0,1-8.172,1.454A28.716,28.716,0,0,1,1355.454,132.4Z" style="fill:#fff"/><path d="M1388.594,131.544a13.213,13.213,0,0,1-5.289-4.939,14.435,14.435,0,0,1,0-14.338,13.224,13.224,0,0,1,5.289-4.938,17.256,17.256,0,0,1,15.266,0,13.274,13.274,0,0,1,5.264,4.938,14.442,14.442,0,0,1,0,14.338,13.262,13.262,0,0,1-5.264,4.939,17.256,17.256,0,0,1-15.266,0Zm12.584-6.668a8.632,8.632,0,0,0,0-10.88,6.521,6.521,0,0,0-4.939-2.03,6.6,6.6,0,0,0-4.963,2.03,8.543,8.543,0,0,0,0,10.88,6.6,6.6,0,0,0,4.963,2.03A6.517,6.517,0,0,0,1401.178,124.876Z" style="fill:#fff"/><path d="M1416.243,95.723h7.821v37.2h-7.821Z" style="fill:#fff"/><path d="M1458.508,105.95v26.973h-7.42v-3.209a10.363,10.363,0,0,1-3.71,2.682,11.666,11.666,0,0,1-4.663.928,11.487,11.487,0,0,1-8.423-3.058q-3.108-3.057-3.108-9.075V105.95h7.821v14.088q0,6.517,5.465,6.518a5.874,5.874,0,0,0,4.512-1.83,7.724,7.724,0,0,0,1.7-5.44V105.95Z" style="fill:#fff"/><path d="M1483.175,131.619a8.015,8.015,0,0,1-2.833,1.278,14.28,14.28,0,0,1-3.534.427q-4.814,0-7.446-2.457t-2.632-7.22V112.568h-4.161v-6.016h4.161V99.983h7.822v6.569h6.718v6.016h-6.718v10.98a3.68,3.68,0,0,0,.877,2.632,3.249,3.249,0,0,0,2.482.927,5.027,5.027,0,0,0,3.158-1Z" style="fill:#fff"/><path d="M1487.987,100.937a4.247,4.247,0,0,1,0-6.217,4.966,4.966,0,0,1,3.51-1.254,5.088,5.088,0,0,1,3.51,1.2,3.862,3.862,0,0,1,1.353,3.009,4.257,4.257,0,0,1-1.353,3.233,4.9,4.9,0,0,1-3.51,1.278A4.965,4.965,0,0,1,1487.987,100.937Zm-.4,5.013h7.821v26.973h-7.821Z" style="fill:#fff"/><path d="M1507.866,131.544a13.219,13.219,0,0,1-5.289-4.939,14.442,14.442,0,0,1,0-14.338,13.23,13.23,0,0,1,5.289-4.938,17.258,17.258,0,0,1,15.267,0,13.278,13.278,0,0,1,5.263,4.938,14.435,14.435,0,0,1,0,14.338,13.266,13.266,0,0,1-5.263,4.939,17.258,17.258,0,0,1-15.267,0Zm12.584-6.668a8.628,8.628,0,0,0,0-10.88,6.518,6.518,0,0,0-4.938-2.03,6.6,6.6,0,0,0-4.963,2.03,8.543,8.543,0,0,0,0,10.88,6.6,6.6,0,0,0,4.963,2.03A6.515,6.515,0,0,0,1520.45,124.876Z" style="fill:#fff"/><path d="M1560.008,108.557q3.083,3.009,3.083,8.924v15.442h-7.821V118.685a7.039,7.039,0,0,0-1.4-4.789,5.152,5.152,0,0,0-4.061-1.579,6.226,6.226,0,0,0-4.713,1.829,7.581,7.581,0,0,0-1.755,5.441v13.336h-7.821V105.95h7.47v3.158a10.383,10.383,0,0,1,3.861-2.631,13.433,13.433,0,0,1,5.063-.928A11.106,11.106,0,0,1,1560.008,108.557Z" style="fill:#fff"/><path d="M1572.666,132.5a17.145,17.145,0,0,1-5.113-2.081l2.606-5.615a16.386,16.386,0,0,0,4.362,1.88,18.271,18.271,0,0,0,5.014.727q4.964,0,4.963-2.457a1.738,1.738,0,0,0-1.353-1.654,20.14,20.14,0,0,0-4.162-.853,39.829,39.829,0,0,1-5.464-1.153,8.478,8.478,0,0,1-3.736-2.306,6.556,6.556,0,0,1-1.579-4.713,7.379,7.379,0,0,1,1.48-4.537,9.514,9.514,0,0,1,4.311-3.083,18.418,18.418,0,0,1,6.693-1.1,26.26,26.26,0,0,1,5.691.627,15.952,15.952,0,0,1,4.687,1.729l-2.607,5.565a15.572,15.572,0,0,0-7.771-2,7.9,7.9,0,0,0-3.76.7,2.063,2.063,0,0,0-1.253,1.8,1.791,1.791,0,0,0,1.353,1.755,24.008,24.008,0,0,0,4.312.952,46.2,46.2,0,0,1,5.415,1.178,8.13,8.13,0,0,1,3.659,2.282,6.471,6.471,0,0,1,1.555,4.612,7.12,7.12,0,0,1-1.5,4.462,9.607,9.607,0,0,1-4.387,3.033,19.545,19.545,0,0,1-6.844,1.078A26.222,26.222,0,0,1,1572.666,132.5Z" style="fill:#fff"/></g><g style="isolation:isolate"><path d="M528.7,246.191h-8.656v-3.137h20.881v3.137h-8.655V268.3H528.7Z" style="fill:#fff"/><path d="M560.345,251.114q2.145,2.11,2.146,6.185v11h-3.462V257.7a5.872,5.872,0,0,0-1.334-4.183,5.019,5.019,0,0,0-3.823-1.407,5.953,5.953,0,0,0-4.435,1.641,6.41,6.41,0,0,0-1.624,4.707V268.3h-3.461V241.539h3.461V251.89a7.146,7.146,0,0,1,2.832-2.128,9.746,9.746,0,0,1,3.912-.758A7.894,7.894,0,0,1,560.345,251.114Z" style="fill:#fff"/><path d="M586.22,259.9H570.713a6,6,0,0,0,2.218,4.056,7.231,7.231,0,0,0,4.706,1.533,7.09,7.09,0,0,0,5.518-2.308l1.911,2.236a8.369,8.369,0,0,1-3.228,2.308,12.167,12.167,0,0,1-9.683-.45,8.878,8.878,0,0,1-3.624-3.481,9.982,9.982,0,0,1-1.28-5.049,10.138,10.138,0,0,1,1.244-5.012,8.917,8.917,0,0,1,3.426-3.481A9.762,9.762,0,0,1,576.844,249a9.569,9.569,0,0,1,4.886,1.244,8.748,8.748,0,0,1,3.354,3.481,10.606,10.606,0,0,1,1.208,5.121A9.954,9.954,0,0,1,586.22,259.9Zm-13.542-6.456a6.109,6.109,0,0,0-1.965,3.967h12.262a6.153,6.153,0,0,0-1.966-3.949,6.458,6.458,0,0,0-8.331-.018Z" style="fill:#fff"/><path d="M603.909,267.252a9.247,9.247,0,0,1-3.589-3.481,10.4,10.4,0,0,1,0-10.061,9.131,9.131,0,0,1,3.589-3.462A10.745,10.745,0,0,1,609.12,249a10,10,0,0,1,4.634,1.046,7.46,7.46,0,0,1,3.155,3.029l-2.632,1.695a5.883,5.883,0,0,0-2.236-2.055,6.388,6.388,0,0,0-2.957-.686,6.85,6.85,0,0,0-3.372.83,5.907,5.907,0,0,0-2.344,2.362,7.146,7.146,0,0,0-.847,3.516,7.219,7.219,0,0,0,.847,3.552,5.9,5.9,0,0,0,2.344,2.362,6.828,6.828,0,0,0,3.372.83,6.375,6.375,0,0,0,2.957-.685,5.87,5.87,0,0,0,2.236-2.056l2.632,1.659a7.555,7.555,0,0,1-3.155,3.047,9.853,9.853,0,0,1-4.634,1.065A10.611,10.611,0,0,1,603.909,267.252Z" style="fill:#fff"/><path d="M637.123,251.114q2.146,2.11,2.146,6.185v11h-3.462V257.7a5.876,5.876,0,0,0-1.334-4.183,5.019,5.019,0,0,0-3.823-1.407,5.956,5.956,0,0,0-4.436,1.641,6.418,6.418,0,0,0-1.622,4.707V268.3h-3.463V241.539h3.463V251.89a7.139,7.139,0,0,1,2.83-2.128,9.751,9.751,0,0,1,3.913-.758A7.894,7.894,0,0,1,637.123,251.114Z" style="fill:#fff"/><path d="M658.725,250.951q2.109,1.948,2.109,5.807V268.3h-3.281v-2.525a5.478,5.478,0,0,1-2.471,2.038,9.422,9.422,0,0,1-3.8.7,7.965,7.965,0,0,1-5.138-1.551,5.33,5.33,0,0,1-.09-8.133q1.838-1.532,5.842-1.532h5.481v-.686a4.412,4.412,0,0,0-1.3-3.425A5.478,5.478,0,0,0,652.251,252a10.108,10.108,0,0,0-3.317.56,8.567,8.567,0,0,0-2.742,1.5l-1.442-2.6a10.483,10.483,0,0,1,3.534-1.82,14.784,14.784,0,0,1,4.364-.632A8.647,8.647,0,0,1,658.725,250.951Zm-3.445,14.011a5.059,5.059,0,0,0,2.092-2.506v-2.669h-5.337q-4.4,0-4.4,2.957a2.678,2.678,0,0,0,1.117,2.273,5.117,5.117,0,0,0,3.1.829A6.421,6.421,0,0,0,655.28,264.962Z" style="fill:#fff"/><path d="M667.253,241.539h3.463V268.3h-3.463Z" style="fill:#fff"/><path d="M677.314,241.539h3.463V268.3h-3.463Z" style="fill:#fff"/><path d="M704.577,259.9H689.07a6,6,0,0,0,2.218,4.056,7.233,7.233,0,0,0,4.706,1.533,7.09,7.09,0,0,0,5.518-2.308l1.912,2.236a8.384,8.384,0,0,1-3.228,2.308,12.167,12.167,0,0,1-9.683-.45,8.878,8.878,0,0,1-3.624-3.481,9.973,9.973,0,0,1-1.281-5.049,10.128,10.128,0,0,1,1.245-5.012,8.908,8.908,0,0,1,3.425-3.481A9.764,9.764,0,0,1,695.2,249a9.57,9.57,0,0,1,4.887,1.244,8.739,8.739,0,0,1,3.353,3.481,10.6,10.6,0,0,1,1.208,5.121A9.954,9.954,0,0,1,704.577,259.9Zm-13.541-6.456a6.11,6.11,0,0,0-1.966,3.967h12.262a6.153,6.153,0,0,0-1.966-3.949,6.457,6.457,0,0,0-8.33-.018Z" style="fill:#fff"/><path d="M725.44,251.114q2.146,2.11,2.146,6.185v11h-3.462V257.7a5.872,5.872,0,0,0-1.334-4.183,5.018,5.018,0,0,0-3.822-1.407,5.958,5.958,0,0,0-4.437,1.641,6.418,6.418,0,0,0-1.622,4.707V268.3h-3.463V249.185h3.319v2.884A6.726,6.726,0,0,1,715.6,249.8a9.9,9.9,0,0,1,4.056-.794A7.893,7.893,0,0,1,725.44,251.114Z" style="fill:#fff"/><path d="M752.4,249.185V265.7q0,5.013-2.488,7.411t-7.429,2.4a17.768,17.768,0,0,1-5.157-.74,10.214,10.214,0,0,1-3.967-2.11l1.66-2.668a9.782,9.782,0,0,0,3.3,1.821,12.531,12.531,0,0,0,4.057.667,6.811,6.811,0,0,0,4.959-1.586,6.535,6.535,0,0,0,1.6-4.833v-1.515a7.684,7.684,0,0,1-3.011,2.219,10.058,10.058,0,0,1-3.877.739,10.438,10.438,0,0,1-4.959-1.173,8.714,8.714,0,0,1-3.481-3.281,9.821,9.821,0,0,1,0-9.629,8.605,8.605,0,0,1,3.481-3.264A10.581,10.581,0,0,1,742.047,249a10.14,10.14,0,0,1,4.02.794,7.463,7.463,0,0,1,3.048,2.344v-2.957Zm-6.581,14.5a5.866,5.866,0,0,0,2.344-2.218,6.191,6.191,0,0,0,.848-3.228,5.854,5.854,0,0,0-1.839-4.49,7.421,7.421,0,0,0-9.485,0,5.854,5.854,0,0,0-1.839,4.49,6.19,6.19,0,0,0,.847,3.228,5.866,5.866,0,0,0,2.344,2.218,7.165,7.165,0,0,0,3.408.794A7.088,7.088,0,0,0,745.815,263.682Z" style="fill:#fff"/><path d="M776.2,259.9H760.69a6,6,0,0,0,2.218,4.056,7.233,7.233,0,0,0,4.706,1.533,7.09,7.09,0,0,0,5.518-2.308l1.912,2.236a8.377,8.377,0,0,1-3.228,2.308,12.167,12.167,0,0,1-9.683-.45,8.878,8.878,0,0,1-3.624-3.481,9.972,9.972,0,0,1-1.28-5.049,10.138,10.138,0,0,1,1.244-5.012,8.908,8.908,0,0,1,3.425-3.481A9.767,9.767,0,0,1,766.821,249a9.57,9.57,0,0,1,4.887,1.244,8.748,8.748,0,0,1,3.354,3.481,10.606,10.606,0,0,1,1.208,5.121A10,10,0,0,1,776.2,259.9Zm-13.541-6.456a6.11,6.11,0,0,0-1.966,3.967h12.262a6.153,6.153,0,0,0-1.966-3.949,6.457,6.457,0,0,0-8.33-.018Z" style="fill:#fff"/><path d="M819.689,249.185l-7.14,19.113h-3.318l-5.517-14.5-5.59,14.5h-3.318l-7.1-19.113h3.281l5.554,15.218,5.771-15.218h2.921l5.662,15.291,5.7-15.291Z" style="fill:#fff"/><path d="M823.241,244.857a2.125,2.125,0,0,1-.667-1.586,2.186,2.186,0,0,1,.667-1.6,2.275,2.275,0,0,1,1.677-.668,2.346,2.346,0,0,1,1.677.632,2.073,2.073,0,0,1,.667,1.568,2.231,2.231,0,0,1-.667,1.641,2.276,2.276,0,0,1-1.677.668A2.308,2.308,0,0,1,823.241,244.857Zm-.054,4.328h3.462V268.3h-3.462Z" style="fill:#fff"/><path d="M833.248,241.539h3.463V268.3h-3.463Z" style="fill:#fff"/><path d="M843.31,241.539h3.462V268.3H843.31Z" style="fill:#fff"/><path d="M881.1,241.539V268.3h-3.319v-3.029a7.493,7.493,0,0,1-2.921,2.416,9.046,9.046,0,0,1-3.894.83,10.049,10.049,0,0,1-4.977-1.227,8.781,8.781,0,0,1-3.444-3.444,11.052,11.052,0,0,1,0-10.188,8.821,8.821,0,0,1,3.444-3.426A10.049,10.049,0,0,1,870.97,249a9.166,9.166,0,0,1,3.786.775,7.383,7.383,0,0,1,2.886,2.29v-10.53Zm-6.564,23.1a5.958,5.958,0,0,0,2.308-2.381,7.871,7.871,0,0,0,0-7.032,5.834,5.834,0,0,0-2.308-2.362,6.939,6.939,0,0,0-6.582,0,5.976,5.976,0,0,0-2.308,2.362,7.721,7.721,0,0,0,0,7.032,6.106,6.106,0,0,0,2.308,2.381,6.817,6.817,0,0,0,6.582,0Z" style="fill:#fff"/><path d="M904.868,259.9H889.361a6,6,0,0,0,2.218,4.056,7.233,7.233,0,0,0,4.706,1.533,7.09,7.09,0,0,0,5.518-2.308l1.912,2.236a8.384,8.384,0,0,1-3.228,2.308,12.167,12.167,0,0,1-9.683-.45,8.878,8.878,0,0,1-3.624-3.481,9.973,9.973,0,0,1-1.281-5.049,10.128,10.128,0,0,1,1.245-5.012,8.908,8.908,0,0,1,3.425-3.481A9.764,9.764,0,0,1,895.492,249a9.57,9.57,0,0,1,4.887,1.244,8.739,8.739,0,0,1,3.353,3.481,10.6,10.6,0,0,1,1.208,5.121A9.954,9.954,0,0,1,904.868,259.9Zm-13.541-6.456a6.11,6.11,0,0,0-1.966,3.967h12.262a6.153,6.153,0,0,0-1.966-3.949,6.457,6.457,0,0,0-8.33-.018Z" style="fill:#fff"/><path d="M926.29,249.185,917.924,268.3H914.39l-8.368-19.113h3.607l6.563,15.327,6.708-15.327Z" style="fill:#fff"/><path d="M929.589,244.857a2.125,2.125,0,0,1-.667-1.586,2.186,2.186,0,0,1,.667-1.6,2.273,2.273,0,0,1,1.677-.668,2.344,2.344,0,0,1,1.676.632,2.07,2.07,0,0,1,.667,1.568,2.227,2.227,0,0,1-.667,1.641,2.274,2.274,0,0,1-1.676.668A2.306,2.306,0,0,1,929.589,244.857Zm-.055,4.328H933V268.3h-3.463Z" style="fill:#fff"/><path d="M940.57,267.883a9.861,9.861,0,0,1-3.39-1.6l1.442-2.741a10.34,10.34,0,0,0,3.066,1.443,12.6,12.6,0,0,0,3.642.541q4.543,0,4.544-2.6a1.682,1.682,0,0,0-.613-1.371,3.913,3.913,0,0,0-1.532-.74q-.921-.233-2.615-.522a25.606,25.606,0,0,1-3.768-.829,5.809,5.809,0,0,1-2.507-1.587,4.417,4.417,0,0,1-1.046-3.138,4.9,4.9,0,0,1,2.164-4.165A9.687,9.687,0,0,1,945.763,249a16.032,16.032,0,0,1,3.823.469,10.331,10.331,0,0,1,3.137,1.262l-1.479,2.741a9.937,9.937,0,0,0-5.517-1.515,6.377,6.377,0,0,0-3.354.722,2.177,2.177,0,0,0-1.154,1.911,1.821,1.821,0,0,0,.649,1.478,4.086,4.086,0,0,0,1.6.794q.954.252,2.686.577a29.426,29.426,0,0,1,3.734.847,5.58,5.58,0,0,1,2.433,1.533,4.271,4.271,0,0,1,1.01,3.03,4.774,4.774,0,0,1-2.218,4.128,10.463,10.463,0,0,1-6.04,1.534A16.01,16.01,0,0,1,940.57,267.883Z" style="fill:#fff"/><path d="M974.865,259.9H959.358a6,6,0,0,0,2.218,4.056,7.233,7.233,0,0,0,4.706,1.533,7.09,7.09,0,0,0,5.518-2.308l1.912,2.236a8.377,8.377,0,0,1-3.228,2.308,12.167,12.167,0,0,1-9.683-.45,8.878,8.878,0,0,1-3.624-3.481,9.973,9.973,0,0,1-1.281-5.049,10.139,10.139,0,0,1,1.245-5.012,8.908,8.908,0,0,1,3.425-3.481A9.767,9.767,0,0,1,965.489,249a9.57,9.57,0,0,1,4.887,1.244,8.739,8.739,0,0,1,3.353,3.481,10.6,10.6,0,0,1,1.209,5.121A10,10,0,0,1,974.865,259.9Zm-13.541-6.456a6.11,6.11,0,0,0-1.966,3.967H971.62a6.153,6.153,0,0,0-1.966-3.949,6.457,6.457,0,0,0-8.33-.018Z" style="fill:#fff"/><path d="M989.489,244.857a2.125,2.125,0,0,1-.667-1.586,2.186,2.186,0,0,1,.667-1.6,2.275,2.275,0,0,1,1.677-.668,2.346,2.346,0,0,1,1.677.632,2.073,2.073,0,0,1,.667,1.568,2.231,2.231,0,0,1-.667,1.641,2.276,2.276,0,0,1-1.677.668A2.308,2.308,0,0,1,989.489,244.857Zm-.054,4.328H992.9V268.3h-3.462Z" style="fill:#fff"/><path d="M1015.489,251.114q2.146,2.11,2.146,6.185v11h-3.462V257.7a5.872,5.872,0,0,0-1.334-4.183,5.018,5.018,0,0,0-3.822-1.407,5.958,5.958,0,0,0-4.437,1.641,6.418,6.418,0,0,0-1.622,4.707V268.3H999.5V249.185h3.318v2.884a6.735,6.735,0,0,1,2.832-2.271A9.9,9.9,0,0,1,1009.7,249,7.893,7.893,0,0,1,1015.489,251.114Z" style="fill:#fff"/><path d="M1040.049,251.114q2.145,2.11,2.145,6.185v11h-3.462V257.7a5.872,5.872,0,0,0-1.334-4.183,5.016,5.016,0,0,0-3.822-1.407,5.956,5.956,0,0,0-4.436,1.641,6.418,6.418,0,0,0-1.622,4.707V268.3h-3.463V249.185h3.318v2.884a6.732,6.732,0,0,1,2.831-2.271,9.906,9.906,0,0,1,4.057-.794A7.9,7.9,0,0,1,1040.049,251.114Z" style="fill:#fff"/><path d="M1051.786,267.252a9.143,9.143,0,0,1-3.552-3.481,10.525,10.525,0,0,1,0-10.061,9.028,9.028,0,0,1,3.552-3.462,11.127,11.127,0,0,1,10.225,0,9.074,9.074,0,0,1,3.534,3.462,10.525,10.525,0,0,1,0,10.061,9.191,9.191,0,0,1-3.534,3.481,10.979,10.979,0,0,1-10.225,0Zm8.421-2.614a5.988,5.988,0,0,0,2.29-2.381,7.871,7.871,0,0,0,0-7.032,5.862,5.862,0,0,0-2.29-2.362,6.975,6.975,0,0,0-6.6,0,5.974,5.974,0,0,0-2.307,2.362,7.713,7.713,0,0,0,0,7.032,6.1,6.1,0,0,0,2.307,2.381,6.852,6.852,0,0,0,6.6,0Z" style="fill:#fff"/><path d="M1087.994,249.185l-8.366,19.113h-3.534l-8.367-19.113h3.606l6.563,15.327,6.708-15.327Z" style="fill:#fff"/><path d="M1103.663,250.951q2.109,1.948,2.109,5.807V268.3h-3.281v-2.525a5.475,5.475,0,0,1-2.47,2.038,9.425,9.425,0,0,1-3.805.7,7.966,7.966,0,0,1-5.139-1.551,5.33,5.33,0,0,1-.09-8.133q1.839-1.532,5.842-1.532h5.482v-.686a4.412,4.412,0,0,0-1.3-3.425,5.483,5.483,0,0,0-3.824-1.191,10.112,10.112,0,0,0-3.317.56,8.551,8.551,0,0,0-2.741,1.5l-1.443-2.6a10.5,10.5,0,0,1,3.535-1.82,14.784,14.784,0,0,1,4.364-.632A8.644,8.644,0,0,1,1103.663,250.951Zm-3.444,14.011a5.059,5.059,0,0,0,2.092-2.506v-2.669h-5.337q-4.4,0-4.4,2.957a2.678,2.678,0,0,0,1.117,2.273,5.122,5.122,0,0,0,3.1.829A6.424,6.424,0,0,0,1100.219,264.962Z" style="fill:#fff"/><path d="M1122.938,267.18a5.188,5.188,0,0,1-1.875.992,7.891,7.891,0,0,1-2.309.343,6.135,6.135,0,0,1-4.472-1.551,5.928,5.928,0,0,1-1.587-4.437V252.033h-3.245v-2.848h3.245V245h3.463v4.183h5.482v2.848h-5.482v10.351a3.352,3.352,0,0,0,.776,2.38,2.884,2.884,0,0,0,2.217.829,4.164,4.164,0,0,0,2.7-.9Z" style="fill:#fff"/><path d="M1127.175,244.857a2.122,2.122,0,0,1-.667-1.586,2.182,2.182,0,0,1,.667-1.6,2.273,2.273,0,0,1,1.677-.668,2.344,2.344,0,0,1,1.676.632,2.07,2.07,0,0,1,.667,1.568,2.227,2.227,0,0,1-.667,1.641,2.274,2.274,0,0,1-1.676.668A2.306,2.306,0,0,1,1127.175,244.857Zm-.055,4.328h3.463V268.3h-3.463Z" style="fill:#fff"/><path d="M1154.1,249.185l-8.367,19.113H1142.2l-8.367-19.113h3.607L1144,264.512l6.708-15.327Z" style="fill:#fff"/><path d="M1174,259.9h-15.507a6,6,0,0,0,2.218,4.056,7.233,7.233,0,0,0,4.706,1.533,7.09,7.09,0,0,0,5.518-2.308l1.912,2.236a8.392,8.392,0,0,1-3.228,2.308,12.167,12.167,0,0,1-9.683-.45,8.886,8.886,0,0,1-3.625-3.481,9.982,9.982,0,0,1-1.28-5.049,10.138,10.138,0,0,1,1.244-5.012,8.91,8.91,0,0,1,3.426-3.481,9.764,9.764,0,0,1,4.923-1.244,9.57,9.57,0,0,1,4.887,1.244,8.746,8.746,0,0,1,3.353,3.481,10.6,10.6,0,0,1,1.208,5.121A9.954,9.954,0,0,1,1174,259.9Zm-13.541-6.456a6.11,6.11,0,0,0-1.966,3.967h12.262a6.157,6.157,0,0,0-1.966-3.949,6.457,6.457,0,0,0-8.33-.018Z" style="fill:#fff"/><path d="M1199.317,267.18a5.172,5.172,0,0,1-1.875.992,7.88,7.88,0,0,1-2.308.343,6.135,6.135,0,0,1-4.472-1.551,5.924,5.924,0,0,1-1.587-4.437V252.033h-3.245v-2.848h3.245V245h3.463v4.183h5.482v2.848h-5.482v10.351a3.356,3.356,0,0,0,.775,2.38,2.887,2.887,0,0,0,2.218.829,4.164,4.164,0,0,0,2.7-.9Z" style="fill:#fff"/><path d="M1220.054,259.9h-15.507a6,6,0,0,0,2.218,4.056,7.231,7.231,0,0,0,4.706,1.533,7.087,7.087,0,0,0,5.517-2.308l1.912,2.236a8.381,8.381,0,0,1-3.227,2.308,12.17,12.17,0,0,1-9.684-.45,8.89,8.89,0,0,1-3.624-3.481,9.982,9.982,0,0,1-1.28-5.049,10.138,10.138,0,0,1,1.244-5.012,8.91,8.91,0,0,1,3.426-3.481,9.764,9.764,0,0,1,4.923-1.244,9.564,9.564,0,0,1,4.886,1.244,8.748,8.748,0,0,1,3.354,3.481,10.6,10.6,0,0,1,1.208,5.121A9.954,9.954,0,0,1,1220.054,259.9Zm-13.541-6.456a6.105,6.105,0,0,0-1.966,3.967h12.262a6.157,6.157,0,0,0-1.966-3.949,6.457,6.457,0,0,0-8.33-.018Z" style="fill:#fff"/><path d="M1228.042,267.252a9.24,9.24,0,0,1-3.589-3.481,10.4,10.4,0,0,1,0-10.061,9.125,9.125,0,0,1,3.589-3.462,10.742,10.742,0,0,1,5.211-1.244,10.01,10.01,0,0,1,4.634,1.046,7.46,7.46,0,0,1,3.155,3.029l-2.632,1.695a5.89,5.89,0,0,0-2.236-2.055,6.388,6.388,0,0,0-2.957-.686,6.85,6.85,0,0,0-3.372.83,5.9,5.9,0,0,0-2.344,2.362,7.146,7.146,0,0,0-.848,3.516,7.219,7.219,0,0,0,.848,3.552,5.9,5.9,0,0,0,2.344,2.362,6.828,6.828,0,0,0,3.372.83,6.375,6.375,0,0,0,2.957-.685,5.877,5.877,0,0,0,2.236-2.056l2.632,1.659a7.555,7.555,0,0,1-3.155,3.047,9.859,9.859,0,0,1-4.634,1.065A10.608,10.608,0,0,1,1228.042,267.252Z" style="fill:#fff"/><path d="M1261.256,251.114q2.146,2.11,2.145,6.185v11h-3.462V257.7a5.872,5.872,0,0,0-1.334-4.183,5.016,5.016,0,0,0-3.822-1.407,5.956,5.956,0,0,0-4.436,1.641,6.418,6.418,0,0,0-1.622,4.707V268.3h-3.463V241.539h3.463V251.89a7.132,7.132,0,0,1,2.83-2.128,9.747,9.747,0,0,1,3.913-.758A7.9,7.9,0,0,1,1261.256,251.114Z" style="fill:#fff"/><path d="M1285.814,251.114q2.146,2.11,2.146,6.185v11H1284.5V257.7a5.872,5.872,0,0,0-1.334-4.183,5.018,5.018,0,0,0-3.822-1.407,5.958,5.958,0,0,0-4.437,1.641,6.418,6.418,0,0,0-1.622,4.707V268.3h-3.463V249.185h3.319v2.884a6.726,6.726,0,0,1,2.831-2.271,9.9,9.9,0,0,1,4.056-.794A7.893,7.893,0,0,1,1285.814,251.114Z" style="fill:#fff"/><path d="M1297.553,267.252a9.137,9.137,0,0,1-3.552-3.481,10.525,10.525,0,0,1,0-10.061,9.022,9.022,0,0,1,3.552-3.462,11.125,11.125,0,0,1,10.224,0,9.077,9.077,0,0,1,3.535,3.462,10.525,10.525,0,0,1,0,10.061,9.194,9.194,0,0,1-3.535,3.481,10.977,10.977,0,0,1-10.224,0Zm8.421-2.614a5.994,5.994,0,0,0,2.29-2.381,7.871,7.871,0,0,0,0-7.032,5.868,5.868,0,0,0-2.29-2.362,6.975,6.975,0,0,0-6.6,0,5.976,5.976,0,0,0-2.308,2.362,7.721,7.721,0,0,0,0,7.032,6.106,6.106,0,0,0,2.308,2.381,6.852,6.852,0,0,0,6.6,0Z" style="fill:#fff"/><path d="M1317.387,241.539h3.463V268.3h-3.463Z" style="fill:#fff"/><path d="M1330.514,267.252a9.137,9.137,0,0,1-3.552-3.481,10.525,10.525,0,0,1,0-10.061,9.022,9.022,0,0,1,3.552-3.462,11.125,11.125,0,0,1,10.224,0,9.068,9.068,0,0,1,3.534,3.462,10.518,10.518,0,0,1,0,10.061,9.184,9.184,0,0,1-3.534,3.481,10.977,10.977,0,0,1-10.224,0Zm8.421-2.614a5.994,5.994,0,0,0,2.29-2.381,7.871,7.871,0,0,0,0-7.032,5.868,5.868,0,0,0-2.29-2.362,6.975,6.975,0,0,0-6.6,0,5.976,5.976,0,0,0-2.308,2.362,7.721,7.721,0,0,0,0,7.032,6.106,6.106,0,0,0,2.308,2.381,6.852,6.852,0,0,0,6.6,0Z" style="fill:#fff"/><path d="M1368.632,249.185V265.7q0,5.013-2.488,7.411t-7.429,2.4a17.758,17.758,0,0,1-5.157-.74,10.207,10.207,0,0,1-3.967-2.11l1.659-2.668a9.787,9.787,0,0,0,3.3,1.821,12.52,12.52,0,0,0,4.056.667,6.809,6.809,0,0,0,4.959-1.586,6.531,6.531,0,0,0,1.605-4.833v-1.515a7.67,7.67,0,0,1-3.011,2.219,10.05,10.05,0,0,1-3.877.739,10.44,10.44,0,0,1-4.959-1.173,8.717,8.717,0,0,1-3.48-3.281,9.815,9.815,0,0,1,0-9.629,8.609,8.609,0,0,1,3.48-3.264,10.584,10.584,0,0,1,4.959-1.154,10.145,10.145,0,0,1,4.021.794,7.47,7.47,0,0,1,3.048,2.344v-2.957Zm-6.581,14.5a5.879,5.879,0,0,0,2.344-2.218,6.2,6.2,0,0,0,.847-3.228,5.854,5.854,0,0,0-1.839-4.49,7.421,7.421,0,0,0-9.485,0,5.854,5.854,0,0,0-1.839,4.49,6.182,6.182,0,0,0,.848,3.228,5.853,5.853,0,0,0,2.344,2.218,7.162,7.162,0,0,0,3.408.794A7.088,7.088,0,0,0,1362.051,263.682Z" style="fill:#fff"/><path d="M1392.145,249.185l-9.269,21.024a9.476,9.476,0,0,1-2.867,4.111,6.546,6.546,0,0,1-3.948,1.191,8.358,8.358,0,0,1-2.723-.451,5.586,5.586,0,0,1-2.182-1.317l1.479-2.6a4.818,4.818,0,0,0,3.426,1.408,3.307,3.307,0,0,0,2.109-.668,5.7,5.7,0,0,0,1.533-2.29l.612-1.334-8.438-19.077h3.606l6.672,15.291,6.6-15.291Z" style="fill:#fff"/><path d="M1393.7,256.9h9.7V259.9h-9.7Z" style="fill:#fff"/><path d="M1427.126,241.539V268.3h-3.318v-3.029a7.507,7.507,0,0,1-2.921,2.416,9.053,9.053,0,0,1-3.895.83,10.045,10.045,0,0,1-4.976-1.227,8.783,8.783,0,0,1-3.445-3.444,11.052,11.052,0,0,1,0-10.188,8.823,8.823,0,0,1,3.445-3.426,10.045,10.045,0,0,1,4.976-1.226,9.166,9.166,0,0,1,3.786.775,7.368,7.368,0,0,1,2.886,2.29v-10.53Zm-6.563,23.1a5.956,5.956,0,0,0,2.307-2.381,7.871,7.871,0,0,0,0-7.032,5.832,5.832,0,0,0-2.307-2.362,6.941,6.941,0,0,0-6.583,0,5.974,5.974,0,0,0-2.307,2.362,7.713,7.713,0,0,0,0,7.032,6.1,6.1,0,0,0,2.307,2.381,6.819,6.819,0,0,0,6.583,0Z" style="fill:#fff"/><path d="M1439.676,249.87a9.683,9.683,0,0,1,4.291-.866v3.354a6.778,6.778,0,0,0-.793-.036,5.823,5.823,0,0,0-4.418,1.677,6.638,6.638,0,0,0-1.605,4.778V268.3h-3.463V249.185h3.319v3.21A5.893,5.893,0,0,1,1439.676,249.87Z" style="fill:#fff"/><path d="M1448.276,244.857a2.125,2.125,0,0,1-.667-1.586,2.186,2.186,0,0,1,.667-1.6,2.275,2.275,0,0,1,1.677-.668,2.344,2.344,0,0,1,1.677.632,2.073,2.073,0,0,1,.667,1.568,2.231,2.231,0,0,1-.667,1.641,2.275,2.275,0,0,1-1.677.668A2.308,2.308,0,0,1,1448.276,244.857Zm-.054,4.328h3.463V268.3h-3.463Z" style="fill:#fff"/><path d="M1475.2,249.185,1466.83,268.3H1463.3l-8.367-19.113h3.606l6.564,15.327,6.708-15.327Z" style="fill:#fff"/><path d="M1495.1,259.9H1479.6a6.006,6.006,0,0,0,2.217,4.056,7.236,7.236,0,0,0,4.707,1.533,7.087,7.087,0,0,0,5.517-2.308l1.912,2.236a8.381,8.381,0,0,1-3.227,2.308,12.17,12.17,0,0,1-9.684-.45,8.89,8.89,0,0,1-3.624-3.481,9.982,9.982,0,0,1-1.28-5.049,10.138,10.138,0,0,1,1.244-5.012,8.91,8.91,0,0,1,3.426-3.481,9.762,9.762,0,0,1,4.923-1.244,9.564,9.564,0,0,1,4.886,1.244,8.748,8.748,0,0,1,3.354,3.481,10.606,10.606,0,0,1,1.208,5.121A10.235,10.235,0,0,1,1495.1,259.9Zm-13.541-6.456a6.1,6.1,0,0,0-1.966,3.967h12.261a6.152,6.152,0,0,0-1.965-3.949,6.457,6.457,0,0,0-8.33-.018Z" style="fill:#fff"/><path d="M1515.965,251.114q2.147,2.11,2.145,6.185v11h-3.462V257.7a5.872,5.872,0,0,0-1.334-4.183,5.016,5.016,0,0,0-3.822-1.407,5.956,5.956,0,0,0-4.436,1.641,6.418,6.418,0,0,0-1.622,4.707V268.3h-3.463V249.185h3.318v2.884a6.732,6.732,0,0,1,2.831-2.271,9.906,9.906,0,0,1,4.057-.794A7.9,7.9,0,0,1,1515.965,251.114Z" style="fill:#fff"/></g><g style="isolation:isolate"><path d="M524.157,314.861a9.88,9.88,0,0,1-3.39-1.6l1.442-2.741a10.365,10.365,0,0,0,3.066,1.443,12.633,12.633,0,0,0,3.642.541q4.543,0,4.544-2.6a1.685,1.685,0,0,0-.613-1.371,3.9,3.9,0,0,0-1.533-.739q-.92-.233-2.614-.522a25.637,25.637,0,0,1-3.769-.83,5.793,5.793,0,0,1-2.506-1.587,4.412,4.412,0,0,1-1.046-3.137,4.9,4.9,0,0,1,2.164-4.165,9.687,9.687,0,0,1,5.806-1.57,16.069,16.069,0,0,1,3.822.469,10.352,10.352,0,0,1,3.138,1.263l-1.478,2.74a9.945,9.945,0,0,0-5.518-1.515,6.384,6.384,0,0,0-3.354.722,2.176,2.176,0,0,0-1.154,1.911,1.821,1.821,0,0,0,.649,1.479,4.093,4.093,0,0,0,1.6.794q.956.252,2.687.577a29.384,29.384,0,0,1,3.732.847,5.56,5.56,0,0,1,2.434,1.533,4.266,4.266,0,0,1,1.01,3.029,4.776,4.776,0,0,1-2.218,4.129,10.47,10.47,0,0,1-6.04,1.533A16.005,16.005,0,0,1,524.157,314.861Z" style="fill:#fff"/><path d="M544.316,314.23a9.134,9.134,0,0,1-3.552-3.48,10.52,10.52,0,0,1,0-10.062,9.026,9.026,0,0,1,3.552-3.461,11.117,11.117,0,0,1,10.224,0,9.072,9.072,0,0,1,3.534,3.461,10.527,10.527,0,0,1,0,10.062,9.182,9.182,0,0,1-3.534,3.48,10.977,10.977,0,0,1-10.224,0Zm8.42-2.614a5.968,5.968,0,0,0,2.29-2.381,7.862,7.862,0,0,0,0-7.032,5.859,5.859,0,0,0-2.29-2.361,6.973,6.973,0,0,0-6.6,0,5.98,5.98,0,0,0-2.308,2.361,7.713,7.713,0,0,0,0,7.032,6.092,6.092,0,0,0,2.308,2.381,6.843,6.843,0,0,0,6.6,0Z" style="fill:#fff"/><path d="M564.15,288.518h3.462v26.758H564.15Z" style="fill:#fff"/><path d="M592.026,296.163v19.113h-3.281v-2.884a6.977,6.977,0,0,1-2.759,2.29,8.606,8.606,0,0,1-3.733.811,8.34,8.34,0,0,1-6.022-2.11q-2.2-2.109-2.2-6.221v-11h3.462v10.6a5.932,5.932,0,0,0,1.335,4.2,4.98,4.98,0,0,0,3.822,1.425,5.705,5.705,0,0,0,4.328-1.66,6.514,6.514,0,0,0,1.586-4.688v-9.881Z" style="fill:#fff"/><path d="M609.372,314.158a5.158,5.158,0,0,1-1.875.992,7.853,7.853,0,0,1-2.309.343,6.128,6.128,0,0,1-4.471-1.551,5.921,5.921,0,0,1-1.587-4.436V299.012h-3.245v-2.849h3.245V291.98h3.463v4.183h5.481v2.849h-5.481v10.35a3.356,3.356,0,0,0,.775,2.38,2.884,2.884,0,0,0,2.218.829,4.169,4.169,0,0,0,2.7-.9Z" style="fill:#fff"/><path d="M613.609,291.836a2.129,2.129,0,0,1-.667-1.587,2.184,2.184,0,0,1,.667-1.6,2.271,2.271,0,0,1,1.677-.668,2.348,2.348,0,0,1,1.677.631,2.075,2.075,0,0,1,.667,1.569,2.23,2.23,0,0,1-.667,1.64,2.271,2.271,0,0,1-1.677.668A2.307,2.307,0,0,1,613.609,291.836Zm-.054,4.327h3.463v19.113h-3.463Z" style="fill:#fff"/><path d="M626.681,314.23a9.134,9.134,0,0,1-3.552-3.48,10.527,10.527,0,0,1,0-10.062,9.026,9.026,0,0,1,3.552-3.461,11.117,11.117,0,0,1,10.224,0,9.072,9.072,0,0,1,3.534,3.461,10.52,10.52,0,0,1,0,10.062,9.182,9.182,0,0,1-3.534,3.48,10.977,10.977,0,0,1-10.224,0Zm8.421-2.614a5.982,5.982,0,0,0,2.29-2.381,7.871,7.871,0,0,0,0-7.032,5.872,5.872,0,0,0-2.29-2.361,6.975,6.975,0,0,0-6.6,0,5.98,5.98,0,0,0-2.308,2.361,7.721,7.721,0,0,0,0,7.032,6.092,6.092,0,0,0,2.308,2.381,6.845,6.845,0,0,0,6.6,0Z" style="fill:#fff"/><path d="M662.51,298.093q2.145,2.109,2.145,6.184v11h-3.462v-10.6a5.874,5.874,0,0,0-1.334-4.184,5.02,5.02,0,0,0-3.822-1.406,5.956,5.956,0,0,0-4.436,1.641,6.416,6.416,0,0,0-1.622,4.707v9.844h-3.463V296.163h3.318v2.885a6.742,6.742,0,0,1,2.831-2.272,9.9,9.9,0,0,1,4.057-.794A7.9,7.9,0,0,1,662.51,298.093Z" style="fill:#fff"/><path d="M672.049,314.861a9.886,9.886,0,0,1-3.391-1.6l1.443-2.741a10.358,10.358,0,0,0,3.065,1.443,12.64,12.64,0,0,0,3.643.541q4.543,0,4.544-2.6a1.683,1.683,0,0,0-.614-1.371,3.9,3.9,0,0,0-1.532-.739q-.919-.233-2.614-.522a25.637,25.637,0,0,1-3.769-.83,5.8,5.8,0,0,1-2.507-1.587,4.416,4.416,0,0,1-1.046-3.137,4.9,4.9,0,0,1,2.165-4.165,9.686,9.686,0,0,1,5.8-1.57,16.077,16.077,0,0,1,3.823.469,10.335,10.335,0,0,1,3.137,1.263l-1.478,2.74a9.943,9.943,0,0,0-5.518-1.515,6.38,6.38,0,0,0-3.353.722,2.177,2.177,0,0,0-1.155,1.911,1.822,1.822,0,0,0,.65,1.479,4.089,4.089,0,0,0,1.6.794q.955.252,2.687.577a29.364,29.364,0,0,1,3.733.847,5.565,5.565,0,0,1,2.434,1.533,4.266,4.266,0,0,1,1.009,3.029,4.777,4.777,0,0,1-2.217,4.129,10.475,10.475,0,0,1-6.04,1.533A16,16,0,0,1,672.049,314.861Z" style="fill:#fff"/><path d="M709.589,314.158a5.158,5.158,0,0,1-1.875.992,7.853,7.853,0,0,1-2.309.343,6.126,6.126,0,0,1-4.471-1.551,5.921,5.921,0,0,1-1.587-4.436V299.012H696.1v-2.849h3.245V291.98h3.463v4.183h5.481v2.849H702.81v10.35a3.352,3.352,0,0,0,.775,2.38,2.884,2.884,0,0,0,2.218.829,4.171,4.171,0,0,0,2.7-.9Z" style="fill:#fff"/><path d="M716.188,314.23a9.138,9.138,0,0,1-3.551-3.48,10.52,10.52,0,0,1,0-10.062,9.03,9.03,0,0,1,3.551-3.461,11.12,11.12,0,0,1,10.225,0,9.072,9.072,0,0,1,3.534,3.461,10.52,10.52,0,0,1,0,10.062,9.182,9.182,0,0,1-3.534,3.48,10.979,10.979,0,0,1-10.225,0Zm8.421-2.614a5.968,5.968,0,0,0,2.29-2.381,7.862,7.862,0,0,0,0-7.032,5.859,5.859,0,0,0-2.29-2.361,6.973,6.973,0,0,0-6.6,0A5.98,5.98,0,0,0,715.7,302.2a7.713,7.713,0,0,0,0,7.032,6.092,6.092,0,0,0,2.308,2.381,6.843,6.843,0,0,0,6.6,0Z" style="fill:#fff"/><path d="M761.718,298.093q2.145,2.109,2.145,6.184v11H760.4v-10.6a5.874,5.874,0,0,0-1.334-4.184,5.02,5.02,0,0,0-3.822-1.406,5.956,5.956,0,0,0-4.436,1.641,6.416,6.416,0,0,0-1.622,4.707v9.844h-3.463V288.518h3.463v10.35a7.132,7.132,0,0,1,2.83-2.128,9.747,9.747,0,0,1,3.913-.758A7.9,7.9,0,0,1,761.718,298.093Z" style="fill:#fff"/><path d="M787.592,306.874H772.085a6.005,6.005,0,0,0,2.218,4.057,7.237,7.237,0,0,0,4.706,1.533,7.087,7.087,0,0,0,5.517-2.309l1.912,2.237a8.379,8.379,0,0,1-3.227,2.307,12.17,12.17,0,0,1-9.684-.45,8.881,8.881,0,0,1-3.624-3.48,9.985,9.985,0,0,1-1.28-5.049,10.14,10.14,0,0,1,1.244-5.013,8.914,8.914,0,0,1,3.426-3.48,9.755,9.755,0,0,1,4.923-1.245,9.561,9.561,0,0,1,4.887,1.245,8.756,8.756,0,0,1,3.353,3.48,10.6,10.6,0,0,1,1.208,5.121A9.937,9.937,0,0,1,787.592,306.874Zm-13.541-6.455a6.105,6.105,0,0,0-1.966,3.967h12.262a6.155,6.155,0,0,0-1.966-3.949,6.453,6.453,0,0,0-8.33-.018Z" style="fill:#fff"/><path d="M792.461,288.518h3.463v26.758h-3.463Z" style="fill:#fff"/><path d="M817.632,297.209a8.814,8.814,0,0,1,3.444,3.426,11.05,11.05,0,0,1,0,10.187,8.783,8.783,0,0,1-3.444,3.445,10.049,10.049,0,0,1-4.977,1.226,8.837,8.837,0,0,1-3.768-.794,7.831,7.831,0,0,1-2.9-2.307v9.88h-3.463V296.163h3.319v3.029a7.355,7.355,0,0,1,2.921-2.4,9.213,9.213,0,0,1,3.894-.812A10.049,10.049,0,0,1,817.632,297.209Zm-1.965,14.407a6.092,6.092,0,0,0,2.308-2.381,7.721,7.721,0,0,0,0-7.032,5.98,5.98,0,0,0-2.308-2.361,6.565,6.565,0,0,0-3.3-.83,6.389,6.389,0,0,0-3.263.847,6.148,6.148,0,0,0-2.309,2.363,7.039,7.039,0,0,0-.847,3.5,7.264,7.264,0,0,0,.829,3.515,5.939,5.939,0,0,0,2.308,2.381,6.81,6.81,0,0,0,6.582,0Z" style="fill:#fff"/><path d="M839.938,314.23a9.231,9.231,0,0,1-3.589-3.48,10.4,10.4,0,0,1,0-10.062,9.122,9.122,0,0,1,3.589-3.461,10.728,10.728,0,0,1,5.21-1.245,10,10,0,0,1,4.634,1.046,7.465,7.465,0,0,1,3.156,3.03l-2.632,1.695a5.9,5.9,0,0,0-2.237-2.056,6.385,6.385,0,0,0-2.957-.685,6.839,6.839,0,0,0-3.372.83A5.911,5.911,0,0,0,839.4,302.2a7.8,7.8,0,0,0,0,7.068,5.9,5.9,0,0,0,2.344,2.363,6.828,6.828,0,0,0,3.372.83,6.373,6.373,0,0,0,2.957-.686,5.877,5.877,0,0,0,2.237-2.055l2.632,1.659a7.563,7.563,0,0,1-3.156,3.047,9.853,9.853,0,0,1-4.634,1.064A10.6,10.6,0,0,1,839.938,314.23Z" style="fill:#fff"/><path d="M857.464,291.836a2.129,2.129,0,0,1-.667-1.587,2.184,2.184,0,0,1,.667-1.6,2.269,2.269,0,0,1,1.677-.668,2.347,2.347,0,0,1,1.676.631,2.072,2.072,0,0,1,.667,1.569,2.226,2.226,0,0,1-.667,1.64,2.27,2.27,0,0,1-1.676.668A2.306,2.306,0,0,1,857.464,291.836Zm-.055,4.327h3.463v19.113h-3.463Z" style="fill:#fff"/><path d="M878.217,314.158a5.158,5.158,0,0,1-1.875.992,7.853,7.853,0,0,1-2.309.343,6.126,6.126,0,0,1-4.471-1.551,5.921,5.921,0,0,1-1.587-4.436V299.012h-3.246v-2.849h3.246V291.98h3.463v4.183h5.481v2.849h-5.481v10.35a3.352,3.352,0,0,0,.775,2.38,2.882,2.882,0,0,0,2.218.829,4.171,4.171,0,0,0,2.7-.9Z" style="fill:#fff"/><path d="M882.454,291.836a2.129,2.129,0,0,1-.667-1.587,2.184,2.184,0,0,1,.667-1.6,2.269,2.269,0,0,1,1.677-.668,2.35,2.35,0,0,1,1.677.631,2.075,2.075,0,0,1,.667,1.569,2.23,2.23,0,0,1-.667,1.64,2.272,2.272,0,0,1-1.677.668A2.306,2.306,0,0,1,882.454,291.836Zm-.055,4.327h3.463v19.113H882.4Z" style="fill:#fff"/><path d="M909.663,306.874H894.156a6.005,6.005,0,0,0,2.218,4.057,7.238,7.238,0,0,0,4.706,1.533,7.091,7.091,0,0,0,5.518-2.309l1.912,2.237a8.382,8.382,0,0,1-3.228,2.307,12.167,12.167,0,0,1-9.683-.45,8.869,8.869,0,0,1-3.624-3.48,9.975,9.975,0,0,1-1.281-5.049,10.14,10.14,0,0,1,1.244-5.013,8.921,8.921,0,0,1,3.426-3.48,9.755,9.755,0,0,1,4.923-1.245,9.561,9.561,0,0,1,4.887,1.245,8.743,8.743,0,0,1,3.353,3.48,10.6,10.6,0,0,1,1.208,5.121A9.937,9.937,0,0,1,909.663,306.874Zm-13.541-6.455a6.11,6.11,0,0,0-1.966,3.967h12.262a6.15,6.15,0,0,0-1.966-3.949,6.453,6.453,0,0,0-8.33-.018Z" style="fill:#fff"/><path d="M915.506,314.861a9.9,9.9,0,0,1-3.391-1.6l1.443-2.741a10.358,10.358,0,0,0,3.065,1.443,12.64,12.64,0,0,0,3.643.541q4.543,0,4.544-2.6a1.683,1.683,0,0,0-.614-1.371,3.9,3.9,0,0,0-1.532-.739q-.919-.233-2.614-.522a25.637,25.637,0,0,1-3.769-.83,5.8,5.8,0,0,1-2.507-1.587,4.416,4.416,0,0,1-1.045-3.137,4.9,4.9,0,0,1,2.164-4.165,9.686,9.686,0,0,1,5.8-1.57,16.077,16.077,0,0,1,3.823.469,10.335,10.335,0,0,1,3.137,1.263l-1.478,2.74a9.943,9.943,0,0,0-5.518-1.515,6.38,6.38,0,0,0-3.353.722,2.177,2.177,0,0,0-1.155,1.911,1.822,1.822,0,0,0,.65,1.479,4.089,4.089,0,0,0,1.6.794q.955.252,2.687.577a29.364,29.364,0,0,1,3.733.847,5.565,5.565,0,0,1,2.434,1.533,4.266,4.266,0,0,1,1.009,3.029,4.777,4.777,0,0,1-2.217,4.129,10.473,10.473,0,0,1-6.04,1.533A16,16,0,0,1,915.506,314.861Z" style="fill:#fff"/><path d="M942.354,291.836a2.125,2.125,0,0,1-.667-1.587,2.18,2.18,0,0,1,.667-1.6,2.267,2.267,0,0,1,1.676-.668,2.348,2.348,0,0,1,1.677.631,2.075,2.075,0,0,1,.667,1.569,2.23,2.23,0,0,1-.667,1.64,2.271,2.271,0,0,1-1.677.668A2.3,2.3,0,0,1,942.354,291.836Zm-.055,4.327h3.463v19.113H942.3Z" style="fill:#fff"/><path d="M968.354,298.093q2.146,2.109,2.146,6.184v11h-3.462v-10.6a5.874,5.874,0,0,0-1.334-4.184,5.021,5.021,0,0,0-3.822-1.406,5.958,5.958,0,0,0-4.437,1.641,6.416,6.416,0,0,0-1.622,4.707v9.844H952.36V296.163h3.319v2.885a6.736,6.736,0,0,1,2.831-2.272,9.9,9.9,0,0,1,4.056-.794A7.893,7.893,0,0,1,968.354,298.093Z" style="fill:#fff"/><path d="M989.686,314.23a9.134,9.134,0,0,1-3.552-3.48,10.527,10.527,0,0,1,0-10.062,9.026,9.026,0,0,1,3.552-3.461,11.117,11.117,0,0,1,10.224,0,9.072,9.072,0,0,1,3.534,3.461,10.52,10.52,0,0,1,0,10.062,9.182,9.182,0,0,1-3.534,3.48,10.977,10.977,0,0,1-10.224,0Zm8.42-2.614a5.968,5.968,0,0,0,2.29-2.381,7.862,7.862,0,0,0,0-7.032,5.859,5.859,0,0,0-2.29-2.361,6.973,6.973,0,0,0-6.6,0A5.98,5.98,0,0,0,989.2,302.2a7.721,7.721,0,0,0,0,7.032,6.092,6.092,0,0,0,2.308,2.381,6.843,6.843,0,0,0,6.6,0Z" style="fill:#fff"/><path d="M1013.415,294.505v1.658h5.554v2.849h-5.482v16.264h-3.463V299.012h-3.245v-2.849h3.245v-1.694a6.089,6.089,0,0,1,1.66-4.508,6.283,6.283,0,0,1,4.652-1.659,7.827,7.827,0,0,1,2.164.288,5.269,5.269,0,0,1,1.73.83l-1.045,2.632a4.309,4.309,0,0,0-2.668-.9Q1013.413,291.15,1013.415,294.505Z" style="fill:#fff"/><path d="M1026.146,294.505v1.658h5.553v2.849h-5.481v16.264h-3.463V299.012h-3.245v-2.849h3.245v-1.694a6.093,6.093,0,0,1,1.659-4.508,6.284,6.284,0,0,1,4.652-1.659,7.817,7.817,0,0,1,2.164.288,5.284,5.284,0,0,1,1.731.83l-1.046,2.632a4.309,4.309,0,0,0-2.668-.9Q1026.145,291.15,1026.146,294.505Z" style="fill:#fff"/><path d="M1051.894,306.874h-15.507a6.008,6.008,0,0,0,2.217,4.057,7.241,7.241,0,0,0,4.707,1.533,7.087,7.087,0,0,0,5.517-2.309l1.912,2.237a8.379,8.379,0,0,1-3.227,2.307,12.17,12.17,0,0,1-9.684-.45,8.881,8.881,0,0,1-3.624-3.48,9.985,9.985,0,0,1-1.28-5.049,10.14,10.14,0,0,1,1.244-5.013,8.914,8.914,0,0,1,3.426-3.48,9.752,9.752,0,0,1,4.923-1.245,9.554,9.554,0,0,1,4.886,1.245,8.752,8.752,0,0,1,3.354,3.48,10.606,10.606,0,0,1,1.208,5.121A10.217,10.217,0,0,1,1051.894,306.874Zm-13.541-6.455a6.1,6.1,0,0,0-1.966,3.967h12.261a6.149,6.149,0,0,0-1.965-3.949,6.453,6.453,0,0,0-8.33-.018Z" style="fill:#fff"/><path d="M1062.749,296.849a9.669,9.669,0,0,1,4.291-.867v3.355a6.766,6.766,0,0,0-.793-.036,5.819,5.819,0,0,0-4.418,1.677,6.636,6.636,0,0,0-1.6,4.778v9.52h-3.463V296.163h3.318v3.21A5.9,5.9,0,0,1,1062.749,296.849Z" style="fill:#fff"/><path d="M1071.351,291.836a2.125,2.125,0,0,1-.667-1.587,2.18,2.18,0,0,1,.667-1.6,2.267,2.267,0,0,1,1.676-.668,2.348,2.348,0,0,1,1.677.631,2.075,2.075,0,0,1,.667,1.569,2.23,2.23,0,0,1-.667,1.64,2.271,2.271,0,0,1-1.677.668A2.3,2.3,0,0,1,1071.351,291.836Zm-.055,4.327h3.463v19.113H1071.3Z" style="fill:#fff"/><path d="M1097.351,298.093q2.145,2.109,2.145,6.184v11h-3.462v-10.6a5.874,5.874,0,0,0-1.334-4.184,5.02,5.02,0,0,0-3.822-1.406,5.958,5.958,0,0,0-4.437,1.641,6.416,6.416,0,0,0-1.622,4.707v9.844h-3.463V296.163h3.319v2.885a6.736,6.736,0,0,1,2.831-2.272,9.9,9.9,0,0,1,4.057-.794A7.9,7.9,0,0,1,1097.351,298.093Z" style="fill:#fff"/><path d="M1124.308,296.163V312.68q0,5.012-2.489,7.411t-7.428,2.4a17.8,17.8,0,0,1-5.158-.739,10.2,10.2,0,0,1-3.966-2.11l1.659-2.668a9.794,9.794,0,0,0,3.3,1.821,12.547,12.547,0,0,0,4.056.667,6.8,6.8,0,0,0,4.959-1.587,6.531,6.531,0,0,0,1.605-4.833v-1.515a7.664,7.664,0,0,1-3.011,2.219,10.05,10.05,0,0,1-3.877.739,10.44,10.44,0,0,1-4.959-1.172,8.713,8.713,0,0,1-3.48-3.282,9.815,9.815,0,0,1,0-9.629,8.594,8.594,0,0,1,3.48-3.263,10.573,10.573,0,0,1,4.959-1.155,10.149,10.149,0,0,1,4.021.794,7.484,7.484,0,0,1,3.047,2.344v-2.957Zm-6.581,14.5a5.856,5.856,0,0,0,2.343-2.218,6.187,6.187,0,0,0,.848-3.227,5.851,5.851,0,0,0-1.839-4.49,7.421,7.421,0,0,0-9.485,0,5.851,5.851,0,0,0-1.839,4.49,6.178,6.178,0,0,0,.848,3.227,5.843,5.843,0,0,0,2.343,2.218,7.165,7.165,0,0,0,3.408.794A7.092,7.092,0,0,0,1117.727,310.66Z" style="fill:#fff"/><path d="M1153.644,297.93q2.109,1.948,2.109,5.806v11.54h-3.281v-2.524a5.476,5.476,0,0,1-2.471,2.037,9.4,9.4,0,0,1-3.805.7,7.959,7.959,0,0,1-5.138-1.551,5.329,5.329,0,0,1-.09-8.132q1.837-1.533,5.842-1.533h5.481v-.685a4.416,4.416,0,0,0-1.3-3.426,5.478,5.478,0,0,0-3.823-1.19,10.107,10.107,0,0,0-3.317.559,8.557,8.557,0,0,0-2.742,1.5l-1.442-2.6a10.484,10.484,0,0,1,3.534-1.821,14.784,14.784,0,0,1,4.364-.632A8.647,8.647,0,0,1,1153.644,297.93Zm-3.445,14.01a5.052,5.052,0,0,0,2.092-2.5v-2.669h-5.337q-4.4,0-4.4,2.957a2.677,2.677,0,0,0,1.117,2.272,5.11,5.11,0,0,0,3.1.829A6.421,6.421,0,0,0,1150.2,311.94Z" style="fill:#fff"/><path d="M1172.848,314.861a9.876,9.876,0,0,1-3.391-1.6l1.442-2.741a10.377,10.377,0,0,0,3.066,1.443,12.638,12.638,0,0,0,3.642.541q4.545,0,4.544-2.6a1.682,1.682,0,0,0-.613-1.371,3.9,3.9,0,0,0-1.532-.739q-.92-.233-2.614-.522a25.637,25.637,0,0,1-3.769-.83,5.79,5.79,0,0,1-2.507-1.587,4.416,4.416,0,0,1-1.046-3.137,4.9,4.9,0,0,1,2.164-4.165,9.689,9.689,0,0,1,5.806-1.57,16.083,16.083,0,0,1,3.823.469,10.335,10.335,0,0,1,3.137,1.263l-1.479,2.74a9.937,9.937,0,0,0-5.517-1.515,6.387,6.387,0,0,0-3.354.722,2.178,2.178,0,0,0-1.154,1.911,1.822,1.822,0,0,0,.65,1.479,4.089,4.089,0,0,0,1.6.794q.956.252,2.687.577a29.364,29.364,0,0,1,3.733.847,5.565,5.565,0,0,1,2.434,1.533,4.27,4.27,0,0,1,1.009,3.029,4.777,4.777,0,0,1-2.217,4.129,10.476,10.476,0,0,1-6.041,1.533A16,16,0,0,1,1172.848,314.861Z" style="fill:#fff"/><path d="M1202.978,297.93q2.109,1.948,2.109,5.806v11.54h-3.281v-2.524a5.476,5.476,0,0,1-2.471,2.037,9.4,9.4,0,0,1-3.805.7,7.959,7.959,0,0,1-5.138-1.551,5.329,5.329,0,0,1-.09-8.132q1.838-1.533,5.842-1.533h5.481v-.685a4.416,4.416,0,0,0-1.3-3.426,5.478,5.478,0,0,0-3.823-1.19,10.107,10.107,0,0,0-3.317.559,8.546,8.546,0,0,0-2.742,1.5l-1.442-2.6a10.484,10.484,0,0,1,3.534-1.821,14.784,14.784,0,0,1,4.364-.632A8.647,8.647,0,0,1,1202.978,297.93Zm-3.445,14.01a5.052,5.052,0,0,0,2.092-2.5v-2.669h-5.337q-4.4,0-4.4,2.957a2.677,2.677,0,0,0,1.117,2.272,5.11,5.11,0,0,0,3.1.829A6.421,6.421,0,0,0,1199.533,311.94Z" style="fill:#fff"/><path d="M1215.4,294.505v1.658h5.554v2.849h-5.481v16.264h-3.463V299.012h-3.245v-2.849h3.245v-1.694a6.089,6.089,0,0,1,1.659-4.508,6.283,6.283,0,0,1,4.652-1.659,7.817,7.817,0,0,1,2.164.288,5.284,5.284,0,0,1,1.731.83l-1.046,2.632a4.309,4.309,0,0,0-2.668-.9Q1215.4,291.15,1215.4,294.505Z" style="fill:#fff"/><path d="M1241.149,306.874h-15.506a6,6,0,0,0,2.217,4.057,7.238,7.238,0,0,0,4.706,1.533,7.09,7.09,0,0,0,5.518-2.309l1.912,2.237a8.379,8.379,0,0,1-3.227,2.307,12.17,12.17,0,0,1-9.684-.45,8.869,8.869,0,0,1-3.624-3.48,9.975,9.975,0,0,1-1.28-5.049,10.14,10.14,0,0,1,1.244-5.013,8.914,8.914,0,0,1,3.426-3.48,9.751,9.751,0,0,1,4.922-1.245,9.558,9.558,0,0,1,4.887,1.245,8.752,8.752,0,0,1,3.354,3.48,10.606,10.606,0,0,1,1.208,5.121A9.983,9.983,0,0,1,1241.149,306.874Zm-13.541-6.455a6.1,6.1,0,0,0-1.965,3.967H1237.9a6.146,6.146,0,0,0-1.966-3.949,6.453,6.453,0,0,0-8.33-.018Z" style="fill:#fff"/><path d="M1248.561,311.255a2.45,2.45,0,0,1,.667,1.75,4.3,4.3,0,0,1-.126,1.045q-.128.505-.488,1.551l-1.694,5.012h-2.273l1.335-5.373a2.262,2.262,0,0,1-1.1-.847,2.364,2.364,0,0,1-.414-1.388,2.391,2.391,0,0,1,.684-1.768,2.351,2.351,0,0,1,1.732-.685A2.216,2.216,0,0,1,1248.561,311.255Z" style="fill:#fff"/><path d="M1264.879,314.861a9.9,9.9,0,0,1-3.391-1.6l1.443-2.741a10.358,10.358,0,0,0,3.065,1.443,12.64,12.64,0,0,0,3.643.541q4.543,0,4.544-2.6a1.68,1.68,0,0,0-.614-1.371,3.9,3.9,0,0,0-1.532-.739q-.92-.233-2.614-.522a25.637,25.637,0,0,1-3.769-.83,5.8,5.8,0,0,1-2.507-1.587,4.416,4.416,0,0,1-1.045-3.137,4.9,4.9,0,0,1,2.164-4.165,9.686,9.686,0,0,1,5.8-1.57,16.091,16.091,0,0,1,3.824.469,10.339,10.339,0,0,1,3.136,1.263l-1.478,2.74a9.943,9.943,0,0,0-5.518-1.515,6.38,6.38,0,0,0-3.353.722,2.177,2.177,0,0,0-1.155,1.911,1.822,1.822,0,0,0,.65,1.479,4.1,4.1,0,0,0,1.6.794q.956.252,2.687.577a29.364,29.364,0,0,1,3.733.847,5.565,5.565,0,0,1,2.434,1.533,4.266,4.266,0,0,1,1.01,3.029,4.778,4.778,0,0,1-2.218,4.129,10.473,10.473,0,0,1-6.04,1.533A16,16,0,0,1,1264.879,314.861Z" style="fill:#fff"/><path d="M1299.787,296.163v19.113h-3.281v-2.884a6.97,6.97,0,0,1-2.759,2.29,8.611,8.611,0,0,1-3.732.811,8.345,8.345,0,0,1-6.024-2.11q-2.2-2.109-2.2-6.221v-11h3.462v10.6a5.932,5.932,0,0,0,1.334,4.2,4.983,4.983,0,0,0,3.823,1.425,5.7,5.7,0,0,0,4.327-1.66,6.51,6.51,0,0,0,1.587-4.688v-9.881Z" style="fill:#fff"/><path d="M1307.36,314.861a9.88,9.88,0,0,1-3.39-1.6l1.442-2.741a10.365,10.365,0,0,0,3.066,1.443,12.638,12.638,0,0,0,3.642.541q4.543,0,4.544-2.6a1.682,1.682,0,0,0-.613-1.371,3.9,3.9,0,0,0-1.532-.739q-.921-.233-2.615-.522a25.59,25.59,0,0,1-3.768-.83,5.79,5.79,0,0,1-2.507-1.587,4.416,4.416,0,0,1-1.046-3.137,4.9,4.9,0,0,1,2.164-4.165,9.687,9.687,0,0,1,5.806-1.57,16.083,16.083,0,0,1,3.823.469,10.356,10.356,0,0,1,3.137,1.263l-1.479,2.74a9.937,9.937,0,0,0-5.517-1.515,6.387,6.387,0,0,0-3.354.722,2.178,2.178,0,0,0-1.154,1.911,1.824,1.824,0,0,0,.649,1.479,4.1,4.1,0,0,0,1.605.794q.954.252,2.686.577a29.426,29.426,0,0,1,3.734.847,5.562,5.562,0,0,1,2.433,1.533,4.266,4.266,0,0,1,1.01,3.029,4.776,4.776,0,0,1-2.218,4.129,10.47,10.47,0,0,1-6.04,1.533A16.01,16.01,0,0,1,1307.36,314.861Z" style="fill:#fff"/><path d="M1335.2,314.158a5.158,5.158,0,0,1-1.875.992,7.847,7.847,0,0,1-2.308.343,6.13,6.13,0,0,1-4.472-1.551,5.921,5.921,0,0,1-1.587-4.436V299.012h-3.245v-2.849h3.245V291.98h3.463v4.183h5.481v2.849h-5.481v10.35a3.356,3.356,0,0,0,.775,2.38,2.884,2.884,0,0,0,2.218.829,4.169,4.169,0,0,0,2.7-.9Z" style="fill:#fff"/><path d="M1352.419,297.93q2.109,1.948,2.109,5.806v11.54h-3.281v-2.524a5.47,5.47,0,0,1-2.471,2.037,9.4,9.4,0,0,1-3.8.7,7.96,7.96,0,0,1-5.139-1.551,5.329,5.329,0,0,1-.09-8.132q1.839-1.533,5.842-1.533h5.481v-.685a4.416,4.416,0,0,0-1.3-3.426,5.482,5.482,0,0,0-3.824-1.19,10.107,10.107,0,0,0-3.317.559,8.551,8.551,0,0,0-2.741,1.5l-1.443-2.6a10.49,10.49,0,0,1,3.535-1.821,14.784,14.784,0,0,1,4.364-.632A8.645,8.645,0,0,1,1352.419,297.93Zm-3.444,14.01a5.045,5.045,0,0,0,2.091-2.5v-2.669h-5.337q-4.4,0-4.4,2.957a2.677,2.677,0,0,0,1.117,2.272,5.113,5.113,0,0,0,3.1.829A6.424,6.424,0,0,0,1348.975,311.94Z" style="fill:#fff"/><path d="M1361,291.836a2.129,2.129,0,0,1-.667-1.587,2.184,2.184,0,0,1,.667-1.6,2.269,2.269,0,0,1,1.677-.668,2.345,2.345,0,0,1,1.676.631,2.072,2.072,0,0,1,.667,1.569,2.226,2.226,0,0,1-.667,1.64,2.268,2.268,0,0,1-1.676.668A2.306,2.306,0,0,1,1361,291.836Zm-.055,4.327h3.463v19.113h-3.463Z" style="fill:#fff"/><path d="M1387,298.093q2.147,2.109,2.145,6.184v11h-3.461v-10.6a5.879,5.879,0,0,0-1.334-4.184,5.023,5.023,0,0,0-3.823-1.406,5.956,5.956,0,0,0-4.436,1.641,6.416,6.416,0,0,0-1.622,4.707v9.844h-3.463V296.163h3.318v2.885a6.742,6.742,0,0,1,2.831-2.272,9.906,9.906,0,0,1,4.057-.794A7.9,7.9,0,0,1,1387,298.093Z" style="fill:#fff"/><path d="M1408.6,297.93q2.111,1.948,2.11,5.806v11.54h-3.281v-2.524a5.481,5.481,0,0,1-2.471,2.037,9.4,9.4,0,0,1-3.805.7,7.959,7.959,0,0,1-5.138-1.551,5.329,5.329,0,0,1-.09-8.132q1.837-1.533,5.842-1.533h5.481v-.685a4.416,4.416,0,0,0-1.3-3.426,5.48,5.48,0,0,0-3.823-1.19,10.117,10.117,0,0,0-3.318.559,8.551,8.551,0,0,0-2.741,1.5l-1.442-2.6a10.484,10.484,0,0,1,3.534-1.821,14.784,14.784,0,0,1,4.364-.632A8.643,8.643,0,0,1,1408.6,297.93Zm-3.444,14.01a5.052,5.052,0,0,0,2.092-2.5v-2.669h-5.337q-4.4,0-4.4,2.957a2.677,2.677,0,0,0,1.117,2.272,5.11,5.11,0,0,0,3.1.829A6.421,6.421,0,0,0,1405.16,311.94Z" style="fill:#fff"/><path d="M1432.243,297.209a8.823,8.823,0,0,1,3.445,3.426,11.05,11.05,0,0,1,0,10.187,8.792,8.792,0,0,1-3.445,3.445,10.047,10.047,0,0,1-4.976,1.226,9.036,9.036,0,0,1-3.895-.83,7.491,7.491,0,0,1-2.921-2.416v3.029h-3.318V288.518h3.463v10.53a7.337,7.337,0,0,1,2.884-2.29,9.159,9.159,0,0,1,3.787-.776A10.048,10.048,0,0,1,1432.243,297.209Zm-1.965,14.407a6.092,6.092,0,0,0,2.308-2.381,7.713,7.713,0,0,0,0-7.032,5.98,5.98,0,0,0-2.308-2.361,6.939,6.939,0,0,0-6.582,0,5.823,5.823,0,0,0-2.307,2.361,7.871,7.871,0,0,0,0,7.032,5.93,5.93,0,0,0,2.307,2.381,6.81,6.81,0,0,0,6.582,0Z" style="fill:#fff"/><path d="M1441.728,288.518h3.462v26.758h-3.462Z" style="fill:#fff"/><path d="M1468.991,306.874h-15.507a6.005,6.005,0,0,0,2.218,4.057,7.238,7.238,0,0,0,4.706,1.533,7.091,7.091,0,0,0,5.518-2.309l1.912,2.237a8.375,8.375,0,0,1-3.228,2.307,12.167,12.167,0,0,1-9.683-.45,8.869,8.869,0,0,1-3.624-3.48,9.975,9.975,0,0,1-1.281-5.049,10.14,10.14,0,0,1,1.245-5.013,8.912,8.912,0,0,1,3.425-3.48,9.755,9.755,0,0,1,4.923-1.245,9.561,9.561,0,0,1,4.887,1.245,8.743,8.743,0,0,1,3.353,3.48,10.6,10.6,0,0,1,1.208,5.121A9.937,9.937,0,0,1,1468.991,306.874Zm-13.541-6.455a6.11,6.11,0,0,0-1.966,3.967h12.262a6.15,6.15,0,0,0-1.966-3.949,6.453,6.453,0,0,0-8.33-.018Z" style="fill:#fff"/><path d="M1476.4,311.255a2.446,2.446,0,0,1,.667,1.75,4.3,4.3,0,0,1-.126,1.045q-.128.505-.487,1.551l-1.694,5.012h-2.273l1.335-5.373a2.262,2.262,0,0,1-1.1-.847,2.364,2.364,0,0,1-.414-1.388,2.391,2.391,0,0,1,.684-1.768,2.349,2.349,0,0,1,1.732-.685A2.214,2.214,0,0,1,1476.4,311.255Z" style="fill:#fff"/><path d="M1508.948,306.874h-15.507a6.005,6.005,0,0,0,2.218,4.057,7.238,7.238,0,0,0,4.706,1.533,7.091,7.091,0,0,0,5.518-2.309l1.912,2.237a8.375,8.375,0,0,1-3.228,2.307,12.167,12.167,0,0,1-9.683-.45,8.869,8.869,0,0,1-3.624-3.48,9.975,9.975,0,0,1-1.281-5.049,10.14,10.14,0,0,1,1.245-5.013,8.912,8.912,0,0,1,3.425-3.48,9.757,9.757,0,0,1,4.923-1.245,9.561,9.561,0,0,1,4.887,1.245,8.752,8.752,0,0,1,3.354,3.48,10.606,10.606,0,0,1,1.208,5.121A9.983,9.983,0,0,1,1508.948,306.874Zm-13.541-6.455a6.11,6.11,0,0,0-1.966,3.967H1505.7a6.15,6.15,0,0,0-1.966-3.949,6.453,6.453,0,0,0-8.33-.018Z" style="fill:#fff"/><path d="M1517.712,294.505v1.658h5.554v2.849h-5.482v16.264h-3.463V299.012h-3.245v-2.849h3.245v-1.694a6.093,6.093,0,0,1,1.659-4.508,6.287,6.287,0,0,1,4.653-1.659,7.827,7.827,0,0,1,2.164.288,5.269,5.269,0,0,1,1.73.83l-1.046,2.632a4.307,4.307,0,0,0-2.668-.9Q1517.711,291.15,1517.712,294.505Z" style="fill:#fff"/><path d="M1530.441,294.505v1.658H1536v2.849h-5.481v16.264h-3.463V299.012h-3.245v-2.849h3.245v-1.694a6.089,6.089,0,0,1,1.659-4.508,6.283,6.283,0,0,1,4.652-1.659,7.817,7.817,0,0,1,2.164.288,5.284,5.284,0,0,1,1.731.83l-1.046,2.632a4.309,4.309,0,0,0-2.668-.9Q1530.441,291.15,1530.441,294.505Z" style="fill:#fff"/><path d="M1542.108,314.23a9.235,9.235,0,0,1-3.588-3.48,10.4,10.4,0,0,1,0-10.062,9.126,9.126,0,0,1,3.588-3.461,10.734,10.734,0,0,1,5.211-1.245,10,10,0,0,1,4.634,1.046,7.456,7.456,0,0,1,3.155,3.03l-2.631,1.695a5.9,5.9,0,0,0-2.237-2.056,6.385,6.385,0,0,0-2.957-.685,6.839,6.839,0,0,0-3.372.83,5.911,5.911,0,0,0-2.344,2.361,7.8,7.8,0,0,0,0,7.068,5.9,5.9,0,0,0,2.344,2.363,6.828,6.828,0,0,0,3.372.83,6.373,6.373,0,0,0,2.957-.686,5.877,5.877,0,0,0,2.237-2.055l2.631,1.659a7.555,7.555,0,0,1-3.155,3.047,9.853,9.853,0,0,1-4.634,1.064A10.611,10.611,0,0,1,1542.108,314.23Z" style="fill:#fff"/><path d="M1559.635,291.836a2.125,2.125,0,0,1-.667-1.587,2.18,2.18,0,0,1,.667-1.6,2.269,2.269,0,0,1,1.677-.668,2.347,2.347,0,0,1,1.676.631,2.072,2.072,0,0,1,.667,1.569,2.226,2.226,0,0,1-.667,1.64,2.27,2.27,0,0,1-1.676.668A2.306,2.306,0,0,1,1559.635,291.836Zm-.055,4.327h3.463v19.113h-3.463Z" style="fill:#fff"/><path d="M1586.844,306.874h-15.507a6.005,6.005,0,0,0,2.218,4.057,7.237,7.237,0,0,0,4.706,1.533,7.087,7.087,0,0,0,5.517-2.309l1.912,2.237a8.379,8.379,0,0,1-3.227,2.307,12.17,12.17,0,0,1-9.684-.45,8.881,8.881,0,0,1-3.624-3.48,9.985,9.985,0,0,1-1.28-5.049,10.14,10.14,0,0,1,1.244-5.013,8.914,8.914,0,0,1,3.426-3.48,9.755,9.755,0,0,1,4.923-1.245,9.554,9.554,0,0,1,4.886,1.245,8.752,8.752,0,0,1,3.354,3.48,10.6,10.6,0,0,1,1.208,5.121A9.937,9.937,0,0,1,1586.844,306.874Zm-13.541-6.455a6.105,6.105,0,0,0-1.966,3.967H1583.6a6.155,6.155,0,0,0-1.966-3.949,6.453,6.453,0,0,0-8.33-.018Z" style="fill:#fff"/><path d="M1607.706,298.093q2.147,2.109,2.146,6.184v11h-3.462v-10.6a5.879,5.879,0,0,0-1.334-4.184,5.022,5.022,0,0,0-3.823-1.406,5.956,5.956,0,0,0-4.436,1.641,6.416,6.416,0,0,0-1.622,4.707v9.844h-3.463V296.163h3.318v2.885a6.748,6.748,0,0,1,2.831-2.272,9.906,9.906,0,0,1,4.057-.794A7.9,7.9,0,0,1,1607.706,298.093Z" style="fill:#fff"/><path d="M1627.018,314.158a5.158,5.158,0,0,1-1.875.992,7.858,7.858,0,0,1-2.309.343,6.13,6.13,0,0,1-4.472-1.551,5.925,5.925,0,0,1-1.587-4.436V299.012h-3.245v-2.849h3.245V291.98h3.463v4.183h5.482v2.849h-5.482v10.35a3.352,3.352,0,0,0,.776,2.38,2.881,2.881,0,0,0,2.217.829,4.174,4.174,0,0,0,2.7-.9Z" style="fill:#fff"/></g><g style="isolation:isolate"><path d="M536.22,344.91q2.109,1.948,2.11,5.807v11.54h-3.282v-2.525a5.475,5.475,0,0,1-2.47,2.038,9.432,9.432,0,0,1-3.8.7,7.966,7.966,0,0,1-5.139-1.551,5.331,5.331,0,0,1-.09-8.133q1.839-1.531,5.842-1.532h5.482v-.686a4.413,4.413,0,0,0-1.3-3.426,5.482,5.482,0,0,0-3.822-1.19,10.11,10.11,0,0,0-3.318.56,8.551,8.551,0,0,0-2.741,1.5l-1.442-2.6a10.464,10.464,0,0,1,3.534-1.82,14.772,14.772,0,0,1,4.363-.632A8.647,8.647,0,0,1,536.22,344.91Zm-3.444,14.011a5.064,5.064,0,0,0,2.092-2.506v-2.669H529.53q-4.4,0-4.4,2.957a2.678,2.678,0,0,0,1.119,2.273,5.113,5.113,0,0,0,3.1.829A6.424,6.424,0,0,0,532.776,358.921Z" style="fill:#fff"/><path d="M560.742,345.073q2.145,2.109,2.146,6.185v11h-3.462v-10.6a5.872,5.872,0,0,0-1.334-4.183,5.019,5.019,0,0,0-3.823-1.407,5.957,5.957,0,0,0-4.436,1.641,6.414,6.414,0,0,0-1.623,4.707v9.845h-3.461V343.144h3.317v2.884a6.732,6.732,0,0,1,2.831-2.271,9.906,9.906,0,0,1,4.057-.794A7.894,7.894,0,0,1,560.742,345.073Z" style="fill:#fff"/><path d="M587.446,335.5v26.759h-3.317v-3.029a7.507,7.507,0,0,1-2.921,2.416,9.057,9.057,0,0,1-3.895.83,10.049,10.049,0,0,1-4.977-1.227,8.787,8.787,0,0,1-3.444-3.444,11.052,11.052,0,0,1,0-10.188,8.827,8.827,0,0,1,3.444-3.426,10.049,10.049,0,0,1,4.977-1.226,9.177,9.177,0,0,1,3.787.775,7.369,7.369,0,0,1,2.884,2.29V335.5Zm-6.563,23.1a5.945,5.945,0,0,0,2.308-2.381,7.862,7.862,0,0,0,0-7.032,5.822,5.822,0,0,0-2.308-2.362,6.937,6.937,0,0,0-6.581,0,5.969,5.969,0,0,0-2.308,2.362,7.713,7.713,0,0,0,0,7.032A6.1,6.1,0,0,0,574.3,358.6a6.815,6.815,0,0,0,6.581,0Z" style="fill:#fff"/><path d="M604.685,361.842a9.858,9.858,0,0,1-3.391-1.6l1.442-2.741a10.352,10.352,0,0,0,3.066,1.443,12.6,12.6,0,0,0,3.642.541q4.545,0,4.544-2.6a1.682,1.682,0,0,0-.613-1.371,3.913,3.913,0,0,0-1.532-.74q-.921-.233-2.614-.522a25.623,25.623,0,0,1-3.769-.829,5.809,5.809,0,0,1-2.507-1.587,4.417,4.417,0,0,1-1.046-3.138,4.9,4.9,0,0,1,2.164-4.165,9.689,9.689,0,0,1,5.806-1.569,16.032,16.032,0,0,1,3.823.469,10.31,10.31,0,0,1,3.137,1.262l-1.479,2.741a9.937,9.937,0,0,0-5.517-1.515,6.377,6.377,0,0,0-3.354.722,2.177,2.177,0,0,0-1.154,1.911,1.821,1.821,0,0,0,.649,1.478,4.086,4.086,0,0,0,1.605.794q.956.252,2.686.577a29.344,29.344,0,0,1,3.734.847,5.574,5.574,0,0,1,2.433,1.533,4.271,4.271,0,0,1,1.01,3.03,4.774,4.774,0,0,1-2.218,4.128,10.463,10.463,0,0,1-6.04,1.534A16,16,0,0,1,604.685,361.842Z" style="fill:#fff"/><path d="M651.4,345.055q2.11,2.091,2.11,6.2v11h-3.462v-10.6a6.033,6.033,0,0,0-1.28-4.183,4.7,4.7,0,0,0-3.661-1.407,5.481,5.481,0,0,0-4.183,1.641,6.6,6.6,0,0,0-1.55,4.707v9.845h-3.463v-10.6a6.033,6.033,0,0,0-1.28-4.183,4.7,4.7,0,0,0-3.66-1.407,5.48,5.48,0,0,0-4.183,1.641,6.6,6.6,0,0,0-1.551,4.707v9.845h-3.463V343.144H625.1v2.848a6.719,6.719,0,0,1,2.74-2.254,9.2,9.2,0,0,1,3.859-.775,8.463,8.463,0,0,1,3.967.9,6.275,6.275,0,0,1,2.669,2.632,7.336,7.336,0,0,1,3.011-2.6,9.826,9.826,0,0,1,4.346-.937A7.762,7.762,0,0,1,651.4,345.055Z" style="fill:#fff"/><path d="M672.933,344.91q2.109,1.948,2.109,5.807v11.54h-3.281v-2.525a5.478,5.478,0,0,1-2.471,2.038,9.422,9.422,0,0,1-3.8.7,7.965,7.965,0,0,1-5.138-1.551,5.33,5.33,0,0,1-.09-8.133q1.837-1.531,5.842-1.532h5.481v-.686a4.416,4.416,0,0,0-1.3-3.426,5.483,5.483,0,0,0-3.823-1.19,10.108,10.108,0,0,0-3.317.56,8.567,8.567,0,0,0-2.742,1.5l-1.442-2.6a10.483,10.483,0,0,1,3.534-1.82,14.784,14.784,0,0,1,4.364-.632A8.647,8.647,0,0,1,672.933,344.91Zm-3.445,14.011a5.059,5.059,0,0,0,2.092-2.506v-2.669h-5.337q-4.4,0-4.4,2.957a2.678,2.678,0,0,0,1.117,2.273,5.118,5.118,0,0,0,3.1.829A6.42,6.42,0,0,0,669.488,358.921Z" style="fill:#fff"/><path d="M687.448,343.829a9.686,9.686,0,0,1,4.291-.866v3.354a6.766,6.766,0,0,0-.793-.036,5.825,5.825,0,0,0-4.418,1.677,6.638,6.638,0,0,0-1.6,4.778v9.521h-3.463V343.144h3.318v3.21A5.9,5.9,0,0,1,687.448,343.829Z" style="fill:#fff"/><path d="M707.534,361.139a5.188,5.188,0,0,1-1.875.992,7.88,7.88,0,0,1-2.308.343,6.135,6.135,0,0,1-4.472-1.551,5.924,5.924,0,0,1-1.587-4.437V345.992h-3.245v-2.848h3.245v-4.183h3.463v4.183h5.481v2.848h-5.481v10.351a3.356,3.356,0,0,0,.775,2.38,2.887,2.887,0,0,0,2.218.829,4.164,4.164,0,0,0,2.7-.9Z" style="fill:#fff"/><path d="M739.232,343.144v19.113h-3.281v-2.885a6.97,6.97,0,0,1-2.759,2.29,8.606,8.606,0,0,1-3.732.812,8.337,8.337,0,0,1-6.023-2.111q-2.2-2.109-2.2-6.22v-11H724.7v10.6a5.935,5.935,0,0,0,1.334,4.2,4.983,4.983,0,0,0,3.823,1.425,5.707,5.707,0,0,0,4.328-1.659,6.517,6.517,0,0,0,1.587-4.689v-9.88Z" style="fill:#fff"/><path d="M751.818,343.829a9.686,9.686,0,0,1,4.291-.866v3.354a6.766,6.766,0,0,0-.793-.036,5.825,5.825,0,0,0-4.418,1.677,6.638,6.638,0,0,0-1.6,4.778v9.521h-3.463V343.144h3.318v3.21A5.9,5.9,0,0,1,751.818,343.829Z" style="fill:#fff"/><path d="M775.475,344.189a8.827,8.827,0,0,1,3.444,3.426,11.052,11.052,0,0,1,0,10.188,8.787,8.787,0,0,1-3.444,3.444,10.049,10.049,0,0,1-4.977,1.227,9.043,9.043,0,0,1-3.894-.83,7.493,7.493,0,0,1-2.921-2.416v3.029h-3.319V335.5h3.463v10.53a7.365,7.365,0,0,1,2.885-2.29,9.169,9.169,0,0,1,3.786-.775A10.049,10.049,0,0,1,775.475,344.189ZM773.51,358.6a6.1,6.1,0,0,0,2.307-2.381,7.713,7.713,0,0,0,0-7.032,5.974,5.974,0,0,0-2.307-2.362,6.939,6.939,0,0,0-6.582,0,5.822,5.822,0,0,0-2.308,2.362,7.871,7.871,0,0,0,0,7.032,5.945,5.945,0,0,0,2.308,2.381,6.817,6.817,0,0,0,6.582,0Z" style="fill:#fff"/><path d="M797.816,344.91q2.11,1.948,2.11,5.807v11.54h-3.281v-2.525a5.483,5.483,0,0,1-2.471,2.038,9.425,9.425,0,0,1-3.8.7,7.968,7.968,0,0,1-5.139-1.551,5.33,5.33,0,0,1-.089-8.133q1.837-1.531,5.841-1.532h5.482v-.686a4.416,4.416,0,0,0-1.3-3.426,5.484,5.484,0,0,0-3.823-1.19,10.114,10.114,0,0,0-3.318.56,8.551,8.551,0,0,0-2.741,1.5l-1.442-2.6a10.483,10.483,0,0,1,3.534-1.82,14.784,14.784,0,0,1,4.364-.632A8.643,8.643,0,0,1,797.816,344.91Zm-3.444,14.011a5.059,5.059,0,0,0,2.092-2.506v-2.669h-5.337q-4.4,0-4.4,2.957a2.678,2.678,0,0,0,1.117,2.273,5.117,5.117,0,0,0,3.1.829A6.421,6.421,0,0,0,794.372,358.921Z" style="fill:#fff"/><path d="M822.339,345.073q2.146,2.109,2.145,6.185v11h-3.462v-10.6a5.872,5.872,0,0,0-1.334-4.183,5.016,5.016,0,0,0-3.822-1.407,5.956,5.956,0,0,0-4.436,1.641,6.418,6.418,0,0,0-1.622,4.707v9.845h-3.463V343.144h3.318v2.884a6.732,6.732,0,0,1,2.831-2.271,9.906,9.906,0,0,1,4.057-.794A7.9,7.9,0,0,1,822.339,345.073Z" style="fill:#fff"/><path d="M851.352,361.139a5.188,5.188,0,0,1-1.875.992,7.891,7.891,0,0,1-2.309.343,6.135,6.135,0,0,1-4.472-1.551,5.928,5.928,0,0,1-1.587-4.437V345.992h-3.245v-2.848h3.245v-4.183h3.463v4.183h5.482v2.848h-5.482v10.351a3.352,3.352,0,0,0,.776,2.38,2.885,2.885,0,0,0,2.217.829,4.169,4.169,0,0,0,2.7-.9Z" style="fill:#fff"/><path d="M861.521,343.829a9.68,9.68,0,0,1,4.291-.866v3.354a6.79,6.79,0,0,0-.793-.036,5.823,5.823,0,0,0-4.418,1.677A6.634,6.634,0,0,0,859,352.736v9.521h-3.463V343.144h3.319v3.21A5.893,5.893,0,0,1,861.521,343.829Z" style="fill:#fff"/><path d="M883.067,344.91q2.111,1.948,2.11,5.807v11.54H881.9v-2.525a5.483,5.483,0,0,1-2.471,2.038,9.425,9.425,0,0,1-3.8.7,7.968,7.968,0,0,1-5.139-1.551,5.33,5.33,0,0,1-.089-8.133q1.837-1.531,5.841-1.532h5.482v-.686a4.416,4.416,0,0,0-1.3-3.426,5.484,5.484,0,0,0-3.823-1.19,10.114,10.114,0,0,0-3.318.56,8.551,8.551,0,0,0-2.741,1.5l-1.442-2.6a10.483,10.483,0,0,1,3.534-1.82,14.784,14.784,0,0,1,4.364-.632A8.643,8.643,0,0,1,883.067,344.91Zm-3.444,14.011a5.059,5.059,0,0,0,2.092-2.506v-2.669h-5.337q-4.4,0-4.4,2.957a2.678,2.678,0,0,0,1.117,2.273,5.117,5.117,0,0,0,3.1.829A6.421,6.421,0,0,0,879.623,358.921Z" style="fill:#fff"/><path d="M907.59,345.073q2.146,2.109,2.145,6.185v11h-3.462v-10.6a5.872,5.872,0,0,0-1.334-4.183,5.016,5.016,0,0,0-3.822-1.407,5.956,5.956,0,0,0-4.436,1.641,6.418,6.418,0,0,0-1.622,4.707v9.845H891.6V343.144h3.318v2.884a6.732,6.732,0,0,1,2.831-2.271,9.906,9.906,0,0,1,4.057-.794A7.9,7.9,0,0,1,907.59,345.073Z" style="fill:#fff"/><path d="M917.129,361.842a9.876,9.876,0,0,1-3.391-1.6l1.443-2.741a10.334,10.334,0,0,0,3.065,1.443,12.605,12.605,0,0,0,3.643.541q4.543,0,4.544-2.6a1.68,1.68,0,0,0-.614-1.371,3.913,3.913,0,0,0-1.532-.74q-.92-.233-2.614-.522a25.652,25.652,0,0,1-3.769-.829,5.821,5.821,0,0,1-2.507-1.587,4.417,4.417,0,0,1-1.045-3.138,4.9,4.9,0,0,1,2.164-4.165,9.686,9.686,0,0,1,5.805-1.569,16.04,16.04,0,0,1,3.824.469,10.314,10.314,0,0,1,3.136,1.262l-1.478,2.741a9.943,9.943,0,0,0-5.518-1.515,6.371,6.371,0,0,0-3.353.722,2.176,2.176,0,0,0-1.155,1.911,1.819,1.819,0,0,0,.65,1.478,4.082,4.082,0,0,0,1.6.794q.956.252,2.687.577a29.364,29.364,0,0,1,3.733.847,5.583,5.583,0,0,1,2.434,1.533,4.271,4.271,0,0,1,1.01,3.03,4.777,4.777,0,0,1-2.218,4.128,10.465,10.465,0,0,1-6.04,1.534A16,16,0,0,1,917.129,361.842Z" style="fill:#fff"/><path d="M949.332,344.189a8.821,8.821,0,0,1,3.444,3.426,11.044,11.044,0,0,1,0,10.188,8.781,8.781,0,0,1-3.444,3.444,10.049,10.049,0,0,1-4.977,1.227,8.855,8.855,0,0,1-3.768-.794,7.83,7.83,0,0,1-2.9-2.308v9.881h-3.463V343.144h3.318v3.029a7.356,7.356,0,0,1,2.921-2.4,9.219,9.219,0,0,1,3.894-.811A10.049,10.049,0,0,1,949.332,344.189ZM947.367,358.6a6.106,6.106,0,0,0,2.308-2.381,7.721,7.721,0,0,0,0-7.032,5.976,5.976,0,0,0-2.308-2.362,6.573,6.573,0,0,0-3.3-.83,6.38,6.38,0,0,0-3.263.848A6.146,6.146,0,0,0,938.5,349.2a7.055,7.055,0,0,0-.847,3.5,7.26,7.26,0,0,0,.83,3.516,5.943,5.943,0,0,0,2.307,2.381,6.817,6.817,0,0,0,6.582,0Z" style="fill:#fff"/><path d="M961.882,361.211a9.143,9.143,0,0,1-3.552-3.481,10.525,10.525,0,0,1,0-10.061,9.028,9.028,0,0,1,3.552-3.462,11.125,11.125,0,0,1,10.224,0,9.077,9.077,0,0,1,3.535,3.462,10.525,10.525,0,0,1,0,10.061,9.194,9.194,0,0,1-3.535,3.481,10.977,10.977,0,0,1-10.224,0ZM970.3,358.6a5.994,5.994,0,0,0,2.29-2.381,7.871,7.871,0,0,0,0-7.032,5.868,5.868,0,0,0-2.29-2.362,6.975,6.975,0,0,0-6.6,0,5.967,5.967,0,0,0-2.307,2.362,7.713,7.713,0,0,0,0,7.032A6.1,6.1,0,0,0,963.7,358.6a6.852,6.852,0,0,0,6.6,0Z" style="fill:#fff"/><path d="M987.7,343.829a9.686,9.686,0,0,1,4.291-.866v3.354a6.766,6.766,0,0,0-.793-.036,5.825,5.825,0,0,0-4.418,1.677,6.638,6.638,0,0,0-1.6,4.778v9.521h-3.463V343.144h3.318v3.21A5.9,5.9,0,0,1,987.7,343.829Z" style="fill:#fff"/><path d="M1007.789,361.139a5.188,5.188,0,0,1-1.875.992,7.886,7.886,0,0,1-2.309.343,6.132,6.132,0,0,1-4.471-1.551,5.924,5.924,0,0,1-1.587-4.437V345.992H994.3v-2.848h3.245v-4.183h3.463v4.183h5.481v2.848h-5.481v10.351a3.356,3.356,0,0,0,.775,2.38,2.887,2.887,0,0,0,2.218.829,4.164,4.164,0,0,0,2.7-.9Z" style="fill:#fff"/><path d="M1022.647,361.842a9.861,9.861,0,0,1-3.39-1.6l1.442-2.741a10.352,10.352,0,0,0,3.066,1.443,12.6,12.6,0,0,0,3.642.541q4.545,0,4.544-2.6a1.682,1.682,0,0,0-.613-1.371,3.913,3.913,0,0,0-1.532-.74q-.921-.233-2.615-.522a25.606,25.606,0,0,1-3.768-.829,5.809,5.809,0,0,1-2.507-1.587,4.417,4.417,0,0,1-1.046-3.138,4.9,4.9,0,0,1,2.164-4.165,9.689,9.689,0,0,1,5.806-1.569,16.032,16.032,0,0,1,3.823.469,10.32,10.32,0,0,1,3.137,1.262l-1.479,2.741a9.937,9.937,0,0,0-5.517-1.515,6.377,6.377,0,0,0-3.354.722,2.177,2.177,0,0,0-1.154,1.911,1.821,1.821,0,0,0,.649,1.478,4.086,4.086,0,0,0,1.6.794q.955.252,2.686.577a29.385,29.385,0,0,1,3.734.847,5.58,5.58,0,0,1,2.433,1.533,4.271,4.271,0,0,1,1.01,3.03,4.774,4.774,0,0,1-2.218,4.128,10.463,10.463,0,0,1-6.04,1.534A16.01,16.01,0,0,1,1022.647,361.842Z" style="fill:#fff"/><path d="M1056.294,343.144l-9.269,21.024a9.476,9.476,0,0,1-2.867,4.111,6.546,6.546,0,0,1-3.948,1.191,8.358,8.358,0,0,1-2.723-.451,5.582,5.582,0,0,1-2.181-1.317l1.478-2.6a4.82,4.82,0,0,0,3.426,1.408,3.3,3.3,0,0,0,2.109-.668,5.694,5.694,0,0,0,1.534-2.29l.612-1.334-8.439-19.077h3.607l6.672,15.291,6.6-15.291Z" style="fill:#fff"/><path d="M1060.261,361.842a9.867,9.867,0,0,1-3.391-1.6l1.443-2.741a10.334,10.334,0,0,0,3.065,1.443,12.605,12.605,0,0,0,3.643.541q4.543,0,4.543-2.6a1.682,1.682,0,0,0-.613-1.371,3.913,3.913,0,0,0-1.532-.74q-.92-.233-2.614-.522a25.652,25.652,0,0,1-3.769-.829,5.821,5.821,0,0,1-2.507-1.587,4.417,4.417,0,0,1-1.046-3.138,4.9,4.9,0,0,1,2.164-4.165,9.689,9.689,0,0,1,5.806-1.569,16.026,16.026,0,0,1,3.823.469,10.31,10.31,0,0,1,3.137,1.262l-1.478,2.741a9.943,9.943,0,0,0-5.518-1.515,6.377,6.377,0,0,0-3.354.722,2.177,2.177,0,0,0-1.154,1.911,1.819,1.819,0,0,0,.65,1.478,4.075,4.075,0,0,0,1.6.794q.956.252,2.687.577a29.364,29.364,0,0,1,3.733.847,5.583,5.583,0,0,1,2.434,1.533,4.275,4.275,0,0,1,1.009,3.03,4.776,4.776,0,0,1-2.217,4.128,10.467,10.467,0,0,1-6.04,1.534A16,16,0,0,1,1060.261,361.842Z" style="fill:#fff"/><path d="M1088.1,361.139a5.188,5.188,0,0,1-1.875.992,7.891,7.891,0,0,1-2.309.343,6.135,6.135,0,0,1-4.472-1.551,5.928,5.928,0,0,1-1.587-4.437V345.992h-3.245v-2.848h3.245v-4.183h3.463v4.183h5.482v2.848h-5.482v10.351a3.352,3.352,0,0,0,.776,2.38,2.885,2.885,0,0,0,2.217.829,4.169,4.169,0,0,0,2.7-.9Z" style="fill:#fff"/><path d="M1108.836,353.854h-15.507a6,6,0,0,0,2.218,4.057,7.233,7.233,0,0,0,4.706,1.533,7.09,7.09,0,0,0,5.518-2.308l1.912,2.236a8.392,8.392,0,0,1-3.228,2.308,12.165,12.165,0,0,1-9.684-.451,8.881,8.881,0,0,1-3.624-3.48,9.982,9.982,0,0,1-1.28-5.049,10.138,10.138,0,0,1,1.244-5.012,8.91,8.91,0,0,1,3.426-3.481,9.764,9.764,0,0,1,4.923-1.244,9.57,9.57,0,0,1,4.887,1.244,8.746,8.746,0,0,1,3.353,3.481,10.6,10.6,0,0,1,1.208,5.121A9.921,9.921,0,0,1,1108.836,353.854ZM1095.3,347.4a6.105,6.105,0,0,0-1.966,3.967h12.262a6.157,6.157,0,0,0-1.966-3.949,6.457,6.457,0,0,0-8.33-.018Z" style="fill:#fff"/><path d="M1143.331,345.055q2.109,2.091,2.109,6.2v11h-3.461v-10.6a6.028,6.028,0,0,0-1.281-4.183,4.7,4.7,0,0,0-3.66-1.407,5.485,5.485,0,0,0-4.184,1.641,6.6,6.6,0,0,0-1.549,4.707v9.845h-3.463v-10.6a6.033,6.033,0,0,0-1.28-4.183,4.7,4.7,0,0,0-3.661-1.407,5.477,5.477,0,0,0-4.182,1.641,6.6,6.6,0,0,0-1.551,4.707v9.845h-3.463V343.144h3.318v2.848a6.729,6.729,0,0,1,2.741-2.254,9.2,9.2,0,0,1,3.859-.775,8.466,8.466,0,0,1,3.967.9,6.275,6.275,0,0,1,2.669,2.632,7.324,7.324,0,0,1,3.011-2.6,9.824,9.824,0,0,1,4.345-.937A7.763,7.763,0,0,1,1143.331,345.055Z" style="fill:#fff"/><path d="M1152.8,361.842a9.867,9.867,0,0,1-3.391-1.6l1.443-2.741a10.334,10.334,0,0,0,3.065,1.443,12.605,12.605,0,0,0,3.643.541q4.543,0,4.544-2.6a1.683,1.683,0,0,0-.614-1.371,3.913,3.913,0,0,0-1.532-.74q-.919-.233-2.614-.522a25.652,25.652,0,0,1-3.769-.829,5.821,5.821,0,0,1-2.507-1.587,4.417,4.417,0,0,1-1.045-3.138,4.9,4.9,0,0,1,2.164-4.165,9.686,9.686,0,0,1,5.805-1.569,16.026,16.026,0,0,1,3.823.469,10.31,10.31,0,0,1,3.137,1.262l-1.478,2.741a9.943,9.943,0,0,0-5.518-1.515,6.371,6.371,0,0,0-3.353.722,2.176,2.176,0,0,0-1.155,1.911,1.819,1.819,0,0,0,.65,1.478,4.075,4.075,0,0,0,1.6.794q.955.252,2.687.577a29.364,29.364,0,0,1,3.733.847,5.583,5.583,0,0,1,2.434,1.533,4.27,4.27,0,0,1,1.009,3.03,4.776,4.776,0,0,1-2.217,4.128,10.465,10.465,0,0,1-6.04,1.534A16,16,0,0,1,1152.8,361.842Z" style="fill:#fff"/><path d="M1168.988,361.77a2.389,2.389,0,0,1-.72-1.785,2.35,2.35,0,0,1,.72-1.75,2.4,2.4,0,0,1,1.732-.7,2.3,2.3,0,0,1,1.694.686,2.392,2.392,0,0,1,.686,1.767,2.419,2.419,0,0,1-.7,1.785,2.286,2.286,0,0,1-1.676.7A2.393,2.393,0,0,1,1168.988,361.77Z" style="fill:#fff"/></g></g></g></g></g></svg>