<svg xmlns="http://www.w3.org/2000/svg" xmlns:xlink="http://www.w3.org/1999/xlink" viewBox="0 0 1624.4 582.4"><defs><radialGradient id="radial-gradient" cx="9660.843" cy="-8544.341" r="501.559" gradientTransform="matrix(0, -1, -1, 0, -7304.822, 9713.376)" gradientUnits="userSpaceOnUse"><stop offset="0" stop-color="#fff"/><stop offset="0.231" stop-color="#fcfcfc"/><stop offset="0.42" stop-color="#f2f2f2"/><stop offset="0.594" stop-color="#e0e0e1"/><stop offset="0.759" stop-color="#c8c8c9"/><stop offset="0.917" stop-color="#aaa"/><stop offset="1" stop-color="#969697"/></radialGradient><radialGradient id="radial-gradient-2" cx="9576.387" cy="-8599.795" r="478.154" gradientTransform="matrix(0, -1, -1, 0, -7304.822, 9713.376)" gradientUnits="userSpaceOnUse"><stop offset="0" stop-color="#fff"/><stop offset="0.258" stop-color="#fcfcfc"/><stop offset="0.468" stop-color="#f2f2f2"/><stop offset="0.662" stop-color="#e0e0e1"/><stop offset="0.846" stop-color="#c9c9c9"/><stop offset="1" stop-color="#aeaeaf"/></radialGradient><radialGradient id="radial-gradient-3" cx="9285.534" cy="-8858.273" r="528.506" gradientTransform="matrix(0, -1, -1, 0, -7304.822, 9713.376)" gradientUnits="userSpaceOnUse"><stop offset="0" stop-color="#fff"/><stop offset="0.165" stop-color="#f8f8f8"/><stop offset="0.411" stop-color="#e3e3e3"/><stop offset="0.709" stop-color="#c2c2c2"/><stop offset="1" stop-color="#9a9a9a"/></radialGradient></defs><g id="Layer_2" data-name="Layer 2"><g id="Layer_1-2" data-name="Layer 1"><path d="M1322.8,582.4H93.7C42,582.4,0,452,0,291.2H0C0,130.4,42,0,93.7,0H1322.8c51.8,0,93.7,130.4,93.7,291.2h0C1416.5,452,1374.5,582.4,1322.8,582.4Z" style="fill:#f2b05a"/><path d="M1398.7,123.7c97.9,0,191.4,70.2,191.4,168.1s-62.1,174.5-160,174.5S1249.2,384.9,1249.2,287C1249.1,189,1300.8,123.7,1398.7,123.7Z" style="fill:#434343;opacity:0.5;isolation:isolate"/><path d="M1417.6,78.5c114.2,0,206.8,92.6,206.8,206.8s-92.6,206.8-206.8,206.8-206.8-92.6-206.8-206.8S1303.4,78.5,1417.6,78.5Z" style="fill:url(#radial-gradient)"/><path d="M1417.6,88.2c108.9,0,197.2,88.3,197.2,197.2s-88.3,197.2-197.2,197.2-197.2-88.3-197.2-197.2,88.3-197.2,197.2-197.2Z" style="fill:url(#radial-gradient-2)"/><path d="M1417.6,126.8a158.5,158.5,0,1,1-158.5,158.5c0-87.5,70.9-158.4,158.5-158.5Z" style="fill:url(#radial-gradient-3)"/><path d="M1417.6,141.2a144.2,144.2,0,1,1-144.2,144.2,144.251,144.251,0,0,1,144.2-144.2Z" style="opacity:0.10000000149011612;isolation:isolate"/><path d="M147.8,138v-7.1h6.9V138Z" style="fill:#606161"/><line x1="48.6" y1="265.7" x2="1181.5" y2="265.7" style="fill:none;stroke:#fff;stroke-miterlimit:10;stroke-width:3px"/><path d="M1450.8,205.4a30.083,30.083,0,0,1,4.9,2.9,8.655,8.655,0,0,1,2.5,6.8v32a2.788,2.788,0,0,0,1.2,2.5,16.031,16.031,0,0,1,4.9,18c-.6,1.6-1.7,2.3-3,1.8-1.2-.4-1.7-1.6-1.1-3.2a11.627,11.627,0,0,0-2.3-12.1,11.648,11.648,0,0,0-20.1,6,21.16,21.16,0,0,0,.4,5.6c.1.3.2.6.3,1a2.154,2.154,0,0,1-4,1.6c0-.1,0-.1-.1-.2a15.9,15.9,0,0,1,.1-12.3,14.472,14.472,0,0,1,4.7-6.2,2.04,2.04,0,0,0,.9-2c0-10.5.1-21.1-.1-31.6-.1-5.2,2.6-9.2,7.2-10.3.1,0,.1-.1.2-.2Zm3.1,40.8V215a4.794,4.794,0,0,0-3.6-5.1,4.627,4.627,0,0,0-5.7,3.3,4.329,4.329,0,0,0-.1,1.6v30.9a1.268,1.268,0,0,0,.1.6h9.3Z" style="fill:#606161"/><path d="M1374.5,205.4c.6.3,1.3.5,1.9.8a9.129,9.129,0,0,1,5.3,8.8v72.5a10.869,10.869,0,0,1-.1,1.8,1.894,1.894,0,0,1-2,1.8h-.1a2.077,2.077,0,0,1-2.1-1.9,8.533,8.533,0,0,1,0-1.6V215.2a4.72,4.72,0,0,0-4-5.3,4.49,4.49,0,0,0-5.3,3.7c0,.2-.1.5-.1.7-.1,2.5,0,5.1-.1,7.7a4.006,4.006,0,0,1-.8,2.3,1.933,1.933,0,0,1-2.8,0,1.984,1.984,0,0,1-.6-1.3,64.987,64.987,0,0,1,.3-10.8,7.99,7.99,0,0,1,5.8-6.2,4.671,4.671,0,0,0,1-.5Z" style="fill:#606161"/><path d="M1412.5,205.4a37.785,37.785,0,0,1,3.5,1.7,8.542,8.542,0,0,1,3.8,6.8,28.054,28.054,0,0,1,0,4.1,2.291,2.291,0,0,1-2.1,2.3,2.135,2.135,0,0,1-2.2-2.1h0c-.1-1.2,0-2.5-.1-3.7a4.61,4.61,0,0,0-4.6-4.7,4.693,4.693,0,0,0-4.7,4.3c-.1,1.2,0,2.5-.1,3.7a2.23,2.23,0,0,1-2,2.4h-.1a2.2,2.2,0,0,1-2.2-2.1v-.2a15.617,15.617,0,0,1,.8-7.1,9.805,9.805,0,0,1,6.6-5.3Z" style="fill:#606161"/><path d="M1471.4,284.8a49.783,49.783,0,0,0,26.6,7,8.052,8.052,0,0,1,3.2,6.4c0,6.8.1,13.6-.1,20.4a36.536,36.536,0,0,1-3.2,13,2.174,2.174,0,0,1-2.7,1.4h0a.1.1,0,0,1-.1-.1,2.321,2.321,0,0,1-1.2-3c.9-3.3,1.9-6.5,2.7-9.8a21.95,21.95,0,0,0,.4-5.1q.15-7.95,0-15.9a4.962,4.962,0,1,0-9.9-.7h0v3.8a2.212,2.212,0,0,1-1.9,2.4h-.2a2.026,2.026,0,0,1-2.2-1.9v-.4c-.1-3.2,0-6.4-.1-9.6a10.554,10.554,0,0,0-.2-2.5,4.911,4.911,0,0,0-5.3-3.5,4.654,4.654,0,0,0-4.2,4.6c-.1,2.5,0,4.9-.1,7.4a2.877,2.877,0,0,1-.5,2,3.244,3.244,0,0,1-2.3.8c-1.2-.1-1.6-1.2-1.6-2.3v-9.4a4.989,4.989,0,0,0-6-4.8,4.567,4.567,0,0,0-3.8,4.2c-.2,3.7-.1,7.4-.1,11.1a10.869,10.869,0,0,1-.1,1.8,2.077,2.077,0,0,1-2.1,1.9h-.1a2.077,2.077,0,0,1-2.1-1.9,6.552,6.552,0,0,1,0-1.4V265.3a5.327,5.327,0,0,0-3.5-5.4,5,5,0,0,0-6.2,3.3,4.253,4.253,0,0,0-.2,1.1v51.3a2.31,2.31,0,0,1-2.1,2.4,2.2,2.2,0,0,1-2.2-2.1h0v-.2c-.1-3.7.1-7.5-.1-11.2a14.992,14.992,0,0,0-3.9-9.2,5.751,5.751,0,0,0-7.2-.8,5.4,5.4,0,0,0-2.5,6.7c2.6,5.5,2.5,11.3,3,17.2a43.711,43.711,0,0,0,5,18,18.179,18.179,0,0,0,17,10h20a22.563,22.563,0,0,0,18.5-9.3,10.627,10.627,0,0,1,.9-1.1,2.131,2.131,0,0,1,3-.6h0a.1.1,0,0,1,.1.1,2.1,2.1,0,0,1,.5,2.9c-.1.1-.1.2-.2.2a46.9,46.9,0,0,1-4.7,5.3,26.071,26.071,0,0,1-18.4,6.9c-6.8-.1-13.6,0-20.4,0a21.648,21.648,0,0,1-19.6-11.3,45.721,45.721,0,0,1-6-19.7c-.4-4-.7-8-1.2-12a10.923,10.923,0,0,0-1.2-3.6,10.327,10.327,0,0,1,16.6-11.8c.1.1.3.2.7.5V265.5a9.306,9.306,0,0,1,17.6-4.9,9.014,9.014,0,0,1,.9,3.2c.2,5.4.1,10.8.1,16.2v1.9C1463.6,279.4,1467.9,280.4,1471.4,284.8Z" style="fill:#606161"/><path d="M1401.7,299.6V257.8c0-2.3.7-3.3,2.2-3.3s2.1,1.1,2.1,3.3v82.4a9.737,9.737,0,0,0,.2,2.4,4.751,4.751,0,0,0,4.9,3.7,4.419,4.419,0,0,0,4.3-4.4c.1-6.3,0-12.7.1-19a5.537,5.537,0,0,1,.2-1.8,1.864,1.864,0,0,1,2-1.6,1.963,1.963,0,0,1,2.1,1.6,4.1,4.1,0,0,1,.1,1.1c0,6.4.1,12.9,0,19.3a8.965,8.965,0,0,1-8.8,9.2,9.191,9.191,0,0,1-3.3-.6,8.708,8.708,0,0,1-5.9-7.9c-.1-10.1-.1-20.2-.1-30.3C1401.7,307.7,1401.7,303.7,1401.7,299.6Z" style="fill:#606161"/><path d="M1356.6,308.3a16.05,16.05,0,1,1,16,16.1h0A16.067,16.067,0,0,1,1356.6,308.3Zm15.9,11.7a8.721,8.721,0,1,0-11.7-3.9,8.79,8.79,0,0,0,11.7,3.9Z" style="fill:#606161"/><path d="M1410.5,253.3a16.05,16.05,0,1,1,16.1-16h0A16,16,0,0,1,1410.5,253.3Zm11.7-16a11.7,11.7,0,1,0-23.4,0h0a11.7,11.7,0,1,0,23.4,0Z" style="fill:#606161"/><path d="M1367.9,259.6v29.5a2.135,2.135,0,0,1-2.2,2.1,2.112,2.112,0,0,1-2.1-2.1,5.633,5.633,0,0,1,0-1.3V231c0-2.3.8-3.5,2.3-3.4,1.4,0,2.2,1.2,2.2,3.4C1367.9,240.5,1367.9,250,1367.9,259.6Z" style="fill:#606161"/><path d="M1419.8,285.3v27.8a7.569,7.569,0,0,1-.1,1.5,2.046,2.046,0,0,1-2.1,1.7,1.983,1.983,0,0,1-2.1-1.8,7.569,7.569,0,0,1-.1-1.5V257.6c0-2.3.8-3.4,2.3-3.4,1.5.1,2.1,1.1,2.1,3.4Z" style="fill:#606161"/><path d="M1381.6,335.2c0,2.4.1,4.7,0,7.1a8.96,8.96,0,0,1-17.8.5c-.3-5-.2-10.1-.2-15.1a2.138,2.138,0,0,1,2-2.3h.3a2.239,2.239,0,0,1,2.1,2.4v13.8a4.669,4.669,0,0,0,8.9,1.8,5.278,5.278,0,0,0,.4-2.5V327.7c0-1.2.6-2.3,1.8-2.3a3.858,3.858,0,0,1,2.2,1.1c.4.3.3,1.1.3,1.7.1,2.4.1,4.7,0,7Z" style="fill:#606161"/><g style="isolation:isolate"><path d="M53.6,130.539h8.746v37.793H53.6Z" style="fill:#fff"/><path d="M97.087,142.092q3.321,3.24,3.32,9.611v16.629H91.985V153a7.58,7.58,0,0,0-1.512-5.157,5.544,5.544,0,0,0-4.373-1.7,6.7,6.7,0,0,0-5.075,1.97q-1.89,1.971-1.89,5.858v14.362H70.713V139.285h8.044v3.4a11.171,11.171,0,0,1,4.158-2.835,14.478,14.478,0,0,1,5.453-1A11.956,11.956,0,0,1,97.087,142.092Z" style="fill:#fff"/><path d="M114.039,166.847a14.343,14.343,0,0,1-5.777-5.318,15.381,15.381,0,0,1,0-15.441,14.343,14.343,0,0,1,5.777-5.318,17.867,17.867,0,0,1,8.342-1.917,16.177,16.177,0,0,1,8.018,1.917,11.375,11.375,0,0,1,4.994,5.48l-6.533,3.509a7.142,7.142,0,0,0-6.533-3.995,7.392,7.392,0,0,0-5.453,2.159,9.1,9.1,0,0,0,0,11.77,7.389,7.389,0,0,0,5.453,2.16,7.068,7.068,0,0,0,6.533-4l6.533,3.562a11.6,11.6,0,0,1-4.994,5.4,15.986,15.986,0,0,1-8.018,1.943A17.854,17.854,0,0,1,114.039,166.847Z" style="fill:#fff"/><path d="M169.513,139.285v29.047h-7.99v-3.456a11.178,11.178,0,0,1-4,2.889,12.588,12.588,0,0,1-5.022,1q-5.722,0-9.07-3.293t-3.347-9.772V139.285h8.422v15.172q0,7.017,5.885,7.018a6.321,6.321,0,0,0,4.859-1.971q1.836-1.969,1.836-5.858V139.285Z" style="fill:#fff"/><path d="M177.342,128.271h8.422v40.061h-8.422Z" style="fill:#fff"/><path d="M199.288,166.847a14.343,14.343,0,0,1-5.777-5.318,15.375,15.375,0,0,1,0-15.441,14.343,14.343,0,0,1,5.777-5.318,17.863,17.863,0,0,1,8.341-1.917,16.174,16.174,0,0,1,8.018,1.917,11.375,11.375,0,0,1,4.994,5.48l-6.533,3.509a7.142,7.142,0,0,0-6.532-3.995,7.389,7.389,0,0,0-5.453,2.159,9.094,9.094,0,0,0,0,11.77,7.386,7.386,0,0,0,5.453,2.16,7.066,7.066,0,0,0,6.532-4l6.533,3.562a11.6,11.6,0,0,1-4.994,5.4,15.983,15.983,0,0,1-8.018,1.943A17.85,17.85,0,0,1,199.288,166.847Z" style="fill:#fff"/><path d="M247.582,142.065q3.617,3.214,3.618,9.691v16.576h-7.883v-3.618q-2.376,4.05-8.855,4.049a13.729,13.729,0,0,1-5.8-1.134,8.64,8.64,0,0,1-3.753-3.13,8.149,8.149,0,0,1-1.3-4.536,7.564,7.564,0,0,1,3.05-6.371q3.049-2.321,9.422-2.321h6.694a5.37,5.37,0,0,0-1.674-4.238,7.371,7.371,0,0,0-5.02-1.485,14.654,14.654,0,0,0-4.563.729,12.091,12.091,0,0,0-3.807,1.97l-3.023-5.885a18.262,18.262,0,0,1,5.7-2.591,25.508,25.508,0,0,1,6.83-.918Q243.963,138.853,247.582,142.065ZM240.4,162.1a5.471,5.471,0,0,0,2.376-2.943v-2.969H237q-5.184,0-5.183,3.4a3.031,3.031,0,0,0,1.268,2.565,5.714,5.714,0,0,0,3.483.944A7.332,7.332,0,0,0,240.4,162.1Z" style="fill:#fff"/><path d="M277.545,166.928a8.616,8.616,0,0,1-3.05,1.376,15.426,15.426,0,0,1-3.807.459q-5.183,0-8.018-2.645t-2.834-7.775V146.412h-4.481v-6.479h4.481V132.86h8.423v7.073h7.235v6.479h-7.235v11.824a3.963,3.963,0,0,0,.945,2.834,3.5,3.5,0,0,0,2.672,1,5.416,5.416,0,0,0,3.4-1.08Z" style="fill:#fff"/><path d="M309.669,156.184H287.7a6.835,6.835,0,0,0,2.807,4.265,9.29,9.29,0,0,0,5.507,1.566,11.132,11.132,0,0,0,4.023-.675,9.762,9.762,0,0,0,3.266-2.132l4.481,4.858q-4.1,4.7-11.986,4.7a18.955,18.955,0,0,1-8.692-1.916,14.048,14.048,0,0,1-5.831-5.318,14.652,14.652,0,0,1-2.052-7.721,14.841,14.841,0,0,1,2.025-7.693,14.182,14.182,0,0,1,5.561-5.345,17.218,17.218,0,0,1,15.63-.082,13.417,13.417,0,0,1,5.426,5.265,15.706,15.706,0,0,1,1.971,7.964Q309.832,154.078,309.669,156.184Zm-19.706-9.34a6.894,6.894,0,0,0-2.376,4.427H301.9a6.966,6.966,0,0,0-2.375-4.4,7.1,7.1,0,0,0-4.752-1.647A7.252,7.252,0,0,0,289.963,146.844Z" style="fill:#fff"/><path d="M352.806,142.065q3.617,3.214,3.618,9.691v16.576h-7.882v-3.618q-2.376,4.05-8.855,4.049a13.737,13.737,0,0,1-5.8-1.134,8.651,8.651,0,0,1-3.753-3.13,8.157,8.157,0,0,1-1.3-4.536,7.567,7.567,0,0,1,3.05-6.371q3.05-2.321,9.422-2.321H348a5.369,5.369,0,0,0-1.673-4.238,7.374,7.374,0,0,0-5.021-1.485,14.648,14.648,0,0,0-4.562.729,12.08,12.08,0,0,0-3.807,1.97l-3.023-5.885a18.262,18.262,0,0,1,5.7-2.591,25.508,25.508,0,0,1,6.83-.918Q349.188,138.853,352.806,142.065ZM345.625,162.1A5.462,5.462,0,0,0,348,159.153v-2.969h-5.777q-5.182,0-5.182,3.4a3.029,3.029,0,0,0,1.268,2.565,5.713,5.713,0,0,0,3.482.944A7.33,7.33,0,0,0,345.625,162.1Z" style="fill:#fff"/><path d="M385.01,166.847a14.341,14.341,0,0,1-5.776-5.318,15.375,15.375,0,0,1,0-15.441,14.341,14.341,0,0,1,5.776-5.318,17.867,17.867,0,0,1,8.342-1.917,16.177,16.177,0,0,1,8.018,1.917,11.375,11.375,0,0,1,4.994,5.48l-6.533,3.509a7.142,7.142,0,0,0-6.533-3.995,7.392,7.392,0,0,0-5.453,2.159,9.1,9.1,0,0,0,0,11.77,7.389,7.389,0,0,0,5.453,2.16,7.068,7.068,0,0,0,6.533-4l6.533,3.562a11.6,11.6,0,0,1-4.994,5.4,15.986,15.986,0,0,1-8.018,1.943A17.854,17.854,0,0,1,385.01,166.847Z" style="fill:#fff"/><path d="M440.484,139.285v29.047h-7.99v-3.456a11.2,11.2,0,0,1-4,2.889,12.588,12.588,0,0,1-5.022,1q-5.722,0-9.07-3.293T411.06,155.7V139.285h8.422v15.172q0,7.017,5.885,7.018a6.324,6.324,0,0,0,4.859-1.971q1.836-1.969,1.836-5.858V139.285Z" style="fill:#fff"/><path d="M448.313,128.271h8.422v40.061h-8.422Z" style="fill:#fff"/><path d="M485.4,166.928a8.621,8.621,0,0,1-3.051,1.376,15.426,15.426,0,0,1-3.807.459q-5.183,0-8.017-2.645t-2.834-7.775V146.412h-4.482v-6.479h4.482V132.86h8.423v7.073h7.234v6.479h-7.234v11.824a3.963,3.963,0,0,0,.944,2.834,3.5,3.5,0,0,0,2.673,1,5.413,5.413,0,0,0,3.4-1.08Z" style="fill:#fff"/><path d="M519.416,139.285v29.047h-7.991v-3.456a11.178,11.178,0,0,1-4,2.889,12.586,12.586,0,0,1-5.021,1q-5.724,0-9.071-3.293t-3.346-9.772V139.285h8.422v15.172q0,7.017,5.884,7.018a6.324,6.324,0,0,0,4.86-1.971q1.834-1.969,1.836-5.858V139.285Z" style="fill:#fff"/><path d="M539.365,139.933a15.12,15.12,0,0,1,5.912-1.08v7.774q-1.406-.106-1.89-.107a7.717,7.717,0,0,0-5.669,2.024q-2.052,2.025-2.051,6.074v13.714h-8.422V139.285h8.044v3.833A9.357,9.357,0,0,1,539.365,139.933Z" style="fill:#fff"/><path d="M578.319,156.184H556.345a6.836,6.836,0,0,0,2.808,4.265,9.286,9.286,0,0,0,5.507,1.566,11.13,11.13,0,0,0,4.022-.675,9.776,9.776,0,0,0,3.267-2.132l4.48,4.858q-4.1,4.7-11.985,4.7a18.956,18.956,0,0,1-8.693-1.916,14.054,14.054,0,0,1-5.831-5.318,14.651,14.651,0,0,1-2.051-7.721,14.841,14.841,0,0,1,2.024-7.693,14.184,14.184,0,0,1,5.562-5.345,17.216,17.216,0,0,1,15.629-.082,13.411,13.411,0,0,1,5.426,5.265,15.7,15.7,0,0,1,1.971,7.964Q578.481,154.078,578.319,156.184Zm-19.706-9.34a6.894,6.894,0,0,0-2.376,4.427h14.307a6.966,6.966,0,0,0-2.375-4.4,7.1,7.1,0,0,0-4.752-1.647A7.249,7.249,0,0,0,558.613,146.844Z" style="fill:#fff"/><path d="M604.963,166.847a14.246,14.246,0,0,1-5.7-5.318,15.55,15.55,0,0,1,0-15.441,14.246,14.246,0,0,1,5.7-5.318,18.582,18.582,0,0,1,16.44,0,14.3,14.3,0,0,1,5.669,5.318,15.55,15.55,0,0,1,0,15.441,14.3,14.3,0,0,1-5.669,5.318,18.591,18.591,0,0,1-16.44,0Zm13.551-7.18a9.294,9.294,0,0,0,0-11.717,7.016,7.016,0,0,0-5.317-2.186,7.106,7.106,0,0,0-5.346,2.186,9.2,9.2,0,0,0,0,11.717,7.106,7.106,0,0,0,5.346,2.186A7.016,7.016,0,0,0,618.514,159.667Z" style="fill:#fff"/><path d="M643.97,139.933h7.451v6.479h-7.234v21.92h-8.423v-21.92h-4.481v-6.479h4.481v-1.3a10.6,10.6,0,0,1,2.943-7.883q2.94-2.914,8.287-2.915a15.452,15.452,0,0,1,3.59.405,8.712,8.712,0,0,1,2.834,1.161l-2.212,6.1a5.761,5.761,0,0,0-3.4-1.026q-3.834,0-3.834,4.211Z" style="fill:#fff"/><path d="M676.5,166.847a14.242,14.242,0,0,1-5.7-5.318,15.55,15.55,0,0,1,0-15.441,14.242,14.242,0,0,1,5.7-5.318,18.58,18.58,0,0,1,16.439,0,14.3,14.3,0,0,1,5.669,5.318,15.55,15.55,0,0,1,0,15.441,14.3,14.3,0,0,1-5.669,5.318,18.588,18.588,0,0,1-16.439,0Zm13.55-7.18a9.294,9.294,0,0,0,0-11.717,7.015,7.015,0,0,0-5.317-2.186,7.108,7.108,0,0,0-5.346,2.186,9.2,9.2,0,0,0,0,11.717,7.108,7.108,0,0,0,5.346,2.186A7.015,7.015,0,0,0,690.049,159.667Z" style="fill:#fff"/><path d="M730.812,140.716a13.385,13.385,0,0,1,5.21,5.237,17.27,17.27,0,0,1,0,15.711,13.379,13.379,0,0,1-5.21,5.237,14.8,14.8,0,0,1-7.37,1.862,11.215,11.215,0,0,1-8.746-3.509v13.551h-8.422v-39.52h8.044v3.347q3.13-3.779,9.124-3.779A14.8,14.8,0,0,1,730.812,140.716Zm-3.51,18.951a9.294,9.294,0,0,0,0-11.717,7.56,7.56,0,0,0-10.635,0,9.294,9.294,0,0,0,0,11.717,7.56,7.56,0,0,0,10.635,0Z" style="fill:#fff"/><path d="M771.817,156.184H749.843a6.836,6.836,0,0,0,2.808,4.265,9.286,9.286,0,0,0,5.507,1.566,11.13,11.13,0,0,0,4.022-.675,9.776,9.776,0,0,0,3.267-2.132l4.48,4.858q-4.1,4.7-11.985,4.7a18.952,18.952,0,0,1-8.692-1.916,14.051,14.051,0,0,1-5.832-5.318,14.651,14.651,0,0,1-2.051-7.721,14.85,14.85,0,0,1,2.024-7.693,14.184,14.184,0,0,1,5.562-5.345,17.218,17.218,0,0,1,15.63-.082,13.415,13.415,0,0,1,5.425,5.265,15.7,15.7,0,0,1,1.971,7.964Q771.979,154.078,771.817,156.184Zm-19.706-9.34a6.894,6.894,0,0,0-2.376,4.427h14.307a6.966,6.966,0,0,0-2.375-4.4,7.1,7.1,0,0,0-4.751-1.647A7.25,7.25,0,0,0,752.111,146.844Z" style="fill:#fff"/><path d="M803.968,142.092q3.32,3.24,3.321,9.611v16.629h-8.423V153a7.575,7.575,0,0,0-1.512-5.157,5.544,5.544,0,0,0-4.373-1.7,6.7,6.7,0,0,0-5.075,1.97q-1.89,1.971-1.89,5.858v14.362h-8.422V139.285h8.044v3.4a11.159,11.159,0,0,1,4.157-2.835,14.487,14.487,0,0,1,5.454-1A11.957,11.957,0,0,1,803.968,142.092Z" style="fill:#fff"/><path d="M859.765,128.271v40.061h-8.044v-3.348q-3.132,3.78-9.071,3.779a15.072,15.072,0,0,1-7.423-1.835,13.128,13.128,0,0,1-5.21-5.237,17.383,17.383,0,0,1,0-15.765,13.137,13.137,0,0,1,5.21-5.238,15.083,15.083,0,0,1,7.423-1.835q5.559,0,8.693,3.509V128.271Zm-10.367,31.4a9.2,9.2,0,0,0,0-11.717,7.56,7.56,0,0,0-10.635,0,9.2,9.2,0,0,0,0,11.717,7.56,7.56,0,0,0,10.635,0Z" style="fill:#fff"/><path d="M889.62,142.065q3.616,3.214,3.618,9.691v16.576h-7.883v-3.618q-2.376,4.05-8.854,4.049a13.737,13.737,0,0,1-5.8-1.134,8.651,8.651,0,0,1-3.753-3.13,8.157,8.157,0,0,1-1.295-4.536,7.567,7.567,0,0,1,3.05-6.371q3.049-2.321,9.422-2.321h6.694a5.369,5.369,0,0,0-1.673-4.238,7.374,7.374,0,0,0-5.021-1.485,14.648,14.648,0,0,0-4.562.729,12.08,12.08,0,0,0-3.807,1.97l-3.023-5.885a18.262,18.262,0,0,1,5.7-2.591,25.508,25.508,0,0,1,6.83-.918Q886,138.853,889.62,142.065ZM882.439,162.1a5.462,5.462,0,0,0,2.376-2.943v-2.969h-5.777q-5.183,0-5.183,3.4a3.03,3.03,0,0,0,1.269,2.565,5.713,5.713,0,0,0,3.482.944A7.33,7.33,0,0,0,882.439,162.1Z" style="fill:#fff"/><path d="M919.585,166.928a8.621,8.621,0,0,1-3.051,1.376,15.417,15.417,0,0,1-3.806.459q-5.184,0-8.018-2.645t-2.834-7.775V146.412H897.4v-6.479h4.481V132.86H910.3v7.073h7.234v6.479H910.3v11.824a3.963,3.963,0,0,0,.944,2.834,3.5,3.5,0,0,0,2.673,1,5.413,5.413,0,0,0,3.4-1.08Z" style="fill:#fff"/><path d="M946.417,142.065q3.616,3.214,3.618,9.691v16.576h-7.883v-3.618q-2.376,4.05-8.854,4.049a13.734,13.734,0,0,1-5.8-1.134,8.64,8.64,0,0,1-3.753-3.13,8.157,8.157,0,0,1-1.295-4.536,7.567,7.567,0,0,1,3.05-6.371q3.049-2.321,9.422-2.321h6.694a5.366,5.366,0,0,0-1.674-4.238,7.371,7.371,0,0,0-5.02-1.485,14.659,14.659,0,0,0-4.563.729,12.086,12.086,0,0,0-3.806,1.97l-3.024-5.885a18.267,18.267,0,0,1,5.7-2.591,25.508,25.508,0,0,1,6.83-.918Q942.8,138.853,946.417,142.065ZM939.236,162.1a5.462,5.462,0,0,0,2.376-2.943v-2.969h-5.777q-5.183,0-5.183,3.4a3.03,3.03,0,0,0,1.269,2.565,5.713,5.713,0,0,0,3.482.944A7.33,7.33,0,0,0,939.236,162.1Z" style="fill:#fff"/><path d="M973.356,133.886a4.572,4.572,0,0,1,0-6.695,5.347,5.347,0,0,1,3.78-1.35,5.476,5.476,0,0,1,3.779,1.3,4.155,4.155,0,0,1,1.458,3.239,4.585,4.585,0,0,1-1.458,3.483,5.28,5.28,0,0,1-3.779,1.377A5.343,5.343,0,0,1,973.356,133.886Zm-.431,5.4h8.422v29.047h-8.422Z" style="fill:#fff"/><path d="M1015.55,142.092q3.32,3.24,3.32,9.611v16.629h-8.423V153a7.58,7.58,0,0,0-1.511-5.157,5.544,5.544,0,0,0-4.373-1.7,6.705,6.705,0,0,0-5.076,1.97q-1.889,1.971-1.889,5.858v14.362h-8.422V139.285h8.044v3.4a11.159,11.159,0,0,1,4.157-2.835,14.482,14.482,0,0,1,5.453-1A11.958,11.958,0,0,1,1015.55,142.092Z" style="fill:#fff"/></g><g style="isolation:isolate"><path d="M82.268,204.073v29.046H74.277v-3.455a11.178,11.178,0,0,1-4,2.889,12.586,12.586,0,0,1-5.021,1q-5.724,0-9.071-3.293t-3.347-9.773V204.073h8.423v15.171q0,7.018,5.884,7.019a6.326,6.326,0,0,0,4.859-1.971q1.835-1.969,1.836-5.858V204.073Z" style="fill:#fff"/><path d="M102.216,204.721a15.127,15.127,0,0,1,5.912-1.08v7.774q-1.4-.107-1.889-.107a7.719,7.719,0,0,0-5.669,2.024q-2.052,2.025-2.052,6.073v13.714H90.1V204.073H98.14v3.833A9.357,9.357,0,0,1,102.216,204.721Z" style="fill:#fff"/><path d="M137.688,205.5a13.376,13.376,0,0,1,5.21,5.236,17.27,17.27,0,0,1,0,15.711,13.379,13.379,0,0,1-5.21,5.237,14.791,14.791,0,0,1-7.37,1.863q-5.993,0-9.124-3.78v3.348h-8.045v-40.06h8.423V207.15a11.218,11.218,0,0,1,8.746-3.509A14.8,14.8,0,0,1,137.688,205.5Zm-3.51,18.95a9.293,9.293,0,0,0,0-11.716,7.562,7.562,0,0,0-10.636,0,9.3,9.3,0,0,0,0,11.716,7.559,7.559,0,0,0,10.636,0Z" style="fill:#fff"/><path d="M172,206.854q3.617,3.211,3.618,9.69v16.575h-7.883V229.5q-2.376,4.048-8.855,4.049a13.729,13.729,0,0,1-5.8-1.134,8.648,8.648,0,0,1-3.753-3.131,8.145,8.145,0,0,1-1.3-4.535,7.564,7.564,0,0,1,3.05-6.371q3.049-2.32,9.422-2.321h6.694a5.373,5.373,0,0,0-1.674-4.239,7.376,7.376,0,0,0-5.02-1.484,14.653,14.653,0,0,0-4.563.728,12.113,12.113,0,0,0-3.807,1.971l-3.023-5.885a18.262,18.262,0,0,1,5.7-2.591,25.508,25.508,0,0,1,6.83-.918Q168.38,203.641,172,206.854Zm-7.181,20.03a5.473,5.473,0,0,0,2.376-2.944v-2.968h-5.777q-5.184,0-5.183,3.4a3.032,3.032,0,0,0,1.268,2.565,5.721,5.721,0,0,0,3.483.944A7.332,7.332,0,0,0,164.818,226.884Z" style="fill:#fff"/><path d="M209.6,206.88q3.319,3.24,3.32,9.61v16.629H204.5V217.786a7.572,7.572,0,0,0-1.512-5.156,5.544,5.544,0,0,0-4.373-1.7,6.7,6.7,0,0,0-5.075,1.97q-1.89,1.971-1.89,5.858v14.361h-8.422V204.073h8.044v3.4a11.159,11.159,0,0,1,4.157-2.835,14.482,14.482,0,0,1,5.453-1A11.958,11.958,0,0,1,209.6,206.88Z" style="fill:#fff"/><path d="M281.678,206.854q3.212,3.211,3.212,9.636v16.629h-8.422V217.786a7.876,7.876,0,0,0-1.43-5.156,5.033,5.033,0,0,0-4.077-1.7,6.008,6.008,0,0,0-4.7,1.916q-1.728,1.917-1.727,5.7v14.577h-8.423V217.786q0-6.855-5.507-6.856a5.947,5.947,0,0,0-4.644,1.916q-1.728,1.917-1.727,5.7v14.577h-8.422V204.073h8.044v3.347a10.647,10.647,0,0,1,3.969-2.808,13.367,13.367,0,0,1,5.155-.971,12.5,12.5,0,0,1,5.561,1.214,9.857,9.857,0,0,1,4,3.537,11.908,11.908,0,0,1,4.507-3.509,14.224,14.224,0,0,1,5.966-1.242A11.709,11.709,0,0,1,281.678,206.854Z" style="fill:#fff"/><path d="M298.361,231.635a14.242,14.242,0,0,1-5.7-5.319,15.548,15.548,0,0,1,0-15.44,14.239,14.239,0,0,1,5.7-5.318,18.58,18.58,0,0,1,16.439,0,14.3,14.3,0,0,1,5.669,5.318,15.548,15.548,0,0,1,0,15.44,14.3,14.3,0,0,1-5.669,5.319,18.588,18.588,0,0,1-16.439,0Zm13.551-7.181a9.293,9.293,0,0,0,0-11.716,7.015,7.015,0,0,0-5.318-2.186,7.1,7.1,0,0,0-5.345,2.186,9.2,9.2,0,0,0,0,11.716,7.1,7.1,0,0,0,5.345,2.187A7.019,7.019,0,0,0,311.912,224.454Z" style="fill:#fff"/><path d="M352.674,205.5a13.37,13.37,0,0,1,5.21,5.236,17.27,17.27,0,0,1,0,15.711,13.372,13.372,0,0,1-5.21,5.237,14.791,14.791,0,0,1-7.37,1.863q-5.992,0-9.124-3.78v3.348h-8.044v-40.06h8.422V207.15a11.218,11.218,0,0,1,8.746-3.509A14.8,14.8,0,0,1,352.674,205.5Zm-3.509,18.95a9.293,9.293,0,0,0,0-11.716,7.562,7.562,0,0,0-10.636,0,9.3,9.3,0,0,0,0,11.716,7.559,7.559,0,0,0,10.636,0Z" style="fill:#fff"/><path d="M365.82,198.674a4.572,4.572,0,0,1,0-6.695,5.345,5.345,0,0,1,3.779-1.35,5.479,5.479,0,0,1,3.779,1.3,4.155,4.155,0,0,1,1.458,3.239,4.582,4.582,0,0,1-1.458,3.482,5.279,5.279,0,0,1-3.779,1.377A5.34,5.34,0,0,1,365.82,198.674Zm-.432,5.4h8.422v29.046h-8.422Z" style="fill:#fff"/><path d="M381.639,193.059h8.422v40.06h-8.422Z" style="fill:#fff"/><path d="M398.321,198.674a4.572,4.572,0,0,1,0-6.695,5.343,5.343,0,0,1,3.779-1.35,5.479,5.479,0,0,1,3.779,1.3,4.155,4.155,0,0,1,1.458,3.239,4.582,4.582,0,0,1-1.458,3.482,5.279,5.279,0,0,1-3.779,1.377A5.338,5.338,0,0,1,398.321,198.674Zm-.432,5.4h8.422v29.046h-8.422Z" style="fill:#fff"/><path d="M432.875,231.716a8.665,8.665,0,0,1-3.051,1.376,15.473,15.473,0,0,1-3.807.459q-5.182,0-8.017-2.646t-2.834-7.774V211.2h-4.482v-6.478h4.482v-7.073h8.422v7.073h7.235V211.2h-7.235v11.824a3.962,3.962,0,0,0,.945,2.834,3.5,3.5,0,0,0,2.673,1,5.409,5.409,0,0,0,3.4-1.08Z" style="fill:#fff"/><path d="M465.917,204.073,452.8,234.9q-2,5.022-4.94,7.074a12.106,12.106,0,0,1-7.1,2.051,14.742,14.742,0,0,1-4.481-.7,9.9,9.9,0,0,1-3.617-1.943l3.077-5.993a7.238,7.238,0,0,0,2.241,1.349,6.957,6.957,0,0,0,2.511.487,4.454,4.454,0,0,0,2.806-.837,7.121,7.121,0,0,0,1.945-2.781l.107-.27-12.579-29.262h8.692l8.153,19.706,8.206-19.706Z" style="fill:#fff"/></g><g style="isolation:isolate"><path d="M97.493,316.427,87.166,347.322H82.531L74.1,322.65l-8.43,24.672H60.949L50.621,316.427h4.547l8.341,25.114L72.2,316.427h4.061l8.517,25.245L93.3,316.427Z" style="fill:#fff"/><path d="M102.37,318.634a2.6,2.6,0,0,1-.816-1.942,2.674,2.674,0,0,1,.816-1.964,2.786,2.786,0,0,1,2.053-.817,2.871,2.871,0,0,1,2.052.773,2.533,2.533,0,0,1,.816,1.92,2.728,2.728,0,0,1-.816,2.008,2.782,2.782,0,0,1-2.052.816A2.823,2.823,0,0,1,102.37,318.634Zm-.066,5.3h4.237v23.392H102.3Z" style="fill:#fff"/><path d="M127.77,345.954a6.324,6.324,0,0,1-2.3,1.213,9.572,9.572,0,0,1-2.825.419,7.5,7.5,0,0,1-5.472-1.9,7.245,7.245,0,0,1-1.943-5.429V327.417h-3.971V323.93h3.971v-5.119h4.238v5.119h6.709v3.487h-6.709v12.666a4.1,4.1,0,0,0,.949,2.914,3.535,3.535,0,0,0,2.714,1.014,5.106,5.106,0,0,0,3.309-1.1Z" style="fill:#fff"/><path d="M152.463,326.292q2.625,2.58,2.626,7.569v13.461h-4.237V334.346a7.186,7.186,0,0,0-1.633-5.12,6.146,6.146,0,0,0-4.679-1.721,7.291,7.291,0,0,0-5.429,2.008,7.848,7.848,0,0,0-1.986,5.76v12.049h-4.236V314.573h4.236V327.24a8.744,8.744,0,0,1,3.465-2.6,11.93,11.93,0,0,1,4.789-.927A9.663,9.663,0,0,1,152.463,326.292Z" style="fill:#fff"/><path d="M195.87,337.039H176.892A7.345,7.345,0,0,0,179.605,342a8.857,8.857,0,0,0,5.76,1.876,8.676,8.676,0,0,0,6.753-2.825l2.339,2.737a10.24,10.24,0,0,1-3.95,2.825,14.9,14.9,0,0,1-11.85-.552,10.859,10.859,0,0,1-4.435-4.259,12.207,12.207,0,0,1-1.568-6.18,12.4,12.4,0,0,1,1.523-6.134,10.909,10.909,0,0,1,4.193-4.259,11.942,11.942,0,0,1,6.025-1.523,11.706,11.706,0,0,1,5.98,1.523,10.7,10.7,0,0,1,4.1,4.259,12.975,12.975,0,0,1,1.479,6.267A12.107,12.107,0,0,1,195.87,337.039Zm-16.573-7.9a7.474,7.474,0,0,0-2.405,4.855h15a7.524,7.524,0,0,0-2.405-4.833,7.9,7.9,0,0,0-10.195-.022Z" style="fill:#fff"/><path d="M206.6,321.9v2.03h6.8v3.487h-6.709v19.905h-4.238V327.417h-3.971V323.93h3.971v-2.075a7.452,7.452,0,0,1,2.031-5.516,7.7,7.7,0,0,1,5.694-2.03,9.578,9.578,0,0,1,2.647.353,6.444,6.444,0,0,1,2.12,1.015l-1.281,3.221a5.281,5.281,0,0,0-3.266-1.1Q206.594,317.8,206.6,321.9Z" style="fill:#fff"/><path d="M222.175,321.9v2.03h6.8v3.487h-6.709v19.905h-4.238V327.417h-3.971V323.93h3.971v-2.075a7.452,7.452,0,0,1,2.031-5.516,7.7,7.7,0,0,1,5.694-2.03,9.578,9.578,0,0,1,2.647.353,6.444,6.444,0,0,1,2.12,1.015l-1.281,3.221a5.281,5.281,0,0,0-3.266-1.1Q222.174,317.8,222.175,321.9Z" style="fill:#fff"/><path d="M253.688,337.039H234.709A7.346,7.346,0,0,0,237.423,342a8.857,8.857,0,0,0,5.76,1.876,8.676,8.676,0,0,0,6.753-2.825l2.338,2.737a10.233,10.233,0,0,1-3.95,2.825,14.9,14.9,0,0,1-11.849-.552,10.862,10.862,0,0,1-4.436-4.259,12.207,12.207,0,0,1-1.567-6.18,12.4,12.4,0,0,1,1.522-6.134,10.912,10.912,0,0,1,4.194-4.259,11.941,11.941,0,0,1,6.024-1.523,11.706,11.706,0,0,1,5.98,1.523,10.7,10.7,0,0,1,4.1,4.259,12.986,12.986,0,0,1,1.478,6.267A12.336,12.336,0,0,1,253.688,337.039Zm-16.574-7.9a7.474,7.474,0,0,0-2.405,4.855h15.006a7.528,7.528,0,0,0-2.405-4.833,7.9,7.9,0,0,0-10.2-.022Z" style="fill:#fff"/><path d="M263.463,346.042a11.326,11.326,0,0,1-4.392-4.259,12.723,12.723,0,0,1,0-12.314,11.168,11.168,0,0,1,4.392-4.237,13.142,13.142,0,0,1,6.378-1.523,12.244,12.244,0,0,1,5.671,1.28,9.132,9.132,0,0,1,3.862,3.708l-3.222,2.074a7.209,7.209,0,0,0-2.737-2.516,7.818,7.818,0,0,0-3.619-.838,8.363,8.363,0,0,0-4.126,1.015,7.231,7.231,0,0,0-2.869,2.891,8.739,8.739,0,0,0-1.037,4.3,8.83,8.83,0,0,0,1.037,4.348,7.218,7.218,0,0,0,2.869,2.891,8.352,8.352,0,0,0,4.126,1.015,7.806,7.806,0,0,0,3.619-.838,7.2,7.2,0,0,0,2.737-2.516l3.222,2.03a9.266,9.266,0,0,1-3.862,3.73,12.069,12.069,0,0,1-5.671,1.3A12.987,12.987,0,0,1,263.463,346.042Z" style="fill:#fff"/><path d="M298.308,345.954a6.34,6.34,0,0,1-2.3,1.213,9.582,9.582,0,0,1-2.825.419,7.5,7.5,0,0,1-5.473-1.9,7.245,7.245,0,0,1-1.943-5.429V327.417H281.8V323.93h3.971v-5.119h4.238v5.119h6.709v3.487H290.01v12.666a4.109,4.109,0,0,0,.949,2.914,3.535,3.535,0,0,0,2.714,1.014,5.107,5.107,0,0,0,3.31-1.1Z" style="fill:#fff"/><path d="M303.493,318.634a2.6,2.6,0,0,1-.817-1.942,2.675,2.675,0,0,1,.817-1.964,2.783,2.783,0,0,1,2.052-.817,2.873,2.873,0,0,1,2.053.773,2.536,2.536,0,0,1,.816,1.92,2.732,2.732,0,0,1-.816,2.008,2.784,2.784,0,0,1-2.053.816A2.821,2.821,0,0,1,303.493,318.634Zm-.066,5.3h4.236v23.392h-4.236Z" style="fill:#fff"/><path d="M336.439,323.93,326.2,347.322h-4.325L311.636,323.93h4.413l8.033,18.758,8.209-18.758Z" style="fill:#fff"/><path d="M360.8,337.039H341.823A7.346,7.346,0,0,0,344.537,342a8.857,8.857,0,0,0,5.76,1.876,8.676,8.676,0,0,0,6.753-2.825l2.339,2.737a10.236,10.236,0,0,1-3.951,2.825,14.9,14.9,0,0,1-11.849-.552,10.862,10.862,0,0,1-4.436-4.259,12.207,12.207,0,0,1-1.567-6.18,12.415,12.415,0,0,1,1.522-6.134,10.912,10.912,0,0,1,4.194-4.259,11.941,11.941,0,0,1,6.024-1.523,11.708,11.708,0,0,1,5.981,1.523,10.7,10.7,0,0,1,4.1,4.259,12.986,12.986,0,0,1,1.479,6.267A12.383,12.383,0,0,1,360.8,337.039Zm-16.573-7.9a7.475,7.475,0,0,0-2.406,4.855h15.006a7.524,7.524,0,0,0-2.405-4.833,7.9,7.9,0,0,0-10.195-.022Z" style="fill:#fff"/><path d="M400.436,323.93v23.392h-4.017v-3.531a8.524,8.524,0,0,1-3.376,2.8,10.538,10.538,0,0,1-4.568.993A10.2,10.2,0,0,1,381.1,345q-2.692-2.58-2.692-7.613V323.93h4.236v12.976a7.26,7.26,0,0,0,1.634,5.141,6.1,6.1,0,0,0,4.678,1.744,6.981,6.981,0,0,0,5.3-2.031,7.967,7.967,0,0,0,1.941-5.737V323.93Z" style="fill:#fff"/><path d="M409.7,346.814a12.1,12.1,0,0,1-4.148-1.964l1.764-3.354a12.672,12.672,0,0,0,3.752,1.765,15.414,15.414,0,0,0,4.458.662q5.56,0,5.561-3.177a2.058,2.058,0,0,0-.75-1.677,4.755,4.755,0,0,0-1.876-.905q-1.125-.286-3.2-.64a31.261,31.261,0,0,1-4.612-1.016,7.1,7.1,0,0,1-3.067-1.941,5.4,5.4,0,0,1-1.28-3.84,6,6,0,0,1,2.648-5.1,11.857,11.857,0,0,1,7.106-1.92,19.6,19.6,0,0,1,4.678.574,12.614,12.614,0,0,1,3.84,1.545l-1.809,3.354a12.178,12.178,0,0,0-6.753-1.853,7.813,7.813,0,0,0-4.1.882,2.665,2.665,0,0,0-1.413,2.339,2.233,2.233,0,0,0,.795,1.81,5.023,5.023,0,0,0,1.964.971q1.169.309,3.288.706a35.921,35.921,0,0,1,4.568,1.037,6.826,6.826,0,0,1,2.979,1.876,5.227,5.227,0,0,1,1.236,3.708,5.843,5.843,0,0,1-2.715,5.052,12.811,12.811,0,0,1-7.392,1.876A19.6,19.6,0,0,1,409.7,346.814Z" style="fill:#fff"/><path d="M446.578,326.093q2.582,2.382,2.581,7.106v14.123h-4.015v-3.09a6.7,6.7,0,0,1-3.024,2.494,11.552,11.552,0,0,1-4.656.86,9.736,9.736,0,0,1-6.289-1.9,6.523,6.523,0,0,1-.111-9.953q2.25-1.875,7.15-1.875h6.709v-.839a5.4,5.4,0,0,0-1.589-4.193,6.7,6.7,0,0,0-4.679-1.456,12.384,12.384,0,0,0-4.06.684,10.481,10.481,0,0,0-3.355,1.831l-1.764-3.178a12.816,12.816,0,0,1,4.325-2.228,18.093,18.093,0,0,1,5.34-.773Q444,323.709,446.578,326.093Zm-4.216,17.146a6.185,6.185,0,0,0,2.561-3.068v-3.265h-6.532q-5.385,0-5.385,3.619a3.273,3.273,0,0,0,1.368,2.78,6.249,6.249,0,0,0,3.8,1.016A7.865,7.865,0,0,0,442.362,343.239Z" style="fill:#fff"/><path d="M479.523,323.93v20.214q0,6.135-3.044,9.069t-9.092,2.936a21.76,21.76,0,0,1-6.312-.9,12.5,12.5,0,0,1-4.854-2.581l2.03-3.267a11.971,11.971,0,0,0,4.038,2.229,15.356,15.356,0,0,0,4.965.817q4.1,0,6.069-1.942t1.964-5.915v-1.853a9.375,9.375,0,0,1-3.685,2.714,12.284,12.284,0,0,1-4.745.9,12.789,12.789,0,0,1-6.069-1.434,10.676,10.676,0,0,1-4.259-4.017,12.007,12.007,0,0,1,0-11.784,10.52,10.52,0,0,1,4.259-3.994,12.944,12.944,0,0,1,6.069-1.413,12.418,12.418,0,0,1,4.921.971,9.153,9.153,0,0,1,3.73,2.869V323.93Zm-8.054,17.742a7.179,7.179,0,0,0,2.869-2.714,7.578,7.578,0,0,0,1.037-3.95,7.16,7.16,0,0,0-2.251-5.5,9.082,9.082,0,0,0-11.607,0,7.16,7.16,0,0,0-2.251,5.5,7.568,7.568,0,0,0,1.037,3.95,7.16,7.16,0,0,0,2.869,2.714,8.756,8.756,0,0,0,4.171.971A8.665,8.665,0,0,0,471.469,341.672Z" style="fill:#fff"/><path d="M508.653,337.039H489.675A7.342,7.342,0,0,0,492.389,342a8.856,8.856,0,0,0,5.759,1.876,8.676,8.676,0,0,0,6.753-2.825l2.339,2.737a10.233,10.233,0,0,1-3.95,2.825,14.9,14.9,0,0,1-11.85-.552,10.859,10.859,0,0,1-4.435-4.259,12.207,12.207,0,0,1-1.567-6.18,12.4,12.4,0,0,1,1.522-6.134,10.916,10.916,0,0,1,4.193-4.259,11.945,11.945,0,0,1,6.025-1.523,11.706,11.706,0,0,1,5.98,1.523,10.708,10.708,0,0,1,4.1,4.259,12.986,12.986,0,0,1,1.478,6.267A12.107,12.107,0,0,1,508.653,337.039Zm-16.573-7.9a7.474,7.474,0,0,0-2.4,4.855h15.006a7.525,7.525,0,0,0-2.406-4.833,7.9,7.9,0,0,0-10.195-.022Z" style="fill:#fff"/><path d="M530.234,346.042a11.2,11.2,0,0,1-4.346-4.259,12.872,12.872,0,0,1,0-12.314,11.048,11.048,0,0,1,4.346-4.237,13.612,13.612,0,0,1,12.513,0,11.093,11.093,0,0,1,4.325,4.237,12.879,12.879,0,0,1,0,12.314,11.251,11.251,0,0,1-4.325,4.259,13.448,13.448,0,0,1-12.513,0Zm10.306-3.2a7.322,7.322,0,0,0,2.8-2.913,9.629,9.629,0,0,0,0-8.606,7.182,7.182,0,0,0-2.8-2.891,8.54,8.54,0,0,0-8.076,0,7.312,7.312,0,0,0-2.825,2.891,9.446,9.446,0,0,0,0,8.606,7.456,7.456,0,0,0,2.825,2.913,8.38,8.38,0,0,0,8.076,0Z" style="fill:#fff"/><path d="M559.276,321.9v2.03h6.8v3.487h-6.709v19.905h-4.237V327.417h-3.972V323.93h3.972v-2.075a7.456,7.456,0,0,1,2.03-5.516,7.7,7.7,0,0,1,5.695-2.03,9.578,9.578,0,0,1,2.647.353,6.448,6.448,0,0,1,2.119,1.015l-1.28,3.221a5.285,5.285,0,0,0-3.267-1.1Q559.276,317.8,559.276,321.9Z" style="fill:#fff"/><path d="M609.148,316.427v30.895h-3.619l-18.537-23.039v23.039h-4.414V316.427H586.2l18.537,23.038V316.427Z" style="fill:#fff"/><path d="M633.754,326.093q2.582,2.382,2.581,7.106v14.123h-4.016v-3.09a6.7,6.7,0,0,1-3.023,2.494,11.555,11.555,0,0,1-4.656.86,9.736,9.736,0,0,1-6.289-1.9,6.523,6.523,0,0,1-.111-9.953q2.25-1.875,7.15-1.875H632.1v-.839a5.407,5.407,0,0,0-1.589-4.193,6.7,6.7,0,0,0-4.679-1.456,12.384,12.384,0,0,0-4.06.684,10.47,10.47,0,0,0-3.355,1.831l-1.765-3.178a12.821,12.821,0,0,1,4.326-2.228,18.086,18.086,0,0,1,5.339-.773Q631.171,323.709,633.754,326.093Zm-4.216,17.146a6.19,6.19,0,0,0,2.561-3.068v-3.265h-6.533q-5.384,0-5.384,3.619a3.273,3.273,0,0,0,1.368,2.78,6.249,6.249,0,0,0,3.8,1.016A7.867,7.867,0,0,0,629.538,343.239Z" style="fill:#fff"/><path d="M657.344,345.954a6.332,6.332,0,0,1-2.3,1.213,9.582,9.582,0,0,1-2.825.419,7.5,7.5,0,0,1-5.473-1.9,7.245,7.245,0,0,1-1.942-5.429V327.417h-3.972V323.93h3.972v-5.119h4.237v5.119h6.709v3.487h-6.709v12.666A4.109,4.109,0,0,0,650,343a3.535,3.535,0,0,0,2.714,1.014,5.112,5.112,0,0,0,3.311-1.1Z" style="fill:#fff"/><path d="M662.529,318.634a2.6,2.6,0,0,1-.817-1.942,2.675,2.675,0,0,1,.817-1.964,2.783,2.783,0,0,1,2.052-.817,2.873,2.873,0,0,1,2.053.773,2.536,2.536,0,0,1,.816,1.92,2.732,2.732,0,0,1-.816,2.008,2.784,2.784,0,0,1-2.053.816A2.821,2.821,0,0,1,662.529,318.634Zm-.066,5.3H666.7v23.392h-4.236Z" style="fill:#fff"/><path d="M678.527,346.042a11.2,11.2,0,0,1-4.346-4.259,12.872,12.872,0,0,1,0-12.314,11.048,11.048,0,0,1,4.346-4.237,13.612,13.612,0,0,1,12.513,0,11.093,11.093,0,0,1,4.325,4.237,12.879,12.879,0,0,1,0,12.314,11.251,11.251,0,0,1-4.325,4.259,13.448,13.448,0,0,1-12.513,0Zm10.306-3.2a7.322,7.322,0,0,0,2.8-2.913,9.629,9.629,0,0,0,0-8.606,7.182,7.182,0,0,0-2.8-2.891,8.54,8.54,0,0,0-8.076,0,7.312,7.312,0,0,0-2.825,2.891,9.446,9.446,0,0,0,0,8.606,7.456,7.456,0,0,0,2.825,2.913,8.38,8.38,0,0,0,8.076,0Z" style="fill:#fff"/><path d="M722.376,326.292q2.625,2.58,2.626,7.569v13.461h-4.237V334.346a7.186,7.186,0,0,0-1.633-5.12,6.146,6.146,0,0,0-4.679-1.721,7.291,7.291,0,0,0-5.429,2.008,7.848,7.848,0,0,0-1.986,5.76v12.049H702.8V323.93h4.06v3.53a8.249,8.249,0,0,1,3.464-2.78,12.133,12.133,0,0,1,4.966-.971A9.663,9.663,0,0,1,722.376,326.292Z" style="fill:#fff"/><path d="M748.813,326.093q2.582,2.382,2.582,7.106v14.123h-4.016v-3.09a6.7,6.7,0,0,1-3.024,2.494,11.552,11.552,0,0,1-4.656.86,9.736,9.736,0,0,1-6.289-1.9,6.524,6.524,0,0,1-.11-9.953q2.25-1.875,7.149-1.875h6.709v-.839a5.4,5.4,0,0,0-1.589-4.193,6.7,6.7,0,0,0-4.678-1.456,12.39,12.39,0,0,0-4.061.684,10.475,10.475,0,0,0-3.354,1.831l-1.765-3.178a12.816,12.816,0,0,1,4.325-2.228,18.093,18.093,0,0,1,5.34-.773Q746.23,323.709,748.813,326.093ZM744.6,343.239a6.188,6.188,0,0,0,2.56-3.068v-3.265h-6.532q-5.385,0-5.385,3.619a3.273,3.273,0,0,0,1.368,2.78,6.249,6.249,0,0,0,3.8,1.016A7.871,7.871,0,0,0,744.6,343.239Z" style="fill:#fff"/><path d="M759.251,314.573h4.236v32.749h-4.236Z" style="fill:#fff"/><path d="M789.571,345.623a15.167,15.167,0,0,1-5.892-5.672,16.3,16.3,0,0,1,0-16.153,15.167,15.167,0,0,1,5.892-5.672,18.252,18.252,0,0,1,16.816,0,15.076,15.076,0,0,1,5.87,5.649,16.544,16.544,0,0,1,0,16.2,15.065,15.065,0,0,1-5.87,5.65,18.252,18.252,0,0,1-16.816,0Zm14.542-3.421a11.341,11.341,0,0,0,4.282-4.259,12.534,12.534,0,0,0,0-12.137,11.334,11.334,0,0,0-4.282-4.259A12.131,12.131,0,0,0,798,320a12.378,12.378,0,0,0-6.157,1.545,11.238,11.238,0,0,0-4.325,4.259,12.534,12.534,0,0,0,0,12.137,11.245,11.245,0,0,0,4.325,4.259A12.378,12.378,0,0,0,798,343.747,12.131,12.131,0,0,0,804.113,342.2Z" style="fill:#fff"/><path d="M839,325.21a10.8,10.8,0,0,1,4.215,4.193,12.423,12.423,0,0,1,1.523,6.222,12.549,12.549,0,0,1-1.523,6.246A10.752,10.752,0,0,1,839,346.086a12.3,12.3,0,0,1-6.091,1.5,10.835,10.835,0,0,1-4.611-.97,9.589,9.589,0,0,1-3.554-2.825v12.093h-4.236V323.93h4.06v3.707a9,9,0,0,1,3.575-2.935,11.3,11.3,0,0,1,4.766-.993A12.3,12.3,0,0,1,839,325.21ZM836.6,342.842a7.484,7.484,0,0,0,2.825-2.913,9.446,9.446,0,0,0,0-8.606,7.339,7.339,0,0,0-2.825-2.891,8.031,8.031,0,0,0-4.038-1.015,7.818,7.818,0,0,0-3.995,1.037,7.519,7.519,0,0,0-2.825,2.891,8.624,8.624,0,0,0-1.037,4.28,8.881,8.881,0,0,0,1.016,4.3,7.26,7.26,0,0,0,2.824,2.913,8.339,8.339,0,0,0,8.055,0Z" style="fill:#fff"/><path d="M871.663,337.039H852.685A7.341,7.341,0,0,0,855.4,342a8.857,8.857,0,0,0,5.76,1.876,8.676,8.676,0,0,0,6.753-2.825l2.339,2.737a10.24,10.24,0,0,1-3.95,2.825,14.9,14.9,0,0,1-11.85-.552,10.859,10.859,0,0,1-4.435-4.259,12.207,12.207,0,0,1-1.568-6.18,12.4,12.4,0,0,1,1.523-6.134,10.909,10.909,0,0,1,4.193-4.259,11.942,11.942,0,0,1,6.025-1.523,11.706,11.706,0,0,1,5.98,1.523,10.7,10.7,0,0,1,4.1,4.259,12.975,12.975,0,0,1,1.479,6.267A12.107,12.107,0,0,1,871.663,337.039Zm-16.573-7.9a7.474,7.474,0,0,0-2.405,4.855H867.69a7.524,7.524,0,0,0-2.405-4.833,7.9,7.9,0,0,0-10.195-.022Z" style="fill:#fff"/><path d="M897.2,326.292q2.625,2.58,2.626,7.569v13.461h-4.237V334.346a7.186,7.186,0,0,0-1.633-5.12,6.144,6.144,0,0,0-4.679-1.721,7.289,7.289,0,0,0-5.428,2.008,7.848,7.848,0,0,0-1.987,5.76v12.049h-4.236V323.93h4.061v3.53a8.237,8.237,0,0,1,3.464-2.78,12.131,12.131,0,0,1,4.965-.971A9.663,9.663,0,0,1,897.2,326.292Z" style="fill:#fff"/><path d="M948.812,347.322l-.044-22.509L937.6,343.57H935.57L924.4,324.945v22.377h-4.237V316.427h3.619l12.888,21.715,12.711-21.715H953l.044,30.895Z" style="fill:#fff"/><path d="M965.449,346.042a11.2,11.2,0,0,1-4.346-4.259,12.872,12.872,0,0,1,0-12.314,11.042,11.042,0,0,1,4.346-4.237,13.612,13.612,0,0,1,12.513,0,11.093,11.093,0,0,1,4.325,4.237,12.879,12.879,0,0,1,0,12.314,11.251,11.251,0,0,1-4.325,4.259,13.448,13.448,0,0,1-12.513,0Zm10.306-3.2a7.322,7.322,0,0,0,2.8-2.913,9.629,9.629,0,0,0,0-8.606,7.182,7.182,0,0,0-2.8-2.891,8.54,8.54,0,0,0-8.076,0,7.312,7.312,0,0,0-2.825,2.891,9.438,9.438,0,0,0,0,8.606,7.456,7.456,0,0,0,2.825,2.913,8.38,8.38,0,0,0,8.076,0Z" style="fill:#fff"/><path d="M1008.217,325.21a10.8,10.8,0,0,1,4.215,4.193,12.423,12.423,0,0,1,1.523,6.222,12.549,12.549,0,0,1-1.523,6.246,10.752,10.752,0,0,1-4.215,4.215,12.3,12.3,0,0,1-6.091,1.5,11.076,11.076,0,0,1-4.767-1.014,9.179,9.179,0,0,1-3.574-2.957v3.707h-4.06V314.573h4.236V327.46a9.014,9.014,0,0,1,3.531-2.8,11.215,11.215,0,0,1,4.634-.949A12.3,12.3,0,0,1,1008.217,325.21Zm-2.4,17.632a7.484,7.484,0,0,0,2.825-2.913,9.446,9.446,0,0,0,0-8.606,7.339,7.339,0,0,0-2.825-2.891,8.5,8.5,0,0,0-8.055,0,7.117,7.117,0,0,0-2.824,2.891,9.62,9.62,0,0,0,0,8.606,7.254,7.254,0,0,0,2.824,2.913,8.339,8.339,0,0,0,8.055,0Z" style="fill:#fff"/><path d="M1019.891,318.634a2.6,2.6,0,0,1-.818-1.942,2.676,2.676,0,0,1,.818-1.964,2.781,2.781,0,0,1,2.051-.817,2.871,2.871,0,0,1,2.053.773,2.537,2.537,0,0,1,.817,1.92,2.733,2.733,0,0,1-.817,2.008,2.782,2.782,0,0,1-2.053.816A2.818,2.818,0,0,1,1019.891,318.634Zm-.067,5.3h4.237v23.392h-4.237Z" style="fill:#fff"/><path d="M1032.138,314.573h4.236v32.749h-4.236Z" style="fill:#fff"/><path d="M1044.518,318.634a2.6,2.6,0,0,1-.818-1.942,2.676,2.676,0,0,1,.818-1.964,2.781,2.781,0,0,1,2.051-.817,2.871,2.871,0,0,1,2.053.773,2.536,2.536,0,0,1,.816,1.92,2.732,2.732,0,0,1-.816,2.008,2.782,2.782,0,0,1-2.053.816A2.818,2.818,0,0,1,1044.518,318.634Zm-.067,5.3h4.237v23.392h-4.237Z" style="fill:#fff"/><path d="M1069.917,345.954a6.332,6.332,0,0,1-2.295,1.213,9.577,9.577,0,0,1-2.825.419,7.5,7.5,0,0,1-5.473-1.9,7.245,7.245,0,0,1-1.942-5.429V327.417h-3.972V323.93h3.972v-5.119h4.237v5.119h6.709v3.487h-6.709v12.666a4.114,4.114,0,0,0,.949,2.914,3.535,3.535,0,0,0,2.714,1.014,5.11,5.11,0,0,0,3.311-1.1Z" style="fill:#fff"/><path d="M1095.294,323.93l-11.343,25.731a11.617,11.617,0,0,1-3.509,5.032,8.008,8.008,0,0,1-4.833,1.456,10.237,10.237,0,0,1-3.332-.552,6.83,6.83,0,0,1-2.67-1.611l1.81-3.178a5.9,5.9,0,0,0,4.192,1.722,4.046,4.046,0,0,0,2.582-.817,6.96,6.96,0,0,0,1.876-2.8l.75-1.633L1070.49,323.93h4.413l8.165,18.713,8.078-18.713Z" style="fill:#fff"/></g><g style="isolation:isolate"><path d="M53.844,369.389H66.863a18.819,18.819,0,0,1,8.7,1.943,14.262,14.262,0,0,1,5.892,5.45,16.519,16.519,0,0,1,0,16.11,14.268,14.268,0,0,1-5.892,5.45,18.807,18.807,0,0,1-8.7,1.942H53.844ZM66.6,396.444a14.3,14.3,0,0,0,6.6-1.456,10.527,10.527,0,0,0,4.391-4.083,12.691,12.691,0,0,0,0-12.137,10.531,10.531,0,0,0-4.391-4.082,14.3,14.3,0,0,0-6.6-1.457H58.257v23.215Z" style="fill:#fff"/><path d="M105.636,379.055q2.582,2.383,2.582,7.106v14.123H104.2v-3.09a6.708,6.708,0,0,1-3.023,2.494,11.543,11.543,0,0,1-4.657.861,9.743,9.743,0,0,1-6.29-1.9,6.524,6.524,0,0,1-.11-9.953q2.252-1.875,7.15-1.875h6.709v-.839a5.408,5.408,0,0,0-1.588-4.193,6.706,6.706,0,0,0-4.679-1.456,12.365,12.365,0,0,0-4.061.685,10.456,10.456,0,0,0-3.354,1.831l-1.766-3.178a12.818,12.818,0,0,1,4.325-2.229,18.132,18.132,0,0,1,5.341-.772Q103.055,376.672,105.636,379.055ZM101.421,396.2a6.185,6.185,0,0,0,2.56-3.067v-3.266H97.449q-5.386,0-5.385,3.619a3.276,3.276,0,0,0,1.369,2.781,6.251,6.251,0,0,0,3.8,1.015A7.861,7.861,0,0,0,101.421,396.2Z" style="fill:#fff"/><path d="M129.227,398.916a6.358,6.358,0,0,1-2.3,1.214,9.626,9.626,0,0,1-2.826.419,7.5,7.5,0,0,1-5.472-1.9,7.243,7.243,0,0,1-1.943-5.428V380.379H112.72v-3.486h3.971v-5.12h4.238v5.12h6.708v3.486h-6.708v12.667a4.1,4.1,0,0,0,.949,2.913,3.531,3.531,0,0,0,2.714,1.015,5.108,5.108,0,0,0,3.31-1.1Z" style="fill:#fff"/><path d="M150.3,379.055q2.581,2.383,2.581,7.106v14.123h-4.016v-3.09a6.7,6.7,0,0,1-3.023,2.494,11.541,11.541,0,0,1-4.656.861,9.739,9.739,0,0,1-6.29-1.9,6.524,6.524,0,0,1-.11-9.953q2.25-1.875,7.15-1.875h6.709v-.839a5.409,5.409,0,0,0-1.589-4.193,6.7,6.7,0,0,0-4.679-1.456,12.369,12.369,0,0,0-4.061.685,10.456,10.456,0,0,0-3.354,1.831l-1.765-3.178a12.809,12.809,0,0,1,4.325-2.229,18.126,18.126,0,0,1,5.34-.772Q147.717,376.672,150.3,379.055ZM146.084,396.2a6.192,6.192,0,0,0,2.561-3.067v-3.266h-6.533q-5.385,0-5.384,3.619a3.275,3.275,0,0,0,1.368,2.781,6.253,6.253,0,0,0,3.8,1.015A7.858,7.858,0,0,0,146.084,396.2Z" style="fill:#fff"/><path d="M194.722,372.258a10.788,10.788,0,0,1,0,15.8q-3.443,2.869-9.445,2.869h-7.635v9.356h-4.414V369.389h12.049Q191.279,369.389,194.722,372.258ZM191.544,385.3a7.092,7.092,0,0,0,0-10.283q-2.208-1.788-6.4-1.788h-7.5v13.859h7.5Q189.336,387.088,191.544,385.3Z" style="fill:#fff"/><path d="M207.7,399a11.191,11.191,0,0,1-4.346-4.259,12.87,12.87,0,0,1,0-12.313,11.044,11.044,0,0,1,4.346-4.238,13.62,13.62,0,0,1,12.513,0,11.089,11.089,0,0,1,4.325,4.238,12.877,12.877,0,0,1,0,12.313A11.238,11.238,0,0,1,220.209,399a13.44,13.44,0,0,1-12.513,0Zm10.306-3.2a7.328,7.328,0,0,0,2.8-2.913,9.631,9.631,0,0,0,0-8.607,7.173,7.173,0,0,0-2.8-2.89,8.532,8.532,0,0,0-8.076,0,7.3,7.3,0,0,0-2.825,2.89,9.44,9.44,0,0,0,0,8.607,7.463,7.463,0,0,0,2.825,2.913,8.38,8.38,0,0,0,8.076,0Z" style="fill:#fff"/><path d="M239.3,377.731a11.852,11.852,0,0,1,5.252-1.059v4.1a8.391,8.391,0,0,0-.971-.044,7.126,7.126,0,0,0-5.406,2.052,8.125,8.125,0,0,0-1.965,5.849v11.651h-4.236V376.893h4.06v3.927A7.221,7.221,0,0,1,239.3,377.731Z" style="fill:#fff"/><path d="M263.881,398.916a6.333,6.333,0,0,1-2.295,1.214,9.615,9.615,0,0,1-2.825.419,7.5,7.5,0,0,1-5.473-1.9,7.243,7.243,0,0,1-1.942-5.428V380.379h-3.972v-3.486h3.972v-5.12h4.237v5.12h6.709v3.486h-6.709v12.667a4.107,4.107,0,0,0,.949,2.913,3.531,3.531,0,0,0,2.714,1.015,5.111,5.111,0,0,0,3.311-1.1Z" style="fill:#fff"/><path d="M284.955,379.055q2.582,2.383,2.581,7.106v14.123h-4.015v-3.09a6.705,6.705,0,0,1-3.024,2.494,11.534,11.534,0,0,1-4.656.861,9.736,9.736,0,0,1-6.289-1.9,6.523,6.523,0,0,1-.111-9.953q2.25-1.875,7.15-1.875H283.3v-.839a5.405,5.405,0,0,0-1.589-4.193,6.7,6.7,0,0,0-4.679-1.456,12.359,12.359,0,0,0-4.06.685,10.451,10.451,0,0,0-3.355,1.831l-1.764-3.178a12.8,12.8,0,0,1,4.325-2.229,18.121,18.121,0,0,1,5.34-.772Q282.372,376.672,284.955,379.055ZM280.739,396.2a6.187,6.187,0,0,0,2.561-3.067v-3.266h-6.532q-5.385,0-5.385,3.619a3.275,3.275,0,0,0,1.368,2.781,6.255,6.255,0,0,0,3.8,1.015A7.856,7.856,0,0,0,280.739,396.2Z" style="fill:#fff"/><path d="M295.393,367.536h4.236v32.748h-4.236Z" style="fill:#fff"/><path d="M310.817,395.363a2.991,2.991,0,0,1,.817,2.141,5.246,5.246,0,0,1-.155,1.279q-.155.62-.595,1.9l-2.074,6.134h-2.782l1.634-6.576a2.773,2.773,0,0,1-1.347-1.037,2.961,2.961,0,0,1,2.45-4.7A2.709,2.709,0,0,1,310.817,395.363Z" style="fill:#fff"/><path d="M329.663,371.6a2.6,2.6,0,0,1-.817-1.942,2.678,2.678,0,0,1,.817-1.964,2.783,2.783,0,0,1,2.052-.816,2.876,2.876,0,0,1,2.053.772,2.536,2.536,0,0,1,.816,1.92,2.73,2.73,0,0,1-.816,2.008,2.785,2.785,0,0,1-2.053.817A2.822,2.822,0,0,1,329.663,371.6Zm-.066,5.3h4.236v23.391H329.6Z" style="fill:#fff"/><path d="M355.063,398.916a6.342,6.342,0,0,1-2.3,1.214,9.621,9.621,0,0,1-2.826.419,7.5,7.5,0,0,1-5.472-1.9,7.243,7.243,0,0,1-1.943-5.428V380.379h-3.971v-3.486h3.971v-5.12h4.238v5.12h6.709v3.486h-6.709v12.667a4.107,4.107,0,0,0,.949,2.913,3.531,3.531,0,0,0,2.714,1.015,5.108,5.108,0,0,0,3.31-1.1Z" style="fill:#fff"/><path d="M407.45,376.893l-8.739,23.391H394.65L387.9,382.542l-6.841,17.742H377L368.3,376.893h4.016l6.8,18.625,7.062-18.625h3.575l6.929,18.712,6.973-18.712Z" style="fill:#fff"/><path d="M411.8,371.6a2.6,2.6,0,0,1-.818-1.942,2.679,2.679,0,0,1,.818-1.964,2.781,2.781,0,0,1,2.052-.816,2.874,2.874,0,0,1,2.052.772,2.537,2.537,0,0,1,.817,1.92,2.731,2.731,0,0,1-.817,2.008,2.783,2.783,0,0,1-2.052.817A2.82,2.82,0,0,1,411.8,371.6Zm-.067,5.3h4.237v23.391H411.73Z" style="fill:#fff"/><path d="M424.044,367.536h4.236v32.748h-4.236Z" style="fill:#fff"/><path d="M436.357,367.536h4.237v32.748h-4.237Z" style="fill:#fff"/><path d="M480.117,379.254q2.625,2.582,2.626,7.569v13.461h-4.237V387.309a7.187,7.187,0,0,0-1.633-5.121,6.144,6.144,0,0,0-4.679-1.72,7.287,7.287,0,0,0-5.428,2.008,7.84,7.84,0,0,0-1.987,5.759v12.049h-4.236V367.536h4.236V380.2a8.726,8.726,0,0,1,3.465-2.6,11.917,11.917,0,0,1,4.789-.927A9.663,9.663,0,0,1,480.117,379.254Z" style="fill:#fff"/><path d="M511.784,390H492.806a7.342,7.342,0,0,0,2.714,4.965,8.852,8.852,0,0,0,5.759,1.876,8.679,8.679,0,0,0,6.753-2.825l2.339,2.736a10.222,10.222,0,0,1-3.95,2.825,14.892,14.892,0,0,1-11.85-.552,10.851,10.851,0,0,1-4.435-4.258,12.21,12.21,0,0,1-1.568-6.18,12.406,12.406,0,0,1,1.523-6.135,10.916,10.916,0,0,1,4.193-4.259,11.941,11.941,0,0,1,6.025-1.522,11.706,11.706,0,0,1,5.98,1.522,10.714,10.714,0,0,1,4.105,4.259,12.987,12.987,0,0,1,1.478,6.268A12.091,12.091,0,0,1,511.784,390Zm-16.573-7.9a7.47,7.47,0,0,0-2.405,4.854h15.006a7.529,7.529,0,0,0-2.406-4.833,7.9,7.9,0,0,0-10.195-.021Z" style="fill:#fff"/><path d="M517.742,367.536h4.237v32.748h-4.237Z" style="fill:#fff"/><path d="M548.548,378.172a10.8,10.8,0,0,1,4.215,4.193,13.52,13.52,0,0,1,0,12.468,10.748,10.748,0,0,1-4.215,4.216,12.3,12.3,0,0,1-6.091,1.5,10.82,10.82,0,0,1-4.611-.971,9.579,9.579,0,0,1-3.554-2.825v12.094h-4.236V376.893h4.06V380.6a9,9,0,0,1,3.574-2.935,11.289,11.289,0,0,1,4.767-.993A12.3,12.3,0,0,1,548.548,378.172Zm-2.4,17.633a7.49,7.49,0,0,0,2.825-2.913,9.448,9.448,0,0,0,0-8.607,7.33,7.33,0,0,0-2.825-2.89,8.035,8.035,0,0,0-4.039-1.016,7.827,7.827,0,0,0-3.994,1.037,7.515,7.515,0,0,0-2.825,2.892,8.621,8.621,0,0,0-1.037,4.28,8.884,8.884,0,0,0,1.016,4.3,7.26,7.26,0,0,0,2.824,2.913,8.339,8.339,0,0,0,8.055,0Z" style="fill:#fff"/><path d="M593.081,390H574.1a7.341,7.341,0,0,0,2.713,4.965,8.857,8.857,0,0,0,5.76,1.876,8.679,8.679,0,0,0,6.753-2.825l2.339,2.736a10.23,10.23,0,0,1-3.95,2.825,14.892,14.892,0,0,1-11.85-.552,10.851,10.851,0,0,1-4.435-4.258,12.21,12.21,0,0,1-1.568-6.18,12.406,12.406,0,0,1,1.523-6.135,10.916,10.916,0,0,1,4.193-4.259,11.94,11.94,0,0,1,6.024-1.522,11.707,11.707,0,0,1,5.981,1.522,10.705,10.705,0,0,1,4.1,4.259,12.976,12.976,0,0,1,1.479,6.268A12.091,12.091,0,0,1,593.081,390Zm-16.573-7.9a7.47,7.47,0,0,0-2.405,4.854h15a7.524,7.524,0,0,0-2.4-4.833,7.9,7.9,0,0,0-10.195-.021Z" style="fill:#fff"/><path d="M600.23,399.776a12.1,12.1,0,0,1-4.148-1.963l1.765-3.355a12.674,12.674,0,0,0,3.752,1.766,15.443,15.443,0,0,0,4.458.662q5.561,0,5.56-3.178a2.058,2.058,0,0,0-.75-1.677,4.755,4.755,0,0,0-1.876-.905q-1.125-.285-3.2-.64a31.229,31.229,0,0,1-4.611-1.015,7.1,7.1,0,0,1-3.068-1.942,5.4,5.4,0,0,1-1.28-3.84,6,6,0,0,1,2.648-5.1,11.857,11.857,0,0,1,7.106-1.92,19.562,19.562,0,0,1,4.679.574,12.608,12.608,0,0,1,3.839,1.544l-1.809,3.355a12.168,12.168,0,0,0-6.753-1.854,7.8,7.8,0,0,0-4.1.883,2.663,2.663,0,0,0-1.414,2.339,2.231,2.231,0,0,0,.795,1.809,5,5,0,0,0,1.964.971q1.17.309,3.288.706a35.942,35.942,0,0,1,4.569,1.037,6.823,6.823,0,0,1,2.978,1.876,5.227,5.227,0,0,1,1.236,3.708,5.846,5.846,0,0,1-2.714,5.053,12.817,12.817,0,0,1-7.393,1.876A19.6,19.6,0,0,1,600.23,399.776Z" style="fill:#fff"/><path d="M634.3,398.916a6.333,6.333,0,0,1-2.295,1.214,9.615,9.615,0,0,1-2.825.419,7.5,7.5,0,0,1-5.473-1.9,7.243,7.243,0,0,1-1.942-5.428V380.379H617.8v-3.486h3.972v-5.12h4.237v5.12h6.709v3.486h-6.709v12.667a4.107,4.107,0,0,0,.949,2.913,3.531,3.531,0,0,0,2.714,1.015,5.112,5.112,0,0,0,3.311-1.1Z" style="fill:#fff"/><path d="M655.377,379.055q2.582,2.383,2.581,7.106v14.123h-4.016v-3.09a6.7,6.7,0,0,1-3.023,2.494,11.538,11.538,0,0,1-4.656.861,9.736,9.736,0,0,1-6.289-1.9,6.081,6.081,0,0,1-2.362-4.987,6.143,6.143,0,0,1,2.251-4.966q2.25-1.875,7.15-1.875h6.709v-.839a5.409,5.409,0,0,0-1.589-4.193,6.7,6.7,0,0,0-4.679-1.456,12.359,12.359,0,0,0-4.06.685,10.451,10.451,0,0,0-3.355,1.831l-1.765-3.178a12.8,12.8,0,0,1,4.326-2.229,18.119,18.119,0,0,1,5.339-.772Q652.795,376.672,655.377,379.055ZM651.161,396.2a6.192,6.192,0,0,0,2.561-3.067v-3.266h-6.533q-5.383,0-5.384,3.619a3.275,3.275,0,0,0,1.368,2.781,6.255,6.255,0,0,0,3.8,1.015A7.858,7.858,0,0,0,651.161,396.2Z" style="fill:#fff"/><path d="M684.307,378.172a10.792,10.792,0,0,1,4.214,4.193,13.512,13.512,0,0,1,0,12.468,10.739,10.739,0,0,1-4.214,4.216,12.3,12.3,0,0,1-6.091,1.5,11.073,11.073,0,0,1-4.767-1.015,9.172,9.172,0,0,1-3.574-2.957v3.707h-4.061V367.536h4.237v12.887a9,9,0,0,1,3.531-2.8,11.2,11.2,0,0,1,4.634-.949A12.3,12.3,0,0,1,684.307,378.172ZM681.9,395.805a7.486,7.486,0,0,0,2.826-2.913,9.448,9.448,0,0,0,0-8.607,7.325,7.325,0,0,0-2.826-2.89,8.489,8.489,0,0,0-8.054,0,7.117,7.117,0,0,0-2.825,2.89,9.631,9.631,0,0,0,0,8.607,7.269,7.269,0,0,0,2.825,2.913,8.338,8.338,0,0,0,8.054,0Z" style="fill:#fff"/><path d="M695.914,367.536h4.236v32.748h-4.236Z" style="fill:#fff"/><path d="M708.294,371.6a2.6,2.6,0,0,1-.817-1.942,2.678,2.678,0,0,1,.817-1.964,2.781,2.781,0,0,1,2.052-.816,2.872,2.872,0,0,1,2.052.772,2.537,2.537,0,0,1,.817,1.92,2.731,2.731,0,0,1-.817,2.008,2.781,2.781,0,0,1-2.052.817A2.82,2.82,0,0,1,708.294,371.6Zm-.066,5.3h4.236v23.391h-4.236Z" style="fill:#fff"/><path d="M721.732,399.776a12.1,12.1,0,0,1-4.148-1.963l1.765-3.355a12.674,12.674,0,0,0,3.752,1.766,15.443,15.443,0,0,0,4.458.662q5.561,0,5.56-3.178a2.058,2.058,0,0,0-.75-1.677,4.755,4.755,0,0,0-1.876-.905q-1.125-.285-3.2-.64a31.229,31.229,0,0,1-4.611-1.015,7.1,7.1,0,0,1-3.068-1.942,5.4,5.4,0,0,1-1.28-3.84,6,6,0,0,1,2.648-5.1,11.857,11.857,0,0,1,7.106-1.92,19.568,19.568,0,0,1,4.679.574,12.619,12.619,0,0,1,3.839,1.544l-1.809,3.355a12.168,12.168,0,0,0-6.753-1.854,7.8,7.8,0,0,0-4.105.883,2.664,2.664,0,0,0-1.413,2.339,2.231,2.231,0,0,0,.8,1.809,5,5,0,0,0,1.964.971q1.168.309,3.288.706a35.942,35.942,0,0,1,4.569,1.037,6.823,6.823,0,0,1,2.978,1.876,5.227,5.227,0,0,1,1.236,3.708,5.846,5.846,0,0,1-2.714,5.053,12.817,12.817,0,0,1-7.393,1.876A19.6,19.6,0,0,1,721.732,399.776Z" style="fill:#fff"/><path d="M762.227,379.254q2.625,2.582,2.626,7.569v13.461h-4.238V387.309a7.187,7.187,0,0,0-1.633-5.121,6.142,6.142,0,0,0-4.678-1.72,7.29,7.29,0,0,0-5.429,2.008,7.844,7.844,0,0,0-1.986,5.759v12.049h-4.237V367.536h4.237V380.2a8.719,8.719,0,0,1,3.465-2.6,11.91,11.91,0,0,1,4.789-.927A9.664,9.664,0,0,1,762.227,379.254Z" style="fill:#fff"/><path d="M820.838,379.231q2.583,2.56,2.582,7.592v13.461h-4.237V387.309a7.384,7.384,0,0,0-1.567-5.121,5.751,5.751,0,0,0-4.479-1.72,6.705,6.705,0,0,0-5.12,2.008,8.062,8.062,0,0,0-1.9,5.759v12.049h-4.237V387.309a7.384,7.384,0,0,0-1.567-5.121,5.751,5.751,0,0,0-4.48-1.72,6.706,6.706,0,0,0-5.119,2.008,8.063,8.063,0,0,0-1.9,5.759v12.049h-4.236V376.893h4.061v3.486A8.2,8.2,0,0,1,792,377.621a11.228,11.228,0,0,1,4.723-.949,10.367,10.367,0,0,1,4.855,1.1A7.674,7.674,0,0,1,804.839,381a8.975,8.975,0,0,1,3.685-3.178,12.024,12.024,0,0,1,5.319-1.147A9.5,9.5,0,0,1,820.838,379.231Z" style="fill:#fff"/><path d="M853.034,376.893v23.391h-4.016v-3.531a8.526,8.526,0,0,1-3.376,2.8,10.542,10.542,0,0,1-4.569.993,10.2,10.2,0,0,1-7.37-2.582q-2.694-2.582-2.692-7.613V376.893h4.236v12.975a7.261,7.261,0,0,0,1.634,5.142,6.093,6.093,0,0,0,4.678,1.743,6.981,6.981,0,0,0,5.3-2.03,7.972,7.972,0,0,0,1.942-5.738V376.893Z" style="fill:#fff"/><path d="M874.264,398.916a6.333,6.333,0,0,1-2.295,1.214,9.615,9.615,0,0,1-2.825.419,7.5,7.5,0,0,1-5.473-1.9,7.243,7.243,0,0,1-1.942-5.428V380.379h-3.972v-3.486h3.972v-5.12h4.237v5.12h6.709v3.486h-6.709v12.667a4.107,4.107,0,0,0,.949,2.913,3.531,3.531,0,0,0,2.714,1.015,5.108,5.108,0,0,0,3.31-1.1Z" style="fill:#fff"/><path d="M901.186,376.893v23.391h-4.017v-3.531a8.526,8.526,0,0,1-3.376,2.8,10.538,10.538,0,0,1-4.568.993,10.205,10.205,0,0,1-7.371-2.582q-2.693-2.582-2.692-7.613V376.893H883.4v12.975a7.261,7.261,0,0,0,1.634,5.142,6.094,6.094,0,0,0,4.678,1.743,6.985,6.985,0,0,0,5.3-2.03,7.971,7.971,0,0,0,1.941-5.738V376.893Z" style="fill:#fff"/><path d="M925.217,379.055q2.582,2.383,2.581,7.106v14.123h-4.016v-3.09a6.7,6.7,0,0,1-3.023,2.494,11.541,11.541,0,0,1-4.656.861,9.739,9.739,0,0,1-6.29-1.9,6.524,6.524,0,0,1-.11-9.953q2.25-1.875,7.15-1.875h6.709v-.839a5.409,5.409,0,0,0-1.589-4.193,6.7,6.7,0,0,0-4.679-1.456,12.369,12.369,0,0,0-4.061.685,10.456,10.456,0,0,0-3.354,1.831l-1.765-3.178a12.809,12.809,0,0,1,4.325-2.229,18.126,18.126,0,0,1,5.34-.772Q922.634,376.672,925.217,379.055ZM921,396.2a6.192,6.192,0,0,0,2.561-3.067v-3.266h-6.533q-5.385,0-5.384,3.619a3.275,3.275,0,0,0,1.368,2.781,6.253,6.253,0,0,0,3.8,1.015A7.858,7.858,0,0,0,921,396.2Z" style="fill:#fff"/><path d="M935.654,367.536h4.237v32.748h-4.237Z" style="fill:#fff"/><path d="M972.992,398.916a6.333,6.333,0,0,1-2.295,1.214,9.61,9.61,0,0,1-2.825.419,7.5,7.5,0,0,1-5.473-1.9,7.243,7.243,0,0,1-1.942-5.428V380.379h-3.972v-3.486h3.972v-5.12h4.237v5.12H971.4v3.486h-6.709v12.667a4.107,4.107,0,0,0,.95,2.913,3.529,3.529,0,0,0,2.713,1.015,5.111,5.111,0,0,0,3.311-1.1Z" style="fill:#fff"/><path d="M985.438,377.731a11.851,11.851,0,0,1,5.251-1.059v4.1a8.359,8.359,0,0,0-.97-.044,7.126,7.126,0,0,0-5.406,2.052,8.125,8.125,0,0,0-1.965,5.849v11.651h-4.237V376.893h4.061v3.927A7.216,7.216,0,0,1,985.438,377.731Z" style="fill:#fff"/><path d="M1018.009,376.893v23.391h-4.017v-3.531a8.512,8.512,0,0,1-3.376,2.8,10.538,10.538,0,0,1-4.568.993,10.2,10.2,0,0,1-7.37-2.582q-2.694-2.582-2.693-7.613V376.893h4.237v12.975a7.265,7.265,0,0,0,1.633,5.142,6.094,6.094,0,0,0,4.678,1.743,6.983,6.983,0,0,0,5.3-2.03,7.971,7.971,0,0,0,1.941-5.738V376.893Z" style="fill:#fff"/><path d="M1027.276,399.776a12.1,12.1,0,0,1-4.148-1.963l1.765-3.355a12.674,12.674,0,0,0,3.752,1.766,15.443,15.443,0,0,0,4.458.662q5.56,0,5.56-3.178a2.058,2.058,0,0,0-.75-1.677,4.755,4.755,0,0,0-1.876-.905q-1.125-.285-3.2-.64a31.229,31.229,0,0,1-4.611-1.015,7.1,7.1,0,0,1-3.068-1.942,5.4,5.4,0,0,1-1.28-3.84,6,6,0,0,1,2.648-5.1,11.857,11.857,0,0,1,7.106-1.92,19.568,19.568,0,0,1,4.679.574,12.619,12.619,0,0,1,3.839,1.544l-1.809,3.355a12.168,12.168,0,0,0-6.753-1.854,7.8,7.8,0,0,0-4.105.883,2.664,2.664,0,0,0-1.413,2.339,2.231,2.231,0,0,0,.8,1.809,5,5,0,0,0,1.964.971q1.168.309,3.288.706a35.982,35.982,0,0,1,4.569,1.037,6.823,6.823,0,0,1,2.978,1.876,5.227,5.227,0,0,1,1.236,3.708,5.846,5.846,0,0,1-2.714,5.053,12.817,12.817,0,0,1-7.393,1.876A19.6,19.6,0,0,1,1027.276,399.776Z" style="fill:#fff"/><path d="M1061.349,398.916a6.342,6.342,0,0,1-2.295,1.214,9.615,9.615,0,0,1-2.825.419,7.5,7.5,0,0,1-5.473-1.9,7.243,7.243,0,0,1-1.943-5.428V380.379h-3.971v-3.486h3.971v-5.12h4.238v5.12h6.709v3.486h-6.709v12.667a4.107,4.107,0,0,0,.949,2.913,3.531,3.531,0,0,0,2.714,1.015,5.108,5.108,0,0,0,3.31-1.1Z" style="fill:#fff"/><path d="M1078.407,371.6a2.6,2.6,0,0,1-.817-1.942,2.678,2.678,0,0,1,.817-1.964,2.783,2.783,0,0,1,2.052-.816,2.876,2.876,0,0,1,2.053.772,2.536,2.536,0,0,1,.816,1.92,2.73,2.73,0,0,1-.816,2.008,2.785,2.785,0,0,1-2.053.817A2.822,2.822,0,0,1,1078.407,371.6Zm-.066,5.3h4.236v23.391h-4.236Z" style="fill:#fff"/><path d="M1110.228,379.254q2.625,2.582,2.626,7.569v13.461h-4.238V387.309a7.187,7.187,0,0,0-1.633-5.121,6.142,6.142,0,0,0-4.678-1.72,7.29,7.29,0,0,0-5.429,2.008,7.844,7.844,0,0,0-1.986,5.759v12.049h-4.237V376.893h4.061v3.53a8.228,8.228,0,0,1,3.464-2.78,12.116,12.116,0,0,1,4.966-.971A9.664,9.664,0,0,1,1110.228,379.254Z" style="fill:#fff"/></g><g style="isolation:isolate"><path d="M66.378,451.879a6.349,6.349,0,0,1-2.3,1.214,9.6,9.6,0,0,1-2.825.419,7.5,7.5,0,0,1-5.473-1.9,7.242,7.242,0,0,1-1.941-5.428V433.342H49.871v-3.487h3.973v-5.119H58.08v5.119h6.709v3.487H58.08v12.667a4.108,4.108,0,0,0,.949,2.913,3.534,3.534,0,0,0,2.715,1.015,5.11,5.11,0,0,0,3.31-1.1Z" style="fill:#fff"/><path d="M91.756,442.964H72.777a7.346,7.346,0,0,0,2.715,4.965,8.852,8.852,0,0,0,5.759,1.876A8.673,8.673,0,0,0,88,446.979l2.34,2.737a10.245,10.245,0,0,1-3.95,2.825,14.894,14.894,0,0,1-11.851-.552,10.849,10.849,0,0,1-4.436-4.259,12.213,12.213,0,0,1-1.567-6.179,12.406,12.406,0,0,1,1.523-6.135,10.916,10.916,0,0,1,4.193-4.259,11.943,11.943,0,0,1,6.024-1.522,11.7,11.7,0,0,1,5.981,1.522,10.705,10.705,0,0,1,4.1,4.259,12.976,12.976,0,0,1,1.479,6.268A12.367,12.367,0,0,1,91.756,442.964Zm-16.573-7.9a7.475,7.475,0,0,0-2.406,4.855H87.783a7.524,7.524,0,0,0-2.405-4.833,7.9,7.9,0,0,0-10.195-.022Z" style="fill:#fff"/><path d="M105.04,430.694a11.852,11.852,0,0,1,5.252-1.059v4.1a8.367,8.367,0,0,0-.971-.044,7.128,7.128,0,0,0-5.406,2.052,8.123,8.123,0,0,0-1.964,5.849v11.651H97.714V429.855h4.06v3.928A7.235,7.235,0,0,1,105.04,430.694Z" style="fill:#fff"/><path d="M151.758,432.194q2.582,2.56,2.582,7.592v13.461H150.1V440.271a7.378,7.378,0,0,0-1.567-5.12,5.749,5.749,0,0,0-4.478-1.72,6.712,6.712,0,0,0-5.121,2.007,8.066,8.066,0,0,0-1.9,5.76v12.049H132.8V440.271a7.378,7.378,0,0,0-1.567-5.12,5.751,5.751,0,0,0-4.48-1.72,6.707,6.707,0,0,0-5.118,2.007,8.067,8.067,0,0,0-1.9,5.76v12.049H115.5V429.855h4.061v3.487a8.222,8.222,0,0,1,3.354-2.759,11.238,11.238,0,0,1,4.722-.948,10.364,10.364,0,0,1,4.855,1.1,7.674,7.674,0,0,1,3.266,3.222,8.975,8.975,0,0,1,3.685-3.178,12.031,12.031,0,0,1,5.319-1.147A9.5,9.5,0,0,1,151.758,432.194Z" style="fill:#fff"/><path d="M163.343,452.739a12.08,12.08,0,0,1-4.149-1.964l1.765-3.354a12.674,12.674,0,0,0,3.752,1.766,15.448,15.448,0,0,0,4.458.662q5.56,0,5.56-3.178a2.058,2.058,0,0,0-.75-1.677,4.744,4.744,0,0,0-1.875-.905q-1.125-.286-3.2-.64a31.389,31.389,0,0,1-4.611-1.015,7.094,7.094,0,0,1-3.067-1.942,5.4,5.4,0,0,1-1.281-3.84,5.994,5.994,0,0,1,2.649-5.1,11.847,11.847,0,0,1,7.105-1.92,19.611,19.611,0,0,1,4.679.573,12.614,12.614,0,0,1,3.84,1.545l-1.81,3.354a12.175,12.175,0,0,0-6.753-1.853,7.8,7.8,0,0,0-4.1.883,2.662,2.662,0,0,0-1.413,2.339,2.228,2.228,0,0,0,.795,1.809,4.989,4.989,0,0,0,1.964.971q1.169.309,3.288.706A35.961,35.961,0,0,1,174.752,441a6.823,6.823,0,0,1,2.978,1.876,5.222,5.222,0,0,1,1.237,3.708,5.845,5.845,0,0,1-2.715,5.053,12.815,12.815,0,0,1-7.393,1.876A19.589,19.589,0,0,1,163.343,452.739Z" style="fill:#fff"/><path d="M199.886,451.967a11.187,11.187,0,0,1-4.347-4.259,12.877,12.877,0,0,1,0-12.313,11.04,11.04,0,0,1,4.347-4.238,13.618,13.618,0,0,1,12.512,0,11.091,11.091,0,0,1,4.326,4.238,12.885,12.885,0,0,1,0,12.313,11.24,11.24,0,0,1-4.326,4.259,13.438,13.438,0,0,1-12.512,0Zm10.305-3.2a7.324,7.324,0,0,0,2.8-2.914,9.62,9.62,0,0,0,0-8.606,7.176,7.176,0,0,0-2.8-2.891,8.54,8.54,0,0,0-8.076,0,7.319,7.319,0,0,0-2.825,2.891,9.446,9.446,0,0,0,0,8.606,7.472,7.472,0,0,0,2.825,2.914,8.38,8.38,0,0,0,8.076,0Z" style="fill:#fff"/><path d="M228.928,427.825v2.03h6.8v3.487h-6.709v19.905h-4.238V433.342h-3.971v-3.487h3.971v-2.074a7.455,7.455,0,0,1,2.031-5.517,7.7,7.7,0,0,1,5.694-2.03,9.616,9.616,0,0,1,2.647.353,6.484,6.484,0,0,1,2.12,1.015l-1.281,3.222a5.274,5.274,0,0,0-3.266-1.1Q228.927,423.721,228.928,427.825Z" style="fill:#fff"/><path d="M273.68,420.5v32.748h-4.061V449.54a9.175,9.175,0,0,1-3.575,2.957,11.07,11.07,0,0,1-4.767,1.015,12.3,12.3,0,0,1-6.09-1.5,10.754,10.754,0,0,1-4.215-4.216,13.52,13.52,0,0,1,0-12.468,10.8,10.8,0,0,1,4.215-4.193,12.3,12.3,0,0,1,6.09-1.5,11.215,11.215,0,0,1,4.635.948,9,9,0,0,1,3.53,2.8V420.5Zm-8.033,28.269a7.278,7.278,0,0,0,2.825-2.914,9.629,9.629,0,0,0,0-8.606,7.132,7.132,0,0,0-2.825-2.891,8.5,8.5,0,0,0-8.054,0,7.312,7.312,0,0,0-2.825,2.891,9.438,9.438,0,0,0,0,8.606,7.465,7.465,0,0,0,2.825,2.914,8.338,8.338,0,0,0,8.054,0Z" style="fill:#fff"/><path d="M297.668,432.018q2.582,2.382,2.581,7.106v14.123h-4.016v-3.09a6.7,6.7,0,0,1-3.023,2.494,11.538,11.538,0,0,1-4.656.861,9.736,9.736,0,0,1-6.289-1.9,6.081,6.081,0,0,1-2.362-4.987,6.143,6.143,0,0,1,2.251-4.966q2.25-1.875,7.15-1.875h6.709v-.839a5.409,5.409,0,0,0-1.589-4.193,6.7,6.7,0,0,0-4.679-1.456,12.384,12.384,0,0,0-4.06.684,10.47,10.47,0,0,0-3.355,1.831l-1.765-3.177a12.8,12.8,0,0,1,4.326-2.229,18.119,18.119,0,0,1,5.339-.772Q295.085,429.635,297.668,432.018Zm-4.216,17.146a6.192,6.192,0,0,0,2.561-3.067v-3.266H289.48q-5.384,0-5.384,3.619a3.272,3.272,0,0,0,1.368,2.78,6.249,6.249,0,0,0,3.8,1.016A7.858,7.858,0,0,0,293.452,449.164Z" style="fill:#fff"/><path d="M321.258,451.879a6.349,6.349,0,0,1-2.295,1.214,9.615,9.615,0,0,1-2.825.419,7.5,7.5,0,0,1-5.473-1.9,7.243,7.243,0,0,1-1.942-5.428V433.342h-3.972v-3.487h3.972v-5.119h4.237v5.119h6.709v3.487H312.96v12.667a4.108,4.108,0,0,0,.949,2.913,3.531,3.531,0,0,0,2.714,1.015,5.112,5.112,0,0,0,3.311-1.1Z" style="fill:#fff"/><path d="M342.332,432.018q2.582,2.382,2.581,7.106v14.123H340.9v-3.09a6.7,6.7,0,0,1-3.023,2.494,11.538,11.538,0,0,1-4.656.861,9.736,9.736,0,0,1-6.289-1.9,6.523,6.523,0,0,1-.111-9.953q2.25-1.875,7.15-1.875h6.709v-.839a5.409,5.409,0,0,0-1.589-4.193,6.7,6.7,0,0,0-4.679-1.456,12.384,12.384,0,0,0-4.06.684,10.47,10.47,0,0,0-3.355,1.831l-1.765-3.177a12.814,12.814,0,0,1,4.326-2.229,18.121,18.121,0,0,1,5.34-.772Q339.749,429.635,342.332,432.018Zm-4.216,17.146a6.192,6.192,0,0,0,2.561-3.067v-3.266h-6.532q-5.385,0-5.385,3.619a3.272,3.272,0,0,0,1.368,2.78,6.249,6.249,0,0,0,3.8,1.016A7.858,7.858,0,0,0,338.116,449.164Z" style="fill:#fff"/><path d="M365.833,452.739a12.074,12.074,0,0,1-4.148-1.964l1.764-3.354a12.674,12.674,0,0,0,3.752,1.766,15.448,15.448,0,0,0,4.458.662q5.56,0,5.561-3.178a2.058,2.058,0,0,0-.75-1.677,4.755,4.755,0,0,0-1.876-.905q-1.125-.286-3.2-.64a31.406,31.406,0,0,1-4.612-1.015,7.094,7.094,0,0,1-3.067-1.942,5.4,5.4,0,0,1-1.28-3.84,5.993,5.993,0,0,1,2.648-5.1,11.849,11.849,0,0,1,7.1-1.92,19.605,19.605,0,0,1,4.679.573,12.614,12.614,0,0,1,3.84,1.545l-1.81,3.354a12.174,12.174,0,0,0-6.752-1.853,7.8,7.8,0,0,0-4.1.883,2.664,2.664,0,0,0-1.413,2.339,2.231,2.231,0,0,0,.8,1.809,4.989,4.989,0,0,0,1.964.971q1.168.309,3.288.706A35.921,35.921,0,0,1,377.242,441a6.832,6.832,0,0,1,2.979,1.876,5.227,5.227,0,0,1,1.236,3.708,5.845,5.845,0,0,1-2.715,5.053,12.811,12.811,0,0,1-7.392,1.876A19.6,19.6,0,0,1,365.833,452.739Z" style="fill:#fff"/><path d="M406.327,432.217q2.625,2.582,2.626,7.569v13.461h-4.237V440.271a7.186,7.186,0,0,0-1.633-5.12,6.144,6.144,0,0,0-4.679-1.72,7.291,7.291,0,0,0-5.428,2.007,7.844,7.844,0,0,0-1.987,5.76v12.049h-4.236V420.5h4.236v12.667a8.726,8.726,0,0,1,3.465-2.6,11.917,11.917,0,0,1,4.789-.927A9.663,9.663,0,0,1,406.327,432.217Z" style="fill:#fff"/><path d="M432.765,432.018q2.58,2.382,2.581,7.106v14.123H431.33v-3.09a6.7,6.7,0,0,1-3.023,2.494,11.543,11.543,0,0,1-4.657.861,9.738,9.738,0,0,1-6.289-1.9,6.524,6.524,0,0,1-.11-9.953q2.25-1.875,7.149-1.875h6.709v-.839a5.408,5.408,0,0,0-1.588-4.193,6.706,6.706,0,0,0-4.679-1.456,12.39,12.39,0,0,0-4.061.684,10.475,10.475,0,0,0-3.354,1.831l-1.765-3.177a12.809,12.809,0,0,1,4.325-2.229,18.126,18.126,0,0,1,5.34-.772Q430.181,429.635,432.765,432.018Zm-4.216,17.146a6.185,6.185,0,0,0,2.56-3.067v-3.266h-6.532q-5.385,0-5.385,3.619a3.27,3.27,0,0,0,1.369,2.78,6.245,6.245,0,0,0,3.8,1.016A7.859,7.859,0,0,0,428.549,449.164Z" style="fill:#fff"/><path d="M450.528,430.694a11.858,11.858,0,0,1,5.252-1.059v4.1a8.359,8.359,0,0,0-.97-.044,7.13,7.13,0,0,0-5.407,2.052,8.128,8.128,0,0,0-1.965,5.849v11.651H443.2V429.855h4.061v3.928A7.218,7.218,0,0,1,450.528,430.694Z" style="fill:#fff"/><path d="M461.055,424.559a2.6,2.6,0,0,1-.818-1.942,2.679,2.679,0,0,1,.818-1.964,2.781,2.781,0,0,1,2.051-.817,2.876,2.876,0,0,1,2.053.773,2.537,2.537,0,0,1,.817,1.92,2.731,2.731,0,0,1-.817,2.008,2.783,2.783,0,0,1-2.053.817A2.819,2.819,0,0,1,461.055,424.559Zm-.067,5.3h4.237v23.392h-4.237Z" style="fill:#fff"/><path d="M492.876,432.217q2.625,2.582,2.626,7.569v13.461h-4.237V440.271a7.186,7.186,0,0,0-1.633-5.12,6.145,6.145,0,0,0-4.679-1.72,7.294,7.294,0,0,0-5.429,2.007,7.848,7.848,0,0,0-1.986,5.76v12.049H473.3V429.855h4.06v3.531a8.244,8.244,0,0,1,3.464-2.781,12.133,12.133,0,0,1,4.966-.97A9.663,9.663,0,0,1,492.876,432.217Z" style="fill:#fff"/><path d="M525.866,429.855v20.214q0,6.135-3.045,9.07t-9.092,2.935a21.753,21.753,0,0,1-6.311-.905,12.506,12.506,0,0,1-4.855-2.581l2.031-3.267a11.944,11.944,0,0,0,4.038,2.229,15.324,15.324,0,0,0,4.965.817q4.1,0,6.069-1.942t1.964-5.914v-1.854a9.368,9.368,0,0,1-3.686,2.714,12.26,12.26,0,0,1-4.744.905,12.786,12.786,0,0,1-6.069-1.434,10.657,10.657,0,0,1-4.259-4.017,12.007,12.007,0,0,1,0-11.784,10.514,10.514,0,0,1,4.259-3.994,12.94,12.94,0,0,1,6.069-1.412,12.421,12.421,0,0,1,4.921.97,9.147,9.147,0,0,1,3.73,2.87v-3.62ZM517.812,447.6a7.192,7.192,0,0,0,2.869-2.714,7.58,7.58,0,0,0,1.037-3.95,7.161,7.161,0,0,0-2.251-5.5,9.084,9.084,0,0,0-11.608,0,7.161,7.161,0,0,0-2.251,5.5,7.572,7.572,0,0,0,1.038,3.95,7.173,7.173,0,0,0,2.869,2.714,8.765,8.765,0,0,0,4.171.97A8.676,8.676,0,0,0,517.812,447.6Z" style="fill:#fff"/><path d="M561.771,432.018q2.58,2.382,2.581,7.106v14.123h-4.016v-3.09a6.7,6.7,0,0,1-3.023,2.494,11.543,11.543,0,0,1-4.657.861,9.736,9.736,0,0,1-6.289-1.9,6.524,6.524,0,0,1-.11-9.953q2.25-1.875,7.149-1.875h6.709v-.839a5.405,5.405,0,0,0-1.589-4.193,6.7,6.7,0,0,0-4.678-1.456,12.39,12.39,0,0,0-4.061.684,10.475,10.475,0,0,0-3.354,1.831l-1.765-3.177a12.8,12.8,0,0,1,4.325-2.229,18.126,18.126,0,0,1,5.34-.772Q559.187,429.635,561.771,432.018Zm-4.216,17.146a6.19,6.19,0,0,0,2.56-3.067v-3.266h-6.532q-5.385,0-5.385,3.619a3.272,3.272,0,0,0,1.368,2.78,6.251,6.251,0,0,0,3.8,1.016A7.862,7.862,0,0,0,557.555,449.164Z" style="fill:#fff"/><path d="M591.782,432.217q2.625,2.582,2.626,7.569v13.461h-4.237V440.271a7.186,7.186,0,0,0-1.633-5.12,6.144,6.144,0,0,0-4.679-1.72,7.291,7.291,0,0,0-5.428,2.007,7.844,7.844,0,0,0-1.987,5.76v12.049h-4.236V429.855h4.061v3.531a8.234,8.234,0,0,1,3.463-2.781,12.136,12.136,0,0,1,4.966-.97A9.663,9.663,0,0,1,591.782,432.217Z" style="fill:#fff"/><path d="M624.463,420.5v32.748H620.4V449.54a9.168,9.168,0,0,1-3.575,2.957,11.069,11.069,0,0,1-4.766,1.015,12.3,12.3,0,0,1-6.091-1.5,10.761,10.761,0,0,1-4.215-4.216,13.52,13.52,0,0,1,0-12.468,10.808,10.808,0,0,1,4.215-4.193,12.3,12.3,0,0,1,6.091-1.5,11.214,11.214,0,0,1,4.634.948,9.014,9.014,0,0,1,3.531,2.8V420.5Zm-8.032,28.269a7.282,7.282,0,0,0,2.824-2.914,9.62,9.62,0,0,0,0-8.606,7.136,7.136,0,0,0-2.824-2.891,8.5,8.5,0,0,0-8.055,0,7.319,7.319,0,0,0-2.825,2.891,9.446,9.446,0,0,0,0,8.606,7.472,7.472,0,0,0,2.825,2.914,8.339,8.339,0,0,0,8.055,0Z" style="fill:#fff"/><path d="M666.436,420.5v32.748h-4.061V449.54A9.175,9.175,0,0,1,658.8,452.5a11.073,11.073,0,0,1-4.767,1.015,12.3,12.3,0,0,1-6.091-1.5,10.752,10.752,0,0,1-4.214-4.216,13.52,13.52,0,0,1,0-12.468,10.8,10.8,0,0,1,4.214-4.193,12.3,12.3,0,0,1,6.091-1.5,11.215,11.215,0,0,1,4.635.948,9,9,0,0,1,3.53,2.8V420.5ZM658.4,448.768a7.285,7.285,0,0,0,2.825-2.914,9.629,9.629,0,0,0,0-8.606,7.138,7.138,0,0,0-2.825-2.891,8.5,8.5,0,0,0-8.054,0,7.321,7.321,0,0,0-2.826,2.891,9.446,9.446,0,0,0,0,8.606,7.475,7.475,0,0,0,2.826,2.914,8.338,8.338,0,0,0,8.054,0Z" style="fill:#fff"/><path d="M695.521,442.964H676.542a7.348,7.348,0,0,0,2.714,4.965,8.857,8.857,0,0,0,5.76,1.876,8.676,8.676,0,0,0,6.753-2.826l2.338,2.737a10.222,10.222,0,0,1-3.95,2.825,14.89,14.89,0,0,1-11.849-.552,10.849,10.849,0,0,1-4.436-4.259,12.2,12.2,0,0,1-1.567-6.179,12.416,12.416,0,0,1,1.522-6.135,10.918,10.918,0,0,1,4.194-4.259,11.94,11.94,0,0,1,6.024-1.522,11.706,11.706,0,0,1,5.98,1.522,10.708,10.708,0,0,1,4.105,4.259,12.987,12.987,0,0,1,1.478,6.268A12.32,12.32,0,0,1,695.521,442.964Zm-16.574-7.9a7.474,7.474,0,0,0-2.4,4.855h15.006a7.524,7.524,0,0,0-2.4-4.833,7.9,7.9,0,0,0-10.2-.022Z" style="fill:#fff"/><path d="M721.737,429.855,711.5,453.247h-4.325l-10.239-23.392h4.413l8.033,18.758,8.209-18.758Z" style="fill:#fff"/><path d="M746.1,442.964H727.121a7.348,7.348,0,0,0,2.714,4.965,8.857,8.857,0,0,0,5.76,1.876,8.676,8.676,0,0,0,6.753-2.826l2.339,2.737a10.226,10.226,0,0,1-3.951,2.825,14.89,14.89,0,0,1-11.849-.552,10.849,10.849,0,0,1-4.436-4.259,12.2,12.2,0,0,1-1.567-6.179,12.416,12.416,0,0,1,1.522-6.135,10.918,10.918,0,0,1,4.194-4.259,11.94,11.94,0,0,1,6.024-1.522,11.7,11.7,0,0,1,5.98,1.522,10.708,10.708,0,0,1,4.1,4.259,12.988,12.988,0,0,1,1.479,6.268A12.367,12.367,0,0,1,746.1,442.964Zm-16.574-7.9a7.474,7.474,0,0,0-2.4,4.855h15.006a7.524,7.524,0,0,0-2.4-4.833,7.9,7.9,0,0,0-10.2-.022Z" style="fill:#fff"/><path d="M752.058,420.5h4.236v32.748h-4.236Z" style="fill:#fff"/><path d="M768.122,451.967a11.193,11.193,0,0,1-4.347-4.259,12.877,12.877,0,0,1,0-12.313,11.047,11.047,0,0,1,4.347-4.238,13.62,13.62,0,0,1,12.513,0,11.089,11.089,0,0,1,4.325,4.238,12.885,12.885,0,0,1,0,12.313,11.238,11.238,0,0,1-4.325,4.259,13.44,13.44,0,0,1-12.513,0Zm10.306-3.2a7.322,7.322,0,0,0,2.8-2.914,9.62,9.62,0,0,0,0-8.606,7.173,7.173,0,0,0-2.8-2.891,8.54,8.54,0,0,0-8.076,0,7.321,7.321,0,0,0-2.826,2.891,9.446,9.446,0,0,0,0,8.606,7.475,7.475,0,0,0,2.826,2.914,8.38,8.38,0,0,0,8.076,0Z" style="fill:#fff"/><path d="M810.89,431.135a10.792,10.792,0,0,1,4.214,4.193,13.512,13.512,0,0,1,0,12.468,10.745,10.745,0,0,1-4.214,4.216,12.3,12.3,0,0,1-6.091,1.5,10.835,10.835,0,0,1-4.611-.971,9.571,9.571,0,0,1-3.554-2.825V461.81H792.4V429.855h4.061v3.708a9,9,0,0,1,3.574-2.936,11.3,11.3,0,0,1,4.767-.992A12.3,12.3,0,0,1,810.89,431.135Zm-2.406,17.633a7.489,7.489,0,0,0,2.826-2.914,9.446,9.446,0,0,0,0-8.606,7.334,7.334,0,0,0-2.826-2.891,8.038,8.038,0,0,0-4.038-1.015,7.817,7.817,0,0,0-3.994,1.037,7.508,7.508,0,0,0-2.825,2.892,8.621,8.621,0,0,0-1.037,4.28,8.891,8.891,0,0,0,1.015,4.3,7.272,7.272,0,0,0,2.825,2.914,8.338,8.338,0,0,0,8.054,0Z" style="fill:#fff"/><path d="M856.437,420.5v32.748h-4.061V449.54A9.175,9.175,0,0,1,848.8,452.5a11.073,11.073,0,0,1-4.767,1.015,12.3,12.3,0,0,1-6.091-1.5,10.752,10.752,0,0,1-4.214-4.216,13.52,13.52,0,0,1,0-12.468,10.8,10.8,0,0,1,4.214-4.193,12.3,12.3,0,0,1,6.091-1.5,11.215,11.215,0,0,1,4.635.948,9,9,0,0,1,3.53,2.8V420.5ZM848.4,448.768a7.285,7.285,0,0,0,2.825-2.914,9.629,9.629,0,0,0,0-8.606,7.138,7.138,0,0,0-2.825-2.891,8.5,8.5,0,0,0-8.054,0,7.321,7.321,0,0,0-2.826,2.891,9.446,9.446,0,0,0,0,8.606,7.475,7.475,0,0,0,2.826,2.914,8.338,8.338,0,0,0,8.054,0Z" style="fill:#fff"/><path d="M880.425,432.018q2.582,2.382,2.581,7.106v14.123H878.99v-3.09a6.7,6.7,0,0,1-3.023,2.494,11.541,11.541,0,0,1-4.656.861,9.739,9.739,0,0,1-6.29-1.9,6.524,6.524,0,0,1-.11-9.953q2.25-1.875,7.15-1.875h6.709v-.839a5.409,5.409,0,0,0-1.589-4.193A6.7,6.7,0,0,0,872.5,433.3a12.394,12.394,0,0,0-4.061.684,10.475,10.475,0,0,0-3.354,1.831l-1.765-3.177a12.809,12.809,0,0,1,4.325-2.229,18.126,18.126,0,0,1,5.34-.772Q877.843,429.635,880.425,432.018Zm-4.216,17.146a6.192,6.192,0,0,0,2.561-3.067v-3.266h-6.533q-5.385,0-5.384,3.619a3.272,3.272,0,0,0,1.368,2.78,6.247,6.247,0,0,0,3.8,1.016A7.858,7.858,0,0,0,876.209,449.164Z" style="fill:#fff"/><path d="M904.015,451.879a6.357,6.357,0,0,1-2.295,1.214,9.615,9.615,0,0,1-2.825.419,7.5,7.5,0,0,1-5.473-1.9,7.243,7.243,0,0,1-1.943-5.428V433.342h-3.971v-3.487h3.971v-5.119h4.238v5.119h6.709v3.487h-6.709v12.667a4.108,4.108,0,0,0,.949,2.913,3.531,3.531,0,0,0,2.714,1.015,5.108,5.108,0,0,0,3.31-1.1Z" style="fill:#fff"/><path d="M925.089,432.018q2.581,2.382,2.581,7.106v14.123h-4.016v-3.09a6.7,6.7,0,0,1-3.023,2.494,11.538,11.538,0,0,1-4.656.861,9.735,9.735,0,0,1-6.289-1.9,6.081,6.081,0,0,1-2.362-4.987,6.143,6.143,0,0,1,2.251-4.966q2.25-1.875,7.15-1.875h6.709v-.839a5.409,5.409,0,0,0-1.589-4.193,6.7,6.7,0,0,0-4.679-1.456,12.394,12.394,0,0,0-4.061.684,10.475,10.475,0,0,0-3.354,1.831l-1.765-3.177a12.8,12.8,0,0,1,4.326-2.229,18.119,18.119,0,0,1,5.339-.772Q922.507,429.635,925.089,432.018Zm-4.216,17.146a6.192,6.192,0,0,0,2.561-3.067v-3.266H916.9q-5.383,0-5.384,3.619a3.272,3.272,0,0,0,1.368,2.78,6.249,6.249,0,0,0,3.8,1.016A7.858,7.858,0,0,0,920.873,449.164Z" style="fill:#fff"/><path d="M954.725,430.694a11.852,11.852,0,0,1,5.252-1.059v4.1a8.391,8.391,0,0,0-.971-.044,7.126,7.126,0,0,0-5.406,2.052,8.124,8.124,0,0,0-1.965,5.849v11.651H947.4V429.855h4.061v3.928A7.216,7.216,0,0,1,954.725,430.694Z" style="fill:#fff"/><path d="M986.017,442.964H967.038a7.348,7.348,0,0,0,2.714,4.965,8.857,8.857,0,0,0,5.76,1.876,8.676,8.676,0,0,0,6.753-2.826l2.339,2.737a10.226,10.226,0,0,1-3.951,2.825,14.89,14.89,0,0,1-11.849-.552,10.849,10.849,0,0,1-4.436-4.259,12.2,12.2,0,0,1-1.567-6.179,12.416,12.416,0,0,1,1.522-6.135,10.918,10.918,0,0,1,4.194-4.259,11.94,11.94,0,0,1,6.024-1.522,11.7,11.7,0,0,1,5.98,1.522,10.708,10.708,0,0,1,4.105,4.259,12.987,12.987,0,0,1,1.478,6.268A12.32,12.32,0,0,1,986.017,442.964Zm-16.574-7.9a7.474,7.474,0,0,0-2.4,4.855h15.006a7.524,7.524,0,0,0-2.4-4.833,7.9,7.9,0,0,0-10.2-.022Z" style="fill:#fff"/><path d="M991.976,420.5h4.236v32.748h-4.236Z" style="fill:#fff"/><path d="M1020.243,432.018q2.582,2.382,2.581,7.106v14.123h-4.015v-3.09a6.7,6.7,0,0,1-3.024,2.494,11.534,11.534,0,0,1-4.656.861,9.736,9.736,0,0,1-6.289-1.9,6.083,6.083,0,0,1-2.361-4.987,6.145,6.145,0,0,1,2.25-4.966q2.25-1.875,7.15-1.875h6.709v-.839a5.405,5.405,0,0,0-1.589-4.193,6.7,6.7,0,0,0-4.679-1.456,12.388,12.388,0,0,0-4.06.684,10.481,10.481,0,0,0-3.355,1.831l-1.764-3.177a12.8,12.8,0,0,1,4.325-2.229,18.126,18.126,0,0,1,5.34-.772Q1017.66,429.635,1020.243,432.018Zm-4.216,17.146a6.187,6.187,0,0,0,2.561-3.067v-3.266h-6.532q-5.385,0-5.385,3.619a3.272,3.272,0,0,0,1.368,2.78,6.249,6.249,0,0,0,3.8,1.016A7.856,7.856,0,0,0,1016.027,449.164Z" style="fill:#fff"/><path d="M1043.833,451.879a6.349,6.349,0,0,1-2.3,1.214,9.61,9.61,0,0,1-2.825.419,7.5,7.5,0,0,1-5.473-1.9,7.243,7.243,0,0,1-1.942-5.428V433.342h-3.972v-3.487h3.972v-5.119h4.237v5.119h6.709v3.487h-6.709v12.667a4.113,4.113,0,0,0,.949,2.913,3.531,3.531,0,0,0,2.714,1.015,5.111,5.111,0,0,0,3.311-1.1Z" style="fill:#fff"/><path d="M1069.211,442.964h-18.979a7.348,7.348,0,0,0,2.714,4.965,8.857,8.857,0,0,0,5.76,1.876,8.676,8.676,0,0,0,6.753-2.826l2.339,2.737a10.23,10.23,0,0,1-3.95,2.825,14.892,14.892,0,0,1-11.85-.552,10.841,10.841,0,0,1-4.435-4.259,12.2,12.2,0,0,1-1.568-6.179,12.406,12.406,0,0,1,1.523-6.135,10.916,10.916,0,0,1,4.193-4.259,11.94,11.94,0,0,1,6.024-1.522,11.707,11.707,0,0,1,5.981,1.522,10.705,10.705,0,0,1,4.1,4.259,12.976,12.976,0,0,1,1.479,6.268A12.091,12.091,0,0,1,1069.211,442.964Zm-16.573-7.9a7.48,7.48,0,0,0-2.406,4.855h15.006a7.524,7.524,0,0,0-2.4-4.833,7.9,7.9,0,0,0-10.2-.022Z" style="fill:#fff"/><path d="M1097.236,420.5v32.748h-4.06V449.54a9.182,9.182,0,0,1-3.575,2.957,11.076,11.076,0,0,1-4.767,1.015,12.3,12.3,0,0,1-6.091-1.5,10.761,10.761,0,0,1-4.215-4.216,13.528,13.528,0,0,1,0-12.468,10.808,10.808,0,0,1,4.215-4.193,12.3,12.3,0,0,1,6.091-1.5,11.215,11.215,0,0,1,4.635.948,9,9,0,0,1,3.53,2.8V420.5Zm-8.032,28.269a7.276,7.276,0,0,0,2.824-2.914,9.62,9.62,0,0,0,0-8.606,7.13,7.13,0,0,0-2.824-2.891,8.5,8.5,0,0,0-8.055,0,7.325,7.325,0,0,0-2.825,2.891,9.446,9.446,0,0,0,0,8.606,7.479,7.479,0,0,0,2.825,2.914,8.339,8.339,0,0,0,8.055,0Z" style="fill:#fff"/></g><g style="isolation:isolate"><path d="M75.6,482.817v20.214q0,6.135-3.046,9.07t-9.092,2.935a21.76,21.76,0,0,1-6.312-.9A12.5,12.5,0,0,1,52.3,511.55l2.03-3.267a11.963,11.963,0,0,0,4.038,2.229,15.33,15.33,0,0,0,4.966.817q4.1,0,6.068-1.942t1.964-5.914v-1.854a9.368,9.368,0,0,1-3.685,2.714,12.26,12.26,0,0,1-4.744.9,12.789,12.789,0,0,1-6.069-1.434,10.679,10.679,0,0,1-4.26-4.017,12.014,12.014,0,0,1,0-11.784,10.535,10.535,0,0,1,4.26-3.994,12.943,12.943,0,0,1,6.069-1.412,12.412,12.412,0,0,1,4.92.97,9.141,9.141,0,0,1,3.73,2.87v-3.62ZM67.548,500.56a7.177,7.177,0,0,0,2.868-2.714,7.58,7.58,0,0,0,1.037-3.95,7.161,7.161,0,0,0-2.251-5.5,8.147,8.147,0,0,0-5.781-2.1,8.209,8.209,0,0,0-5.826,2.1,7.164,7.164,0,0,0-2.251,5.5,7.571,7.571,0,0,0,1.037,3.95,7.173,7.173,0,0,0,2.869,2.714,9.358,9.358,0,0,0,8.3,0Z" style="fill:#fff"/><path d="M105.481,482.817v23.392h-4.016v-3.531a8.524,8.524,0,0,1-3.376,2.8,10.527,10.527,0,0,1-4.568.994,10.21,10.21,0,0,1-7.372-2.582q-2.692-2.582-2.692-7.614V482.817h4.237v12.976a7.262,7.262,0,0,0,1.633,5.142,6.1,6.1,0,0,0,4.679,1.743,6.979,6.979,0,0,0,5.3-2.031,7.963,7.963,0,0,0,1.942-5.737V482.817Z" style="fill:#fff"/><path d="M113.624,477.521a2.6,2.6,0,0,1-.816-1.942,2.676,2.676,0,0,1,.816-1.964,2.783,2.783,0,0,1,2.052-.817,2.877,2.877,0,0,1,2.053.773,2.54,2.54,0,0,1,.816,1.92,2.734,2.734,0,0,1-.816,2.008,2.784,2.784,0,0,1-2.053.816A2.821,2.821,0,0,1,113.624,477.521Zm-.066,5.3H117.8v23.392h-4.237Z" style="fill:#fff"/><path d="M147.938,473.46v32.749h-4.06V502.5a9.175,9.175,0,0,1-3.575,2.957,11.076,11.076,0,0,1-4.767,1.015,12.3,12.3,0,0,1-6.091-1.5,10.761,10.761,0,0,1-4.215-4.216,13.528,13.528,0,0,1,0-12.468,10.808,10.808,0,0,1,4.215-4.193,12.3,12.3,0,0,1,6.091-1.5,11.215,11.215,0,0,1,4.635.948,9,9,0,0,1,3.53,2.8V473.46Zm-8.032,28.269a7.267,7.267,0,0,0,2.824-2.913,9.62,9.62,0,0,0,0-8.606,7.13,7.13,0,0,0-2.824-2.891,8.5,8.5,0,0,0-8.054,0,7.321,7.321,0,0,0-2.826,2.891,9.446,9.446,0,0,0,0,8.606,7.465,7.465,0,0,0,2.826,2.913,8.33,8.33,0,0,0,8.054,0Z" style="fill:#fff"/><path d="M177.023,495.926H158.045a7.348,7.348,0,0,0,2.714,4.965,8.857,8.857,0,0,0,5.76,1.876,8.676,8.676,0,0,0,6.752-2.826l2.339,2.737a10.233,10.233,0,0,1-3.95,2.825,14.89,14.89,0,0,1-11.849-.552,10.843,10.843,0,0,1-4.436-4.259,12.2,12.2,0,0,1-1.567-6.179,12.405,12.405,0,0,1,1.522-6.135,10.922,10.922,0,0,1,4.193-4.259,11.947,11.947,0,0,1,6.025-1.522,11.706,11.706,0,0,1,5.98,1.522,10.714,10.714,0,0,1,4.105,4.259,12.987,12.987,0,0,1,1.478,6.268A12.091,12.091,0,0,1,177.023,495.926Zm-16.573-7.9a7.474,7.474,0,0,0-2.405,4.855h15.006a7.528,7.528,0,0,0-2.405-4.833,7.9,7.9,0,0,0-10.2-.022Z" style="fill:#fff"/><path d="M182.981,473.46h4.237v32.749h-4.237Z" style="fill:#fff"/><path d="M195.361,477.521a2.6,2.6,0,0,1-.817-1.942,2.677,2.677,0,0,1,.817-1.964,2.783,2.783,0,0,1,2.052-.817,2.877,2.877,0,0,1,2.053.773,2.536,2.536,0,0,1,.816,1.92,2.73,2.73,0,0,1-.816,2.008,2.784,2.784,0,0,1-2.053.816A2.821,2.821,0,0,1,195.361,477.521Zm-.066,5.3h4.236v23.392H195.3Z" style="fill:#fff"/><path d="M227.183,485.179q2.625,2.58,2.626,7.569v13.461h-4.238V493.233a7.186,7.186,0,0,0-1.633-5.12,6.142,6.142,0,0,0-4.678-1.72,7.293,7.293,0,0,0-5.429,2.007,7.848,7.848,0,0,0-1.986,5.76v12.049h-4.237V482.817h4.061v3.531a8.237,8.237,0,0,1,3.464-2.781,12.133,12.133,0,0,1,4.966-.97A9.664,9.664,0,0,1,227.183,485.179Z" style="fill:#fff"/><path d="M258.85,495.926H239.871a7.348,7.348,0,0,0,2.714,4.965,8.857,8.857,0,0,0,5.76,1.876,8.676,8.676,0,0,0,6.753-2.826l2.339,2.737a10.236,10.236,0,0,1-3.951,2.825,14.89,14.89,0,0,1-11.849-.552,10.849,10.849,0,0,1-4.436-4.259,12.2,12.2,0,0,1-1.567-6.179,12.416,12.416,0,0,1,1.522-6.135,10.918,10.918,0,0,1,4.194-4.259,11.94,11.94,0,0,1,6.024-1.522,11.7,11.7,0,0,1,5.98,1.522,10.708,10.708,0,0,1,4.1,4.259,12.988,12.988,0,0,1,1.479,6.268A12.367,12.367,0,0,1,258.85,495.926Zm-16.574-7.9a7.474,7.474,0,0,0-2.405,4.855h15.006a7.524,7.524,0,0,0-2.405-4.833,7.9,7.9,0,0,0-10.2-.022Z" style="fill:#fff"/><path d="M266,505.7a12.074,12.074,0,0,1-4.148-1.964l1.764-3.354a12.672,12.672,0,0,0,3.752,1.765,15.415,15.415,0,0,0,4.458.663q5.56,0,5.561-3.178a2.058,2.058,0,0,0-.75-1.677,4.755,4.755,0,0,0-1.876-.905q-1.125-.286-3.2-.64a31.406,31.406,0,0,1-4.612-1.015,7.094,7.094,0,0,1-3.067-1.942,5.4,5.4,0,0,1-1.28-3.84,5.993,5.993,0,0,1,2.648-5.1,11.849,11.849,0,0,1,7.1-1.92,19.605,19.605,0,0,1,4.679.573,12.614,12.614,0,0,1,3.84,1.545l-1.81,3.354a12.174,12.174,0,0,0-6.752-1.853,7.8,7.8,0,0,0-4.1.883,2.664,2.664,0,0,0-1.413,2.339,2.231,2.231,0,0,0,.8,1.809,5,5,0,0,0,1.964.971q1.168.309,3.288.706a35.921,35.921,0,0,1,4.568,1.037,6.832,6.832,0,0,1,2.979,1.876,5.227,5.227,0,0,1,1.236,3.708,5.845,5.845,0,0,1-2.715,5.053,12.811,12.811,0,0,1-7.392,1.876A19.6,19.6,0,0,1,266,505.7Z" style="fill:#fff"/><path d="M285.815,505.613a2.921,2.921,0,0,1-.882-2.184,2.868,2.868,0,0,1,.882-2.141,2.924,2.924,0,0,1,2.119-.86,2.818,2.818,0,0,1,2.074.838,3.2,3.2,0,0,1-.022,4.347,2.8,2.8,0,0,1-2.052.861A2.925,2.925,0,0,1,285.815,505.613Z" style="fill:#fff"/></g></g></g></svg>