<svg xmlns="http://www.w3.org/2000/svg" xmlns:xlink="http://www.w3.org/1999/xlink" viewBox="0 0 1624.4 582.4"><defs><radialGradient id="radial-gradient" cx="7506.843" cy="-8738.341" r="501.559" gradientTransform="matrix(0, -1, -1, 0, -7498.822, 7559.376)" gradientUnits="userSpaceOnUse"><stop offset="0" stop-color="#fff"/><stop offset="0.231" stop-color="#fcfcfc"/><stop offset="0.42" stop-color="#f2f2f2"/><stop offset="0.594" stop-color="#e0e0e1"/><stop offset="0.759" stop-color="#c8c8c9"/><stop offset="0.917" stop-color="#aaa"/><stop offset="1" stop-color="#969697"/></radialGradient><radialGradient id="radial-gradient-2" cx="7422.387" cy="-8793.795" r="478.154" gradientTransform="matrix(0, -1, -1, 0, -7498.822, 7559.376)" gradientUnits="userSpaceOnUse"><stop offset="0" stop-color="#fff"/><stop offset="0.258" stop-color="#fcfcfc"/><stop offset="0.468" stop-color="#f2f2f2"/><stop offset="0.662" stop-color="#e0e0e1"/><stop offset="0.846" stop-color="#c9c9c9"/><stop offset="1" stop-color="#aeaeaf"/></radialGradient><radialGradient id="radial-gradient-3" cx="7131.534" cy="-9052.273" r="528.506" gradientTransform="matrix(0, -1, -1, 0, -7498.822, 7559.376)" gradientUnits="userSpaceOnUse"><stop offset="0" stop-color="#fff"/><stop offset="0.165" stop-color="#f8f8f8"/><stop offset="0.411" stop-color="#e3e3e3"/><stop offset="0.709" stop-color="#c2c2c2"/><stop offset="1" stop-color="#9a9a9a"/></radialGradient></defs><g id="Layer_2" data-name="Layer 2"><g id="Layer_1-2" data-name="Layer 1"><path d="M1322.8,582.4H93.7C42,582.4,0,452,0,291.2H0C0,130.4,42,0,93.7,0H1322.8c51.8,0,93.7,130.4,93.7,291.2h0C1416.5,452,1374.5,582.4,1322.8,582.4Z" style="fill:#f2b05a"/><path d="M1398.7,123.7c97.9,0,191.4,70.2,191.4,168.1s-62.1,174.5-160,174.5S1249.2,384.9,1249.2,287C1249.1,189,1300.8,123.7,1398.7,123.7Z" style="fill:#434343;opacity:0.5;isolation:isolate"/><path d="M1417.6,78.5c114.2,0,206.8,92.6,206.8,206.8s-92.6,206.8-206.8,206.8-206.8-92.6-206.8-206.8S1303.4,78.5,1417.6,78.5Z" style="fill:url(#radial-gradient)"/><path d="M1417.6,88.2c108.9,0,197.2,88.3,197.2,197.2s-88.3,197.2-197.2,197.2-197.2-88.3-197.2-197.2,88.3-197.2,197.2-197.2Z" style="fill:url(#radial-gradient-2)"/><path d="M1417.6,126.8a158.5,158.5,0,1,1-158.5,158.5c0-87.5,70.9-158.4,158.5-158.5Z" style="fill:url(#radial-gradient-3)"/><path d="M1417.6,141.2a144.2,144.2,0,1,1-144.2,144.2,144.251,144.251,0,0,1,144.2-144.2Z" style="opacity:0.10000000149011612;isolation:isolate"/><path d="M147.8,138v-7.1h6.9V138Z" style="fill:#606161"/><line x1="48.6" y1="265.7" x2="1181.5" y2="265.7" style="fill:none;stroke:#fff;stroke-miterlimit:10;stroke-width:3px"/><path d="M1450.8,205.4a30.083,30.083,0,0,1,4.9,2.9,8.655,8.655,0,0,1,2.5,6.8v32a2.788,2.788,0,0,0,1.2,2.5,16.031,16.031,0,0,1,4.9,18c-.6,1.6-1.7,2.3-3,1.8-1.2-.4-1.7-1.6-1.1-3.2a11.627,11.627,0,0,0-2.3-12.1,11.648,11.648,0,0,0-20.1,6,21.16,21.16,0,0,0,.4,5.6c.1.3.2.6.3,1a2.154,2.154,0,0,1-4,1.6c0-.1,0-.1-.1-.2a15.9,15.9,0,0,1,.1-12.3,14.472,14.472,0,0,1,4.7-6.2,2.04,2.04,0,0,0,.9-2c0-10.5.1-21.1-.1-31.6-.1-5.2,2.6-9.2,7.2-10.3.1,0,.1-.1.2-.2Zm3.1,40.8V215a4.794,4.794,0,0,0-3.6-5.1,4.627,4.627,0,0,0-5.7,3.3,4.329,4.329,0,0,0-.1,1.6v30.9a1.268,1.268,0,0,0,.1.6h9.3Z" style="fill:#606161"/><path d="M1374.5,205.4c.6.3,1.3.5,1.9.8a9.129,9.129,0,0,1,5.3,8.8v72.5a10.869,10.869,0,0,1-.1,1.8,1.894,1.894,0,0,1-2,1.8h-.1a2.077,2.077,0,0,1-2.1-1.9,8.533,8.533,0,0,1,0-1.6V215.2a4.72,4.72,0,0,0-4-5.3,4.49,4.49,0,0,0-5.3,3.7c0,.2-.1.5-.1.7-.1,2.5,0,5.1-.1,7.7a4.006,4.006,0,0,1-.8,2.3,1.933,1.933,0,0,1-2.8,0,1.984,1.984,0,0,1-.6-1.3,64.987,64.987,0,0,1,.3-10.8,7.99,7.99,0,0,1,5.8-6.2,4.671,4.671,0,0,0,1-.5Z" style="fill:#606161"/><path d="M1412.5,205.4a37.785,37.785,0,0,1,3.5,1.7,8.542,8.542,0,0,1,3.8,6.8,28.054,28.054,0,0,1,0,4.1,2.291,2.291,0,0,1-2.1,2.3,2.135,2.135,0,0,1-2.2-2.1h0c-.1-1.2,0-2.5-.1-3.7a4.61,4.61,0,0,0-4.6-4.7,4.693,4.693,0,0,0-4.7,4.3c-.1,1.2,0,2.5-.1,3.7a2.23,2.23,0,0,1-2,2.4h-.1a2.2,2.2,0,0,1-2.2-2.1v-.2a15.617,15.617,0,0,1,.8-7.1,9.805,9.805,0,0,1,6.6-5.3Z" style="fill:#606161"/><path d="M1471.4,284.8a49.783,49.783,0,0,0,26.6,7,8.052,8.052,0,0,1,3.2,6.4c0,6.8.1,13.6-.1,20.4a36.536,36.536,0,0,1-3.2,13,2.174,2.174,0,0,1-2.7,1.4h0a.1.1,0,0,1-.1-.1,2.321,2.321,0,0,1-1.2-3c.9-3.3,1.9-6.5,2.7-9.8a21.95,21.95,0,0,0,.4-5.1q.15-7.95,0-15.9a4.962,4.962,0,1,0-9.9-.7h0v3.8a2.212,2.212,0,0,1-1.9,2.4h-.2a2.026,2.026,0,0,1-2.2-1.9v-.4c-.1-3.2,0-6.4-.1-9.6a10.554,10.554,0,0,0-.2-2.5,4.911,4.911,0,0,0-5.3-3.5,4.654,4.654,0,0,0-4.2,4.6c-.1,2.5,0,4.9-.1,7.4a2.877,2.877,0,0,1-.5,2,3.244,3.244,0,0,1-2.3.8c-1.2-.1-1.6-1.2-1.6-2.3v-9.4a4.989,4.989,0,0,0-6-4.8,4.567,4.567,0,0,0-3.8,4.2c-.2,3.7-.1,7.4-.1,11.1a10.869,10.869,0,0,1-.1,1.8,2.077,2.077,0,0,1-2.1,1.9h-.1a2.077,2.077,0,0,1-2.1-1.9,6.552,6.552,0,0,1,0-1.4V265.3a5.327,5.327,0,0,0-3.5-5.4,5,5,0,0,0-6.2,3.3,4.253,4.253,0,0,0-.2,1.1v51.3a2.31,2.31,0,0,1-2.1,2.4,2.2,2.2,0,0,1-2.2-2.1h0v-.2c-.1-3.7.1-7.5-.1-11.2a14.992,14.992,0,0,0-3.9-9.2,5.751,5.751,0,0,0-7.2-.8,5.4,5.4,0,0,0-2.5,6.7c2.6,5.5,2.5,11.3,3,17.2a43.711,43.711,0,0,0,5,18,18.179,18.179,0,0,0,17,10h20a22.563,22.563,0,0,0,18.5-9.3,10.627,10.627,0,0,1,.9-1.1,2.131,2.131,0,0,1,3-.6h0a.1.1,0,0,1,.1.1,2.1,2.1,0,0,1,.5,2.9c-.1.1-.1.2-.2.2a46.9,46.9,0,0,1-4.7,5.3,26.071,26.071,0,0,1-18.4,6.9c-6.8-.1-13.6,0-20.4,0a21.648,21.648,0,0,1-19.6-11.3,45.721,45.721,0,0,1-6-19.7c-.4-4-.7-8-1.2-12a10.923,10.923,0,0,0-1.2-3.6,10.327,10.327,0,0,1,16.6-11.8c.1.1.3.2.7.5V265.5a9.306,9.306,0,0,1,17.6-4.9,9.014,9.014,0,0,1,.9,3.2c.2,5.4.1,10.8.1,16.2v1.9C1463.6,279.4,1467.9,280.4,1471.4,284.8Z" style="fill:#606161"/><path d="M1401.7,299.6V257.8c0-2.3.7-3.3,2.2-3.3s2.1,1.1,2.1,3.3v82.4a9.737,9.737,0,0,0,.2,2.4,4.751,4.751,0,0,0,4.9,3.7,4.419,4.419,0,0,0,4.3-4.4c.1-6.3,0-12.7.1-19a5.537,5.537,0,0,1,.2-1.8,1.864,1.864,0,0,1,2-1.6,1.963,1.963,0,0,1,2.1,1.6,4.1,4.1,0,0,1,.1,1.1c0,6.4.1,12.9,0,19.3a8.965,8.965,0,0,1-8.8,9.2,9.191,9.191,0,0,1-3.3-.6,8.708,8.708,0,0,1-5.9-7.9c-.1-10.1-.1-20.2-.1-30.3C1401.7,307.7,1401.7,303.7,1401.7,299.6Z" style="fill:#606161"/><path d="M1356.6,308.3a16.05,16.05,0,1,1,16,16.1h0A16.067,16.067,0,0,1,1356.6,308.3Zm15.9,11.7a8.721,8.721,0,1,0-11.7-3.9,8.79,8.79,0,0,0,11.7,3.9Z" style="fill:#606161"/><path d="M1410.5,253.3a16.05,16.05,0,1,1,16.1-16h0A16,16,0,0,1,1410.5,253.3Zm11.7-16a11.7,11.7,0,1,0-23.4,0h0a11.7,11.7,0,1,0,23.4,0Z" style="fill:#606161"/><path d="M1367.9,259.6v29.5a2.135,2.135,0,0,1-2.2,2.1,2.112,2.112,0,0,1-2.1-2.1,5.633,5.633,0,0,1,0-1.3V231c0-2.3.8-3.5,2.3-3.4,1.4,0,2.2,1.2,2.2,3.4C1367.9,240.5,1367.9,250,1367.9,259.6Z" style="fill:#606161"/><path d="M1419.8,285.3v27.8a7.569,7.569,0,0,1-.1,1.5,2.046,2.046,0,0,1-2.1,1.7,1.983,1.983,0,0,1-2.1-1.8,7.569,7.569,0,0,1-.1-1.5V257.6c0-2.3.8-3.4,2.3-3.4,1.5.1,2.1,1.1,2.1,3.4Z" style="fill:#606161"/><path d="M1381.6,335.2c0,2.4.1,4.7,0,7.1a8.96,8.96,0,0,1-17.8.5c-.3-5-.2-10.1-.2-15.1a2.138,2.138,0,0,1,2-2.3h.3a2.239,2.239,0,0,1,2.1,2.4v13.8a4.669,4.669,0,0,0,8.9,1.8,5.278,5.278,0,0,0,.4-2.5V327.7c0-1.2.6-2.3,1.8-2.3a3.858,3.858,0,0,1,2.2,1.1c.4.3.3,1.1.3,1.7.1,2.4.1,4.7,0,7Z" style="fill:#606161"/><g style="isolation:isolate"><path d="M57.351,167.765a20.331,20.331,0,0,1-6.722-3.159l2.97-6.587a20.1,20.1,0,0,0,5.777,2.862,21.684,21.684,0,0,0,6.694,1.079,10.7,10.7,0,0,0,5.508-1.106,3.344,3.344,0,0,0,1.781-2.942,2.813,2.813,0,0,0-1.053-2.241,7.977,7.977,0,0,0-2.7-1.431q-1.649-.54-4.454-1.188A61.1,61.1,0,0,1,58.08,151a11.47,11.47,0,0,1-4.724-3.292,8.9,8.9,0,0,1-1.971-6.047,10.515,10.515,0,0,1,1.782-5.966,11.97,11.97,0,0,1,5.372-4.238,21.916,21.916,0,0,1,8.774-1.566,29.1,29.1,0,0,1,7.072.863,20.959,20.959,0,0,1,6.047,2.484l-2.7,6.64a21.087,21.087,0,0,0-10.474-2.968,9.82,9.82,0,0,0-5.425,1.187,3.624,3.624,0,0,0-1.755,3.132,3.06,3.06,0,0,0,2.024,2.888,31.709,31.709,0,0,0,6.182,1.863,61.62,61.62,0,0,1,7.073,2.052,11.706,11.706,0,0,1,4.724,3.239,8.685,8.685,0,0,1,1.97,5.992,10.323,10.323,0,0,1-1.808,5.912,12.143,12.143,0,0,1-5.426,4.239,22.118,22.118,0,0,1-8.8,1.565A30.91,30.91,0,0,1,57.351,167.765Z" style="fill:#fff"/><path d="M115.74,156.184H93.767a6.835,6.835,0,0,0,2.807,4.265,9.288,9.288,0,0,0,5.507,1.566,11.135,11.135,0,0,0,4.023-.675,9.772,9.772,0,0,0,3.266-2.132l4.481,4.858q-4.1,4.7-11.986,4.7a18.952,18.952,0,0,1-8.692-1.916,14.042,14.042,0,0,1-5.831-5.318,14.652,14.652,0,0,1-2.052-7.721,14.841,14.841,0,0,1,2.025-7.693,14.181,14.181,0,0,1,5.561-5.345,17.214,17.214,0,0,1,15.63-.081,13.4,13.4,0,0,1,5.426,5.264,15.706,15.706,0,0,1,1.97,7.964Q115.9,154.078,115.74,156.184Zm-19.706-9.341a6.893,6.893,0,0,0-2.375,4.428h14.307a6.967,6.967,0,0,0-2.376-4.4,7.1,7.1,0,0,0-4.751-1.647A7.257,7.257,0,0,0,96.034,146.843Z" style="fill:#fff"/><path d="M140.251,166.928a8.6,8.6,0,0,1-3.05,1.376,15.423,15.423,0,0,1-3.806.459q-5.184,0-8.018-2.645t-2.834-7.775V146.412h-4.481v-6.479h4.481V132.86h8.422v7.073H138.2v6.479h-7.235v11.824a3.963,3.963,0,0,0,.945,2.834,3.5,3.5,0,0,0,2.673,1,5.413,5.413,0,0,0,3.4-1.08Z" style="fill:#fff"/><path d="M174.265,139.285v29.047h-7.991v-3.456a11.16,11.16,0,0,1-4,2.889,12.583,12.583,0,0,1-5.021,1q-5.722,0-9.07-3.293T144.84,155.7V139.285h8.423v15.172q0,7.017,5.885,7.018a6.324,6.324,0,0,0,4.859-1.971q1.834-1.969,1.836-5.858V139.285Z" style="fill:#fff"/><path d="M206.632,140.715a13.4,13.4,0,0,1,5.21,5.238,17.278,17.278,0,0,1,0,15.711,13.379,13.379,0,0,1-5.21,5.237,14.8,14.8,0,0,1-7.37,1.862,11.215,11.215,0,0,1-8.746-3.509v13.551h-8.423v-39.52h8.045v3.347q3.13-3.777,9.124-3.779A14.814,14.814,0,0,1,206.632,140.715Zm-3.509,18.952a9.3,9.3,0,0,0,0-11.716,7.56,7.56,0,0,0-10.637,0,9.3,9.3,0,0,0,0,11.716,7.563,7.563,0,0,0,10.637,0Z" style="fill:#fff"/><path d="M240.212,166.847a14.243,14.243,0,0,1-5.695-5.318,15.552,15.552,0,0,1,0-15.442,14.241,14.241,0,0,1,5.695-5.317,18.582,18.582,0,0,1,16.44,0,14.294,14.294,0,0,1,5.669,5.317,15.552,15.552,0,0,1,0,15.442,14.3,14.3,0,0,1-5.669,5.318,18.591,18.591,0,0,1-16.44,0Zm13.552-7.18a9.293,9.293,0,0,0,0-11.716,7.016,7.016,0,0,0-5.318-2.187,7.1,7.1,0,0,0-5.345,2.187,9.2,9.2,0,0,0,0,11.716,7.105,7.105,0,0,0,5.345,2.186A7.018,7.018,0,0,0,253.764,159.667Z" style="fill:#fff"/><path d="M279.22,139.933h7.451v6.479h-7.235v21.92h-8.422v-21.92h-4.481v-6.479h4.481v-1.3a10.6,10.6,0,0,1,2.942-7.883q2.941-2.914,8.288-2.915a15.458,15.458,0,0,1,3.59.405,8.712,8.712,0,0,1,2.834,1.161l-2.213,6.1a5.774,5.774,0,0,0-3.4-1.025q-3.832,0-3.833,4.211Z" style="fill:#fff"/><path d="M341.416,130.539v37.793h-7.181l-18.842-22.946v22.946h-8.639V130.539h7.235l18.788,22.945V130.539Z" style="fill:#fff"/><path d="M371.866,142.066q3.615,3.213,3.617,9.69v16.576H367.6v-3.618q-2.377,4.05-8.855,4.049a13.74,13.74,0,0,1-5.8-1.134,8.643,8.643,0,0,1-3.752-3.13,8.149,8.149,0,0,1-1.3-4.536,7.569,7.569,0,0,1,3.05-6.371q3.051-2.321,9.422-2.321h6.695a5.37,5.37,0,0,0-1.674-4.238,7.372,7.372,0,0,0-5.021-1.486,14.654,14.654,0,0,0-4.562.73A12.015,12.015,0,0,0,352,148.248l-3.024-5.885a18.252,18.252,0,0,1,5.7-2.592,25.548,25.548,0,0,1,6.83-.918Q368.249,138.853,371.866,142.066Zm-7.181,20.03a5.475,5.475,0,0,0,2.376-2.943v-2.969h-5.777q-5.184,0-5.183,3.4a3.029,3.029,0,0,0,1.268,2.565,5.714,5.714,0,0,0,3.483.944A7.335,7.335,0,0,0,364.685,162.1Z" style="fill:#fff"/><path d="M401.829,166.928a8.608,8.608,0,0,1-3.05,1.376,15.423,15.423,0,0,1-3.806.459q-5.184,0-8.018-2.645t-2.834-7.775V146.412H379.64v-6.479h4.481V132.86h8.422v7.073h7.235v6.479h-7.235v11.824a3.963,3.963,0,0,0,.945,2.834,3.5,3.5,0,0,0,2.672,1,5.416,5.416,0,0,0,3.4-1.08Z" style="fill:#fff"/><path d="M407.012,133.886a4.572,4.572,0,0,1,0-6.695,5.346,5.346,0,0,1,3.78-1.35,5.478,5.478,0,0,1,3.779,1.3,4.157,4.157,0,0,1,1.457,3.239,4.587,4.587,0,0,1-1.457,3.483,5.282,5.282,0,0,1-3.779,1.377A5.341,5.341,0,0,1,407.012,133.886Zm-.432,5.4H415v29.047H406.58Z" style="fill:#fff"/><path d="M428.419,166.847a14.252,14.252,0,0,1-5.7-5.318,15.552,15.552,0,0,1,0-15.442,14.25,14.25,0,0,1,5.7-5.317,18.582,18.582,0,0,1,16.44,0,14.294,14.294,0,0,1,5.669,5.317,15.552,15.552,0,0,1,0,15.442,14.3,14.3,0,0,1-5.669,5.318,18.591,18.591,0,0,1-16.44,0Zm13.552-7.18a9.3,9.3,0,0,0,0-11.716,7.018,7.018,0,0,0-5.319-2.187,7.1,7.1,0,0,0-5.344,2.187,9.2,9.2,0,0,0,0,11.716,7.1,7.1,0,0,0,5.344,2.186A7.021,7.021,0,0,0,441.971,159.667Z" style="fill:#fff"/><path d="M484.568,142.092q3.321,3.24,3.321,9.611v16.629h-8.423V153a7.58,7.58,0,0,0-1.511-5.157,5.544,5.544,0,0,0-4.373-1.7,6.7,6.7,0,0,0-5.076,1.971q-1.89,1.969-1.889,5.857v14.362h-8.423V139.285h8.045v3.4a11.169,11.169,0,0,1,4.157-2.834,14.478,14.478,0,0,1,5.453-1A11.954,11.954,0,0,1,484.568,142.092Z" style="fill:#fff"/><path d="M517.583,142.066q3.617,3.213,3.617,9.69v16.576h-7.882v-3.618q-2.377,4.05-8.855,4.049a13.732,13.732,0,0,1-5.8-1.134,8.64,8.64,0,0,1-3.753-3.13,8.149,8.149,0,0,1-1.3-4.536,7.568,7.568,0,0,1,3.051-6.371q3.05-2.321,9.421-2.321h6.695a5.37,5.37,0,0,0-1.674-4.238,7.372,7.372,0,0,0-5.021-1.486,14.654,14.654,0,0,0-4.562.73,12.015,12.015,0,0,0-3.806,1.971l-3.024-5.885a18.252,18.252,0,0,1,5.7-2.592,25.553,25.553,0,0,1,6.83-.918Q513.966,138.853,517.583,142.066ZM510.4,162.1a5.466,5.466,0,0,0,2.376-2.943v-2.969H507q-5.184,0-5.183,3.4a3.031,3.031,0,0,0,1.268,2.565,5.716,5.716,0,0,0,3.483.944A7.335,7.335,0,0,0,510.4,162.1Z" style="fill:#fff"/><path d="M528.812,128.271h8.422v40.061h-8.422Z" style="fill:#fff"/><path d="M568.629,166.442a18.843,18.843,0,0,1-7.4-6.991,20.107,20.107,0,0,1,0-20.031,18.846,18.846,0,0,1,7.4-6.992,23.394,23.394,0,0,1,21.191,0,19.276,19.276,0,0,1,0,34.014,23.394,23.394,0,0,1-21.191,0Zm16.656-6.452a11.046,11.046,0,0,0,4.238-4.292,13.513,13.513,0,0,0,0-12.526,11.046,11.046,0,0,0-4.238-4.292,12.649,12.649,0,0,0-12.094,0,11.039,11.039,0,0,0-4.238,4.292,13.513,13.513,0,0,0,0,12.526,11.039,11.039,0,0,0,4.238,4.292,12.649,12.649,0,0,0,12.094,0Z" style="fill:#fff"/><path d="M630.447,140.715a13.388,13.388,0,0,1,5.21,5.238,17.27,17.27,0,0,1,0,15.711,13.372,13.372,0,0,1-5.21,5.237,14.8,14.8,0,0,1-7.369,1.862,11.217,11.217,0,0,1-8.747-3.509v13.551h-8.422v-39.52h8.044v3.347q3.132-3.777,9.125-3.779A14.81,14.81,0,0,1,630.447,140.715Zm-3.509,18.952a9.293,9.293,0,0,0,0-11.716,7.559,7.559,0,0,0-10.636,0,9.293,9.293,0,0,0,0,11.716,7.562,7.562,0,0,0,10.636,0Z" style="fill:#fff"/><path d="M671.452,156.184H649.478a6.836,6.836,0,0,0,2.808,4.265,9.287,9.287,0,0,0,5.506,1.566,11.132,11.132,0,0,0,4.023-.675,9.762,9.762,0,0,0,3.266-2.132l4.482,4.858q-4.1,4.7-11.986,4.7a18.956,18.956,0,0,1-8.693-1.916,14.048,14.048,0,0,1-5.831-5.318A14.652,14.652,0,0,1,641,153.808a14.841,14.841,0,0,1,2.025-7.693,14.181,14.181,0,0,1,5.561-5.345,17.214,17.214,0,0,1,15.63-.081,13.4,13.4,0,0,1,5.426,5.264,15.7,15.7,0,0,1,1.971,7.964Q671.614,154.078,671.452,156.184Zm-19.706-9.341a6.9,6.9,0,0,0-2.376,4.428h14.307a6.962,6.962,0,0,0-2.375-4.4,7.1,7.1,0,0,0-4.751-1.647A7.257,7.257,0,0,0,651.746,146.843Z" style="fill:#fff"/><path d="M703.6,142.092q3.32,3.24,3.32,9.611v16.629H698.5V153a7.58,7.58,0,0,0-1.511-5.157,5.544,5.544,0,0,0-4.373-1.7,6.7,6.7,0,0,0-5.075,1.971q-1.892,1.969-1.89,5.857v14.362h-8.422V139.285h8.044v3.4a11.169,11.169,0,0,1,4.157-2.834,14.478,14.478,0,0,1,5.453-1A11.958,11.958,0,0,1,703.6,142.092Z" style="fill:#fff"/><path d="M764.8,168.332l-.054-22.676-11.122,18.68h-3.941l-11.068-18.194v22.19h-8.207V130.539h7.235l14.146,23.485,13.929-23.485h7.18l.108,37.793Z" style="fill:#fff"/><path d="M786.961,166.847a14.252,14.252,0,0,1-5.7-5.318,15.552,15.552,0,0,1,0-15.442,14.25,14.25,0,0,1,5.7-5.317,18.582,18.582,0,0,1,16.44,0,14.294,14.294,0,0,1,5.669,5.317,15.552,15.552,0,0,1,0,15.442,14.3,14.3,0,0,1-5.669,5.318,18.591,18.591,0,0,1-16.44,0Zm13.552-7.18a9.3,9.3,0,0,0,0-11.716,7.018,7.018,0,0,0-5.319-2.187,7.1,7.1,0,0,0-5.344,2.187,9.2,9.2,0,0,0,0,11.716,7.1,7.1,0,0,0,5.344,2.186A7.021,7.021,0,0,0,800.513,159.667Z" style="fill:#fff"/><path d="M841.274,140.715a13.381,13.381,0,0,1,5.21,5.238,17.27,17.27,0,0,1,0,15.711,13.366,13.366,0,0,1-5.21,5.237,14.8,14.8,0,0,1-7.369,1.862q-5.993,0-9.125-3.779v3.348h-8.044V128.271h8.422v14.092a11.218,11.218,0,0,1,8.747-3.51A14.808,14.808,0,0,1,841.274,140.715Zm-3.508,18.952a9.3,9.3,0,0,0,0-11.716,7.56,7.56,0,0,0-10.637,0,9.3,9.3,0,0,0,0,11.716,7.563,7.563,0,0,0,10.637,0Z" style="fill:#fff"/><path d="M854.421,133.886a4.572,4.572,0,0,1,0-6.695,5.343,5.343,0,0,1,3.779-1.35,5.476,5.476,0,0,1,3.779,1.3,4.155,4.155,0,0,1,1.458,3.239,4.584,4.584,0,0,1-1.458,3.483,5.28,5.28,0,0,1-3.779,1.377A5.339,5.339,0,0,1,854.421,133.886Zm-.433,5.4h8.423v29.047h-8.423Z" style="fill:#fff"/><path d="M870.239,128.271h8.423v40.061h-8.423Z" style="fill:#fff"/><path d="M886.922,133.886a4.572,4.572,0,0,1,0-6.695,5.345,5.345,0,0,1,3.779-1.35,5.474,5.474,0,0,1,3.779,1.3,4.155,4.155,0,0,1,1.458,3.239,4.584,4.584,0,0,1-1.458,3.483,5.279,5.279,0,0,1-3.779,1.377A5.34,5.34,0,0,1,886.922,133.886Zm-.432,5.4h8.422v29.047H886.49Z" style="fill:#fff"/><path d="M921.475,166.928a8.616,8.616,0,0,1-3.05,1.376,15.431,15.431,0,0,1-3.807.459q-5.183,0-8.017-2.645t-2.834-7.775V146.412h-4.482v-6.479h4.482V132.86h8.421v7.073h7.236v6.479h-7.236v11.824a3.964,3.964,0,0,0,.946,2.834,3.494,3.494,0,0,0,2.672,1,5.411,5.411,0,0,0,3.4-1.08Z" style="fill:#fff"/><path d="M954.517,139.285,941.4,170.113q-2,5.021-4.94,7.073a12.107,12.107,0,0,1-7.1,2.052,14.766,14.766,0,0,1-4.48-.7,9.894,9.894,0,0,1-3.618-1.944l3.078-5.993a7.235,7.235,0,0,0,2.24,1.35,6.984,6.984,0,0,0,2.511.486,4.458,4.458,0,0,0,2.808-.837,7.118,7.118,0,0,0,1.943-2.78l.108-.271-12.58-29.262h8.693l8.152,19.707,8.207-19.707Z" style="fill:#fff"/><path d="M973.845,130.539h17.169a24.144,24.144,0,0,1,10.879,2.348,17.6,17.6,0,0,1,7.342,6.613,20.153,20.153,0,0,1,0,19.87,17.59,17.59,0,0,1-7.342,6.613,24.144,24.144,0,0,1-10.879,2.349H973.845Zm16.737,30.612a12.7,12.7,0,0,0,9.043-3.158,12.54,12.54,0,0,0,0-17.116,12.7,12.7,0,0,0-9.043-3.158h-7.991v23.432Z" style="fill:#fff"/><path d="M1039.928,142.066q3.615,3.213,3.617,9.69v16.576h-7.883v-3.618q-2.376,4.05-8.854,4.049a13.74,13.74,0,0,1-5.8-1.134,8.631,8.631,0,0,1-3.752-3.13,8.149,8.149,0,0,1-1.3-4.536,7.569,7.569,0,0,1,3.05-6.371q3.049-2.321,9.422-2.321h6.694a5.37,5.37,0,0,0-1.674-4.238,7.367,7.367,0,0,0-5.02-1.486,14.66,14.66,0,0,0-4.563.73,12.009,12.009,0,0,0-3.805,1.971l-3.024-5.885a18.257,18.257,0,0,1,5.7-2.592,25.561,25.561,0,0,1,6.831-.918Q1036.311,138.853,1039.928,142.066Zm-7.181,20.03a5.469,5.469,0,0,0,2.375-2.943v-2.969h-5.776q-5.184,0-5.184,3.4a3.03,3.03,0,0,0,1.269,2.565,5.713,5.713,0,0,0,3.482.944A7.336,7.336,0,0,0,1032.747,162.1Z" style="fill:#fff"/><path d="M1069.892,166.928a8.613,8.613,0,0,1-3.051,1.376,15.423,15.423,0,0,1-3.806.459q-5.184,0-8.017-2.645t-2.835-7.775V146.412H1047.7v-6.479h4.481V132.86h8.422v7.073h7.235v6.479h-7.235v11.824a3.963,3.963,0,0,0,.945,2.834,3.5,3.5,0,0,0,2.673,1,5.413,5.413,0,0,0,3.4-1.08Z" style="fill:#fff"/><path d="M1096.725,142.066q3.615,3.213,3.617,9.69v16.576h-7.883v-3.618q-2.376,4.05-8.855,4.049a13.735,13.735,0,0,1-5.8-1.134,8.631,8.631,0,0,1-3.752-3.13,8.149,8.149,0,0,1-1.3-4.536,7.569,7.569,0,0,1,3.05-6.371q3.049-2.321,9.422-2.321h6.694a5.37,5.37,0,0,0-1.674-4.238,7.367,7.367,0,0,0-5.02-1.486,14.66,14.66,0,0,0-4.563.73,12.015,12.015,0,0,0-3.806,1.971l-3.023-5.885a18.246,18.246,0,0,1,5.695-2.592,25.559,25.559,0,0,1,6.83-.918Q1093.106,138.853,1096.725,142.066Zm-7.181,20.03a5.469,5.469,0,0,0,2.375-2.943v-2.969h-5.776q-5.184,0-5.184,3.4a3.03,3.03,0,0,0,1.269,2.565,5.711,5.711,0,0,0,3.482.944A7.338,7.338,0,0,0,1089.544,162.1Z" style="fill:#fff"/></g><g style="isolation:isolate"><path d="M78.677,197a12.957,12.957,0,0,1,5.7,4.751,14.245,14.245,0,0,1,0,14.551,12.732,12.732,0,0,1-5.7,4.751,21.308,21.308,0,0,1-8.719,1.646H62.345v10.42H53.6V195.326H69.958A21.008,21.008,0,0,1,78.677,197Zm-3.212,16.872a5.925,5.925,0,0,0,2.052-4.832,5.99,5.99,0,0,0-2.052-4.887,9.192,9.192,0,0,0-5.993-1.7H62.345v13.119h7.127A9.186,9.186,0,0,0,75.465,213.872Z" style="fill:#fff"/><path d="M97.52,231.635a14.255,14.255,0,0,1-5.7-5.319,15.55,15.55,0,0,1,0-15.441,14.243,14.243,0,0,1,5.7-5.317,18.582,18.582,0,0,1,16.44,0,14.287,14.287,0,0,1,5.669,5.317,15.55,15.55,0,0,1,0,15.441,14.3,14.3,0,0,1-5.669,5.319,18.591,18.591,0,0,1-16.44,0Zm13.552-7.181a9.3,9.3,0,0,0,0-11.716,7.016,7.016,0,0,0-5.319-2.186,7.1,7.1,0,0,0-5.344,2.186,9.2,9.2,0,0,0,0,11.716,7.1,7.1,0,0,0,5.344,2.187A7.02,7.02,0,0,0,111.072,224.454Z" style="fill:#fff"/><path d="M139.416,204.721a15.123,15.123,0,0,1,5.912-1.08v7.774q-1.4-.107-1.89-.107a7.716,7.716,0,0,0-5.668,2.024q-2.054,2.025-2.052,6.073v13.714H127.3V204.072h8.045v3.834A9.35,9.35,0,0,1,139.416,204.721Z" style="fill:#fff"/><path d="M170.109,231.716a8.635,8.635,0,0,1-3.05,1.376,15.471,15.471,0,0,1-3.806.459q-5.184,0-8.018-2.646t-2.834-7.774V211.2H147.92v-6.478H152.4v-7.074h8.422v7.074h7.235V211.2h-7.235v11.824a3.962,3.962,0,0,0,.945,2.834,3.5,3.5,0,0,0,2.672,1,5.408,5.408,0,0,0,3.4-1.08Z" style="fill:#fff"/><path d="M196.942,206.854q3.617,3.211,3.618,9.69v16.575h-7.883V229.5q-2.376,4.048-8.854,4.049a13.737,13.737,0,0,1-5.8-1.134,8.64,8.64,0,0,1-3.752-3.131,8.146,8.146,0,0,1-1.3-4.535,7.567,7.567,0,0,1,3.05-6.371q3.05-2.32,9.421-2.321h6.695a5.37,5.37,0,0,0-1.674-4.239,7.374,7.374,0,0,0-5.021-1.485,14.662,14.662,0,0,0-4.562.729,12.067,12.067,0,0,0-3.806,1.971l-3.023-5.885a18.251,18.251,0,0,1,5.7-2.591,25.5,25.5,0,0,1,6.829-.918Q193.325,203.641,196.942,206.854Zm-7.18,20.03a5.471,5.471,0,0,0,2.375-2.944v-2.968H186.36q-5.183,0-5.183,3.4a3.031,3.031,0,0,0,1.269,2.565,5.72,5.72,0,0,0,3.482.944A7.336,7.336,0,0,0,189.762,226.884Z" style="fill:#fff"/><path d="M208.171,193.059h8.423v40.06h-8.423Z" style="fill:#fff"/></g><g style="isolation:isolate"><path d="M53.843,316.427h4.414v30.895H53.843Z" style="fill:#fff"/><path d="M86.481,326.292q2.625,2.58,2.626,7.569v13.461H84.87V334.346a7.186,7.186,0,0,0-1.633-5.12,6.144,6.144,0,0,0-4.678-1.721,7.29,7.29,0,0,0-5.429,2.008,7.848,7.848,0,0,0-1.986,5.76v12.049H66.907V323.93h4.06v3.53a8.244,8.244,0,0,1,3.465-2.78,12.128,12.128,0,0,1,4.965-.971A9.663,9.663,0,0,1,86.481,326.292Z" style="fill:#fff"/><path d="M100.913,346.042a11.326,11.326,0,0,1-4.392-4.259,12.73,12.73,0,0,1,0-12.314,11.175,11.175,0,0,1,4.392-4.237,13.142,13.142,0,0,1,6.378-1.523,12.235,12.235,0,0,1,5.671,1.281,9.118,9.118,0,0,1,3.862,3.707l-3.222,2.074a7.214,7.214,0,0,0-2.736-2.516,7.818,7.818,0,0,0-3.619-.838,8.361,8.361,0,0,0-4.127,1.015,7.231,7.231,0,0,0-2.869,2.891,8.75,8.75,0,0,0-1.037,4.3,8.84,8.84,0,0,0,1.037,4.348,7.218,7.218,0,0,0,2.869,2.891,8.35,8.35,0,0,0,4.127,1.015,7.806,7.806,0,0,0,3.619-.838,7.206,7.206,0,0,0,2.736-2.516l3.222,2.03a9.26,9.26,0,0,1-3.862,3.73,12.072,12.072,0,0,1-5.671,1.3A12.987,12.987,0,0,1,100.913,346.042Z" style="fill:#fff"/><path d="M144.1,323.93v23.392h-4.017v-3.531a8.517,8.517,0,0,1-3.376,2.8,10.538,10.538,0,0,1-4.568.993A10.2,10.2,0,0,1,124.768,345q-2.692-2.58-2.692-7.613V323.93h4.237v12.976a7.26,7.26,0,0,0,1.633,5.141,6.1,6.1,0,0,0,4.679,1.744,6.977,6.977,0,0,0,5.295-2.031,7.963,7.963,0,0,0,1.942-5.737V323.93Z" style="fill:#fff"/><path d="M152.175,314.574h4.238v32.748h-4.238Z" style="fill:#fff"/><path d="M168.307,346.042a11.326,11.326,0,0,1-4.392-4.259,12.723,12.723,0,0,1,0-12.314,11.175,11.175,0,0,1,4.392-4.237,13.141,13.141,0,0,1,6.377-1.523,12.229,12.229,0,0,1,5.671,1.281,9.112,9.112,0,0,1,3.862,3.707L181,330.771a7.209,7.209,0,0,0-2.737-2.516,7.818,7.818,0,0,0-3.619-.838,8.36,8.36,0,0,0-4.126,1.015,7.224,7.224,0,0,0-2.869,2.891,8.74,8.74,0,0,0-1.038,4.3,8.83,8.83,0,0,0,1.038,4.348,7.212,7.212,0,0,0,2.869,2.891,8.349,8.349,0,0,0,4.126,1.015,7.806,7.806,0,0,0,3.619-.838A7.2,7.2,0,0,0,181,340.525l3.221,2.03a9.254,9.254,0,0,1-3.862,3.73,12.066,12.066,0,0,1-5.671,1.3A12.986,12.986,0,0,1,168.307,346.042Z" style="fill:#fff"/><path d="M205.645,326.092q2.582,2.384,2.582,7.107v14.123h-4.016v-3.09a6.708,6.708,0,0,1-3.023,2.494,11.557,11.557,0,0,1-4.657.86,9.736,9.736,0,0,1-6.289-1.9,6.523,6.523,0,0,1-.111-9.953q2.251-1.875,7.15-1.875h6.709v-.839a5.4,5.4,0,0,0-1.589-4.193,6.7,6.7,0,0,0-4.678-1.456,12.385,12.385,0,0,0-4.061.684,10.475,10.475,0,0,0-3.354,1.831l-1.766-3.178a12.84,12.84,0,0,1,4.326-2.228,18.093,18.093,0,0,1,5.34-.773Q203.063,323.709,205.645,326.092Zm-4.215,17.147a6.188,6.188,0,0,0,2.56-3.068v-3.265h-6.532q-5.385,0-5.385,3.619a3.271,3.271,0,0,0,1.369,2.78,6.245,6.245,0,0,0,3.795,1.016A7.871,7.871,0,0,0,201.43,343.239Z" style="fill:#fff"/><path d="M229.235,345.954a6.315,6.315,0,0,1-2.3,1.213,9.565,9.565,0,0,1-2.824.419,7.5,7.5,0,0,1-5.473-1.9,7.245,7.245,0,0,1-1.942-5.429V327.417h-3.972V323.93H216.7v-5.12h4.237v5.12h6.708v3.487h-6.708v12.666a4.109,4.109,0,0,0,.949,2.914,3.537,3.537,0,0,0,2.715,1.014,5.111,5.111,0,0,0,3.31-1.1Z" style="fill:#fff"/><path d="M254.613,337.039H235.635A7.338,7.338,0,0,0,238.349,342a8.854,8.854,0,0,0,5.759,1.876,8.673,8.673,0,0,0,6.753-2.825l2.34,2.737a10.251,10.251,0,0,1-3.951,2.825,14.9,14.9,0,0,1-11.85-.552,10.862,10.862,0,0,1-4.436-4.259,12.207,12.207,0,0,1-1.567-6.18,12.4,12.4,0,0,1,1.523-6.134,10.922,10.922,0,0,1,4.193-4.259,11.945,11.945,0,0,1,6.025-1.523,11.7,11.7,0,0,1,5.98,1.523,10.714,10.714,0,0,1,4.105,4.259,12.986,12.986,0,0,1,1.478,6.267A12.383,12.383,0,0,1,254.613,337.039Zm-16.573-7.9a7.474,7.474,0,0,0-2.405,4.855h15.006a7.525,7.525,0,0,0-2.406-4.833,7.9,7.9,0,0,0-10.2-.022Z" style="fill:#fff"/><path d="M285.6,345.954a6.332,6.332,0,0,1-2.3,1.213,9.572,9.572,0,0,1-2.825.419,7.5,7.5,0,0,1-5.473-1.9,7.244,7.244,0,0,1-1.941-5.429V327.417h-3.973V323.93h3.973v-5.12H277.3v5.12h6.709v3.487H277.3v12.666a4.105,4.105,0,0,0,.95,2.914,3.535,3.535,0,0,0,2.714,1.014,5.111,5.111,0,0,0,3.31-1.1Z" style="fill:#fff"/><path d="M310.289,326.292q2.627,2.58,2.626,7.569v13.461h-4.237V334.346a7.186,7.186,0,0,0-1.633-5.12,6.144,6.144,0,0,0-4.678-1.721,7.29,7.29,0,0,0-5.429,2.008,7.848,7.848,0,0,0-1.986,5.76v12.049h-4.237V314.574h4.237V327.24a8.753,8.753,0,0,1,3.465-2.6,11.927,11.927,0,0,1,4.789-.927A9.663,9.663,0,0,1,310.289,326.292Z" style="fill:#fff"/><path d="M341.956,337.039H322.978A7.338,7.338,0,0,0,325.692,342a8.852,8.852,0,0,0,5.759,1.876,8.673,8.673,0,0,0,6.753-2.825l2.339,2.737a10.24,10.24,0,0,1-3.95,2.825,14.9,14.9,0,0,1-11.85-.552,10.862,10.862,0,0,1-4.436-4.259,12.207,12.207,0,0,1-1.567-6.18,12.4,12.4,0,0,1,1.523-6.134,10.909,10.909,0,0,1,4.193-4.259,11.943,11.943,0,0,1,6.024-1.523,11.708,11.708,0,0,1,5.981,1.523,10.705,10.705,0,0,1,4.1,4.259,12.975,12.975,0,0,1,1.479,6.267A12.383,12.383,0,0,1,341.956,337.039Zm-16.573-7.9a7.47,7.47,0,0,0-2.4,4.855h15a7.524,7.524,0,0,0-2.405-4.833,7.9,7.9,0,0,0-10.195-.022Z" style="fill:#fff"/><path d="M363.6,346.042a11.326,11.326,0,0,1-4.392-4.259,12.73,12.73,0,0,1,0-12.314,11.175,11.175,0,0,1,4.392-4.237,13.141,13.141,0,0,1,6.377-1.523,12.236,12.236,0,0,1,5.672,1.281,9.118,9.118,0,0,1,3.862,3.707l-3.222,2.074a7.214,7.214,0,0,0-2.736-2.516,7.818,7.818,0,0,0-3.619-.838,8.361,8.361,0,0,0-4.127,1.015,7.231,7.231,0,0,0-2.869,2.891,8.739,8.739,0,0,0-1.037,4.3,8.83,8.83,0,0,0,1.037,4.348,7.218,7.218,0,0,0,2.869,2.891,8.35,8.35,0,0,0,4.127,1.015,7.806,7.806,0,0,0,3.619-.838,7.206,7.206,0,0,0,2.736-2.516l3.222,2.03a9.26,9.26,0,0,1-3.862,3.73,12.073,12.073,0,0,1-5.672,1.3A12.986,12.986,0,0,1,363.6,346.042Z" style="fill:#fff"/><path d="M406.791,323.93v23.392h-4.017v-3.531a8.517,8.517,0,0,1-3.376,2.8,10.538,10.538,0,0,1-4.568.993A10.2,10.2,0,0,1,387.459,345q-2.693-2.58-2.692-7.613V323.93H389v12.976a7.26,7.26,0,0,0,1.633,5.141,6.1,6.1,0,0,0,4.678,1.744,6.978,6.978,0,0,0,5.3-2.031,7.963,7.963,0,0,0,1.942-5.737V323.93Z" style="fill:#fff"/><path d="M414.867,314.574H419.1v32.748h-4.237Z" style="fill:#fff"/><path d="M440.905,345.954a6.315,6.315,0,0,1-2.295,1.213,9.565,9.565,0,0,1-2.824.419,7.5,7.5,0,0,1-5.473-1.9,7.245,7.245,0,0,1-1.942-5.429V327.417H424.4V323.93h3.972v-5.12h4.237v5.12h6.708v3.487h-6.708v12.666a4.109,4.109,0,0,0,.949,2.914,3.535,3.535,0,0,0,2.714,1.014,5.112,5.112,0,0,0,3.311-1.1Z" style="fill:#fff"/><path d="M467.828,323.93v23.392h-4.017v-3.531a8.51,8.51,0,0,1-3.376,2.8,10.538,10.538,0,0,1-4.568.993A10.2,10.2,0,0,1,448.5,345q-2.692-2.58-2.692-7.613V323.93h4.237v12.976a7.26,7.26,0,0,0,1.633,5.141,6.1,6.1,0,0,0,4.679,1.744,6.975,6.975,0,0,0,5.3-2.031,7.963,7.963,0,0,0,1.942-5.737V323.93Z" style="fill:#fff"/><path d="M483.23,324.769a11.838,11.838,0,0,1,5.252-1.06v4.105a8.379,8.379,0,0,0-.971-.044,7.131,7.131,0,0,0-5.407,2.052,8.126,8.126,0,0,0-1.963,5.848v11.652H475.9V323.93h4.061v3.928A7.226,7.226,0,0,1,483.23,324.769Z" style="fill:#fff"/><path d="M514.522,337.039H495.544A7.342,7.342,0,0,0,498.258,342a8.857,8.857,0,0,0,5.76,1.876,8.676,8.676,0,0,0,6.753-2.825l2.339,2.737a10.255,10.255,0,0,1-3.95,2.825,14.906,14.906,0,0,1-11.851-.552,10.853,10.853,0,0,1-4.435-4.259,12.207,12.207,0,0,1-1.567-6.18,12.394,12.394,0,0,1,1.523-6.134,10.913,10.913,0,0,1,4.192-4.259,11.947,11.947,0,0,1,6.025-1.523,11.7,11.7,0,0,1,5.98,1.523,10.708,10.708,0,0,1,4.1,4.259,12.986,12.986,0,0,1,1.478,6.267A12.107,12.107,0,0,1,514.522,337.039Zm-16.573-7.9a7.474,7.474,0,0,0-2.405,4.855H510.55a7.528,7.528,0,0,0-2.405-4.833,7.9,7.9,0,0,0-10.2-.022Z" style="fill:#fff"/><path d="M536.1,346.042a11.2,11.2,0,0,1-4.347-4.259,12.879,12.879,0,0,1,0-12.314,11.051,11.051,0,0,1,4.347-4.237,13.612,13.612,0,0,1,12.513,0,11.107,11.107,0,0,1,4.325,4.237,12.879,12.879,0,0,1,0,12.314,11.258,11.258,0,0,1-4.325,4.259,13.448,13.448,0,0,1-12.513,0Zm10.306-3.2a7.313,7.313,0,0,0,2.8-2.913,9.62,9.62,0,0,0,0-8.606,7.173,7.173,0,0,0-2.8-2.891,8.542,8.542,0,0,0-8.077,0,7.325,7.325,0,0,0-2.825,2.891,9.446,9.446,0,0,0,0,8.606,7.47,7.47,0,0,0,2.825,2.913,8.382,8.382,0,0,0,8.077,0Z" style="fill:#fff"/><path d="M565.145,321.9v2.03h6.8v3.487h-6.708v19.905H561V327.417h-3.972V323.93H561v-2.074a7.458,7.458,0,0,1,2.03-5.518,7.7,7.7,0,0,1,5.694-2.03,9.58,9.58,0,0,1,2.648.354,6.452,6.452,0,0,1,2.118,1.014l-1.279,3.223a5.284,5.284,0,0,0-3.267-1.1Q565.145,317.8,565.145,321.9Z" style="fill:#fff"/><path d="M591.582,346.042a11.2,11.2,0,0,1-4.348-4.259,12.879,12.879,0,0,1,0-12.314,11.054,11.054,0,0,1,4.348-4.237,13.61,13.61,0,0,1,12.512,0,11.093,11.093,0,0,1,4.325,4.237,12.879,12.879,0,0,1,0,12.314,11.245,11.245,0,0,1-4.325,4.259,13.446,13.446,0,0,1-12.512,0Zm10.3-3.2a7.315,7.315,0,0,0,2.8-2.913,9.629,9.629,0,0,0,0-8.606,7.176,7.176,0,0,0-2.8-2.891,8.54,8.54,0,0,0-8.076,0,7.319,7.319,0,0,0-2.825,2.891,9.446,9.446,0,0,0,0,8.606,7.463,7.463,0,0,0,2.825,2.913,8.38,8.38,0,0,0,8.076,0Z" style="fill:#fff"/><path d="M634.349,325.209a10.811,10.811,0,0,1,4.215,4.194,12.422,12.422,0,0,1,1.522,6.222,12.549,12.549,0,0,1-1.522,6.246,10.758,10.758,0,0,1-4.215,4.215,12.3,12.3,0,0,1-6.091,1.5,10.842,10.842,0,0,1-4.612-.97,9.586,9.586,0,0,1-3.553-2.825v12.093h-4.237V323.93h4.061v3.707a8.993,8.993,0,0,1,3.575-2.934,11.282,11.282,0,0,1,4.766-.994A12.313,12.313,0,0,1,634.349,325.209Zm-2.406,17.633a7.463,7.463,0,0,0,2.825-2.913,9.446,9.446,0,0,0,0-8.606,7.319,7.319,0,0,0-2.825-2.891,8.025,8.025,0,0,0-4.038-1.015,7.817,7.817,0,0,0-3.994,1.037,7.512,7.512,0,0,0-2.825,2.891,8.624,8.624,0,0,0-1.037,4.28,8.892,8.892,0,0,0,1.015,4.3,7.269,7.269,0,0,0,2.825,2.913,8.338,8.338,0,0,0,8.054,0Z" style="fill:#fff"/><path d="M667.008,337.039H648.03A7.343,7.343,0,0,0,650.745,342a8.852,8.852,0,0,0,5.759,1.876,8.676,8.676,0,0,0,6.753-2.825l2.339,2.737a10.24,10.24,0,0,1-3.95,2.825,14.906,14.906,0,0,1-11.851-.552,10.859,10.859,0,0,1-4.435-4.259,12.207,12.207,0,0,1-1.567-6.18,12.4,12.4,0,0,1,1.523-6.134,10.909,10.909,0,0,1,4.193-4.259,11.943,11.943,0,0,1,6.024-1.523,11.708,11.708,0,0,1,5.981,1.523,10.705,10.705,0,0,1,4.1,4.259,12.975,12.975,0,0,1,1.479,6.267A12.153,12.153,0,0,1,667.008,337.039Zm-16.572-7.9a7.471,7.471,0,0,0-2.406,4.855h15.006a7.528,7.528,0,0,0-2.4-4.833,7.9,7.9,0,0,0-10.195-.022Z" style="fill:#fff"/><path d="M692.541,326.292q2.626,2.58,2.626,7.569v13.461H690.93V334.346a7.186,7.186,0,0,0-1.633-5.12,6.144,6.144,0,0,0-4.678-1.721,7.29,7.29,0,0,0-5.429,2.008,7.848,7.848,0,0,0-1.986,5.76v12.049h-4.237V323.93h4.06v3.53a8.244,8.244,0,0,1,3.465-2.78,12.133,12.133,0,0,1,4.966-.971A9.663,9.663,0,0,1,692.541,326.292Z" style="fill:#fff"/><path d="M736.963,314.574v32.748H732.9v-3.707a9.179,9.179,0,0,1-3.574,2.957,11.076,11.076,0,0,1-4.767,1.014,12.3,12.3,0,0,1-6.091-1.5,10.758,10.758,0,0,1-4.215-4.215,12.549,12.549,0,0,1-1.523-6.246,12.423,12.423,0,0,1,1.523-6.222,10.811,10.811,0,0,1,4.215-4.194,12.31,12.31,0,0,1,6.091-1.5,11.2,11.2,0,0,1,4.634.95,9.009,9.009,0,0,1,3.531,2.8V314.574Zm-8.033,28.268a7.276,7.276,0,0,0,2.825-2.913,9.629,9.629,0,0,0,0-8.606,7.138,7.138,0,0,0-2.825-2.891,8.5,8.5,0,0,0-8.055,0,7.323,7.323,0,0,0-2.824,2.891,9.446,9.446,0,0,0,0,8.606,7.467,7.467,0,0,0,2.824,2.913,8.339,8.339,0,0,0,8.055,0Z" style="fill:#fff"/><path d="M760.95,326.092q2.582,2.384,2.582,7.107v14.123h-4.016v-3.09a6.7,6.7,0,0,1-3.023,2.494,11.557,11.557,0,0,1-4.657.86,9.738,9.738,0,0,1-6.289-1.9,6.524,6.524,0,0,1-.11-9.953q2.251-1.875,7.149-1.875H759.3v-.839a5.4,5.4,0,0,0-1.588-4.193,6.706,6.706,0,0,0-4.679-1.456,12.394,12.394,0,0,0-4.061.684,10.486,10.486,0,0,0-3.354,1.831l-1.765-3.178a12.825,12.825,0,0,1,4.325-2.228,18.1,18.1,0,0,1,5.341-.773Q758.368,323.709,760.95,326.092Zm-4.215,17.147a6.178,6.178,0,0,0,2.56-3.068v-3.265h-6.532q-5.385,0-5.385,3.619a3.271,3.271,0,0,0,1.369,2.78,6.245,6.245,0,0,0,3.8,1.016A7.871,7.871,0,0,0,756.735,343.239Z" style="fill:#fff"/><path d="M784.54,345.954a6.324,6.324,0,0,1-2.295,1.213,9.567,9.567,0,0,1-2.825.419,7.5,7.5,0,0,1-5.472-1.9,7.245,7.245,0,0,1-1.942-5.429V327.417h-3.972V323.93h3.972v-5.12h4.237v5.12h6.708v3.487h-6.708v12.666a4.109,4.109,0,0,0,.949,2.914,3.535,3.535,0,0,0,2.714,1.014,5.107,5.107,0,0,0,3.31-1.1Z" style="fill:#fff"/><path d="M805.614,326.092q2.582,2.384,2.582,7.107v14.123H804.18v-3.09a6.7,6.7,0,0,1-3.023,2.494,11.557,11.557,0,0,1-4.657.86,9.738,9.738,0,0,1-6.289-1.9,6.524,6.524,0,0,1-.11-9.953q2.251-1.875,7.149-1.875h6.709v-.839a5.4,5.4,0,0,0-1.588-4.193,6.706,6.706,0,0,0-4.679-1.456,12.394,12.394,0,0,0-4.061.684,10.486,10.486,0,0,0-3.354,1.831l-1.765-3.178a12.825,12.825,0,0,1,4.325-2.228,18.1,18.1,0,0,1,5.341-.773Q803.032,323.709,805.614,326.092ZM801.4,343.239a6.178,6.178,0,0,0,2.56-3.068v-3.265h-6.532q-5.385,0-5.385,3.619a3.274,3.274,0,0,0,1.369,2.78,6.247,6.247,0,0,0,3.8,1.016A7.87,7.87,0,0,0,801.4,343.239Z" style="fill:#fff"/><path d="M827.991,318.633a2.6,2.6,0,0,1-.816-1.941,2.676,2.676,0,0,1,.816-1.964,2.783,2.783,0,0,1,2.052-.816,2.872,2.872,0,0,1,2.053.772,2.535,2.535,0,0,1,.816,1.92,2.73,2.73,0,0,1-.816,2.008,2.784,2.784,0,0,1-2.053.816A2.818,2.818,0,0,1,827.991,318.633Zm-.066,5.3h4.237v23.392h-4.237Z" style="fill:#fff"/><path d="M859.813,326.292q2.625,2.58,2.625,7.569v13.461H858.2V334.346a7.186,7.186,0,0,0-1.633-5.12,6.144,6.144,0,0,0-4.678-1.721,7.29,7.29,0,0,0-5.429,2.008,7.852,7.852,0,0,0-1.985,5.76v12.049h-4.238V323.93H844.3v3.53a8.232,8.232,0,0,1,3.465-2.78,12.124,12.124,0,0,1,4.965-.971A9.665,9.665,0,0,1,859.813,326.292Z" style="fill:#fff"/><path d="M903.97,323.93v23.392h-4.017v-3.531a8.51,8.51,0,0,1-3.376,2.8,10.538,10.538,0,0,1-4.568.993A10.2,10.2,0,0,1,884.638,345q-2.693-2.58-2.693-7.613V323.93h4.238v12.976a7.264,7.264,0,0,0,1.632,5.141,6.1,6.1,0,0,0,4.679,1.744,6.979,6.979,0,0,0,5.3-2.031,7.963,7.963,0,0,0,1.942-5.737V323.93Z" style="fill:#fff"/><path d="M919.372,324.769a11.838,11.838,0,0,1,5.252-1.06v4.105a8.367,8.367,0,0,0-.971-.044,7.128,7.128,0,0,0-5.406,2.052,8.127,8.127,0,0,0-1.964,5.848v11.652h-4.237V323.93h4.06v3.928A7.235,7.235,0,0,1,919.372,324.769Z" style="fill:#fff"/><path d="M948.325,325.209a10.817,10.817,0,0,1,4.215,4.194,12.423,12.423,0,0,1,1.523,6.222,12.549,12.549,0,0,1-1.523,6.246,10.765,10.765,0,0,1-4.215,4.215,12.305,12.305,0,0,1-6.091,1.5,11.068,11.068,0,0,1-4.766-1.014,9.161,9.161,0,0,1-3.575-2.957v3.707h-4.061V314.574h4.237V327.46a9.009,9.009,0,0,1,3.531-2.8,11.2,11.2,0,0,1,4.634-.95A12.316,12.316,0,0,1,948.325,325.209Zm-2.406,17.633a7.463,7.463,0,0,0,2.825-2.913,9.446,9.446,0,0,0,0-8.606,7.319,7.319,0,0,0-2.825-2.891,8.5,8.5,0,0,0-8.055,0,7.136,7.136,0,0,0-2.824,2.891,9.62,9.62,0,0,0,0,8.606,7.273,7.273,0,0,0,2.824,2.913,8.339,8.339,0,0,0,8.055,0Z" style="fill:#fff"/><path d="M975.667,326.092q2.582,2.384,2.582,7.107v14.123h-4.017v-3.09a6.7,6.7,0,0,1-3.023,2.494,11.552,11.552,0,0,1-4.656.86,9.736,9.736,0,0,1-6.289-1.9,6.523,6.523,0,0,1-.111-9.953q2.251-1.875,7.15-1.875h6.709v-.839a5.4,5.4,0,0,0-1.589-4.193,6.7,6.7,0,0,0-4.679-1.456,12.384,12.384,0,0,0-4.06.684,10.465,10.465,0,0,0-3.354,1.831l-1.766-3.178a12.84,12.84,0,0,1,4.326-2.228,18.088,18.088,0,0,1,5.34-.773Q973.085,323.709,975.667,326.092Zm-4.215,17.147a6.188,6.188,0,0,0,2.56-3.068v-3.265h-6.533q-5.384,0-5.384,3.619a3.271,3.271,0,0,0,1.369,2.78,6.243,6.243,0,0,0,3.795,1.016A7.873,7.873,0,0,0,971.452,343.239Z" style="fill:#fff"/><path d="M1005.679,326.292q2.625,2.58,2.626,7.569v13.461h-4.238V334.346a7.191,7.191,0,0,0-1.632-5.12,6.146,6.146,0,0,0-4.679-1.721,7.29,7.29,0,0,0-5.429,2.008,7.852,7.852,0,0,0-1.985,5.76v12.049H986.1V323.93h4.061v3.53a8.238,8.238,0,0,1,3.465-2.78,12.124,12.124,0,0,1,4.965-.971A9.665,9.665,0,0,1,1005.679,326.292Z" style="fill:#fff"/></g><g style="isolation:isolate"><path d="M89.482,379.231q2.583,2.56,2.582,7.592v13.461H87.828V387.309a7.384,7.384,0,0,0-1.567-5.121,5.752,5.752,0,0,0-4.48-1.72,6.708,6.708,0,0,0-5.12,2.008,8.067,8.067,0,0,0-1.9,5.759v12.049H70.526V387.309a7.384,7.384,0,0,0-1.567-5.121,5.748,5.748,0,0,0-4.479-1.72,6.708,6.708,0,0,0-5.12,2.008,8.067,8.067,0,0,0-1.9,5.759v12.049H53.225V376.893h4.061v3.486a8.212,8.212,0,0,1,3.354-2.758,11.226,11.226,0,0,1,4.722-.949,10.362,10.362,0,0,1,4.855,1.1A7.669,7.669,0,0,1,73.483,381a8.972,8.972,0,0,1,3.686-3.178,12.023,12.023,0,0,1,5.318-1.147A9.5,9.5,0,0,1,89.482,379.231Z" style="fill:#fff"/><path d="M103.76,399a11.189,11.189,0,0,1-4.348-4.259,12.877,12.877,0,0,1,0-12.313,11.049,11.049,0,0,1,4.348-4.238,13.618,13.618,0,0,1,12.512,0,11.1,11.1,0,0,1,4.325,4.238,12.877,12.877,0,0,1,0,12.313A11.244,11.244,0,0,1,116.272,399a13.438,13.438,0,0,1-12.512,0Zm10.3-3.2a7.328,7.328,0,0,0,2.8-2.913,9.631,9.631,0,0,0,0-8.607,7.173,7.173,0,0,0-2.8-2.89,8.534,8.534,0,0,0-8.077,0,7.307,7.307,0,0,0-2.824,2.89,9.44,9.44,0,0,0,0,8.607,7.467,7.467,0,0,0,2.824,2.913,8.382,8.382,0,0,0,8.077,0Z" style="fill:#fff"/><path d="M146.527,378.172a10.808,10.808,0,0,1,4.215,4.193,13.528,13.528,0,0,1,0,12.468,10.754,10.754,0,0,1-4.215,4.216,12.305,12.305,0,0,1-6.091,1.5,11.076,11.076,0,0,1-4.767-1.015,9.182,9.182,0,0,1-3.575-2.957v3.707h-4.06V367.536h4.237v12.887a9,9,0,0,1,3.531-2.8,11.2,11.2,0,0,1,4.634-.949A12.316,12.316,0,0,1,146.527,378.172Zm-2.406,17.633a7.476,7.476,0,0,0,2.825-2.913,9.448,9.448,0,0,0,0-8.607,7.316,7.316,0,0,0-2.825-2.89,8.491,8.491,0,0,0-8.055,0,7.121,7.121,0,0,0-2.824,2.89,9.631,9.631,0,0,0,0,8.607,7.273,7.273,0,0,0,2.824,2.913,8.339,8.339,0,0,0,8.055,0Z" style="fill:#fff"/><path d="M158.2,371.6a2.6,2.6,0,0,1-.817-1.942,2.678,2.678,0,0,1,.817-1.964,2.783,2.783,0,0,1,2.052-.816,2.874,2.874,0,0,1,2.052.772,2.534,2.534,0,0,1,.817,1.92,2.727,2.727,0,0,1-.817,2.008,2.783,2.783,0,0,1-2.052.817A2.822,2.822,0,0,1,158.2,371.6Zm-.067,5.3h4.238v23.391h-4.238Z" style="fill:#fff"/><path d="M170.447,367.536h4.237v32.748h-4.237Z" style="fill:#fff"/><path d="M182.827,371.6a2.6,2.6,0,0,1-.817-1.942,2.678,2.678,0,0,1,.817-1.964,2.783,2.783,0,0,1,2.052-.816,2.874,2.874,0,0,1,2.052.772,2.534,2.534,0,0,1,.817,1.92,2.727,2.727,0,0,1-.817,2.008,2.783,2.783,0,0,1-2.052.817A2.822,2.822,0,0,1,182.827,371.6Zm-.067,5.3H187v23.391H182.76Z" style="fill:#fff"/><path d="M208.226,398.916a6.325,6.325,0,0,1-2.295,1.214,9.6,9.6,0,0,1-2.825.419,7.5,7.5,0,0,1-5.472-1.9,7.243,7.243,0,0,1-1.942-5.428V380.379H191.72v-3.486h3.972v-5.121h4.237v5.121h6.708v3.486h-6.708v12.667a4.107,4.107,0,0,0,.949,2.913,3.531,3.531,0,0,0,2.714,1.015,5.108,5.108,0,0,0,3.31-1.1Z" style="fill:#fff"/><path d="M233.6,376.893l-11.343,25.73a11.6,11.6,0,0,1-3.509,5.032,8.01,8.01,0,0,1-4.833,1.456,10.236,10.236,0,0,1-3.332-.551,6.851,6.851,0,0,1-2.67-1.612l1.81-3.177a5.9,5.9,0,0,0,4.192,1.721,4.046,4.046,0,0,0,2.582-.816,6.975,6.975,0,0,0,1.876-2.8l.75-1.633L208.8,376.893h4.413l8.165,18.712,8.077-18.712Z" style="fill:#fff"/><path d="M235.016,399.688a2.918,2.918,0,0,1-.883-2.184,2.867,2.867,0,0,1,.883-2.141,2.925,2.925,0,0,1,2.118-.86,2.82,2.82,0,0,1,2.075.838,2.927,2.927,0,0,1,.838,2.163,2.957,2.957,0,0,1-.86,2.184,2.8,2.8,0,0,1-2.053.861A2.926,2.926,0,0,1,235.016,399.688Z" style="fill:#fff"/><path d="M264.763,373.229H254.17V369.39h25.555v3.839H269.132v27.055h-4.369Z" style="fill:#fff"/><path d="M303.491,379.254q2.627,2.582,2.626,7.569v13.461H301.88V387.309a7.187,7.187,0,0,0-1.633-5.121,6.143,6.143,0,0,0-4.678-1.72,7.29,7.29,0,0,0-5.429,2.008,7.844,7.844,0,0,0-1.986,5.759v12.049h-4.237V367.536h4.237V380.2a8.751,8.751,0,0,1,3.465-2.6,11.91,11.91,0,0,1,4.789-.927A9.662,9.662,0,0,1,303.491,379.254Z" style="fill:#fff"/><path d="M314.04,371.6a2.6,2.6,0,0,1-.817-1.942,2.678,2.678,0,0,1,.817-1.964,2.781,2.781,0,0,1,2.052-.816,2.874,2.874,0,0,1,2.052.772,2.536,2.536,0,0,1,.816,1.92,2.73,2.73,0,0,1-.816,2.008,2.783,2.783,0,0,1-2.052.817A2.82,2.82,0,0,1,314.04,371.6Zm-.067,5.3h4.237v23.391h-4.237Z" style="fill:#fff"/><path d="M327.479,399.776a12.1,12.1,0,0,1-4.149-1.963l1.765-3.355a12.674,12.674,0,0,0,3.752,1.766,15.447,15.447,0,0,0,4.457.662q5.562,0,5.561-3.178a2.058,2.058,0,0,0-.75-1.677,4.748,4.748,0,0,0-1.876-.905q-1.125-.285-3.2-.64a31.263,31.263,0,0,1-4.613-1.015,7.106,7.106,0,0,1-3.067-1.942,5.4,5.4,0,0,1-1.28-3.84,6,6,0,0,1,2.648-5.1,11.861,11.861,0,0,1,7.106-1.92,19.6,19.6,0,0,1,4.678.573,12.619,12.619,0,0,1,3.84,1.545l-1.81,3.355a12.164,12.164,0,0,0-6.752-1.854,7.8,7.8,0,0,0-4.105.883,2.663,2.663,0,0,0-1.412,2.339,2.23,2.23,0,0,0,.794,1.809,5,5,0,0,0,1.964.971q1.17.309,3.288.706a35.942,35.942,0,0,1,4.569,1.037,6.844,6.844,0,0,1,2.979,1.876,5.231,5.231,0,0,1,1.236,3.708,5.845,5.845,0,0,1-2.715,5.053A12.814,12.814,0,0,1,333,400.549,19.6,19.6,0,0,1,327.479,399.776Z" style="fill:#fff"/><path d="M395.667,376.893l-8.738,23.391h-4.061l-6.753-17.742-6.841,17.742h-4.06l-8.695-23.391h4.017l6.8,18.625,7.061-18.625h3.575l6.929,18.712,6.974-18.712Z" style="fill:#fff"/><path d="M400.014,371.6a2.6,2.6,0,0,1-.817-1.942,2.678,2.678,0,0,1,.817-1.964,2.783,2.783,0,0,1,2.052-.816,2.874,2.874,0,0,1,2.052.772,2.534,2.534,0,0,1,.817,1.92,2.727,2.727,0,0,1-.817,2.008,2.783,2.783,0,0,1-2.052.817A2.822,2.822,0,0,1,400.014,371.6Zm-.067,5.3h4.238v23.391h-4.238Z" style="fill:#fff"/><path d="M412.261,367.536H416.5v32.748h-4.237Z" style="fill:#fff"/><path d="M424.574,367.536h4.238v32.748h-4.238Z" style="fill:#fff"/><path d="M468.334,379.254q2.626,2.582,2.626,7.569v13.461h-4.236V387.309a7.183,7.183,0,0,0-1.634-5.121,6.143,6.143,0,0,0-4.678-1.72,7.291,7.291,0,0,0-5.429,2.008A7.847,7.847,0,0,0,453,388.235v12.049H448.76V367.536H453V380.2a8.748,8.748,0,0,1,3.464-2.6,11.913,11.913,0,0,1,4.789-.927A9.662,9.662,0,0,1,468.334,379.254Z" style="fill:#fff"/><path d="M500,390H481.023a7.342,7.342,0,0,0,2.714,4.965,8.857,8.857,0,0,0,5.76,1.876,8.679,8.679,0,0,0,6.753-2.825l2.339,2.736a10.245,10.245,0,0,1-3.95,2.825,14.894,14.894,0,0,1-11.851-.552,10.845,10.845,0,0,1-4.435-4.258,12.209,12.209,0,0,1-1.567-6.18,12.4,12.4,0,0,1,1.523-6.135,10.92,10.92,0,0,1,4.192-4.259,11.957,11.957,0,0,1,6.025-1.522,11.713,11.713,0,0,1,5.98,1.522,10.714,10.714,0,0,1,4.105,4.259,12.987,12.987,0,0,1,1.478,6.268A12.091,12.091,0,0,1,500,390Zm-16.573-7.9a7.47,7.47,0,0,0-2.4,4.854h15.006a7.528,7.528,0,0,0-2.4-4.833,7.9,7.9,0,0,0-10.2-.021Z" style="fill:#fff"/><path d="M505.959,367.536H510.2v32.748h-4.237Z" style="fill:#fff"/><path d="M536.766,378.172a10.806,10.806,0,0,1,4.214,4.193,13.52,13.52,0,0,1,0,12.468,10.752,10.752,0,0,1-4.214,4.216,12.305,12.305,0,0,1-6.091,1.5,10.828,10.828,0,0,1-4.612-.971,9.568,9.568,0,0,1-3.553-2.825v12.094h-4.238V376.893h4.061V380.6a9,9,0,0,1,3.575-2.935,11.286,11.286,0,0,1,4.767-.993A12.316,12.316,0,0,1,536.766,378.172Zm-2.406,17.633a7.476,7.476,0,0,0,2.825-2.913,9.448,9.448,0,0,0,0-8.607,7.316,7.316,0,0,0-2.825-2.89,8.031,8.031,0,0,0-4.038-1.016,7.828,7.828,0,0,0-4,1.037,7.513,7.513,0,0,0-2.824,2.892,8.611,8.611,0,0,0-1.038,4.28,8.9,8.9,0,0,0,1.015,4.3,7.282,7.282,0,0,0,2.825,2.913,8.339,8.339,0,0,0,8.055,0Z" style="fill:#fff"/><path d="M581.3,390H562.319a7.343,7.343,0,0,0,2.715,4.965,8.852,8.852,0,0,0,5.759,1.876,8.679,8.679,0,0,0,6.753-2.825l2.339,2.736a10.23,10.23,0,0,1-3.95,2.825,14.894,14.894,0,0,1-11.851-.552,10.851,10.851,0,0,1-4.435-4.258,12.209,12.209,0,0,1-1.567-6.18,12.406,12.406,0,0,1,1.523-6.135,10.916,10.916,0,0,1,4.193-4.259,11.953,11.953,0,0,1,6.024-1.522,11.717,11.717,0,0,1,5.981,1.522,10.712,10.712,0,0,1,4.1,4.259,12.976,12.976,0,0,1,1.479,6.268A12.137,12.137,0,0,1,581.3,390Zm-16.572-7.9a7.466,7.466,0,0,0-2.406,4.854h15.006a7.528,7.528,0,0,0-2.405-4.833,7.9,7.9,0,0,0-10.195-.021Z" style="fill:#fff"/><path d="M588.447,399.776a12.107,12.107,0,0,1-4.149-1.963l1.766-3.355a12.679,12.679,0,0,0,3.751,1.766,15.453,15.453,0,0,0,4.458.662q5.56,0,5.561-3.178a2.058,2.058,0,0,0-.75-1.677,4.755,4.755,0,0,0-1.876-.905q-1.125-.285-3.2-.64a31.276,31.276,0,0,1-4.612-1.015,7.106,7.106,0,0,1-3.067-1.942,5.4,5.4,0,0,1-1.28-3.84,6,6,0,0,1,2.648-5.1,11.859,11.859,0,0,1,7.106-1.92,19.6,19.6,0,0,1,4.678.573,12.629,12.629,0,0,1,3.84,1.545l-1.81,3.355a12.164,12.164,0,0,0-6.752-1.854,7.8,7.8,0,0,0-4.105.883,2.663,2.663,0,0,0-1.412,2.339,2.227,2.227,0,0,0,.794,1.809,5,5,0,0,0,1.964.971q1.168.309,3.288.706a35.921,35.921,0,0,1,4.568,1.037,6.832,6.832,0,0,1,2.979,1.876,5.227,5.227,0,0,1,1.236,3.708,5.844,5.844,0,0,1-2.714,5.053,12.817,12.817,0,0,1-7.393,1.876A19.6,19.6,0,0,1,588.447,399.776Z" style="fill:#fff"/><path d="M622.52,398.916a6.333,6.333,0,0,1-2.295,1.214,9.6,9.6,0,0,1-2.825.419,7.5,7.5,0,0,1-5.473-1.9,7.243,7.243,0,0,1-1.942-5.428V380.379h-3.972v-3.486h3.972v-5.121h4.237v5.121h6.709v3.486h-6.709v12.667a4.107,4.107,0,0,0,.949,2.913,3.534,3.534,0,0,0,2.715,1.015,5.112,5.112,0,0,0,3.31-1.1Z" style="fill:#fff"/><path d="M643.593,379.055q2.582,2.383,2.582,7.106v14.123h-4.016v-3.09a6.7,6.7,0,0,1-3.023,2.494,11.539,11.539,0,0,1-4.657.861,9.738,9.738,0,0,1-6.289-1.9,6.524,6.524,0,0,1-.11-9.953q2.251-1.875,7.149-1.875h6.709v-.839a5.4,5.4,0,0,0-1.588-4.193,6.706,6.706,0,0,0-4.679-1.456,12.369,12.369,0,0,0-4.061.685,10.467,10.467,0,0,0-3.354,1.831l-1.765-3.178a12.809,12.809,0,0,1,4.325-2.229,18.128,18.128,0,0,1,5.341-.772Q641.011,376.672,643.593,379.055ZM639.378,396.2a6.18,6.18,0,0,0,2.56-3.067v-3.266h-6.532q-5.385,0-5.385,3.619a3.276,3.276,0,0,0,1.369,2.781,6.253,6.253,0,0,0,3.8,1.015A7.861,7.861,0,0,0,639.378,396.2Z" style="fill:#fff"/><path d="M672.524,378.172a10.808,10.808,0,0,1,4.215,4.193,13.52,13.52,0,0,1,0,12.468,10.754,10.754,0,0,1-4.215,4.216,12.3,12.3,0,0,1-6.09,1.5,11.07,11.07,0,0,1-4.767-1.015,9.168,9.168,0,0,1-3.575-2.957v3.707h-4.061V367.536h4.238v12.887a9,9,0,0,1,3.53-2.8,11.2,11.2,0,0,1,4.635-.949A12.309,12.309,0,0,1,672.524,378.172Zm-2.4,17.633a7.467,7.467,0,0,0,2.824-2.913,9.448,9.448,0,0,0,0-8.607,7.307,7.307,0,0,0-2.824-2.89,8.491,8.491,0,0,0-8.055,0,7.124,7.124,0,0,0-2.825,2.89,9.631,9.631,0,0,0,0,8.607,7.276,7.276,0,0,0,2.825,2.913,8.339,8.339,0,0,0,8.055,0Z" style="fill:#fff"/><path d="M684.131,367.536h4.237v32.748h-4.237Z" style="fill:#fff"/><path d="M696.511,371.6a2.6,2.6,0,0,1-.817-1.942,2.678,2.678,0,0,1,.817-1.964,2.783,2.783,0,0,1,2.052-.816,2.874,2.874,0,0,1,2.052.772,2.534,2.534,0,0,1,.817,1.92,2.727,2.727,0,0,1-.817,2.008,2.783,2.783,0,0,1-2.052.817A2.822,2.822,0,0,1,696.511,371.6Zm-.067,5.3h4.238v23.391h-4.238Z" style="fill:#fff"/><path d="M709.95,399.776a12.1,12.1,0,0,1-4.149-1.963l1.765-3.355a12.674,12.674,0,0,0,3.752,1.766,15.447,15.447,0,0,0,4.457.662q5.562,0,5.561-3.178a2.058,2.058,0,0,0-.75-1.677,4.748,4.748,0,0,0-1.876-.905q-1.125-.285-3.2-.64a31.263,31.263,0,0,1-4.613-1.015,7.106,7.106,0,0,1-3.067-1.942,5.4,5.4,0,0,1-1.28-3.84,6,6,0,0,1,2.648-5.1,11.861,11.861,0,0,1,7.106-1.92,19.6,19.6,0,0,1,4.678.573,12.619,12.619,0,0,1,3.84,1.545l-1.809,3.355a12.168,12.168,0,0,0-6.753-1.854,7.8,7.8,0,0,0-4.105.883,2.663,2.663,0,0,0-1.412,2.339,2.228,2.228,0,0,0,.795,1.809,5,5,0,0,0,1.963.971q1.17.309,3.289.706a35.961,35.961,0,0,1,4.568,1.037,6.832,6.832,0,0,1,2.979,1.876,5.231,5.231,0,0,1,1.236,3.708,5.845,5.845,0,0,1-2.715,5.053,12.814,12.814,0,0,1-7.392,1.876A19.6,19.6,0,0,1,709.95,399.776Z" style="fill:#fff"/><path d="M750.443,379.254q2.626,2.582,2.626,7.569v13.461h-4.236V387.309a7.183,7.183,0,0,0-1.634-5.121,6.143,6.143,0,0,0-4.678-1.72,7.291,7.291,0,0,0-5.429,2.008,7.848,7.848,0,0,0-1.986,5.759v12.049h-4.237V367.536h4.237V380.2a8.758,8.758,0,0,1,3.465-2.6,11.913,11.913,0,0,1,4.789-.927A9.662,9.662,0,0,1,750.443,379.254Z" style="fill:#fff"/><path d="M809.055,379.231q2.582,2.56,2.582,7.592v13.461H807.4V387.309a7.384,7.384,0,0,0-1.567-5.121,5.75,5.75,0,0,0-4.479-1.72,6.708,6.708,0,0,0-5.12,2.008,8.067,8.067,0,0,0-1.9,5.759v12.049H790.1V387.309a7.384,7.384,0,0,0-1.567-5.121,5.748,5.748,0,0,0-4.479-1.72,6.707,6.707,0,0,0-5.12,2.008,8.062,8.062,0,0,0-1.9,5.759v12.049H772.8V376.893h4.06v3.486a8.215,8.215,0,0,1,3.355-2.758,11.226,11.226,0,0,1,4.722-.949,10.364,10.364,0,0,1,4.855,1.1A7.669,7.669,0,0,1,793.056,381a8.972,8.972,0,0,1,3.686-3.178,12.017,12.017,0,0,1,5.318-1.147A9.5,9.5,0,0,1,809.055,379.231Z" style="fill:#fff"/><path d="M841.252,376.893v23.391h-4.017v-3.531a8.506,8.506,0,0,1-3.376,2.8,10.535,10.535,0,0,1-4.568.993,10.2,10.2,0,0,1-7.37-2.582q-2.693-2.582-2.692-7.613V376.893h4.237v12.975a7.261,7.261,0,0,0,1.633,5.142,6.094,6.094,0,0,0,4.678,1.743,6.981,6.981,0,0,0,5.3-2.03,7.972,7.972,0,0,0,1.942-5.738V376.893Z" style="fill:#fff"/><path d="M862.48,398.916a6.329,6.329,0,0,1-2.294,1.214,9.611,9.611,0,0,1-2.826.419,7.5,7.5,0,0,1-5.472-1.9,7.243,7.243,0,0,1-1.942-5.428V380.379h-3.972v-3.486h3.972v-5.121h4.237v5.121h6.709v3.486h-6.709v12.667a4.107,4.107,0,0,0,.949,2.913,3.534,3.534,0,0,0,2.715,1.015,5.107,5.107,0,0,0,3.309-1.1Z" style="fill:#fff"/><path d="M889.4,376.893v23.391h-4.016v-3.531a8.519,8.519,0,0,1-3.376,2.8,10.539,10.539,0,0,1-4.569.993,10.2,10.2,0,0,1-7.37-2.582q-2.693-2.582-2.692-7.613V376.893h4.237v12.975a7.261,7.261,0,0,0,1.633,5.142,6.1,6.1,0,0,0,4.679,1.743,6.982,6.982,0,0,0,5.3-2.03,7.971,7.971,0,0,0,1.941-5.738V376.893Z" style="fill:#fff"/><path d="M913.434,379.055q2.58,2.383,2.582,7.106v14.123H912v-3.09a6.7,6.7,0,0,1-3.023,2.494,11.539,11.539,0,0,1-4.657.861,9.738,9.738,0,0,1-6.289-1.9,6.524,6.524,0,0,1-.11-9.953q2.252-1.875,7.149-1.875h6.709v-.839a5.4,5.4,0,0,0-1.589-4.193,6.7,6.7,0,0,0-4.678-1.456,12.365,12.365,0,0,0-4.061.685,10.451,10.451,0,0,0-3.353,1.831l-1.766-3.178a12.809,12.809,0,0,1,4.325-2.229,18.128,18.128,0,0,1,5.341-.772Q910.851,376.672,913.434,379.055ZM909.219,396.2a6.183,6.183,0,0,0,2.559-3.067v-3.266h-6.532q-5.385,0-5.385,3.619a3.273,3.273,0,0,0,1.369,2.781,6.252,6.252,0,0,0,3.795,1.015A7.865,7.865,0,0,0,909.219,396.2Z" style="fill:#fff"/><path d="M923.871,367.536h4.237v32.748h-4.237Z" style="fill:#fff"/><path d="M961.209,398.916a6.317,6.317,0,0,1-2.295,1.214,9.6,9.6,0,0,1-2.824.419,7.5,7.5,0,0,1-5.473-1.9,7.243,7.243,0,0,1-1.942-5.428V380.379H944.7v-3.486h3.972v-5.121h4.237v5.121h6.708v3.486h-6.708v12.667a4.107,4.107,0,0,0,.949,2.913,3.531,3.531,0,0,0,2.714,1.015,5.112,5.112,0,0,0,3.311-1.1Z" style="fill:#fff"/><path d="M973.655,377.731a11.845,11.845,0,0,1,5.252-1.059v4.1a8.371,8.371,0,0,0-.97-.044,7.134,7.134,0,0,0-5.408,2.052,8.129,8.129,0,0,0-1.964,5.849v11.651h-4.237V376.893h4.061v3.927A7.236,7.236,0,0,1,973.655,377.731Z" style="fill:#fff"/><path d="M1006.227,376.893v23.391h-4.017v-3.531a8.526,8.526,0,0,1-3.376,2.8,10.538,10.538,0,0,1-4.568.993,10.205,10.205,0,0,1-7.371-2.582q-2.692-2.582-2.693-7.613V376.893h4.237v12.975a7.261,7.261,0,0,0,1.633,5.142,6.1,6.1,0,0,0,4.679,1.743,6.982,6.982,0,0,0,5.3-2.03,7.967,7.967,0,0,0,1.942-5.738V376.893Z" style="fill:#fff"/><path d="M1015.494,399.776a12.1,12.1,0,0,1-4.148-1.963l1.765-3.355a12.679,12.679,0,0,0,3.751,1.766,15.453,15.453,0,0,0,4.458.662q5.56,0,5.561-3.178a2.058,2.058,0,0,0-.75-1.677,4.748,4.748,0,0,0-1.876-.905q-1.125-.285-3.2-.64a31.263,31.263,0,0,1-4.613-1.015,7.106,7.106,0,0,1-3.067-1.942,5.4,5.4,0,0,1-1.28-3.84,6,6,0,0,1,2.648-5.1,11.861,11.861,0,0,1,7.106-1.92,19.6,19.6,0,0,1,4.678.573,12.629,12.629,0,0,1,3.84,1.545l-1.809,3.355a12.168,12.168,0,0,0-6.753-1.854,7.8,7.8,0,0,0-4.105.883,2.663,2.663,0,0,0-1.412,2.339,2.23,2.23,0,0,0,.794,1.809,5.009,5.009,0,0,0,1.964.971q1.168.309,3.288.706a35.921,35.921,0,0,1,4.568,1.037,6.835,6.835,0,0,1,2.98,1.876,5.231,5.231,0,0,1,1.235,3.708,5.844,5.844,0,0,1-2.714,5.053,12.814,12.814,0,0,1-7.392,1.876A19.608,19.608,0,0,1,1015.494,399.776Z" style="fill:#fff"/><path d="M1049.566,398.916a6.325,6.325,0,0,1-2.3,1.214,9.6,9.6,0,0,1-2.825.419,7.5,7.5,0,0,1-5.472-1.9,7.243,7.243,0,0,1-1.942-5.428V380.379h-3.972v-3.486h3.972v-5.121h4.237v5.121h6.709v3.486h-6.709v12.667a4.107,4.107,0,0,0,.949,2.913,3.534,3.534,0,0,0,2.715,1.015,5.107,5.107,0,0,0,3.309-1.1Z" style="fill:#fff"/><path d="M1066.624,371.6a2.6,2.6,0,0,1-.816-1.942,2.677,2.677,0,0,1,.816-1.964,2.783,2.783,0,0,1,2.052-.816,2.876,2.876,0,0,1,2.053.772,2.54,2.54,0,0,1,.816,1.92,2.734,2.734,0,0,1-.816,2.008,2.785,2.785,0,0,1-2.053.817A2.822,2.822,0,0,1,1066.624,371.6Zm-.066,5.3h4.237v23.391h-4.237Z" style="fill:#fff"/><path d="M1098.445,379.254q2.625,2.582,2.626,7.569v13.461h-4.237V387.309a7.187,7.187,0,0,0-1.633-5.121,6.144,6.144,0,0,0-4.679-1.72,7.289,7.289,0,0,0-5.428,2.008,7.848,7.848,0,0,0-1.986,5.759v12.049h-4.237V376.893h4.061v3.53a8.222,8.222,0,0,1,3.464-2.78,12.115,12.115,0,0,1,4.965-.971A9.663,9.663,0,0,1,1098.445,379.254Z" style="fill:#fff"/></g><g style="isolation:isolate"><path d="M66.377,451.879a6.336,6.336,0,0,1-2.294,1.214,9.61,9.61,0,0,1-2.825.419,7.5,7.5,0,0,1-5.473-1.9,7.243,7.243,0,0,1-1.942-5.428V433.342H49.871v-3.487h3.972v-5.12H58.08v5.12h6.709v3.487H58.08v12.667a4.108,4.108,0,0,0,.949,2.913,3.534,3.534,0,0,0,2.715,1.015,5.112,5.112,0,0,0,3.31-1.1Z" style="fill:#fff"/><path d="M91.755,442.964H72.777a7.346,7.346,0,0,0,2.715,4.965,8.852,8.852,0,0,0,5.759,1.876A8.676,8.676,0,0,0,88,446.979l2.339,2.737a10.23,10.23,0,0,1-3.95,2.825,14.894,14.894,0,0,1-11.851-.552,10.847,10.847,0,0,1-4.435-4.259,12.2,12.2,0,0,1-1.567-6.179,12.406,12.406,0,0,1,1.523-6.135,10.916,10.916,0,0,1,4.193-4.259,11.953,11.953,0,0,1,6.024-1.522,11.717,11.717,0,0,1,5.981,1.522,10.712,10.712,0,0,1,4.1,4.259,12.976,12.976,0,0,1,1.479,6.268A12.137,12.137,0,0,1,91.755,442.964Zm-16.572-7.9a7.471,7.471,0,0,0-2.406,4.855H87.783a7.528,7.528,0,0,0-2.405-4.833,7.9,7.9,0,0,0-10.195-.022Z" style="fill:#fff"/><path d="M105.04,430.694a11.839,11.839,0,0,1,5.252-1.059v4.1a8.379,8.379,0,0,0-.971-.044,7.128,7.128,0,0,0-5.406,2.052,8.123,8.123,0,0,0-1.964,5.849v11.651H97.713V429.855h4.061v3.928A7.231,7.231,0,0,1,105.04,430.694Z" style="fill:#fff"/><path d="M151.757,432.194q2.583,2.56,2.582,7.592v13.461H150.1V440.271a7.383,7.383,0,0,0-1.567-5.12,5.752,5.752,0,0,0-4.48-1.72,6.711,6.711,0,0,0-5.12,2.007,8.071,8.071,0,0,0-1.9,5.76v12.049H132.8V440.271a7.383,7.383,0,0,0-1.567-5.12,5.748,5.748,0,0,0-4.479-1.72,6.71,6.71,0,0,0-5.12,2.007,8.071,8.071,0,0,0-1.9,5.76v12.049H115.5V429.855h4.061v3.487a8.212,8.212,0,0,1,3.354-2.758,11.226,11.226,0,0,1,4.722-.949,10.364,10.364,0,0,1,4.855,1.1,7.669,7.669,0,0,1,3.266,3.222,8.964,8.964,0,0,1,3.686-3.178,12.023,12.023,0,0,1,5.318-1.147A9.5,9.5,0,0,1,151.757,432.194Z" style="fill:#fff"/><path d="M163.343,452.739a12.08,12.08,0,0,1-4.149-1.964l1.765-3.354a12.674,12.674,0,0,0,3.752,1.766,15.447,15.447,0,0,0,4.457.662q5.562,0,5.561-3.178a2.058,2.058,0,0,0-.75-1.677,4.744,4.744,0,0,0-1.875-.905q-1.125-.286-3.2-.64a31.376,31.376,0,0,1-4.612-1.015,7.1,7.1,0,0,1-3.068-1.942,5.4,5.4,0,0,1-1.28-3.84,6,6,0,0,1,2.648-5.1,11.854,11.854,0,0,1,7.106-1.92,19.6,19.6,0,0,1,4.678.573,12.593,12.593,0,0,1,3.84,1.545l-1.809,3.354a12.175,12.175,0,0,0-6.753-1.853,7.8,7.8,0,0,0-4.1.883,2.663,2.663,0,0,0-1.412,2.339,2.228,2.228,0,0,0,.795,1.809,5,5,0,0,0,1.964.971q1.169.309,3.288.706A35.961,35.961,0,0,1,174.752,441a6.832,6.832,0,0,1,2.979,1.876,5.231,5.231,0,0,1,1.236,3.708,5.845,5.845,0,0,1-2.715,5.053,12.814,12.814,0,0,1-7.392,1.876A19.6,19.6,0,0,1,163.343,452.739Z" style="fill:#fff"/><path d="M199.886,451.967a11.187,11.187,0,0,1-4.347-4.259,12.877,12.877,0,0,1,0-12.313,11.047,11.047,0,0,1,4.347-4.238,13.618,13.618,0,0,1,12.512,0,11.1,11.1,0,0,1,4.326,4.238,12.877,12.877,0,0,1,0,12.313,11.24,11.24,0,0,1-4.326,4.259,13.438,13.438,0,0,1-12.512,0Zm10.305-3.2a7.324,7.324,0,0,0,2.8-2.914,9.629,9.629,0,0,0,0-8.606,7.176,7.176,0,0,0-2.8-2.891,8.54,8.54,0,0,0-8.076,0,7.319,7.319,0,0,0-2.825,2.891,9.446,9.446,0,0,0,0,8.606,7.472,7.472,0,0,0,2.825,2.914,8.38,8.38,0,0,0,8.076,0Z" style="fill:#fff"/><path d="M228.927,427.825v2.03h6.8v3.487h-6.709v19.905h-4.237V433.342h-3.972v-3.487h3.972v-2.074a7.455,7.455,0,0,1,2.031-5.517,7.7,7.7,0,0,1,5.693-2.031,9.618,9.618,0,0,1,2.648.354,6.429,6.429,0,0,1,2.119,1.015l-1.28,3.222a5.279,5.279,0,0,0-3.266-1.1Q228.927,423.721,228.927,427.825Z" style="fill:#fff"/><path d="M273.68,420.5v32.748h-4.06V449.54a9.182,9.182,0,0,1-3.575,2.957,11.076,11.076,0,0,1-4.767,1.015,12.293,12.293,0,0,1-6.09-1.5,10.754,10.754,0,0,1-4.215-4.216,13.52,13.52,0,0,1,0-12.468,10.8,10.8,0,0,1,4.215-4.193,12.3,12.3,0,0,1,6.09-1.5,11.207,11.207,0,0,1,4.635.949,9,9,0,0,1,3.53,2.8V420.5Zm-8.033,28.269a7.278,7.278,0,0,0,2.825-2.914,9.629,9.629,0,0,0,0-8.606,7.132,7.132,0,0,0-2.825-2.891,8.5,8.5,0,0,0-8.054,0,7.319,7.319,0,0,0-2.825,2.891,9.446,9.446,0,0,0,0,8.606,7.472,7.472,0,0,0,2.825,2.914,8.338,8.338,0,0,0,8.054,0Z" style="fill:#fff"/><path d="M297.667,432.018q2.582,2.382,2.582,7.106v14.123h-4.016v-3.09a6.705,6.705,0,0,1-3.024,2.494,11.531,11.531,0,0,1-4.656.861,9.736,9.736,0,0,1-6.289-1.9,6.084,6.084,0,0,1-2.362-4.987,6.146,6.146,0,0,1,2.251-4.966q2.251-1.875,7.15-1.875h6.709v-.839a5.405,5.405,0,0,0-1.589-4.193,6.7,6.7,0,0,0-4.678-1.456,12.385,12.385,0,0,0-4.061.684,10.475,10.475,0,0,0-3.354,1.831l-1.766-3.177a12.823,12.823,0,0,1,4.326-2.229,18.126,18.126,0,0,1,5.34-.772Q295.085,429.635,297.667,432.018Zm-4.215,17.146a6.19,6.19,0,0,0,2.56-3.067v-3.266H289.48q-5.385,0-5.385,3.619a3.27,3.27,0,0,0,1.369,2.78,6.243,6.243,0,0,0,3.8,1.016A7.862,7.862,0,0,0,293.452,449.164Z" style="fill:#fff"/><path d="M321.257,451.879a6.34,6.34,0,0,1-2.3,1.214,9.6,9.6,0,0,1-2.825.419,7.5,7.5,0,0,1-5.472-1.9,7.243,7.243,0,0,1-1.942-5.428V433.342H304.75v-3.487h3.973v-5.12h4.236v5.12h6.709v3.487h-6.709v12.667a4.1,4.1,0,0,0,.95,2.913,3.531,3.531,0,0,0,2.714,1.015,5.11,5.11,0,0,0,3.31-1.1Z" style="fill:#fff"/><path d="M342.331,432.018q2.582,2.382,2.582,7.106v14.123H340.9v-3.09a6.708,6.708,0,0,1-3.023,2.494,11.539,11.539,0,0,1-4.657.861,9.736,9.736,0,0,1-6.289-1.9,6.523,6.523,0,0,1-.111-9.953q2.251-1.875,7.15-1.875h6.709v-.839a5.405,5.405,0,0,0-1.589-4.193,6.7,6.7,0,0,0-4.678-1.456,12.385,12.385,0,0,0-4.061.684,10.475,10.475,0,0,0-3.354,1.831l-1.765-3.177a12.809,12.809,0,0,1,4.325-2.229,18.128,18.128,0,0,1,5.341-.772Q339.749,429.635,342.331,432.018Zm-4.215,17.146a6.19,6.19,0,0,0,2.56-3.067v-3.266h-6.532q-5.385,0-5.385,3.619a3.27,3.27,0,0,0,1.369,2.78,6.245,6.245,0,0,0,3.8,1.016A7.862,7.862,0,0,0,338.116,449.164Z" style="fill:#fff"/><path d="M365.833,452.739a12.08,12.08,0,0,1-4.149-1.964l1.766-3.354a12.655,12.655,0,0,0,3.751,1.766,15.448,15.448,0,0,0,4.458.662q5.56,0,5.561-3.178a2.058,2.058,0,0,0-.75-1.677,4.755,4.755,0,0,0-1.876-.905q-1.125-.286-3.2-.64a31.406,31.406,0,0,1-4.612-1.015,7.1,7.1,0,0,1-3.068-1.942,5.4,5.4,0,0,1-1.279-3.84,5.993,5.993,0,0,1,2.648-5.1,11.849,11.849,0,0,1,7.1-1.92,19.605,19.605,0,0,1,4.679.573,12.614,12.614,0,0,1,3.84,1.545l-1.81,3.354a12.174,12.174,0,0,0-6.752-1.853,7.8,7.8,0,0,0-4.1.883,2.664,2.664,0,0,0-1.413,2.339,2.228,2.228,0,0,0,.8,1.809,5,5,0,0,0,1.964.971q1.168.309,3.288.706A35.921,35.921,0,0,1,377.242,441a6.832,6.832,0,0,1,2.979,1.876,5.231,5.231,0,0,1,1.236,3.708,5.846,5.846,0,0,1-2.714,5.053,12.819,12.819,0,0,1-7.393,1.876A19.6,19.6,0,0,1,365.833,452.739Z" style="fill:#fff"/><path d="M406.327,432.217q2.625,2.582,2.626,7.569v13.461h-4.237V440.271a7.186,7.186,0,0,0-1.633-5.12,6.144,6.144,0,0,0-4.679-1.72,7.291,7.291,0,0,0-5.428,2.007,7.848,7.848,0,0,0-1.986,5.76v12.049h-4.238V420.5h4.238v12.666a8.755,8.755,0,0,1,3.464-2.6,11.917,11.917,0,0,1,4.789-.927A9.664,9.664,0,0,1,406.327,432.217Z" style="fill:#fff"/><path d="M432.764,432.018q2.582,2.382,2.582,7.106v14.123H431.33v-3.09a6.705,6.705,0,0,1-3.024,2.494,11.534,11.534,0,0,1-4.656.861,9.741,9.741,0,0,1-6.29-1.9,6.524,6.524,0,0,1-.11-9.953q2.251-1.875,7.15-1.875h6.709v-.839a5.405,5.405,0,0,0-1.589-4.193,6.7,6.7,0,0,0-4.679-1.456,12.384,12.384,0,0,0-4.06.684,10.465,10.465,0,0,0-3.354,1.831l-1.766-3.177a12.818,12.818,0,0,1,4.325-2.229,18.132,18.132,0,0,1,5.341-.772Q430.181,429.635,432.764,432.018Zm-4.215,17.146a6.19,6.19,0,0,0,2.56-3.067v-3.266h-6.532q-5.387,0-5.385,3.619a3.27,3.27,0,0,0,1.369,2.78,6.241,6.241,0,0,0,3.8,1.016A7.862,7.862,0,0,0,428.549,449.164Z" style="fill:#fff"/><path d="M450.528,430.694a11.839,11.839,0,0,1,5.252-1.059v4.1a8.379,8.379,0,0,0-.971-.044,7.13,7.13,0,0,0-5.407,2.052,8.128,8.128,0,0,0-1.964,5.849v11.651H443.2V429.855h4.061v3.928A7.231,7.231,0,0,1,450.528,430.694Z" style="fill:#fff"/><path d="M461.054,424.559a2.6,2.6,0,0,1-.816-1.942,2.677,2.677,0,0,1,.816-1.964,2.783,2.783,0,0,1,2.052-.816,2.875,2.875,0,0,1,2.053.772,2.536,2.536,0,0,1,.816,1.92,2.73,2.73,0,0,1-.816,2.008,2.783,2.783,0,0,1-2.053.817A2.822,2.822,0,0,1,461.054,424.559Zm-.066,5.3h4.237v23.392h-4.237Z" style="fill:#fff"/><path d="M492.875,432.217q2.626,2.582,2.626,7.569v13.461h-4.236V440.271a7.182,7.182,0,0,0-1.634-5.12,6.143,6.143,0,0,0-4.678-1.72,7.294,7.294,0,0,0-5.429,2.007,7.852,7.852,0,0,0-1.985,5.76v12.049H473.3V429.855h4.061v3.531a8.24,8.24,0,0,1,3.465-2.781,12.124,12.124,0,0,1,4.965-.97A9.66,9.66,0,0,1,492.875,432.217Z" style="fill:#fff"/><path d="M525.867,429.855v20.214q0,6.135-3.046,9.07t-9.092,2.935a21.748,21.748,0,0,1-6.311-.905,12.506,12.506,0,0,1-4.855-2.581l2.03-3.267a11.968,11.968,0,0,0,4.039,2.229,15.32,15.32,0,0,0,4.965.817q4.1,0,6.069-1.942t1.963-5.914v-1.854a9.351,9.351,0,0,1-3.685,2.714,12.26,12.26,0,0,1-4.744.905,12.789,12.789,0,0,1-6.069-1.434,10.669,10.669,0,0,1-4.259-4.017,12.007,12.007,0,0,1,0-11.784,10.527,10.527,0,0,1,4.259-3.994,12.943,12.943,0,0,1,6.069-1.412,12.421,12.421,0,0,1,4.921.97,9.146,9.146,0,0,1,3.729,2.87v-3.62ZM517.812,447.6a7.186,7.186,0,0,0,2.869-2.714,7.58,7.58,0,0,0,1.037-3.95,7.161,7.161,0,0,0-2.251-5.5,9.084,9.084,0,0,0-11.608,0,7.164,7.164,0,0,0-2.251,5.5,7.572,7.572,0,0,0,1.038,3.95,7.167,7.167,0,0,0,2.869,2.714,9.356,9.356,0,0,0,8.3,0Z" style="fill:#fff"/><path d="M561.77,432.018q2.582,2.382,2.582,7.106v14.123h-4.016v-3.09a6.708,6.708,0,0,1-3.023,2.494,11.539,11.539,0,0,1-4.657.861,9.736,9.736,0,0,1-6.289-1.9,6.084,6.084,0,0,1-2.362-4.987,6.146,6.146,0,0,1,2.251-4.966q2.251-1.875,7.15-1.875h6.709v-.839a5.405,5.405,0,0,0-1.589-4.193,6.7,6.7,0,0,0-4.678-1.456,12.385,12.385,0,0,0-4.061.684,10.475,10.475,0,0,0-3.354,1.831l-1.766-3.177a12.823,12.823,0,0,1,4.326-2.229,18.126,18.126,0,0,1,5.34-.772Q559.189,429.635,561.77,432.018Zm-4.215,17.146a6.19,6.19,0,0,0,2.56-3.067v-3.266h-6.532q-5.385,0-5.385,3.619a3.27,3.27,0,0,0,1.369,2.78,6.245,6.245,0,0,0,3.795,1.016A7.862,7.862,0,0,0,557.555,449.164Z" style="fill:#fff"/><path d="M591.782,432.217q2.625,2.582,2.626,7.569v13.461h-4.237V440.271a7.186,7.186,0,0,0-1.633-5.12,6.144,6.144,0,0,0-4.679-1.72,7.291,7.291,0,0,0-5.428,2.007,7.848,7.848,0,0,0-1.986,5.76v12.049h-4.237V429.855h4.06v3.531a8.24,8.24,0,0,1,3.465-2.781,12.124,12.124,0,0,1,4.965-.97A9.664,9.664,0,0,1,591.782,432.217Z" style="fill:#fff"/><path d="M624.463,420.5v32.748H620.4V449.54a9.182,9.182,0,0,1-3.575,2.957,11.075,11.075,0,0,1-4.766,1.015,12.294,12.294,0,0,1-6.091-1.5,10.754,10.754,0,0,1-4.215-4.216,13.52,13.52,0,0,1,0-12.468,10.8,10.8,0,0,1,4.215-4.193,12.305,12.305,0,0,1,6.091-1.5,11.205,11.205,0,0,1,4.634.949,9.01,9.01,0,0,1,3.531,2.8V420.5Zm-8.032,28.269a7.282,7.282,0,0,0,2.824-2.914,9.62,9.62,0,0,0,0-8.606,7.136,7.136,0,0,0-2.824-2.891,8.5,8.5,0,0,0-8.055,0,7.325,7.325,0,0,0-2.825,2.891,9.446,9.446,0,0,0,0,8.606,7.479,7.479,0,0,0,2.825,2.914,8.339,8.339,0,0,0,8.055,0Z" style="fill:#fff"/><path d="M666.436,420.5v32.748h-4.061V449.54A9.182,9.182,0,0,1,658.8,452.5a11.072,11.072,0,0,1-4.766,1.015,12.3,12.3,0,0,1-6.091-1.5,10.754,10.754,0,0,1-4.215-4.216,13.52,13.52,0,0,1,0-12.468,10.8,10.8,0,0,1,4.215-4.193,12.308,12.308,0,0,1,6.091-1.5,11.205,11.205,0,0,1,4.634.949,9.01,9.01,0,0,1,3.531,2.8V420.5ZM658.4,448.768a7.291,7.291,0,0,0,2.825-2.914,9.629,9.629,0,0,0,0-8.606,7.145,7.145,0,0,0-2.825-2.891,8.5,8.5,0,0,0-8.055,0,7.325,7.325,0,0,0-2.825,2.891,9.446,9.446,0,0,0,0,8.606,7.479,7.479,0,0,0,2.825,2.914,8.339,8.339,0,0,0,8.055,0Z" style="fill:#fff"/><path d="M695.521,442.964H676.542a7.346,7.346,0,0,0,2.715,4.965,8.852,8.852,0,0,0,5.759,1.876,8.673,8.673,0,0,0,6.753-2.826l2.339,2.737a10.23,10.23,0,0,1-3.95,2.825,14.892,14.892,0,0,1-11.85-.552,10.849,10.849,0,0,1-4.436-4.259,12.2,12.2,0,0,1-1.567-6.179,12.406,12.406,0,0,1,1.523-6.135,10.916,10.916,0,0,1,4.193-4.259,11.953,11.953,0,0,1,6.024-1.522,11.717,11.717,0,0,1,5.981,1.522,10.712,10.712,0,0,1,4.1,4.259,12.976,12.976,0,0,1,1.479,6.268A12.367,12.367,0,0,1,695.521,442.964Zm-16.573-7.9a7.475,7.475,0,0,0-2.406,4.855h15.006a7.524,7.524,0,0,0-2.4-4.833,7.9,7.9,0,0,0-10.2-.022Z" style="fill:#fff"/><path d="M721.737,429.855,711.5,453.247h-4.325l-10.24-23.392h4.414l8.032,18.758,8.209-18.758Z" style="fill:#fff"/><path d="M746.1,442.964H727.122a7.341,7.341,0,0,0,2.714,4.965,8.852,8.852,0,0,0,5.759,1.876,8.673,8.673,0,0,0,6.753-2.826l2.34,2.737a10.241,10.241,0,0,1-3.951,2.825,14.892,14.892,0,0,1-11.85-.552,10.849,10.849,0,0,1-4.436-4.259,12.2,12.2,0,0,1-1.567-6.179,12.406,12.406,0,0,1,1.523-6.135,10.916,10.916,0,0,1,4.193-4.259,11.954,11.954,0,0,1,6.025-1.522,11.716,11.716,0,0,1,5.98,1.522,10.712,10.712,0,0,1,4.1,4.259,12.976,12.976,0,0,1,1.479,6.268A12.367,12.367,0,0,1,746.1,442.964Zm-16.573-7.9a7.47,7.47,0,0,0-2.405,4.855h15a7.524,7.524,0,0,0-2.4-4.833,7.9,7.9,0,0,0-10.195-.022Z" style="fill:#fff"/><path d="M752.058,420.5H756.3v32.748h-4.237Z" style="fill:#fff"/><path d="M768.123,451.967a11.189,11.189,0,0,1-4.348-4.259,12.877,12.877,0,0,1,0-12.313,11.049,11.049,0,0,1,4.348-4.238,13.618,13.618,0,0,1,12.512,0,11.089,11.089,0,0,1,4.325,4.238,12.877,12.877,0,0,1,0,12.313,11.231,11.231,0,0,1-4.325,4.259,13.438,13.438,0,0,1-12.512,0Zm10.3-3.2a7.324,7.324,0,0,0,2.8-2.914,9.629,9.629,0,0,0,0-8.606,7.176,7.176,0,0,0-2.8-2.891,8.54,8.54,0,0,0-8.076,0,7.319,7.319,0,0,0-2.825,2.891,9.446,9.446,0,0,0,0,8.606,7.472,7.472,0,0,0,2.825,2.914,8.38,8.38,0,0,0,8.076,0Z" style="fill:#fff"/><path d="M810.89,431.135a10.808,10.808,0,0,1,4.215,4.193,13.52,13.52,0,0,1,0,12.468,10.761,10.761,0,0,1-4.215,4.216,12.3,12.3,0,0,1-6.091,1.5,10.843,10.843,0,0,1-4.612-.971,9.576,9.576,0,0,1-3.553-2.825V461.81H792.4V429.855h4.061v3.708a9,9,0,0,1,3.575-2.935,11.281,11.281,0,0,1,4.766-.993A12.313,12.313,0,0,1,810.89,431.135Zm-2.406,17.633a7.472,7.472,0,0,0,2.825-2.914,9.446,9.446,0,0,0,0-8.606,7.319,7.319,0,0,0-2.825-2.891,8.036,8.036,0,0,0-4.038-1.015,7.817,7.817,0,0,0-3.994,1.037,7.508,7.508,0,0,0-2.825,2.892,8.621,8.621,0,0,0-1.037,4.28,8.891,8.891,0,0,0,1.015,4.3,7.278,7.278,0,0,0,2.825,2.914,8.338,8.338,0,0,0,8.054,0Z" style="fill:#fff"/><path d="M856.438,420.5v32.748h-4.061V449.54A9.182,9.182,0,0,1,848.8,452.5a11.076,11.076,0,0,1-4.767,1.015,12.3,12.3,0,0,1-6.091-1.5,10.761,10.761,0,0,1-4.215-4.216,13.528,13.528,0,0,1,0-12.468,10.808,10.808,0,0,1,4.215-4.193,12.313,12.313,0,0,1,6.091-1.5,11.207,11.207,0,0,1,4.635.949,9,9,0,0,1,3.53,2.8V420.5ZM848.4,448.768a7.285,7.285,0,0,0,2.825-2.914,9.629,9.629,0,0,0,0-8.606,7.138,7.138,0,0,0-2.825-2.891,8.5,8.5,0,0,0-8.054,0,7.319,7.319,0,0,0-2.825,2.891,9.446,9.446,0,0,0,0,8.606,7.472,7.472,0,0,0,2.825,2.914,8.337,8.337,0,0,0,8.054,0Z" style="fill:#fff"/><path d="M880.425,432.018q2.582,2.382,2.582,7.106v14.123H878.99v-3.09a6.7,6.7,0,0,1-3.023,2.494,11.538,11.538,0,0,1-4.656.861,9.739,9.739,0,0,1-6.29-1.9,6.524,6.524,0,0,1-.11-9.953q2.252-1.875,7.15-1.875h6.709v-.839a5.405,5.405,0,0,0-1.589-4.193A6.7,6.7,0,0,0,872.5,433.3a12.394,12.394,0,0,0-4.061.684,10.47,10.47,0,0,0-3.353,1.831l-1.766-3.177a12.818,12.818,0,0,1,4.325-2.229,18.128,18.128,0,0,1,5.341-.772Q877.844,429.635,880.425,432.018Zm-4.215,17.146a6.19,6.19,0,0,0,2.56-3.067v-3.266h-6.533q-5.385,0-5.384,3.619a3.27,3.27,0,0,0,1.369,2.78,6.241,6.241,0,0,0,3.8,1.016A7.864,7.864,0,0,0,876.21,449.164Z" style="fill:#fff"/><path d="M904.015,451.879a6.357,6.357,0,0,1-2.295,1.214,9.6,9.6,0,0,1-2.825.419,7.5,7.5,0,0,1-5.473-1.9,7.243,7.243,0,0,1-1.942-5.428V433.342h-3.972v-3.487h3.972v-5.12h4.237v5.12h6.709v3.487h-6.709v12.667a4.108,4.108,0,0,0,.949,2.913,3.534,3.534,0,0,0,2.715,1.015,5.107,5.107,0,0,0,3.309-1.1Z" style="fill:#fff"/><path d="M925.089,432.018q2.581,2.382,2.582,7.106v14.123h-4.017v-3.09a6.7,6.7,0,0,1-3.023,2.494,11.534,11.534,0,0,1-4.656.861,9.735,9.735,0,0,1-6.289-1.9,6.523,6.523,0,0,1-.111-9.953q2.251-1.875,7.15-1.875h6.709v-.839a5.405,5.405,0,0,0-1.589-4.193,6.7,6.7,0,0,0-4.679-1.456,12.394,12.394,0,0,0-4.061.684,10.47,10.47,0,0,0-3.353,1.831l-1.766-3.177a12.814,12.814,0,0,1,4.326-2.229,18.121,18.121,0,0,1,5.34-.772Q922.507,429.635,925.089,432.018Zm-4.215,17.146a6.19,6.19,0,0,0,2.56-3.067v-3.266H916.9q-5.383,0-5.384,3.619a3.27,3.27,0,0,0,1.369,2.78,6.243,6.243,0,0,0,3.8,1.016A7.864,7.864,0,0,0,920.874,449.164Z" style="fill:#fff"/><path d="M954.725,430.694a11.839,11.839,0,0,1,5.252-1.059v4.1a8.379,8.379,0,0,0-.971-.044,7.126,7.126,0,0,0-5.406,2.052,8.123,8.123,0,0,0-1.964,5.849v11.651H947.4V429.855h4.061v3.928A7.231,7.231,0,0,1,954.725,430.694Z" style="fill:#fff"/><path d="M986.017,442.964H967.039a7.345,7.345,0,0,0,2.714,4.965,8.857,8.857,0,0,0,5.76,1.876,8.676,8.676,0,0,0,6.753-2.826l2.338,2.737a10.222,10.222,0,0,1-3.95,2.825,14.892,14.892,0,0,1-11.85-.552,10.849,10.849,0,0,1-4.436-4.259,12.2,12.2,0,0,1-1.566-6.179,12.416,12.416,0,0,1,1.522-6.135,10.918,10.918,0,0,1,4.194-4.259,11.95,11.95,0,0,1,6.024-1.522,11.716,11.716,0,0,1,5.98,1.522,10.714,10.714,0,0,1,4.1,4.259,12.987,12.987,0,0,1,1.478,6.268A12.367,12.367,0,0,1,986.017,442.964Zm-16.573-7.9a7.47,7.47,0,0,0-2.4,4.855h15.006a7.528,7.528,0,0,0-2.4-4.833,7.9,7.9,0,0,0-10.2-.022Z" style="fill:#fff"/><path d="M991.975,420.5h4.237v32.748h-4.237Z" style="fill:#fff"/><path d="M1020.243,432.018q2.583,2.382,2.582,7.106v14.123h-4.015v-3.09a6.705,6.705,0,0,1-3.024,2.494,11.534,11.534,0,0,1-4.656.861,9.741,9.741,0,0,1-6.29-1.9,6.525,6.525,0,0,1-.111-9.953q2.251-1.875,7.151-1.875h6.709v-.839a5.405,5.405,0,0,0-1.589-4.193,6.7,6.7,0,0,0-4.679-1.456,12.384,12.384,0,0,0-4.06.684,10.481,10.481,0,0,0-3.355,1.831l-1.765-3.177a12.809,12.809,0,0,1,4.325-2.229,18.132,18.132,0,0,1,5.341-.772Q1017.661,429.635,1020.243,432.018Zm-4.215,17.146a6.187,6.187,0,0,0,2.561-3.067v-3.266h-6.532q-5.387,0-5.385,3.619a3.272,3.272,0,0,0,1.368,2.78,6.247,6.247,0,0,0,3.8,1.016A7.858,7.858,0,0,0,1016.028,449.164Z" style="fill:#fff"/><path d="M1043.833,451.879a6.332,6.332,0,0,1-2.3,1.214,9.6,9.6,0,0,1-2.824.419,7.5,7.5,0,0,1-5.473-1.9,7.243,7.243,0,0,1-1.942-5.428V433.342h-3.972v-3.487h3.972v-5.12h4.237v5.12h6.708v3.487h-6.708v12.667a4.108,4.108,0,0,0,.949,2.913,3.531,3.531,0,0,0,2.714,1.015,5.112,5.112,0,0,0,3.311-1.1Z" style="fill:#fff"/><path d="M1069.211,442.964h-18.978a7.345,7.345,0,0,0,2.714,4.965,8.857,8.857,0,0,0,5.76,1.876,8.676,8.676,0,0,0,6.753-2.826l2.339,2.737a10.237,10.237,0,0,1-3.95,2.825,14.894,14.894,0,0,1-11.851-.552,10.841,10.841,0,0,1-4.435-4.259,12.2,12.2,0,0,1-1.567-6.179,12.406,12.406,0,0,1,1.523-6.135,10.916,10.916,0,0,1,4.193-4.259,11.95,11.95,0,0,1,6.024-1.522,11.717,11.717,0,0,1,5.981,1.522,10.712,10.712,0,0,1,4.1,4.259,12.976,12.976,0,0,1,1.479,6.268A12.137,12.137,0,0,1,1069.211,442.964Zm-16.572-7.9a7.475,7.475,0,0,0-2.406,4.855h15.006a7.528,7.528,0,0,0-2.4-4.833,7.9,7.9,0,0,0-10.2-.022Z" style="fill:#fff"/><path d="M1097.237,420.5v32.748h-4.06V449.54a9.189,9.189,0,0,1-3.575,2.957,11.076,11.076,0,0,1-4.767,1.015,12.3,12.3,0,0,1-6.091-1.5,10.761,10.761,0,0,1-4.215-4.216,13.528,13.528,0,0,1,0-12.468,10.808,10.808,0,0,1,4.215-4.193,12.31,12.31,0,0,1,6.091-1.5,11.207,11.207,0,0,1,4.635.949,9,9,0,0,1,3.53,2.8V420.5Zm-8.033,28.269a7.285,7.285,0,0,0,2.825-2.914,9.629,9.629,0,0,0,0-8.606,7.138,7.138,0,0,0-2.825-2.891,8.5,8.5,0,0,0-8.055,0,7.323,7.323,0,0,0-2.824,2.891,9.446,9.446,0,0,0,0,8.606,7.477,7.477,0,0,0,2.824,2.914,8.339,8.339,0,0,0,8.055,0Z" style="fill:#fff"/></g><g style="isolation:isolate"><path d="M75.6,482.817v20.214q0,6.135-3.045,9.07t-9.092,2.935a21.76,21.76,0,0,1-6.312-.9A12.506,12.506,0,0,1,52.3,511.55l2.031-3.267a11.954,11.954,0,0,0,4.038,2.229,15.321,15.321,0,0,0,4.966.817q4.1,0,6.068-1.942t1.964-5.914v-1.854a9.375,9.375,0,0,1-3.685,2.714,12.269,12.269,0,0,1-4.745.9,12.785,12.785,0,0,1-6.068-1.434,10.666,10.666,0,0,1-4.26-4.017,12.014,12.014,0,0,1,0-11.784,10.523,10.523,0,0,1,4.26-3.994,12.939,12.939,0,0,1,6.068-1.412,12.417,12.417,0,0,1,4.921.97,9.139,9.139,0,0,1,3.729,2.87v-3.62ZM67.547,500.56a7.186,7.186,0,0,0,2.869-2.714,7.58,7.58,0,0,0,1.037-3.95,7.161,7.161,0,0,0-2.251-5.5,8.148,8.148,0,0,0-5.782-2.1,8.206,8.206,0,0,0-5.825,2.1,7.161,7.161,0,0,0-2.251,5.5,7.571,7.571,0,0,0,1.037,3.95,7.173,7.173,0,0,0,2.869,2.714,8.766,8.766,0,0,0,4.17.97A8.677,8.677,0,0,0,67.547,500.56Z" style="fill:#fff"/><path d="M105.481,482.817v23.392h-4.017v-3.531a8.51,8.51,0,0,1-3.376,2.8,10.524,10.524,0,0,1-4.568.994,10.209,10.209,0,0,1-7.371-2.582q-2.692-2.582-2.692-7.614V482.817h4.237v12.976a7.262,7.262,0,0,0,1.633,5.142,6.1,6.1,0,0,0,4.679,1.743,6.979,6.979,0,0,0,5.3-2.031,7.967,7.967,0,0,0,1.942-5.737V482.817Z" style="fill:#fff"/><path d="M113.624,477.521a2.6,2.6,0,0,1-.817-1.942,2.677,2.677,0,0,1,.817-1.964,2.781,2.781,0,0,1,2.052-.816,2.874,2.874,0,0,1,2.052.772,2.536,2.536,0,0,1,.816,1.92,2.73,2.73,0,0,1-.816,2.008,2.782,2.782,0,0,1-2.052.816A2.819,2.819,0,0,1,113.624,477.521Zm-.067,5.3h4.237v23.392h-4.237Z" style="fill:#fff"/><path d="M147.938,473.461v32.748h-4.06V502.5a9.182,9.182,0,0,1-3.575,2.957,11.075,11.075,0,0,1-4.766,1.015,12.3,12.3,0,0,1-6.091-1.5,10.754,10.754,0,0,1-4.215-4.216,13.52,13.52,0,0,1,0-12.468,10.8,10.8,0,0,1,4.215-4.193,12.308,12.308,0,0,1,6.091-1.5,11.205,11.205,0,0,1,4.634.949,9.01,9.01,0,0,1,3.531,2.8V473.461Zm-8.032,28.268a7.273,7.273,0,0,0,2.824-2.913,9.62,9.62,0,0,0,0-8.606,7.136,7.136,0,0,0-2.824-2.891,8.5,8.5,0,0,0-8.055,0,7.325,7.325,0,0,0-2.825,2.891,9.446,9.446,0,0,0,0,8.606,7.47,7.47,0,0,0,2.825,2.913,8.332,8.332,0,0,0,8.055,0Z" style="fill:#fff"/><path d="M177.023,495.926H158.045a7.345,7.345,0,0,0,2.714,4.965,8.857,8.857,0,0,0,5.76,1.876,8.673,8.673,0,0,0,6.752-2.826l2.34,2.737a10.255,10.255,0,0,1-3.95,2.825,14.894,14.894,0,0,1-11.851-.552,10.841,10.841,0,0,1-4.435-4.259,12.2,12.2,0,0,1-1.567-6.179,12.4,12.4,0,0,1,1.523-6.135,10.92,10.92,0,0,1,4.192-4.259,11.947,11.947,0,0,1,6.025-1.522,11.7,11.7,0,0,1,5.98,1.522,10.721,10.721,0,0,1,4.105,4.259,12.987,12.987,0,0,1,1.478,6.268A12.091,12.091,0,0,1,177.023,495.926Zm-16.573-7.9a7.474,7.474,0,0,0-2.405,4.855h15.006a7.528,7.528,0,0,0-2.405-4.833,7.9,7.9,0,0,0-10.2-.022Z" style="fill:#fff"/><path d="M182.981,473.461h4.238v32.748h-4.238Z" style="fill:#fff"/><path d="M195.361,477.521a2.6,2.6,0,0,1-.817-1.942,2.677,2.677,0,0,1,.817-1.964,2.783,2.783,0,0,1,2.052-.816,2.874,2.874,0,0,1,2.052.772,2.534,2.534,0,0,1,.817,1.92,2.727,2.727,0,0,1-.817,2.008,2.782,2.782,0,0,1-2.052.816A2.821,2.821,0,0,1,195.361,477.521Zm-.067,5.3h4.238v23.392h-4.238Z" style="fill:#fff"/><path d="M227.182,485.179q2.626,2.58,2.626,7.569v13.461h-4.237V493.233a7.186,7.186,0,0,0-1.633-5.12,6.143,6.143,0,0,0-4.678-1.72,7.293,7.293,0,0,0-5.429,2.007,7.848,7.848,0,0,0-1.986,5.76v12.049h-4.237V482.817h4.06v3.531a8.247,8.247,0,0,1,3.465-2.781,12.133,12.133,0,0,1,4.966-.97A9.662,9.662,0,0,1,227.182,485.179Z" style="fill:#fff"/><path d="M258.849,495.926H239.871a7.348,7.348,0,0,0,2.714,4.965,8.857,8.857,0,0,0,5.76,1.876,8.676,8.676,0,0,0,6.753-2.826l2.339,2.737a10.248,10.248,0,0,1-3.95,2.825,14.894,14.894,0,0,1-11.851-.552,10.847,10.847,0,0,1-4.435-4.259,12.2,12.2,0,0,1-1.567-6.179,12.406,12.406,0,0,1,1.523-6.135,10.916,10.916,0,0,1,4.193-4.259,11.94,11.94,0,0,1,6.024-1.522,11.7,11.7,0,0,1,5.98,1.522,10.714,10.714,0,0,1,4.1,4.259,12.988,12.988,0,0,1,1.479,6.268A12.137,12.137,0,0,1,258.849,495.926Zm-16.573-7.9a7.474,7.474,0,0,0-2.405,4.855h15.006a7.528,7.528,0,0,0-2.405-4.833,7.9,7.9,0,0,0-10.2-.022Z" style="fill:#fff"/><path d="M266,505.7a12.08,12.08,0,0,1-4.149-1.964l1.766-3.354a12.653,12.653,0,0,0,3.751,1.765,15.415,15.415,0,0,0,4.458.663q5.56,0,5.561-3.178a2.058,2.058,0,0,0-.75-1.677,4.755,4.755,0,0,0-1.876-.905q-1.125-.286-3.2-.64a31.406,31.406,0,0,1-4.612-1.015,7.1,7.1,0,0,1-3.068-1.942,5.4,5.4,0,0,1-1.279-3.84,5.993,5.993,0,0,1,2.648-5.1,11.849,11.849,0,0,1,7.1-1.92,19.605,19.605,0,0,1,4.679.573,12.614,12.614,0,0,1,3.84,1.545l-1.81,3.354a12.174,12.174,0,0,0-6.752-1.853,7.8,7.8,0,0,0-4.1.883,2.664,2.664,0,0,0-1.413,2.339,2.228,2.228,0,0,0,.8,1.809,5.016,5.016,0,0,0,1.964.971q1.168.309,3.288.706a35.921,35.921,0,0,1,4.568,1.037,6.832,6.832,0,0,1,2.979,1.876,5.231,5.231,0,0,1,1.236,3.708,5.846,5.846,0,0,1-2.714,5.053,12.819,12.819,0,0,1-7.393,1.876A19.6,19.6,0,0,1,266,505.7Z" style="fill:#fff"/><path d="M285.815,505.613a2.921,2.921,0,0,1-.882-2.184,2.868,2.868,0,0,1,.882-2.141,2.925,2.925,0,0,1,2.119-.86,2.818,2.818,0,0,1,2.074.838,2.928,2.928,0,0,1,.839,2.163,2.958,2.958,0,0,1-.861,2.184,2.8,2.8,0,0,1-2.052.861A2.926,2.926,0,0,1,285.815,505.613Z" style="fill:#fff"/></g></g></g></svg>