<?xml version="1.0" encoding="utf-8"?>
<!-- Generator: Adobe Illustrator 24.3.0, SVG Export Plug-In . SVG Version: 6.00 Build 0)  -->
<svg version="1.1" id="Capa_1" xmlns="http://www.w3.org/2000/svg" xmlns:xlink="http://www.w3.org/1999/xlink" x="0px" y="0px"
	 viewBox="0 0 480 480" style="enable-background:new 0 0 480 480;" xml:space="preserve">
<style type="text/css">
	.st0{fill:#FFFFFF;}
</style>
<g>
	<g>
		<path class="st0" d="M89.2,386.3c-12.7-0.9-23.8,8.7-24.7,21.4s8.7,23.8,21.4,24.7c0.6,0,1.1,0.1,1.7,0.1
			c12.8,0,23.1-10.4,23.1-23.1C110.7,397.3,101.4,387.2,89.2,386.3z M94.7,409.9C94.7,409.9,94.7,409.9,94.7,409.9L94.7,409.9
			c-0.2,1.9-1,3.7-2.4,4.9c-1.4,1.3-3.3,1.9-5.2,1.7c-3.9-0.3-6.9-3.7-6.6-7.6c0.3-3.7,3.4-6.7,7.1-6.6h0.5
			C92.1,402.6,95,405.9,94.7,409.9z"/>
	</g>
</g>
<g>
	<g>
		<path class="st0" d="M345.2,386.3c-12.7-0.9-23.8,8.7-24.7,21.4c-0.9,12.7,8.7,23.8,21.4,24.7c0.6,0,1.1,0.1,1.7,0.1
			c12.8,0,23.1-10.4,23.1-23.1C366.7,397.3,357.4,387.2,345.2,386.3z M350.7,409.9C350.7,409.9,350.7,409.9,350.7,409.9L350.7,409.9
			c-0.2,1.9-1,3.7-2.4,4.9c-1.4,1.3-3.3,1.9-5.2,1.7c-3.9-0.3-6.9-3.7-6.6-7.6c0.3-3.7,3.4-6.7,7.1-6.6h0.5
			C348.1,402.6,351,405.9,350.7,409.9z"/>
	</g>
</g>
<g>
	<g>
		<path class="st0" d="M224,336h-32c-4.4,0-8,3.6-8,8s3.6,8,8,8h32c4.4,0,8-3.6,8-8S228.4,336,224,336z"/>
	</g>
</g>
<g>
	<g>
		<path class="st0" d="M52.8,49.6c-1.4-1-3.1-1.6-4.8-1.6h-8l14.4-19.2c2.7-3.5,1.9-8.5-1.6-11.2s-8.5-1.9-11.2,1.6l-24,32
			c-2.7,3.5-1.9,8.5,1.6,11.2c1.4,1,3.1,1.6,4.8,1.6h8L17.6,83.2c-2.7,3.5-1.9,8.5,1.6,11.2s8.5,1.9,11.2-1.6c0,0,0,0,0,0l24-32
			C57.1,57.3,56.3,52.3,52.8,49.6z"/>
	</g>
</g>
<g>
	<g>
		<path class="st0" d="M454.1,192c-23.5-30.3-59.7-48-98.1-48H159.4c-4-27.5-27.5-48-55.4-48H56c-4.4,0-8,3.6-8,8v16H0v16h48v32H0
			v16h48v16c0,4.4,3.6,8,8,8h48c27.8,0,51.4-20.5,55.4-48H356c59.5-0.1,107.9,48.1,108,107.6c0,28.9-11.5,56.5-32,76.8V328
			c0-2.1-0.8-4.2-2.3-5.7l-12.2-12.2c-42.6-42.9-100-67.9-160.4-70c-0.4-0.1-0.7-0.2-1.1-0.2c-0.3,0-0.6,0.1-0.9,0.2
			c-2.4-0.1-4.7-0.2-7.1-0.2c-58.7,0-115.3,21.5-159.2,60.5l-4.9,4.3l-44.1,13.2c-23.8,7-40,28.9-39.9,53.6V408c0,4.4,3.6,8,8,8
			h24.6c4.4,30.6,32.7,51.8,63.3,47.4c24.6-3.5,43.9-22.8,47.4-47.4h145.3c4.4,30.6,32.7,51.8,63.3,47.4
			c24.6-3.5,43.9-22.8,47.4-47.4H424c4.4,0,8-3.6,8-8v-42.2C486.1,323.9,495.9,246.1,454.1,192z M104,192H64v-80h40
			c22.1,0,40,17.9,40,40S126.1,192,104,192z M88,448c-22.1,0-40-17.9-40-40s17.9-40,40-40s40,17.9,40,40C128,430.1,110.1,448,88,448
			z M248,400H143.4c-0.1-0.6-0.2-1.2-0.4-1.8c-0.1-0.8-0.3-1.5-0.4-2.3c-0.2-1-0.5-2-0.8-3c-0.2-0.7-0.4-1.4-0.6-2.1
			c-0.3-1-0.7-2-1.1-3c-0.2-0.6-0.5-1.3-0.7-1.9c-0.5-1.1-1-2.2-1.6-3.3c-0.2-0.5-0.4-1-0.7-1.4c-0.8-1.5-1.7-3-2.7-4.4
			c-0.2-0.4-0.5-0.7-0.8-1c-0.7-1.1-1.5-2.1-2.3-3.1c-0.4-0.5-0.9-1-1.3-1.5c-0.7-0.8-1.4-1.6-2.2-2.4c-0.5-0.5-1-1-1.5-1.5
			c-0.7-0.7-1.5-1.4-2.2-2c-0.6-0.5-1.1-0.9-1.7-1.4c-0.8-0.6-1.6-1.2-2.4-1.8c-0.6-0.4-1.2-0.8-1.9-1.3c-0.8-0.5-1.7-1-2.5-1.5
			c-0.7-0.4-1.3-0.7-2-1.1c-0.9-0.4-1.8-0.9-2.7-1.3c-0.7-0.3-1.4-0.6-2.1-0.9c-0.9-0.4-1.9-0.7-2.9-1.1c-0.7-0.2-1.4-0.5-2.1-0.7
			c-1-0.3-2.1-0.6-3.1-0.8c-0.7-0.2-1.4-0.3-2.1-0.5c-1.2-0.2-2.4-0.4-3.6-0.5c-0.6-0.1-1.2-0.2-1.8-0.2c-1.7-0.1-3.5-0.2-5.4-0.2
			s-3.7,0.1-5.5,0.3c-0.6,0.1-1.2,0.2-1.8,0.2c-1.2,0.2-2.4,0.3-3.6,0.5c-0.7,0.1-1.4,0.3-2.1,0.5c-1,0.2-2.1,0.5-3.1,0.8
			c-0.7,0.2-1.4,0.5-2.1,0.7c-1,0.3-1.9,0.7-2.9,1.1c-0.7,0.3-1.4,0.6-2.1,0.9c-0.9,0.4-1.8,0.8-2.7,1.3c-0.7,0.4-1.3,0.7-2,1.1
			c-0.8,0.5-1.7,1-2.5,1.5c-0.6,0.4-1.3,0.8-1.9,1.3c-0.8,0.6-1.6,1.2-2.4,1.8c-0.6,0.5-1.2,0.9-1.7,1.4c-0.8,0.7-1.5,1.3-2.2,2
			c-0.5,0.5-1,1-1.5,1.5c-0.7,0.8-1.4,1.6-2.2,2.4c-0.4,0.5-0.9,1-1.3,1.5c-0.8,1-1.6,2-2.3,3.1c-0.2,0.3-0.5,0.7-0.8,1
			c-1,1.4-1.8,2.9-2.7,4.4c-0.2,0.5-0.5,0.9-0.7,1.4c-0.6,1.1-1.1,2.2-1.6,3.3c-0.3,0.6-0.5,1.3-0.7,1.9c-0.4,1-0.8,2-1.1,3
			c-0.2,0.7-0.4,1.4-0.6,2.1c-0.3,1-0.5,2-0.8,3c-0.2,0.8-0.3,1.5-0.4,2.3c-0.1,0.6-0.3,1.2-0.4,1.8H16v-28.3
			c-0.1-17.7,11.5-33.3,28.5-38.3L89.2,320H248L248,400L248,400z M248,304H109.7c39.4-31.1,88.1-48,138.3-48L248,304L248,304z
			 M264,256.6c34.6,2.4,68.1,12.8,98,30.5L333.8,304H264V256.6z M344,448c-22.1,0-40-17.9-40-40s17.9-40,40-40s40,17.9,40,40
			C384,430.1,366.1,448,344,448z M416,400h-16.6c-0.1-0.6-0.2-1.2-0.4-1.8c-0.1-0.8-0.3-1.5-0.4-2.3c-0.2-1-0.5-2-0.8-3
			c-0.2-0.7-0.4-1.4-0.6-2.1c-0.3-1-0.7-2-1.1-3c-0.2-0.6-0.5-1.3-0.7-1.9c-0.5-1.1-1-2.2-1.6-3.3c-0.2-0.5-0.4-1-0.7-1.4
			c-0.8-1.5-1.7-3-2.7-4.4c-0.2-0.4-0.5-0.7-0.8-1c-0.7-1.1-1.5-2.1-2.3-3.1c-0.4-0.5-0.9-1-1.3-1.5c-0.7-0.8-1.4-1.6-2.2-2.4
			c-0.5-0.5-1-1-1.5-1.5c-0.7-0.7-1.5-1.4-2.2-2c-0.6-0.5-1.1-0.9-1.7-1.4c-0.8-0.6-1.6-1.2-2.4-1.8c-0.6-0.4-1.2-0.8-1.9-1.3
			c-0.8-0.5-1.7-1-2.5-1.5c-0.7-0.4-1.3-0.7-2-1.1c-0.9-0.4-1.8-0.9-2.7-1.3c-0.7-0.3-1.4-0.6-2.1-0.9c-0.9-0.4-1.9-0.7-2.9-1.1
			c-0.7-0.2-1.4-0.5-2.1-0.7c-1-0.3-2.1-0.6-3.1-0.8c-0.7-0.2-1.4-0.3-2.1-0.5c-1.2-0.2-2.4-0.4-3.6-0.5c-0.6-0.1-1.2-0.2-1.8-0.2
			c-1.7-0.1-3.5-0.2-5.4-0.2s-3.7,0.1-5.5,0.3c-0.6,0.1-1.2,0.2-1.8,0.2c-1.2,0.2-2.4,0.3-3.6,0.5c-0.7,0.1-1.4,0.3-2.1,0.5
			c-1,0.2-2.1,0.5-3.1,0.8c-0.7,0.2-1.4,0.5-2.1,0.7c-1,0.3-1.9,0.7-2.9,1.1c-0.7,0.3-1.4,0.6-2.1,0.9c-0.9,0.4-1.8,0.8-2.7,1.3
			c-0.7,0.4-1.3,0.7-2,1.1c-0.8,0.5-1.7,1-2.5,1.5c-0.6,0.4-1.3,0.8-1.9,1.3c-0.8,0.6-1.6,1.2-2.4,1.8c-0.6,0.5-1.2,0.9-1.7,1.4
			c-0.8,0.7-1.5,1.3-2.2,2c-0.5,0.5-1,1-1.5,1.5c-0.7,0.8-1.4,1.6-2.2,2.4c-0.4,0.5-0.9,1-1.3,1.5c-0.8,1-1.6,2-2.3,3.1
			c-0.2,0.3-0.5,0.7-0.8,1c-1,1.4-1.8,2.9-2.7,4.4c-0.2,0.5-0.5,0.9-0.7,1.4c-0.6,1.1-1.1,2.2-1.6,3.3c-0.3,0.6-0.5,1.3-0.7,1.9
			c-0.4,1-0.8,2-1.1,3c-0.2,0.7-0.4,1.4-0.6,2.1c-0.3,1-0.5,2-0.8,3c-0.2,0.8-0.3,1.5-0.4,2.3c-0.1,0.6-0.3,1.2-0.4,1.8H264v-80h72
			c1.5,0,2.9-0.4,4.1-1.1l36.7-22.1c10.5,7.4,20.3,15.6,29.3,24.7l9.8,9.8L416,400L416,400z"/>
	</g>
</g>
</svg>
