<?xml version="1.0" encoding="utf-8"?>
<!-- Generator: Adobe Illustrator 25.0.0, SVG Export Plug-In . SVG Version: 6.00 Build 0)  -->
<svg version="1.1" id="Layer_1" xmlns="http://www.w3.org/2000/svg" xmlns:xlink="http://www.w3.org/1999/xlink" x="0px" y="0px"
	 viewBox="0 0 500 143.06" style="enable-background:new 0 0 500 143.06;" xml:space="preserve">
<style type="text/css">
	.st0{clip-path:url(#SVGID_2_);}
	.st1{fill:#5E5E5F;}
	.st2{fill:#434244;}
	.st3{fill:#D76168;}
	.st4{fill:#F78D32;}
	.st5{fill:#3F3F41;}
	.st6{fill:#C82030;}
	.st7{fill:#FFFFFF;}
	.st8{fill:#186B37;}
	.st9{fill:#FFCC31;}
	.st10{fill:none;stroke:#3E4399;stroke-width:0.286;stroke-miterlimit:10;}
	.st11{fill:none;stroke:#3E4399;stroke-width:0.071;stroke-miterlimit:10;}
	.st12{clip-path:url(#SVGID_4_);}
	.st13{fill:#DE3836;}
</style>
<g id="Group_30" transform="translate(620 243.624)">
	<g>
		<defs>
			<rect id="SVGID_1_" x="-572.99" y="-223.87" width="162.14" height="90.35"/>
		</defs>
		<clipPath id="SVGID_2_">
			<use xlink:href="#SVGID_1_"  style="overflow:visible;"/>
		</clipPath>
		<g id="Group_29" transform="translate(0 0)" class="st0">
			<path id="Path_161" class="st1" d="M-561.83-167.97c0,1.65,0.95,2.35,2.1,2.35c1.13,0.1,2.12-0.74,2.22-1.87
				c0.01-0.16,0.01-0.32-0.02-0.48c0.13-1.11-0.67-2.12-1.78-2.25c-0.12-0.01-0.24-0.02-0.37-0.01c-1.1-0.09-2.07,0.72-2.16,1.82
				C-561.85-168.26-561.85-168.11-561.83-167.97 M-561.48-161.31c-0.66,0.33-1.07,1.01-1.05,1.75c0,1.15,0.75,1.85,2.35,1.85
				c2.25,0,3.45-1.05,3.45-2.25c0-0.9-0.55-1.3-1.7-1.3h-2.2C-560.91-161.25-561.19-161.27-561.48-161.31 M-554.77-169.92h-1.76
				c0.44,0.56,0.67,1.24,0.65,1.95c0,2.2-1.8,3.4-3.96,3.4c-0.34,0.02-0.67-0.02-1-0.1c-0.38,0.2-0.62,0.58-0.65,1
				c0,0.5,0.4,0.75,1.1,0.75h2.4c1.75,0,2.9,0.8,2.9,2.3c0,2.05-1.9,4.06-5.41,4.06c-2.45,0-3.7-0.95-3.7-2.45
				c0.01-1.16,0.78-2.18,1.9-2.5v-0.05c-0.51-0.28-0.82-0.82-0.8-1.4c0.06-0.85,0.61-1.59,1.4-1.9v-0.05
				c-1.17-0.56-1.89-1.76-1.85-3.05c0-2.2,1.8-3.35,3.8-3.35c0.54,0.01,1.08,0.09,1.6,0.25h3.55L-554.77-169.92z"/>
			<path id="Path_162" class="st1" d="M-547.31-167.11c0.07-0.28,0.1-0.57,0.1-0.85c0-1.2-0.45-2.25-1.85-2.25
				c-1.35,0-2.2,1-2.4,3.11H-547.31z M-551.47-166.11c0,2.7,1.25,4.11,3.25,4.11c0.95,0.02,1.87-0.34,2.55-1
				c0.16,0.17,0.26,0.37,0.3,0.6c0,0.55-1.35,1.65-3.55,1.65c-2.35,0-4.36-1.45-4.36-5.11c0-3.6,2.2-5.46,4.4-5.46
				c1.77-0.14,3.32,1.19,3.46,2.97c0.01,0.18,0.01,0.36,0,0.53c-0.01,0.58-0.09,1.15-0.25,1.7L-551.47-166.11z"/>
			<path id="Path_163" class="st1" d="M-540.61-169.42h0.05c0.48-1.06,1.49-1.79,2.65-1.9c1,0,1.4,0.45,1.4,1.05
				c0.01,0.31-0.1,0.62-0.3,0.85c-0.44-0.18-0.92-0.29-1.4-0.3c-0.93-0.05-1.81,0.41-2.3,1.2v6.41l1.5,0.3
				c0.2,0.05,0.3,0.1,0.3,0.25c-0.02,0.21-0.11,0.4-0.25,0.55h-4.6c-0.02-0.05-0.04-0.1-0.05-0.15c0-0.35,0.25-0.55,0.65-0.7
				l0.8-0.25v-7.8l-1.55-0.2v-0.15c0-0.35,0.25-0.6,0.75-0.65l2.45-0.25L-540.61-169.42z"/>
			<path id="Path_164" class="st1" d="M-519.48-162.11l1.25,0.3c0.2,0.05,0.3,0.1,0.3,0.25c-0.02,0.21-0.11,0.4-0.25,0.55h-4.4
				c-0.02-0.05-0.04-0.1-0.05-0.15c0-0.35,0.25-0.55,0.65-0.7l0.8-0.25v-5.35c0-1.9-1-2.45-2.05-2.45c-1.05-0.03-2.07,0.39-2.8,1.15
				c0.1,0.39,0.15,0.8,0.15,1.2v5.46l1.25,0.3c0.2,0.05,0.3,0.1,0.3,0.25c-0.03,0.2-0.1,0.38-0.2,0.55h-4.46v-0.15
				c0-0.35,0.25-0.55,0.6-0.7l0.8-0.25v-5.35c0-1.9-0.95-2.45-2-2.45c-1.01-0.03-1.98,0.35-2.7,1.05v6.76l1.25,0.3
				c0.25,0.05,0.3,0.1,0.3,0.25c0,0.2-0.07,0.4-0.2,0.55h-4.46v-0.15c0-0.35,0.25-0.55,0.65-0.7l0.75-0.25v-7.81l-1.5-0.2
				c-0.02-0.05-0.04-0.1-0.05-0.15c0-0.35,0.3-0.6,0.8-0.65l2.45-0.25l-0.1,1.4h0.05c0.83-0.99,2.06-1.56,3.35-1.55
				c1.16-0.02,2.22,0.64,2.7,1.7c0.87-1.07,2.18-1.7,3.56-1.7c2,0,3.25,1.35,3.25,3.76V-162.11z"/>
			<path id="Path_165" class="st1" d="M-511.87-165.51c-1.9,0.15-3.05,0.7-3.05,1.9c-0.07,0.79,0.52,1.48,1.3,1.55
				c0.06,0.01,0.13,0.01,0.2,0c0.83-0.03,1.6-0.43,2.1-1.1v-2.4L-511.87-165.51z M-509.62-163.16c0,0.9,0.35,1.15,0.75,1.15
				c0.27,0.01,0.54-0.08,0.75-0.25c0.12,0.18,0.19,0.39,0.2,0.6c0,0.2-0.5,0.85-1.65,0.85c-0.78,0.09-1.5-0.46-1.59-1.25
				c-0.01-0.07-0.01-0.14-0.01-0.2h-0.05c-0.63,0.96-1.71,1.53-2.85,1.5c-1.4,0.09-2.61-0.97-2.7-2.36c-0.01-0.1-0.01-0.19,0-0.29
				c0-2.2,2.55-3.1,4.91-3.1h0.55v-1c0-1.8-0.45-2.7-1.85-2.7c-0.41-0.01-0.82,0.08-1.2,0.25c-0.25,0.57-0.42,1.18-0.5,1.8
				c0,0-0.35,0.05-0.45,0.05c-0.65,0-1-0.3-1-0.9c0-1.3,1.75-2.3,3.5-2.3c2.2,0,3.2,1.25,3.2,3.55L-509.62-163.16z"/>
			<path id="Path_166" class="st1" d="M-497.15-162.11l1.25,0.3c0.2,0.05,0.3,0.1,0.3,0.25c-0.02,0.21-0.11,0.4-0.25,0.55h-4.41
				c-0.02-0.05-0.04-0.1-0.05-0.15c0-0.35,0.25-0.55,0.65-0.7l0.8-0.25v-5.35c0.16-1.19-0.67-2.28-1.86-2.44
				c-0.15-0.02-0.3-0.02-0.44-0.01c-0.99-0.01-1.94,0.36-2.65,1.05v6.76l1.25,0.3c0.2,0.05,0.3,0.1,0.3,0.25
				c-0.03,0.2-0.1,0.38-0.2,0.55h-4.45c-0.02-0.05-0.04-0.1-0.05-0.15c0-0.35,0.25-0.55,0.65-0.7l0.8-0.25v-7.81l-1.55-0.2v-0.15
				c0-0.35,0.25-0.6,0.75-0.65l2.5-0.25l-0.15,1.4h0.1c0.85-1.03,2.13-1.6,3.46-1.55c2.05,0,3.25,1.4,3.25,3.76L-497.15-162.11z"/>
			<path id="Path_167" class="st2" d="M-558.58-151.55c-0.35-0.33-0.82-0.51-1.3-0.5c-1.15,0-2,0.65-2,2.2
				c0,1.65,0.75,2.25,1.8,2.25c0.55,0.03,1.08-0.15,1.5-0.5l0.55,1.35c-0.63,0.59-1.49,0.88-2.35,0.8c-2.05,0-3.45-1.05-3.45-3.9
				c-0.13-1.97,1.37-3.67,3.34-3.8c0.14-0.01,0.28-0.01,0.42,0c0.73-0.05,1.46,0.16,2.05,0.6L-558.58-151.55z"/>
			<path id="Path_168" class="st2" d="M-553.32-152.04c-0.8,0-1.45,0.65-1.45,2.25s0.65,2.2,1.45,2.2s1.4-0.6,1.4-2.2
				C-551.92-151.44-552.57-152.04-553.32-152.04 M-553.37-145.94c-1.85,0-3.3-1.2-3.3-3.85c0-2.6,1.6-3.85,3.41-3.85
				c1.85,0,3.3,1.15,3.3,3.85C-549.97-147.19-551.62-145.94-553.37-145.94"/>
			<path id="Path_169" class="st2" d="M-544.91-152.04c-0.8,0-1.45,0.65-1.45,2.25s0.65,2.2,1.45,2.2c0.75,0,1.4-0.6,1.4-2.2
				C-543.51-151.44-544.16-152.04-544.91-152.04 M-545.01-145.94c-1.85,0-3.3-1.2-3.3-3.85c0-2.6,1.65-3.85,3.41-3.85
				c1.9,0,3.35,1.15,3.35,3.85C-541.55-147.19-543.2-145.94-545.01-145.94"/>
			<path id="Path_170" class="st2" d="M-537.65-151.59v3.85c0.27,0.18,0.58,0.27,0.9,0.25c1.15,0,1.8-0.7,1.8-2.4
				c0-1.55-0.6-2.15-1.5-2.15C-536.89-152.03-537.32-151.87-537.65-151.59 M-536.4-145.94c-0.44,0.01-0.87-0.09-1.25-0.3v3.15h-1.9
				v-10.36h1.75v0.8h0.05c0.46-0.67,1.24-1.05,2.05-1c1.6,0,2.7,1.15,2.7,3.66C-533-147.34-534.35-145.94-536.4-145.94"/>
			<path id="Path_171" class="st2" d="M-529.49-150.54h2.35c0.04-0.11,0.05-0.23,0.05-0.35c0-0.8-0.4-1.3-1.05-1.3
				C-528.89-152.19-529.44-151.64-529.49-150.54 M-525.54-149.29h-3.96c-0.01,0.97,0.77,1.76,1.73,1.77c0.09,0,0.18,0,0.27-0.02
				c0.63,0,1.25-0.21,1.75-0.6l0.45,1.35c-0.72,0.62-1.65,0.92-2.6,0.85c-2,0-3.4-1.1-3.4-3.9c0-2.6,1.5-3.8,3.35-3.8
				c1.55,0,2.55,1,2.55,2.95C-525.39-150.21-525.44-149.74-525.54-149.29"/>
			<path id="Path_172" class="st2" d="M-519.23-151.9c-0.18-0.06-0.36-0.09-0.55-0.1c-0.62-0.03-1.22,0.25-1.6,0.75v5.11h-1.9v-7.31
				h1.75v1c0.32-0.73,1.05-1.19,1.85-1.15c0.25,0,0.5,0.05,0.6,0.05L-519.23-151.9z"/>
			<path id="Path_173" class="st2" d="M-514.17-147.89v-1.35l-0.4,0.05c-0.95,0-1.5,0.3-1.5,0.85c-0.04,0.45,0.28,0.85,0.73,0.9
				c0.02,0,0.04,0,0.07,0C-514.86-147.41-514.45-147.58-514.17-147.89 M-514.47-150.39h0.3v-0.25c0-0.95-0.4-1.4-1.25-1.4
				c-0.65,0.01-1.28,0.26-1.75,0.7l-0.55-1.2c0.7-0.74,1.68-1.14,2.7-1.1c1.7,0,2.7,0.95,2.7,3.05v2.5c0,0.65,0.03,1.3,0.1,1.95
				h-1.75c0-0.2-0.05-0.5-0.05-0.8c-0.35,0.63-1.03,1.02-1.75,1c-1.11,0.03-2.03-0.85-2.06-1.97c0-0.08,0-0.16,0.01-0.23
				C-517.83-149.68-516.38-150.39-514.47-150.39"/>
			<path id="Path_174" class="st2" d="M-506.06-151.95h-1.7v2.96c0,1.05,0.3,1.4,1,1.4c0.25,0.01,0.51-0.02,0.75-0.1l0.15,1.4
				c-0.44,0.21-0.92,0.31-1.4,0.3c-1.65,0-2.4-0.75-2.4-2.8v-3.15h-0.95v-1.3l0.95-0.2l0.25-2.05h1.65v2.05h1.9L-506.06-151.95z"/>
			<path id="Path_175" class="st2" d="M-502.16-146.14h-1.9v-7.31h1.9V-146.14z M-503.11-154.7c-0.59,0.05-1.1-0.39-1.15-0.98
				c0-0.04,0-0.08,0-0.12c-0.04-0.57,0.4-1.07,0.97-1.1c0.06,0,0.12,0,0.18,0c0.58-0.03,1.07,0.42,1.1,1c0,0.03,0,0.07,0,0.1
				c0.01,0.6-0.46,1.09-1.06,1.1C-503.09-154.7-503.1-154.7-503.11-154.7"/>
			<path id="Path_176" class="st2" d="M-496.8-152.04c-0.75,0-1.4,0.65-1.4,2.25s0.65,2.2,1.4,2.2c0.8,0,1.45-0.6,1.45-2.2
				C-495.35-151.44-496-152.04-496.8-152.04 M-496.86-145.94c-1.85,0-3.3-1.2-3.3-3.85c0-2.6,1.65-3.85,3.4-3.85
				c1.9,0,3.35,1.15,3.35,3.85C-493.4-147.19-495.05-145.94-496.86-145.94"/>
			<path id="Path_177" class="st2" d="M-486.99-146.14v-4.35c0-1.05-0.35-1.55-1.2-1.55c-0.49,0-0.96,0.2-1.3,0.55v5.35h-1.96v-7.31
				h1.75v0.8h0.05c0.51-0.67,1.31-1.04,2.15-1c1.55,0,2.4,1.05,2.4,2.85v4.65H-486.99z"/>
			<path id="Path_178" class="st3" d="M-562.88-138.68v4.45h0.35c1.55,0,2.4-0.7,2.4-2.35c0-1.55-0.8-2.1-2.3-2.1L-562.88-138.68z
				 M-563.63-133.63v-5.66h1.2c2.1,0,3.05,0.75,3.05,2.7c0,2.05-1.15,2.95-3.15,2.95L-563.63-133.63z"/>
			<path id="Path_179" class="st3" d="M-554.77-138.68h-2.35v1.9h2.15v0.6h-2.15v1.95h2.55v0.6h-3.3v-5.66h3.15L-554.77-138.68z"/>
			<path id="Path_180" class="st3" d="M-549.01-135.98c0,1.65-0.7,2.45-2.1,2.45c-1.4,0-2.1-0.7-2.1-2.45v-3.31h0.7v3.31
				c0,1.3,0.5,1.85,1.45,1.85c0.9,0,1.35-0.5,1.35-1.85v-3.31h0.7L-549.01-135.98z"/>
			<path id="Path_181" class="st3" d="M-543.66-138.68h-1.75v5.06h-0.7v-5.06h-1.75v-0.6h4.25L-543.66-138.68z"/>
			<path id="Path_182" class="st3" d="M-539.95-138.33c-0.29-0.26-0.67-0.4-1.05-0.4c-0.65,0-0.95,0.3-0.95,0.65
				c0,0.45,0.2,0.7,0.9,1.15l0.45,0.3c0.66,0.26,1.11,0.89,1.15,1.6c0,0.85-0.7,1.5-1.85,1.5c-0.55,0.03-1.08-0.15-1.5-0.5
				l0.25-0.65c0.35,0.3,0.79,0.48,1.25,0.5c0.75,0,1.1-0.35,1.1-0.75c0-0.5-0.25-0.7-0.85-1.15l-0.5-0.3
				c-0.8-0.5-1.15-0.9-1.15-1.65c0.06-0.81,0.76-1.42,1.57-1.36c0.03,0,0.05,0,0.08,0.01c0.48-0.02,0.96,0.13,1.35,0.4
				L-539.95-138.33z"/>
			<path id="Path_183" class="st3" d="M-535.7-139.38c0.53-0.03,1.05,0.15,1.45,0.5l-0.3,0.55c-0.3-0.31-0.72-0.48-1.15-0.45
				c-1,0-1.9,0.65-1.9,2.25c0,1.7,0.7,2.4,1.8,2.4c0.46,0.01,0.9-0.15,1.25-0.45l0.25,0.5c-0.45,0.38-1.02,0.57-1.6,0.55
				c-1.5,0-2.45-0.9-2.45-2.96c-0.16-1.44,0.88-2.73,2.32-2.89C-535.92-139.38-535.81-139.38-535.7-139.38"/>
			<path id="Path_184" class="st3" d="M-528.69-133.63h-0.75v-2.55h-2.8v2.55h-0.7v-5.66h0.7v2.5h2.8v-2.5h0.75V-133.63z"/>
			<path id="Path_185" class="st3" d="M-523.83-138.68h-2.4v1.9h2.2v0.6h-2.2v1.95h2.6l-0.05,0.6h-3.26v-5.66h3.15L-523.83-138.68z"
				/>
			<path id="Path_186" class="st3" d="M-516.78-138.83l-2.85,4.6h3.1l-0.05,0.6h-3.95v-0.44l2.85-4.6h-2.7v-0.6h3.6L-516.78-138.83z
				"/>
			<path id="Path_187" class="st3" d="M-511.12-135.98c0,1.65-0.7,2.45-2.1,2.45c-1.4,0-2.1-0.7-2.1-2.45v-3.31h0.75v3.31
				c0,1.3,0.45,1.85,1.4,1.85s1.4-0.5,1.4-1.85v-3.31h0.65L-511.12-135.98z"/>
			<path id="Path_188" class="st3" d="M-506.92-138.33c-0.28-0.27-0.66-0.41-1.05-0.4c-0.6,0-0.95,0.3-0.95,0.65
				c0,0.45,0.2,0.7,0.9,1.15l0.5,0.3c0.64,0.28,1.06,0.9,1.1,1.6c0,0.85-0.65,1.5-1.8,1.5c-0.56,0.02-1.11-0.15-1.55-0.5l0.25-0.65
				c0.35,0.3,0.79,0.48,1.25,0.5c0.75,0,1.1-0.35,1.1-0.75c0-0.5-0.25-0.7-0.85-1.15l-0.5-0.3c-0.75-0.5-1.1-0.9-1.1-1.65
				s0.6-1.35,1.65-1.35c0.46-0.01,0.92,0.13,1.3,0.4L-506.92-138.33z"/>
			<path id="Path_189" class="st3" d="M-503.31-138.33L-503.31-138.33l-0.85,2.35h1.65L-503.31-138.33z M-501.71-133.63l-0.6-1.8h-2
				l-0.65,1.8h-0.7l2.1-5.66h0.55l2.1,5.66L-501.71-133.63z"/>
			<path id="Path_190" class="st3" d="M-494.5-133.63h-0.7v-4.05l-1.65,4.05h-0.6l-1.6-4.05h-0.05v4.05h-0.7v-5.66h0.8l1.9,4.66
				l1.9-4.66h0.7L-494.5-133.63z"/>
			<path id="Path_191" class="st3" d="M-487.44-133.63h-0.7v-4.05l-1.6,4.05h-0.65l-1.6-4.05h-0.05v4.05h-0.7v-5.66h0.8l1.9,4.66
				l1.9-4.66h0.7L-487.44-133.63z"/>
			<path id="Path_192" class="st3" d="M-482.54-138.68h-2.4v1.9h2.2v0.6h-2.2v1.95h2.6l-0.05,0.6h-3.25v-5.66h3.15L-482.54-138.68z"
				/>
			<path id="Path_193" class="st3" d="M-476.73-133.63h-0.65l-2.85-4.35v4.35h-0.75v-5.66h0.7l2.85,4.35v-4.35h0.7L-476.73-133.63z"
				/>
			<path id="Path_194" class="st3" d="M-473.23-138.33L-473.23-138.33l-0.85,2.36h1.65L-473.23-138.33z M-471.63-133.63l-0.6-1.8
				h-2.05l-0.6,1.8h-0.75l2.15-5.66h0.55l2.1,5.66L-471.63-133.63z"/>
			<path id="Path_195" class="st3" d="M-468.52-138.68h-0.45v2.15h0.45c1,0,1.5-0.4,1.5-1.15
				C-467.02-138.38-467.47-138.68-468.52-138.68 M-466.77-133.62l-1.3-2.3h-0.9v2.3h-0.7v-5.66h1.15c1.55,0,2.25,0.55,2.25,1.55
				c0.05,0.74-0.4,1.42-1.1,1.65l1.5,2.45L-466.77-133.62z"/>
			<path id="Path_196" class="st3" d="M-463.31-136.18h-0.6v1.95h0.55c1.05,0,1.45-0.35,1.45-1
				C-461.91-135.82-462.41-136.18-463.31-136.18 M-463.41-138.68h-0.5v1.9h0.45c0.95,0,1.4-0.35,1.4-1.05
				C-462.06-138.33-462.46-138.68-463.41-138.68 M-462.31-136.52L-462.31-136.52c0.67,0.1,1.16,0.68,1.15,1.35
				c0,0.9-0.65,1.55-2.2,1.55h-1.3v-5.66h1.24c1.5,0,2.1,0.55,2.1,1.45C-461.3-137.22-461.72-136.68-462.31-136.52"/>
			<path id="Path_197" class="st3" d="M-456.56-138.68h-2.4v1.9h2.2v0.6h-2.2v1.95h2.6l-0.05,0.6h-3.26v-5.66h3.15L-456.56-138.68z"
				/>
			<path id="Path_198" class="st3" d="M-454.65-138.78h-0.7v-0.5h2.1v0.5h-0.7v4.65h0.7v0.5h-2.15v-0.5h0.75V-138.78z"/>
			<path id="Path_199" class="st3" d="M-448.2-138.68h-1.75v5.06h-0.75v-5.06h-1.75v-0.6h4.3L-448.2-138.68z"/>
			<path id="Path_200" class="st4" d="M-483.14-189.24c1.65,2.85,4.35,6.71,11.42,10.31c1.58,0.8,3.27,1.37,5.01,1.7
				c0.77,0.15,1.54,0.26,2.32,0.34c0.4,0.04,0.81,0.07,1.22,0.08c1.29,0.05,2.57,0.01,3.85-0.12c1.38-0.14,2.75-0.38,4.09-0.72
				c0.93-0.23,1.87-0.51,2.82-0.84c7.06-2.5,14.27-7.56,18.92-11.46c4.28-3.54,8.68-7.54,12.19-10.85c0.41-0.39,0.81-0.77,1.2-1.14
				s0.76-0.72,1.12-1.07c0.36-0.34,0.7-0.67,1.03-0.99c0.16-0.16,0.32-0.31,0.48-0.46c1.24-1.19,2.19-2.13,2.75-2.68
				c-1.05-5.4-1.95-9.81-1.95-10.06c-14.12,17.27-30.29,27.78-40.7,31.14c-18.37,5.86-22.18-0.75-24.43-3.15
				c-1.1-1.2-2.06-2.36-2.95-3.5l-0.1,0.58C-484.14-190.99-483.56-189.99-483.14-189.24"/>
			<path id="Path_201" class="st5" d="M-538.4-216.87c4.23-0.37,8.48-0.47,12.72-0.3c4.21,0.48,8.38,1.28,12.47,2.4
				c3.91,1.28,7.7,2.92,11.31,4.91c3.42,1.82,6.53,4.17,9.22,6.96c2.93,3.36,5.56,6.97,7.86,10.8l0.1-0.59
				c-4.7-6.04-7.07-11.37-13.52-17.52c-7.01-6.66-15.92-9.76-20.63-11.01c-30.49-8.91-53.96,7.55-54.11,7.61
				c1.05,3,2.05,5.96,3.1,8.96c5.11-3.81,12.37-7.01,17.22-8.76C-548.04-215.04-543.26-216.2-538.4-216.87"/>
			<path id="Path_202" class="st6" d="M-511.92-207.71c6.83,1.98,13.21,5.28,18.77,9.71c2.85,2.54,5.48,5.32,7.86,8.31l0.03,0.04
				l0.42-2.46c-2.29-3.83-4.92-7.44-7.86-10.8c-2.69-2.79-5.8-5.13-9.21-6.96c-3.61-1.98-7.4-3.62-11.31-4.9
				c-4.09-1.12-8.25-1.92-12.46-2.4c-4.24-0.17-8.49-0.07-12.72,0.3c-4.86,0.67-9.64,1.82-14.27,3.45
				c-4.85,1.75-12.11,4.96-17.22,8.76c1.1,3.2,2.2,6.41,3.3,9.61c3.25-2.4,13.71-9.81,23.22-12.61
				C-533.12-210.81-522.18-210.83-511.92-207.71"/>
			<path id="Path_203" class="st7" d="M-417.46-204.44c-0.16,0.15-0.32,0.3-0.48,0.46l-1.03,0.99c-0.36,0.34-0.73,0.7-1.12,1.07
				c-0.39,0.37-0.79,0.75-1.2,1.14c-3.52,3.31-7.91,7.31-12.19,10.85c-4.66,3.9-11.87,8.96-18.92,11.46
				c-0.95,0.33-1.89,0.61-2.82,0.84c-1.35,0.33-2.71,0.57-4.09,0.72c-1.28,0.13-2.57,0.17-3.85,0.11c-0.41-0.02-0.82-0.05-1.22-0.08
				c-0.78-0.07-1.55-0.19-2.32-0.34c-1.74-0.33-3.43-0.9-5.01-1.7c-7.06-3.6-9.76-7.46-11.42-10.31c-0.42-0.75-1-1.74-1.7-2.87
				l-0.42,2.46c0.77,1.01,1.49,1.92,2.17,2.76c0.46,0.56,0.91,1.09,1.34,1.59c0.43,0.5,0.84,0.96,1.24,1.39
				c0.2,0.22,0.39,0.43,0.59,0.63c0.38,0.41,0.75,0.79,1.11,1.14s0.7,0.69,1.04,1.01c0.67,0.63,1.3,1.19,1.9,1.7
				c0.97,0.81,1.98,1.56,3.03,2.26c1.03,0.69,2.09,1.32,3.18,1.9c0.46,0.24,0.93,0.49,1.42,0.72c0.48,0.23,0.98,0.46,1.49,0.67
				c0.51,0.21,1.03,0.42,1.57,0.62c0.53,0.2,1.08,0.38,1.63,0.54c2,0.61,4.06,1,6.14,1.15c1.89,0.14,3.79,0.05,5.66-0.26
				c5.74-1.11,11.22-3.27,16.17-6.38c0.92-0.55,1.83-1.12,2.72-1.71c1.34-0.88,2.64-1.8,3.91-2.73c0.85-0.62,1.67-1.25,2.48-1.89
				c1.22-0.95,2.39-1.91,3.52-2.86c0.75-0.63,1.48-1.26,2.2-1.88c1.07-0.93,2.08-1.84,3.05-2.71c0.64-0.58,1.26-1.14,1.86-1.68
				c1.19-1.08,2.27-2.08,3.25-2.95c-0.65-3.35-1.4-7.11-2.1-10.51l0,0C-415.27-206.57-416.22-205.64-417.46-204.44"/>
			<path id="Path_204" class="st6" d="M-420.08-201.92l1.12-1.07L-420.08-201.92"/>
			<path id="Path_205" class="st6" d="M-418.96-202.99l1.03-0.99L-418.96-202.99"/>
			<path id="Path_206" class="st6" d="M-421.29-200.79c0.41-0.39,0.82-0.77,1.2-1.14C-420.47-201.56-420.88-201.18-421.29-200.79"/>
			<path id="Path_207" class="st6" d="M-414.71-207.11L-414.71-207.11c-0.56,0.55-1.51,1.48-2.75,2.68
				C-416.22-205.63-415.27-206.56-414.71-207.11"/>
			<path id="Path_208" class="st8" d="M-412.6-196.6c-0.98,0.87-2.06,1.86-3.25,2.95c-0.59,0.54-1.21,1.1-1.86,1.68
				c-0.96,0.87-1.98,1.78-3.05,2.71c-0.71,0.62-1.44,1.25-2.2,1.88c-1.13,0.95-2.3,1.91-3.52,2.86c-0.81,0.64-1.64,1.27-2.48,1.89
				c-1.27,0.93-2.57,1.85-3.91,2.73c-0.89,0.59-1.8,1.16-2.72,1.71c-4.95,3.11-10.43,5.27-16.17,6.38
				c-1.87,0.31-3.77,0.39-5.67,0.26c-2.08-0.15-4.14-0.54-6.14-1.15c-0.55-0.17-1.1-0.35-1.63-0.54c-0.53-0.19-1.05-0.4-1.56-0.62
				c-0.51-0.21-1.01-0.44-1.5-0.67s-0.96-0.47-1.42-0.72c-1.15-0.61-2.22-1.26-3.18-1.9c-1.05-0.7-2.06-1.45-3.03-2.26
				c-0.6-0.51-1.23-1.07-1.9-1.7c-0.33-0.32-0.68-0.65-1.04-1.01c-0.36-0.36-0.73-0.74-1.11-1.14c-0.19-0.2-0.39-0.42-0.58-0.63
				c-0.4-0.43-0.81-0.9-1.24-1.39c-0.43-0.49-0.87-1.02-1.33-1.59c-0.68-0.84-1.41-1.75-2.17-2.76l-0.27,1.58
				c0.55,0.67,1.02,1.26,1.39,1.73c6.61,8.51,14.87,19.97,28.68,19.82c11.46-0.15,16.97-2.75,20.08-3.91
				c9.43-3.65,17.85-9.52,24.53-17.12C-410.85-187.69-411.65-191.64-412.6-196.6"/>
			<path id="Path_209" class="st9" d="M-485.29-189.69c-2.38-2.99-5.01-5.77-7.86-8.31c-5.56-4.43-11.94-7.73-18.77-9.71
				c-10.25-3.11-21.2-3.09-31.44,0.05c-9.51,2.8-19.98,10.21-23.23,12.62c0.95,2.8,1.95,5.61,2.9,8.46
				c3.05-2.8,19.42-16.12,41.75-16.92c10.11-0.4,20.03,1.75,26.03,5.76c3.91,2.7,7.41,5.96,10.37,9.68l0.27-1.58L-485.29-189.69"/>
			<path id="Path_210" class="st10" d="M-434.7-181.56c0,1.87-1.51,3.38-3.38,3.38s-3.38-1.51-3.38-3.38c0-1.87,1.51-3.38,3.38-3.38
				C-436.22-184.94-434.7-183.42-434.7-181.56z"/>
			<line id="Line_3" class="st11" x1="-438.08" y1="-184.94" x2="-438.08" y2="-181.4"/>
			<line id="Line_4" class="st11" x1="-438.08" y1="-181.45" x2="-438.08" y2="-177.92"/>
			<line id="Line_5" class="st11" x1="-438.13" y1="-181.45" x2="-435.64" y2="-178.96"/>
			<line id="Line_6" class="st11" x1="-440.58" y1="-183.9" x2="-438.08" y2="-181.4"/>
			<line id="Line_7" class="st11" x1="-438.15" y1="-181.41" x2="-434.62" y2="-181.41"/>
			<line id="Line_8" class="st11" x1="-441.46" y1="-181.41" x2="-437.93" y2="-181.41"/>
			<line id="Line_9" class="st11" x1="-435.59" y1="-183.9" x2="-438.09" y2="-181.4"/>
			<line id="Line_10" class="st11" x1="-438.03" y1="-181.45" x2="-440.53" y2="-178.96"/>
			<line id="Line_11" class="st11" x1="-436.68" y1="-184.66" x2="-438.09" y2="-181.43"/>
			<line id="Line_12" class="st11" x1="-438.07" y1="-181.47" x2="-439.48" y2="-178.23"/>
			<line id="Line_13" class="st11" x1="-438.12" y1="-181.49" x2="-436.83" y2="-178.2"/>
			<line id="Line_14" class="st11" x1="-439.38" y1="-184.71" x2="-438.09" y2="-181.43"/>
			<line id="Line_15" class="st11" x1="-438.15" y1="-181.45" x2="-434.91" y2="-180.04"/>
			<line id="Line_16" class="st11" x1="-441.19" y1="-182.78" x2="-437.95" y2="-181.37"/>
			<line id="Line_17" class="st11" x1="-434.8" y1="-182.72" x2="-438.09" y2="-181.43"/>
			<line id="Line_18" class="st11" x1="-438.02" y1="-181.45" x2="-441.31" y2="-180.16"/>
		</g>
	</g>
</g>
<g id="Group_32" transform="translate(379 262.624)">
	<g>
		<defs>
			<rect id="SVGID_3_" x="-126.91" y="-225.99" width="201.42" height="52.36"/>
		</defs>
		<clipPath id="SVGID_4_">
			<use xlink:href="#SVGID_3_"  style="overflow:visible;"/>
		</clipPath>
		<g id="Group_31" transform="translate(0 0)" class="st12">
			<path id="Path_211" class="st13" d="M74.52-193.18c0.01-0.11-0.03-0.22-0.1-0.3c-0.1-0.1-0.2-0.2-0.3-0.2s-0.2,0.1-0.3,0.2
				c-0.1,0-0.1,0.1-0.1,0.3v2.77h-2.57v-2.77c0-0.2,0-0.3-0.1-0.3c-0.1-0.1-0.19-0.2-0.3-0.2c-0.11,0.01-0.19,0.09-0.2,0.2
				c-0.1,0-0.2,0.1-0.2,0.3v6.62c0,0.1,0.1,0.2,0.2,0.3c0.05,0.05,0.12,0.09,0.2,0.1c0.1,0,0.2-0.1,0.3-0.1
				c0.08-0.08,0.12-0.19,0.1-0.3v-3.06h2.57v3.06c-0.01,0.11,0.02,0.22,0.1,0.3c0.1,0,0.2,0.1,0.3,0.1s0.2-0.1,0.3-0.1
				c0-0.1,0.1-0.2,0.1-0.3V-193.18z M67.59-187.94c0.01,0.26-0.1,0.52-0.3,0.69c-0.1,0.2-0.39,0.2-0.59,0.2h-0.1
				c-0.2,0-0.5,0-0.6-0.2c-0.21-0.12-0.33-0.35-0.3-0.59v-1.98c0.01-0.23,0.12-0.45,0.3-0.59c0.17-0.13,0.38-0.2,0.6-0.2h0.1
				c0.46,0.07,0.82,0.43,0.89,0.89L67.59-187.94z M68.39-189.72c0.02-0.24-0.02-0.47-0.1-0.69c-0.07-0.21-0.21-0.38-0.4-0.5
				c-0.12-0.18-0.29-0.32-0.5-0.39c-0.22-0.08-0.46-0.12-0.69-0.1h-0.1c-0.17-0.02-0.35,0.02-0.5,0.1c-0.16,0-0.3,0.08-0.4,0.2
				v-2.07c0.01-0.11-0.03-0.22-0.1-0.3c-0.1-0.1-0.2-0.2-0.3-0.2s-0.2,0.1-0.3,0.2c-0.1,0-0.1,0.1-0.1,0.3v6.62
				c-0.02,0.11,0.02,0.22,0.1,0.3c0.1,0,0.2,0.1,0.3,0.1c0.08-0.01,0.15-0.05,0.2-0.1c0.1-0.1,0.2-0.1,0.2-0.3
				c0.1,0.1,0.2,0.2,0.3,0.3c0.2,0,0.4,0.1,0.6,0.1h0.1c0.24-0.02,0.48-0.09,0.69-0.2c0.18-0.08,0.35-0.18,0.5-0.3
				c0.17-0.17,0.3-0.37,0.4-0.59c0.09-0.22,0.12-0.46,0.1-0.69V-189.72z M62.95-189.72c0.02-0.27-0.01-0.54-0.1-0.79
				c-0.11-0.18-0.24-0.35-0.4-0.49c-0.2-0.1-0.4-0.2-0.59-0.3c-0.19-0.08-0.39-0.12-0.59-0.1h-0.1c-0.28-0.03-0.56,0.04-0.79,0.2
				c-0.21,0.07-0.38,0.21-0.5,0.39c-0.17-0.16-0.37-0.3-0.59-0.39c-0.23-0.16-0.51-0.23-0.79-0.2h-0.1
				c-0.17-0.02-0.34,0.02-0.49,0.1c-0.16,0-0.3,0.08-0.4,0.2c-0.01-0.08-0.05-0.15-0.1-0.2c-0.15-0.16-0.4-0.17-0.57-0.02
				c-0.09,0.08-0.14,0.2-0.13,0.32v4.45c-0.01,0.11,0.02,0.22,0.1,0.3c0.1,0,0.2,0.1,0.3,0.1s0.2-0.1,0.3-0.1
				c0.08-0.08,0.11-0.19,0.1-0.3v-3.26c0.02-0.23,0.12-0.44,0.29-0.59c0.18-0.11,0.38-0.18,0.59-0.2h0.1
				c0.26-0.01,0.52,0.1,0.69,0.3c0.2,0.1,0.2,0.3,0.2,0.59v3.06c0,0.16,0.08,0.3,0.2,0.4c0.1,0,0.2,0.1,0.3,0.1s0.1-0.1,0.2-0.1
				c0.12-0.1,0.2-0.24,0.2-0.4v-3.07c0-0.2,0-0.5,0.2-0.59c0.17-0.2,0.43-0.31,0.69-0.3h0.1c0.21,0.01,0.42,0.07,0.59,0.2
				c0.2,0.18,0.31,0.43,0.3,0.69v3.16c-0.01,0.11,0.02,0.22,0.1,0.3c0.1,0,0.2,0.1,0.29,0.1s0.2-0.1,0.3-0.1
				c0.08-0.08,0.11-0.19,0.1-0.3L62.95-189.72z M54.75-189.82c0.01-0.11-0.02-0.22-0.1-0.3c-0.08-0.08-0.19-0.11-0.29-0.1h-1.48
				c-0.19-0.03-0.37,0.1-0.4,0.29c-0.01,0.04-0.01,0.07,0,0.11c-0.01,0.11,0.02,0.22,0.1,0.3c0.1,0,0.2,0.1,0.3,0.1h1.09v1.19
				c0.02,0.17-0.01,0.35-0.1,0.49c0,0.16-0.08,0.3-0.2,0.4c-0.11,0.11-0.25,0.18-0.4,0.2c-0.15,0.08-0.32,0.12-0.49,0.1h-0.1
				c-0.17,0.02-0.35-0.02-0.5-0.1c-0.1,0-0.2-0.1-0.39-0.2c-0.12-0.1-0.2-0.24-0.2-0.4c-0.09-0.15-0.13-0.32-0.1-0.49v-3.36
				c-0.02-0.17,0.02-0.35,0.1-0.5c0.02-0.15,0.09-0.29,0.2-0.4c0.19-0.1,0.29-0.2,0.39-0.2c0.15-0.08,0.33-0.12,0.5-0.1h0.1
				c0.29-0.03,0.59,0.08,0.79,0.29c0.22,0.17,0.37,0.42,0.4,0.69c0,0.1,0.1,0.2,0.2,0.3c0.1,0,0.1,0.1,0.2,0.1s0.2-0.1,0.29-0.1
				c0.08-0.08,0.11-0.19,0.1-0.3v-0.1c-0.01-0.24-0.08-0.48-0.2-0.69c-0.1-0.2-0.29-0.4-0.4-0.59c-0.22-0.12-0.45-0.22-0.69-0.3
				c-0.21-0.13-0.45-0.19-0.69-0.2h-0.1c-0.27,0.02-0.54,0.09-0.79,0.2c-0.21,0.11-0.41,0.24-0.59,0.4
				c-0.22,0.19-0.39,0.42-0.49,0.69c-0.09,0.25-0.12,0.52-0.1,0.79v3.36c-0.02,0.27,0.01,0.54,0.1,0.79
				c0.11,0.27,0.28,0.51,0.49,0.69c0.1,0.2,0.39,0.3,0.59,0.4c0.25,0.11,0.52,0.18,0.79,0.2h0.1c0.27-0.01,0.54-0.08,0.79-0.2
				c0.2-0.1,0.5-0.2,0.59-0.4c0.22-0.19,0.39-0.43,0.49-0.69c0.09-0.25,0.12-0.52,0.1-0.79L54.75-189.82z M46.45-191.11
				c-0.09-0.44-0.22-0.87-0.4-1.29c-0.13-0.35-0.29-0.68-0.5-0.99c-0.15-0.3-0.35-0.57-0.59-0.79c-0.1-0.1-0.2-0.2-0.3-0.2
				s-0.2,0.1-0.3,0.1c0,0.1-0.1,0.2-0.1,0.29s0.1,0.2,0.1,0.3c0.22,0.21,0.42,0.44,0.59,0.69c0.15,0.29,0.28,0.59,0.39,0.89
				c0.1,0.4,0.2,0.69,0.3,1.09c0.08,0.42,0.11,0.85,0.1,1.28c0.02,0.43-0.01,0.86-0.1,1.28c-0.1,0.4-0.2,0.79-0.3,1.19
				c-0.13,0.32-0.29,0.62-0.49,0.89c-0.11,0.27-0.28,0.5-0.49,0.69c-0.06,0.05-0.1,0.12-0.1,0.2c-0.03,0.19,0.1,0.37,0.29,0.4
				c0.04,0.01,0.07,0.01,0.11,0c0.11,0.01,0.22-0.02,0.3-0.1c0.22-0.25,0.42-0.51,0.59-0.79c0.23-0.33,0.4-0.7,0.5-1.09
				c0.19-0.41,0.33-0.84,0.4-1.29c0.09-0.46,0.12-0.92,0.1-1.38C46.56-190.18,46.53-190.64,46.45-191.11 M42.79-186.95
				c-0.08-0.08-0.19-0.11-0.3-0.1h-2.67l2.97-5.73c0.08-0.08,0.11-0.19,0.1-0.3c0-0.1,0-0.3-0.1-0.3c-0.1-0.12-0.24-0.2-0.4-0.2
				h-2.96c-0.2,0-0.3,0.1-0.4,0.1c0,0.1-0.1,0.2-0.1,0.3c0,0.1,0.1,0.2,0.1,0.3c0.1,0.1,0.2,0.1,0.4,0.1h2.47l-2.97,5.73
				c-0.08,0.08-0.11,0.19-0.1,0.3c-0.01,0.11,0.02,0.22,0.1,0.3c0.1,0.2,0.2,0.2,0.4,0.2h3.16c0.23-0.01,0.41-0.21,0.4-0.45
				C42.89-186.79,42.85-186.87,42.79-186.95 M36.96-193.17c0-0.2-0.1-0.3-0.2-0.3c-0.1-0.1-0.2-0.2-0.3-0.2s-0.1,0.1-0.2,0.2
				c-0.1,0-0.2,0.1-0.2,0.3v6.61c0,0.1,0.1,0.2,0.2,0.3c0.1,0,0.1,0.1,0.2,0.1s0.2-0.1,0.3-0.1c0.1-0.1,0.2-0.2,0.2-0.3V-193.17z
				 M33.99-189.81c0-0.1-0.1-0.2-0.1-0.3c-0.08-0.08-0.19-0.11-0.29-0.1h-1.48c-0.2,0-0.3,0-0.4,0.1c0,0.1-0.1,0.2-0.1,0.3
				c0,0.1,0.1,0.2,0.1,0.3c0.1,0,0.2,0.1,0.4,0.1h1.08v1.19c-0.02,0.17-0.06,0.33-0.1,0.49c-0.08,0.15-0.18,0.29-0.3,0.4
				c-0.1,0.12-0.24,0.2-0.4,0.2c-0.12,0.08-0.26,0.12-0.4,0.1h-0.1c-0.17,0.03-0.35-0.01-0.49-0.1c-0.16,0-0.3-0.08-0.4-0.2
				c-0.12-0.11-0.22-0.25-0.3-0.4c-0.04-0.16-0.08-0.33-0.1-0.49v-3.38c0-0.2,0.1-0.3,0.1-0.5c0.1-0.1,0.2-0.3,0.3-0.4
				c0.1-0.12,0.24-0.2,0.4-0.2c0.15-0.09,0.32-0.13,0.49-0.1H32c0.29-0.01,0.58,0.1,0.79,0.29c0.19,0.19,0.33,0.43,0.4,0.69
				c0,0.1,0.1,0.2,0.1,0.3c0.1,0,0.2,0.1,0.3,0.1s0.2-0.1,0.29-0.1c0-0.1,0.1-0.2,0.1-0.3v-0.1c-0.01-0.24-0.08-0.48-0.2-0.69
				c-0.2-0.2-0.3-0.4-0.49-0.59l-0.59-0.3c-0.22-0.11-0.45-0.18-0.69-0.2h-0.1c-0.27,0.01-0.54,0.07-0.79,0.2
				c-0.24,0.11-0.48,0.25-0.69,0.4c-0.19,0.19-0.33,0.43-0.4,0.69c-0.12,0.25-0.19,0.52-0.2,0.79v3.36c0.01,0.27,0.08,0.54,0.2,0.79
				c0.14,0.54,0.55,0.95,1.09,1.09c0.24,0.12,0.51,0.19,0.79,0.2H32c0.27-0.03,0.54-0.1,0.79-0.2c0.22-0.1,0.42-0.23,0.59-0.4
				c0.19-0.19,0.33-0.43,0.4-0.69c0.12-0.24,0.19-0.51,0.2-0.79L33.99-189.81z M27.97-186.35c-0.17-0.28-0.31-0.58-0.4-0.89
				c-0.17-0.38-0.31-0.78-0.39-1.19c0-0.4-0.1-0.79-0.1-1.28c0-0.4,0.1-0.79,0.1-1.28c0.1-0.4,0.2-0.69,0.3-1.09
				c0.14-0.31,0.31-0.61,0.49-0.89c0.14-0.25,0.31-0.48,0.5-0.69c0.08-0.08,0.11-0.19,0.1-0.3c0.01-0.11-0.02-0.22-0.1-0.29
				c-0.1,0-0.2-0.1-0.3-0.1s-0.2,0.1-0.3,0.2c-0.22,0.24-0.42,0.51-0.59,0.79c-0.19,0.35-0.35,0.72-0.5,1.09
				c-0.1,0.3-0.2,0.79-0.3,1.19c-0.11,0.45-0.18,0.92-0.2,1.39c0.01,0.47,0.08,0.93,0.2,1.38c0.1,0.5,0.2,0.89,0.3,1.29
				c0.15,0.37,0.31,0.73,0.5,1.08c0.18,0.31,0.41,0.58,0.69,0.79c0.05,0.06,0.12,0.09,0.2,0.1c0.11,0.01,0.22-0.02,0.3-0.1
				c0.1-0.1,0.2-0.1,0.2-0.3l-0.2-0.2C28.37-185.86,28.17-186.06,27.97-186.35 M22.04-186.85c-0.1-0.1-0.2-0.1-0.3-0.2
				c-0.2,0-0.3,0-0.4-0.1c-0.2-0.1-0.2-0.3-0.2-0.49v-2.97h0.49c0.2,0,0.3,0,0.3-0.1c0.13-0.18,0.13-0.42,0-0.59
				c-0.08-0.07-0.19-0.11-0.3-0.1h-0.49v-1.78c0-0.2-0.1-0.3-0.2-0.3c-0.01-0.11-0.09-0.19-0.2-0.2c-0.1,0-0.2,0.1-0.3,0.2
				c-0.1,0-0.1,0.1-0.1,0.3v1.78h-0.4c-0.11-0.01-0.22,0.03-0.3,0.1c-0.13,0.18-0.13,0.42,0,0.59c0,0.1,0.1,0.1,0.3,0.1h0.4v3.06
				c-0.01,0.17,0.03,0.34,0.1,0.5c0,0.2,0.1,0.3,0.3,0.49c0.11,0.12,0.25,0.23,0.4,0.3c0.2,0,0.39,0.1,0.59,0.1
				c0.1,0,0.2-0.1,0.3-0.2c0-0.1,0.1-0.1,0.1-0.2C22.13-186.65,22.03-186.75,22.04-186.85 M17.78-191c0.03-0.19-0.1-0.37-0.29-0.4
				c-0.04-0.01-0.07-0.01-0.11,0c-0.1,0-0.2,0-0.2,0.1c-0.1,0.1-0.2,0.2-0.2,0.3v4.44c0,0.1,0.1,0.2,0.2,0.3
				c0.05,0.05,0.12,0.09,0.2,0.1c0.1,0,0.2-0.1,0.3-0.1c0.08-0.08,0.11-0.19,0.1-0.3V-191z M17.78-193.18c0-0.2,0-0.3-0.1-0.3
				c-0.1-0.1-0.2-0.2-0.3-0.2c-0.11,0.01-0.19,0.09-0.2,0.2c-0.1,0-0.2,0.1-0.2,0.3v0.2c0,0.1,0.1,0.2,0.2,0.3
				c0,0.1,0.1,0.1,0.2,0.1c0.19,0.03,0.37-0.1,0.4-0.29c0.01-0.04,0.01-0.07,0-0.11V-193.18z M14.43-189.13h-1.88v-0.59
				c0-0.21,0.07-0.42,0.2-0.59c0.17-0.2,0.43-0.31,0.69-0.3h0.1c0.23,0.01,0.45,0.12,0.59,0.3c0.19,0.13,0.31,0.36,0.3,0.59
				L14.43-189.13z M15.22-189.72c0.02-0.24-0.02-0.47-0.1-0.69c-0.07-0.21-0.22-0.38-0.4-0.5c-0.14-0.16-0.31-0.29-0.49-0.39
				c-0.22-0.07-0.46-0.11-0.69-0.1h-0.1c-0.23-0.02-0.47,0.01-0.69,0.1c-0.21,0.07-0.38,0.21-0.5,0.39c-0.19,0.12-0.33,0.29-0.4,0.5
				c-0.08,0.22-0.12,0.46-0.1,0.69v1.78c-0.02,0.23,0.01,0.47,0.1,0.69c0.1,0.22,0.23,0.42,0.4,0.59c0.15,0.12,0.32,0.22,0.5,0.3
				c0.21,0.12,0.45,0.19,0.69,0.2h0.1c0.32,0.01,0.64-0.1,0.89-0.29c0.28-0.19,0.49-0.47,0.59-0.79c0.06,0,0.1-0.04,0.1-0.1
				c0.01-0.11-0.03-0.22-0.1-0.3c-0.1-0.1-0.2-0.2-0.29-0.2c-0.08,0.01-0.15,0.05-0.2,0.1c-0.1,0-0.1,0.1-0.2,0.2
				c-0.1,0.1-0.2,0.3-0.3,0.4c-0.15,0.09-0.33,0.13-0.5,0.1h-0.1c-0.25,0.04-0.5-0.03-0.69-0.2c-0.12-0.21-0.19-0.45-0.2-0.69v-0.5
				h2.29c0.19,0.03,0.37-0.1,0.4-0.29c0.01-0.04,0.01-0.07,0-0.11L15.22-189.72z M9.19-187.94c0.01,0.26-0.1,0.52-0.3,0.69
				c-0.16,0.15-0.37,0.23-0.59,0.2H8.2c-0.39,0.1-0.78-0.14-0.88-0.53c-0.02-0.09-0.03-0.17-0.02-0.26v-1.98
				c0.02-0.21,0.09-0.41,0.2-0.59c0.21-0.13,0.45-0.19,0.69-0.2h0.1c0.23,0.02,0.44,0.12,0.59,0.3c0.19,0.13,0.31,0.36,0.3,0.59
				L9.19-187.94z M9.98-189.72c0.02-0.24-0.02-0.47-0.1-0.69c-0.07-0.21-0.21-0.38-0.4-0.5c-0.31-0.32-0.74-0.5-1.19-0.49h-0.1
				c-0.17-0.03-0.35,0.01-0.5,0.1c-0.16,0-0.3,0.08-0.4,0.2v-2.08c0-0.2-0.1-0.3-0.2-0.3c-0.1-0.1-0.1-0.2-0.2-0.2
				s-0.2,0.1-0.29,0.2c-0.1,0-0.2,0.1-0.2,0.3v6.62c0,0.1,0.1,0.2,0.2,0.3c0.1,0,0.2,0.1,0.29,0.1c0.05-0.05,0.12-0.09,0.2-0.1
				c0.08-0.09,0.15-0.19,0.2-0.3c0,0.1,0.1,0.2,0.3,0.3c0.2,0,0.3,0.1,0.59,0.1h0.1c0.21-0.02,0.41-0.09,0.59-0.2
				c0.2-0.1,0.4-0.2,0.59-0.3c0.1-0.2,0.3-0.4,0.4-0.59c0.09-0.22,0.12-0.46,0.1-0.69L9.98-189.72z M4.74-190.91
				c-0.12-0.18-0.29-0.32-0.5-0.39c-0.19-0.08-0.39-0.12-0.59-0.1h-0.4c-0.05,0.05-0.12,0.09-0.2,0.1c-0.1,0-0.1,0.1-0.2,0.1
				c0-0.1-0.1-0.1-0.1-0.2h-0.2c-0.11-0.01-0.22,0.02-0.3,0.1c-0.08,0.08-0.12,0.19-0.1,0.3v4.35c0,0.2,0,0.3,0.1,0.4
				c0.1,0,0.2,0.1,0.3,0.1c0.08-0.01,0.15-0.05,0.2-0.1c0.13-0.1,0.2-0.24,0.2-0.4v-3.46c-0.01-0.11,0.02-0.22,0.1-0.3
				c0.05-0.05,0.12-0.09,0.2-0.1c0.1-0.1,0.2-0.1,0.4-0.1c0.11-0.01,0.22,0.02,0.29,0.1c0.1,0,0.1,0.1,0.2,0.1
				c0.1,0.1,0.2,0.2,0.3,0.2s0.2-0.1,0.3-0.1C4.87-190.49,4.87-190.73,4.74-190.91 M-0.89-187.94c0.01,0.26-0.1,0.51-0.29,0.69
				c-0.1,0.2-0.4,0.2-0.59,0.2h-0.1c-0.25,0.04-0.5-0.03-0.69-0.2c-0.12-0.14-0.19-0.31-0.2-0.49v-0.1c0-0.2,0-0.3,0.2-0.4
				c0.11-0.12,0.25-0.23,0.4-0.3c0.2,0,0.4-0.1,0.69-0.1c0.2,0,0.4-0.1,0.59-0.1L-0.89-187.94z M0.49-186.86
				c-0.08-0.08-0.19-0.11-0.3-0.1c-0.2-0.1-0.3-0.2-0.3-0.4v-2.46c0.02-0.2-0.02-0.41-0.1-0.59c-0.07-0.21-0.21-0.38-0.4-0.5
				c-0.12-0.18-0.29-0.32-0.49-0.39c-0.22-0.09-0.46-0.12-0.69-0.1h-0.5c-0.1,0.1-0.3,0.1-0.39,0.2c-0.15,0.07-0.28,0.17-0.4,0.29
				c-0.12,0.15-0.22,0.32-0.3,0.5c-0.1,0-0.1,0.1-0.1,0.2c0.01,0.11,0.09,0.19,0.2,0.2c0,0.1,0.1,0.1,0.2,0.1h0.2
				c0.11-0.01,0.19-0.09,0.2-0.2c0.1-0.1,0.19-0.3,0.29-0.4c0.18-0.09,0.39-0.12,0.59-0.1c0.22-0.01,0.43,0.06,0.59,0.2
				c0.19,0.1,0.29,0.3,0.29,0.69v0.1c-0.1,0.1-0.19,0.1-0.29,0.2c-0.2-0.01-0.4,0.03-0.59,0.1c-0.2,0-0.4,0.1-0.59,0.1
				c-0.2,0.1-0.4,0.2-0.59,0.3c-0.19,0.1-0.36,0.24-0.5,0.4c-0.09,0.22-0.12,0.46-0.1,0.69v0.1c-0.02,0.24,0.01,0.47,0.1,0.69
				c0.1,0.19,0.24,0.36,0.4,0.49l0.59,0.3c0.2,0,0.4,0.1,0.59,0.1h0.1c0.41-0.02,0.8-0.19,1.08-0.49l0.3,0.3
				c0.15,0.09,0.33,0.13,0.5,0.1v0.1c0.2,0,0.3-0.1,0.3-0.2c0.1,0,0.1-0.1,0.1-0.2v-0.3 M-5.24-189.7c0.02-0.27-0.02-0.54-0.1-0.79
				c-0.11-0.18-0.24-0.35-0.4-0.49c-0.2-0.1-0.4-0.2-0.59-0.3c-0.19-0.08-0.39-0.12-0.59-0.1h-0.1c-0.17-0.03-0.35,0.01-0.49,0.1
				c-0.16,0-0.3,0.08-0.4,0.2c-0.1-0.1-0.1-0.2-0.2-0.2c-0.05-0.06-0.12-0.1-0.2-0.1c-0.11-0.01-0.22,0.02-0.3,0.1
				c-0.1,0.1-0.2,0.2-0.2,0.3v4.43c0,0.1,0.1,0.2,0.2,0.3c0.1,0,0.2,0.1,0.3,0.1s0.1-0.1,0.2-0.1c0.1-0.1,0.2-0.2,0.2-0.3v-3.16
				c0-0.2,0-0.5,0.2-0.59c0.18-0.2,0.43-0.31,0.69-0.3h0.1c0.23,0.02,0.44,0.12,0.59,0.3c0.19,0.14,0.31,0.36,0.3,0.59v3.16
				c-0.01,0.11,0.02,0.22,0.1,0.3c0.1,0,0.2,0.1,0.29,0.1s0.2-0.1,0.3-0.1c0.08-0.08,0.11-0.19,0.1-0.3L-5.24-189.7z M-11.27-189.11
				h-1.98v-0.59c-0.01-0.24,0.11-0.46,0.3-0.59c0.18-0.2,0.43-0.31,0.69-0.3h0.1c0.23,0.02,0.44,0.12,0.59,0.3
				c0.19,0.14,0.31,0.36,0.3,0.59L-11.27-189.11z M-10.48-189.72c-0.02-0.24-0.09-0.48-0.19-0.69c-0.04-0.2-0.14-0.37-0.3-0.5
				c-0.17-0.16-0.38-0.3-0.59-0.39c-0.19-0.08-0.39-0.12-0.59-0.1h-0.1c-0.24-0.02-0.47,0.01-0.69,0.1
				c-0.22,0.1-0.42,0.23-0.59,0.39c-0.12,0.15-0.22,0.32-0.29,0.5c-0.11,0.22-0.18,0.45-0.2,0.69v1.78c0.01,0.24,0.08,0.48,0.2,0.69
				l0.29,0.59c0.2,0.1,0.4,0.2,0.59,0.3c0.21,0.12,0.45,0.19,0.69,0.2h0.1c0.32-0.01,0.63-0.11,0.89-0.29
				c0.28-0.19,0.49-0.47,0.59-0.79c0.06,0,0.1-0.04,0.1-0.1c0-0.2-0.1-0.3-0.2-0.3c0-0.1-0.1-0.2-0.3-0.2
				c-0.05,0.05-0.12,0.09-0.2,0.1c-0.05,0.05-0.09,0.12-0.1,0.2c-0.1,0.1-0.2,0.3-0.3,0.4c-0.15,0.08-0.32,0.12-0.49,0.1h-0.1
				c-0.25,0.04-0.5-0.03-0.69-0.2c-0.2-0.18-0.31-0.43-0.3-0.69v-0.5h2.37c0.11,0.01,0.22-0.02,0.29-0.1c0-0.1,0.1-0.2,0.1-0.3
				L-10.48-189.72z M-15.82-189.72c0.02-0.27-0.01-0.54-0.1-0.79c-0.08-0.2-0.22-0.38-0.4-0.49c-0.15-0.12-0.32-0.22-0.49-0.3
				c-0.22-0.09-0.46-0.12-0.69-0.1h-0.1c-0.25-0.03-0.5,0.04-0.69,0.2c-0.22,0.1-0.42,0.23-0.59,0.39c-0.17-0.16-0.38-0.3-0.59-0.39
				c-0.19-0.16-0.44-0.23-0.69-0.2h-0.1c-0.17-0.03-0.35,0.01-0.49,0.1c-0.16,0-0.3,0.08-0.4,0.2c-0.1-0.1-0.1-0.2-0.2-0.2
				c-0.05-0.06-0.12-0.09-0.2-0.1c-0.11-0.01-0.22,0.02-0.29,0.1c-0.1,0.1-0.2,0.2-0.2,0.3v4.45c0,0.1,0.1,0.2,0.2,0.3
				c0.1,0,0.2,0.1,0.29,0.1s0.1-0.1,0.2-0.1c0.1-0.1,0.2-0.2,0.2-0.3v-3.26c0.02-0.21,0.09-0.41,0.2-0.59
				c0.21-0.13,0.45-0.19,0.69-0.2h0.1c0.23,0.02,0.44,0.12,0.59,0.3c0.21,0.12,0.33,0.35,0.3,0.59v3.06c0,0.2,0,0.3,0.1,0.4
				c0.1,0,0.2,0.1,0.3,0.1s0.2-0.1,0.3-0.1c0.1-0.1,0.1-0.2,0.1-0.4v-3.07c-0.01-0.24,0.11-0.46,0.3-0.59
				c0.15-0.18,0.36-0.28,0.59-0.3h0.1c0.24,0.01,0.48,0.07,0.69,0.2c0.12,0.21,0.19,0.45,0.2,0.69v3.16c0,0.1,0.1,0.2,0.2,0.3
				c0.05,0.05,0.12,0.09,0.2,0.1c0.1,0,0.2-0.1,0.3-0.1c0.08-0.08,0.11-0.19,0.1-0.3L-15.82-189.72z M-23.83-189.72
				c-0.01-0.28-0.08-0.55-0.2-0.79c-0.07-0.2-0.22-0.38-0.4-0.49c-0.15-0.12-0.32-0.22-0.49-0.3c-0.22-0.09-0.46-0.12-0.69-0.1h-0.1
				c-0.25-0.03-0.5,0.04-0.69,0.2c-0.22,0.1-0.42,0.23-0.59,0.39c-0.16-0.18-0.36-0.32-0.59-0.39c-0.19-0.17-0.44-0.24-0.69-0.2
				h-0.1c-0.17-0.03-0.35,0.01-0.49,0.1c-0.16,0-0.3,0.08-0.4,0.2c-0.1-0.1-0.1-0.2-0.2-0.2c-0.05-0.06-0.12-0.1-0.2-0.1
				c-0.19-0.03-0.37,0.1-0.4,0.29c-0.01,0.04-0.01,0.07,0,0.11v4.45c-0.01,0.11,0.02,0.22,0.1,0.3c0.1,0,0.2,0.1,0.3,0.1
				c0.08-0.01,0.15-0.05,0.2-0.1c0.1-0.1,0.2-0.2,0.2-0.3v-3.26c0.02-0.21,0.09-0.41,0.2-0.59c0.21-0.13,0.45-0.19,0.69-0.2h0.1
				c0.24-0.01,0.46,0.11,0.59,0.3c0.21,0.12,0.33,0.35,0.3,0.59v3.06c0,0.2,0,0.3,0.1,0.4c0.1,0,0.2,0.1,0.3,0.1s0.2-0.1,0.3-0.1
				c0.1-0.1,0.1-0.2,0.1-0.4v-3.07c-0.01-0.23,0.1-0.46,0.29-0.59c0.15-0.18,0.36-0.28,0.59-0.3h0.1c0.24,0.01,0.48,0.07,0.69,0.2
				c0.17,0.19,0.24,0.44,0.2,0.69v3.16c0,0.1,0.1,0.2,0.2,0.3c0.1,0,0.1,0.1,0.2,0.1s0.2-0.1,0.3-0.1c0.1-0.1,0.2-0.2,0.2-0.3
				L-23.83-189.72z M-33.12-187.94c0.01,0.26-0.1,0.51-0.3,0.69c-0.16,0.15-0.38,0.23-0.59,0.2h-0.1c-0.25,0.04-0.5-0.03-0.69-0.2
				c-0.2-0.1-0.2-0.3-0.2-0.49v-0.1c0-0.2,0-0.3,0.1-0.4c0.2-0.1,0.3-0.2,0.49-0.3c0.2,0,0.4-0.1,0.59-0.1c0.3,0,0.5-0.1,0.69-0.1
				L-33.12-187.94z M-31.83-186.86c0-0.1-0.1-0.1-0.2-0.1c-0.2-0.1-0.3-0.2-0.3-0.4v-2.46c0-0.2-0.1-0.4-0.1-0.59
				c-0.07-0.21-0.21-0.38-0.4-0.5c-0.12-0.18-0.29-0.32-0.49-0.39c-0.22-0.08-0.46-0.12-0.69-0.1h-0.49c-0.2,0.1-0.3,0.1-0.4,0.2
				c-0.15,0.07-0.29,0.17-0.4,0.29c-0.19,0.12-0.33,0.29-0.4,0.5v0.2c0,0.1,0,0.2,0.1,0.2c0.08,0.08,0.19,0.11,0.3,0.1h0.2
				c0.1,0,0.1-0.1,0.2-0.2s0.2-0.3,0.3-0.4c0.15-0.09,0.32-0.13,0.49-0.1h0.1c0.21,0,0.42,0.07,0.59,0.2c0.2,0.1,0.3,0.3,0.3,0.69
				v0.1h-0.1c0,0.1-0.1,0.1-0.2,0.2c-0.2-0.02-0.41,0.02-0.59,0.1c-0.2,0-0.4,0.1-0.59,0.1c-0.2,0.1-0.4,0.2-0.59,0.3
				c-0.21,0.07-0.38,0.21-0.5,0.4c-0.12,0.21-0.19,0.45-0.2,0.69v0.1c0.01,0.24,0.08,0.48,0.2,0.69c0.1,0.19,0.24,0.36,0.4,0.49
				c0.15,0.12,0.32,0.22,0.49,0.3c0.2,0,0.4,0.1,0.69,0.1h0.1c0.41-0.02,0.8-0.19,1.09-0.49l0.29,0.3c0.12,0.08,0.26,0.11,0.4,0.1
				c0,0.06,0.04,0.1,0.1,0.1c0.1,0,0.2-0.1,0.3-0.2c0.1,0,0.1-0.1,0.1-0.2c0.01-0.11-0.02-0.22-0.1-0.3 M-37.37-187.72
				c-0.01-0.28-0.07-0.55-0.2-0.79c-0.19-0.2-0.29-0.4-0.49-0.5c-0.22-0.11-0.45-0.18-0.69-0.2c-0.2-0.1-0.49-0.1-0.69-0.2
				c-0.2,0-0.3-0.1-0.49-0.2c-0.13-0.1-0.2-0.24-0.2-0.4c0-0.2,0.1-0.3,0.3-0.4c0.16-0.14,0.38-0.21,0.59-0.2h0.1
				c0.17-0.03,0.35,0.01,0.5,0.1c0.2,0.1,0.3,0.1,0.4,0.2h0.3c0.1,0,0.2,0,0.2-0.1c0.1,0,0.1-0.1,0.1-0.2c0-0.2,0-0.3-0.1-0.3
				c-0.07-0.07-0.13-0.13-0.2-0.2c-0.1,0-0.2-0.1-0.3-0.1c-0.1-0.1-0.3-0.1-0.4-0.2h-0.59c-0.17-0.01-0.34,0.03-0.5,0.1
				c-0.21,0.02-0.41,0.09-0.59,0.2c-0.18,0.08-0.32,0.22-0.4,0.4c-0.11,0.18-0.18,0.38-0.2,0.59c0,0.28,0.06,0.55,0.2,0.79
				c0.12,0.18,0.29,0.33,0.5,0.4c0.22,0.12,0.45,0.22,0.69,0.3c0.2,0,0.39,0.1,0.69,0.1c0.2,0.1,0.3,0.2,0.5,0.3
				c0.12,0.13,0.2,0.31,0.2,0.49c0,0.21-0.11,0.4-0.3,0.49c-0.2,0.2-0.4,0.2-0.79,0.2c-0.22,0.03-0.44-0.05-0.59-0.2
				c-0.19-0.11-0.35-0.24-0.5-0.4c-0.06-0.07-0.13-0.13-0.2-0.2h-0.2c-0.19-0.03-0.37,0.1-0.39,0.29c0,0.03,0,0.07,0,0.1v0.2
				c0.08,0.18,0.22,0.32,0.39,0.4c0.1,0.2,0.3,0.3,0.4,0.4c0.2,0.1,0.4,0.1,0.5,0.2c0.2,0,0.4,0.1,0.59,0.1
				c0.29,0,0.49-0.1,0.69-0.1c0.2-0.1,0.4-0.2,0.59-0.3c0.18-0.12,0.32-0.29,0.39-0.49c0.11-0.18,0.18-0.38,0.2-0.59L-37.37-187.72z
				 M-42.81-190.98c0.03-0.22-0.12-0.42-0.34-0.46c-0.22-0.03-0.42,0.12-0.46,0.34c-0.01,0.04-0.01,0.08,0,0.12v3.06
				c0.01,0.26-0.1,0.51-0.3,0.69c-0.1,0.2-0.4,0.2-0.59,0.2h-0.1c-0.25,0.04-0.5-0.03-0.69-0.2c-0.12-0.21-0.19-0.45-0.2-0.69V-191
				c0-0.1-0.1-0.2-0.2-0.3c0-0.1-0.1-0.1-0.2-0.1c-0.19-0.03-0.37,0.1-0.4,0.29c-0.01,0.04-0.01,0.07,0,0.11v3.06
				c-0.02,0.27,0.01,0.54,0.1,0.79c0.07,0.21,0.21,0.38,0.4,0.5c0.11,0.18,0.29,0.33,0.49,0.4c0.2,0,0.5,0.1,0.69,0.1h0.1
				c0.2,0,0.3-0.1,0.49-0.1c0.15-0.07,0.29-0.18,0.4-0.3c0,0.2,0.1,0.2,0.1,0.3c0.1,0,0.2,0.1,0.3,0.1s0.2-0.1,0.3-0.1
				c0.08-0.08,0.11-0.19,0.1-0.3L-42.81-190.98z M-47.94-186.93c-0.08-0.08-0.19-0.11-0.3-0.1h-2.66l2.97-5.73
				c0.08-0.08,0.11-0.19,0.1-0.3c0-0.1-0.1-0.3-0.2-0.3c-0.1-0.1-0.2-0.2-0.3-0.2h-3.06c-0.1,0-0.2,0.1-0.3,0.1
				c0,0.1-0.1,0.2-0.1,0.3s0.1,0.2,0.1,0.3c0.08,0.08,0.19,0.11,0.3,0.1h2.57l-3.07,5.73v0.3c-0.01,0.11,0.02,0.22,0.1,0.3
				c0.1,0.2,0.2,0.2,0.3,0.2h3.26c0.11,0.01,0.22-0.02,0.3-0.1c0-0.1,0.1-0.2,0.1-0.3C-47.83-186.73-47.93-186.83-47.94-186.93"/>
			<path id="Path_212" class="st13" d="M25.99-200.69h-1.87v-0.59c0.02-0.21,0.09-0.41,0.2-0.59c0.18-0.2,0.43-0.31,0.69-0.3h0.1
				c0.46,0.07,0.82,0.43,0.89,0.89L25.99-200.69z M26.78-201.28c0.01-0.23-0.03-0.47-0.1-0.69c-0.07-0.2-0.22-0.38-0.4-0.49
				c-0.14-0.16-0.3-0.3-0.49-0.4c-0.22-0.07-0.46-0.11-0.69-0.1h-0.1c-0.24-0.02-0.47,0.01-0.69,0.1c-0.2,0.08-0.38,0.22-0.49,0.4
				c-0.19,0.15-0.33,0.36-0.4,0.59c-0.08,0.19-0.11,0.39-0.1,0.59v1.88c-0.02,0.2,0.02,0.41,0.1,0.59c0.1,0.22,0.23,0.42,0.4,0.59
				c0.15,0.12,0.32,0.22,0.49,0.3c0.21,0.12,0.45,0.19,0.69,0.2h0.1c0.32,0.01,0.64-0.1,0.89-0.29c0.27-0.15,0.48-0.4,0.59-0.69
				c0.06-0.05,0.09-0.12,0.1-0.2c0-0.1-0.1-0.2-0.1-0.3c-0.08-0.08-0.19-0.11-0.3-0.1h-0.2l-0.19,0.2c-0.07,0.15-0.18,0.29-0.3,0.4
				c-0.14,0.13-0.31,0.2-0.5,0.2h-0.1c-0.26,0.01-0.52-0.1-0.69-0.3c-0.11-0.18-0.18-0.38-0.2-0.59v-0.59h2.27
				c0.11,0.01,0.22-0.02,0.29-0.1c0.08-0.08,0.11-0.19,0.1-0.3L26.78-201.28z M21.74-198.42c-0.08-0.08-0.19-0.11-0.3-0.1
				c-0.2-0.1-0.29-0.1-0.39-0.2c-0.14-0.08-0.22-0.24-0.2-0.4v-5.63c0.01-0.11-0.03-0.22-0.1-0.3c-0.18-0.13-0.42-0.13-0.59,0
				c-0.1,0-0.1,0.1-0.1,0.3v5.63c-0.02,0.17,0.02,0.35,0.1,0.5c0.06,0.19,0.16,0.36,0.3,0.5c0.1,0.1,0.3,0.2,0.4,0.29
				c0.2,0,0.39,0.1,0.59,0.1c0.1,0,0.2-0.1,0.3-0.2c0.05-0.05,0.09-0.12,0.1-0.2C21.84-198.22,21.74-198.32,21.74-198.42 M17-199.5
				c0.01,0.26-0.1,0.51-0.3,0.69c-0.13,0.19-0.36,0.31-0.59,0.3h-0.1c-0.24-0.01-0.48-0.08-0.69-0.2c-0.11-0.18-0.18-0.38-0.2-0.59
				v-0.1c0-0.15,0.08-0.3,0.2-0.39c0.14-0.13,0.31-0.2,0.5-0.2c0.1-0.1,0.4-0.1,0.59-0.2c0.2,0.01,0.41-0.02,0.59-0.1L17-199.5z
				 M18.38-198.42c-0.08-0.08-0.19-0.12-0.3-0.1c-0.19-0.1-0.29-0.2-0.29-0.4v-2.46c0.02-0.2-0.02-0.41-0.1-0.59
				c-0.07-0.2-0.22-0.38-0.4-0.49c-0.12-0.18-0.29-0.33-0.5-0.4c-0.19-0.08-0.39-0.11-0.59-0.1h-0.58c-0.1,0.1-0.3,0.1-0.4,0.2
				c-0.1,0.1-0.3,0.19-0.4,0.29c-0.12,0.15-0.22,0.32-0.29,0.49c-0.05,0.05-0.09,0.12-0.1,0.2c0,0.1,0.1,0.2,0.2,0.3
				c0.1,0,0.1,0.1,0.2,0.1c0.08-0.01,0.15-0.05,0.2-0.1c0.11-0.01,0.19-0.09,0.2-0.2c0.1-0.1,0.2-0.3,0.4-0.4
				c0.16-0.04,0.33-0.08,0.5-0.1h0.1c0.21,0.02,0.41,0.09,0.59,0.2c0.14,0.2,0.21,0.45,0.2,0.69v0.2c-0.1,0-0.2,0.1-0.3,0.1
				c-0.2,0-0.3,0.1-0.49,0.1s-0.4,0.1-0.69,0.1c-0.2,0.1-0.4,0.2-0.59,0.3c-0.18,0.08-0.32,0.22-0.39,0.4
				c-0.17,0.19-0.24,0.44-0.2,0.69v0.1c-0.02,0.24,0.01,0.47,0.1,0.69c0.11,0.18,0.24,0.35,0.4,0.5l0.59,0.29
				c0.2,0,0.4,0.1,0.59,0.1h0.1c0.42-0.04,0.82-0.18,1.19-0.39c0,0.1,0.1,0.1,0.2,0.2c0.1,0.1,0.3,0.1,0.49,0.2h0.1
				c0.1,0,0.2-0.1,0.3-0.2c0.05-0.05,0.09-0.12,0.1-0.2c0-0.1-0.1-0.2-0.1-0.3 M12.65-201.28c0.02-0.24-0.01-0.47-0.1-0.69
				c-0.07-0.23-0.21-0.44-0.4-0.59c-0.2-0.1-0.3-0.19-0.5-0.29c-0.22-0.08-0.46-0.11-0.69-0.1h-0.1c-0.17-0.03-0.35,0.01-0.5,0.1
				c-0.15,0-0.3,0.08-0.39,0.2c-0.01-0.11-0.09-0.19-0.2-0.2c0-0.1-0.1-0.1-0.2-0.1c-0.11-0.01-0.22,0.02-0.3,0.1
				c-0.08,0.08-0.11,0.19-0.1,0.29v4.45c-0.01,0.11,0.02,0.22,0.1,0.29c0.1,0,0.2,0.1,0.3,0.1c0.08-0.01,0.15-0.05,0.2-0.1
				c0.1-0.1,0.2-0.2,0.2-0.29v-3.17c0-0.21,0.07-0.42,0.19-0.59c0.18-0.2,0.43-0.31,0.69-0.3h0.1c0.24-0.01,0.46,0.11,0.59,0.3
				c0.17,0.15,0.28,0.36,0.29,0.59v3.16c-0.01,0.11,0.02,0.22,0.1,0.29c0.1,0,0.2,0.1,0.3,0.1s0.2-0.1,0.3-0.1
				c0.08-0.08,0.11-0.19,0.1-0.29L12.65-201.28z M6.52-199.41c-0.07,0.46-0.43,0.83-0.89,0.89h-0.1c-0.26,0.01-0.52-0.1-0.69-0.3
				c-0.11-0.18-0.18-0.38-0.2-0.59v-1.87c0.02-0.21,0.09-0.41,0.2-0.59c0.18-0.2,0.43-0.31,0.69-0.3h0.1
				c0.46,0.07,0.83,0.43,0.89,0.89V-199.41z M7.3-201.28c0.01-0.2-0.02-0.41-0.1-0.59c-0.07-0.23-0.21-0.44-0.39-0.59
				c-0.14-0.16-0.31-0.29-0.5-0.39c-0.22-0.07-0.46-0.11-0.69-0.1h-0.1c-0.23-0.02-0.47,0.01-0.69,0.1c-0.2,0.07-0.38,0.21-0.5,0.39
				c-0.19,0.16-0.32,0.36-0.4,0.59c-0.08,0.19-0.11,0.39-0.1,0.59v1.88c-0.02,0.2,0.02,0.41,0.1,0.59c0.1,0.22,0.23,0.42,0.4,0.59
				c0.15,0.12,0.32,0.22,0.5,0.3c0.21,0.12,0.45,0.19,0.69,0.2h0.1c0.24-0.03,0.47-0.1,0.69-0.2c0.2-0.1,0.3-0.2,0.5-0.3
				c0.16-0.17,0.3-0.38,0.39-0.59c0.08-0.19,0.12-0.39,0.1-0.59V-201.28z M1.87-202.57c0.03-0.19-0.1-0.37-0.3-0.39
				c-0.03,0-0.07,0-0.1,0c-0.1,0-0.2,0-0.2,0.1c-0.1,0.1-0.2,0.2-0.2,0.29v4.45c0,0.1,0.1,0.2,0.2,0.29c0.05,0.05,0.12,0.09,0.2,0.1
				c0.1,0,0.2-0.1,0.3-0.1c0.08-0.08,0.11-0.19,0.1-0.29V-202.57z M1.87-204.74c0-0.2,0-0.3-0.1-0.3c-0.08-0.08-0.19-0.11-0.3-0.1
				c-0.1,0-0.2,0-0.2,0.1c-0.1,0-0.2,0.1-0.2,0.3v0.2c0,0.1,0.1,0.2,0.2,0.29c0,0.1,0.1,0.1,0.2,0.1c0.19,0.03,0.37-0.1,0.4-0.29
				c0.01-0.03,0.01-0.07,0-0.1V-204.74z M-0.7-198.42c-0.08-0.07-0.19-0.11-0.3-0.1c-0.1-0.1-0.29-0.1-0.39-0.2
				c-0.13-0.14-0.2-0.31-0.2-0.5v-2.96H-1c0.11,0.01,0.22-0.02,0.3-0.1c0.08-0.08,0.11-0.19,0.1-0.3c0-0.1,0-0.19-0.1-0.19
				c-0.1-0.1-0.2-0.2-0.3-0.2h-0.58v-1.77c0-0.2,0-0.3-0.1-0.3c-0.18-0.13-0.42-0.13-0.59,0c-0.1,0-0.1,0.1-0.1,0.3v1.78h-0.4
				c-0.1,0-0.2,0.1-0.3,0.2c-0.1,0-0.1,0.1-0.1,0.19c-0.03,0.19,0.1,0.37,0.29,0.4c0.04,0.01,0.08,0.01,0.11,0h0.4v3.06
				c-0.02,0.17,0.02,0.35,0.1,0.5c0.1,0.2,0.2,0.3,0.3,0.5c0.1,0.1,0.3,0.2,0.4,0.29c0.2,0,0.4,0.1,0.59,0.1c0.1,0,0.2-0.1,0.3-0.2
				c0.1,0,0.1-0.1,0.1-0.2c0.02-0.11-0.02-0.22-0.1-0.3 M-5.63-199.5c-0.01,0.24-0.07,0.48-0.2,0.69c-0.17,0.2-0.43,0.31-0.69,0.3
				h-0.1c-0.22,0.01-0.43-0.06-0.59-0.2c-0.17-0.15-0.28-0.36-0.29-0.59v-0.1c0-0.15,0.08-0.3,0.2-0.39c0.13-0.12,0.31-0.2,0.49-0.2
				c0.2-0.1,0.4-0.1,0.59-0.2c0.2,0.02,0.41-0.02,0.59-0.1V-199.5z M-4.24-198.41c-0.08-0.08-0.19-0.11-0.29-0.1
				c-0.2-0.1-0.3-0.2-0.3-0.4v-2.47c0.02-0.2-0.02-0.41-0.1-0.59c-0.08-0.18-0.18-0.34-0.3-0.49c-0.17-0.17-0.37-0.3-0.59-0.4
				c-0.19-0.08-0.39-0.12-0.59-0.1h-0.49c-0.2,0.1-0.3,0.1-0.5,0.2c-0.1,0.1-0.29,0.19-0.39,0.29c-0.12,0.15-0.22,0.32-0.3,0.49v0.2
				c-0.01,0.11,0.02,0.22,0.1,0.3c0.1,0,0.2,0.1,0.3,0.1c0.05-0.05,0.12-0.09,0.2-0.1c0.05-0.05,0.09-0.12,0.1-0.2
				c0.1-0.1,0.2-0.3,0.4-0.4c0.16-0.04,0.33-0.08,0.49-0.1h0.1c0.21,0.02,0.41,0.09,0.59,0.2c0.14,0.2,0.21,0.45,0.2,0.69v0.2
				c-0.08,0.07-0.19,0.1-0.29,0.1c-0.16,0.04-0.33,0.08-0.49,0.1c-0.2,0-0.4,0.1-0.69,0.1c-0.2,0.1-0.39,0.2-0.59,0.3
				c-0.18,0.08-0.32,0.22-0.4,0.4c-0.12,0.21-0.19,0.45-0.2,0.69v0.1c-0.02,0.24,0.01,0.47,0.1,0.69c0.11,0.19,0.24,0.35,0.4,0.5
				l0.59,0.29c0.2,0,0.4,0.1,0.59,0.1h0.1c0.42-0.03,0.83-0.16,1.19-0.39c0,0.1,0.1,0.1,0.2,0.2c0.2,0.1,0.3,0.1,0.49,0.2h0.1
				c0.1,0,0.2-0.1,0.29-0.2c0.05-0.05,0.09-0.12,0.1-0.2C-4.14-198.2-4.24-198.3-4.24-198.41 M-9.98-201.28
				c0.02-0.24-0.01-0.47-0.1-0.69c-0.07-0.23-0.21-0.44-0.4-0.59c-0.15-0.12-0.32-0.22-0.49-0.29c-0.22-0.08-0.46-0.12-0.69-0.1
				h-0.1c-0.17-0.01-0.34,0.02-0.49,0.1c-0.16,0-0.3,0.08-0.4,0.2c-0.01-0.11-0.09-0.19-0.2-0.2c0-0.1-0.1-0.1-0.2-0.1
				c-0.19-0.03-0.37,0.1-0.4,0.29c-0.01,0.03-0.01,0.07,0,0.1v4.45c-0.01,0.11,0.02,0.22,0.1,0.3c0.1,0,0.2,0.1,0.3,0.1
				s0.2-0.1,0.3-0.1c0-0.1,0.1-0.2,0.1-0.3v-3.16c0-0.24,0.11-0.46,0.3-0.59c0.14-0.19,0.36-0.3,0.59-0.3h0.1
				c0.24-0.01,0.46,0.11,0.59,0.3c0.18,0.15,0.28,0.36,0.3,0.59v3.16c0,0.1,0.1,0.2,0.1,0.29c0.1,0,0.19,0.1,0.29,0.1
				s0.2-0.1,0.3-0.1c0.08-0.08,0.11-0.19,0.1-0.29L-9.98-201.28z M-14.93-202.47c-0.12-0.18-0.29-0.32-0.49-0.4
				c-0.19-0.08-0.39-0.12-0.59-0.1h-0.4c-0.05,0.06-0.12,0.09-0.2,0.1c-0.08,0.01-0.15,0.05-0.2,0.1c0-0.1-0.1-0.1-0.1-0.2h-0.19
				c-0.11-0.01-0.22,0.02-0.3,0.1c-0.1,0.1-0.2,0.2-0.2,0.29v4.45c0,0.1,0.1,0.2,0.2,0.29c0.05,0.05,0.12,0.09,0.2,0.1
				c0.1,0,0.2-0.1,0.29-0.1c0.08-0.08,0.11-0.19,0.1-0.29v-3.35c0-0.1,0.1-0.1,0.1-0.2c-0.01-0.11,0.02-0.22,0.1-0.3
				c0.05-0.05,0.12-0.09,0.2-0.1c0.1-0.1,0.2-0.1,0.4-0.1c0.11-0.02,0.22,0.02,0.3,0.1c0.1,0,0.1,0.1,0.2,0.1
				c0.1,0.1,0.2,0.2,0.29,0.2s0.2-0.1,0.3-0.1c0-0.1,0.1-0.2,0.1-0.3C-14.82-202.28-14.92-202.38-14.93-202.47 M-20.06-200.69h-1.88
				v-0.59c0.02-0.21,0.09-0.41,0.2-0.59c0.17-0.2,0.43-0.31,0.69-0.3h0.1c0.46,0.07,0.82,0.43,0.89,0.89L-20.06-200.69z
				 M-19.27-201.29c0.01-0.23-0.02-0.47-0.1-0.69c-0.07-0.2-0.21-0.38-0.4-0.49c-0.16-0.19-0.36-0.33-0.59-0.4
				c-0.19-0.08-0.39-0.12-0.59-0.1h-0.1c-0.23-0.02-0.47,0.01-0.69,0.1c-0.21,0.07-0.38,0.21-0.5,0.4c-0.19,0.15-0.33,0.36-0.4,0.59
				c-0.08,0.19-0.12,0.39-0.1,0.59v1.88c-0.02,0.2,0.02,0.41,0.1,0.59c0.1,0.22,0.23,0.42,0.4,0.59c0.15,0.12,0.32,0.22,0.5,0.3
				c0.21,0.12,0.45,0.19,0.69,0.2h0.1c0.32,0.01,0.64-0.1,0.89-0.29c0.27-0.15,0.48-0.4,0.59-0.69c0.06-0.05,0.09-0.12,0.1-0.2
				c0-0.1-0.1-0.2-0.1-0.3c-0.08-0.08-0.19-0.11-0.3-0.1h-0.2c-0.1,0.1-0.19,0.1-0.19,0.2c-0.07,0.15-0.18,0.29-0.3,0.4
				c-0.14,0.13-0.31,0.2-0.5,0.2h-0.1c-0.26,0.01-0.52-0.1-0.69-0.3c-0.11-0.18-0.18-0.38-0.2-0.59v-0.59h2.27
				c0.19,0.03,0.37-0.11,0.4-0.3c0-0.03,0-0.07,0-0.1L-19.27-201.29z M-24.31-198.42c-0.08-0.08-0.19-0.12-0.3-0.1
				c-0.2-0.1-0.29-0.1-0.39-0.2c-0.2-0.1-0.2-0.3-0.2-0.5v-2.96h0.59c0.11,0.01,0.22-0.02,0.3-0.1c0-0.1,0.1-0.2,0.1-0.3
				c-0.01-0.07-0.05-0.14-0.1-0.19c-0.1-0.1-0.2-0.2-0.3-0.2h-0.59v-1.77c0-0.2-0.1-0.3-0.2-0.3c0-0.1-0.1-0.1-0.2-0.1
				c-0.11-0.01-0.22,0.02-0.3,0.1c-0.1,0-0.1,0.1-0.1,0.3v1.78h-0.4c-0.1,0-0.2,0.1-0.29,0.2c-0.1,0-0.1,0.1-0.1,0.19
				c-0.03,0.19,0.1,0.37,0.29,0.4c0.04,0.01,0.07,0.01,0.11,0h0.4v3.06c-0.02,0.17,0.02,0.35,0.1,0.5c0,0.2,0.1,0.3,0.3,0.5
				c0.11,0.12,0.25,0.22,0.4,0.29c0.2,0,0.4,0.1,0.59,0.1c0.1,0,0.2-0.1,0.3-0.2c0.05-0.05,0.09-0.12,0.1-0.2
				C-24.2-198.21-24.3-198.31-24.31-198.42 M-28.26-201.28c-0.01-0.24-0.08-0.48-0.2-0.69c-0.08-0.21-0.18-0.41-0.3-0.59
				c-0.2-0.1-0.4-0.19-0.59-0.3c-0.19-0.08-0.39-0.12-0.59-0.1h-0.1c-0.2-0.02-0.41,0.02-0.59,0.1c-0.15,0.03-0.29,0.1-0.4,0.2
				c0-0.1,0-0.2-0.1-0.2c-0.08-0.08-0.19-0.11-0.29-0.1c-0.1,0-0.2,0-0.2,0.1c-0.1,0.1-0.2,0.2-0.2,0.3v4.45c0,0.1,0.1,0.2,0.2,0.29
				c0.05,0.05,0.12,0.09,0.2,0.1c0.1,0,0.2-0.1,0.29-0.1c0.08-0.08,0.11-0.19,0.1-0.29v-3.17c0-0.24,0.11-0.46,0.3-0.59
				c0.18-0.2,0.43-0.31,0.69-0.3c0.26-0.01,0.51,0.1,0.69,0.3c0.18,0.15,0.28,0.36,0.3,0.59v3.16c-0.01,0.11,0.02,0.22,0.1,0.29
				c0.1,0,0.2,0.1,0.3,0.1s0.2-0.1,0.3-0.1c0-0.1,0.1-0.2,0.1-0.29L-28.26-201.28z M-33.91-204.74c0-0.2-0.1-0.3-0.2-0.3
				c0-0.1-0.1-0.1-0.2-0.1c-0.11-0.01-0.22,0.02-0.29,0.1c-0.1,0-0.1,0.1-0.1,0.3v6.62c-0.01,0.11,0.02,0.22,0.1,0.29
				c0.1,0,0.2,0.1,0.29,0.1c0.08-0.01,0.15-0.05,0.2-0.1c0.1-0.1,0.2-0.2,0.2-0.29V-204.74z M-39.93-202.47
				c-0.14-0.16-0.31-0.3-0.5-0.4c-0.19-0.08-0.39-0.12-0.59-0.1h-0.4c-0.05,0.06-0.12,0.09-0.2,0.1c-0.08,0.01-0.15,0.05-0.2,0.1
				c-0.06-0.07-0.13-0.13-0.2-0.2h-0.2c-0.1,0-0.19,0-0.19,0.1c-0.1,0.1-0.2,0.2-0.2,0.29v4.45c0,0.1,0.1,0.2,0.1,0.29
				c0.1,0,0.2,0.1,0.29,0.1s0.2-0.1,0.3-0.1c0.08-0.08,0.11-0.19,0.1-0.29v-3.55c0.08-0.08,0.11-0.19,0.1-0.3c0.1,0,0.2-0.1,0.3-0.1
				c0.08-0.08,0.19-0.12,0.3-0.1c0.2,0,0.3,0,0.39,0.1l0.1,0.1c0.1,0.12,0.24,0.2,0.4,0.2c0.08-0.01,0.15-0.05,0.2-0.1
				c0.1-0.1,0.2-0.2,0.2-0.3C-39.83-202.28-39.93-202.38-39.93-202.47 M-44.48-202.57c0.01-0.11-0.02-0.22-0.1-0.29
				c-0.18-0.13-0.42-0.13-0.59,0c-0.08,0.08-0.11,0.19-0.1,0.29v3.16c-0.01,0.23-0.12,0.44-0.29,0.59c-0.13,0.19-0.36,0.31-0.59,0.3
				h-0.1c-0.26,0.01-0.52-0.1-0.69-0.3c-0.11-0.18-0.18-0.38-0.2-0.59v-3.16c0-0.1-0.1-0.19-0.2-0.29c0-0.1-0.1-0.1-0.2-0.1
				c-0.19-0.03-0.37,0.1-0.4,0.29c-0.01,0.03-0.01,0.07,0,0.1v3.16c-0.02,0.24,0.01,0.47,0.1,0.69c0.1,0.22,0.23,0.42,0.4,0.59
				c0.15,0.12,0.32,0.22,0.49,0.29c0.2,0,0.49,0.1,0.69,0.1h0.1c0.2,0,0.3-0.1,0.5-0.1c0.2-0.1,0.29-0.1,0.39-0.2
				c0,0.1,0.1,0.1,0.1,0.2c0.1,0,0.2,0.1,0.29,0.1s0.2-0.1,0.3-0.1c0.08-0.08,0.11-0.19,0.1-0.29L-44.48-202.57z M-46.85-204.74
				c0-0.2,0-0.3-0.1-0.3c-0.08-0.08-0.19-0.11-0.29-0.1c-0.1,0-0.2,0-0.2,0.1c-0.1,0-0.2,0.1-0.2,0.3v0.2c0,0.1,0.1,0.2,0.2,0.29
				c0,0.1,0.1,0.1,0.2,0.1c0.11,0.01,0.22-0.02,0.29-0.1c0.08-0.08,0.11-0.19,0.1-0.29V-204.74z M-44.88-204.74c0-0.2,0-0.3-0.1-0.3
				c-0.18-0.13-0.42-0.13-0.59,0c-0.1,0-0.1,0.1-0.1,0.3v0.2c-0.04,0.22,0.11,0.42,0.32,0.46c0.22,0.04,0.42-0.11,0.46-0.32
				c0.01-0.05,0.01-0.09,0-0.14L-44.88-204.74z M-49.52-205.04c-0.1-0.1-0.2-0.1-0.4-0.1c-0.17-0.01-0.34,0.02-0.49,0.1
				c-0.2,0-0.29,0.1-0.4,0.3c-0.2,0.1-0.3,0.2-0.3,0.4c-0.08,0.19-0.12,0.39-0.1,0.59v0.79h-0.3c-0.1,0-0.2,0.1-0.3,0.2
				c-0.05,0.05-0.09,0.12-0.1,0.19c0,0.1,0.1,0.2,0.1,0.3c0.08,0.08,0.19,0.11,0.3,0.1h0.3v4.05c-0.01,0.11,0.02,0.22,0.1,0.29
				c0.1,0,0.2,0.1,0.3,0.1s0.2-0.1,0.3-0.1c0-0.1,0.1-0.2,0.1-0.29v-4.07h0.49c0.19,0.03,0.37-0.1,0.4-0.29
				c0.01-0.04,0.01-0.08,0-0.11c0-0.1,0-0.19-0.1-0.19c-0.1-0.1-0.2-0.2-0.3-0.2h-0.49v-0.79c0-0.2,0-0.3,0.1-0.4
				c0.08-0.14,0.24-0.22,0.4-0.2c0.16,0,0.3-0.08,0.4-0.2c0.05-0.05,0.09-0.12,0.1-0.2c0-0.1-0.1-0.2-0.1-0.3"/>
			<path id="Path_213" class="st13" d="M48.43-209.98c-0.08-0.08-0.19-0.11-0.3-0.1c-0.16,0-0.3-0.08-0.4-0.2
				c-0.1-0.11-0.17-0.24-0.2-0.39v-2.96h0.59c0.1,0,0.2-0.1,0.3-0.2c0-0.1,0.1-0.2,0.1-0.29s-0.1-0.1-0.1-0.2
				c-0.1-0.1-0.2-0.2-0.3-0.2h-0.59v-1.77c0-0.2,0-0.3-0.1-0.3c-0.17-0.13-0.42-0.13-0.59,0c-0.1,0-0.1,0.1-0.1,0.3v1.78h-0.4
				c-0.1,0-0.2,0.1-0.3,0.2c-0.06,0.05-0.1,0.12-0.1,0.2c-0.01,0.11,0.02,0.22,0.1,0.29c0.1,0.1,0.2,0.2,0.3,0.2h0.4v2.97
				c-0.03,0.17,0.01,0.34,0.1,0.49c0.1,0.2,0.2,0.3,0.3,0.5c0.1,0.1,0.29,0.2,0.39,0.3c0.2,0,0.4,0.1,0.59,0.1
				c0.1,0,0.2-0.1,0.3-0.1c0.13-0.18,0.13-0.42,0-0.59 M44.97-216.6c-0.08-0.08-0.19-0.11-0.3-0.1c-0.2-0.02-0.41,0.02-0.59,0.1
				c-0.1,0.1-0.3,0.2-0.4,0.3s-0.2,0.29-0.3,0.4c-0.08,0.19-0.12,0.39-0.1,0.59v0.79h-0.2c-0.2,0-0.29,0.1-0.29,0.2
				c-0.06,0.05-0.1,0.12-0.1,0.2c-0.01,0.11,0.02,0.22,0.1,0.29c0,0.1,0.1,0.2,0.29,0.2h0.2v3.96c0,0.1,0.1,0.2,0.1,0.3
				c0.1,0,0.2,0.1,0.3,0.1s0.2-0.1,0.3-0.1c0.08-0.08,0.11-0.19,0.1-0.3v-3.97h0.49c0.2,0,0.3-0.1,0.3-0.2
				c0.08-0.08,0.11-0.19,0.1-0.29c0-0.08-0.04-0.15-0.1-0.2c0-0.1-0.1-0.2-0.3-0.2h-0.49v-0.78c0-0.16,0.07-0.3,0.19-0.4
				c0.1-0.2,0.2-0.2,0.4-0.2c0.1,0,0.2-0.1,0.3-0.1c0.08-0.08,0.11-0.19,0.1-0.29C45.08-216.42,45.05-216.53,44.97-216.6
				 M40.13-210.98c-0.02,0.23-0.12,0.44-0.3,0.59c-0.18,0.2-0.43,0.31-0.69,0.3h-0.1c-0.21-0.01-0.42-0.08-0.59-0.2
				c-0.18-0.15-0.28-0.36-0.3-0.59v-0.1c0-0.16,0.08-0.3,0.2-0.4c0.14-0.13,0.31-0.2,0.5-0.2c0.2-0.1,0.4-0.1,0.59-0.2
				c0.24,0.01,0.47-0.02,0.69-0.1L40.13-210.98z M41.41-209.99c-0.08-0.07-0.19-0.11-0.3-0.1c-0.1,0-0.2-0.2-0.2-0.4v-2.35
				c-0.01-0.24-0.08-0.48-0.2-0.69c0-0.2-0.2-0.4-0.3-0.49c-0.14-0.16-0.31-0.3-0.5-0.4c-0.3,0-0.49-0.1-0.69-0.1h-0.1
				c-0.14-0.02-0.28,0.02-0.4,0.1c-0.17-0.01-0.34,0.02-0.49,0.1c-0.11,0.12-0.25,0.23-0.4,0.3c-0.1,0.2-0.19,0.29-0.29,0.49v0.2
				c-0.01,0.11,0.02,0.22,0.1,0.3c0.1,0,0.19,0.1,0.29,0.1c0.08,0,0.15-0.04,0.2-0.1l0.1-0.1c0.1-0.2,0.3-0.4,0.4-0.4
				c0.14-0.13,0.31-0.2,0.5-0.2h0.1c0.21,0.02,0.41,0.09,0.59,0.2c0.21,0.16,0.33,0.42,0.3,0.69l-0.1,0.1v0.1
				c-0.08,0.07-0.19,0.11-0.3,0.1c-0.16,0.04-0.33,0.08-0.49,0.1c-0.2,0-0.4,0.1-0.59,0.1c-0.22,0.06-0.42,0.16-0.59,0.29
				c-0.18,0.11-0.35,0.24-0.49,0.4c-0.12,0.21-0.19,0.45-0.2,0.69v0.2c0.02,0.21,0.09,0.41,0.2,0.59c0.07,0.21,0.22,0.38,0.4,0.5
				c0.15,0.12,0.32,0.22,0.49,0.3c0.2,0,0.4,0.1,0.59,0.1h0.1c0.43-0.01,0.84-0.15,1.18-0.4c0.1,0.1,0.2,0.2,0.3,0.2
				c0.1,0.1,0.2,0.1,0.4,0.2h0.1c0.1,0,0.2-0.1,0.3-0.1c0.13-0.18,0.13-0.42,0-0.59 M35.79-212.83c-0.02-0.21-0.09-0.41-0.2-0.59
				c-0.1-0.2-0.2-0.4-0.3-0.59c-0.2-0.1-0.4-0.3-0.59-0.4c-0.2,0-0.39-0.1-0.69-0.1c-0.2-0.02-0.41,0.02-0.59,0.1
				c-0.1,0.1-0.3,0.1-0.4,0.2v-2.09c0-0.2,0-0.3-0.1-0.3c-0.08-0.08-0.19-0.12-0.3-0.1c-0.11-0.01-0.22,0.02-0.3,0.1
				c-0.07,0.08-0.11,0.19-0.1,0.3v6.62c0,0.1,0.1,0.2,0.1,0.3c0.1,0,0.2,0.1,0.3,0.1s0.2-0.1,0.3-0.1c0.08-0.08,0.11-0.19,0.1-0.3
				v-3.16c0-0.2,0.1-0.3,0.1-0.4c0.1-0.1,0.1-0.2,0.2-0.3c0.1,0,0.2-0.1,0.3-0.1c0.12-0.07,0.26-0.1,0.4-0.1
				c0.11-0.01,0.22,0.02,0.3,0.1c0.2,0,0.29,0.1,0.39,0.1c0,0.1,0.1,0.2,0.2,0.3c0,0.1,0.1,0.29,0.1,0.4v3.16
				c-0.01,0.11,0.02,0.22,0.1,0.3c0.1,0,0.2,0.1,0.3,0.1c0.08-0.01,0.15-0.05,0.2-0.1c0.1-0.1,0.2-0.2,0.2-0.3L35.79-212.83z
				 M30.44-211.36c-0.1,0-0.2-0.1-0.3-0.1s-0.2,0.1-0.3,0.1c-0.1,0.1-0.1,0.2-0.1,0.4c-0.02,0.23-0.12,0.44-0.3,0.59
				c-0.15,0.18-0.36,0.28-0.59,0.3h-0.1c-0.26,0.01-0.52-0.1-0.69-0.3c-0.11-0.18-0.18-0.38-0.2-0.59v-1.88
				c0.02-0.21,0.09-0.41,0.2-0.59c0.17-0.2,0.43-0.31,0.69-0.3h0.1c0.23,0.02,0.44,0.12,0.59,0.3c0.18,0.15,0.28,0.36,0.3,0.59
				c0,0.2,0,0.3,0.1,0.3c0.08,0.08,0.19,0.11,0.3,0.1c0.11,0.01,0.22-0.02,0.3-0.1c0.1,0,0.1-0.1,0.1-0.3
				c0.02-0.2-0.02-0.41-0.1-0.59c-0.1-0.22-0.23-0.42-0.4-0.59c-0.2-0.1-0.29-0.3-0.49-0.4c-0.3,0-0.49-0.1-0.69-0.1h-0.1
				c-0.3,0-0.5,0.1-0.69,0.1c-0.19,0.11-0.35,0.24-0.5,0.4c-0.19,0.15-0.33,0.36-0.4,0.59c-0.08,0.19-0.12,0.39-0.1,0.59v1.88
				c-0.02,0.2,0.02,0.41,0.1,0.59c0.07,0.23,0.21,0.44,0.4,0.59c0.13,0.16,0.3,0.26,0.5,0.3c0.21,0.12,0.45,0.19,0.69,0.2h0.1
				c0.24-0.03,0.47-0.1,0.69-0.2c0.2,0,0.4-0.2,0.49-0.3c0.17-0.17,0.3-0.37,0.4-0.59c0.08-0.19,0.12-0.39,0.1-0.59
				C30.54-211.17,30.54-211.27,30.44-211.36 M25.4-210.87c-0.01-0.28-0.07-0.55-0.2-0.79c-0.12-0.18-0.29-0.32-0.49-0.4
				c-0.22-0.12-0.46-0.21-0.69-0.29c-0.2,0-0.4-0.1-0.59-0.1l-0.59-0.3c-0.1,0-0.2-0.2-0.2-0.4c0-0.2,0.1-0.3,0.3-0.4
				c0.2-0.14,0.44-0.21,0.69-0.2c0.3,0,0.4,0.1,0.59,0.1c0.1,0.12,0.24,0.2,0.4,0.2c0,0.1,0.1,0.1,0.2,0.1s0.2-0.1,0.29-0.1
				c0-0.1,0.1-0.2,0.1-0.3s-0.1-0.2-0.19-0.29c0-0.1-0.1-0.1-0.2-0.2c-0.08-0.07-0.19-0.11-0.3-0.1c-0.1-0.1-0.2-0.1-0.4-0.1
				c-0.15-0.09-0.33-0.13-0.5-0.1c-0.2-0.02-0.41,0.02-0.59,0.1c-0.18,0-0.36,0.08-0.49,0.2c-0.19,0.11-0.35,0.24-0.5,0.4
				c-0.12,0.21-0.19,0.45-0.2,0.69c-0.01,0.25,0.06,0.49,0.2,0.69c0.2,0.2,0.3,0.39,0.5,0.49s0.49,0.1,0.69,0.2
				c0.24,0.01,0.48,0.08,0.69,0.2c0.37-0.01,0.68,0.28,0.69,0.66c0,0.01,0,0.02,0,0.03v0.1c-0.03,0.17-0.14,0.32-0.3,0.39
				c-0.16,0.21-0.42,0.33-0.69,0.3h-0.1c-0.21-0.02-0.41-0.09-0.59-0.2c-0.2-0.2-0.4-0.3-0.5-0.49c0-0.1-0.1-0.1-0.2-0.1
				c0-0.1-0.1-0.1-0.2-0.1c-0.11-0.01-0.22,0.02-0.29,0.1c0,0.1-0.1,0.2-0.1,0.29c0.01,0.08,0.04,0.15,0.1,0.2
				c0.1,0.2,0.2,0.3,0.29,0.49c0.15,0.12,0.32,0.22,0.5,0.3c0.13,0.13,0.31,0.2,0.49,0.2c0.15,0.08,0.32,0.11,0.49,0.1h0.1
				c0.2,0,0.4-0.1,0.59-0.1c0.22-0.06,0.42-0.16,0.59-0.3c0.2-0.1,0.29-0.3,0.49-0.5c0.1-0.1,0.1-0.4,0.1-0.59L25.4-210.87z
				 M20.16-209.98c0-0.1-0.1-0.1-0.3-0.1c-0.15-0.02-0.29-0.09-0.4-0.2c-0.11-0.11-0.17-0.24-0.2-0.39v-5.63c0-0.2,0-0.3-0.1-0.3
				c-0.08-0.08-0.19-0.11-0.3-0.1c-0.1,0-0.2,0-0.2,0.1c-0.1,0-0.2,0.1-0.2,0.3v5.63c0.02,0.17,0.06,0.33,0.1,0.49
				c0.1,0.2,0.19,0.3,0.29,0.5c0.2,0.1,0.3,0.2,0.49,0.3c0.2,0,0.3,0.1,0.5,0.1c0.11,0.01,0.22-0.03,0.3-0.1
				c0.13-0.18,0.13-0.42,0-0.59 M16.88-209.97c-0.08-0.08-0.19-0.11-0.3-0.1c-0.16,0-0.3-0.08-0.4-0.2
				c-0.14-0.08-0.22-0.23-0.2-0.39v-5.64c0.01-0.11-0.03-0.22-0.1-0.3c-0.08-0.08-0.19-0.11-0.3-0.1c-0.11-0.01-0.22,0.02-0.29,0.1
				c-0.1,0-0.1,0.1-0.1,0.3v5.63c-0.02,0.17,0.01,0.34,0.1,0.49c0,0.2,0.1,0.3,0.29,0.5c0.1,0.1,0.3,0.2,0.4,0.3
				c0.2,0,0.4,0.1,0.59,0.1c0.1,0,0.2-0.1,0.3-0.1c0-0.1,0.1-0.2,0.1-0.3C16.98-209.78,16.88-209.88,16.88-209.97 M12.53-212.25
				h-1.86v-0.59c0.01-0.23,0.12-0.44,0.29-0.59c0.15-0.18,0.36-0.28,0.59-0.3h0.1c0.26-0.01,0.52,0.1,0.69,0.3
				c0.11,0.18,0.18,0.38,0.2,0.59L12.53-212.25z M13.32-212.85c0.02-0.2-0.02-0.41-0.1-0.59c-0.07-0.23-0.21-0.44-0.4-0.59
				c-0.12-0.18-0.29-0.33-0.49-0.4c-0.2,0-0.4-0.1-0.69-0.1h-0.1c-0.2,0-0.4,0.1-0.69,0.1c-0.2,0.1-0.29,0.3-0.49,0.4
				c-0.17,0.17-0.3,0.37-0.4,0.59c-0.08,0.19-0.12,0.39-0.1,0.59v1.88c-0.02,0.2,0.02,0.41,0.1,0.59c0.07,0.23,0.21,0.44,0.4,0.59
				c0.2,0.1,0.3,0.3,0.49,0.3c0.22,0.1,0.45,0.17,0.69,0.2h0.1c0.35,0.01,0.7-0.1,0.99-0.3c0.27-0.15,0.48-0.4,0.59-0.69v-0.2
				c0.01-0.11-0.02-0.22-0.1-0.29c-0.08-0.08-0.19-0.11-0.3-0.1h-0.2c-0.06,0.05-0.1,0.12-0.1,0.2c-0.08,0.18-0.22,0.32-0.39,0.39
				c-0.14,0.13-0.31,0.2-0.5,0.2h-0.1c-0.23-0.02-0.44-0.12-0.59-0.3c-0.17-0.15-0.28-0.36-0.29-0.59v-0.6h2.27c0.2,0,0.3,0,0.3-0.1
				c0.08-0.08,0.11-0.19,0.1-0.3L13.32-212.85z M8.3-210.87c-0.01-0.28-0.08-0.55-0.2-0.79c-0.17-0.17-0.37-0.3-0.59-0.4l-0.59-0.29
				c-0.3,0-0.5-0.1-0.69-0.1c-0.18-0.08-0.34-0.18-0.49-0.3c-0.2,0-0.2-0.2-0.2-0.4c0-0.16,0.08-0.3,0.2-0.4
				c0.21-0.13,0.45-0.19,0.69-0.2h0.1c0.17,0.02,0.33,0.06,0.49,0.1c0.2,0.1,0.3,0.2,0.4,0.2c0.05,0.06,0.12,0.09,0.19,0.1
				c0.1,0,0.2-0.1,0.3-0.1c0.08-0.08,0.11-0.19,0.1-0.3c0.01-0.11-0.02-0.22-0.1-0.29c-0.07-0.07-0.13-0.13-0.2-0.2
				c-0.1,0-0.19-0.1-0.29-0.1c-0.12-0.08-0.26-0.11-0.4-0.1c-0.15-0.07-0.32-0.11-0.49-0.1h-0.1c-0.17-0.01-0.34,0.03-0.49,0.1
				c-0.21,0.02-0.41,0.09-0.59,0.2c-0.2,0.1-0.3,0.3-0.5,0.4c-0.09,0.22-0.12,0.46-0.1,0.69c0,0.3,0,0.59,0.2,0.69
				c0.11,0.21,0.29,0.38,0.5,0.49c0.23,0.08,0.46,0.15,0.69,0.2c0.21,0.02,0.41,0.09,0.59,0.2c0.19,0,0.36,0.07,0.5,0.2
				c0.2,0.1,0.2,0.3,0.2,0.49v0.1c-0.02,0.15-0.09,0.29-0.2,0.4c-0.22,0.2-0.5,0.31-0.79,0.3c-0.21-0.02-0.41-0.09-0.59-0.2
				c-0.2-0.2-0.4-0.3-0.59-0.49c0-0.06-0.04-0.1-0.1-0.1c-0.05-0.06-0.12-0.09-0.2-0.1c-0.11-0.01-0.22,0.02-0.3,0.1
				c-0.08,0.08-0.11,0.19-0.1,0.3v0.2c0.1,0.2,0.2,0.3,0.3,0.49c0.2,0.1,0.3,0.2,0.5,0.3c0.2,0.1,0.3,0.2,0.49,0.2
				c0.15,0.07,0.32,0.11,0.49,0.1h0.1c0.2,0,0.5-0.1,0.69-0.1l0.59-0.3c0.18-0.12,0.33-0.29,0.4-0.5c0.12-0.17,0.19-0.38,0.2-0.59
				L8.3-210.87z M2.17-212.25H0.29v-0.59c0.02-0.23,0.12-0.44,0.3-0.59c0.14-0.19,0.36-0.31,0.59-0.3h0.1
				c0.24-0.03,0.47,0.09,0.59,0.3c0.18,0.15,0.28,0.36,0.3,0.59L2.17-212.25z M2.96-212.85c0.02-0.2-0.02-0.41-0.1-0.59
				c-0.07-0.23-0.21-0.44-0.4-0.59c-0.12-0.18-0.29-0.33-0.49-0.4c-0.2,0-0.5-0.1-0.69-0.1h-0.1c-0.2,0-0.49,0.1-0.69,0.1
				c-0.19,0.11-0.35,0.24-0.5,0.4c-0.17,0.17-0.3,0.37-0.39,0.59c-0.08,0.19-0.12,0.39-0.1,0.59v1.88c-0.02,0.2,0.02,0.41,0.1,0.59
				c0.07,0.23,0.21,0.44,0.39,0.59c0.1,0.1,0.3,0.3,0.5,0.3c0.22,0.11,0.45,0.18,0.69,0.2h0.1c0.35,0.01,0.7-0.1,0.99-0.3
				c0.22-0.21,0.42-0.44,0.59-0.69v-0.2c0.03-0.19-0.11-0.37-0.3-0.39c-0.03,0-0.07,0-0.1,0h-0.2l-0.2,0.2c0,0.19-0.1,0.29-0.3,0.39
				c-0.13,0.12-0.31,0.2-0.49,0.2h-0.1c-0.24,0-0.46-0.11-0.59-0.3c-0.18-0.15-0.28-0.36-0.3-0.59v-0.6h2.28
				c0.11,0.01,0.22-0.02,0.29-0.1c0.08-0.08,0.11-0.19,0.1-0.3L2.96-212.85z M-2.37-212.95c0.03-0.19-0.1-0.37-0.29-0.4
				c-0.04-0.01-0.07-0.01-0.11,0h-1.48c-0.2,0-0.3,0-0.3,0.1c-0.08,0.08-0.11,0.19-0.1,0.3c-0.02,0.11,0.02,0.22,0.1,0.3
				c0,0.1,0.1,0.1,0.3,0.1h1.08v1.28c0.01,0.14-0.02,0.28-0.1,0.4c-0.08,0.15-0.18,0.28-0.3,0.39c-0.11,0.12-0.24,0.23-0.39,0.3
				c-0.1,0-0.3,0.1-0.4,0.1h-0.1c-0.17-0.02-0.34-0.06-0.5-0.1c-0.15-0.07-0.28-0.18-0.39-0.3c-0.12-0.11-0.23-0.24-0.3-0.39
				c0-0.1-0.1-0.3-0.1-0.4v-3.46c0-0.2,0.1-0.3,0.1-0.5c0.12-0.11,0.22-0.24,0.3-0.39c0.09-0.12,0.24-0.2,0.39-0.2
				c0.15-0.09,0.33-0.13,0.5-0.1h0.1c0.29-0.01,0.58,0.1,0.79,0.3c0.19,0.19,0.33,0.43,0.4,0.69c0,0.2,0.1,0.2,0.1,0.3
				c0.08,0.08,0.19,0.11,0.3,0.1c0.1,0,0.2-0.1,0.3-0.1c0.08-0.08,0.11-0.19,0.1-0.3v-0.1c-0.02-0.24-0.09-0.48-0.2-0.69
				c-0.11-0.21-0.29-0.38-0.5-0.49c-0.17-0.17-0.37-0.3-0.59-0.4c-0.22-0.08-0.46-0.12-0.69-0.1h-0.1c-0.27-0.02-0.54,0.01-0.79,0.1
				c-0.27,0.11-0.5,0.28-0.69,0.49c-0.2,0.1-0.3,0.4-0.4,0.59c-0.11,0.25-0.18,0.52-0.2,0.79v3.47c0.03,0.27,0.1,0.54,0.2,0.79
				c0.1,0.22,0.23,0.42,0.4,0.59c0.19,0.19,0.43,0.33,0.69,0.4c0.25,0.12,0.52,0.19,0.79,0.2h0.1c0.27-0.03,0.54-0.1,0.79-0.2
				c0.22-0.1,0.42-0.23,0.59-0.4c0.17-0.17,0.3-0.37,0.4-0.59c0.1-0.25,0.17-0.52,0.2-0.79L-2.37-212.95z M-12.56-212.25h-1.88
				v-0.59c0.02-0.23,0.12-0.44,0.3-0.59c0.15-0.18,0.36-0.28,0.59-0.3h0.1c0.26-0.01,0.52,0.1,0.69,0.3
				c0.11,0.18,0.18,0.38,0.2,0.59L-12.56-212.25z M-11.76-212.85c0.02-0.2-0.02-0.41-0.1-0.59c-0.07-0.23-0.21-0.44-0.4-0.59
				c-0.12-0.19-0.29-0.33-0.5-0.4c-0.2,0-0.39-0.1-0.69-0.1h-0.1c-0.2,0-0.4,0.1-0.69,0.1c-0.18,0.11-0.35,0.24-0.49,0.4
				c-0.17,0.17-0.3,0.37-0.4,0.59c-0.08,0.19-0.12,0.39-0.1,0.59v1.88c-0.01,0.2,0.02,0.41,0.1,0.59c0.07,0.23,0.21,0.44,0.4,0.59
				c0.1,0.1,0.29,0.3,0.49,0.3c0.22,0.1,0.45,0.17,0.69,0.2h0.1c0.35,0.01,0.7-0.1,0.99-0.3c0.2-0.2,0.5-0.4,0.59-0.69v-0.2
				c0.01-0.11-0.02-0.22-0.1-0.29c-0.08-0.08-0.19-0.11-0.3-0.1h-0.2c-0.06,0.05-0.1,0.12-0.1,0.2c-0.08,0.18-0.22,0.32-0.4,0.39
				c-0.13,0.12-0.31,0.2-0.49,0.2h-0.1c-0.24,0-0.46-0.11-0.59-0.3c-0.18-0.15-0.28-0.36-0.3-0.59v-0.6h2.28
				c0.19,0.03,0.37-0.1,0.4-0.29c0.01-0.04,0.01-0.08,0-0.11L-11.76-212.85z M-17-212.85c0.02-0.2-0.02-0.41-0.1-0.59
				c-0.1-0.22-0.23-0.42-0.4-0.59c-0.14-0.16-0.31-0.29-0.49-0.4c-0.2,0-0.4-0.1-0.69-0.1h-0.1c-0.17-0.02-0.34,0.02-0.49,0.1
				c-0.2,0.1-0.29,0.1-0.4,0.2v-2.07c0-0.2,0-0.3-0.1-0.3c-0.18-0.13-0.42-0.13-0.59,0c-0.1,0-0.1,0.1-0.1,0.3v6.62
				c-0.01,0.11,0.02,0.22,0.1,0.3c0.1,0,0.2,0.1,0.3,0.1s0.2-0.1,0.3-0.1c0.08-0.08,0.11-0.19,0.1-0.3v-3.16c0-0.2,0-0.3,0.1-0.4
				c0-0.1,0.1-0.2,0.19-0.3c0.1,0,0.2-0.1,0.3-0.1c0.12-0.08,0.26-0.11,0.4-0.1c0.11-0.01,0.22,0.02,0.3,0.1c0.1,0,0.2,0.1,0.3,0.1
				c0.1,0.1,0.2,0.2,0.2,0.3c0.08,0.12,0.11,0.26,0.1,0.4v3.16c0,0.1,0.1,0.2,0.2,0.3c0.05,0.05,0.12,0.09,0.2,0.1
				c0.1,0,0.2-0.1,0.3-0.1c0.08-0.08,0.11-0.19,0.1-0.3L-17-212.85z M-22.44-211.36c-0.05-0.05-0.12-0.09-0.19-0.1
				c-0.1,0-0.2,0.1-0.3,0.1c-0.1,0.1-0.1,0.2-0.1,0.4c-0.1,0.2-0.1,0.39-0.3,0.59c-0.15,0.18-0.36,0.28-0.59,0.3h-0.1
				c-0.26,0.01-0.51-0.1-0.69-0.3c-0.18-0.15-0.28-0.36-0.3-0.59v-1.88c0.02-0.23,0.12-0.45,0.3-0.59c0.15-0.18,0.36-0.28,0.59-0.3
				h0.2c0.23,0.02,0.44,0.12,0.59,0.3c0.2,0.2,0.2,0.4,0.3,0.59c0,0.2,0,0.3,0.1,0.3c0.08,0.08,0.19,0.11,0.3,0.1
				c0.1,0,0.19,0,0.19-0.1c0.1,0,0.2-0.1,0.2-0.3c-0.02-0.21-0.09-0.41-0.2-0.59c-0.1-0.2-0.19-0.4-0.29-0.59
				c-0.2-0.1-0.4-0.3-0.59-0.4c-0.2,0-0.4-0.1-0.59-0.1h-0.2c-0.2,0-0.39,0.1-0.59,0.1c-0.2,0.1-0.4,0.3-0.59,0.4
				c-0.12,0.19-0.22,0.38-0.3,0.59c-0.11,0.18-0.18,0.38-0.2,0.59v1.88c0.02,0.21,0.09,0.41,0.2,0.59c0,0.3,0.2,0.4,0.3,0.59
				c0.2,0.1,0.4,0.3,0.59,0.3c0.18,0.11,0.38,0.18,0.59,0.2h0.2c0.21-0.02,0.41-0.09,0.59-0.2c0.2,0,0.4-0.2,0.59-0.3
				c0.1-0.2,0.2-0.4,0.29-0.59c0.11-0.18,0.18-0.38,0.2-0.59C-22.24-211.12-22.31-211.27-22.44-211.36 M-27.38-210.87
				c-0.01-0.28-0.08-0.55-0.2-0.79c-0.14-0.16-0.31-0.3-0.5-0.4c-0.2-0.1-0.49-0.2-0.69-0.29c-0.29,0-0.49-0.1-0.69-0.1
				c-0.18-0.08-0.35-0.18-0.5-0.3c-0.1,0-0.2-0.2-0.2-0.4c0-0.16,0.08-0.3,0.2-0.4c0.21-0.13,0.45-0.19,0.69-0.2h0.1
				c0.17,0.02,0.33,0.06,0.49,0.1c0.2,0.1,0.3,0.2,0.4,0.2c0.08,0.08,0.19,0.11,0.3,0.1c0.08-0.01,0.15-0.05,0.2-0.1
				c0.08-0.08,0.11-0.19,0.1-0.3c0.01-0.11-0.02-0.22-0.1-0.29c-0.07-0.07-0.13-0.13-0.2-0.2c-0.1,0-0.2-0.1-0.3-0.1
				c-0.12-0.08-0.26-0.12-0.4-0.1c-0.15-0.08-0.32-0.12-0.49-0.1h-0.1c-0.17-0.01-0.34,0.03-0.49,0.1c-0.21,0.02-0.41,0.09-0.59,0.2
				c-0.2,0.1-0.29,0.3-0.4,0.4c-0.17,0.19-0.24,0.44-0.2,0.69c-0.01,0.25,0.06,0.49,0.2,0.69c0.11,0.21,0.28,0.38,0.49,0.49
				c0.23,0.08,0.46,0.15,0.69,0.2c0.21,0.02,0.41,0.09,0.59,0.2c0.21,0.02,0.41,0.09,0.59,0.2c0.13,0.13,0.2,0.31,0.2,0.49v0.1
				c-0.03,0.18-0.14,0.33-0.3,0.4c-0.2,0.21-0.5,0.33-0.79,0.3c-0.21-0.02-0.41-0.09-0.59-0.2c-0.2-0.2-0.4-0.3-0.49-0.49
				c-0.05-0.06-0.12-0.1-0.2-0.1c-0.05-0.06-0.12-0.1-0.2-0.1c-0.19-0.03-0.37,0.1-0.4,0.29c-0.01,0.03-0.01,0.07,0,0.1v0.2
				c0.1,0.19,0.24,0.35,0.4,0.49c0.1,0.1,0.29,0.2,0.4,0.3c0.15,0.09,0.32,0.16,0.49,0.2c0.19,0.08,0.39,0.11,0.59,0.1
				c0.3,0,0.49-0.1,0.69-0.1l0.59-0.3c0.19-0.12,0.33-0.29,0.4-0.5c0.12-0.17,0.19-0.38,0.2-0.59L-27.38-210.87z M-32.62-209.98
				c-0.08-0.07-0.19-0.11-0.3-0.1c-0.31-0.05-0.55-0.29-0.59-0.59v-2.96h0.59c0.1,0,0.2-0.1,0.3-0.2c0.08-0.08,0.11-0.19,0.1-0.29
				c0-0.08-0.04-0.15-0.1-0.2c-0.1-0.1-0.2-0.2-0.3-0.2h-0.59v-1.77c0-0.2,0-0.3-0.1-0.3c-0.08-0.08-0.19-0.11-0.29-0.1
				c-0.11-0.01-0.22,0.02-0.3,0.1c-0.1,0-0.1,0.1-0.1,0.3v1.78h-0.4c-0.1,0-0.2,0.1-0.3,0.2c-0.06,0.05-0.1,0.12-0.1,0.2
				c-0.01,0.11,0.02,0.22,0.1,0.29c0.1,0.1,0.2,0.2,0.3,0.2h0.4v2.97c-0.02,0.17,0.01,0.34,0.1,0.49c0.1,0.2,0.2,0.3,0.3,0.5
				c0.1,0.1,0.29,0.2,0.39,0.3c0.2,0,0.4,0.1,0.59,0.1c0.1,0,0.2-0.1,0.3-0.1c0.13-0.18,0.13-0.42,0-0.59 M-36.67-214.13
				c0-0.1-0.1-0.2-0.2-0.3c-0.05-0.06-0.12-0.1-0.2-0.1c-0.11-0.01-0.22,0.02-0.3,0.1c-0.1,0.1-0.2,0.2-0.2,0.3v3.16
				c0.03,0.22-0.05,0.43-0.2,0.59c-0.18,0.2-0.43,0.31-0.69,0.3h-0.1c-0.23-0.02-0.44-0.12-0.59-0.3c-0.18-0.15-0.28-0.36-0.3-0.59
				v-3.16c0.03-0.19-0.1-0.37-0.29-0.4c-0.04-0.01-0.07-0.01-0.11,0c-0.11-0.01-0.22,0.02-0.29,0.1c0,0.1-0.1,0.2-0.1,0.3v3.16
				c0,0.3,0.1,0.49,0.1,0.69c0.1,0.3,0.29,0.4,0.39,0.59c0.2,0.1,0.4,0.2,0.59,0.3c0.2,0,0.4,0.1,0.59,0.1h0.1
				c0.2,0.02,0.41-0.02,0.59-0.1c0.1-0.1,0.2-0.1,0.3-0.2c0.1,0.1,0.1,0.2,0.2,0.2c0.08,0.08,0.19,0.11,0.3,0.1
				c0.1,0,0.1-0.1,0.2-0.1c0.1-0.1,0.2-0.2,0.2-0.3L-36.67-214.13z M-42.7-212.25h-1.88v-0.59c0.02-0.21,0.09-0.41,0.2-0.59
				c0.18-0.2,0.43-0.31,0.69-0.3h0.1c0.23,0.02,0.44,0.12,0.59,0.3c0.18,0.15,0.28,0.36,0.3,0.59L-42.7-212.25z M-41.91-212.85
				c0.02-0.2-0.02-0.41-0.1-0.59c-0.07-0.23-0.21-0.44-0.4-0.59c-0.15-0.19-0.36-0.33-0.59-0.4c-0.2,0-0.4-0.1-0.59-0.1h-0.1
				c-0.3,0-0.49,0.1-0.69,0.1c-0.18,0.11-0.35,0.24-0.49,0.4c-0.17,0.17-0.3,0.37-0.4,0.59c-0.08,0.19-0.12,0.39-0.1,0.59v1.88
				c-0.02,0.2,0.02,0.41,0.1,0.59c0.07,0.23,0.21,0.44,0.4,0.59c0.1,0.1,0.29,0.3,0.49,0.3c0.21,0.12,0.45,0.19,0.69,0.2h0.1
				c0.32,0.01,0.64-0.1,0.89-0.3c0.27-0.15,0.48-0.4,0.59-0.69c0.06-0.05,0.1-0.12,0.1-0.2c0-0.1-0.1-0.19-0.1-0.29
				c-0.08-0.08-0.19-0.11-0.3-0.1h-0.2c-0.1,0.1-0.2,0.1-0.2,0.2c-0.07,0.15-0.18,0.28-0.3,0.39c-0.13,0.12-0.31,0.2-0.49,0.2h-0.1
				c-0.26,0.01-0.52-0.1-0.69-0.3c-0.11-0.18-0.18-0.38-0.2-0.59v-0.6h2.28c0.19,0.03,0.37-0.1,0.4-0.29c0.01-0.04,0.01-0.08,0-0.11
				L-41.91-212.85z M-48.04-211.36c0,0.2-0.1,0.3-0.1,0.49c-0.12,0.11-0.22,0.25-0.3,0.39c-0.1,0.12-0.24,0.2-0.4,0.2
				c-0.15,0.09-0.33,0.13-0.5,0.1h-1.28v-5.64h1.78c0.15,0.07,0.29,0.18,0.4,0.3c0.12,0.11,0.22,0.24,0.3,0.39
				c0.04,0.16,0.08,0.33,0.1,0.5L-48.04-211.36z M-47.24-214.63c-0.01-0.28-0.08-0.55-0.2-0.79c-0.07-0.26-0.21-0.5-0.4-0.69
				c-0.22-0.15-0.45-0.29-0.69-0.4c-0.25-0.12-0.52-0.19-0.79-0.2H-51c-0.1,0-0.2,0.1-0.29,0.2c-0.1,0-0.1,0.1-0.1,0.2v6.53
				c-0.01,0.11,0.02,0.22,0.1,0.3c0.08,0.08,0.19,0.11,0.29,0.1h1.68c0.27,0.02,0.54-0.01,0.79-0.1c0.27-0.11,0.5-0.28,0.69-0.5
				c0.2-0.1,0.3-0.4,0.4-0.59c0.11-0.25,0.18-0.52,0.2-0.79L-47.24-214.63z"/>
			<path id="Path_214" class="st13" d="M-111.29-188.14c-0.14,0.16-0.31,0.29-0.49,0.4l-0.1,0.1l-0.1,0.1l-0.1,0.1h-0.1
				c0,0.06-0.04,0.1-0.1,0.1c-0.1,0-0.1,0.1-0.2,0.1l-0.1,0.1h-0.1c-0.05,0.06-0.12,0.1-0.2,0.1l-0.1,0.1h-0.2
				c0,0.06-0.04,0.1-0.1,0.1c-0.08,0-0.15,0.04-0.2,0.1h-0.1c-0.1,0-0.1,0.1-0.2,0.1h-0.2c-0.05,0.06-0.12,0.1-0.2,0.1h-0.3
				c-0.55,0.12-1.11,0.19-1.68,0.2h-0.49c-2.71,0-5.33-1.02-7.32-2.86c-1.85-1.84-2.91-4.33-2.93-6.94v-10.97
				c0.04-2.61,1.1-5.09,2.96-6.92c2.01-1.8,4.61-2.82,7.32-2.87h0.59c0.5,0.1,1.09,0.1,1.48,0.2h0.5c0,0.06,0.04,0.1,0.1,0.1l0,0
				h0.2l0.1,0.1h0.2l0.1,0.1h0.2l0.1,0.1h0.19c0,0.06,0.04,0.1,0.1,0.1l0,0c0.1,0,0.1,0.1,0.2,0.1l0.1,0.1h0.2v0.1h0.1v0.1h0.1
				l0.1,0.1h0.1v0.1h0.1l0.1,0.1l0.1,0.1l0.1,0.1l0.1,0.1h0.49l0.1-0.1l0.1-0.1c0-0.06,0.04-0.1,0.1-0.1l0,0v-0.2
				c0-0.39,0-0.89,0.4-0.99c0.2-0.1,0.49,0,0.79,0h3.66c0.4,0,0.99-0.1,1.08,0.3c0.08,0.49,0.12,0.99,0.1,1.48v23.21
				c0,2.08,0,4.15-0.2,6.23c-0.69,5.73-3.56,10.58-9.59,11.66c-3.67,0.54-7.4-0.54-10.22-2.96c-0.3-0.3-1.09-0.79-0.99-1.28
				c0-0.2,0.1-0.3,0.2-0.5c0,0,2.37-2.47,2.47-2.67c0.2-0.2,0.39-0.5,0.69-0.5c0.4,0,0.79,0.4,1.48,0.79
				c1.11,0.74,2.35,1.24,3.66,1.49c0.84,0.1,1.68-0.01,2.47-0.3c3.07-0.99,3.96-4.84,4.15-7.9v-0.2h-0.1v-0.2h-0.1
				c0.01-0.05-0.02-0.09-0.07-0.1c-0.01,0-0.02,0-0.03,0h-0.1l-0.1-0.1h-0.2v0.1L-111.29-188.14 M-110.61-196.05v-10.96
				c0-1.24-0.59-2.41-1.58-3.16c-0.9-0.86-2.11-1.33-3.36-1.28h-0.59c-1.3,0.01-2.54,0.55-3.45,1.48c-1,0.79-1.58,1.99-1.58,3.26
				v10.18c0,1.27,0.58,2.47,1.58,3.26c0.88,0.98,2.14,1.52,3.46,1.48h0.59c1.23,0.03,2.43-0.39,3.36-1.19
				C-111.22-193.72-110.65-194.84-110.61-196.05"/>
			<path id="Path_215" class="st13" d="M-63.06-187.05v-4.05c0-0.18-0.08-0.36-0.2-0.49c-0.13-0.14-0.33-0.18-0.5-0.1h-10.96
				c-0.29-0.1-0.49-0.1-0.59-0.2c-0.12-0.1-0.2-0.24-0.2-0.4c0.04-0.17,0.11-0.34,0.2-0.49l12.06-22.72
				c-0.01-0.11,0.02-0.22,0.1-0.3v-0.2c0-0.4-0.2-0.49-0.69-0.49h-19.87c-0.4-0.1-0.59,0.2-0.59,0.59v4.05
				c0,0.39,0.2,0.69,0.59,0.69h10.38c0.2-0.02,0.41,0.02,0.59,0.1c0.1,0.1,0.1,0.2,0.1,0.4v0.2c0,0.1-0.1,0.2-0.1,0.3l-12.16,22.72
				c-0.08,0.08-0.11,0.19-0.1,0.3c-0.06,0.05-0.09,0.12-0.1,0.2c0,0.4,0.3,0.5,0.79,0.59h20.56c0.19,0.02,0.38-0.06,0.5-0.2
				C-63.13-186.69-63.06-186.87-63.06-187.05"/>
			<path id="Path_216" class="st13" d="M-97.26-220.46c0,0.3,0,0.4,0.2,0.5c0.1,0.2,0.3,0.2,0.59,0.3h4.15c0.3-0.1,0.5-0.1,0.6-0.3
				c0.14-0.13,0.21-0.31,0.19-0.5v-4.74c-0.01-0.21-0.08-0.42-0.2-0.59c-0.17-0.14-0.38-0.21-0.6-0.2h-0.4
				c-0.25,0.03-0.49,0.13-0.69,0.3l-3.45,3.95l-0.2,0.2c-0.18,0.15-0.28,0.36-0.3,0.59v0.4L-97.26-220.46z"/>
			<path id="Path_217" class="st13" d="M-91.52-215.91c0-0.19-0.07-0.36-0.2-0.5c-0.16-0.14-0.38-0.21-0.59-0.2h-4.35
				c-0.18,0-0.36,0.08-0.49,0.2c-0.1,0.2-0.2,0.3-0.2,0.5v28.76c-0.01,0.22,0.06,0.43,0.2,0.59c0.13,0.12,0.31,0.2,0.49,0.2h4.35
				c0.29-0.1,0.49-0.1,0.59-0.29c0.13-0.14,0.2-0.31,0.2-0.5V-215.91z"/>
		</g>
	</g>
</g>
</svg>
