<?xml version="1.0" encoding="utf-8"?>
<!-- Generator: Adobe Illustrator 25.0.0, SVG Export Plug-In . SVG Version: 6.00 Build 0)  -->
<svg version="1.1" id="Layer_1" xmlns="http://www.w3.org/2000/svg" xmlns:xlink="http://www.w3.org/1999/xlink" x="0px" y="0px"
	 viewBox="0 0 685.61 685.61" style="enable-background:new 0 0 685.61 685.61;" xml:space="preserve">
<style type="text/css">
	.st0{fill:#DC4351;}
	.st1{fill:#69BFC3;}
	.st2{fill:#151516;}
	.st3{enable-background:new    ;}
	.st4{fill:#FFFFFF;}
	.st5{fill:#F4C75C;}
	.st6{fill:#171717;}
</style>
<g id="Rectangle_10">
	<rect x="24.76" y="11.39" class="st0" width="281" height="59"/>
</g>
<g id="Rectangle_11">
	<rect x="24.76" y="443.39" class="st1" width="634" height="49"/>
</g>
<g id="Rectangle_12">
	<rect x="24.76" y="545.39" class="st2" width="242" height="61"/>
</g>
<g id="Rectangle_13">
	<rect x="24.76" y="613.39" class="st2" width="351" height="60"/>
</g>
<g class="st3">
	<path class="st4" d="M61.12,27.39v28H53.2V33.51H48v-6.12H61.12z"/>
</g>
<g class="st3">
	<path class="st4" d="M67.48,41.9c-1.24-0.33-2.25-0.76-3.03-1.31l1.52-3.41c0.73,0.48,1.58,0.87,2.54,1.17
		c0.96,0.3,1.91,0.44,2.85,0.44c1.77,0,2.66-0.44,2.66-1.33c0-0.47-0.25-0.81-0.76-1.04c-0.51-0.23-1.32-0.46-2.44-0.71
		c-1.23-0.26-2.26-0.55-3.08-0.85c-0.82-0.3-1.53-0.79-2.12-1.46s-0.89-1.57-0.89-2.71c0-1,0.27-1.89,0.82-2.7
		c0.54-0.8,1.36-1.43,2.44-1.9s2.41-0.7,3.98-0.7c1.07,0,2.13,0.12,3.17,0.36c1.04,0.24,1.96,0.6,2.75,1.06l-1.42,3.43
		c-1.56-0.84-3.06-1.26-4.53-1.26c-0.92,0-1.59,0.14-2.01,0.41c-0.42,0.27-0.63,0.63-0.63,1.06s0.25,0.76,0.75,0.98
		c0.5,0.22,1.3,0.44,2.4,0.68c1.25,0.26,2.28,0.55,3.09,0.85s1.52,0.79,2.12,1.45c0.6,0.66,0.9,1.56,0.9,2.7
		c0,0.98-0.27,1.87-0.82,2.66c-0.54,0.79-1.36,1.43-2.45,1.9c-1.09,0.47-2.41,0.71-3.97,0.71C70.01,42.38,68.72,42.22,67.48,41.9z"
		/>
	<path class="st4" d="M83.93,29.39h-5.02v-3.66h14.63v3.66h-4.99v12.67h-4.62V29.39z"/>
</g>
<g class="st3">
	<path class="st4" d="M130.55,49.27v6.12h-22.48v-28h21.96v6.12h-14.12v4.72h12.44v5.92h-12.44v5.12H130.55z"/>
	<path class="st4" d="M134.95,27.39h13.24c3.07,0,5.79,0.57,8.16,1.72c2.37,1.15,4.21,2.77,5.52,4.88c1.31,2.11,1.96,4.57,1.96,7.4
		c0,2.83-0.65,5.29-1.96,7.4s-3.15,3.73-5.52,4.88c-2.37,1.15-5.09,1.72-8.16,1.72h-13.24V27.39z M147.87,49.07
		c2.4,0,4.33-0.68,5.78-2.04c1.45-1.36,2.18-3.24,2.18-5.64s-0.73-4.28-2.18-5.64c-1.45-1.36-3.38-2.04-5.78-2.04h-5v15.36H147.87z"
		/>
	<path class="st4" d="M167.99,27.39h7.92v28h-7.92V27.39z"/>
	<path class="st4" d="M187.51,33.67h-8.6v-6.28h25.08v6.28h-8.56v21.72h-7.92V33.67z"/>
	<path class="st4" d="M206.95,27.39h7.92v28h-7.92V27.39z"/>
	<path class="st4" d="M226.65,54.07c-2.36-1.25-4.21-2.99-5.56-5.2c-1.35-2.21-2.02-4.71-2.02-7.48s0.67-5.27,2.02-7.48
		c1.35-2.21,3.2-3.95,5.56-5.2c2.36-1.25,5.02-1.88,7.98-1.88s5.62,0.63,7.98,1.88c2.36,1.25,4.21,2.99,5.56,5.2
		c1.35,2.21,2.02,4.71,2.02,7.48s-0.67,5.27-2.02,7.48c-1.35,2.21-3.2,3.95-5.56,5.2c-2.36,1.25-5.02,1.88-7.98,1.88
		S229.01,55.32,226.65,54.07z M238.47,48.39c1.15-0.67,2.05-1.61,2.72-2.82c0.67-1.21,1-2.61,1-4.18c0-1.57-0.33-2.97-1-4.18
		c-0.67-1.21-1.57-2.15-2.72-2.82c-1.15-0.67-2.43-1-3.84-1s-2.69,0.33-3.84,1c-1.15,0.67-2.05,1.61-2.72,2.82
		c-0.67,1.21-1,2.61-1,4.18c0,1.57,0.33,2.97,1,4.18c0.67,1.21,1.57,2.15,2.72,2.82c1.15,0.67,2.43,1,3.84,1
		S237.32,49.06,238.47,48.39z"/>
	<path class="st4" d="M280.99,27.39v28h-6.52l-12.36-14.92v14.92h-7.76v-28h6.52l12.36,14.92V27.39H280.99z"/>
</g>
<g class="st3">
	<path class="st4" d="M182.07,459.26c1.68,1.72,2.52,4.2,2.52,7.42c0,2.32-0.45,4.32-1.35,5.99c-0.9,1.67-2.17,2.94-3.8,3.81
		c-1.63,0.87-3.52,1.31-5.67,1.31c-1.14,0-2.23-0.13-3.28-0.39c-1.04-0.26-1.93-0.62-2.67-1.09l2.09-4.12
		c0.99,0.7,2.23,1.04,3.74,1.04c1.45,0,2.62-0.4,3.52-1.2c0.9-0.8,1.43-1.97,1.58-3.49c-1.16,0.99-2.68,1.48-4.55,1.48
		c-1.28,0-2.45-0.27-3.51-0.8c-1.06-0.53-1.91-1.29-2.54-2.26c-0.63-0.98-0.94-2.09-0.94-3.35c0-1.37,0.35-2.58,1.06-3.64
		c0.71-1.05,1.66-1.87,2.87-2.44c1.21-0.57,2.55-0.86,4.02-0.86C178.08,456.68,180.39,457.54,182.07,459.26z M177.6,465.2
		c0.52-0.47,0.78-1.1,0.78-1.87c0-0.75-0.26-1.37-0.77-1.84c-0.51-0.47-1.2-0.71-2.07-0.71c-0.81,0-1.47,0.23-1.99,0.7
		c-0.51,0.46-0.77,1.09-0.77,1.88c0,0.77,0.26,1.39,0.77,1.86c0.51,0.46,1.18,0.7,2.02,0.7S177.08,465.67,177.6,465.2z"/>
</g>
<g class="st3">
	<path class="st4" d="M189.28,458.54h-3.64v-2.66h10.61v2.66h-3.62v9.19h-3.35V458.54z"/>
	<path class="st4" d="M208.77,455.88v11.84h-3.35v-4.62h-4.57v4.62h-3.35v-11.84h3.35v4.45h4.57v-4.45H208.77z"/>
</g>
<g class="st3">
	<path class="st4" d="M239.74,457.09v20.3h-4.73l-8.96-10.82v10.82h-5.63v-20.3h4.73l8.96,10.82v-10.82H239.74z"/>
	<path class="st4" d="M248.25,476.43c-1.71-0.91-3.05-2.17-4.03-3.77c-0.98-1.6-1.46-3.41-1.46-5.42c0-2.01,0.49-3.82,1.46-5.42
		c0.98-1.6,2.32-2.86,4.03-3.77s3.64-1.36,5.79-1.36c2.15,0,4.07,0.45,5.79,1.36s3.05,2.17,4.03,3.77c0.98,1.61,1.46,3.41,1.46,5.42
		c0,2.01-0.49,3.82-1.46,5.42c-0.98,1.6-2.32,2.86-4.03,3.77c-1.71,0.91-3.64,1.36-5.79,1.36
		C251.89,477.8,249.96,477.34,248.25,476.43z M256.82,472.31c0.83-0.48,1.49-1.16,1.97-2.04c0.48-0.88,0.72-1.89,0.72-3.03
		c0-1.14-0.24-2.15-0.72-3.03c-0.48-0.88-1.14-1.56-1.97-2.04s-1.76-0.73-2.78-0.73c-1.03,0-1.95,0.24-2.78,0.73
		c-0.83,0.48-1.49,1.17-1.97,2.04c-0.48,0.88-0.73,1.89-0.73,3.03c0,1.14,0.24,2.15,0.73,3.03c0.48,0.88,1.14,1.56,1.97,2.04
		c0.83,0.48,1.76,0.73,2.78,0.73C255.06,473.04,255.98,472.8,256.82,472.31z"/>
	<path class="st4" d="M288.22,457.09l-8.7,20.3h-5.66l-8.67-20.3h6.21l5.51,13.22l5.63-13.22H288.22z"/>
	<path class="st4" d="M305.71,472.95v4.44h-16.3v-20.3h15.92v4.44H295.1v3.42h9.02v4.29h-9.02v3.71H305.71z"/>
	<path class="st4" d="M327.23,477.39l-0.06-10.76l-5.22,8.76h-2.55l-5.19-8.47v10.47h-5.31v-20.3h4.73l7.13,11.72l6.96-11.72h4.73
		l0.06,20.3H327.23z"/>
	<path class="st4" d="M354.89,468.7c0.66,0.86,0.99,1.9,0.99,3.12c0,1.78-0.72,3.15-2.15,4.12c-1.43,0.97-3.5,1.45-6.21,1.45h-10.96
		v-20.3h10.38c2.59,0,4.56,0.48,5.92,1.44c1.35,0.96,2.03,2.25,2.03,3.87c0,0.97-0.24,1.83-0.71,2.6c-0.47,0.76-1.15,1.37-2.02,1.81
		C353.33,467.21,354.24,467.84,354.89,468.7z M342.25,461.24v3.92h3.94c1.93,0,2.9-0.66,2.9-1.97c0-1.29-0.97-1.94-2.9-1.94H342.25z
		 M350.08,471.18c0-1.37-1.01-2.06-3.02-2.06h-4.81v4.12h4.81C349.07,473.24,350.08,472.56,350.08,471.18z"/>
	<path class="st4" d="M375.16,472.95v4.44h-16.3v-20.3h15.92v4.44h-10.24v3.42h9.02v4.29h-9.02v3.71H375.16z"/>
	<path class="st4" d="M387.23,472h-3.13v5.39h-5.74v-20.3h9.28c1.84,0,3.43,0.3,4.79,0.91c1.35,0.61,2.4,1.48,3.13,2.61
		c0.73,1.13,1.1,2.46,1.1,3.99c0,1.47-0.34,2.75-1.03,3.84c-0.69,1.09-1.67,1.95-2.94,2.57l4.38,6.38h-6.15L387.23,472z
		 M389.95,462.4c-0.6-0.52-1.49-0.78-2.67-0.78h-3.19v5.95h3.19c1.18,0,2.07-0.26,2.67-0.77c0.6-0.51,0.9-1.24,0.9-2.19
		S390.55,462.92,389.95,462.4z"/>
	<path class="st4" d="M404.25,472.02c0.62,0.6,0.93,1.38,0.93,2.35c0,0.44-0.06,0.89-0.17,1.33c-0.12,0.44-0.38,1.11-0.78,2
		l-1.83,4.23h-3.45l1.36-4.73c-0.54-0.25-0.96-0.62-1.26-1.12c-0.3-0.49-0.45-1.07-0.45-1.73c0-0.97,0.31-1.75,0.93-2.35
		c0.62-0.6,1.41-0.9,2.38-0.9C402.85,471.13,403.63,471.43,404.25,472.02z"/>
	<path class="st4" d="M431.1,472.84v4.55h-15.8v-3.6l7.6-7.11c0.73-0.7,1.23-1.29,1.48-1.78c0.25-0.49,0.38-0.99,0.38-1.49
		c0-0.66-0.22-1.17-0.67-1.54c-0.45-0.37-1.09-0.55-1.94-0.55c-0.75,0-1.45,0.17-2.07,0.51c-0.63,0.34-1.15,0.83-1.55,1.46
		l-4.26-2.38c0.79-1.31,1.9-2.35,3.33-3.1c1.43-0.75,3.12-1.13,5.07-1.13c1.55,0,2.92,0.25,4.1,0.75c1.19,0.5,2.12,1.22,2.78,2.16
		c0.67,0.94,1,2.03,1,3.26c0,1.1-0.24,2.14-0.71,3.12s-1.39,2.08-2.74,3.32l-3.83,3.54H431.1z"/>
	<path class="st4" d="M437.08,476.55c-1.35-0.83-2.41-2.04-3.18-3.64s-1.15-3.48-1.15-5.67c0-2.18,0.38-4.07,1.15-5.67
		s1.82-2.81,3.18-3.64c1.35-0.83,2.9-1.25,4.64-1.25c1.72,0,3.26,0.42,4.61,1.25c1.35,0.83,2.41,2.04,3.17,3.64s1.15,3.48,1.15,5.67
		c0,2.19-0.38,4.08-1.15,5.67s-1.82,2.81-3.17,3.64c-1.35,0.83-2.89,1.25-4.61,1.25C439.98,477.8,438.43,477.38,437.08,476.55z
		 M444.02,471.69c0.57-0.94,0.86-2.42,0.86-4.45c0-2.03-0.29-3.51-0.86-4.45c-0.57-0.94-1.34-1.41-2.31-1.41
		c-0.99,0-1.76,0.47-2.33,1.41c-0.57,0.94-0.86,2.42-0.86,4.45c0,2.03,0.29,3.51,0.86,4.45s1.35,1.41,2.33,1.41
		C442.69,473.1,443.45,472.63,444.02,471.69z"/>
	<path class="st4" d="M468.08,472.84v4.55h-15.8v-3.6l7.6-7.11c0.73-0.7,1.23-1.29,1.48-1.78c0.25-0.49,0.38-0.99,0.38-1.49
		c0-0.66-0.22-1.17-0.67-1.54c-0.45-0.37-1.09-0.55-1.94-0.55c-0.75,0-1.45,0.17-2.07,0.51c-0.63,0.34-1.15,0.83-1.55,1.46
		l-4.26-2.38c0.79-1.31,1.9-2.35,3.33-3.1s3.12-1.13,5.08-1.13c1.55,0,2.91,0.25,4.1,0.75c1.19,0.5,2.12,1.22,2.78,2.16
		c0.67,0.94,1,2.03,1,3.26c0,1.1-0.24,2.14-0.71,3.12s-1.39,2.08-2.74,3.32l-3.83,3.54H468.08z"/>
	<path class="st4" d="M474.05,476.55c-1.35-0.83-2.41-2.04-3.17-3.64c-0.76-1.59-1.15-3.48-1.15-5.67c0-2.18,0.38-4.07,1.15-5.67
		c0.76-1.59,1.82-2.81,3.17-3.64s2.9-1.25,4.64-1.25c1.72,0,3.26,0.42,4.61,1.25s2.41,2.04,3.18,3.64s1.15,3.48,1.15,5.67
		c0,2.19-0.38,4.08-1.15,5.67s-1.82,2.81-3.18,3.64s-2.89,1.25-4.61,1.25C476.95,477.8,475.41,477.38,474.05,476.55z M481,471.69
		c0.57-0.94,0.86-2.42,0.86-4.45c0-2.03-0.29-3.51-0.86-4.45c-0.57-0.94-1.34-1.41-2.31-1.41c-0.99,0-1.76,0.47-2.33,1.41
		c-0.57,0.94-0.86,2.42-0.86,4.45c0,2.03,0.29,3.51,0.86,4.45s1.35,1.41,2.33,1.41C479.66,473.1,480.43,472.63,481,471.69z"/>
</g>
<g class="st3">
	<path class="st0" d="M27.65,404.49h5.35v18.9h-5.35V404.49z"/>
	<path class="st0" d="M54.78,404.49v18.9h-4.4l-8.34-10.07v10.07H36.8v-18.9h4.4l8.34,10.07v-10.07H54.78z"/>
	<path class="st0" d="M76.54,404.49v18.9h-4.4l-8.34-10.07v10.07h-5.24v-18.9h4.4l8.34,10.07v-10.07H76.54z"/>
	<path class="st0" d="M84.47,422.5c-1.59-0.85-2.84-2.02-3.75-3.51c-0.91-1.49-1.36-3.18-1.36-5.05s0.45-3.55,1.36-5.05
		s2.16-2.66,3.75-3.51s3.39-1.27,5.39-1.27s3.79,0.42,5.39,1.27c1.59,0.85,2.84,2.02,3.75,3.51c0.91,1.49,1.36,3.18,1.36,5.05
		s-0.46,3.56-1.36,5.05c-0.91,1.5-2.16,2.66-3.75,3.51c-1.59,0.85-3.39,1.27-5.39,1.27S86.06,423.34,84.47,422.5z M92.45,418.67
		c0.77-0.45,1.39-1.08,1.84-1.9c0.45-0.82,0.67-1.76,0.67-2.82c0-1.06-0.22-2-0.67-2.82s-1.06-1.45-1.84-1.9
		c-0.77-0.45-1.64-0.67-2.59-0.67s-1.82,0.22-2.59,0.67c-0.77,0.45-1.39,1.08-1.84,1.9c-0.45,0.82-0.68,1.76-0.68,2.82
		c0,1.06,0.23,2,0.68,2.82c0.45,0.82,1.06,1.45,1.84,1.9c0.77,0.45,1.64,0.67,2.59,0.67S91.67,419.12,92.45,418.67z"/>
	<path class="st0" d="M121.69,404.49l-8.1,18.9h-5.27l-8.07-18.9h5.78l5.13,12.31l5.24-12.31H121.69z"/>
	<path class="st0" d="M134.81,419.72h-7.99l-1.48,3.67h-5.45l8.34-18.9h5.26l8.37,18.9h-5.56L134.81,419.72z M133.24,415.78
		l-2.43-6.05l-2.43,6.05H133.24z"/>
	<path class="st0" d="M146.45,408.73h-5.81v-4.24h16.93v4.24h-5.78v14.66h-5.35V408.73z"/>
	<path class="st0" d="M159.57,404.49h5.35v18.9h-5.35V404.49z"/>
	<path class="st0" d="M187.84,404.49l-8.1,18.9h-5.26l-8.07-18.9h5.78l5.13,12.31l5.24-12.31H187.84z"/>
	<path class="st0" d="M204.12,419.26v4.13h-15.17v-18.9h14.82v4.13h-9.53v3.19h8.4v4h-8.4v3.46H204.12z"/>
	<path class="st0" d="M217.12,421.47c-1.56-1.53-2.34-3.7-2.34-6.51v-10.48h5.35v10.31c0,3.02,1.2,4.54,3.59,4.54
		c2.38,0,3.56-1.51,3.56-4.54v-10.31h5.27v10.48c0,2.81-0.78,4.98-2.34,6.51c-1.56,1.53-3.74,2.29-6.55,2.29
		C220.86,423.77,218.67,423,217.12,421.47z"/>
	<path class="st0" d="M244.43,418.37h-2.92v5.02h-5.35v-18.9h8.64c1.71,0,3.2,0.28,4.46,0.85c1.26,0.57,2.23,1.38,2.92,2.43
		c0.68,1.05,1.03,2.29,1.03,3.71c0,1.37-0.32,2.56-0.96,3.58c-0.64,1.02-1.55,1.81-2.74,2.39l4.08,5.94h-5.72L244.43,418.37z
		 M246.97,409.43c-0.56-0.49-1.39-0.73-2.48-0.73h-2.97v5.54h2.97c1.1,0,1.93-0.24,2.48-0.71c0.56-0.48,0.84-1.16,0.84-2.04
		C247.8,410.6,247.52,409.92,246.97,409.43z"/>
	<path class="st0" d="M273.21,415.3c0.61,0.8,0.92,1.77,0.92,2.9c0,1.66-0.67,2.93-2,3.83c-1.33,0.9-3.26,1.35-5.78,1.35h-10.21
		v-18.9h9.67c2.41,0,4.25,0.45,5.51,1.34c1.26,0.89,1.89,2.09,1.89,3.6c0,0.9-0.22,1.71-0.66,2.42c-0.44,0.71-1.07,1.27-1.88,1.69
		C271.75,413.91,272.6,414.5,273.21,415.3z M261.44,408.35V412h3.67c1.8,0,2.7-0.61,2.7-1.84c0-1.21-0.9-1.81-2.7-1.81H261.44z
		 M268.73,417.61c0-1.28-0.94-1.92-2.81-1.92h-4.48v3.83h4.48C267.79,419.53,268.73,418.89,268.73,417.61z"/>
	<path class="st0" d="M289.57,419.72h-7.99l-1.48,3.67h-5.45l8.34-18.9h5.27l8.37,18.9h-5.56L289.57,419.72z M288.01,415.78
		l-2.43-6.05l-2.43,6.05H288.01z"/>
	<path class="st0" d="M316.11,404.49v18.9h-4.4l-8.34-10.07v10.07h-5.24v-18.9h4.4l8.34,10.07v-10.07H316.11z"/>
	<path class="st0" d="M344.81,423.39l-0.05-10.02l-4.86,8.15h-2.38l-4.83-7.88v9.75h-4.94v-18.9h4.4l6.64,10.91l6.48-10.91h4.4
		l0.05,18.9H344.81z"/>
	<path class="st0" d="M357.65,422.5c-1.59-0.85-2.84-2.02-3.75-3.51c-0.91-1.49-1.36-3.18-1.36-5.05s0.45-3.55,1.36-5.05
		s2.16-2.66,3.75-3.51c1.59-0.85,3.39-1.27,5.39-1.27s3.79,0.42,5.39,1.27s2.84,2.02,3.75,3.51c0.91,1.49,1.36,3.18,1.36,5.05
		s-0.46,3.56-1.36,5.05c-0.91,1.5-2.16,2.66-3.75,3.51c-1.59,0.85-3.39,1.27-5.39,1.27S359.24,423.34,357.65,422.5z M365.63,418.67
		c0.77-0.45,1.39-1.08,1.84-1.9c0.45-0.82,0.68-1.76,0.68-2.82c0-1.06-0.23-2-0.68-2.82s-1.06-1.45-1.84-1.9
		c-0.77-0.45-1.64-0.67-2.59-0.67s-1.82,0.22-2.59,0.67c-0.77,0.45-1.39,1.08-1.84,1.9c-0.45,0.82-0.67,1.76-0.67,2.82
		c0,1.06,0.22,2,0.67,2.82c0.45,0.82,1.06,1.45,1.84,1.9c0.77,0.45,1.64,0.67,2.59,0.67S364.86,419.12,365.63,418.67z"/>
	<path class="st0" d="M393.41,415.3c0.61,0.8,0.92,1.77,0.92,2.9c0,1.66-0.67,2.93-2,3.83c-1.33,0.9-3.26,1.35-5.78,1.35h-10.21
		v-18.9h9.67c2.41,0,4.25,0.45,5.51,1.34c1.26,0.89,1.89,2.09,1.89,3.6c0,0.9-0.22,1.71-0.66,2.42c-0.44,0.71-1.07,1.27-1.88,1.69
		C391.95,413.91,392.8,414.5,393.41,415.3z M381.64,408.35V412h3.67c1.8,0,2.7-0.61,2.7-1.84c0-1.21-0.9-1.81-2.7-1.81H381.64z
		 M388.93,417.61c0-1.28-0.94-1.92-2.81-1.92h-4.48v3.83h4.48C387.99,419.53,388.93,418.89,388.93,417.61z"/>
	<path class="st0" d="M397.11,404.49h5.35v18.9h-5.35V404.49z"/>
	<path class="st0" d="M406.26,404.49h5.35v14.66h9.02v4.24h-14.36V404.49z"/>
	<path class="st0" d="M422.73,404.49h5.35v18.9h-5.35V404.49z"/>
	<path class="st0" d="M435.91,408.73h-5.8v-4.24h16.93v4.24h-5.78v14.66h-5.35V408.73z"/>
	<path class="st0" d="M458.7,416.61v6.78h-5.35v-6.86l-7.21-12.04h5.64l4.48,7.51l4.48-7.51h5.18L458.7,416.61z"/>
	<path class="st0" d="M479.23,422.51c-1.58-0.84-2.81-2-3.71-3.5c-0.9-1.49-1.35-3.19-1.35-5.08c0-1.89,0.45-3.58,1.35-5.08
		c0.9-1.49,2.14-2.66,3.71-3.5s3.35-1.26,5.33-1.26c1.73,0,3.28,0.31,4.67,0.92c1.39,0.61,2.54,1.5,3.46,2.65l-3.4,3.08
		c-1.22-1.48-2.71-2.21-4.46-2.21c-1.03,0-1.94,0.22-2.74,0.67c-0.8,0.45-1.42,1.08-1.86,1.9c-0.44,0.82-0.66,1.76-0.66,2.82
		c0,1.06,0.22,2,0.66,2.82c0.44,0.82,1.06,1.45,1.86,1.9c0.8,0.45,1.71,0.67,2.74,0.67c1.75,0,3.23-0.74,4.46-2.21l3.4,3.08
		c-0.92,1.15-2.07,2.03-3.46,2.65c-1.39,0.61-2.94,0.92-4.67,0.92C482.58,423.77,480.81,423.35,479.23,422.51z"/>
	<path class="st0" d="M513.05,404.49v18.9h-5.35v-7.37h-7.29v7.37h-5.35v-18.9h5.35v7.1h7.29v-7.1H513.05z"/>
	<path class="st0" d="M529.49,419.72h-7.99l-1.48,3.67h-5.45l8.34-18.9h5.27l8.37,18.9h-5.56L529.49,419.72z M527.92,415.78
		l-2.43-6.05l-2.43,6.05H527.92z"/>
	<path class="st0" d="M538.05,404.49h5.35v14.66h9.02v4.24h-14.36V404.49z"/>
	<path class="st0" d="M554.52,404.49h5.35v14.66h9.02v4.24h-14.36V404.49z"/>
	<path class="st0" d="M586.16,419.26v4.13h-15.17v-18.9h14.82v4.13h-9.53v3.19h8.4v4h-8.4v3.46H586.16z"/>
	<path class="st0" d="M607.11,404.49v18.9h-4.4l-8.34-10.07v10.07h-5.24v-18.9h4.4l8.34,10.07v-10.07H607.11z"/>
	<path class="st0" d="M623.56,413.53h4.73v7.83c-1.08,0.77-2.32,1.37-3.73,1.78c-1.4,0.41-2.81,0.62-4.21,0.62
		c-1.98,0-3.76-0.42-5.35-1.26c-1.58-0.84-2.83-2-3.73-3.5c-0.9-1.49-1.35-3.19-1.35-5.08c0-1.89,0.45-3.58,1.35-5.08
		c0.9-1.49,2.15-2.66,3.75-3.5c1.6-0.84,3.41-1.26,5.43-1.26c1.76,0,3.35,0.3,4.75,0.89c1.4,0.59,2.57,1.45,3.51,2.56l-3.4,3.08
		c-1.28-1.4-2.81-2.11-4.59-2.11c-1.62,0-2.92,0.49-3.92,1.47c-0.99,0.98-1.48,2.29-1.48,3.93c0,1.04,0.22,1.98,0.67,2.79
		c0.45,0.82,1.08,1.46,1.89,1.92c0.81,0.46,1.74,0.69,2.78,0.69c1.03,0,1.99-0.21,2.89-0.62V413.53z"/>
	<path class="st0" d="M646.86,419.26v4.13h-15.17v-18.9h14.82v4.13h-9.53v3.19h8.4v4h-8.4v3.46H646.86z"/>
</g>
<g class="st3">
	<path class="st5" d="M65.17,573l-0.46,3.89h3.38v3.48h-3.81l-0.51,4.02H60.1l0.51-4.02h-3.32l-0.51,4.02H53.1l0.51-4.02h-3.4v-3.48
		h3.83l0.46-3.89h-3.4v-3.48h3.83l0.51-4.02h3.67l-0.51,4.02h3.32l0.51-4.02h3.67l-0.51,4.02h3.4V573H65.17z M61.5,573h-3.32
		l-0.46,3.89h3.32L61.5,573z"/>
	<path class="st5" d="M73.54,584.2c-1.44-0.38-2.61-0.88-3.51-1.51l1.75-3.94c0.85,0.56,1.83,1.01,2.94,1.35s2.21,0.51,3.29,0.51
		c2.05,0,3.08-0.51,3.08-1.54c0-0.54-0.29-0.94-0.88-1.2s-1.53-0.54-2.82-0.82c-1.42-0.31-2.61-0.63-3.56-0.99
		c-0.95-0.35-1.77-0.91-2.46-1.69c-0.68-0.77-1.03-1.82-1.03-3.13c0-1.15,0.31-2.19,0.95-3.12c0.63-0.93,1.57-1.66,2.82-2.2
		s2.79-0.81,4.6-0.81c1.24,0,2.47,0.14,3.67,0.42s2.27,0.69,3.19,1.23l-1.65,3.97c-1.8-0.97-3.55-1.46-5.24-1.46
		c-1.06,0-1.84,0.16-2.32,0.47c-0.49,0.32-0.73,0.72-0.73,1.23s0.29,0.88,0.86,1.13s1.5,0.51,2.78,0.78
		c1.44,0.31,2.63,0.63,3.58,0.99c0.95,0.35,1.76,0.91,2.46,1.67c0.69,0.77,1.04,1.8,1.04,3.12c0,1.13-0.31,2.16-0.94,3.08
		c-0.63,0.92-1.58,1.65-2.83,2.2c-1.26,0.55-2.79,0.82-4.59,0.82C76.47,584.77,74.98,584.58,73.54,584.2z"/>
	<path class="st5" d="M111.95,571.13c1.07,1.08,1.61,2.71,1.61,4.89v8.37h-5.13v-7.53c0-1.03-0.19-1.78-0.58-2.27
		c-0.39-0.49-0.93-0.73-1.63-0.73c-0.77,0-1.39,0.27-1.86,0.81c-0.47,0.54-0.7,1.36-0.7,2.46v7.26h-5.13v-7.53c0-2-0.74-3-2.21-3
		c-0.79,0-1.42,0.27-1.89,0.81s-0.7,1.36-0.7,2.46v7.26h-5.13v-14.63h4.89v1.54c0.54-0.59,1.18-1.04,1.93-1.34s1.56-0.45,2.44-0.45
		c1.03,0,1.94,0.19,2.75,0.57c0.81,0.38,1.47,0.95,1.97,1.73c0.58-0.74,1.3-1.3,2.19-1.7c0.88-0.4,1.85-0.59,2.89-0.59
		C109.44,569.51,110.88,570.05,111.95,571.13z"/>
	<path class="st5" d="M128.59,571.17c1.28,1.11,1.92,2.8,1.92,5.09v8.13h-4.78v-1.89c-0.74,1.42-2.18,2.13-4.32,2.13
		c-1.13,0-2.12-0.2-2.94-0.59c-0.83-0.4-1.45-0.93-1.88-1.61c-0.42-0.68-0.63-1.45-0.63-2.31c0-1.39,0.53-2.46,1.59-3.23
		c1.06-0.77,2.7-1.15,4.91-1.15h2.92c-0.09-1.55-1.12-2.32-3.1-2.32c-0.7,0-1.41,0.11-2.13,0.34c-0.72,0.22-1.33,0.54-1.84,0.93
		l-1.73-3.48c0.81-0.54,1.8-0.96,2.96-1.26c1.16-0.3,2.33-0.45,3.5-0.45C125.46,569.51,127.32,570.07,128.59,571.17z M124.41,580.96
		c0.45-0.29,0.77-0.71,0.97-1.27v-1.27h-2.21c-1.49,0-2.24,0.5-2.24,1.48c0,0.45,0.17,0.81,0.51,1.08c0.34,0.27,0.81,0.41,1.4,0.41
		C123.44,581.39,123.96,581.25,124.41,580.96z"/>
	<path class="st5" d="M140.68,570.01c0.84-0.33,1.8-0.5,2.88-0.5v4.62c-0.47-0.05-0.86-0.08-1.16-0.08c-1.1,0-1.96,0.3-2.58,0.89
		s-0.93,1.5-0.93,2.73v6.72h-5.13v-14.63h4.89v1.75C139.16,570.84,139.84,570.35,140.68,570.01z"/>
	<path class="st5" d="M156.22,583.8c-0.43,0.27-0.96,0.48-1.58,0.62c-0.62,0.14-1.28,0.22-1.98,0.22c-1.91,0-3.38-0.47-4.4-1.4
		c-1.03-0.94-1.54-2.33-1.54-4.18v-4.91h-2.13v-3.83h2.13v-3.81h5.13v3.81h3.35v3.83h-3.35v4.86c0,0.52,0.14,0.93,0.42,1.23
		c0.28,0.3,0.65,0.45,1.12,0.45c0.59,0,1.12-0.15,1.57-0.46L156.22,583.8z"/>
	<path class="st5" d="M175.49,584.39l-0.05-10.02l-4.86,8.15h-2.38l-4.83-7.88v9.75h-4.94v-18.9h4.4l6.64,10.91l6.48-10.91h4.4
		l0.05,18.9H175.49z"/>
	<path class="st5" d="M187.05,583.66c-1.26-0.65-2.25-1.55-2.96-2.7c-0.71-1.15-1.07-2.46-1.07-3.92c0-1.44,0.35-2.74,1.07-3.89
		c0.71-1.15,1.69-2.05,2.94-2.69c1.25-0.64,2.67-0.96,4.25-0.96s3.01,0.32,4.27,0.96c1.26,0.64,2.24,1.53,2.94,2.67
		c0.7,1.14,1.05,2.44,1.05,3.9s-0.35,2.76-1.05,3.92c-0.7,1.15-1.68,2.05-2.94,2.7c-1.26,0.65-2.68,0.97-4.27,0.97
		C189.72,584.63,188.31,584.31,187.05,583.66z M193.5,579.62c0.58-0.62,0.86-1.48,0.86-2.58c0-1.08-0.29-1.93-0.86-2.54
		s-1.31-0.92-2.21-0.92c-0.9,0-1.64,0.31-2.21,0.92s-0.86,1.46-0.86,2.54c0,1.1,0.29,1.96,0.86,2.58s1.31,0.93,2.21,0.93
		C192.19,580.56,192.93,580.25,193.5,579.62z"/>
	<path class="st5" d="M216.94,569.76l-6.05,14.63h-5.29l-6.02-14.63h5.26l3.51,8.94l3.7-8.94H216.94z"/>
	<path class="st5" d="M232.73,578.37h-10.64c0.22,0.76,0.63,1.34,1.26,1.74s1.4,0.61,2.33,0.61c0.7,0,1.31-0.1,1.82-0.3
		c0.51-0.2,1.03-0.52,1.55-0.97l2.7,2.81c-1.42,1.58-3.5,2.38-6.24,2.38c-1.71,0-3.21-0.32-4.51-0.97c-1.3-0.65-2.3-1.55-3.01-2.7
		c-0.71-1.15-1.07-2.46-1.07-3.92c0-1.44,0.35-2.73,1.04-3.88c0.69-1.14,1.65-2.04,2.88-2.69c1.22-0.65,2.6-0.97,4.13-0.97
		c1.46,0,2.78,0.3,3.97,0.9c1.19,0.6,2.13,1.48,2.82,2.62c0.69,1.14,1.04,2.5,1.04,4.06C232.81,577.14,232.79,577.56,232.73,578.37z
		 M223.03,573.83c-0.53,0.45-0.87,1.06-1.01,1.84h5.99c-0.14-0.77-0.48-1.39-1.01-1.84s-1.19-0.68-1.98-0.68
		S223.56,573.38,223.03,573.83z"/>
</g>
<g class="st3">
	<path class="st5" d="M65.17,641l-0.46,3.89h3.38v3.48h-3.81l-0.51,4.02H60.1l0.51-4.02h-3.32l-0.51,4.02H53.1l0.51-4.02h-3.4v-3.48
		h3.83l0.46-3.89h-3.4v-3.48h3.83l0.51-4.02h3.67l-0.51,4.02h3.32l0.51-4.02h3.67l-0.51,4.02h3.4V641H65.17z M61.5,641h-3.32
		l-0.46,3.89h3.32L61.5,641z"/>
	<path class="st5" d="M79.62,647.37H76.7v5.02h-5.35v-18.9H80c1.71,0,3.2,0.28,4.46,0.85c1.26,0.57,2.23,1.38,2.92,2.43
		c0.68,1.05,1.03,2.29,1.03,3.71c0,1.37-0.32,2.56-0.96,3.58c-0.64,1.02-1.55,1.81-2.74,2.39l4.08,5.94h-5.72L79.62,647.37z
		 M82.16,638.43c-0.56-0.49-1.39-0.73-2.48-0.73H76.7v5.54h2.97c1.1,0,1.93-0.24,2.48-0.71c0.56-0.48,0.84-1.16,0.84-2.04
		C82.99,639.6,82.71,638.92,82.16,638.43z"/>
	<path class="st5" d="M105.97,646.37H95.33c0.22,0.76,0.63,1.34,1.26,1.74s1.4,0.61,2.33,0.61c0.7,0,1.31-0.1,1.82-0.3
		c0.51-0.2,1.03-0.52,1.55-0.97l2.7,2.81c-1.42,1.58-3.5,2.38-6.24,2.38c-1.71,0-3.21-0.32-4.51-0.97c-1.3-0.65-2.3-1.55-3.01-2.7
		c-0.71-1.15-1.07-2.46-1.07-3.92c0-1.44,0.35-2.73,1.04-3.88c0.69-1.14,1.65-2.04,2.88-2.69c1.22-0.65,2.6-0.97,4.13-0.97
		c1.46,0,2.78,0.3,3.97,0.9c1.19,0.6,2.13,1.48,2.82,2.62c0.69,1.14,1.04,2.5,1.04,4.06C106.05,645.14,106.02,645.56,105.97,646.37z
		 M96.26,641.83c-0.53,0.45-0.87,1.06-1.01,1.84h5.99c-0.14-0.77-0.48-1.39-1.01-1.84s-1.19-0.68-1.98-0.68
		S96.79,641.38,96.26,641.83z"/>
	<path class="st5" d="M108.72,635.35c-0.58-0.52-0.86-1.17-0.86-1.94c0-0.77,0.29-1.42,0.86-1.94s1.33-0.78,2.27-0.78
		c0.94,0,1.69,0.25,2.27,0.74c0.58,0.5,0.86,1.13,0.86,1.9c0,0.81-0.29,1.48-0.86,2.01c-0.58,0.53-1.33,0.8-2.27,0.8
		C110.05,636.14,109.3,635.88,108.72,635.35z M108.43,637.76h5.13v14.63h-5.13V637.76z"/>
	<path class="st5" d="M140.24,639.13c1.07,1.08,1.61,2.71,1.61,4.89v8.37h-5.13v-7.53c0-1.03-0.19-1.78-0.58-2.27
		c-0.39-0.49-0.93-0.73-1.63-0.73c-0.77,0-1.4,0.27-1.86,0.81s-0.7,1.36-0.7,2.46v7.26h-5.13v-7.53c0-2-0.74-3-2.21-3
		c-0.79,0-1.42,0.27-1.89,0.81c-0.47,0.54-0.7,1.36-0.7,2.46v7.26h-5.13v-14.63h4.89v1.54c0.54-0.59,1.18-1.04,1.93-1.34
		s1.56-0.45,2.44-0.45c1.03,0,1.94,0.19,2.75,0.57c0.81,0.38,1.47,0.95,1.97,1.73c0.58-0.74,1.31-1.3,2.19-1.7
		c0.88-0.4,1.84-0.59,2.89-0.59C137.74,637.51,139.17,638.05,140.24,639.13z"/>
	<path class="st5" d="M156.89,639.17c1.28,1.11,1.92,2.8,1.92,5.09v8.13h-4.78v-1.89c-0.74,1.42-2.18,2.13-4.32,2.13
		c-1.13,0-2.12-0.2-2.94-0.59c-0.83-0.4-1.45-0.93-1.88-1.61c-0.42-0.68-0.63-1.45-0.63-2.31c0-1.39,0.53-2.46,1.59-3.23
		c1.06-0.77,2.7-1.15,4.91-1.15h2.92c-0.09-1.55-1.12-2.32-3.1-2.32c-0.7,0-1.41,0.11-2.13,0.34c-0.72,0.22-1.33,0.54-1.84,0.93
		l-1.73-3.48c0.81-0.54,1.8-0.96,2.96-1.26c1.16-0.3,2.33-0.45,3.5-0.45C153.76,637.51,155.61,638.07,156.89,639.17z M152.71,648.96
		c0.45-0.29,0.77-0.71,0.97-1.27v-1.27h-2.21c-1.49,0-2.24,0.5-2.24,1.48c0,0.45,0.17,0.81,0.51,1.08c0.34,0.27,0.81,0.41,1.4,0.41
		C151.73,649.39,152.26,649.25,152.71,648.96z"/>
	<path class="st5" d="M178,637.76v11.96c0,2.72-0.74,4.76-2.21,6.12c-1.48,1.36-3.6,2.04-6.37,2.04c-1.44,0-2.79-0.16-4.05-0.49
		s-2.33-0.8-3.21-1.43l1.86-3.59c0.59,0.49,1.35,0.87,2.25,1.15c0.91,0.28,1.8,0.42,2.69,0.42c1.35,0,2.34-0.3,2.97-0.89
		c0.63-0.59,0.94-1.48,0.94-2.65v-0.49c-0.99,1.15-2.44,1.73-4.35,1.73c-1.3,0-2.49-0.29-3.59-0.88c-1.1-0.58-1.97-1.41-2.62-2.48
		c-0.65-1.07-0.97-2.31-0.97-3.71c0-1.39,0.32-2.61,0.97-3.69c0.65-1.07,1.52-1.9,2.62-2.48c1.1-0.58,2.29-0.88,3.59-0.88
		c2.09,0,3.62,0.67,4.59,2.03v-1.78H178z M172.02,646.72c0.6-0.56,0.9-1.28,0.9-2.16s-0.3-1.6-0.89-2.15
		c-0.59-0.55-1.36-0.82-2.29-0.82s-1.71,0.27-2.31,0.82c-0.6,0.55-0.9,1.26-0.9,2.15s0.31,1.6,0.92,2.16s1.38,0.84,2.29,0.84
		S171.42,647.28,172.02,646.72z"/>
	<path class="st5" d="M181.59,635.35c-0.58-0.52-0.86-1.17-0.86-1.94c0-0.77,0.29-1.42,0.86-1.94s1.33-0.78,2.27-0.78
		c0.94,0,1.69,0.25,2.27,0.74c0.58,0.5,0.86,1.13,0.86,1.9c0,0.81-0.29,1.48-0.86,2.01c-0.58,0.53-1.33,0.8-2.27,0.8
		C182.93,636.14,182.17,635.88,181.59,635.35z M181.3,637.76h5.13v14.63h-5.13V637.76z"/>
	<path class="st5" d="M203.67,639.13c1.11,1.08,1.66,2.71,1.66,4.89v8.37h-5.13v-7.53c0-2-0.8-3-2.4-3c-0.88,0-1.59,0.29-2.12,0.86
		c-0.53,0.58-0.8,1.44-0.8,2.59v7.07h-5.13v-14.63h4.89v1.59c0.58-0.59,1.26-1.05,2.05-1.36s1.66-0.47,2.59-0.47
		C201.1,637.51,202.56,638.05,203.67,639.13z"/>
	<path class="st5" d="M223.63,646.37H213c0.22,0.76,0.63,1.34,1.25,1.74s1.4,0.61,2.34,0.61c0.7,0,1.31-0.1,1.82-0.3
		s1.03-0.52,1.55-0.97l2.7,2.81c-1.42,1.58-3.5,2.38-6.24,2.38c-1.71,0-3.21-0.32-4.51-0.97c-1.3-0.65-2.3-1.55-3.01-2.7
		c-0.71-1.15-1.07-2.46-1.07-3.92c0-1.44,0.35-2.73,1.04-3.88c0.69-1.14,1.65-2.04,2.88-2.69c1.22-0.65,2.6-0.97,4.13-0.97
		c1.46,0,2.78,0.3,3.97,0.9c1.19,0.6,2.13,1.48,2.82,2.62c0.69,1.14,1.04,2.5,1.04,4.06C223.71,645.14,223.69,645.56,223.63,646.37z
		 M213.93,641.83c-0.53,0.45-0.87,1.06-1.01,1.84h5.99c-0.14-0.77-0.48-1.39-1.01-1.84c-0.53-0.45-1.19-0.68-1.99-0.68
		S214.46,641.38,213.93,641.83z"/>
	<path class="st5" d="M243.4,652.39l-0.05-10.02l-4.86,8.15h-2.38l-4.83-7.88v9.75h-4.94v-18.9h4.4l6.64,10.91l6.48-10.91h4.4
		l0.05,18.9H243.4z"/>
	<path class="st5" d="M254.95,651.66c-1.26-0.65-2.25-1.55-2.96-2.7c-0.71-1.15-1.07-2.46-1.07-3.92c0-1.44,0.35-2.74,1.07-3.89
		c0.71-1.15,1.69-2.05,2.94-2.69c1.25-0.64,2.67-0.96,4.25-0.96s3.01,0.32,4.27,0.96c1.26,0.64,2.24,1.53,2.94,2.67
		c0.7,1.14,1.05,2.44,1.05,3.9s-0.35,2.76-1.05,3.92c-0.7,1.15-1.68,2.05-2.94,2.7c-1.26,0.65-2.68,0.97-4.27,0.97
		C257.63,652.63,256.21,652.31,254.95,651.66z M261.41,647.62c0.58-0.62,0.86-1.48,0.86-2.58c0-1.08-0.29-1.93-0.86-2.54
		s-1.31-0.92-2.21-0.92c-0.9,0-1.64,0.31-2.21,0.92s-0.86,1.46-0.86,2.54c0,1.1,0.29,1.96,0.86,2.58s1.31,0.93,2.21,0.93
		C260.09,648.56,260.83,648.25,261.41,647.62z"/>
	<path class="st5" d="M282.67,638.43c1.09,0.61,1.95,1.49,2.59,2.63c0.64,1.14,0.96,2.47,0.96,3.98c0,1.51-0.32,2.84-0.96,4
		c-0.64,1.15-1.5,2.04-2.59,2.66s-2.3,0.93-3.63,0.93c-1.93,0-3.37-0.57-4.32-1.7v1.46h-4.89v-20.03h5.13v6.67
		c0.99-1.01,2.35-1.51,4.08-1.51C280.37,637.51,281.58,637.82,282.67,638.43z M280.17,647.62c0.58-0.62,0.86-1.48,0.86-2.58
		c0-1.08-0.29-1.93-0.86-2.54s-1.31-0.92-2.21-0.92c-0.9,0-1.64,0.31-2.21,0.92c-0.58,0.61-0.86,1.46-0.86,2.54
		c0,1.1,0.29,1.96,0.86,2.58c0.58,0.62,1.31,0.93,2.21,0.93C278.86,648.56,279.59,648.25,280.17,647.62z"/>
	<path class="st5" d="M288.89,635.35c-0.58-0.52-0.86-1.17-0.86-1.94c0-0.77,0.29-1.42,0.86-1.94s1.33-0.78,2.27-0.78
		c0.94,0,1.69,0.25,2.27,0.74c0.58,0.5,0.86,1.13,0.86,1.9c0,0.81-0.29,1.48-0.86,2.01c-0.58,0.53-1.33,0.8-2.27,0.8
		C290.22,636.14,289.47,635.88,288.89,635.35z M288.59,637.76h5.13v14.63h-5.13V637.76z"/>
	<path class="st5" d="M297.05,632.36h5.13v20.03h-5.13V632.36z"/>
	<path class="st5" d="M305.79,635.35c-0.58-0.52-0.86-1.17-0.86-1.94c0-0.77,0.29-1.42,0.86-1.94c0.58-0.52,1.33-0.78,2.27-0.78
		c0.94,0,1.69,0.25,2.27,0.74c0.58,0.5,0.86,1.13,0.86,1.9c0,0.81-0.29,1.48-0.86,2.01c-0.58,0.53-1.33,0.8-2.27,0.8
		C307.12,636.14,306.37,635.88,305.79,635.35z M305.5,637.76h5.13v14.63h-5.13V637.76z"/>
	<path class="st5" d="M324.04,651.8c-0.43,0.27-0.96,0.48-1.58,0.62c-0.62,0.14-1.28,0.22-1.98,0.22c-1.91,0-3.38-0.47-4.4-1.4
		c-1.03-0.94-1.54-2.33-1.54-4.18v-4.91h-2.13v-3.83h2.13v-3.81h5.13v3.81h3.35v3.83h-3.35v4.86c0,0.52,0.14,0.93,0.42,1.23
		c0.28,0.3,0.65,0.45,1.12,0.45c0.59,0,1.12-0.15,1.57-0.46L324.04,651.8z"/>
	<path class="st5" d="M341.16,637.76l-6.32,15.23c-0.74,1.8-1.64,3.06-2.7,3.79c-1.06,0.73-2.36,1.09-3.89,1.09
		c-0.77,0-1.55-0.12-2.34-0.37s-1.42-0.56-1.9-0.96l1.78-3.59c0.29,0.27,0.63,0.48,1.04,0.63c0.41,0.15,0.81,0.23,1.23,0.23
		c0.49,0,0.89-0.1,1.2-0.3c0.31-0.2,0.58-0.51,0.8-0.94l-6.26-14.82h5.26l3.59,8.94l3.62-8.94H341.16z"/>
</g>
<g id="logo-05" transform="translate(6.315 80.651)">
	<g id="Group_5" transform="translate(0 0)">
		<g id="Group_3" transform="translate(8.951 157.776)">
			<g id="Path_9">
				<path class="st5" d="M69.46,35.05c6.69-7.42,12.59-13.61,20.4-17.52c11.83-5.92,23.99-7.96,36.61-2.68
					c6.98,2.92,11.22,8.37,13.57,15.42c0.47,1.4,0.13,3.6,1.73,4.01c1.95,0.5,2.58-1.75,3.6-2.97
					c11.51-13.88,26.26-20.93,44.31-18.99c15.65,1.68,24.97,13.71,25.24,30.81c0.2,12.69-2.4,25.07-4.71,37.46
					c-3.28,17.68-6.87,35.3-10.13,52.96c-0.58,3.18-1.78,4.26-5.09,4.11c-6.95-0.29-13.92-0.19-20.87-0.04
					c-2.94,0.06-3.59-0.67-2.99-3.7c4.4-22.93,8.66-45.88,12.77-68.86c0.99-4.97,1.32-10.05,1.01-15.11
					c-1.04-13.39-14.3-17.43-24.88-10.68c-12.83,8.18-18.79,21.05-21.85,35.12c-4.27,19.66-7.74,39.5-11.32,59.3
					c-0.57,3.1-1.72,4.04-4.77,3.95c-6.79-0.19-13.61-0.29-20.4,0.03c-4.15,0.19-4.26-1.27-3.58-4.77c4.65-23.97,9.15-47.97,13.5-72
					c0.99-4.69,0.89-9.55-0.29-14.2c-2.51-8.8-10.03-12.72-18.71-9.71c-10.34,3.6-16.34,11.73-21.37,20.74
					c-7.21,12.94-8.32,27.54-11.09,41.67c-2.27,11.6-4.42,23.23-6.34,34.89c-0.47,2.86-1.68,3.41-4.26,3.35
					c-6.95-0.15-13.92-0.2-20.87,0.02c-3.35,0.12-4.37-0.93-3.76-4.2c3.42-18.1,6.75-36.23,10.11-54.35
					c3.73-20.07,8.04-40.05,10.35-60.37c0.35-3.08,1.59-4.21,4.72-4.11c5.87,0.2,11.75,0.19,17.62,0.02
					c2.84-0.09,3.75,0.83,3.67,3.67C71.21,23.48,70.31,28.56,69.46,35.05z"/>
			</g>
			<g id="Path_10">
				<path class="st5" d="M247.72,81.42c1.2-21.38,11.32-45.55,37.05-60.35c20-11.51,41.29-13.61,62.12-1.63
					c12.61,7.26,19.46,18.87,21.45,33.26c3.06,21.89-1.97,41.76-14.92,59.68c-16,22.15-45.52,32.59-71.27,25.81
					C262.62,133.05,246.92,114.44,247.72,81.42z M338.46,63.94c0.12-1.84,0.1-3.7-0.04-5.54c-1.22-8.47-3.89-16.19-11.97-20.73
					c-10.08-5.67-24.09-2.59-32.25,7.04c-11.02,13.02-16.06,28.16-15.87,45.05c0.07,6.65,1.25,13.09,5.48,18.64
					c9.07,11.91,26.79,13.1,39.48-1.89C333.54,94.4,338.11,79.79,338.46,63.94L338.46,63.94z"/>
			</g>
			<g id="Path_11">
				<path class="st5" d="M566.19,87.4h-0.47c-9.28-0.02-9.91,0.82-7.67,10.06c2.59,10.62,10.23,17.4,21.31,18.92
					c12.45,1.7,24.25-0.73,35.68-5.51c4.85-2.03,5.14-1.97,5.47,3.21c0.12,4.15,0.65,8.28,1.6,12.33c0.77,2.83-0.23,4.59-3.06,5.73
					c-19.69,8.02-40.02,10.99-60.59,4.94c-13.54-3.98-22.47-13.55-27.15-27.34c-10.64-31.32,6.06-73,34.32-88.88
					c18.51-10.39,37.94-13.45,57.22-2.26c14.16,8.21,17.29,22.93,13.63,37.91c-3.69,15.13-15.94,21.45-29.53,25.71
					C593.69,86.34,579.92,86.76,566.19,87.4z M569.54,65.28c2.29-0.17,6.3-0.44,10.29-0.8c8-0.74,15.96-1.62,23.09-5.9
					c4.6-2.48,7.26-7.49,6.72-12.69c-0.29-5.19-3-8.47-7.74-10.43c-4.78-1.88-10.07-2.04-14.95-0.44
					c-11.66,3.38-18.95,11.56-23.93,22.2C559.56,64.56,559.95,65.31,569.54,65.28z"/>
			</g>
			<g id="Path_12">
				<path class="st5" d="M441.52,106.18c6.53-13.45,12.2-26.88,18.8-39.89c7.84-15.49,15.53-31.06,23.06-46.7
					c1.75-3.61,3.82-5.22,8.09-5.01c8.77,0.41,17.59,0.12,26.66,0.12c-0.28,2.54-1.56,4.27-2.57,6.08
					c-18.6,33.3-37.21,66.6-55.82,99.88c-2.68,4.81-5.46,9.56-8.05,14.41c-0.88,1.66-1.76,2.59-3.82,2.57
					c-8.19-0.12-16.38-0.09-24.57-0.02c-2,0.02-2.89-0.45-3.27-2.7c-6.62-38.9-13.32-77.79-20.1-116.67
					c-0.45-2.59,0.29-3.66,3.06-3.61c7.89,0.12,15.77,0.16,23.65,0.02c2.87-0.06,3.6,1.17,3.92,3.76
					c2.01,16.31,4.21,32.6,6.27,48.91C438.47,80.26,439.96,93.22,441.52,106.18z"/>
			</g>
		</g>
		<g id="Group_4">
			<g id="Path_13">
				<path class="st6" d="M210.41,108.15c1.92-4.21,3.44-7.43,4.87-10.7c11.69-26.8,23.42-53.59,34.95-80.45
					c1.27-2.94,2.84-3.86,5.84-3.7c4.02,0.22,8.06,0.06,12.58,0.06c-0.6,1.76-0.92,2.99-1.43,4.13
					c-15.81,36.06-31.7,72.08-47.4,108.19c-1.5,3.45-3.43,4.23-7.05,4.71c-7.91,1.05-11.28-2.26-14.15-9.33
					c-9.65-23.73-20.11-47.12-30.27-70.64c-0.54-1.27-1.18-2.49-1.78-3.73c-0.38,0.06-0.76,0.13-1.14,0.19v83.26
					c-5.57,0-10.45,0.09-15.32-0.1c-0.7-0.03-1.54-1.33-1.94-2.21c-0.19-0.85-0.22-1.72-0.09-2.58c0-35.66,0.07-71.33-0.1-106.99
					c-0.01-4.13,1.25-5.29,5.17-4.97c3.78,0.29,7.57,0.29,11.35,0c3.13-0.23,4.61,0.98,5.83,3.8c12.37,28.55,24.84,57.07,37.4,85.55
					C208.43,104.17,209.2,105.66,210.41,108.15z"/>
			</g>
			<g id="Path_14">
				<path class="st6" d="M117.47,47.49c-5.12,0-10.01,0.15-14.9-0.13c-0.93-0.06-2.2-1.57-2.61-2.68
					c-4.84-13.18-12.3-18.74-26.51-18.74c-5.64-0.04-11.27,0.61-16.76,1.92c-6.06,1.52-10.73,5.35-11.38,12.2
					c-0.73,7.49,1.81,12.43,9.21,15.48c8.56,3.53,17.52,6.06,26.28,9.12c6.83,2.39,13.77,4.62,20.4,7.49
					c11.94,5.15,19.27,13.96,19.12,27.4c-0.15,13.39-7.08,22.55-19.22,27.97c-11.53,5.14-23.76,5.1-35.97,4.37
					c-10.35-0.61-20.07-3.41-28.03-10.43c-7.55-6.68-10.94-15.43-12.27-25.18c-0.41-3.02,0.67-4.24,3.79-4.07
					c3.77,0.2,8.25-1.11,11.13,0.51c2.39,1.33,2.93,5.95,4.24,9.14c2.7,7.22,8.93,12.55,16.48,14.11
					c10.58,2.48,21.13,2.48,31.18-1.79c3.82-1.67,7.15-4.27,9.71-7.56c3.75-4.97,2.26-12.02-2.38-17.07S88,82.67,81.82,80.6
					c-12.1-4.05-24.28-7.87-36.32-12.11c-9.31-3.28-15.55-9.82-17.04-19.69c-1.68-11.13,1.11-21,10.7-28.08
					c9.91-7.33,21.29-9.97,33.3-9.2c7.74,0.5,15.8,1.24,22.98,3.88C109.76,20.63,116.23,32.16,117.47,47.49z"/>
			</g>
			<g id="Path_15">
				<path class="st6" d="M501.51,76.1c0.84,0.61,1.73,1.14,2.67,1.59c9.71,3.18,13.71,10.46,14.76,19.98
					c0.63,5.74,0.98,11.56,2.19,17.18c1.09,5.13,3.18,10.04,4.91,15.32c-4.75,0-10.07,0.2-15.36-0.15c-1.6-0.41-2.9-1.59-3.47-3.15
					c-1.66-6.98-2.94-14.05-4.31-21.1c-0.5-2.55-0.61-5.19-1.27-7.68c-2.3-8.79-8.25-13.25-19.31-13.67
					c-10.17-0.39-20.38-0.04-30.56-0.13c-2.9-0.03-3.69,1.24-3.67,3.96c0.1,12.61-0.06,25.21,0.12,37.82
					c0.04,3.24-0.9,4.47-4.2,4.15c-4.14-0.39-9.63,0.99-12.07-1.15c-2.1-1.85-0.89-7.59-0.9-11.62c-0.06-14.34,0.07-28.7-0.1-43.04
					c-0.04-3.57,1.01-4.72,4.68-4.68c15.29,0.2,30.58-0.06,45.85,0.19c20.73,0.32,25.4-15.4,21.83-29.82
					c-1.91-7.68-8.26-11.08-15.36-11.44c-13.32-0.68-26.71-0.32-40.07-0.38c-2.19-0.01-4.37,0.16-6.54,0.07
					c-3.28-0.15-8.83,0.51-9.4-0.86c-1.47-3.47-0.87-7.88-0.73-11.91c0.03-0.77,1.85-2.14,2.83-2.13
					c19.63,0.16,39.38-0.8,58.85,1.09c23.09,2.24,30.62,19.15,28.27,38.05C519.67,64.38,513.53,72.28,501.51,76.1z"/>
			</g>
			<g id="Path_16">
				<path class="st6" d="M590.89,79.16c0-15.07,0-30.14,0-45.22c0-6.09-0.04-6.14-6-6.15c-9.9-0.01-19.81-0.1-29.7,0.04
					c-3.18,0.04-4.28-0.9-4.28-4.2c0.03-10.26-0.12-10.26,10.25-10.26c26.95,0,53.88,0.09,80.83-0.09c3.98-0.03,4.95,1.25,4.84,4.96
					c-0.35,11.18,1.4,9.41-9.4,9.55c-7.72,0.09-15.43,0.01-23.16,0.01c-6.81,0-6.82,0.01-6.82,6.6c-0.02,30.15-0.1,60.31,0.06,90.46
					c0.02,4.07-0.9,5.95-5.28,5.36c-2.32-0.29-4.66-0.29-6.98,0c-3.67,0.44-4.39-1.3-4.37-4.52c0.12-15.51,0.04-31.03,0.04-46.54
					C590.91,79.16,590.91,79.16,590.89,79.16z"/>
			</g>
			<g id="Path_17">
				<path class="st6" d="M407.77,130.17c-4.85,0-8.95-0.31-12.97,0.09c-4.05,0.41-5.83-1.12-7.2-4.85
					c-12.77-34.56-25.72-69.04-38.62-103.54c-0.99-2.65-1.97-5.32-3.15-8.51c5.35,0,10.01-0.29,14.59,0.18
					c1.4,0.15,3.18,2.16,3.79,3.7c9.72,24.75,19.27,49.55,28.87,74.34c4.27,11.05,8.56,22.09,12.87,33.13
					C406.54,126.28,407.02,127.93,407.77,130.17z"/>
			</g>
			<g id="Path_18">
				<path class="st6" d="M297.9,130.17c2.42-6.38,4.56-12.17,6.79-17.91c5.06-13.06,10.23-26.07,15.19-39.16
					c0.92-2.43,2.14-3.35,4.75-3.28c6.38,0.16,12.8-0.1,19.18,0.18c1.68,0.24,3.17,1.21,4.07,2.65c1.72,3.29,2.87,6.88,4.69,11.49
					c-5.06,0-9.47,0.32-13.82-0.09c-4.4-0.41-6.37,1.3-7.78,5.39c-4.26,12.42-9.04,24.66-13.44,37.03c-0.96,2.71-2.2,3.96-5.26,3.79
					C307.71,129.97,303.1,130.17,297.9,130.17z"/>
			</g>
			<g id="Path_19">
				<path class="st6" d="M255.04,68.4h17.93v62.29h-17.93V68.4z"/>
			</g>
		</g>
	</g>
</g>
</svg>
