<?xml version="1.0" encoding="utf-8"?>
<!-- Generator: Adobe Illustrator 24.3.0, SVG Export Plug-In . SVG Version: 6.00 Build 0)  -->
<svg version="1.1" id="Layer_1" xmlns="http://www.w3.org/2000/svg" xmlns:xlink="http://www.w3.org/1999/xlink" x="0px" y="0px"
	 viewBox="0 0 512 512" style="enable-background:new 0 0 512 512;" xml:space="preserve">
<style type="text/css">
	.st0{fill:#FFFFFF;}
</style>
<g>
	<g>
		<path class="st0" d="M55.5,315.7C24.9,315.7,0,340.6,0,371.2s24.9,55.5,55.5,55.5s55.5-24.9,55.5-55.5
			C110.9,340.6,86.1,315.7,55.5,315.7z M55.5,409.6c-21.2,0-38.4-17.2-38.4-38.4s17.2-38.4,38.4-38.4s38.4,17.2,38.4,38.4
			S76.6,409.6,55.5,409.6z"/>
	</g>
</g>
<g>
	<g>
		<path class="st0" d="M503.5,256h-8.5v-93.9c0-38.1-27.8-69.7-64.2-75.8c-1.2-0.7-2.6-1-4.1-1H153.6c-0.3,0-0.6,0-0.9,0
			c-54.4,5.5-88.1,99-99.4,136.5H42.7c-4.7,0-8.5,3.8-8.5,8.5v34.1c0,4.7,3.8,8.5,8.5,8.5h25.6v9c-2.8-0.3-5.6-0.4-8.5-0.4
			c-21,0-41.2,7.7-56.9,21.7c-3.5,3.1-3.8,8.5-0.7,12c3.1,3.5,8.5,3.8,12,0.7c12.5-11.2,28.7-17.4,45.5-17.4
			c37.6,0,68.3,30.6,68.3,68.3c0,4.7,3.8,8.5,8.5,8.5h222.5c4.2,28.9,29,51.2,59.1,51.2s54.9-22.3,59.1-51.2h9.2
			c4.7,0,8.5-3.8,8.5-8.5v-59.7h8.5c4.7,0,8.5-3.8,8.5-8.5v-34.1C512,259.8,508.2,256,503.5,256z M154.1,102.4h264.1
			c32.9,0,59.7,26.8,59.7,59.7v85.3H358.4V128c0-4.7-3.8-8.5-8.5-8.5H147.7l-13.4-8.9C140.6,106,147.2,103.2,154.1,102.4z
			 M341.3,136.5v115.9l-31.6,31.6c-1.6,1.6-2.5,3.8-2.5,6v34.1h-59.7V136.5H341.3z M230.4,136.5v85.3H128.3l23.3-85.3L230.4,136.5
			L230.4,136.5z M121.1,122.3l14.1,9.4l-23.3,85.4l-33.4-16.7C89.8,169.7,104.3,140.7,121.1,122.3z M418.1,409.6
			c-20.6,0-37.8-14.7-41.8-34.1h83.6C456,394.9,438.7,409.6,418.1,409.6z M494.9,290.1h-8.5c-4.7,0-8.5,3.8-8.5,8.5v59.7H144.6
			c-3.4-34.4-27.3-62.8-59.3-72.9v-21c0-4.7-3.8-8.5-8.5-8.5H51.2v-17.1h8.5c3.8,0,7.2-2.5,8.2-6.2c1.5-5.3,3.2-10.7,4.9-16.1
			l42.8,21.4c1.2,0.6,2.5,0.9,3.8,0.9h110.9v93.9c0,4.7,3.8,8.5,8.5,8.5h76.8c4.7,0,8.5-3.8,8.5-8.5v-39.1l29.1-29.1h124.5
			c0,4.7,3.8,8.5,8.5,8.5h8.5L494.9,290.1L494.9,290.1z"/>
	</g>
</g>
</svg>
