<?xml version="1.0"?>
<svg xmlns="http://www.w3.org/2000/svg" width="512" height="512" viewBox="0 0 512 512"><g><path d="M494.74,134.01a39.99,39.99,0,0,0-34.06-29.74A59.714,59.714,0,0,0,404,64a60.787,60.787,0,0,0-17.05,2.44,39.862,39.862,0,0,0-22.27-10.17,60.014,60.014,0,0,0-104.8-16.11c-1.3-.11-2.59-.16-3.88-.16a48,48,0,0,0,0,96h48a48.051,48.051,0,0,0,48,48H456a40.026,40.026,0,0,0,38.74-49.99ZM306.75,120H256a32,32,0,1,1,6.17-63.4,8,8,0,0,0,8.35-3.65,44,44,0,0,1,80.3,12.91,8.034,8.034,0,0,0,8.15,6.16c.34-.01.69-.02,1.03-.02a23.931,23.931,0,0,1,10.3,2.32,59.892,59.892,0,0,0-14.42,13.84c-1.3-.11-2.59-.16-3.88-.16A48.086,48.086,0,0,0,306.75,120ZM456,168H352a32,32,0,1,1,6.17-63.4,8,8,0,0,0,8.35-3.65,43.878,43.878,0,0,1,20.71-17.66,7.774,7.774,0,0,0,.8-.31,44.058,44.058,0,0,1,58.79,30.88,8.039,8.039,0,0,0,8.15,6.16c.34-.01.69-.02,1.03-.02a23.971,23.971,0,0,1,23.24,18,23.611,23.611,0,0,1,.76,6A24.032,24.032,0,0,1,456,168Z"/><path d="M496,384H312V368a8,8,0,0,0-8-8H256v-8h48a8,8,0,0,0,6.75-12.29L256,253.67V168a8,8,0,0,0-14.75-4.29l-112,176A8,8,0,0,0,136,352H240v8H96a8.009,8.009,0,0,0-6.66,12.44L97.05,384H16a8,8,0,0,0,0,16h91.72l5.33,8H24a8,8,0,0,0,0,16H416a8,8,0,0,0,0-16H307.69a31.971,31.971,0,0,0,3.3-8H496a8,8,0,0,0,0-16ZM256,283.47,289.43,336H256ZM150.57,336,240,195.47V336ZM296,392a16.021,16.021,0,0,1-16,16H132.28l-13.64-20.46c0-.01-.01-.01-.01-.02L110.95,376H296Z"/><path d="M496,448c-11.117,0-16.162-3.027-22.55-6.86-7.14-4.285-15.233-9.14-30.782-9.14s-23.642,4.855-30.782,9.141C405.5,444.973,400.453,448,389.337,448s-16.163-3.027-22.551-6.86C359.646,436.855,351.553,432,336,432s-23.642,4.855-30.781,9.141C298.835,444.973,293.79,448,282.674,448s-16.162-3.027-22.55-6.86c-7.141-4.285-15.233-9.14-30.781-9.14s-23.643,4.855-30.783,9.141c-6.388,3.832-11.433,6.859-22.55,6.859s-16.162-3.027-22.55-6.86c-7.141-4.285-15.233-9.14-30.782-9.14s-23.644,4.855-30.784,9.14C85.505,444.973,80.458,448,69.339,448s-16.165-3.027-22.554-6.86C39.644,436.855,31.55,432,16,432a8,8,0,0,0,0,16c11.119,0,16.165,3.027,22.554,6.86C45.7,459.145,53.789,464,69.339,464s23.644-4.855,30.785-9.14c6.389-3.833,11.436-6.86,22.554-6.86s16.162,3.027,22.55,6.86c7.14,4.285,15.233,9.14,30.782,9.14s23.641-4.855,30.782-9.14c6.388-3.833,11.433-6.86,22.551-6.86s16.161,3.027,22.549,6.859c7.14,4.286,15.233,9.141,30.782,9.141s23.641-4.855,30.781-9.141C319.843,451.027,324.888,448,336,448s16.162,3.027,22.55,6.859c7.14,4.286,15.233,9.141,30.783,9.141s23.641-4.855,30.781-9.14c6.388-3.833,11.433-6.86,22.55-6.86s16.162,3.027,22.55,6.86c7.14,4.285,15.233,9.14,30.782,9.14a8,8,0,0,0,0-16Z"/><path d="M496,480c-11.117,0-16.162-3.027-22.55-6.86-7.14-4.285-15.233-9.14-30.782-9.14s-23.642,4.855-30.782,9.141C405.5,476.973,400.453,480,389.337,480s-16.163-3.027-22.551-6.86C359.646,468.855,351.553,464,336,464s-23.642,4.855-30.781,9.141C298.835,476.973,293.79,480,282.674,480s-16.162-3.027-22.55-6.86c-7.141-4.285-15.233-9.14-30.781-9.14s-23.643,4.855-30.783,9.141c-6.388,3.832-11.433,6.859-22.55,6.859s-16.162-3.027-22.55-6.86c-7.141-4.285-15.233-9.14-30.782-9.14s-23.644,4.855-30.784,9.14C85.505,476.973,80.458,480,69.339,480s-16.165-3.027-22.554-6.86C39.644,468.855,31.55,464,16,464a8,8,0,0,0,0,16c11.119,0,16.165,3.027,22.554,6.86C45.7,491.145,53.789,496,69.339,496s23.644-4.855,30.785-9.14c6.389-3.833,11.436-6.86,22.554-6.86s16.162,3.027,22.55,6.86c7.14,4.285,15.233,9.14,30.782,9.14s23.641-4.855,30.782-9.14c6.388-3.833,11.433-6.86,22.551-6.86s16.161,3.027,22.549,6.859c7.14,4.286,15.233,9.141,30.782,9.141s23.641-4.855,30.781-9.141C319.843,483.027,324.888,480,336,480s16.162,3.027,22.55,6.859c7.14,4.286,15.233,9.141,30.783,9.141s23.641-4.855,30.781-9.14c6.388-3.833,11.433-6.86,22.55-6.86s16.162,3.027,22.55,6.86c7.14,4.285,15.233,9.14,30.782,9.14a8,8,0,0,0,0-16Z"/><path d="M104,184a32,32,0,1,0-32-32A32.036,32.036,0,0,0,104,184Zm0-48a16,16,0,1,1-16,16A16.019,16.019,0,0,1,104,136Z"/><path d="M104,112a8,8,0,0,0,8-8V96a8,8,0,0,0-16,0v8A8,8,0,0,0,104,112Z"/><path d="M96,200v8a8,8,0,0,0,16,0v-8a8,8,0,0,0-16,0Z"/><path d="M143,152a8,8,0,0,0,8,8h8a8,8,0,0,0,0-16h-8A8,8,0,0,0,143,152Z"/><path d="M48,160h8a8,8,0,0,0,0-16H48a8,8,0,0,0,0,16Z"/><path d="M137.6,126.4a7.979,7.979,0,0,0,5.657-2.342l5.657-5.658A8,8,0,0,0,137.6,107.088l-5.658,5.657A8,8,0,0,0,137.6,126.4Z"/><path d="M64.745,179.941,59.088,185.6A8,8,0,1,0,70.4,196.911l5.657-5.657a8,8,0,1,0-11.314-11.313Z"/><path d="M143.255,179.94a8,8,0,0,0-11.315,11.315l5.658,5.657A8,8,0,0,0,148.912,185.6Z"/><path d="M64.745,124.059a8,8,0,1,0,11.314-11.313L70.4,107.089A8,8,0,1,0,59.088,118.4Z"/></g></svg>
