<svg id="linkedin" xmlns="http://www.w3.org/2000/svg" width="40.532" height="38.742" viewBox="0 0 40.532 38.742">
  <path id="Path_2" data-name="Path 2" d="M4.915-.668C1.943-.668,0,1.284,0,3.849A4.5,4.5,0,0,0,4.8,8.365h.056c3.03,0,4.916-2.007,4.916-4.516A4.516,4.516,0,0,0,4.915-.668Zm0,0" transform="translate(0 0.668)" fill="#fff"/>
  <path id="Path_3" data-name="Path 3" d="M8.109,198.313H16.8v26.141H8.109Zm0,0" transform="translate(-7.596 -185.711)" fill="#fff"/>
  <path id="Path_4" data-name="Path 4" d="M237.734,188.625c-4.687,0-7.83,4.4-7.83,4.4v-3.791h-8.689v26.141H229.9v-14.6a5.954,5.954,0,0,1,.286-2.121,4.756,4.756,0,0,1,4.458-3.177c3.144,0,4.4,2.4,4.4,5.911v13.984h8.688V200.391C247.737,192.361,243.45,188.625,237.734,188.625Zm0,0" transform="translate(-207.205 -176.637)" fill="#fff"/>
</svg>
