<svg xmlns="http://www.w3.org/2000/svg" width="34.945" height="33.401" viewBox="0 0 34.945 33.401">
  <g id="linkedin" transform="translate(0 0.668)">
    <path id="Path_2" data-name="Path 2" d="M4.238-.668a3.9,3.9,0,1,0-.1,7.787h.049a3.906,3.906,0,1,0,.05-7.787Zm0,0"/>
    <path id="Path_3" data-name="Path 3" d="M8.109,198.313H15.6v22.537H8.109Zm0,0" transform="translate(-7.667 -188.116)"/>
    <path id="Path_4" data-name="Path 4" d="M235.457,188.625c-4.041,0-6.751,3.8-6.751,3.8v-3.268h-7.491v22.537h7.491V199.105a5.133,5.133,0,0,1,.247-1.828,4.1,4.1,0,0,1,3.843-2.739c2.711,0,3.795,2.067,3.795,5.1v12.057h7.49V198.769C244.081,191.846,240.385,188.625,235.457,188.625Zm0,0" transform="translate(-209.136 -178.957)"/>
  </g>
</svg>
