<?xml version="1.0" encoding="utf-8"?>
<!-- Generator: Adobe Illustrator 24.3.0, SVG Export Plug-In . SVG Version: 6.00 Build 0)  -->
<svg version="1.1" id="Capa_1" xmlns="http://www.w3.org/2000/svg" xmlns:xlink="http://www.w3.org/1999/xlink" x="0px" y="0px"
	 viewBox="0 0 512 512" style="enable-background:new 0 0 512 512;" xml:space="preserve">
<style type="text/css">
	.st0{fill:#FFFFFF;}
</style>
<g>
	<path class="st0" d="M110.8,227.5h-57c-8.3,0-15,6.7-15,15v32.4c0,8.3,6.7,15,15,15h57c8.3,0,15-6.7,15-15v-32.4
		C125.8,234.2,119.1,227.5,110.8,227.5z M110.8,274.9C110.8,274.9,110.8,274.9,110.8,274.9l-57,0l0-32.4l57,0L110.8,274.9z"/>
	<path class="st0" d="M215.9,227.5h-57c-8.3,0-15,6.7-15,15v32.4c0,8.3,6.7,15,15,15h57c8.3,0,15-6.7,15-15v-32.4
		C230.9,234.2,224.2,227.5,215.9,227.5z M215.9,274.9C215.9,274.9,215.9,274.9,215.9,274.9l-57,0l0-32.4l57,0L215.9,274.9z"/>
	<path class="st0" d="M484.1,277.6l-85-59.6C347.8,182,287.6,163,225,163h-46.3l29.8-43c1.6-2.2,1.8-5.2,0.6-7.6l-12-24.2h307.5
		c4.1,0,7.5-3.4,7.5-7.5s-3.4-7.5-7.5-7.5H7.5c-4.1,0-7.5,3.4-7.5,7.5s3.4,7.5,7.5,7.5h172.8l13.3,26.9L160.4,163h-36.6
		c-4.1,0-7.5,3.4-7.5,7.5s3.4,7.5,7.5,7.5h40.5c0,0,0,0,0,0s0,0,0,0H225c35.5,0,70.2,6.4,102.7,18.8H15v-18.3c0-0.3,0.2-0.5,0.5-0.5
		h78.3c4.1,0,7.5-3.4,7.5-7.5S98,163,93.9,163H15.5C7,163,0,170,0,178.6v214.8C0,402,7,409,15.5,409h27.3
		c2.8,16.9,17.5,29.8,35.2,29.8c12,0,22.6-6,29.1-15.1c6.5,9.1,17.1,15.1,29.1,15.1c17.7,0,32.4-12.9,35.2-29.8H216
		c2.8,16.9,17.5,29.8,35.2,29.8c12,0,22.6-6,29.1-15.1c6.5,9.1,17.1,15.1,29.1,15.1c17.7,0,32.4-12.9,35.2-29.8h101.9
		c36.1,0,65.5-29.4,65.5-65.5v-12.2C512,309.9,501.6,289.8,484.1,277.6L484.1,277.6z M406.4,242.5c0.4,0,0.8,0,1.3-0.1l46.4,32.5
		l-181.1,0l0-32.4H406.4z M78,423.8c-11.4,0-20.7-9.3-20.7-20.7s9.3-20.7,20.7-20.7s20.7,9.3,20.7,20.7S89.4,423.8,78,423.8z
		 M136.2,423.8c-11.4,0-20.7-9.3-20.7-20.7s9.3-20.7,20.7-20.7s20.7,9.3,20.7,20.7S147.6,423.8,136.2,423.8z M251.2,423.8
		c-11.4,0-20.7-9.3-20.7-20.7s9.3-20.7,20.7-20.7c11.4,0,20.7,9.3,20.7,20.7C271.9,414.5,262.6,423.8,251.2,423.8z M309.4,423.8
		c-11.4,0-20.7-9.3-20.7-20.7s9.3-20.7,20.7-20.7c11.4,0,20.7,9.3,20.7,20.7S320.8,423.8,309.4,423.8z M497,343.4
		c0,27.9-22.7,50.5-50.5,50.5H401c-0.2-0.3-0.3-0.7-0.5-1l-25.3-37.7c-8.8-13.1-23.4-20.9-39.2-20.9H234.2c-4.1,0-7.5,3.4-7.5,7.5
		s3.4,7.5,7.5,7.5H336c10.7,0,20.7,5.3,26.7,14.2L383,394h-39.2c-4-15.2-18-26.5-34.5-26.5c-12,0-22.6,6-29.1,15.1
		c-6.5-9.1-17.1-15.1-29.1-15.1c-16.5,0-30.4,11.3-34.5,26.5h-46.1c-4-15.2-18-26.5-34.5-26.5c-12,0-22.6,6-29.1,15.1
		c-6.5-9.1-17.1-15.1-29.1-15.1c-16.5,0-30.4,11.3-34.5,26.5h-28c-0.3,0-0.5-0.2-0.5-0.5v-44h189.2c4.1,0,7.5-3.4,7.5-7.5
		s-3.4-7.5-7.5-7.5H15V211.9h345.5c8.8,4.7,17.5,9.9,25.8,15.6H273.1c-8.3,0-15,6.7-15,15v32.4c0,8.3,6.7,15,15,15h202.4
		c0,0,0.1,0,0.1,0c13.5,9.5,21.5,24.9,21.5,41.4V343.4z"/>
</g>
</svg>
