<svg id="Outline" height="512" viewBox="0 0 512 512" width="512" xmlns="http://www.w3.org/2000/svg"><path d="m256 16a192.024 192.024 0 0 0 -85.764 363.823l58.2 103.906a24.022 24.022 0 0 0 20.941 12.271h13.246a24.022 24.022 0 0 0 20.939-12.271l58.2-103.906a192.012 192.012 0 0 0 106.238-171.823c0-105.869-86.131-192-192-192zm148.343 286.753a176.5 176.5 0 0 1 -71.825 63.787 7.989 7.989 0 0 0 -3.5 3.293l-59.418 106.077a8.008 8.008 0 0 1 -6.98 4.09h-13.243a8.008 8.008 0 0 1 -6.98-4.09l-59.418-106.077a7.989 7.989 0 0 0 -3.5-3.293 175.965 175.965 0 0 1 76.521-334.54c97.046 0 176 78.954 176 176a175.387 175.387 0 0 1 -27.657 94.753z"/><path d="m256 64c-79.4 0-144 64.6-144 144s64.6 144 144 144 144-64.6 144-144-64.6-144-144-144zm0 272a128 128 0 1 1 128-128 128.145 128.145 0 0 1 -128 128z"/><path d="m288 112h-80a8 8 0 0 0 -8 8v176a8 8 0 0 0 8 8h32a8 8 0 0 0 8-8v-72h40a40.045 40.045 0 0 0 40-40v-32a40.045 40.045 0 0 0 -40-40zm24 72a24.028 24.028 0 0 1 -24 24h-48a8 8 0 0 0 -8 8v72h-16v-160h72a24.028 24.028 0 0 1 24 24z"/><path d="m272 144h-32a8 8 0 0 0 -8 8v32a8 8 0 0 0 8 8h32a24 24 0 0 0 0-48zm0 32h-24v-16h24a8 8 0 0 1 0 16z"/></svg>