<?xml version="1.0" encoding="utf-8"?>
<!-- Generator: Adobe Illustrator 24.3.0, SVG Export Plug-In . SVG Version: 6.00 Build 0)  -->
<svg version="1.1" id="Capa_1" xmlns="http://www.w3.org/2000/svg" xmlns:xlink="http://www.w3.org/1999/xlink" x="0px" y="0px"
	 viewBox="0 0 480 480" style="enable-background:new 0 0 480 480;" xml:space="preserve">
<style type="text/css">
	.st0{fill:#FFFFFF;}
</style>
<g>
	<g>
		<circle class="st0" cx="88" cy="328" r="8"/>
	</g>
</g>
<g>
	<g>
		<circle class="st0" cx="184" cy="328" r="8"/>
	</g>
</g>
<g>
	<g>
		<circle class="st0" cx="392" cy="328" r="8"/>
	</g>
</g>
<g>
	<g>
		<path class="st0" d="M480,176v-24c0-4.4-3.6-8-8-8H251.3l-32-32H84.7l-32,32H8c-4.4,0-8,3.6-8,8v176c0,4.4,3.6,8,8,8h40.8
			c4.4,21.6,25.5,35.6,47.2,31.2c15.7-3.2,28-15.5,31.2-31.2h17.6c4.4,21.6,25.5,35.6,47.2,31.2c15.7-3.2,28-15.5,31.2-31.2h129.6
			c4.4,21.6,25.5,35.6,47.2,31.2c15.7-3.2,28-15.5,31.2-31.2H472c4.4,0,8-3.6,8-8v-80c0-0.1-0.1-0.2-0.1-0.3c0-0.9-0.2-1.9-0.6-2.7
			L444,160h20v16H480z M288,160h64v64h-64V160z M272,160v64h-64v-64H272z M91.3,128h121.4l16,16H75.3L91.3,128z M192,160v64h-64v-64
			H192z M48,160h64v64H48V160z M16,272h16v16H16V272z M88,352c-13.3,0-24-10.7-24-24s10.7-24,24-24s24,10.7,24,24S101.3,352,88,352z
			 M184,352c-13.3,0-24-10.7-24-24s10.7-24,24-24s24,10.7,24,24S197.3,352,184,352z M392,352c-13.3,0-24-10.7-24-24s10.7-24,24-24
			s24,10.7,24,24S405.3,352,392,352z M464,288h-16v16h16v16h-32.8c0-0.1-0.1-0.3-0.1-0.4c-0.5-2.3-1.2-4.5-2.1-6.7
			c-0.3-0.8-0.7-1.5-1.1-2.2c-0.7-1.5-1.4-2.9-2.3-4.3c-0.5-0.8-1.1-1.5-1.7-2.3c-0.9-1.2-1.8-2.3-2.8-3.4c-0.7-0.7-1.4-1.4-2.1-2
			c-1.1-1-2.2-1.9-3.4-2.8c-0.8-0.6-1.6-1.1-2.4-1.7c-1.3-0.8-2.6-1.5-4-2.2c-0.8-0.4-1.7-0.8-2.6-1.2c-1.6-0.6-3.2-1.1-4.8-1.5
			c-0.8-0.2-1.5-0.5-2.4-0.6c-5-1-10.2-1-15.2,0c-0.8,0.2-1.6,0.4-2.4,0.6c-1.6,0.4-3.2,0.9-4.8,1.5c-0.9,0.4-1.7,0.8-2.6,1.2
			c-1.4,0.6-2.7,1.4-4,2.2c-0.8,0.5-1.6,1.1-2.4,1.7c-1.2,0.9-2.3,1.8-3.4,2.8c-0.7,0.7-1.4,1.3-2.1,2c-1,1.1-2,2.2-2.8,3.4
			c-0.6,0.8-1.2,1.5-1.7,2.3c-0.9,1.4-1.6,2.8-2.3,4.2c-0.4,0.7-0.8,1.4-1.1,2.2c-0.9,2.2-1.6,4.4-2.1,6.7c0,0.1-0.1,0.3-0.1,0.4
			H223.2c0-0.1-0.1-0.3-0.1-0.4c-0.5-2.3-1.2-4.5-2.1-6.7c-0.3-0.8-0.7-1.5-1.1-2.2c-0.7-1.5-1.5-2.9-2.3-4.2
			c-0.5-0.8-1.1-1.5-1.7-2.3c-0.9-1.2-1.8-2.3-2.8-3.4c-0.7-0.7-1.4-1.4-2.1-2c-1.1-1-2.2-1.9-3.4-2.8c-0.8-0.6-1.6-1.1-2.4-1.7
			c-1.3-0.8-2.6-1.5-4-2.2c-0.8-0.4-1.7-0.8-2.6-1.2c-1.6-0.6-3.2-1.1-4.8-1.5c-0.8-0.2-1.5-0.5-2.4-0.6c-5-1-10.2-1-15.2,0
			c-0.8,0.2-1.6,0.4-2.4,0.6c-1.6,0.4-3.2,0.9-4.8,1.5c-0.9,0.4-1.7,0.8-2.6,1.2c-1.4,0.6-2.7,1.4-4,2.2c-0.8,0.5-1.6,1.1-2.4,1.7
			c-1.2,0.9-2.3,1.8-3.4,2.8c-0.7,0.7-1.4,1.3-2.1,2c-1,1.1-2,2.2-2.8,3.4c-0.6,0.8-1.2,1.5-1.7,2.3c-0.9,1.4-1.6,2.8-2.3,4.2
			c-0.4,0.7-0.8,1.4-1.1,2.2c-0.9,2.2-1.6,4.4-2.1,6.7c0,0.1-0.1,0.3-0.1,0.4h-17.5c0-0.1-0.1-0.3-0.1-0.4c-0.5-2.3-1.2-4.5-2.1-6.7
			c-0.3-0.8-0.7-1.5-1.1-2.2c-0.7-1.5-1.5-2.9-2.3-4.2c-0.5-0.8-1.1-1.5-1.7-2.3c-0.9-1.2-1.8-2.3-2.8-3.4c-0.7-0.7-1.4-1.4-2.1-2
			c-1.1-1-2.2-1.9-3.4-2.8c-0.8-0.6-1.6-1.1-2.4-1.7c-1.3-0.8-2.6-1.5-4-2.2c-0.8-0.4-1.7-0.8-2.6-1.2c-1.6-0.6-3.2-1.1-4.8-1.5
			c-0.8-0.2-1.5-0.5-2.4-0.6c-5-1-10.2-1-15.2,0c-0.8,0.2-1.6,0.4-2.4,0.6c-1.6,0.4-3.2,0.9-4.8,1.5c-0.9,0.4-1.7,0.8-2.6,1.2
			c-1.4,0.6-2.7,1.4-4,2.2c-0.8,0.5-1.6,1.1-2.4,1.7c-1.2,0.9-2.3,1.8-3.4,2.8c-0.7,0.7-1.4,1.3-2.1,2c-1,1.1-2,2.2-2.8,3.4
			c-0.6,0.8-1.2,1.5-1.7,2.3c-0.9,1.4-1.6,2.8-2.3,4.2c-0.4,0.7-0.8,1.4-1.1,2.2c-0.9,2.2-1.6,4.4-2.1,6.7c0,0.1-0.1,0.3-0.1,0.4H16
			V304h24c4.4,0,8-3.6,8-8v-32c0-4.4-3.6-8-8-8H16v-96h16v72c0,4.4,3.6,8,8,8h319.4L464,254.9V288z M459.2,238.1L368,225V160h58.7
			L459.2,238.1z"/>
	</g>
</g>
<g>
	<g>
		<rect x="240" y="288" class="st0" width="32" height="16"/>
	</g>
</g>
<g>
	<g>
		<rect x="304" y="288" class="st0" width="32" height="16"/>
	</g>
</g>
</svg>
