<?xml version="1.0" encoding="utf-8"?>
<!-- Generator: Adobe Illustrator 24.3.0, SVG Export Plug-In . SVG Version: 6.00 Build 0)  -->
<svg version="1.1" id="Layer_1" xmlns="http://www.w3.org/2000/svg" xmlns:xlink="http://www.w3.org/1999/xlink" x="0px" y="0px"
	 viewBox="0 0 512 512" style="enable-background:new 0 0 512 512;" xml:space="preserve">
<style type="text/css">
	.st0{fill:#FFFFFF;}
</style>
<path class="st0" d="M510.9,497.4l-83.6-161l15.2-12.7c2.3-1.9,3.6-4.7,3.6-7.7V74.5C446,33.4,412.6,0,371.5,0h-231
	C99.4,0,66,33.4,66,74.5V109c0,5.5,4.5,10,10,10c5.5,0,10-4.5,10-10V74.5C86,44.4,110.4,20,140.5,20h231c30.1,0,54.5,24.4,54.5,54.5
	v236.8L347.5,377H319v-14.5c0-5.5-4.5-10-10-10s-10,4.5-10,10V377h-30.4v-14.5c0-5.5-4.5-10-10-10c-5.5,0-10,4.5-10,10V377h-30.4
	v-14.5c0-5.5-4.5-10-10-10c-5.5,0-10,4.5-10,10V377h-33.8L86,311.3V203c0-5.5-4.5-10-10-10c-5.5,0-10,4.5-10,10v113
	c0,3,1.3,5.8,3.6,7.7l15.2,12.7l-83.6,161c-2.5,4.9-0.6,10.9,4.3,13.5c1.5,0.8,3.1,1.1,4.6,1.1c3.6,0,7.1-2,8.9-5.4l81.6-157.1
	l13.8,11.6L61.7,498.4c-2,5.2,0.6,10.9,5.8,12.9c1.2,0.4,2.4,0.7,3.6,0.7c4,0,7.8-2.4,9.3-6.4L90.9,478H345c5.5,0,10-4.5,10-10
	s-4.5-10-10-10H98.6l7.7-20.1c0.4,0.1,0.9,0.1,1.3,0.1h296.5c0.6,0,1.1-0.1,1.6-0.1l26,67.7c1.5,4,5.3,6.4,9.3,6.4
	c1.2,0,2.4-0.2,3.6-0.7c5.2-2,7.7-7.8,5.8-12.9l-52.6-137.3l13.8-11.6l81.6,157.1c1.8,3.4,5.3,5.4,8.9,5.4c1.6,0,3.1-0.4,4.6-1.1
	C511.5,508.3,513.4,502.3,510.9,497.4z M398.1,418H113.9l16.6-43.3l23.9,20c1.8,1.5,4.1,2.3,6.4,2.3h190.3c2.3,0,4.6-0.8,6.4-2.3
	l23.9-20L398.1,418z"/>
<path class="st0" d="M386,458c-2.6,0-5.2,1.1-7.1,2.9c-1.9,1.9-2.9,4.4-2.9,7.1c0,2.6,1.1,5.2,2.9,7.1c1.9,1.9,4.4,2.9,7.1,2.9
	c2.6,0,5.2-1.1,7.1-2.9c1.9-1.9,2.9-4.4,2.9-7.1c0-2.6-1.1-5.2-2.9-7.1C391.2,459.1,388.6,458,386,458z"/>
<path class="st0" d="M398,102c0-16.5-13.5-30-30-30H144c-16.5,0-30,13.5-30,30v88c0,16.5,13.5,30,30,30h224c16.5,0,30-13.5,30-30
	V102z M134,190v-88c0-5.5,4.5-10,10-10h102v108H144C138.5,200,134,195.5,134,190z M378,190c0,5.5-4.5,10-10,10H266V92h102
	c5.5,0,10,4.5,10,10V190z"/>
<path class="st0" d="M147.7,314c18.7,0,34-15.3,34-34c0-18.8-15.3-34-34-34s-34,15.3-34,34C113.7,298.7,128.9,314,147.7,314z
	 M147.7,266c7.7,0,14,6.3,14,14c0,7.7-6.3,14-14,14s-14-6.3-14-14C133.7,272.3,139.9,266,147.7,266z"/>
<path class="st0" d="M364,246c-18.8,0-34,15.3-34,34c0,18.7,15.3,34,34,34c18.7,0,34-15.3,34-34C398,261.3,382.7,246,364,246z
	 M364,294c-7.7,0-14-6.3-14-14c0-7.7,6.3-14,14-14c7.7,0,14,6.3,14,14C378,287.7,371.7,294,364,294z"/>
<path class="st0" d="M309,246.1H208.3c-5.5,0-10,4.5-10,10s4.5,10,10,10H309c5.5,0,10-4.5,10-10S314.5,246.1,309,246.1z"/>
<path class="st0" d="M309,294H208.3c-5.5,0-10,4.5-10,10c0,5.5,4.5,10,10,10H309c5.5,0,10-4.5,10-10C319,298.5,314.5,294,309,294z"
	/>
<path class="st0" d="M76,164.3c2.6,0,5.2-1.1,7.1-2.9c1.9-1.9,2.9-4.4,2.9-7.1c0-2.6-1.1-5.2-2.9-7.1c-1.9-1.9-4.4-2.9-7.1-2.9
	c-2.6,0-5.2,1.1-7.1,2.9c-1.9,1.9-2.9,4.4-2.9,7.1c0,2.6,1.1,5.2,2.9,7.1C70.8,163.3,73.4,164.3,76,164.3z"/>
</svg>
