<?xml version="1.0" encoding="utf-8"?>
<!-- Generator: Adobe Illustrator 24.3.0, SVG Export Plug-In . SVG Version: 6.00 Build 0)  -->
<svg version="1.1" id="Layer_1" xmlns="http://www.w3.org/2000/svg" xmlns:xlink="http://www.w3.org/1999/xlink" x="0px" y="0px"
	 viewBox="0 0 512 512" style="enable-background:new 0 0 512 512;" xml:space="preserve">
<style type="text/css">
	.st0{fill:#FFFFFF;}
</style>
<g>
	<path class="st0" d="M416.7,78.2c8.3,0,15-6.7,15-15V31.1c0-8.3-6.7-15-15-15s-15,6.7-15,15v32.1C401.7,71.5,408.4,78.2,416.7,78.2
		z"/>
	<path class="st0" d="M95.3,337.4c-8.3,0-15,6.7-15,15v32.1c0,8.3,6.7,15,15,15s15-6.7,15-15v-32.1
		C110.3,344.1,103.6,337.4,95.3,337.4z"/>
	<path class="st0" d="M416.7,174.6c8.3,0,15-6.7,15-15v-32.1c0-8.3-6.7-15-15-15s-15,6.7-15,15v32.1
		C401.7,167.9,408.4,174.6,416.7,174.6z"/>
	<path class="st0" d="M95.3,433.8c-8.3,0-15,6.7-15,15v32.1c0,8.3,6.7,15,15,15s15-6.7,15-15v-32.1
		C110.3,440.5,103.6,433.8,95.3,433.8z"/>
	<path class="st0" d="M288.1,241c-8.3,0-15,6.7-15,15s6.7,15,15,15h32.1c8.3,0,15-6.7,15-15s-6.7-15-15-15H288.1z"/>
	<path class="st0" d="M191.7,241c-8.3,0-15,6.7-15,15s6.7,15,15,15h32.1c8.3,0,15-6.7,15-15s-6.7-15-15-15H191.7z"/>
	<path class="st0" d="M384.5,271c26,0,47.1-21.1,47.1-47.1c0-8.3-6.7-15-15-15s-15,6.7-15,15c0,9.4-7.7,17.1-17.1,17.1
		c-8.3,0-15,6.7-15,15S376.2,271,384.5,271z"/>
	<path class="st0" d="M127.5,241c-26,0-47.1,21.1-47.1,47.1c0,8.3,6.7,15,15,15s15-6.7,15-15c0-9.4,7.7-17.1,17.1-17.1h0
		c8.3,0,15-6.7,15-15S135.7,241,127.5,241z"/>
	<path class="st0" d="M497,0c-8.3,0-15,6.7-15,15v208.9c0,53.8-43.5,97.5-97.5,97.5H175.7c-8.3,0-15,6.7-15,15V497
		c0,8.3,6.7,15,15,15s15-6.7,15-15V351.3h193.9c70.4,0,127.5-57,127.5-127.5V15C512,6.7,505.3,0,497,0z"/>
	<path class="st0" d="M336.3,190.7c8.3,0,15-6.7,15-15V15c0-8.3-6.7-15-15-15s-15,6.7-15,15v145.7H127.5C57.1,160.7,0,217.6,0,288.1
		V497c0,8.3,6.7,15,15,15s15-6.7,15-15V288.1c0-53.8,43.6-97.5,97.5-97.5L336.3,190.7z"/>
</g>
</svg>
