<?xml version="1.0" encoding="utf-8"?>
<!-- Generator: Adobe Illustrator 24.3.0, SVG Export Plug-In . SVG Version: 6.00 Build 0)  -->
<svg version="1.1" id="Capa_1" xmlns="http://www.w3.org/2000/svg" xmlns:xlink="http://www.w3.org/1999/xlink" x="0px" y="0px"
	 viewBox="0 0 512 512" style="enable-background:new 0 0 512 512;" xml:space="preserve">
<style type="text/css">
	.st0{fill:#FFFFFF;}
</style>
<g>
	<path class="st0" d="M461.9,430.5h-23.6l-112.4-379c-4.4-15-13.4-27.8-25.9-37.2C287.5,4.9,272.6,0,257,0c-15.6,0-30.5,4.9-43,14.3
		c-12.5,9.4-21.5,22.2-25.9,37.2l-42.4,142.9c-1.2,4,1.1,8.1,5.1,9.3c4,1.2,8.1-1.1,9.3-5.1l4.9-16.6h184l22.8,77H142.1l9.4-31.7
		c1.2-4-1.1-8.1-5.1-9.3c-4-1.2-8.1,1.1-9.3,5.1L75.7,430.5H50.1c-22.5,0-40.8,18.3-40.8,40.8S27.6,512,50.1,512h411.8
		c22.5,0,40.8-18.3,40.8-40.8S484.4,430.5,461.9,430.5L461.9,430.5z M222.9,26.3c9.9-7.4,21.7-11.3,34-11.3
		c25,0,47.4,16.7,54.5,40.7l5.7,19.3H196.7l5.7-19.3C205.9,43.9,213,33.7,222.9,26.3L222.9,26.3z M169.4,167.1l22.8-77h129.4
		l22.8,77H169.4z M110.4,366.2h207.9c4.1,0,7.5-3.4,7.5-7.5s-3.4-7.5-7.5-7.5H114.8l22.8-77h238.6l22.8,77h-50.8
		c-4.1,0-7.5,3.4-7.5,7.5s3.4,7.5,7.5,7.5h55.3l19.1,64.4H91.3L110.4,366.2z M461.9,497H50.1c-14.2,0-25.8-11.6-25.8-25.8
		s11.6-25.8,25.8-25.8h411.8c14.2,0,25.8,11.6,25.8,25.8S476.1,497,461.9,497z"/>
</g>
</svg>
