<?xml version="1.0" encoding="utf-8"?>
<!-- Generator: Adobe Illustrator 24.3.0, SVG Export Plug-In . SVG Version: 6.00 Build 0)  -->
<svg version="1.1" id="Capa_1" xmlns="http://www.w3.org/2000/svg" xmlns:xlink="http://www.w3.org/1999/xlink" x="0px" y="0px"
	 viewBox="0 0 511 511" style="enable-background:new 0 0 511 511;" xml:space="preserve">
<style type="text/css">
	.st0{fill:#FFFFFF;}
</style>
<g>
	<path class="st0" d="M471.5,40h-280h-32h-120C17.7,40,0,57.7,0,79.5v112v32v32v32v144C0,453.3,17.7,471,39.5,471h392h32h8
		c21.8,0,39.5-17.7,39.5-39.5v-208v-32v-112C511,57.7,493.3,40,471.5,40z M496,280h-57v-17h57V280z M496,152h-89v-17h89V152z
		 M496,79.5V120h-96.5c-4.1,0-7.5,3.4-7.5,7.5v32c0,4.1,3.4,7.5,7.5,7.5H496v17H199l0-129h89v32.5c0,4.1,3.4,7.5,7.5,7.5h64
		c4.1,0,7.5-3.4,7.5-7.5V55h25v32.5c0,4.1,3.4,7.5,7.5,7.5h72c4.1,0,7.5-3.4,7.5-7.5V56.2C488.9,59.4,496,68.6,496,79.5z M303,55h49
		v25h-49V55z M407,55h57v25h-57V55z M95,55h25v25H95V55z M39.5,55H80v32.5c0,4.1,3.4,7.5,7.5,7.5h40c4.1,0,7.5-3.4,7.5-7.5V55h17
		v129H15v-17h40.5c4.1,0,7.5-3.4,7.5-7.5v-40c0-4.1-3.4-7.5-7.5-7.5H15V79.5C15,66,26,55,39.5,55z M76.4,263l43.6,43.6V400h-17
		v-80.5c0-0.2,0-0.5,0-0.7c0-0.1,0-0.2,0-0.3c0-0.1,0-0.3-0.1-0.4c0-0.1-0.1-0.2-0.1-0.4c0-0.1-0.1-0.2-0.1-0.4
		c0-0.1-0.1-0.2-0.1-0.3s-0.1-0.2-0.1-0.3c0-0.1-0.1-0.2-0.1-0.3c-0.1-0.1-0.1-0.2-0.2-0.3c-0.1-0.1-0.1-0.2-0.2-0.3
		c-0.1-0.1-0.1-0.2-0.2-0.3c-0.1-0.1-0.2-0.2-0.2-0.3c-0.1-0.1-0.1-0.2-0.2-0.3c-0.2-0.2-0.3-0.4-0.5-0.6l-32-32
		c-0.2-0.2-0.4-0.3-0.6-0.5c-0.1-0.1-0.2-0.1-0.3-0.2c-0.1-0.1-0.2-0.2-0.3-0.2c-0.1-0.1-0.2-0.1-0.3-0.2c-0.1-0.1-0.2-0.1-0.3-0.2
		c-0.1-0.1-0.2-0.1-0.3-0.2c-0.1-0.1-0.2-0.1-0.3-0.2c-0.1,0-0.2-0.1-0.3-0.1c-0.1,0-0.2-0.1-0.4-0.1c-0.1,0-0.2-0.1-0.3-0.1
		c-0.1,0-0.3-0.1-0.4-0.1c-0.1,0-0.2,0-0.4-0.1c-0.1,0-0.2,0-0.4-0.1c-0.2,0-0.4,0-0.6,0c0,0-0.1,0-0.1,0H15v-17L76.4,263L76.4,263z
		 M15,343h25v57H15V343z M15,127h33v25H15V127z M15,431.5V415h32.5c4.1,0,7.5-3.4,7.5-7.5v-72c0-4.1-3.4-7.5-7.5-7.5H15v-33h45.4
		L88,322.6v84.9c0,4.1,3.4,7.5,7.5,7.5h32c4.1,0,7.5-3.4,7.5-7.5v-104c0-0.2,0-0.5,0-0.7c0-0.1,0-0.2,0-0.3c0-0.1,0-0.3-0.1-0.4
		c0-0.1-0.1-0.2-0.1-0.4c0-0.1-0.1-0.2-0.1-0.4c0-0.1-0.1-0.2-0.1-0.3s-0.1-0.2-0.1-0.3c0-0.1-0.1-0.2-0.1-0.3
		c-0.1-0.1-0.1-0.2-0.2-0.3c-0.1-0.1-0.1-0.2-0.2-0.3c-0.1-0.1-0.1-0.2-0.2-0.3c-0.1-0.1-0.2-0.2-0.2-0.3c-0.1-0.1-0.1-0.2-0.2-0.3
		c-0.2-0.2-0.3-0.4-0.5-0.6l-48-48c-0.2-0.2-0.4-0.3-0.6-0.5c-0.1-0.1-0.2-0.1-0.3-0.2c-0.1-0.1-0.2-0.2-0.3-0.2
		c-0.1-0.1-0.2-0.1-0.3-0.2c-0.1-0.1-0.2-0.1-0.3-0.2s-0.2-0.1-0.3-0.2c-0.1-0.1-0.2-0.1-0.3-0.2c-0.1,0-0.2-0.1-0.3-0.1
		c-0.1,0-0.2-0.1-0.4-0.1c-0.1,0-0.2-0.1-0.3-0.1c-0.1,0-0.3-0.1-0.4-0.1c-0.1,0-0.2,0-0.4-0.1c-0.1,0-0.2,0-0.4-0.1
		c-0.2,0-0.4,0-0.6,0c0,0-0.1,0-0.1,0H15v-17h137l0,225H39.5C26,456,15,445,15,431.5z M199,456V231l139.3,0l82.5,225H199z
		 M436.7,456l-86.2-235.1c-1.1-3-3.9-4.9-7-4.9l-152,0c-4.1,0-7.5,3.4-7.5,7.5V456h-17l0-232.5c0-2-0.8-3.9-2.2-5.3
		c-1.4-1.4-3.3-2.2-5.3-2.2H15v-17h144.5c4.1,0,7.5-3.4,7.5-7.5V55h17l0,136.5c0,2,0.8,3.9,2.2,5.3c1.4,1.4,3.3,2.2,5.3,2.2H496v17
		H375.5c-2.5,0-4.7,1.2-6.1,3.2c-1.4,2-1.7,4.6-0.9,6.9L452.8,456H436.7z M471.5,456h-2.8l-82.5-225H496v17h-64.5
		c-4.1,0-7.5,3.4-7.5,7.5v32c0,4.1,3.4,7.5,7.5,7.5H496v136.5C496,445,485,456,471.5,456z"/>
	<path class="st0" d="M335,287.5v-32c0-4.1-3.4-7.5-7.5-7.5h-80c-17.4,0-31.5,14.1-31.5,31.5v56c0,4.1,3.4,7.5,7.5,7.5h32
		c4.1,0,7.5-3.4,7.5-7.5V295h64.5C331.6,295,335,291.6,335,287.5z M320,280h-64.5c-4.1,0-7.5,3.4-7.5,7.5V328h-17v-48.5
		c0-9.1,7.4-16.5,16.5-16.5H320V280z"/>
	<path class="st0" d="M255.5,360h-32c-4.1,0-7.5,3.4-7.5,7.5v64c0,4.1,3.4,7.5,7.5,7.5h32c4.1,0,7.5-3.4,7.5-7.5v-64
		C263,363.4,259.6,360,255.5,360z M248,424h-17v-49h17V424z"/>
	<path class="st0" d="M359.5,120H263V95.5c0-4.1-3.4-7.5-7.5-7.5h-32c-4.1,0-7.5,3.4-7.5,7.5v40c0,17.4,14.1,31.5,31.5,31.5h112
		c4.1,0,7.5-3.4,7.5-7.5v-32C367,123.4,363.6,120,359.5,120z M352,152H247.5c-9.1,0-16.5-7.4-16.5-16.5V103h17v24.5
		c0,4.1,3.4,7.5,7.5,7.5H352V152z"/>
	<path class="st0" d="M296,351.5v78c0,5.2,4.3,9.5,9.5,9.5h46c4.1,0,7.5-3.4,7.5-7.5v-78c0-5.2-4.3-9.5-9.5-9.5h-46
		C299.4,344,296,347.4,296,351.5z M311,359h33v65h-33V359z"/>
	<path class="st0" d="M87.5,167h40c4.1,0,7.5-3.4,7.5-7.5v-40c0-4.1-3.4-7.5-7.5-7.5h-40c-4.1,0-7.5,3.4-7.5,7.5v40
		C80,163.6,83.4,167,87.5,167z M95,127h25v25H95V127z"/>
</g>
</svg>
