<?xml version="1.0" encoding="utf-8"?>
<!-- Generator: Adobe Illustrator 24.3.0, SVG Export Plug-In . SVG Version: 6.00 Build 0)  -->
<svg version="1.1" id="_x33_0_A_seat" xmlns="http://www.w3.org/2000/svg" xmlns:xlink="http://www.w3.org/1999/xlink" x="0px"
	 y="0px" viewBox="0 0 512 512" style="enable-background:new 0 0 512 512;" xml:space="preserve">
<style type="text/css">
	.st0{fill:#FFFFFF;}
</style>
<path class="st0" d="M485.3,80C466.2,36.1,423.9,8,376,8s-90.2,28.1-109.3,72H248v56h17.4l12.8,64h-16l11.2,56h15.8l8,48H312v184H40
	v16h432v-16h-32V304h14.8l8-48h15.8l11.2-56h-16l12.8-64H504V80H485.3z M376,24c39.1,0,73.9,21.7,91.6,56H284.4
	C302.1,45.7,336.9,24,376,24L376,24z M351.2,200l-2.4-24h54.3l-2.4,24H351.2z M347.2,160l-2.4-24h62.3l-2.4,24H347.2z M328.8,136
	l2.4,24h-44.6l-4.8-24H328.8z M289.8,176h43l2.4,24h-40.6L289.8,176z M424,488h-96V304h96V488z M441.2,288H310.8l-5.3-32h141.1
	L441.2,288z M465.4,240H286.6l-4.8-24h188.5L465.4,240z M416.8,200l2.4-24h43l-4.8,24H416.8z M465.4,160h-44.6l2.4-24h47L465.4,160z
	 M488,120H264V96h224V120z"/>
<path class="st0" d="M488,488h16v16h-16V488z"/>
<path class="st0" d="M8,488h16v16H8V488z"/>
<path class="st0" d="M336,48h16v16h-16V48z"/>
<path class="st0" d="M368,48h16v16h-16V48z"/>
<path class="st0" d="M400,48h16v16h-16V48z"/>
<path class="st0" d="M59.1,248h23.2l64-40H192c12.6,0,32-17.2,32-32c0-21.8-28.6-32-48-32c-1.7,0-3.6,0.1-5.7,0.2L105.9,112H86.2
	l8.5,42.5c-12.3,2.1-22.6,3.9-28,4.9L35.3,128H13.8l20,80h45.3L59.1,248z M88.2,225.4l12.7-25.4h28L88.2,225.4z M106.2,130
	l34.7,17.3c-9.8,1.3-20.3,2.9-30.3,4.5L106.2,130z M46.2,192l-10.2-40.6l25.2,25.2l4.1-0.8c0.9-0.2,86.3-15.9,110.6-15.9
	c14.5,0,32,7.1,32,16c0,5.2-11.5,15.9-16,16h-41.6c-1.9-4.3-6-8-14.4-8H91.1l-4,8L46.2,192z"/>
<path class="st0" d="M104,288h16v16h-16V288z"/>
<path class="st0" d="M200,256v16h8c4.4,0,8,3.6,8,8s-3.6,8-8,8h-72v16h72c13.2,0,24-10.8,24-24s-10.8-24-24-24H200z"/>
<path class="st0" d="M16,80h16v16H16V80z"/>
<path class="st0" d="M144,72c0-13.2-10.8-24-24-24h-8v16h8c4.4,0,8,3.6,8,8s-3.6,8-8,8H48v16h72C133.2,96,144,85.2,144,72z"/>
</svg>
