<?xml version="1.0" encoding="utf-8"?>
<!-- Generator: Adobe Illustrator 24.3.0, SVG Export Plug-In . SVG Version: 6.00 Build 0)  -->
<svg version="1.1" id="Layer_1" xmlns="http://www.w3.org/2000/svg" xmlns:xlink="http://www.w3.org/1999/xlink" x="0px" y="0px"
	 viewBox="0 0 512 512" style="enable-background:new 0 0 512 512;" xml:space="preserve">
<style type="text/css">
	.st0{fill:#FFFFFF;}
</style>
<g>
	<path class="st0" d="M494.7,134c-4.1-16-17.7-27.8-34.1-29.7C452.4,80.1,429.6,63.9,404,64c-5.8,0-11.5,0.8-17,2.4
		c-6.2-5.6-14-9.2-22.3-10.2C353.8,25,319.6,8.4,288.3,19.3c-11.3,3.9-21.2,11.2-28.4,20.8c-1.3-0.1-2.6-0.2-3.9-0.2
		c-26.5,0-48,21.5-48,48c0,26.5,21.5,48,48,48h48c0,26.5,21.5,48,48,48h104c22.1,0,40-17.9,40-40.1C496,140.6,495.6,137.3,494.7,134
		z M306.8,120H256c-17.7,0-32-14.3-32-32s14.3-32,32-32c2.1,0,4.1,0.2,6.2,0.6c3.3,0.6,6.6-0.8,8.4-3.7
		c12.7-20.7,39.8-27.2,60.5-14.4c10,6.1,17.1,16,19.8,27.3c0.9,3.7,4.3,6.3,8.1,6.2c0.3,0,0.7,0,1,0c3.6,0,7.1,0.8,10.3,2.3
		c-5.5,3.8-10.4,8.5-14.4,13.8c-1.3-0.1-2.6-0.2-3.9-0.2C331.7,88,313.6,100.8,306.8,120z M456,168H352c-17.7,0-32-14.3-32-32
		c0-17.7,14.3-32,32-32c2.1,0,4.1,0.2,6.2,0.6c3.3,0.6,6.6-0.8,8.4-3.7c4.9-7.9,12.1-14.1,20.7-17.7c0.3-0.1,0.5-0.2,0.8-0.3
		c22.7-8.8,48.2,2.5,57,25.1c0.7,1.9,1.3,3.8,1.8,5.7c0.9,3.7,4.3,6.3,8.1,6.2c0.3,0,0.7,0,1,0c10.9,0,20.5,7.4,23.2,18
		c0.5,2,0.8,4,0.8,6C480,157.2,469.2,168,456,168z"/>
	<path class="st0" d="M496,384H312v-16c0-4.4-3.6-8-8-8h-48v-8h48c4.4,0,8-3.6,8-8c0-1.5-0.4-3-1.2-4.3l-54.8-86V168
		c0-4.4-3.6-8-8-8c-2.7,0-5.3,1.4-6.7,3.7l-112,176c-2.4,3.7-1.3,8.7,2.5,11c1.3,0.8,2.8,1.2,4.3,1.2h104v8H96c-4.4,0-8,3.6-8,8
		c0,1.6,0.5,3.1,1.3,4.4l7.7,11.6H16c-4.4,0-8,3.6-8,8s3.6,8,8,8h91.7l5.3,8H24c-4.4,0-8,3.6-8,8s3.6,8,8,8h392c4.4,0,8-3.6,8-8
		s-3.6-8-8-8H307.7c1.5-2.5,2.6-5.2,3.3-8h185c4.4,0,8-3.6,8-8S500.4,384,496,384z M256,283.5l33.4,52.5H256V283.5z M150.6,336
		L240,195.5V336H150.6z M296,392c0,8.8-7.2,16-16,16H132.3l-13.6-20.5c0,0,0,0,0,0l-7.7-11.5H296V392z"/>
	<path class="st0" d="M496,448c-11.1,0-16.2-3-22.5-6.9c-7.1-4.3-15.2-9.1-30.8-9.1s-23.6,4.9-30.8,9.1c-6.4,3.8-11.4,6.9-22.5,6.9
		s-16.2-3-22.6-6.9c-7.1-4.3-15.2-9.1-30.8-9.1s-23.6,4.9-30.8,9.1c-6.4,3.8-11.4,6.9-22.5,6.9s-16.2-3-22.5-6.9
		c-7.1-4.3-15.2-9.1-30.8-9.1s-23.6,4.9-30.8,9.1c-6.4,3.8-11.4,6.9-22.6,6.9s-16.2-3-22.6-6.9c-7.1-4.3-15.2-9.1-30.8-9.1
		s-23.6,4.9-30.8,9.1c-6.4,3.8-11.4,6.9-22.6,6.9s-16.2-3-22.6-6.9c-7.1-4.3-15.2-9.1-30.8-9.1c-4.4,0-8,3.6-8,8s3.6,8,8,8
		c11.1,0,16.2,3,22.6,6.9c7.1,4.3,15.2,9.1,30.8,9.1s23.6-4.9,30.8-9.1c6.4-3.8,11.4-6.9,22.6-6.9s16.2,3,22.6,6.9
		c7.1,4.3,15.2,9.1,30.8,9.1s23.6-4.9,30.8-9.1c6.4-3.8,11.4-6.9,22.6-6.9s16.2,3,22.5,6.9c7.1,4.3,15.2,9.1,30.8,9.1
		s23.6-4.9,30.8-9.1c6.4-3.8,11.4-6.9,22.5-6.9s16.2,3,22.5,6.9c7.1,4.3,15.2,9.1,30.8,9.1s23.6-4.9,30.8-9.1
		c6.4-3.8,11.4-6.9,22.5-6.9s16.2,3,22.5,6.9c7.1,4.3,15.2,9.1,30.8,9.1c4.4,0,8-3.6,8-8S500.4,448,496,448L496,448z"/>
	<path class="st0" d="M496,480c-11.1,0-16.2-3-22.5-6.9c-7.1-4.3-15.2-9.1-30.8-9.1s-23.6,4.9-30.8,9.1c-6.4,3.8-11.4,6.9-22.5,6.9
		s-16.2-3-22.6-6.9c-7.1-4.3-15.2-9.1-30.8-9.1s-23.6,4.9-30.8,9.1c-6.4,3.8-11.4,6.9-22.5,6.9s-16.2-3-22.5-6.9
		c-7.1-4.3-15.2-9.1-30.8-9.1s-23.6,4.9-30.8,9.1c-6.4,3.8-11.4,6.9-22.6,6.9s-16.2-3-22.6-6.9c-7.1-4.3-15.2-9.1-30.8-9.1
		s-23.6,4.9-30.8,9.1c-6.4,3.8-11.4,6.9-22.6,6.9s-16.2-3-22.6-6.9c-7.1-4.3-15.2-9.1-30.8-9.1c-4.4,0-8,3.6-8,8s3.6,8,8,8
		c11.1,0,16.2,3,22.6,6.9c7.1,4.3,15.2,9.1,30.8,9.1s23.6-4.9,30.8-9.1c6.4-3.8,11.4-6.9,22.6-6.9s16.2,3,22.6,6.9
		c7.1,4.3,15.2,9.1,30.8,9.1s23.6-4.9,30.8-9.1c6.4-3.8,11.4-6.9,22.6-6.9s16.2,3,22.5,6.9c7.1,4.3,15.2,9.1,30.8,9.1
		s23.6-4.9,30.8-9.1c6.4-3.8,11.4-6.9,22.5-6.9s16.2,3,22.5,6.9c7.1,4.3,15.2,9.1,30.8,9.1s23.6-4.9,30.8-9.1
		c6.4-3.8,11.4-6.9,22.5-6.9s16.2,3,22.5,6.9c7.1,4.3,15.2,9.1,30.8,9.1c4.4,0,8-3.6,8-8S500.4,480,496,480L496,480z"/>
	<path class="st0" d="M104,184c17.7,0,32-14.3,32-32s-14.3-32-32-32s-32,14.3-32,32C72,169.7,86.3,184,104,184z M104,136
		c8.8,0,16,7.2,16,16s-7.2,16-16,16s-16-7.2-16-16C88,143.2,95.2,136,104,136z"/>
	<path class="st0" d="M104,112c4.4,0,8-3.6,8-8v-8c0-4.4-3.6-8-8-8s-8,3.6-8,8v8C96,108.4,99.6,112,104,112z"/>
	<path class="st0" d="M96,200v8c0,4.4,3.6,8,8,8s8-3.6,8-8v-8c0-4.4-3.6-8-8-8S96,195.6,96,200z"/>
	<path class="st0" d="M143,152c0,4.4,3.6,8,8,8h8c4.4,0,8-3.6,8-8s-3.6-8-8-8h-8C146.6,144,143,147.6,143,152z"/>
	<path class="st0" d="M48,160h8c4.4,0,8-3.6,8-8s-3.6-8-8-8h-8c-4.4,0-8,3.6-8,8S43.6,160,48,160z"/>
	<path class="st0" d="M137.6,126.4c2.1,0,4.2-0.8,5.7-2.3l5.7-5.7c3.1-3.2,3-8.2-0.1-11.3c-3.1-3-8.1-3-11.2,0l-5.7,5.7
		c-3.1,3.1-3.1,8.2,0,11.3C133.4,125.6,135.5,126.4,137.6,126.4z"/>
	<path class="st0" d="M64.7,179.9l-5.7,5.7c-3.2,3.1-3.3,8.1-0.2,11.3c3.1,3.2,8.1,3.3,11.3,0.2c0.1-0.1,0.2-0.1,0.2-0.2l5.7-5.7
		c3.1-3.1,3.2-8.2,0.1-11.3C73,176.8,68,176.8,64.7,179.9C64.8,179.9,64.8,179.9,64.7,179.9L64.7,179.9z"/>
	<path class="st0" d="M143.3,179.9c-3.1-3.1-8.2-3.1-11.3,0s-3.1,8.2,0,11.3l5.7,5.7c3.2,3.1,8.2,3,11.3-0.1c3-3.1,3-8.1,0-11.2
		L143.3,179.9z"/>
	<path class="st0" d="M64.7,124.1c3.1,3.1,8.2,3.2,11.3,0.1c3.1-3.1,3.2-8.2,0.1-11.3c0,0,0,0-0.1-0.1l-5.7-5.7
		c-3.1-3.2-8.1-3.3-11.3-0.2s-3.3,8.1-0.2,11.3c0.1,0.1,0.1,0.2,0.2,0.2L64.7,124.1z"/>
</g>
</svg>
