<?xml version="1.0" encoding="utf-8"?>
<!-- Generator: Adobe Illustrator 24.3.0, SVG Export Plug-In . SVG Version: 6.00 Build 0)  -->
<svg version="1.1" id="Capa_1" xmlns="http://www.w3.org/2000/svg" xmlns:xlink="http://www.w3.org/1999/xlink" x="0px" y="0px"
	 viewBox="0 0 512 512" style="enable-background:new 0 0 512 512;" xml:space="preserve">
<style type="text/css">
	.st0{fill:#FFFFFF;}
</style>
<g>
	<path class="st0" d="M88,416.5c4.1,0.7,8-2,8.7-6.1c0.7-4.1-2-8-6.1-8.7C46.8,393.9,15,355.9,15,311.3c0-50.6,41.2-91.8,91.8-91.8
		c12.1,0,23.6,2.3,34.2,6.6l-4.6,9.2c-9.2-3.6-19.2-5.6-29.6-5.6c-45,0-81.6,36.6-81.6,81.6c0,45,36.6,81.6,81.6,81.6
		c42.5,0,77.5-32.6,81.3-74.1h10.2c-3.3,41.3-34,75.6-75.3,82.9c-4.1,0.7-6.8,4.6-6.1,8.7c0.6,3.6,3.8,6.2,7.4,6.2
		c0.4,0,0.9,0,1.3-0.1c42-7.5,74.5-38.8,84.7-78.6c4.7,4.3,10.5,7.4,17,8.8V362h-6.6c-4.1,0-7.5,3.4-7.5,7.5s3.4,7.5,7.5,7.5h28.1
		c4.1,0,7.5-3.4,7.5-7.5s-3.4-7.5-7.5-7.5h-6.6v-15.3c16.3-3.5,28.6-18,28.6-35.3c0-8.1-2.7-15.6-7.2-21.6l88.7-98.3l8.5,22.6
		c-36.9,16.9-62.5,54.1-62.5,97.2c0,58.9,47.9,106.8,106.8,106.8S512,370.2,512,311.3s-47.9-106.8-106.8-106.8
		c-10.5,0-20.7,1.5-30.3,4.4l-25.7-68.8h43c3,7.2,10.1,12.3,18.3,12.3c1.6,0,2.9,1.3,2.9,2.9s-1.3,2.9-2.9,2.9h-9.1
		c-10.9,0-19.8,8.9-19.8,19.8c0,10.9,8.9,19.8,19.8,19.8h9.1c23.5,0,42.5-19.1,42.5-42.5s-19.1-42.5-42.5-42.5
		c-8.3,0-15.4,5.1-18.3,12.3h-53.8c-5.1,0-8.9,5.1-7,10.1l7.6,20.4h-153l-4.8-12.8c3-1.9,5.6-4.5,7.5-7.7c1.2-2.1,3.5-3.4,5.9-3.4
		h31.9c8.8,0,14.8-9,11.5-17.1l0,0c-5.1-12.6-17.2-20.7-30.8-20.7h-76.8c-10.2,0-18.6,8.3-18.6,18.6c0,18.6,15.1,33.7,33.7,33.7h21
		l6.2,16.6l-25,50c-12.6-5.2-26.4-8.1-40.9-8.1C47.9,204.5,0,252.4,0,311.3C0,363.2,37,407.4,88,416.5L88,416.5z M405.2,219.5
		c50.6,0,91.8,41.2,91.8,91.8s-41.2,91.8-91.8,91.8s-91.8-41.2-91.8-91.8c0-36.7,21.6-68.4,52.8-83.1l3.6,9.6
		c-27.3,13.2-46.2,41.2-46.2,73.5c0,45,36.6,81.6,81.6,81.6c37.8,0,70.4-25.6,79.3-62.4c1-4-1.5-8.1-5.5-9.1c-4-1-8.1,1.5-9.1,5.5
		c-7.3,30-33.9,50.9-64.8,50.9c-36.7,0-66.6-29.9-66.6-66.6c0-25.9,14.8-48.4,36.5-59.4l16,42.8c-4.7,4-7.6,9.9-7.6,16.5
		c0,12,9.8,21.8,21.8,21.8c12,0,21.8-9.8,21.8-21.8s-9.8-21.8-21.8-21.8c0,0-0.1,0-0.1,0l-16-42.8c5.2-1.3,10.6-2,16.1-2
		c30.9,0,57.5,20.9,64.8,50.9c1,4,5,6.5,9.1,5.5c4-1,6.5-5,5.5-9.1c-8.9-36.7-41.5-62.4-79.3-62.4c-7.4,0-14.6,1-21.4,2.9l-3.6-9.6
		C388.1,220.7,396.5,219.5,405.2,219.5z M405.2,304.5c3.8,0,6.8,3.1,6.8,6.8s-3.1,6.8-6.8,6.8c-3.8,0-6.8-3.1-6.8-6.8
		S401.4,304.5,405.2,304.5z M154.4,232.8c24.5,14.9,41.5,40.9,43.9,71h-10.2c-2.4-26.1-17.1-48.7-38.3-61.8L154.4,232.8z
		 M127.3,303.8c-1-2.8-2.6-5.3-4.6-7.5l20.4-40.9c16.3,10.6,27.6,28.1,29.9,48.4H127.3z M106.8,304.5c3.8,0,6.8,3.1,6.8,6.8
		s-3.1,6.8-6.8,6.8c-3.8,0-6.8-3.1-6.8-6.8S103.1,304.5,106.8,304.5z M106.8,378c-36.7,0-66.6-29.9-66.6-66.6
		c0-36.7,29.9-66.6,66.6-66.6c8,0,15.7,1.4,22.9,4l-20.4,40.9c-0.8-0.1-1.6-0.1-2.4-0.1c-12,0-21.8,9.8-21.8,21.8
		s9.8,21.8,21.8,21.8c9.4,0,17.4-6,20.5-14.3H173C169.3,352.1,141,378,106.8,378z M242.3,331v-19.7c0-4.1-3.4-7.5-7.5-7.5
		s-7.5,3.4-7.5,7.5V331c-7.9-3-13.6-10.7-13.6-19.7c0-11.6,9.5-21.1,21.1-21.1s21.1,9.5,21.1,21.1C255.9,320.3,250.2,328,242.3,331z
		 M410.5,127.8c15.2,0,27.5,12.4,27.5,27.5s-12.4,27.5-27.5,27.5h-9.1c-2.7,0-4.8-2.2-4.8-4.8c0-2.7,2.2-4.8,4.8-4.8h9.1
		c9.9,0,17.9-8,17.9-17.9s-8-17.9-17.9-17.9c-2.7,0-4.8-2.2-4.8-4.8C405.7,130,407.9,127.8,410.5,127.8z M344.6,170.6l1.9,5
		l-94.1,104.2c-5.2-2.9-11.3-4.6-17.7-4.6c-1.3,0-2.7,0.1-4,0.2l-39.1-104.8L344.6,170.6L344.6,170.6z M126.8,112.4
		c0-2,1.6-3.6,3.6-3.6h76.8c6.1,0,11.6,3,15,7.8h-27.6c-7.8,0-15.1,4.2-18.9,11c-1.2,2.1-3.5,3.4-5.9,3.4h-24.3
		C135.2,131.1,126.8,122.7,126.8,112.4z M179.9,181.9l36.7,98.3c-2.3,1.3-4.3,2.9-6.3,4.6c-7.1-27.7-25.1-51.1-49.2-65.4
		L179.9,181.9z"/>
</g>
</svg>
