<?xml version="1.0" encoding="utf-8"?>
<!-- Generator: Adobe Illustrator 24.3.0, SVG Export Plug-In . SVG Version: 6.00 Build 0)  -->
<svg version="1.1" id="Outline" xmlns="http://www.w3.org/2000/svg" xmlns:xlink="http://www.w3.org/1999/xlink" x="0px" y="0px"
	 viewBox="0 0 512 512" style="enable-background:new 0 0 512 512;" xml:space="preserve">
<style type="text/css">
	.st0{fill:#FFFFFF;}
</style>
<path class="st0" d="M344,16H104c-22.1,0-40,17.9-40,40v400c0,22.1,17.9,40,40,40h304c22.1,0,40-17.9,40-40V120
	c0-2.1-0.8-4.2-2.3-5.7l-96-96C348.2,16.8,346.1,16,344,16z M432,456c0,13.2-10.8,24-24,24H104c-13.2,0-24-10.8-24-24V56
	c0-13.2,10.8-24,24-24h232v56c0,22.1,17.9,40,40,40h56V456z M352,43.3l68.7,68.7H376c-13.2,0-24-10.8-24-24V43.3z"/>
<path class="st0" d="M192,232c-13.3,0-24,10.7-24,24c0,13.3,10.7,24,24,24s24-10.7,24-24C216,242.8,205.2,232,192,232z M192,264
	c-4.4,0-8-3.6-8-8s3.6-8,8-8s8,3.6,8,8C200,260.4,196.4,264,192,264z"/>
<path class="st0" d="M256,232c-13.3,0-24,10.7-24,24c0,13.3,10.7,24,24,24c13.3,0,24-10.7,24-24C280,242.8,269.2,232,256,232z
	 M256,264c-4.4,0-8-3.6-8-8s3.6-8,8-8s8,3.6,8,8C264,260.4,260.4,264,256,264z"/>
<path class="st0" d="M320,232c-13.3,0-24,10.7-24,24c0,13.3,10.7,24,24,24s24-10.7,24-24C344,242.8,333.2,232,320,232z M320,264
	c-4.4,0-8-3.6-8-8s3.6-8,8-8s8,3.6,8,8C328,260.4,324.4,264,320,264z"/>
</svg>
