<?xml version="1.0" encoding="utf-8"?>
<!-- Generator: Adobe Illustrator 24.3.0, SVG Export Plug-In . SVG Version: 6.00 Build 0)  -->
<svg version="1.1" id="Outline" xmlns="http://www.w3.org/2000/svg" xmlns:xlink="http://www.w3.org/1999/xlink" x="0px" y="0px"
	 viewBox="0 0 512 512" style="enable-background:new 0 0 512 512;" xml:space="preserve">
<style type="text/css">
	.st0{fill:#FFFFFF;}
</style>
<path class="st0" d="M256,16C149.9,16,64,102,64,208c0,72.8,41.1,139.3,106.2,171.8l58.2,103.9c4.2,7.6,12.3,12.3,20.9,12.3h13.2
	c8.7,0,16.7-4.7,20.9-12.3l58.2-103.9C406.9,347.3,448,280.8,448,208C448,102.1,361.9,16,256,16z M404.3,302.8
	c-17.6,27.5-42.4,49.6-71.8,63.8c-1.5,0.7-2.7,1.9-3.5,3.3l-59.4,106.1c-1.4,2.5-4.1,4.1-7,4.1h-13.2c-2.9,0-5.6-1.6-7-4.1
	L183,369.8c-0.8-1.4-2-2.6-3.5-3.3C91.9,324.4,55.1,219.3,97.2,131.7c29.4-61,91.1-99.8,158.8-99.7c97,0,176,79,176,176
	C432,241.6,422.4,274.5,404.3,302.8L404.3,302.8z"/>
<path class="st0" d="M256,64c-79.4,0-144,64.6-144,144s64.6,144,144,144s144-64.6,144-144S335.4,64,256,64z M256,336
	c-70.7,0-128-57.3-128-128S185.3,80,256,80s128,57.3,128,128C383.9,278.7,326.7,335.9,256,336z"/>
<path class="st0" d="M288,112h-80c-4.4,0-8,3.6-8,8v176c0,4.4,3.6,8,8,8h32c4.4,0,8-3.6,8-8v-72h40c22.1,0,40-17.9,40-40v-32
	C328,129.9,310.1,112,288,112z M312,184c0,13.2-10.8,24-24,24h-48c-4.4,0-8,3.6-8,8v72h-16V128h72c13.2,0,24,10.8,24,24V184z"/>
<path class="st0" d="M272,144h-32c-4.4,0-8,3.6-8,8v32c0,4.4,3.6,8,8,8h32c13.3,0,24-10.7,24-24S285.3,144,272,144z M272,176h-24
	v-16h24c4.4,0,8,3.6,8,8S276.4,176,272,176z"/>
</svg>
