<?xml version="1.0" encoding="utf-8"?>
<!-- Generator: Adobe Illustrator 24.3.0, SVG Export Plug-In . SVG Version: 6.00 Build 0)  -->
<svg version="1.1" id="Layer_1" xmlns="http://www.w3.org/2000/svg" xmlns:xlink="http://www.w3.org/1999/xlink" x="0px" y="0px"
	 viewBox="0 0 512.3 512.3" style="enable-background:new 0 0 512.3 512.3;" xml:space="preserve">
<style type="text/css">
	.st0{fill:#FFFFFF;}
</style>
<g transform="translate(1 1)">
	<g>
		<g>
			<path class="st0" d="M340.3,169.8c-5.1,0-8.5,3.4-8.5,8.5v17.1c0,5.1,3.4,8.5,8.5,8.5s8.5-3.4,8.5-8.5v-17.1
				C348.9,173.2,345.5,169.8,340.3,169.8z"/>
			<path class="st0" d="M365.9,169.8c-5.1,0-8.5,3.4-8.5,8.5v17.1c0,5.1,3.4,8.5,8.5,8.5s8.5-3.4,8.5-8.5v-17.1
				C374.5,173.2,371.1,169.8,365.9,169.8z"/>
			<path class="st0" d="M391.5,169.8c-5.1,0-8.5,3.4-8.5,8.5v17.1c0,5.1,3.4,8.5,8.5,8.5s8.5-3.4,8.5-8.5v-17.1
				C400.1,173.2,396.7,169.8,391.5,169.8z"/>
			<path class="st0" d="M510.1,387.4c-2.6-11.1-10.2-20.5-20.5-25.6l-14.7-7.7l8.6-73.3h1.8c5.1,0,8.5-3.4,8.5-8.5V221
				c0-5.1-3.4-8.5-8.5-8.5h-59.7v-59.7c0-5.1-3.4-8.5-8.5-8.5h-5.5l-37.1-29.7V83.6c19.7-3.9,34.1-20.9,34.1-41.8
				c0-23.9-18.8-42.7-42.7-42.7c-22.1,0-39.8,16.1-42.3,37.4L107.1,169.8H7.5c-5.1,0-8.5,3.4-8.5,8.5v51.2c0,1.7,0.9,3.4,1.7,5.1
				l17.1,25.6c1.7,1.7,4.3,3.4,6.8,3.4h42.7v33l-24.1,64.2c-0.8,1.1-1.3,2.4-1.4,3.9c-0.2,0.8-0.2,1.6-0.1,2.4v135.4
				c0,5.1,3.4,8.5,8.5,8.5h136.5c5.1,0,8.5-3.4,8.5-8.5V366.1c0-2-0.5-3.8-1.5-5.2l-24.1-64.2v-62.9L357.4,93v21.5l-37.1,29.7h-5.5
				c-5.1,0-8.5,3.4-8.5,8.5v59.7h-59.7c-5.1,0-8.5,3.4-8.5,8.5v51.2c0,5.1,3.4,8.5,8.5,8.5h9.4l8,74.9l-11.4,6.2
				c-10.2,5.1-17.9,14.5-21.3,25.6s-1.7,23,5.1,32.4l54.6,87c0.9,2.6,4.3,4.3,6.8,4.3h145.1c2.6,0,6-1.7,7.7-3.4l29.9-48.6
				c0.3-0.5,0.5-1.1,0.7-1.7l23.2-37.5C511,410.4,512.7,398.5,510.1,387.4z M394.1,311.5c-5.7-3.1-14-5-22.9-5.1
				c-8.6-0.2-18,1.3-26.6,5.1l-64.9,35l-6.7-64.9h193.6l-7.6,64.1L394.1,311.5z M365.9,16.2c14.5,0,25.6,11.1,25.6,25.6
				s-11.1,25.6-25.6,25.6s-25.6-11.1-25.6-25.6S351.4,16.2,365.9,16.2z M16.1,227v-40.1h85.3v42.7v17.1H75.8H28.9L16.1,227z
				 M109.9,263.7c5.1,0,8.5-3.4,8.5-8.5v-17.1h34.1v51.2H84.3v-25.6H109.9z M178.2,494.1H58.7V477h42.7c5.1,0,8.5-3.4,8.5-8.5
				s-3.4-8.5-8.5-8.5H58.7v-17.1h25.6c5.1,0,8.5-3.4,8.5-8.5s-3.4-8.5-8.5-8.5H58.7v-51.2h119.5V494.1z M62.1,357.5l19.6-51.2h73.4
				l18.8,51.2H62.1z M158.6,221h-40.1v-37.5L325,56.3c4.3,10.2,11.9,18.8,21.3,23.9L158.6,221z M365.9,129.5l18.3,14.7h-36.7
				L365.9,129.5z M323.3,161.3h85.3v51.2h-85.3V161.3z M255,229.5h59.7h102.4h59.7v34.1H263.5H255V229.5z M302.8,494.1l-23-36.7
				l74.2-36.7c11.1-5.1,23.9-5.1,34.1,0l72.5,36.7l-22.2,36.7H302.8z M490.5,410.4l-20.6,33.2l-74.1-37.4c-15.4-7.7-32.4-7.7-48.6,0
				L271,443.9l-21.1-33.4c-4.3-5.1-5.1-11.9-3.4-18.8c1.7-6,6-11.1,12.8-14.5l16-8.6c0.6-0.1,1-0.3,1.1-0.6l76-41.1
				c4.8-2.2,10.4-3.1,15.8-3.2c6.8,0,13.3,1.4,17.5,3.2l76.8,40.1c0.7,0.5,1.4,0.8,2.1,1l17.5,9.2c6,2.6,10.2,7.7,11.9,14.5
				C495.6,397.6,494.8,404.5,490.5,410.4z"/>
			<path class="st0" d="M365.9,50.3c5.1,0,8.5-3.4,8.5-8.5s-3.4-8.5-8.5-8.5s-8.5,3.4-8.5,8.5S360.8,50.3,365.9,50.3z"/>
		</g>
	</g>
</g>
</svg>
