<?xml version="1.0" encoding="utf-8"?>
<!-- Generator: Adobe Illustrator 24.3.0, SVG Export Plug-In . SVG Version: 6.00 Build 0)  -->
<svg version="1.1" id="Layer_1" xmlns="http://www.w3.org/2000/svg" xmlns:xlink="http://www.w3.org/1999/xlink" x="0px" y="0px"
	 viewBox="0 0 512 512" style="enable-background:new 0 0 512 512;" xml:space="preserve">
<style type="text/css">
	.st0{fill:#FFFFFF;}
</style>
<g id="Page-1">
	<g id="_x30_34---Traffic">
		<path id="Shape" class="st0" d="M492.9,257l-30.7-96.1c-7.7-19.7-26.6-32.7-47.8-32.8h-60.7l-19.5-61
			c-7.6-19.7-26.6-32.8-47.7-32.9H97.5c-21.3,0.1-40.4,13.4-47.9,33.3l-30.6,95.6C7.9,166,0,176.1,0,187.7v102.4
			c0,14.1,11.5,25.6,25.6,25.6h8.5v42.7c0,14.1,11.5,25.6,25.6,25.6h25.6c14.1,0,25.6-11.5,25.6-25.6v-42.7H128V384
			c0,14.1,11.5,25.6,25.6,25.6h8.5v42.7c0,14.1,11.5,25.6,25.6,25.6h25.6c14.1,0,25.6-11.5,25.6-25.6v-42.7h162.1v42.7
			c0,14.1,11.5,25.6,25.6,25.6h25.6c14.1,0,25.6-11.5,25.6-25.6v-42.7h8.5c14.1,0,25.6-11.5,25.6-25.6V281.6
			C512,270,504.1,259.9,492.9,257L492.9,257z M446.1,166.5l28.6,89.5h-29.4l-22.7-79.2c-1.1-3.7-4.4-6.2-8.2-6.2H225.6
			c-3.8,0-7.2,2.5-8.2,6.2L194.7,256h-29.4l26.1-81.9c0.1-0.1,0.1-0.3,0.1-0.4l2.2-6.7c5.1-13.1,17.8-21.8,31.9-21.9h188.9
			C428.4,145.1,440.9,153.6,446.1,166.5L446.1,166.5z M427.5,256H212.5l19.6-68.3h175.9L427.5,256z M177.6,161.3l-0.3,0.8H84.5
			l19.6-68.3H280l9.8,34.1h-64.2C204.2,128.1,185.2,141.4,177.6,161.3L177.6,161.3z M65.7,73.1c5.1-13.2,17.7-21.8,31.8-21.9h188.9
			c13.9,0,26.5,8.5,31.6,21.5l17.7,55.3h-28.2l-13-45c-1.1-3.7-4.4-6.2-8.2-6.2H97.6c-3.8,0-7.2,2.5-8.2,6.2l-22.7,79.2H37.3
			L65.7,73.1z M93.9,358.4c0,4.7-3.8,8.5-8.5,8.5H59.7c-4.7,0-8.5-3.8-8.5-8.5v-42.7h42.7V358.4z M102.4,298.7H25.6
			c-4.7,0-8.5-3.8-8.5-8.5V187.7c0-4.7,3.8-8.5,8.5-8.5h47.5h0h0h98.7L147.1,257c-11.2,2.9-19,13.1-19.1,24.6v17.1H102.4z
			 M221.9,452.3c0,4.7-3.8,8.5-8.5,8.5h-25.6c-4.7,0-8.5-3.8-8.5-8.5v-42.7h42.7V452.3z M460.8,452.3c0,4.7-3.8,8.5-8.5,8.5h-25.6
			c-4.7,0-8.5-3.8-8.5-8.5v-42.7h42.7V452.3z M494.9,384c0,4.7-3.8,8.5-8.5,8.5H153.6c-4.7,0-8.5-3.8-8.5-8.5V281.6
			c0-4.7,3.8-8.5,8.5-8.5h285.2l0,0l0,0h47.5c4.7,0,8.5,3.8,8.5,8.5V384z"/>
		<path id="Shape_1_" class="st0" d="M200.5,298.7c-16.5,0-29.9,13.4-29.9,29.9c0,16.5,13.4,29.9,29.9,29.9s29.9-13.4,29.9-29.9
			C230.4,312,217,298.7,200.5,298.7z M200.5,341.3c-5.2,0-9.8-3.1-11.8-7.9c-2-4.8-0.9-10.3,2.8-13.9c3.7-3.7,9.2-4.8,13.9-2.8
			c4.8,2,7.9,6.6,7.9,11.8C213.3,335.6,207.6,341.3,200.5,341.3L200.5,341.3z"/>
		<path id="Shape_2_" class="st0" d="M439.5,298.7c-16.5,0-29.9,13.4-29.9,29.9c0,16.5,13.4,29.9,29.9,29.9
			c16.5,0,29.9-13.4,29.9-29.9C469.3,312,456,298.7,439.5,298.7z M439.5,341.3c-7.1,0-12.8-5.7-12.8-12.8s5.7-12.8,12.8-12.8
			c7.1,0,12.8,5.7,12.8,12.8C452.3,335.6,446.5,341.3,439.5,341.3z"/>
		<path id="Shape_3_" class="st0" d="M72.5,204.8c-16.5,0-29.9,13.4-29.9,29.9s13.4,29.9,29.9,29.9s29.9-13.4,29.9-29.9
			C102.4,218.2,89,204.8,72.5,204.8z M72.5,247.5c-7.1,0-12.8-5.7-12.8-12.8c0-7.1,5.7-12.8,12.8-12.8c7.1,0,12.8,5.7,12.8,12.8
			C85.3,241.7,79.6,247.5,72.5,247.5z"/>
	</g>
</g>
</svg>
