<?xml version="1.0" encoding="utf-8"?>
<!-- Generator: Adobe Illustrator 24.3.0, SVG Export Plug-In . SVG Version: 6.00 Build 0)  -->
<svg version="1.1" id="Layer_1" xmlns="http://www.w3.org/2000/svg" xmlns:xlink="http://www.w3.org/1999/xlink" x="0px" y="0px"
	 viewBox="0 0 512 512" style="enable-background:new 0 0 512 512;" xml:space="preserve">
<style type="text/css">
	.st0{fill:#FFFFFF;}
</style>
<g id="Outline">
	<path class="st0" d="M104,352c-13.3,0-24,10.7-24,24s10.7,24,24,24s24-10.7,24-24C128,362.8,117.2,352,104,352z M104,384
		c-4.4,0-8-3.6-8-8s3.6-8,8-8s8,3.6,8,8C112,380.4,108.4,384,104,384z M400,352c-13.3,0-24,10.7-24,24s10.7,24,24,24s24-10.7,24-24
		C424,362.8,413.2,352,400,352z M400,384c-4.4,0-8-3.6-8-8s3.6-8,8-8s8,3.6,8,8C408,380.4,404.4,384,400,384z M200,192H80v-16h120
		V192z M64,192H48v-16h16V192z M88,112h112v16H88V112z M224,400h96v16h-96V400z M192,400h16v16h-16V400z M48,80h96v16H48V80z M32,96
		H16V80h16V96z M495.8,308.6c0-0.1,0-0.1,0-0.2c-0.8-5.7-3.9-12.2-8.8-15.5l-32.2-25.7l-9.9-29.8l-15.2,5.1l7.2,21.5H360v-72h52.9
		l11.5,34.5l15.2-5.1l-20.4-61.1c-3.3-9.8-12.4-16.4-22.8-16.4H40c-13.2,0-24,10.8-24,24v24h16v-24c0-4.4,3.6-8,8-8h356.5
		c3.4,0,6.5,2.2,7.6,5.5l3.5,10.5H360c-8.8,0-16,7.2-16,16v72c0,8.8,7.2,16,16,16h85.2l20,16l-5.2,0c-6.6,0-12,5.4-12,12v24
		c0,6.6,5.4,12,12,12c0,0,0,0,0,0l19.9-0.1V360c0,4.4-3.6,8-8,8h-16.6c-4.4-30.6-32.8-51.8-63.4-47.4c-24.6,3.5-43.9,22.9-47.4,47.4
		H328v-24h16v-16h-16V192c0-8.8-7.2-16-16-16h-80c-8.8,0-16,7.2-16,16v136h-56v16h56v24h-56.6c-4.4-30.6-32.8-51.8-63.4-47.4
		c-7.4,1.1-14.5,3.6-20.9,7.4H64v-47.7c0-9-7.3-16.3-16.3-16.3H32v-56H16c0,0,0.4,156.9,1.1,159.1c3.1,10,12.4,16.9,22.9,16.9h8.6
		c4.4,30.6,32.8,51.8,63.4,47.4c24.6-3.5,43.9-22.9,47.4-47.4h185.2c4.4,30.6,32.8,51.8,63.4,47.4c24.6-3.5,43.9-22.9,47.4-47.4H472
		c13.2,0,24-10.8,24-24c0,0-0.1-50.3-0.2-51.2C495.8,308.7,495.8,308.7,495.8,308.6z M32,280h15.7c0.2,0,0.3,0.1,0.3,0.3
		c0,0,0,0,0,0V296H32V280z M32,312h16v16H32V312z M48.6,368H40c-4.4,0-8-3.6-8-8v-16h26.1C53.1,351.1,49.8,359.4,48.6,368z M104,416
		c-22.1,0-40-17.9-40-40s17.9-40,40-40s40,17.9,40,40C144,398.1,126.1,416,104,416z M312,368h-80V192h80V368z M400,416
		c-22.1,0-40-17.9-40-40s17.9-40,40-40s40,17.9,40,40C440,398.1,422.1,416,400,416z M480,327.9l-16,0.1v-16l16-0.1V327.9z M80,264
		h120v16H80V264z M296,280h-32v-16h32V280z"/>
</g>
</svg>
