<svg id="instagram" xmlns="http://www.w3.org/2000/svg" width="38.35" height="38.356" viewBox="0 0 38.35 38.356">
  <path id="Path_5" data-name="Path 5" d="M38.7,11.277a14.016,14.016,0,0,0-.892-4.653A9.826,9.826,0,0,0,32.2,1.012,14.052,14.052,0,0,0,27.544.12C25.491.023,24.839,0,19.631,0s-5.86.023-7.905.112A14.02,14.02,0,0,0,7.073,1a9.359,9.359,0,0,0-3.4,2.218,9.444,9.444,0,0,0-2.21,3.394,14.053,14.053,0,0,0-.892,4.653c-.1,2.053-.12,2.705-.12,7.913s.023,5.859.112,7.905a14.015,14.015,0,0,0,.892,4.653,9.824,9.824,0,0,0,5.612,5.612,14.054,14.054,0,0,0,4.653.892c2.045.09,2.7.112,7.905.112s5.86-.022,7.905-.112a14.012,14.012,0,0,0,4.653-.892,9.811,9.811,0,0,0,5.612-5.612,14.062,14.062,0,0,0,.892-4.653c.09-2.046.112-2.7.112-7.905S38.791,13.323,38.7,11.277Zm-3.454,15.66a10.513,10.513,0,0,1-.659,3.559,6.363,6.363,0,0,1-3.642,3.642,10.551,10.551,0,0,1-3.559.659c-2.023.09-2.63.112-7.748.112s-5.732-.022-7.748-.112a10.508,10.508,0,0,1-3.559-.659,5.9,5.9,0,0,1-2.2-1.431A5.963,5.963,0,0,1,4.7,30.5a10.552,10.552,0,0,1-.659-3.559c-.09-2.023-.112-2.63-.112-7.748s.022-5.732.112-7.748A10.508,10.508,0,0,1,4.7,7.89a5.83,5.83,0,0,1,1.439-2.2,5.954,5.954,0,0,1,2.2-1.431A10.558,10.558,0,0,1,11.9,3.6c2.023-.09,2.63-.112,7.748-.112s5.732.023,7.748.112a10.513,10.513,0,0,1,3.559.659,5.9,5.9,0,0,1,2.2,1.431,5.962,5.962,0,0,1,1.431,2.2,10.556,10.556,0,0,1,.659,3.559c.09,2.023.112,2.63.112,7.748S35.337,24.914,35.247,26.937Zm0,0" transform="translate(-0.449 0)" fill="#fff"/>
  <path id="Path_6" data-name="Path 6" d="M134.8,124.5a9.853,9.853,0,1,0,9.853,9.853A9.856,9.856,0,0,0,134.8,124.5Zm0,16.245a6.392,6.392,0,1,1,6.392-6.392A6.393,6.393,0,0,1,134.8,140.745Zm0,0" transform="translate(-115.62 -115.171)" fill="#fff"/>
  <path id="Path_7" data-name="Path 7" d="M367.05,90.9a2.3,2.3,0,1,1-2.3-2.3A2.3,2.3,0,0,1,367.05,90.9Zm0,0" transform="translate(-335.324 -81.963)" fill="#fff"/>
</svg>
