<svg id="logo-05" xmlns="http://www.w3.org/2000/svg" width="261.328" height="120.426" viewBox="0 0 261.328 120.426">
  <g id="Group_5" data-name="Group 5" transform="translate(0 0)">
    <g id="Group_3" data-name="Group 3" transform="translate(3.76 66.28)">
      <path id="Path_9" data-name="Path 9" d="M61.506,269.957c2.81-3.116,5.29-5.718,8.572-7.359,4.971-2.486,10.078-3.343,15.38-1.127a10,10,0,0,1,5.7,6.478c.2.588.055,1.512.729,1.684.82.208,1.084-.735,1.512-1.249,4.837-5.829,11.033-8.792,18.612-7.978,6.576.7,10.488,5.761,10.6,12.943.086,5.333-1.01,10.531-1.978,15.735-1.378,7.427-2.884,14.829-4.255,22.249-.245,1.335-.747,1.788-2.137,1.727-2.92-.122-5.847-.08-8.767-.018-1.237.024-1.506-.282-1.255-1.555q2.774-14.446,5.363-28.929a24.686,24.686,0,0,0,.422-6.349c-.435-5.627-6.006-7.323-10.451-4.488-5.388,3.435-7.892,8.841-9.178,14.755-1.794,8.259-3.251,16.592-4.757,24.913-.239,1.3-.722,1.7-2,1.659-2.853-.08-5.718-.122-8.572.012-1.745.08-1.788-.533-1.506-2q2.93-15.107,5.669-30.245a13.173,13.173,0,0,0-.122-5.963,5.716,5.716,0,0,0-7.861-4.078c-4.341,1.506-6.863,4.923-8.976,8.706-3.031,5.437-3.5,11.572-4.659,17.5-.955,4.874-1.855,9.759-2.663,14.657-.2,1.2-.7,1.433-1.788,1.408-2.92-.061-5.847-.086-8.767.006-1.408.049-1.837-.392-1.58-1.763,1.439-7.6,2.835-15.221,4.249-22.831,1.567-8.431,3.38-16.825,4.347-25.359.147-1.292.667-1.769,1.984-1.727,2.467.086,4.935.08,7.4.006,1.194-.037,1.573.349,1.543,1.543C62.24,265.1,61.861,267.233,61.506,269.957Z" transform="translate(-42.725 -260.019)" fill="#f4c75b"/>
      <path id="Path_10" data-name="Path 10" d="M195.7,289.328a30.617,30.617,0,0,1,15.563-25.353c8.4-4.837,17.345-5.718,26.094-.686,5.3,3.049,8.174,7.929,9.012,13.972a33.418,33.418,0,0,1-6.269,25.072,28.763,28.763,0,0,1-29.939,10.843C201.959,311.014,195.365,303.2,195.7,289.328Zm38.119-7.347a16.38,16.38,0,0,0-.018-2.327c-.514-3.557-1.635-6.8-5.027-8.706-4.237-2.382-10.121-1.09-13.549,2.957a27.872,27.872,0,0,0-6.667,18.925,12.65,12.65,0,0,0,2.3,7.831c3.808,5,11.253,5.5,16.586-.8A27.869,27.869,0,0,0,233.821,281.981Z" transform="translate(-102.037 -259.907)" fill="#f4c75b"/>
      <path id="Path_11" data-name="Path 11" d="M404.081,291.869h-.2c-3.9-.006-4.163.343-3.22,4.225a10.116,10.116,0,0,0,8.951,7.947,28.314,28.314,0,0,0,14.988-2.314c2.039-.851,2.161-.827,2.3,1.347a25.874,25.874,0,0,0,.673,5.18,1.8,1.8,0,0,1-1.286,2.406c-8.272,3.367-16.812,4.616-25.451,2.076-5.688-1.671-9.441-5.694-11.406-11.486-4.469-13.157,2.547-30.668,14.419-37.335,7.776-4.365,15.937-5.651,24.037-.949,5.945,3.447,7.261,9.631,5.725,15.925-1.549,6.355-6.7,9.012-12.4,10.8C415.634,291.422,409.849,291.6,404.081,291.869Zm1.408-9.294c.961-.073,2.645-.184,4.323-.337,3.361-.312,6.7-.68,9.7-2.48a5.422,5.422,0,0,0,2.822-5.333,4.738,4.738,0,0,0-3.251-4.384,9.276,9.276,0,0,0-6.282-.184c-4.9,1.42-7.959,4.855-10.053,9.325C401.3,282.275,401.461,282.587,405.489,282.575Z" transform="translate(-176.632 -259.938)" fill="#f4c75b"/>
      <path id="Path_12" data-name="Path 12" d="M317.585,300.565c2.743-5.651,5.125-11.29,7.9-16.757q4.941-9.762,9.686-19.617a3.133,3.133,0,0,1,3.4-2.106c3.686.171,7.39.049,11.2.049a6.445,6.445,0,0,1-1.078,2.553q-11.718,20.985-23.449,41.958c-1.127,2.02-2.3,4.016-3.38,6.055a1.6,1.6,0,0,1-1.6,1.078c-3.441-.049-6.882-.037-10.323-.006-.839.006-1.212-.19-1.371-1.133q-4.169-24.512-8.443-49.011c-.19-1.09.122-1.537,1.286-1.518,3.312.049,6.625.067,9.937.006,1.206-.025,1.512.49,1.647,1.58.845,6.851,1.769,13.7,2.633,20.547C316.305,289.68,316.93,295.123,317.585,300.565Z" transform="translate(-142.508 -260.749)" fill="#f4c75b"/>
    </g>
    <g id="Group_4" data-name="Group 4">
      <path id="Path_13" data-name="Path 13" d="M147.363,192.784c.808-1.769,1.445-3.122,2.045-4.494,4.91-11.259,9.839-22.513,14.682-33.8a2.167,2.167,0,0,1,2.455-1.555c1.69.092,3.386.024,5.284.024-.251.741-.386,1.255-.6,1.733-6.643,15.147-13.316,30.282-19.91,45.447-.631,1.451-1.439,1.776-2.963,1.978-3.325.441-4.739-.949-5.945-3.918-4.053-9.967-8.449-19.794-12.716-29.676-.227-.533-.5-1.047-.747-1.567-.159.024-.318.055-.478.08v34.978c-2.339,0-4.39.037-6.435-.043-.294-.012-.649-.557-.814-.931a2.888,2.888,0,0,1-.037-1.084c0-14.982.031-29.964-.043-44.945-.006-1.733.527-2.222,2.174-2.088a31.005,31.005,0,0,0,4.769,0,2.165,2.165,0,0,1,2.449,1.6q7.8,17.991,15.71,35.939C146.53,191.113,146.855,191.737,147.363,192.784Z" transform="translate(-69.37 -152.138)" fill="#fff"/>
      <path id="Path_14" data-name="Path 14" d="M75.533,166.816c-2.149,0-4.206.061-6.257-.055-.392-.024-.924-.661-1.1-1.127-2.033-5.535-5.167-7.874-11.137-7.874a29.237,29.237,0,0,0-7.041.808c-2.547.637-4.506,2.247-4.782,5.125-.306,3.147.759,5.223,3.869,6.5,3.594,1.482,7.359,2.547,11.039,3.833,2.871,1,5.786,1.941,8.572,3.147,5.014,2.161,8.094,5.865,8.033,11.51-.061,5.627-2.976,9.472-8.076,11.749-4.843,2.161-9.98,2.143-15.11,1.837-4.347-.257-8.431-1.433-11.774-4.384-3.171-2.8-4.6-6.484-5.155-10.58-.171-1.267.282-1.782,1.592-1.708,1.586.086,3.465-.465,4.678.214,1,.557,1.231,2.5,1.782,3.839a9.424,9.424,0,0,0,6.918,5.927,20.708,20.708,0,0,0,13.1-.753,10.49,10.49,0,0,0,4.078-3.178c1.573-2.088.949-5.051-1-7.169s-4.61-2.884-7.206-3.753c-5.082-1.7-10.2-3.306-15.257-5.088-3.912-1.378-6.533-4.127-7.157-8.272-.7-4.678.465-8.823,4.494-11.8a20.629,20.629,0,0,1,13.99-3.863,34.679,34.679,0,0,1,9.655,1.629C72.294,155.532,75.012,160.375,75.533,166.816Z" transform="translate(-36.583 -151.651)" fill="#fff"/>
      <path id="Path_15" data-name="Path 15" d="M344.86,179.361a7.492,7.492,0,0,0,1.12.667c4.078,1.335,5.761,4.4,6.2,8.394a70.894,70.894,0,0,0,.918,7.218,64.015,64.015,0,0,0,2.063,6.435c-2,0-4.231.086-6.453-.061a2.113,2.113,0,0,1-1.457-1.322c-.7-2.933-1.237-5.9-1.812-8.865-.208-1.071-.257-2.18-.533-3.227-.967-3.692-3.465-5.565-8.112-5.743-4.274-.165-8.559-.018-12.839-.055-1.218-.012-1.549.52-1.543,1.665.043,5.3-.025,10.592.049,15.888.018,1.359-.38,1.88-1.763,1.745-1.739-.165-4.047.416-5.069-.484-.882-.778-.373-3.19-.38-4.88-.025-6.025.031-12.055-.043-18.08-.018-1.5.422-1.984,1.965-1.965,6.423.086,12.845-.024,19.261.08,8.706.135,10.672-6.471,9.172-12.527-.8-3.227-3.471-4.653-6.453-4.806-5.6-.288-11.223-.135-16.831-.159-.918-.006-1.837.067-2.749.031-1.378-.061-3.71.214-3.949-.361-.618-1.457-.367-3.312-.306-5,.012-.324.778-.9,1.188-.894,8.247.067,16.543-.337,24.723.459,9.7.943,12.863,8.045,11.878,15.986C352.488,174.438,349.911,177.757,344.86,179.361Z" transform="translate(-144.582 -152.177)" fill="#fff"/>
      <path id="Path_16" data-name="Path 16" d="M414.39,180.624q0-9.5,0-19c0-2.559-.018-2.578-2.522-2.584-4.157-.006-8.321-.043-12.478.018-1.335.018-1.8-.38-1.8-1.763.012-4.31-.049-4.31,4.3-4.31,11.321,0,22.635.037,33.956-.037,1.671-.012,2.082.527,2.033,2.082-.147,4.7.588,3.955-3.949,4.01-3.245.037-6.484.006-9.729.006-2.859,0-2.865.006-2.865,2.773-.006,12.667-.043,25.335.024,38,.006,1.708-.38,2.5-2.216,2.253a11.751,11.751,0,0,0-2.933,0c-1.543.184-1.843-.545-1.837-1.9.049-6.514.018-13.035.018-19.549C414.4,180.624,414.4,180.624,414.39,180.624Z" transform="translate(-176.563 -152.155)" fill="#fff"/>
      <path id="Path_17" data-name="Path 17" d="M282.9,202.048c-2.039,0-3.759-.129-5.449.037s-2.449-.471-3.025-2.039c-5.363-14.517-10.806-29-16.225-43.494-.416-1.114-.827-2.235-1.322-3.576,2.247,0,4.206-.122,6.129.073.588.061,1.335.906,1.592,1.555,4.084,10.4,8.094,20.817,12.129,31.231q2.691,6.961,5.406,13.917C282.386,200.413,282.588,201.105,282.9,202.048Z" transform="translate(-122.003 -152.15)" fill="#fff"/>
      <path id="Path_18" data-name="Path 18" d="M224,217.092c1.016-2.682,1.916-5.112,2.853-7.525,2.125-5.486,4.3-10.953,6.38-16.451a1.782,1.782,0,0,1,2-1.378c2.682.067,5.376-.043,8.057.073a2.406,2.406,0,0,1,1.708,1.114c.722,1.384,1.206,2.89,1.971,4.825-2.125,0-3.98.135-5.8-.037-1.849-.171-2.676.545-3.269,2.265-1.788,5.216-3.8,10.359-5.645,15.557-.4,1.139-.924,1.665-2.21,1.592C228.12,217.007,226.186,217.092,224,217.092Z" transform="translate(-109.254 -167.194)" fill="#fff"/>
      <path id="Path_19" data-name="Path 19" d="M194.59,190.77h7.531v26.168H194.59Z" transform="translate(-97.85 -166.819)" fill="#fff"/>
    </g>
  </g>
</svg>
