<svg id="twitter.70283587" xmlns="http://www.w3.org/2000/svg" width="45.459" height="36.944" viewBox="0 0 45.459 36.944">
  <g id="Group_1" data-name="Group 1" transform="translate(0 0)">
    <path id="Path_1" data-name="Path 1" d="M45.459,52.368a19.262,19.262,0,0,1-5.372,1.474,9.255,9.255,0,0,0,4.1-5.15,18.689,18.689,0,0,1-5.913,2.255,9.316,9.316,0,0,0-16.115,6.375,9.721,9.721,0,0,0,.213,2.122A26.4,26.4,0,0,1,3.161,49.7,9.319,9.319,0,0,0,6.02,62.153a9.168,9.168,0,0,1-4.209-1.145v.107a9.356,9.356,0,0,0,7.467,9.154,9.433,9.433,0,0,1-2.442.311,8.337,8.337,0,0,1-1.767-.16,9.4,9.4,0,0,0,8.71,6.49A18.751,18.751,0,0,1,2.229,80.887,18.338,18.338,0,0,1,0,80.762a26.224,26.224,0,0,0,14.295,4.182c17.154,0,26.53-14.206,26.53-26.521,0-.408-.018-.808-.036-1.207A18.662,18.662,0,0,0,45.459,52.368Z" transform="translate(0 -48)" fill="#fff"/>
  </g>
</svg>
