<svg id="_x33_0_A_seat" enable-background="new 0 0 64 64" height="512" viewBox="0 0 64 64" width="512" xmlns="http://www.w3.org/2000/svg"><path d="m60.66 10c-2.385-5.487-7.669-9-13.66-9s-11.275 3.513-13.66 9h-2.34v7h2.18l1.6 8h-2l1.4 7h1.973l1 6h1.847v23h-34v2h54v-2h-4v-23h1.847l1-6h1.973l1.4-7h-2l1.6-8h2.18v-7zm-13.66-7c4.889 0 9.234 2.707 11.449 7h-22.898c2.215-4.293 6.56-7 11.449-7zm-3.095 22-.3-3h6.79l-.3 3zm-.5-5-.3-3h7.79l-.3 3zm-2.31-3 .3 3h-5.575l-.6-3zm-4.875 5h5.375l.3 3h-5.075zm16.78 39h-12v-23h12zm2.153-25h-16.306l-.667-4h17.64zm3.027-6h-22.36l-.6-3h23.56zm-6.075-5 .3-3h5.375l-.6 3zm6.075-5h-5.575l.3-3h5.875zm2.82-5h-28v-3h28z"/><path d="m61 61h2v2h-2z"/><path d="m1 61h2v2h-2z"/><path d="m42 6h2v2h-2z"/><path d="m46 6h2v2h-2z"/><path d="m50 6h2v2h-2z"/><path d="m7.382 31h2.905l8-5h5.713c1.58 0 4-2.146 4-4 0-2.729-3.58-4-6-4-.207 0-.451.01-.714.025l-8.05-4.025h-2.456l1.062 5.311c-1.534.258-2.822.488-3.506.612l-3.922-3.923h-2.695l2.5 10h5.663zm3.647-2.823 1.589-3.177h3.495zm2.242-11.924 4.335 2.167c-1.227.167-2.534.364-3.788.565zm-7.49 7.747-1.269-5.073 3.152 3.152.517-.095c.108-.021 10.784-1.984 13.819-1.984 1.812 0 4 .892 4 2 0 .654-1.436 1.989-2 2h-5.195c-.237-.533-.744-1-1.805-1h-5.618l-.5 1z"/><path d="m13 36h2v2h-2z"/><path d="m25 32v2h1c.551 0 1 .449 1 1s-.449 1-1 1h-9v2h9c1.654 0 3-1.346 3-3s-1.346-3-3-3z"/><path d="m2 10h2v2h-2z"/><path d="m18 9c0-1.654-1.346-3-3-3h-1v2h1c.551 0 1 .449 1 1s-.449 1-1 1h-9v2h9c1.654 0 3-1.346 3-3z"/></svg>