<?xml version="1.0" encoding="utf-8"?>
<!-- Generator: Adobe Illustrator 24.3.0, SVG Export Plug-In . SVG Version: 6.00 Build 0)  -->
<svg version="1.1" id="Layer_1" xmlns="http://www.w3.org/2000/svg" xmlns:xlink="http://www.w3.org/1999/xlink" x="0px" y="0px"
	 viewBox="0 0 512 512" style="enable-background:new 0 0 512 512;" xml:space="preserve">
<g>
	<path d="M233.7,148.5c-2.8,0-5-2.2-5-5v-28.9c0-7.5-6.1-13.6-13.6-13.6h-4.4c-2.3,0-4.3-1.6-4.9-3.8s0.5-4.6,2.6-5.6
		c4.2-2.2,6.8-6.5,6.8-11.2c0-7-5.7-12.6-12.6-12.6c-7,0-12.6,5.7-12.6,12.6c0,4.7,2.6,9,6.8,11.2c2.1,1.1,3.1,3.4,2.6,5.6
		s-2.6,3.8-4.9,3.8h-4.4c-7.5,0-13.6,6.1-13.6,13.6v28.9c0,2.8-2.2,5-5,5s-5-2.2-5-5v-28.9c0-10.6,7.1-19.7,16.8-22.6
		c-2.1-3.5-3.2-7.5-3.2-11.7c0-12.5,10.1-22.6,22.6-22.6s22.6,10.1,22.6,22.6c0,4.2-1.2,8.2-3.2,11.7c9.7,3,16.8,12,16.8,22.6v28.9
		C238.7,146.3,236.5,148.5,233.7,148.5L233.7,148.5z"/>
	<g>
		<path d="M126.9,329.1H64.7c-2.8,0-5,2.2-5,5v115.1c0,2.8,2.2,5,5,5h62.2c2.8,0,5-2.2,5-5V334.1
			C131.9,331.3,129.7,329.1,126.9,329.1z M121.9,444.2H69.7V339.1h52.2L121.9,444.2L121.9,444.2z"/>
		<path d="M233.7,158.5h-62.2c-2.8,0-5,2.2-5,5v285.7c0,2.8,2.2,5,5,5h62.2c2.8,0,5-2.2,5-5V163.5
			C238.7,160.8,236.5,158.5,233.7,158.5L233.7,158.5z M228.7,444.2h-52.2V168.5h52.2V444.2z"/>
		<path d="M340.5,287.2h-62.2c-2.8,0-5,2.2-5,5v157.1c0,2.8,2.2,5,5,5h62.2c2.8,0,5-2.2,5-5V292.2
			C345.5,289.4,343.3,287.2,340.5,287.2z M335.5,444.2h-52.2V297.2h52.2V444.2z"/>
		<path d="M447.3,247.4h-62.2c-2.8,0-5,2.2-5,5v196.8c0,2.8,2.2,5,5,5h62.2c2.8,0,5-2.2,5-5V252.4
			C452.3,249.7,450.1,247.4,447.3,247.4L447.3,247.4z M442.3,444.2h-52.2V257.4h52.2L442.3,444.2z"/>
		<path d="M115.2,262.6c2.1-3.5,3.2-7.5,3.2-11.7c0-12.5-10.1-22.6-22.6-22.6s-22.6,10.1-22.6,22.6c0,4.2,1.2,8.2,3.2,11.7
			c-9.7,3-16.8,12-16.8,22.6v28.9c0,2.8,2.2,5,5,5s5-2.2,5-5v-28.9c0-7.5,6.1-13.6,13.6-13.6h4.4c2.3,0,4.3-1.6,4.9-3.8
			s-0.5-4.6-2.6-5.6c-4.2-2.2-6.8-6.5-6.8-11.2c0-7,5.7-12.6,12.6-12.6c7,0,12.6,5.7,12.6,12.6c0,4.7-2.6,9-6.8,11.2
			c-2.1,1.1-3.1,3.4-2.6,5.6c0.5,2.2,2.6,3.8,4.9,3.8h4.4c7.5,0,13.6,6.1,13.6,13.6v28.9c0,2.8,2.2,5,5,5c2.8,0,5-2.2,5-5v-28.9
			C131.9,274.6,124.8,265.6,115.2,262.6L115.2,262.6z"/>
		<path d="M328.8,221.3c2.1-3.5,3.2-7.5,3.2-11.7c0-12.5-10.1-22.6-22.6-22.6s-22.6,10.1-22.6,22.6c0,4.2,1.2,8.2,3.2,11.7
			c-9.7,3-16.8,12-16.8,22.6v28.9c0,2.8,2.2,5,5,5s5-2.2,5-5V244c0-7.5,6.1-13.6,13.6-13.6h4.4c2.3,0,4.3-1.6,4.9-3.8
			s-0.5-4.6-2.6-5.6c-4.2-2.2-6.8-6.5-6.8-11.2c0-7,5.7-12.6,12.6-12.6c7,0,12.6,5.7,12.6,12.6c0,4.7-2.6,9-6.8,11.2
			c-2,1.1-3.1,3.4-2.6,5.6s2.6,3.8,4.9,3.8h4.4c7.5,0,13.6,6.1,13.6,13.6v28.9c0,2.8,2.2,5,5,5s5-2.2,5-5V244
			C345.5,233.3,338.5,224.3,328.8,221.3L328.8,221.3z"/>
		<path d="M435.6,181c2.1-3.5,3.2-7.5,3.2-11.7c0-12.5-10.1-22.6-22.6-22.6s-22.6,10.1-22.6,22.6c0,4.2,1.2,8.2,3.2,11.7
			c-9.7,3-16.8,12-16.8,22.6v28.9c0,2.8,2.2,5,5,5s5-2.2,5-5v-28.9c0-7.5,6.1-13.6,13.6-13.6h4.4c2.3,0,4.3-1.6,4.9-3.8
			s-0.5-4.6-2.6-5.6c-4.2-2.2-6.8-6.5-6.8-11.2c0-7,5.7-12.6,12.6-12.6c7,0,12.6,5.7,12.6,12.6c0,4.7-2.6,9-6.8,11.2
			c-2,1.1-3.1,3.4-2.6,5.6s2.6,3.8,4.9,3.8h4.4c7.5,0,13.6,6.1,13.6,13.6v28.9c0,2.8,2.2,5,5,5s5-2.2,5-5v-28.9
			C452.3,192.9,445.3,183.9,435.6,181L435.6,181z"/>
	</g>
</g>
</svg>
