<svg id="Capa_1" enable-background="new 0 0 512 512" height="512" viewBox="0 0 512 512" width="512" xmlns="http://www.w3.org/2000/svg"><g><path d="m110.816 227.458h-56.97c-8.281 0-15.018 6.737-15.018 15.018v32.395c0 8.281 6.737 15.019 15.018 15.019h56.971c8.281 0 15.019-6.737 15.019-15.019v-32.395c-.001-8.281-6.738-15.018-15.02-15.018zm.013 47.431s-.004 0-.012 0l-56.989-.019.018-32.413 56.989.018z"/><path d="m215.893 227.458h-56.971c-8.281 0-15.019 6.737-15.019 15.018v32.395c0 8.281 6.737 15.019 15.019 15.019h56.971c8.281 0 15.018-6.737 15.018-15.019v-32.395c0-8.281-6.737-15.018-15.018-15.018zm.012 47.431s-.003 0-.012 0l-56.989-.019.019-32.413 56.989.018z"/><path d="m484.076 277.565-84.991-59.573c-51.286-35.949-111.5-54.95-174.132-54.95h-46.278l29.795-43.014c1.555-2.246 1.767-5.159.552-7.606l-12.001-24.172h307.479c4.143 0 7.5-3.358 7.5-7.5s-3.357-7.5-7.5-7.5h-497c-4.142 0-7.5 3.358-7.5 7.5s3.358 7.5 7.5 7.5h172.773l13.344 26.876-33.19 47.915h-36.553c-4.142 0-7.5 3.358-7.5 7.5s3.358 7.5 7.5 7.5h40.467c.002 0 .004.001.007.001s.005-.001.008-.001h60.595c35.492 0 70.166 6.423 102.713 18.847h-312.664v-18.31c0-.296.241-.537.538-.537h78.337c4.142 0 7.5-3.358 7.5-7.5s-3.358-7.5-7.5-7.5h-78.337c-8.568 0-15.538 6.97-15.538 15.537v214.836c0 8.567 6.97 15.538 15.538 15.538h27.316c2.803 16.882 17.501 29.798 35.165 29.798 12 0 22.626-5.965 29.091-15.079 6.465 9.114 17.091 15.079 29.091 15.079 17.665 0 32.363-12.916 35.165-29.798h44.683c2.803 16.882 17.501 29.798 35.165 29.798 12 0 22.626-5.965 29.091-15.079 6.465 9.114 17.091 15.079 29.091 15.079 17.665 0 32.363-12.916 35.166-29.798h101.892c36.143 0 65.546-29.403 65.546-65.545v-12.169c0-21.352-10.439-41.417-27.924-53.673zm-77.638-35.107c.429 0 .847-.044 1.257-.113l46.428 32.543-181.078-.017.019-32.413zm-328.419 181.292c-11.389 0-20.655-9.266-20.655-20.655s9.266-20.655 20.655-20.655 20.655 9.266 20.655 20.655-9.266 20.655-20.655 20.655zm58.182 0c-11.389 0-20.655-9.266-20.655-20.655s9.266-20.655 20.655-20.655 20.655 9.266 20.655 20.655-9.266 20.655-20.655 20.655zm115.014 0c-11.389 0-20.655-9.266-20.655-20.655s9.266-20.655 20.655-20.655c11.39 0 20.655 9.266 20.655 20.655.001 11.389-9.265 20.655-20.655 20.655zm58.182 0c-11.389 0-20.654-9.266-20.654-20.655s9.266-20.655 20.654-20.655c11.39 0 20.655 9.266 20.655 20.655s-9.265 20.655-20.655 20.655zm187.603-80.343c0 27.871-22.675 50.545-50.546 50.545h-45.461c-.159-.336-.336-.667-.549-.985l-25.324-37.725c-8.775-13.072-23.414-20.877-39.158-20.877h-101.762c-4.142 0-7.5 3.358-7.5 7.5s3.358 7.5 7.5 7.5h101.763c10.737 0 20.72 5.322 26.704 14.237l20.374 30.349h-39.182c-4.048-15.244-17.962-26.512-34.462-26.512-12 0-22.625 5.965-29.091 15.078-6.465-9.113-17.091-15.078-29.091-15.078-16.5 0-30.413 11.268-34.461 26.512h-46.092c-4.048-15.244-17.961-26.512-34.461-26.512-12 0-22.626 5.965-29.091 15.078-6.465-9.114-17.092-15.078-29.091-15.078-16.5 0-30.413 11.268-34.461 26.512h-28.02c-.296 0-.538-.241-.538-.538v-44.048h189.2c4.142 0 7.5-3.358 7.5-7.5s-3.358-7.5-7.5-7.5h-189.2v-122.477h345.546c8.829 4.717 17.451 9.906 25.829 15.569h-113.312c-8.281 0-15.019 6.737-15.019 15.018v32.395c0 8.281 6.737 15.019 15.019 15.019h202.372c.027 0 .054-.004.081-.004 13.454 9.455 21.484 24.908 21.484 41.353z"/></g></svg>