<svg xmlns="http://www.w3.org/2000/svg" xmlns:xlink="http://www.w3.org/1999/xlink" viewBox="0 0 1762.584 498.015"><defs><radialGradient id="radial-gradient" cx="5510.909" cy="10791.354" r="603.809" gradientTransform="translate(-9492.168 5479.609) rotate(-90)" gradientUnits="userSpaceOnUse"><stop offset="0" stop-color="#fff"/><stop offset="0.231" stop-color="#fcfcfc"/><stop offset="0.42" stop-color="#f2f2f2"/><stop offset="0.594" stop-color="#e0e0e1"/><stop offset="0.759" stop-color="#c8c8c9"/><stop offset="0.917" stop-color="#aaa"/><stop offset="1" stop-color="#969697"/></radialGradient><radialGradient id="radial-gradient-2" cx="5409.235" cy="10858.113" r="575.632" gradientTransform="translate(-9492.168 5479.609) rotate(-90)" gradientUnits="userSpaceOnUse"><stop offset="0" stop-color="#fff"/><stop offset="0.257" stop-color="#fcfcfc"/><stop offset="0.468" stop-color="#f2f2f2"/><stop offset="0.662" stop-color="#e0e0e1"/><stop offset="0.846" stop-color="#c9c9c9"/><stop offset="1" stop-color="#aeaeaf"/></radialGradient><radialGradient id="radial-gradient-3" cx="5059.088" cy="11169.287" r="636.249" gradientTransform="translate(-9492.168 5479.609) rotate(-90)" gradientUnits="userSpaceOnUse"><stop offset="0" stop-color="#fff"/><stop offset="0.164" stop-color="#f8f8f8"/><stop offset="0.411" stop-color="#e3e3e3"/><stop offset="0.709" stop-color="#c2c2c2"/><stop offset="1" stop-color="#9a9a9a"/></radialGradient></defs><g id="Layer_2" data-name="Layer 2"><g id="Layer_1-2" data-name="Layer 1"><g id="Layer_2-2" data-name="Layer 2"><g id="Layer_1-2-2" data-name="Layer 1-2"><path d="M101.363,443.8H1430.674c55.981,0,101.363-89.2,101.363-199.236h0c0-110.034-45.382-199.235-101.363-199.235H101.363C45.382,45.328,0,134.529,0,244.563H0C0,354.6,45.382,443.8,101.363,443.8Z" style="fill:#f4c75b"/><path d="M1490.828,54.318c117.874,0,230.389,84.482,230.389,202.361s-74.755,210.042-192.643,210.042c-117.859,0-217.807-98-217.807-215.887C1310.767,132.965,1372.954,54.318,1490.828,54.318Z" style="fill:#434343;opacity:0.5;isolation:isolate"/><path d="M1513.577,0c137.523,0,249.007,111.485,249.007,249.008S1651.1,498.015,1513.577,498.015s-249-111.479-249.008-249S1376.052,0,1513.577,0Z" style="fill:url(#radial-gradient)"/><path d="M1513.577,11.615c131.108,0,237.392,106.284,237.392,237.393S1644.685,486.4,1513.576,486.4s-237.387-106.279-237.392-237.383,106.274-237.4,237.382-237.4Z" style="fill:url(#radial-gradient-2)"/><path d="M1513.572,58.159c105.4,0,190.85,85.442,190.853,190.844s-85.442,190.851-190.844,190.853-190.843-85.433-190.853-190.83S1408.166,58.167,1513.572,58.159Z" style="fill:url(#radial-gradient-3)"/><path d="M1513.572,75.4a173.589,173.589,0,1,1-.01,0Z" style="opacity:0.10000000149011612;isolation:isolate"/><path d="M1402.3,244.528a78.131,78.131,0,0,1,3.79-11,32.614,32.614,0,0,1,23.353-17.656c.583-.122,1.153-.306,1.421-.378,0-4.1-.14-8.076.026-12.041a50.329,50.329,0,0,1,14.589-33.692,51.678,51.678,0,0,1,33.352-15.978,3.213,3.213,0,0,0,2.115-1.525c8.682-16.338,22.272-24.347,40.723-23.737,17.963.593,34.966,15.647,37.984,33.324a4.365,4.365,0,0,0,2.84,3.772,35.647,35.647,0,0,1,19.414,20.151,2.845,2.845,0,0,0,3.312,2.119,47.686,47.686,0,0,1,46.839,32.105c8.2,23.355-4.56,50.872-27.821,59.439a49.863,49.863,0,0,1-18.4,3.207c.189,2.029.441,3.868.52,5.714a67.342,67.342,0,0,1-19.6,52.029,65.457,65.457,0,0,1-37.8,19.357c-1.71.26-3.408.594-5.111.894h-10.885c-4.862-.993-9.84-1.608-14.569-3.041a68.294,68.294,0,0,1-47.928-69.658c.112-1.7.337-3.391.533-5.317-5.179,0-10.076.1-14.968-.02a32.81,32.81,0,0,1-30.488-19.439,69,69,0,0,1-3.241-10.011Zm181.909,29.278a86.607,86.607,0,0,0,10.7-1.193c14.765-3.419,24.766-12.43,28.9-26.988,4.2-14.766.369-27.871-10.778-38.432a36.5,36.5,0,0,0-30.823-9.918c-5.1.623-6.088-.3-7.831-5.217a41.1,41.1,0,0,0-4.707-9.427,24.691,24.691,0,0,0-13.761-9.785,6.018,6.018,0,0,1-4.781-6.05,22.3,22.3,0,0,0-.515-3.572,32.388,32.388,0,0,0-37.379-25.144,31.308,31.308,0,0,0-24.7,20.025,6.949,6.949,0,0,1-7.016,4.8A41.958,41.958,0,0,0,1446.8,182.77a42.756,42.756,0,0,0-5.5,34.726c1.1,4.662-.544,6.726-5.3,6.837a23.979,23.979,0,0,0-19.355,9.628,23.059,23.059,0,0,0-3.378,24.1,22.813,22.813,0,0,0,18.706,14.959c5.875.783,11.913.262,17.861.611,2.607.153,3.523-.764,4.32-3.17a67.926,67.926,0,0,1,73.435-45.253,66.781,66.781,0,0,1,51.175,36.212c2.055,3.827,3.523,7.969,5.447,12.39Zm-6.955,20.92a60.909,60.909,0,1,0,0,.014v-.014Z" style="fill:#606161"/><path d="M1526.551,153.415c-1.581-.323-3.479-.84-5.411-1.082a17.446,17.446,0,0,0-17.9,8.5c-.29.442-.528.917-.826,1.353a4.54,4.54,0,0,1-6.078,1.827,4.627,4.627,0,0,1-1.873-6.27h0c.035-.065.072-.129.11-.192a26.413,26.413,0,0,1,10.121-10.74,27.183,27.183,0,0,1,23.1-2.337,4.534,4.534,0,0,1,3.438,5.126A4.415,4.415,0,0,1,1526.551,153.415Z" style="fill:#606161"/><path d="M1489.384,172.745a4.69,4.69,0,0,1,4.567-4.812h.06a4.545,4.545,0,0,1,4.42,4.516,4.735,4.735,0,0,1-4.621,4.846h-.008A4.609,4.609,0,0,1,1489.384,172.745Z" style="fill:#606161"/><path d="M1529.266,285.678c0-5.609.261-10.908-.074-16.17a10.151,10.151,0,0,0-10.744-8.98,10.466,10.466,0,0,0-10.92,9.11c-.063.524-.037,1.062-.131,1.58a4.611,4.611,0,0,1-5.075,4.1h0a4.494,4.494,0,0,1-3.915-4.974,19.421,19.421,0,0,1,19.865-18.967q.946.021,1.889.136c9.446.914,15.761,6.308,17.746,15.16a51.947,51.947,0,0,1,.558,9.691c.078,2.568-.075,5.145.085,7.7a2.348,2.348,0,0,0,1.429,1.668,7.547,7.547,0,0,1,6.53,7.962q.03,13.832,0,27.663a7.529,7.529,0,0,1-7.132,7.906c-.224.011-.447.013-.671,0q-20.293.091-40.588,0a7.57,7.57,0,0,1-7.815-8.13q-.027-13.491,0-26.983c.006-5.467,2.863-8.425,8.35-8.46,9.3-.058,18.594-.017,27.891-.018Zm8.014,34.338V294.938h-37.75v25.078Z" style="fill:#606161"/><line x1="85.333" y1="217.845" x2="1230.221" y2="217.845" style="fill:none;stroke:#fff;stroke-miterlimit:10;stroke-width:3px"/><g style="isolation:isolate"><path d="M94.115,152.269q-4.186-4.161-4.186-11.882V120.734h8.122v19.351q0,9.427,7.821,9.426a7.331,7.331,0,0,0,5.816-2.281q2-2.281,2-7.145V120.734h8.022v19.653q0,7.722-4.186,11.882t-11.707,4.161Q98.3,156.43,94.115,152.269Z" style="fill:#fff"/><path d="M153.676,131.462q3.084,3.009,3.084,8.925v15.441h-7.822V141.59a7.038,7.038,0,0,0-1.4-4.788,5.148,5.148,0,0,0-4.061-1.579,6.223,6.223,0,0,0-4.713,1.829,7.579,7.579,0,0,0-1.755,5.441v13.335h-7.821V128.856h7.47v3.158a10.369,10.369,0,0,1,3.861-2.632,13.454,13.454,0,0,1,5.064-.928A11.1,11.1,0,0,1,153.676,131.462Z" style="fill:#fff"/><path d="M163.829,118.627h7.821v37.2h-7.821Z" style="fill:#fff"/><path d="M184.108,154.45a13.225,13.225,0,0,1-5.289-4.939,14.444,14.444,0,0,1,0-14.339,13.244,13.244,0,0,1,5.289-4.938,17.258,17.258,0,0,1,15.267,0,13.281,13.281,0,0,1,5.264,4.938,14.444,14.444,0,0,1,0,14.339,13.262,13.262,0,0,1-5.264,4.939,17.258,17.258,0,0,1-15.267,0Zm12.584-6.668a8.628,8.628,0,0,0,0-10.88,6.512,6.512,0,0,0-4.938-2.031,6.593,6.593,0,0,0-4.963,2.031,8.543,8.543,0,0,0,0,10.88,6.6,6.6,0,0,0,4.963,2.03A6.515,6.515,0,0,0,196.692,147.782Z" style="fill:#fff"/><path d="M217.047,154.45a13.313,13.313,0,0,1-5.364-4.939,14.282,14.282,0,0,1,0-14.339,13.332,13.332,0,0,1,5.364-4.938,16.587,16.587,0,0,1,7.746-1.78,15.019,15.019,0,0,1,7.446,1.78,10.558,10.558,0,0,1,4.637,5.089l-6.066,3.258a6.634,6.634,0,0,0-6.066-3.71,6.861,6.861,0,0,0-5.064,2.006,8.447,8.447,0,0,0,0,10.93,6.861,6.861,0,0,0,5.064,2.005,6.562,6.562,0,0,0,6.066-3.71l6.066,3.31a10.775,10.775,0,0,1-4.637,5.013,14.849,14.849,0,0,1-7.446,1.8A16.587,16.587,0,0,1,217.047,154.45Z" style="fill:#fff"/><path d="M252.769,145.249l-3.76,3.711v6.868h-7.822v-37.2h7.822v21.058l11.43-10.829h9.326l-11.23,11.431,12.233,15.541h-9.476Z" style="fill:#fff"/><path d="M274.477,123.842a4.247,4.247,0,0,1,0-6.217,4.958,4.958,0,0,1,3.51-1.254,5.086,5.086,0,0,1,3.509,1.2,3.858,3.858,0,0,1,1.354,3.008,4.262,4.262,0,0,1-1.354,3.234,4.9,4.9,0,0,1-3.509,1.278A4.958,4.958,0,0,1,274.477,123.842Zm-.4,5.014H281.9v26.972h-7.821Z" style="fill:#fff"/><path d="M313.658,131.462q3.084,3.009,3.084,8.925v15.441H308.92V141.59a7.038,7.038,0,0,0-1.4-4.788,5.148,5.148,0,0,0-4.061-1.579,6.223,6.223,0,0,0-4.713,1.829,7.579,7.579,0,0,0-1.755,5.441v13.335h-7.821V128.856h7.47v3.158a10.369,10.369,0,0,1,3.861-2.632,13.454,13.454,0,0,1,5.064-.928A11.1,11.1,0,0,1,313.658,131.462Z" style="fill:#fff"/><path d="M351.937,128.856v22.46q0,7.419-3.861,11.03t-11.281,3.61a28.216,28.216,0,0,1-7.42-.953,16.174,16.174,0,0,1-5.815-2.758l3.108-5.615a12.8,12.8,0,0,0,4.312,2.232,17.166,17.166,0,0,0,5.214.827q4.06,0,5.991-1.83t1.931-5.54v-1.154q-3.06,3.362-8.524,3.36A14.314,14.314,0,0,1,328.8,152.9a12.405,12.405,0,0,1-4.888-4.588,13.781,13.781,0,0,1,0-13.637,12.426,12.426,0,0,1,4.888-4.588,14.325,14.325,0,0,1,6.793-1.629q5.866,0,8.925,3.861v-3.459Zm-9.7,17.422a6.777,6.777,0,0,0,0-9.576,7.2,7.2,0,0,0-5.089-1.831,7.291,7.291,0,0,0-5.113,1.831,6.717,6.717,0,0,0,0,9.576,7.291,7.291,0,0,0,5.113,1.83A7.2,7.2,0,0,0,342.235,146.278Z" style="fill:#fff"/><path d="M405.882,155.828l-.05-21.056L395.5,152.119h-3.66l-10.278-16.9v20.6h-7.621V120.734h6.719L393.8,142.542l12.935-21.808H413.4l.1,35.094Z" style="fill:#fff"/><path d="M426.462,154.45a13.225,13.225,0,0,1-5.289-4.939,14.444,14.444,0,0,1,0-14.339,13.244,13.244,0,0,1,5.289-4.938,17.258,17.258,0,0,1,15.267,0,13.281,13.281,0,0,1,5.264,4.938,14.444,14.444,0,0,1,0,14.339,13.262,13.262,0,0,1-5.264,4.939,17.258,17.258,0,0,1-15.267,0Zm12.584-6.668a8.628,8.628,0,0,0,0-10.88,6.512,6.512,0,0,0-4.938-2.031,6.593,6.593,0,0,0-4.963,2.031,8.543,8.543,0,0,0,0,10.88,6.6,6.6,0,0,0,4.963,2.03A6.515,6.515,0,0,0,439.046,147.782Z" style="fill:#fff"/><path d="M476.9,130.184a12.417,12.417,0,0,1,4.838,4.863,16.039,16.039,0,0,1,0,14.59A12.417,12.417,0,0,1,476.9,154.5a13.749,13.749,0,0,1-6.843,1.73q-5.566,0-8.474-3.51v3.108h-7.47v-37.2h7.822v13.086a10.412,10.412,0,0,1,8.122-3.259A13.749,13.749,0,0,1,476.9,130.184Zm-3.259,17.6a8.632,8.632,0,0,0,0-10.88,7.02,7.02,0,0,0-9.877,0,8.632,8.632,0,0,0,0,10.88,7.022,7.022,0,0,0,9.877,0Z" style="fill:#fff"/><path d="M489.106,123.842a4.247,4.247,0,0,1,0-6.217,4.962,4.962,0,0,1,3.51-1.254,5.085,5.085,0,0,1,3.509,1.2,3.855,3.855,0,0,1,1.354,3.008,4.258,4.258,0,0,1-1.354,3.234,4.9,4.9,0,0,1-3.509,1.278A4.961,4.961,0,0,1,489.106,123.842Zm-.4,5.014h7.821v26.972h-7.821Z" style="fill:#fff"/><path d="M503.8,118.627h7.822v37.2H503.8Z" style="fill:#fff"/><path d="M519.288,123.842a4.245,4.245,0,0,1,0-6.217,4.958,4.958,0,0,1,3.509-1.254,5.089,5.089,0,0,1,3.51,1.2,3.858,3.858,0,0,1,1.354,3.008,4.262,4.262,0,0,1-1.354,3.234,4.907,4.907,0,0,1-3.51,1.278A4.957,4.957,0,0,1,519.288,123.842Zm-.4,5.014h7.821v26.972h-7.821Z" style="fill:#fff"/><path d="M551.374,154.525a8,8,0,0,1-2.832,1.278,14.33,14.33,0,0,1-3.535.427q-4.812,0-7.445-2.457t-2.632-7.22v-11.08h-4.161v-6.016h4.161v-6.568h7.821v6.568h6.718v6.016h-6.718v10.98a3.68,3.68,0,0,0,.877,2.632,3.25,3.25,0,0,0,2.482.928,5.026,5.026,0,0,0,3.159-1Z" style="fill:#fff"/><path d="M582.058,128.856l-12.184,28.627q-1.854,4.662-4.587,6.568a11.238,11.238,0,0,1-6.593,1.905,13.678,13.678,0,0,1-4.161-.652,9.163,9.163,0,0,1-3.359-1.805l2.858-5.565a6.73,6.73,0,0,0,2.08,1.254,6.477,6.477,0,0,0,2.332.451,4.144,4.144,0,0,0,2.607-.777,6.6,6.6,0,0,0,1.8-2.582l.1-.251-11.682-27.173h8.072l7.57,18.3,7.621-18.3Z" style="fill:#fff"/><path d="M600.005,120.734h15.944a22.406,22.406,0,0,1,10.1,2.18,16.345,16.345,0,0,1,6.819,6.142,18.719,18.719,0,0,1,0,18.45,16.331,16.331,0,0,1-6.819,6.142,22.406,22.406,0,0,1-10.1,2.18H600.005Zm15.543,28.427a11.794,11.794,0,0,0,8.4-2.933,11.643,11.643,0,0,0,0-15.894,11.794,11.794,0,0,0-8.4-2.932h-7.421v21.759Z" style="fill:#fff"/><path d="M661.371,131.437q3.359,2.983,3.359,9v15.391h-7.319v-3.359q-2.208,3.761-8.223,3.761a12.767,12.767,0,0,1-5.389-1.053,8.029,8.029,0,0,1-3.485-2.908,7.567,7.567,0,0,1-1.2-4.212,7.028,7.028,0,0,1,2.832-5.916q2.833-2.155,8.749-2.155h6.217a4.985,4.985,0,0,0-1.554-3.936,6.849,6.849,0,0,0-4.663-1.379,13.614,13.614,0,0,0-4.236.677,11.208,11.208,0,0,0-3.535,1.83l-2.807-5.465a16.925,16.925,0,0,1,5.289-2.406,23.7,23.7,0,0,1,6.342-.853Q658.012,128.454,661.371,131.437Zm-6.668,18.6a5.073,5.073,0,0,0,2.206-2.732v-2.757h-5.365q-4.812,0-4.813,3.158a2.813,2.813,0,0,0,1.179,2.382,5.3,5.3,0,0,0,3.234.877A6.8,6.8,0,0,0,654.7,150.037Z" style="fill:#fff"/><path d="M689.2,154.525a8.01,8.01,0,0,1-2.832,1.278,14.336,14.336,0,0,1-3.535.427q-4.812,0-7.445-2.457t-2.632-7.22v-11.08H668.59v-6.016h4.162v-6.568h7.821v6.568h6.718v6.016h-6.718v10.98a3.68,3.68,0,0,0,.877,2.632,3.25,3.25,0,0,0,2.482.928,5.028,5.028,0,0,0,3.159-1Z" style="fill:#fff"/><path d="M714.114,131.437q3.358,2.983,3.359,9v15.391h-7.32v-3.359q-2.207,3.761-8.222,3.761a12.775,12.775,0,0,1-5.39-1.053,8.032,8.032,0,0,1-3.484-2.908,7.568,7.568,0,0,1-1.2-4.212,7.026,7.026,0,0,1,2.833-5.916q2.832-2.155,8.749-2.155h6.217a4.988,4.988,0,0,0-1.554-3.936,6.849,6.849,0,0,0-4.663-1.379,13.625,13.625,0,0,0-4.237.677,11.214,11.214,0,0,0-3.534,1.83l-2.808-5.465a16.946,16.946,0,0,1,5.289-2.406,23.709,23.709,0,0,1,6.343-.853Q710.755,128.454,714.114,131.437Zm-6.668,18.6a5.081,5.081,0,0,0,2.206-2.732v-2.757h-5.365q-4.812,0-4.813,3.158a2.814,2.814,0,0,0,1.178,2.382,5.305,5.305,0,0,0,3.234.877A6.8,6.8,0,0,0,707.446,150.037Z" style="fill:#fff"/><path d="M727.048,155.4a17.145,17.145,0,0,1-5.113-2.081l2.606-5.616a16.336,16.336,0,0,0,4.362,1.88,18.236,18.236,0,0,0,5.014.728q4.963,0,4.963-2.457a1.738,1.738,0,0,0-1.353-1.654,20.073,20.073,0,0,0-4.162-.853A40.031,40.031,0,0,1,727.9,144.2a8.466,8.466,0,0,1-3.734-2.306,6.559,6.559,0,0,1-1.58-4.713,7.38,7.38,0,0,1,1.479-4.537,9.525,9.525,0,0,1,4.312-3.084,18.439,18.439,0,0,1,6.693-1.1,26.251,26.251,0,0,1,5.69.627,15.931,15.931,0,0,1,4.688,1.73l-2.607,5.564a15.577,15.577,0,0,0-7.771-2,7.9,7.9,0,0,0-3.76.7,2.062,2.062,0,0,0-1.254,1.8,1.792,1.792,0,0,0,1.354,1.755,23.9,23.9,0,0,0,4.312.952,46.359,46.359,0,0,1,5.414,1.179,8.134,8.134,0,0,1,3.66,2.281,6.475,6.475,0,0,1,1.555,4.613,7.128,7.128,0,0,1-1.5,4.462,9.612,9.612,0,0,1-4.388,3.033,19.558,19.558,0,0,1-6.843,1.078A26.268,26.268,0,0,1,727.048,155.4Z" style="fill:#fff"/><path d="M777.434,144.548h-20.4a6.345,6.345,0,0,0,2.607,3.96,8.622,8.622,0,0,0,5.114,1.454,10.352,10.352,0,0,0,3.735-.626,9.059,9.059,0,0,0,3.033-1.98l4.162,4.512q-3.811,4.362-11.131,4.362a17.6,17.6,0,0,1-8.071-1.78,13.037,13.037,0,0,1-5.416-4.939,13.6,13.6,0,0,1-1.9-7.169,13.779,13.779,0,0,1,1.88-7.144,13.171,13.171,0,0,1,5.164-4.964,15.985,15.985,0,0,1,14.514-.075,12.455,12.455,0,0,1,5.039,4.888,14.576,14.576,0,0,1,1.829,7.4Q777.584,142.592,777.434,144.548Zm-18.3-8.674a6.4,6.4,0,0,0-2.206,4.112h13.286a6.469,6.469,0,0,0-2.206-4.086,6.593,6.593,0,0,0-4.412-1.53A6.732,6.732,0,0,0,759.135,135.874Z" style="fill:#fff"/><path d="M800.2,154.525a8.007,8.007,0,0,1-2.833,1.278,14.328,14.328,0,0,1-3.534.427q-4.813,0-7.446-2.457t-2.632-7.22v-11.08H779.59v-6.016h4.161v-6.568h7.822v6.568h6.718v6.016h-6.718v10.98a3.68,3.68,0,0,0,.877,2.632,3.247,3.247,0,0,0,2.482.928,5.023,5.023,0,0,0,3.158-1Z" style="fill:#fff"/><path d="M807.115,155.4A17.141,17.141,0,0,1,802,153.322l2.607-5.616a16.307,16.307,0,0,0,4.362,1.88,18.223,18.223,0,0,0,5.013.728q4.964,0,4.964-2.457a1.737,1.737,0,0,0-1.354-1.654,20.075,20.075,0,0,0-4.161-.853,40.031,40.031,0,0,1-5.465-1.153,8.469,8.469,0,0,1-3.735-2.306,6.559,6.559,0,0,1-1.58-4.713,7.38,7.38,0,0,1,1.479-4.537,9.53,9.53,0,0,1,4.312-3.084,18.439,18.439,0,0,1,6.693-1.1,26.266,26.266,0,0,1,5.691.627,15.941,15.941,0,0,1,4.688,1.73l-2.608,5.564a15.572,15.572,0,0,0-7.771-2,7.9,7.9,0,0,0-3.76.7,2.062,2.062,0,0,0-1.253,1.8,1.791,1.791,0,0,0,1.354,1.755,23.884,23.884,0,0,0,4.311.952,46.382,46.382,0,0,1,5.415,1.179,8.145,8.145,0,0,1,3.66,2.281,6.479,6.479,0,0,1,1.554,4.613,7.122,7.122,0,0,1-1.5,4.462,9.609,9.609,0,0,1-4.387,3.033,19.566,19.566,0,0,1-6.843,1.078A26.262,26.262,0,0,1,807.115,155.4Z" style="fill:#fff"/></g><g style="isolation:isolate"><path d="M94.55,267.516H85.9v-3.137h20.88v3.137H98.121v22.107H94.55Z" style="fill:#fff"/><path d="M126.2,272.439q2.145,2.11,2.146,6.185v11h-3.462v-10.6a5.867,5.867,0,0,0-1.335-4.183,5.014,5.014,0,0,0-3.822-1.406,5.957,5.957,0,0,0-4.436,1.64,6.414,6.414,0,0,0-1.623,4.707v9.845H110.2V262.864h3.462v10.351a7.143,7.143,0,0,1,2.831-2.128,9.747,9.747,0,0,1,3.913-.758A7.9,7.9,0,0,1,126.2,272.439Z" style="fill:#fff"/><path d="M152.07,281.221H136.562a6,6,0,0,0,2.218,4.056,7.232,7.232,0,0,0,4.707,1.533A7.088,7.088,0,0,0,149,284.5l1.912,2.236a8.377,8.377,0,0,1-3.228,2.308,12.168,12.168,0,0,1-9.683-.45,8.871,8.871,0,0,1-3.624-3.481,9.972,9.972,0,0,1-1.28-5.049,10.128,10.128,0,0,1,1.244-5.012,8.914,8.914,0,0,1,3.425-3.481,9.767,9.767,0,0,1,4.923-1.244,9.57,9.57,0,0,1,4.887,1.244,8.748,8.748,0,0,1,3.354,3.481,10.606,10.606,0,0,1,1.208,5.121A9.954,9.954,0,0,1,152.07,281.221Zm-13.542-6.455a6.108,6.108,0,0,0-1.966,3.966h12.262a6.15,6.15,0,0,0-1.966-3.949,6.455,6.455,0,0,0-8.33-.017Z" style="fill:#fff"/><path d="M166.693,266.183a2.131,2.131,0,0,1-.667-1.587,2.19,2.19,0,0,1,.667-1.606,2.278,2.278,0,0,1,1.677-.667,2.348,2.348,0,0,1,1.677.631,2.072,2.072,0,0,1,.667,1.569,2.227,2.227,0,0,1-.667,1.641,2.274,2.274,0,0,1-1.677.667A2.311,2.311,0,0,1,166.693,266.183Zm-.054,4.327H170.1v19.113h-3.462Z" style="fill:#fff"/><path d="M192.694,272.439q2.145,2.11,2.146,6.185v11h-3.462v-10.6a5.867,5.867,0,0,0-1.335-4.183,5.014,5.014,0,0,0-3.822-1.406,5.957,5.957,0,0,0-4.436,1.64,6.414,6.414,0,0,0-1.623,4.707v9.845H176.7V270.51h3.318v2.884a6.732,6.732,0,0,1,2.831-2.271,9.906,9.906,0,0,1,4.057-.794A7.9,7.9,0,0,1,192.694,272.439Z" style="fill:#fff"/><path d="M201.313,266.183a2.131,2.131,0,0,1-.667-1.587,2.19,2.19,0,0,1,.667-1.606,2.278,2.278,0,0,1,1.677-.667,2.348,2.348,0,0,1,1.677.631,2.072,2.072,0,0,1,.667,1.569,2.227,2.227,0,0,1-.667,1.641,2.274,2.274,0,0,1-1.677.667A2.311,2.311,0,0,1,201.313,266.183Zm-.054,4.327h3.462v19.113h-3.462Z" style="fill:#fff"/><path d="M222.067,288.505a5.188,5.188,0,0,1-1.875.992,7.885,7.885,0,0,1-2.308.343,6.133,6.133,0,0,1-4.472-1.551,5.92,5.92,0,0,1-1.587-4.437V273.358H208.58V270.51h3.245v-4.184h3.462v4.184h5.482v2.848h-5.482v10.351a3.356,3.356,0,0,0,.775,2.38,2.887,2.887,0,0,0,2.218.829,4.167,4.167,0,0,0,2.705-.9Z" style="fill:#fff"/><path d="M226.3,266.183a2.131,2.131,0,0,1-.667-1.587,2.19,2.19,0,0,1,.667-1.606,2.278,2.278,0,0,1,1.677-.667,2.348,2.348,0,0,1,1.677.631,2.072,2.072,0,0,1,.667,1.569,2.227,2.227,0,0,1-.667,1.641,2.274,2.274,0,0,1-1.677.667A2.311,2.311,0,0,1,226.3,266.183Zm-.054,4.327h3.462v19.113H226.25Z" style="fill:#fff"/><path d="M249.348,272.276q2.109,1.948,2.109,5.807v11.54h-3.281V287.1a5.479,5.479,0,0,1-2.47,2.037,9.432,9.432,0,0,1-3.8.7,7.966,7.966,0,0,1-5.139-1.551,5.33,5.33,0,0,1-.09-8.133q1.839-1.531,5.842-1.532H248v-.686a4.414,4.414,0,0,0-1.3-3.425,5.478,5.478,0,0,0-3.823-1.191,10.108,10.108,0,0,0-3.317.56,8.551,8.551,0,0,0-2.741,1.5l-1.442-2.6a10.464,10.464,0,0,1,3.534-1.82,14.772,14.772,0,0,1,4.363-.632A8.647,8.647,0,0,1,249.348,272.276ZM245.9,286.287A5.069,5.069,0,0,0,248,283.781v-2.669h-5.338q-4.4,0-4.4,2.957a2.679,2.679,0,0,0,1.118,2.273,5.118,5.118,0,0,0,3.1.829A6.424,6.424,0,0,0,245.9,286.287Z" style="fill:#fff"/><path d="M268.623,288.505a5.188,5.188,0,0,1-1.875.992,7.885,7.885,0,0,1-2.308.343,6.133,6.133,0,0,1-4.472-1.551,5.924,5.924,0,0,1-1.587-4.437V273.358h-3.245V270.51h3.245v-4.184h3.462v4.184h5.482v2.848h-5.482v10.351a3.357,3.357,0,0,0,.776,2.38,2.884,2.884,0,0,0,2.217.829,4.167,4.167,0,0,0,2.7-.9Z" style="fill:#fff"/><path d="M272.86,266.183a2.131,2.131,0,0,1-.667-1.587,2.19,2.19,0,0,1,.667-1.606,2.278,2.278,0,0,1,1.677-.667,2.348,2.348,0,0,1,1.677.631,2.072,2.072,0,0,1,.667,1.569,2.227,2.227,0,0,1-.667,1.641,2.274,2.274,0,0,1-1.677.667A2.311,2.311,0,0,1,272.86,266.183Zm-.054,4.327h3.462v19.113h-3.462Z" style="fill:#fff"/><path d="M299.781,270.51l-8.367,19.113H287.88l-8.367-19.113h3.607l6.563,15.327,6.708-15.327Z" style="fill:#fff"/><path d="M319.687,281.221H304.18a6,6,0,0,0,2.217,4.056,7.234,7.234,0,0,0,4.707,1.533,7.09,7.09,0,0,0,5.518-2.308l1.911,2.236a8.377,8.377,0,0,1-3.228,2.308,12.167,12.167,0,0,1-9.683-.45A8.871,8.871,0,0,1,302,285.115a9.982,9.982,0,0,1-1.28-5.049,10.128,10.128,0,0,1,1.244-5.012,8.91,8.91,0,0,1,3.426-3.481,9.762,9.762,0,0,1,4.923-1.244,9.569,9.569,0,0,1,4.886,1.244,8.748,8.748,0,0,1,3.354,3.481,10.606,10.606,0,0,1,1.208,5.121A9.954,9.954,0,0,1,319.687,281.221Zm-13.542-6.455a6.1,6.1,0,0,0-1.965,3.966h12.261a6.149,6.149,0,0,0-1.965-3.949,6.456,6.456,0,0,0-8.331-.017Z" style="fill:#fff"/><path d="M363.179,270.51l-7.141,19.113h-3.317l-5.518-14.5-5.59,14.5H338.3l-7.1-19.113h3.282l5.553,15.218,5.77-15.218h2.922l5.661,15.291,5.7-15.291Z" style="fill:#fff"/><path d="M366.73,266.183a2.131,2.131,0,0,1-.667-1.587,2.19,2.19,0,0,1,.667-1.606,2.278,2.278,0,0,1,1.677-.667,2.348,2.348,0,0,1,1.677.631,2.072,2.072,0,0,1,.667,1.569,2.227,2.227,0,0,1-.667,1.641,2.274,2.274,0,0,1-1.677.667A2.311,2.311,0,0,1,366.73,266.183Zm-.054,4.327h3.462v19.113h-3.462Z" style="fill:#fff"/><path d="M376.738,262.864H380.2v26.759h-3.462Z" style="fill:#fff"/><path d="M386.8,262.864h3.462v26.759H386.8Z" style="fill:#fff"/><path d="M422.555,272.439q2.145,2.11,2.146,6.185v11h-3.462v-10.6a5.872,5.872,0,0,0-1.335-4.183,5.014,5.014,0,0,0-3.822-1.406,5.957,5.957,0,0,0-4.436,1.64,6.414,6.414,0,0,0-1.623,4.707v9.845h-3.462V262.864h3.462v10.351a7.136,7.136,0,0,1,2.831-2.128,9.747,9.747,0,0,1,3.913-.758A7.9,7.9,0,0,1,422.555,272.439Z" style="fill:#fff"/><path d="M448.43,281.221H432.922a6,6,0,0,0,2.218,4.056,7.232,7.232,0,0,0,4.707,1.533,7.088,7.088,0,0,0,5.517-2.308l1.911,2.236a8.373,8.373,0,0,1-3.227,2.308,12.168,12.168,0,0,1-9.683-.45,8.871,8.871,0,0,1-3.624-3.481,9.973,9.973,0,0,1-1.281-5.049,10.128,10.128,0,0,1,1.245-5.012,8.914,8.914,0,0,1,3.425-3.481,9.767,9.767,0,0,1,4.923-1.244,9.564,9.564,0,0,1,4.886,1.244,8.735,8.735,0,0,1,3.354,3.481,10.6,10.6,0,0,1,1.208,5.121A9.908,9.908,0,0,1,448.43,281.221Zm-13.542-6.455a6.108,6.108,0,0,0-1.966,3.966h12.262a6.155,6.155,0,0,0-1.966-3.949,6.455,6.455,0,0,0-8.33-.017Z" style="fill:#fff"/><path d="M453.3,262.864h3.462v26.759H453.3Z" style="fill:#fff"/><path d="M478.469,271.556a8.818,8.818,0,0,1,3.444,3.425,11.052,11.052,0,0,1,0,10.188,8.781,8.781,0,0,1-3.444,3.444,10.04,10.04,0,0,1-4.976,1.227,8.857,8.857,0,0,1-3.769-.794,7.833,7.833,0,0,1-2.9-2.308v9.881h-3.462V270.51h3.318v3.029a7.34,7.34,0,0,1,2.921-2.4,9.2,9.2,0,0,1,3.895-.812A10.04,10.04,0,0,1,478.469,271.556ZM476.5,285.963a6.106,6.106,0,0,0,2.308-2.381,7.721,7.721,0,0,0,0-7.032,5.976,5.976,0,0,0-2.308-2.362,6.576,6.576,0,0,0-3.3-.83,6.383,6.383,0,0,0-3.264.848,6.143,6.143,0,0,0-2.308,2.362,7.044,7.044,0,0,0-.847,3.5,7.268,7.268,0,0,0,.829,3.516,5.945,5.945,0,0,0,2.308,2.381,6.817,6.817,0,0,0,6.582,0Z" style="fill:#fff"/><path d="M497.708,266.183a2.131,2.131,0,0,1-.667-1.587,2.19,2.19,0,0,1,.667-1.606,2.278,2.278,0,0,1,1.677-.667,2.348,2.348,0,0,1,1.677.631,2.072,2.072,0,0,1,.667,1.569,2.227,2.227,0,0,1-.667,1.641,2.274,2.274,0,0,1-1.677.667A2.311,2.311,0,0,1,497.708,266.183Zm-.054,4.327h3.462v19.113h-3.462Z" style="fill:#fff"/><path d="M537.341,272.421q2.111,2.091,2.11,6.2v11h-3.462v-10.6a6.033,6.033,0,0,0-1.28-4.183,4.7,4.7,0,0,0-3.661-1.406,5.479,5.479,0,0,0-4.183,1.64,6.6,6.6,0,0,0-1.551,4.707v9.845h-3.461v-10.6a6.033,6.033,0,0,0-1.281-4.183,4.7,4.7,0,0,0-3.66-1.406,5.483,5.483,0,0,0-4.184,1.64,6.6,6.6,0,0,0-1.55,4.707v9.845h-3.462V270.51h3.318v2.848a6.713,6.713,0,0,1,2.74-2.254,9.192,9.192,0,0,1,3.859-.775,8.463,8.463,0,0,1,3.967.9,6.275,6.275,0,0,1,2.669,2.632,7.336,7.336,0,0,1,3.011-2.6,9.827,9.827,0,0,1,4.345-.937A7.763,7.763,0,0,1,537.341,272.421Z" style="fill:#fff"/><path d="M560.944,271.556a8.818,8.818,0,0,1,3.444,3.425,11.052,11.052,0,0,1,0,10.188,8.781,8.781,0,0,1-3.444,3.444,10.037,10.037,0,0,1-4.976,1.227,8.857,8.857,0,0,1-3.769-.794,7.833,7.833,0,0,1-2.9-2.308v9.881h-3.462V270.51h3.318v3.029a7.347,7.347,0,0,1,2.921-2.4,9.2,9.2,0,0,1,3.895-.812A10.037,10.037,0,0,1,560.944,271.556Zm-1.965,14.407a6.106,6.106,0,0,0,2.308-2.381,7.721,7.721,0,0,0,0-7.032,5.976,5.976,0,0,0-2.308-2.362,6.576,6.576,0,0,0-3.3-.83,6.38,6.38,0,0,0-3.263.848,6.139,6.139,0,0,0-2.309,2.362,7.044,7.044,0,0,0-.847,3.5,7.268,7.268,0,0,0,.829,3.516,5.945,5.945,0,0,0,2.308,2.381,6.817,6.817,0,0,0,6.582,0Z" style="fill:#fff"/><path d="M576.415,271.2a9.68,9.68,0,0,1,4.291-.866v3.354a6.778,6.778,0,0,0-.793-.036,5.825,5.825,0,0,0-4.418,1.677,6.638,6.638,0,0,0-1.605,4.778v9.521h-3.462V270.51h3.318v3.21A5.9,5.9,0,0,1,576.415,271.2Z" style="fill:#fff"/><path d="M587.847,288.577a9.143,9.143,0,0,1-3.553-3.48,10.527,10.527,0,0,1,0-10.062,9.031,9.031,0,0,1,3.553-3.462,11.123,11.123,0,0,1,10.223,0,9.061,9.061,0,0,1,3.534,3.462,10.52,10.52,0,0,1,0,10.062,9.175,9.175,0,0,1-3.534,3.48,10.975,10.975,0,0,1-10.223,0Zm8.42-2.614a5.981,5.981,0,0,0,2.29-2.381,7.862,7.862,0,0,0,0-7.032,5.855,5.855,0,0,0-2.29-2.362,6.973,6.973,0,0,0-6.6,0,5.969,5.969,0,0,0-2.308,2.362,7.713,7.713,0,0,0,0,7.032,6.1,6.1,0,0,0,2.308,2.381,6.85,6.85,0,0,0,6.6,0Z" style="fill:#fff"/><path d="M624.054,270.51l-8.367,19.113h-3.534l-8.367-19.113h3.607l6.563,15.327,6.708-15.327Z" style="fill:#fff"/><path d="M643.96,281.221H628.453a6,6,0,0,0,2.217,4.056,7.234,7.234,0,0,0,4.707,1.533A7.09,7.09,0,0,0,640.9,284.5l1.911,2.236a8.377,8.377,0,0,1-3.228,2.308,12.167,12.167,0,0,1-9.683-.45,8.871,8.871,0,0,1-3.624-3.481,9.972,9.972,0,0,1-1.28-5.049,10.128,10.128,0,0,1,1.244-5.012,8.91,8.91,0,0,1,3.426-3.481,9.761,9.761,0,0,1,4.922-1.244,9.57,9.57,0,0,1,4.887,1.244,8.748,8.748,0,0,1,3.354,3.481,10.606,10.606,0,0,1,1.208,5.121A9.954,9.954,0,0,1,643.96,281.221Zm-13.542-6.455a6.1,6.1,0,0,0-1.965,3.966h12.261a6.154,6.154,0,0,0-1.965-3.949,6.456,6.456,0,0,0-8.331-.017Z" style="fill:#fff"/><path d="M669.276,288.505a5.2,5.2,0,0,1-1.875.992,7.885,7.885,0,0,1-2.308.343,6.133,6.133,0,0,1-4.472-1.551,5.92,5.92,0,0,1-1.587-4.437V273.358h-3.245V270.51h3.245v-4.184H662.5v4.184h5.482v2.848H662.5v10.351a3.356,3.356,0,0,0,.775,2.38,2.887,2.887,0,0,0,2.218.829,4.167,4.167,0,0,0,2.7-.9Z" style="fill:#fff"/><path d="M689.452,272.439q2.145,2.11,2.146,6.185v11h-3.462v-10.6a5.872,5.872,0,0,0-1.334-4.183,5.018,5.018,0,0,0-3.823-1.406,5.957,5.957,0,0,0-4.436,1.64,6.414,6.414,0,0,0-1.623,4.707v9.845h-3.462V262.864h3.462v10.351a7.15,7.15,0,0,1,2.831-2.128,9.751,9.751,0,0,1,3.913-.758A7.9,7.9,0,0,1,689.452,272.439Z" style="fill:#fff"/><path d="M715.328,281.221H699.82a6,6,0,0,0,2.218,4.056,7.232,7.232,0,0,0,4.707,1.533,7.088,7.088,0,0,0,5.517-2.308l1.911,2.236a8.373,8.373,0,0,1-3.227,2.308,12.168,12.168,0,0,1-9.683-.45,8.871,8.871,0,0,1-3.624-3.481,9.973,9.973,0,0,1-1.281-5.049,10.128,10.128,0,0,1,1.245-5.012,8.914,8.914,0,0,1,3.425-3.481,9.767,9.767,0,0,1,4.923-1.244,9.564,9.564,0,0,1,4.886,1.244,8.735,8.735,0,0,1,3.354,3.481,10.6,10.6,0,0,1,1.208,5.121A10.187,10.187,0,0,1,715.328,281.221Zm-13.542-6.455a6.108,6.108,0,0,0-1.966,3.966h12.262a6.155,6.155,0,0,0-1.966-3.949,6.455,6.455,0,0,0-8.33-.017Z" style="fill:#fff"/><path d="M742.933,272.276q2.111,1.948,2.11,5.807v11.54h-3.282V287.1a5.479,5.479,0,0,1-2.47,2.037,9.429,9.429,0,0,1-3.805.7,7.966,7.966,0,0,1-5.139-1.551,5.331,5.331,0,0,1-.09-8.133q1.839-1.531,5.842-1.532h5.482v-.686a4.414,4.414,0,0,0-1.3-3.425,5.48,5.48,0,0,0-3.823-1.191,10.114,10.114,0,0,0-3.318.56,8.551,8.551,0,0,0-2.741,1.5l-1.442-2.6a10.473,10.473,0,0,1,3.534-1.82,14.777,14.777,0,0,1,4.363-.632A8.645,8.645,0,0,1,742.933,272.276Zm-3.444,14.011a5.059,5.059,0,0,0,2.092-2.506v-2.669h-5.337q-4.4,0-4.4,2.957a2.677,2.677,0,0,0,1.118,2.273,5.117,5.117,0,0,0,3.1.829A6.424,6.424,0,0,0,739.489,286.287Z" style="fill:#fff"/><path d="M754.689,288.577a9.235,9.235,0,0,1-3.588-3.48,10.4,10.4,0,0,1,0-10.062,9.122,9.122,0,0,1,3.588-3.462,10.745,10.745,0,0,1,5.211-1.244,10,10,0,0,1,4.634,1.046,7.462,7.462,0,0,1,3.156,3.029l-2.633,1.695a5.89,5.89,0,0,0-2.236-2.055,6.385,6.385,0,0,0-2.957-.686,6.85,6.85,0,0,0-3.372.83,5.914,5.914,0,0,0-2.344,2.362,7.8,7.8,0,0,0,0,7.068,5.9,5.9,0,0,0,2.344,2.362,6.828,6.828,0,0,0,3.372.83,6.372,6.372,0,0,0,2.957-.685,5.877,5.877,0,0,0,2.236-2.056l2.633,1.659a7.557,7.557,0,0,1-3.156,3.047,9.853,9.853,0,0,1-4.634,1.065A10.611,10.611,0,0,1,754.689,288.577Z" style="fill:#fff"/><path d="M774.993,288.577a9.238,9.238,0,0,1-3.589-3.48,10.4,10.4,0,0,1,0-10.062,9.125,9.125,0,0,1,3.589-3.462,10.74,10.74,0,0,1,5.211-1.244,10,10,0,0,1,4.633,1.046,7.457,7.457,0,0,1,3.156,3.029L785.36,276.1a5.883,5.883,0,0,0-2.236-2.055,6.385,6.385,0,0,0-2.957-.686,6.85,6.85,0,0,0-3.372.83,5.905,5.905,0,0,0-2.343,2.362,7.788,7.788,0,0,0,0,7.068,5.893,5.893,0,0,0,2.343,2.362,6.828,6.828,0,0,0,3.372.83,6.372,6.372,0,0,0,2.957-.685,5.87,5.87,0,0,0,2.236-2.056l2.633,1.659a7.551,7.551,0,0,1-3.156,3.047,9.849,9.849,0,0,1-4.633,1.065A10.606,10.606,0,0,1,774.993,288.577Z" style="fill:#fff"/><path d="M809.379,281.221H793.872a6,6,0,0,0,2.217,4.056,7.234,7.234,0,0,0,4.707,1.533,7.087,7.087,0,0,0,5.517-2.308l1.912,2.236A8.377,8.377,0,0,1,805,289.046a12.168,12.168,0,0,1-9.683-.45,8.871,8.871,0,0,1-3.624-3.481,9.972,9.972,0,0,1-1.28-5.049,10.128,10.128,0,0,1,1.244-5.012,8.91,8.91,0,0,1,3.426-3.481A9.761,9.761,0,0,1,800,270.329a9.57,9.57,0,0,1,4.887,1.244,8.748,8.748,0,0,1,3.354,3.481,10.606,10.606,0,0,1,1.208,5.121A9.954,9.954,0,0,1,809.379,281.221Zm-13.542-6.455a6.1,6.1,0,0,0-1.965,3.966h12.261a6.15,6.15,0,0,0-1.966-3.949,6.455,6.455,0,0,0-8.33-.017Z" style="fill:#fff"/><path d="M815.221,289.208a9.861,9.861,0,0,1-3.39-1.605l1.442-2.741a10.366,10.366,0,0,0,3.066,1.444,12.633,12.633,0,0,0,3.642.541q4.543,0,4.544-2.6a1.685,1.685,0,0,0-.613-1.371,3.9,3.9,0,0,0-1.533-.739q-.92-.234-2.614-.523a25.652,25.652,0,0,1-3.769-.829,5.811,5.811,0,0,1-2.506-1.587,4.413,4.413,0,0,1-1.046-3.138,4.9,4.9,0,0,1,2.164-4.165,9.687,9.687,0,0,1,5.806-1.569,16.018,16.018,0,0,1,3.822.469,10.327,10.327,0,0,1,3.138,1.262L825.9,274.8a9.94,9.94,0,0,0-5.517-1.515,6.375,6.375,0,0,0-3.354.722,2.175,2.175,0,0,0-1.154,1.911,1.818,1.818,0,0,0,.649,1.478,4.08,4.08,0,0,0,1.605.794q.955.252,2.687.577a29.384,29.384,0,0,1,3.732.847,5.578,5.578,0,0,1,2.434,1.533,4.271,4.271,0,0,1,1.01,3.03,4.777,4.777,0,0,1-2.218,4.129,10.472,10.472,0,0,1-6.041,1.533A16,16,0,0,1,815.221,289.208Z" style="fill:#fff"/><path d="M833.288,289.208a9.87,9.87,0,0,1-3.39-1.605l1.443-2.741a10.359,10.359,0,0,0,3.065,1.444,12.633,12.633,0,0,0,3.642.541q4.545,0,4.544-2.6a1.682,1.682,0,0,0-.613-1.371,3.9,3.9,0,0,0-1.532-.739q-.921-.234-2.615-.523a25.652,25.652,0,0,1-3.769-.829,5.817,5.817,0,0,1-2.506-1.587,4.413,4.413,0,0,1-1.046-3.138,4.9,4.9,0,0,1,2.164-4.165,9.691,9.691,0,0,1,5.806-1.569,16.032,16.032,0,0,1,3.823.469,10.31,10.31,0,0,1,3.137,1.262l-1.478,2.741a9.943,9.943,0,0,0-5.518-1.515,6.375,6.375,0,0,0-3.354.722,2.177,2.177,0,0,0-1.154,1.911,1.821,1.821,0,0,0,.649,1.478,4.086,4.086,0,0,0,1.605.794q.955.252,2.687.577a29.384,29.384,0,0,1,3.732.847,5.578,5.578,0,0,1,2.434,1.533,4.271,4.271,0,0,1,1.01,3.03,4.777,4.777,0,0,1-2.218,4.129,10.47,10.47,0,0,1-6.04,1.533A16.005,16.005,0,0,1,833.288,289.208Z" style="fill:#fff"/><path d="M850.436,266.183a2.128,2.128,0,0,1-.668-1.587,2.187,2.187,0,0,1,.668-1.606,2.274,2.274,0,0,1,1.676-.667,2.348,2.348,0,0,1,1.677.631,2.075,2.075,0,0,1,.667,1.569,2.231,2.231,0,0,1-.667,1.641,2.274,2.274,0,0,1-1.677.667A2.307,2.307,0,0,1,850.436,266.183Zm-.055,4.327h3.462v19.113h-3.462Z" style="fill:#fff"/><path d="M875.553,271.556A8.818,8.818,0,0,1,879,274.981a11.052,11.052,0,0,1,0,10.188,8.781,8.781,0,0,1-3.444,3.444,10.041,10.041,0,0,1-4.977,1.227,9.043,9.043,0,0,1-3.894-.83,7.479,7.479,0,0,1-2.921-2.416v3.029h-3.319V262.864H863.9v10.53a7.375,7.375,0,0,1,2.886-2.29,9.166,9.166,0,0,1,3.786-.775A10.041,10.041,0,0,1,875.553,271.556Zm-1.965,14.407a6.1,6.1,0,0,0,2.307-2.381,7.713,7.713,0,0,0,0-7.032,5.974,5.974,0,0,0-2.307-2.362,6.939,6.939,0,0,0-6.582,0,5.822,5.822,0,0,0-2.308,2.362,7.862,7.862,0,0,0,0,7.032,5.945,5.945,0,0,0,2.308,2.381,6.817,6.817,0,0,0,6.582,0Z" style="fill:#fff"/><path d="M885.092,266.183a2.128,2.128,0,0,1-.668-1.587,2.187,2.187,0,0,1,.668-1.606,2.275,2.275,0,0,1,1.677-.667,2.347,2.347,0,0,1,1.676.631,2.072,2.072,0,0,1,.667,1.569,2.227,2.227,0,0,1-.667,1.641,2.273,2.273,0,0,1-1.676.667A2.307,2.307,0,0,1,885.092,266.183Zm-.055,4.327H888.5v19.113h-3.462Z" style="fill:#fff"/><path d="M895.1,262.864h3.462v26.759H895.1Z" style="fill:#fff"/><path d="M905.214,266.183a2.132,2.132,0,0,1-.668-1.587,2.191,2.191,0,0,1,.668-1.606,2.275,2.275,0,0,1,1.677-.667,2.347,2.347,0,0,1,1.676.631,2.072,2.072,0,0,1,.667,1.569,2.227,2.227,0,0,1-.667,1.641,2.273,2.273,0,0,1-1.676.667A2.307,2.307,0,0,1,905.214,266.183Zm-.055,4.327h3.462v19.113h-3.462Z" style="fill:#fff"/><path d="M925.968,288.505a5.2,5.2,0,0,1-1.875.992,7.886,7.886,0,0,1-2.309.343,6.133,6.133,0,0,1-4.472-1.551,5.923,5.923,0,0,1-1.586-4.437V273.358H912.48V270.51h3.246v-4.184h3.461v4.184h5.482v2.848h-5.482v10.351a3.357,3.357,0,0,0,.776,2.38,2.886,2.886,0,0,0,2.218.829,4.169,4.169,0,0,0,2.7-.9Z" style="fill:#fff"/><path d="M946.7,270.51l-9.267,21.024a9.494,9.494,0,0,1-2.868,4.111,6.549,6.549,0,0,1-3.949,1.191,8.362,8.362,0,0,1-2.723-.451,5.6,5.6,0,0,1-2.181-1.317l1.478-2.6a4.825,4.825,0,0,0,3.426,1.407,3.3,3.3,0,0,0,2.109-.668,5.684,5.684,0,0,0,1.534-2.29l.613-1.334-8.439-19.077h3.606l6.672,15.291,6.6-15.291Z" style="fill:#fff"/><path d="M972.687,272.276q2.109,1.948,2.109,5.807v11.54h-3.281V287.1a5.487,5.487,0,0,1-2.471,2.037,9.429,9.429,0,0,1-3.8.7,7.965,7.965,0,0,1-5.138-1.551,5.33,5.33,0,0,1-.09-8.133q1.838-1.531,5.842-1.532h5.481v-.686a4.414,4.414,0,0,0-1.3-3.425,5.481,5.481,0,0,0-3.823-1.191,10.118,10.118,0,0,0-3.318.56,8.551,8.551,0,0,0-2.741,1.5l-1.442-2.6a10.473,10.473,0,0,1,3.534-1.82,14.777,14.777,0,0,1,4.363-.632A8.65,8.65,0,0,1,972.687,272.276Zm-3.445,14.011a5.059,5.059,0,0,0,2.092-2.506v-2.669H966q-4.4,0-4.4,2.957a2.679,2.679,0,0,0,1.118,2.273,5.117,5.117,0,0,0,3.1.829A6.421,6.421,0,0,0,969.242,286.287Z" style="fill:#fff"/><path d="M997.208,272.439q2.147,2.11,2.146,6.185v11h-3.461v-10.6a5.872,5.872,0,0,0-1.335-4.183,5.017,5.017,0,0,0-3.823-1.406,5.953,5.953,0,0,0-4.435,1.64,6.414,6.414,0,0,0-1.623,4.707v9.845h-3.462V270.51h3.317v2.884a6.732,6.732,0,0,1,2.831-2.271,9.909,9.909,0,0,1,4.057-.794A7.894,7.894,0,0,1,997.208,272.439Z" style="fill:#fff"/><path d="M1023.913,262.864v26.759H1020.6v-3.029a7.51,7.51,0,0,1-2.922,2.416,9.053,9.053,0,0,1-3.895.83,10.037,10.037,0,0,1-4.976-1.227,8.79,8.79,0,0,1-3.445-3.444,11.052,11.052,0,0,1,0-10.188,8.827,8.827,0,0,1,3.445-3.425,10.037,10.037,0,0,1,4.976-1.227,9.174,9.174,0,0,1,3.787.775,7.365,7.365,0,0,1,2.885,2.29v-10.53Zm-6.563,23.1a5.949,5.949,0,0,0,2.307-2.381,7.862,7.862,0,0,0,0-7.032,5.826,5.826,0,0,0-2.307-2.362,6.937,6.937,0,0,0-6.581,0,5.965,5.965,0,0,0-2.309,2.362,7.713,7.713,0,0,0,0,7.032,6.094,6.094,0,0,0,2.309,2.381,6.815,6.815,0,0,0,6.581,0Z" style="fill:#fff"/><path d="M1069.8,272.421q2.109,2.091,2.109,6.2v11h-3.462v-10.6a6.033,6.033,0,0,0-1.28-4.183,4.7,4.7,0,0,0-3.66-1.406,5.481,5.481,0,0,0-4.184,1.64,6.6,6.6,0,0,0-1.551,4.707v9.845h-3.462v-10.6a6.028,6.028,0,0,0-1.28-4.183,4.7,4.7,0,0,0-3.66-1.406,5.484,5.484,0,0,0-4.184,1.64,6.6,6.6,0,0,0-1.55,4.707v9.845h-3.462V270.51h3.318v2.848a6.713,6.713,0,0,1,2.74-2.254,9.194,9.194,0,0,1,3.86-.775,8.468,8.468,0,0,1,3.967.9,6.271,6.271,0,0,1,2.667,2.632,7.345,7.345,0,0,1,3.012-2.6,9.829,9.829,0,0,1,4.346-.937A7.766,7.766,0,0,1,1069.8,272.421Z" style="fill:#fff"/><path d="M1081.468,288.577a9.141,9.141,0,0,1-3.552-3.48,10.527,10.527,0,0,1,0-10.062,9.029,9.029,0,0,1,3.552-3.462,11.123,11.123,0,0,1,10.223,0,9.071,9.071,0,0,1,3.535,3.462,10.527,10.527,0,0,1,0,10.062,9.184,9.184,0,0,1-3.535,3.48,10.975,10.975,0,0,1-10.223,0Zm8.421-2.614a5.994,5.994,0,0,0,2.29-2.381,7.871,7.871,0,0,0,0-7.032,5.868,5.868,0,0,0-2.29-2.362,6.975,6.975,0,0,0-6.6,0,5.976,5.976,0,0,0-2.308,2.362,7.721,7.721,0,0,0,0,7.032,6.106,6.106,0,0,0,2.308,2.381,6.852,6.852,0,0,0,6.6,0Z" style="fill:#fff"/><path d="M1116.413,271.556a8.822,8.822,0,0,1,3.443,3.425,11.044,11.044,0,0,1,0,10.188,8.785,8.785,0,0,1-3.443,3.444,10.043,10.043,0,0,1-4.976,1.227,9.055,9.055,0,0,1-3.9-.83,7.5,7.5,0,0,1-2.921-2.416v3.029H1101.3V262.864h3.462v10.53a7.355,7.355,0,0,1,2.884-2.29,9.175,9.175,0,0,1,3.788-.775A10.043,10.043,0,0,1,1116.413,271.556Zm-1.966,14.407a6.115,6.115,0,0,0,2.309-2.381,7.721,7.721,0,0,0,0-7.032,5.985,5.985,0,0,0-2.309-2.362,6.937,6.937,0,0,0-6.581,0,5.816,5.816,0,0,0-2.308,2.362,7.862,7.862,0,0,0,0,7.032,5.939,5.939,0,0,0,2.308,2.381,6.815,6.815,0,0,0,6.581,0Z" style="fill:#fff"/><path d="M1125.951,266.183a2.132,2.132,0,0,1-.668-1.587,2.191,2.191,0,0,1,.668-1.606,2.275,2.275,0,0,1,1.677-.667,2.35,2.35,0,0,1,1.677.631,2.075,2.075,0,0,1,.667,1.569,2.231,2.231,0,0,1-.667,1.641,2.275,2.275,0,0,1-1.677.667A2.307,2.307,0,0,1,1125.951,266.183Zm-.055,4.327h3.462v19.113H1125.9Z" style="fill:#fff"/><path d="M1135.958,262.864h3.462v26.759h-3.462Z" style="fill:#fff"/><path d="M1146.074,266.183a2.132,2.132,0,0,1-.668-1.587,2.191,2.191,0,0,1,.668-1.606,2.276,2.276,0,0,1,1.677-.667,2.35,2.35,0,0,1,1.677.631,2.075,2.075,0,0,1,.667,1.569,2.231,2.231,0,0,1-.667,1.641,2.275,2.275,0,0,1-1.677.667A2.309,2.309,0,0,1,1146.074,266.183Zm-.054,4.327h3.461v19.113h-3.461Z" style="fill:#fff"/><path d="M1166.827,288.505a5.188,5.188,0,0,1-1.875.992,7.878,7.878,0,0,1-2.307.343,6.131,6.131,0,0,1-4.472-1.551,5.92,5.92,0,0,1-1.587-4.437V273.358h-3.246V270.51h3.246v-4.184h3.462v4.184h5.481v2.848h-5.481v10.351a3.356,3.356,0,0,0,.775,2.38,2.887,2.887,0,0,0,2.218.829,4.169,4.169,0,0,0,2.705-.9Z" style="fill:#fff"/><path d="M1187.563,270.51l-9.268,21.024a9.485,9.485,0,0,1-2.867,4.111,6.547,6.547,0,0,1-3.949,1.191,8.362,8.362,0,0,1-2.723-.451,5.6,5.6,0,0,1-2.182-1.317l1.479-2.6a4.825,4.825,0,0,0,3.426,1.407,3.308,3.308,0,0,0,2.11-.668,5.7,5.7,0,0,0,1.532-2.29l.613-1.334L1167.3,270.51h3.606l6.671,15.291,6.6-15.291Z" style="fill:#fff"/></g><g style="isolation:isolate"><path d="M92.1,335.554a9.137,9.137,0,0,1-3.552-3.481,10.525,10.525,0,0,1,0-10.061A9.022,9.022,0,0,1,92.1,318.55a11.125,11.125,0,0,1,10.224,0,9.068,9.068,0,0,1,3.534,3.462,10.525,10.525,0,0,1,0,10.061,9.184,9.184,0,0,1-3.534,3.481,10.985,10.985,0,0,1-10.224,0Zm8.421-2.615a5.982,5.982,0,0,0,2.29-2.381,7.871,7.871,0,0,0,0-7.032,5.872,5.872,0,0,0-2.29-2.361,6.975,6.975,0,0,0-6.6,0,5.98,5.98,0,0,0-2.308,2.361,7.721,7.721,0,0,0,0,7.032,6.092,6.092,0,0,0,2.308,2.381,6.845,6.845,0,0,0,6.6,0Z" style="fill:#fff"/><path d="M115.827,315.827v1.659h5.554v2.849H115.9V336.6h-3.462V320.335h-3.245v-2.849h3.245v-1.695a6.093,6.093,0,0,1,1.659-4.508,6.293,6.293,0,0,1,4.653-1.658,7.853,7.853,0,0,1,2.163.288,5.273,5.273,0,0,1,1.731.829l-1.045,2.633a4.311,4.311,0,0,0-2.669-.9Q115.827,312.474,115.827,315.827Z" style="fill:#fff"/><path d="M149.474,318.532a8.818,8.818,0,0,1,3.443,3.426,11.042,11.042,0,0,1,0,10.187,8.787,8.787,0,0,1-3.443,3.445,10.054,10.054,0,0,1-4.977,1.226,8.842,8.842,0,0,1-3.769-.794,7.839,7.839,0,0,1-2.9-2.307V343.6h-3.462v-26.11h3.318v3.03a7.349,7.349,0,0,1,2.921-2.4,9.22,9.22,0,0,1,3.9-.811A10.054,10.054,0,0,1,149.474,318.532Zm-1.966,14.407a6.092,6.092,0,0,0,2.308-2.381,7.713,7.713,0,0,0,0-7.032,5.98,5.98,0,0,0-2.308-2.361,6.56,6.56,0,0,0-3.3-.83,6.38,6.38,0,0,0-3.263.848,6.129,6.129,0,0,0-2.308,2.362,7.044,7.044,0,0,0-.848,3.5,7.253,7.253,0,0,0,.83,3.515,5.92,5.92,0,0,0,2.308,2.381,6.808,6.808,0,0,0,6.581,0Z" style="fill:#fff"/><path d="M176.16,328.2H160.653a6,6,0,0,0,2.218,4.057,7.237,7.237,0,0,0,4.706,1.533,7.091,7.091,0,0,0,5.518-2.309l1.911,2.237a8.367,8.367,0,0,1-3.228,2.307,12.167,12.167,0,0,1-9.683-.45,8.869,8.869,0,0,1-3.624-3.48,9.985,9.985,0,0,1-1.28-5.049,10.129,10.129,0,0,1,1.244-5.013,8.921,8.921,0,0,1,3.426-3.48,9.762,9.762,0,0,1,4.923-1.244,9.569,9.569,0,0,1,4.886,1.244,8.752,8.752,0,0,1,3.354,3.48,10.606,10.606,0,0,1,1.208,5.121A9.92,9.92,0,0,1,176.16,328.2Zm-13.542-6.455a6.1,6.1,0,0,0-1.965,3.967h12.262a6.153,6.153,0,0,0-1.966-3.949,6.455,6.455,0,0,0-8.331-.018Z" style="fill:#fff"/><path d="M184.094,335.554a9.146,9.146,0,0,1-3.553-3.481,10.525,10.525,0,0,1,0-10.061,9.031,9.031,0,0,1,3.553-3.462,11.123,11.123,0,0,1,10.223,0,9.064,9.064,0,0,1,3.535,3.462,10.525,10.525,0,0,1,0,10.061,9.18,9.18,0,0,1-3.535,3.481,10.983,10.983,0,0,1-10.223,0Zm8.42-2.615a5.968,5.968,0,0,0,2.29-2.381,7.862,7.862,0,0,0,0-7.032,5.859,5.859,0,0,0-2.29-2.361,6.973,6.973,0,0,0-6.6,0,5.973,5.973,0,0,0-2.308,2.361,7.713,7.713,0,0,0,0,7.032,6.085,6.085,0,0,0,2.308,2.381,6.843,6.843,0,0,0,6.6,0Z" style="fill:#fff"/><path d="M219.039,318.532a8.818,8.818,0,0,1,3.443,3.426,11.042,11.042,0,0,1,0,10.187,8.787,8.787,0,0,1-3.443,3.445,10.054,10.054,0,0,1-4.977,1.226,8.842,8.842,0,0,1-3.769-.794,7.839,7.839,0,0,1-2.9-2.307V343.6h-3.462v-26.11h3.318v3.03a7.349,7.349,0,0,1,2.921-2.4,9.22,9.22,0,0,1,3.9-.811A10.054,10.054,0,0,1,219.039,318.532Zm-1.966,14.407a6.092,6.092,0,0,0,2.308-2.381,7.721,7.721,0,0,0,0-7.032,5.98,5.98,0,0,0-2.308-2.361,6.563,6.563,0,0,0-3.3-.83,6.38,6.38,0,0,0-3.263.848,6.129,6.129,0,0,0-2.308,2.362,7.044,7.044,0,0,0-.848,3.5,7.253,7.253,0,0,0,.83,3.515,5.92,5.92,0,0,0,2.308,2.381,6.808,6.808,0,0,0,6.581,0Z" style="fill:#fff"/><path d="M228.522,309.841h3.462V336.6h-3.462Z" style="fill:#fff"/><path d="M255.786,328.2H240.279a6,6,0,0,0,2.218,4.057,7.237,7.237,0,0,0,4.706,1.533,7.091,7.091,0,0,0,5.518-2.309l1.911,2.237a8.367,8.367,0,0,1-3.228,2.307,12.167,12.167,0,0,1-9.683-.45,8.869,8.869,0,0,1-3.624-3.48,9.985,9.985,0,0,1-1.28-5.049,10.129,10.129,0,0,1,1.244-5.013,8.921,8.921,0,0,1,3.426-3.48,9.762,9.762,0,0,1,4.923-1.244,9.569,9.569,0,0,1,4.886,1.244,8.752,8.752,0,0,1,3.354,3.48,10.606,10.606,0,0,1,1.208,5.121A9.92,9.92,0,0,1,255.786,328.2Zm-13.542-6.455a6.1,6.1,0,0,0-1.965,3.967h12.262a6.153,6.153,0,0,0-1.966-3.949,6.455,6.455,0,0,0-8.331-.018Z" style="fill:#fff"/><path d="M283.392,319.253q2.109,1.949,2.109,5.806V336.6H282.22v-2.524a5.47,5.47,0,0,1-2.471,2.037,9.407,9.407,0,0,1-3.8.7,7.966,7.966,0,0,1-5.139-1.55,5.33,5.33,0,0,1-.09-8.133q1.839-1.533,5.842-1.533h5.482v-.685a4.417,4.417,0,0,0-1.3-3.426,5.48,5.48,0,0,0-3.823-1.19,10.107,10.107,0,0,0-3.317.559,8.551,8.551,0,0,0-2.741,1.5l-1.443-2.6a10.48,10.48,0,0,1,3.535-1.821,14.772,14.772,0,0,1,4.363-.631A8.649,8.649,0,0,1,283.392,319.253Zm-3.444,14.011a5.069,5.069,0,0,0,2.092-2.506v-2.669H276.7q-4.4,0-4.4,2.957a2.676,2.676,0,0,0,1.118,2.272,5.11,5.11,0,0,0,3.1.829A6.434,6.434,0,0,0,279.948,333.264Z" style="fill:#fff"/><path d="M307.914,319.416q2.145,2.109,2.146,6.184v11H306.6V326a5.874,5.874,0,0,0-1.334-4.184,5.022,5.022,0,0,0-3.823-1.406,5.957,5.957,0,0,0-4.436,1.641,6.412,6.412,0,0,0-1.623,4.707V336.6H291.92V317.486h3.318v2.885a6.742,6.742,0,0,1,2.831-2.272,9.9,9.9,0,0,1,4.057-.793A7.9,7.9,0,0,1,307.914,319.416Z" style="fill:#fff"/><path d="M334.618,309.841V336.6H331.3V333.57a7.494,7.494,0,0,1-2.922,2.416,9.034,9.034,0,0,1-3.894.83,10.049,10.049,0,0,1-4.977-1.226,8.79,8.79,0,0,1-3.444-3.445,11.05,11.05,0,0,1,0-10.187,8.821,8.821,0,0,1,3.444-3.426,10.049,10.049,0,0,1,4.977-1.226,9.153,9.153,0,0,1,3.786.775,7.356,7.356,0,0,1,2.885,2.29v-10.53Zm-6.563,23.1a5.932,5.932,0,0,0,2.308-2.381,7.871,7.871,0,0,0,0-7.032,5.826,5.826,0,0,0-2.308-2.361,6.937,6.937,0,0,0-6.581,0,5.967,5.967,0,0,0-2.308,2.361,7.713,7.713,0,0,0,0,7.032,6.079,6.079,0,0,0,2.308,2.381,6.808,6.808,0,0,0,6.581,0Z" style="fill:#fff"/><path d="M369.166,317.486V334q0,5.013-2.488,7.411t-7.429,2.4a17.8,17.8,0,0,1-5.157-.739,10.207,10.207,0,0,1-3.967-2.11l1.659-2.668a9.808,9.808,0,0,0,3.3,1.821,12.564,12.564,0,0,0,4.058.667A6.805,6.805,0,0,0,364.1,339.2a6.529,6.529,0,0,0,1.605-4.833v-1.514a7.657,7.657,0,0,1-3.011,2.218,10.051,10.051,0,0,1-3.877.74,10.443,10.443,0,0,1-4.959-1.173,8.72,8.72,0,0,1-3.48-3.282,9.813,9.813,0,0,1,0-9.628,8.6,8.6,0,0,1,3.48-3.264,10.575,10.575,0,0,1,4.959-1.154,10.141,10.141,0,0,1,4.021.793,7.477,7.477,0,0,1,3.047,2.344v-2.957Zm-6.582,14.5a5.859,5.859,0,0,0,2.345-2.217,6.2,6.2,0,0,0,.847-3.228,5.851,5.851,0,0,0-1.839-4.49,7.42,7.42,0,0,0-9.484,0,5.852,5.852,0,0,0-1.84,4.49,6.184,6.184,0,0,0,.848,3.228,5.85,5.85,0,0,0,2.344,2.217,7.148,7.148,0,0,0,3.408.794A7.072,7.072,0,0,0,362.584,331.983Z" style="fill:#fff"/><path d="M378.831,335.554a9.139,9.139,0,0,1-3.553-3.481,10.525,10.525,0,0,1,0-10.061,9.024,9.024,0,0,1,3.553-3.462,11.123,11.123,0,0,1,10.223,0,9.055,9.055,0,0,1,3.534,3.462,10.518,10.518,0,0,1,0,10.061,9.171,9.171,0,0,1-3.534,3.481,10.983,10.983,0,0,1-10.223,0Zm8.42-2.615a5.968,5.968,0,0,0,2.29-2.381,7.862,7.862,0,0,0,0-7.032,5.859,5.859,0,0,0-2.29-2.361,6.973,6.973,0,0,0-6.6,0,5.973,5.973,0,0,0-2.308,2.361,7.713,7.713,0,0,0,0,7.032,6.085,6.085,0,0,0,2.308,2.381,6.843,6.843,0,0,0,6.6,0Z" style="fill:#fff"/><path d="M401.73,335.554a9.143,9.143,0,0,1-3.552-3.481,10.525,10.525,0,0,1,0-10.061,9.028,9.028,0,0,1,3.552-3.462,11.125,11.125,0,0,1,10.224,0,9.055,9.055,0,0,1,3.534,3.462,10.518,10.518,0,0,1,0,10.061,9.171,9.171,0,0,1-3.534,3.481,10.985,10.985,0,0,1-10.224,0Zm8.421-2.615a5.975,5.975,0,0,0,2.29-2.381,7.871,7.871,0,0,0,0-7.032,5.866,5.866,0,0,0-2.29-2.361,6.973,6.973,0,0,0-6.6,0,5.973,5.973,0,0,0-2.308,2.361,7.713,7.713,0,0,0,0,7.032,6.085,6.085,0,0,0,2.308,2.381,6.843,6.843,0,0,0,6.6,0Z" style="fill:#fff"/><path d="M439.6,309.841V336.6h-3.317V333.57a7.494,7.494,0,0,1-2.922,2.416,9.034,9.034,0,0,1-3.894.83,10.049,10.049,0,0,1-4.977-1.226,8.79,8.79,0,0,1-3.444-3.445,11.05,11.05,0,0,1,0-10.187,8.821,8.821,0,0,1,3.444-3.426,10.049,10.049,0,0,1,4.977-1.226,9.153,9.153,0,0,1,3.786.775,7.356,7.356,0,0,1,2.885,2.29v-10.53Zm-6.563,23.1a5.932,5.932,0,0,0,2.308-2.381,7.871,7.871,0,0,0,0-7.032,5.826,5.826,0,0,0-2.308-2.361,6.937,6.937,0,0,0-6.581,0,5.973,5.973,0,0,0-2.308,2.361,7.713,7.713,0,0,0,0,7.032,6.085,6.085,0,0,0,2.308,2.381,6.808,6.808,0,0,0,6.581,0Z" style="fill:#fff"/><path d="M447.133,336.184a9.861,9.861,0,0,1-3.39-1.6l1.443-2.741a10.346,10.346,0,0,0,3.065,1.443,12.633,12.633,0,0,0,3.642.541q4.544,0,4.544-2.6a1.685,1.685,0,0,0-.613-1.371,3.9,3.9,0,0,0-1.533-.739q-.92-.232-2.614-.522a25.783,25.783,0,0,1-3.769-.829,5.817,5.817,0,0,1-2.506-1.587,4.413,4.413,0,0,1-1.046-3.138,4.9,4.9,0,0,1,2.164-4.165,9.687,9.687,0,0,1,5.806-1.569,16.067,16.067,0,0,1,3.822.468,10.352,10.352,0,0,1,3.138,1.263l-1.478,2.74a9.945,9.945,0,0,0-5.518-1.514,6.385,6.385,0,0,0-3.354.721,2.176,2.176,0,0,0-1.154,1.911,1.823,1.823,0,0,0,.649,1.479,4.093,4.093,0,0,0,1.605.794q.955.252,2.687.577a29.384,29.384,0,0,1,3.732.847,5.56,5.56,0,0,1,2.434,1.533,4.268,4.268,0,0,1,1.01,3.029,4.775,4.775,0,0,1-2.218,4.129,10.463,10.463,0,0,1-6.04,1.533A16.005,16.005,0,0,1,447.133,336.184Z" style="fill:#fff"/><path d="M489.038,318.532a8.818,8.818,0,0,1,3.443,3.426,11.042,11.042,0,0,1,0,10.187,8.787,8.787,0,0,1-3.443,3.445,10.054,10.054,0,0,1-4.977,1.226,9.036,9.036,0,0,1-3.895-.83,7.484,7.484,0,0,1-2.921-2.416V336.6h-3.318V309.841h3.462v10.53a7.356,7.356,0,0,1,2.885-2.29,9.155,9.155,0,0,1,3.787-.775A10.054,10.054,0,0,1,489.038,318.532Zm-1.966,14.407a6.092,6.092,0,0,0,2.308-2.381,7.713,7.713,0,0,0,0-7.032,5.98,5.98,0,0,0-2.308-2.361,6.937,6.937,0,0,0-6.581,0,5.813,5.813,0,0,0-2.308,2.361,7.862,7.862,0,0,0,0,7.032,5.92,5.92,0,0,0,2.308,2.381,6.808,6.808,0,0,0,6.581,0Z" style="fill:#fff"/><path d="M514.9,317.486l-9.269,21.025a9.476,9.476,0,0,1-2.867,4.111,6.545,6.545,0,0,1-3.948,1.19,8.341,8.341,0,0,1-2.724-.451,5.6,5.6,0,0,1-2.181-1.316l1.478-2.6a4.821,4.821,0,0,0,3.427,1.407,3.3,3.3,0,0,0,2.109-.668,5.686,5.686,0,0,0,1.533-2.29l.613-1.334-8.439-19.077h3.606l6.672,15.291,6.6-15.291Z" style="fill:#fff"/><path d="M545.655,317.486V336.6h-3.281v-2.884a6.977,6.977,0,0,1-2.759,2.29,8.609,8.609,0,0,1-3.733.811,8.339,8.339,0,0,1-6.022-2.11q-2.2-2.109-2.2-6.221v-11h3.462v10.6a5.927,5.927,0,0,0,1.335,4.2,4.98,4.98,0,0,0,3.822,1.425,5.7,5.7,0,0,0,4.327-1.659,6.513,6.513,0,0,0,1.587-4.689v-9.881Z" style="fill:#fff"/><path d="M568.248,319.416q2.145,2.109,2.146,6.184v11h-3.462V326a5.874,5.874,0,0,0-1.334-4.184,5.022,5.022,0,0,0-3.823-1.406,5.957,5.957,0,0,0-4.436,1.641,6.412,6.412,0,0,0-1.623,4.707V336.6h-3.462V317.486h3.318v2.885A6.742,6.742,0,0,1,558.4,318.1a9.9,9.9,0,0,1,4.057-.793A7.9,7.9,0,0,1,568.248,319.416Z" style="fill:#fff"/><path d="M576.813,309.841h3.462V336.6h-3.462Z" style="fill:#fff"/><path d="M589.94,335.554a9.137,9.137,0,0,1-3.552-3.481,10.518,10.518,0,0,1,0-10.061,9.022,9.022,0,0,1,3.552-3.462,11.125,11.125,0,0,1,10.224,0,9.068,9.068,0,0,1,3.534,3.462,10.525,10.525,0,0,1,0,10.061,9.184,9.184,0,0,1-3.534,3.481,10.985,10.985,0,0,1-10.224,0Zm8.42-2.615a5.968,5.968,0,0,0,2.29-2.381,7.862,7.862,0,0,0,0-7.032,5.859,5.859,0,0,0-2.29-2.361,6.973,6.973,0,0,0-6.6,0,5.98,5.98,0,0,0-2.308,2.361,7.713,7.713,0,0,0,0,7.032,6.092,6.092,0,0,0,2.308,2.381,6.843,6.843,0,0,0,6.6,0Z" style="fill:#fff"/><path d="M612.894,335.554a9.231,9.231,0,0,1-3.588-3.481,10.39,10.39,0,0,1,0-10.061,9.115,9.115,0,0,1,3.588-3.462,10.742,10.742,0,0,1,5.211-1.244,10.007,10.007,0,0,1,4.634,1.045,7.47,7.47,0,0,1,3.156,3.03l-2.633,1.7a5.893,5.893,0,0,0-2.236-2.056,6.387,6.387,0,0,0-2.957-.685,6.834,6.834,0,0,0-3.372.83,5.9,5.9,0,0,0-2.344,2.361,7.79,7.79,0,0,0,0,7.069,5.9,5.9,0,0,0,2.344,2.362,6.823,6.823,0,0,0,3.372.83,6.376,6.376,0,0,0,2.957-.686,5.874,5.874,0,0,0,2.236-2.055l2.633,1.659a7.569,7.569,0,0,1-3.156,3.047,9.856,9.856,0,0,1-4.634,1.064A10.619,10.619,0,0,1,612.894,335.554Z" style="fill:#fff"/><path d="M637.543,327.692l-3.967,3.678V336.6h-3.462V309.841h3.462v17.166L644,317.486h4.183l-8.042,7.9,8.835,11.215H644.72Z" style="fill:#fff"/><path d="M652.131,313.159a2.132,2.132,0,0,1-.668-1.587,2.189,2.189,0,0,1,.668-1.605,2.271,2.271,0,0,1,1.677-.667,2.345,2.345,0,0,1,1.676.631,2.071,2.071,0,0,1,.668,1.569,2.231,2.231,0,0,1-.668,1.641,2.272,2.272,0,0,1-1.676.667A2.3,2.3,0,0,1,652.131,313.159Zm-.054,4.327h3.462V336.6h-3.462Z" style="fill:#fff"/><path d="M678.132,319.416q2.145,2.109,2.146,6.184v11h-3.462V326a5.87,5.87,0,0,0-1.335-4.184,5.018,5.018,0,0,0-3.822-1.406,5.957,5.957,0,0,0-4.436,1.641,6.412,6.412,0,0,0-1.623,4.707V336.6h-3.462V317.486h3.318v2.885a6.742,6.742,0,0,1,2.831-2.272,9.9,9.9,0,0,1,4.057-.793A7.9,7.9,0,0,1,678.132,319.416Z" style="fill:#fff"/><path d="M705.088,317.486V334q0,5.013-2.488,7.411t-7.429,2.4a17.8,17.8,0,0,1-5.157-.739,10.207,10.207,0,0,1-3.967-2.11l1.659-2.668a9.8,9.8,0,0,0,3.3,1.821,12.553,12.553,0,0,0,4.057.667,6.8,6.8,0,0,0,4.958-1.587,6.529,6.529,0,0,0,1.605-4.833v-1.514a7.657,7.657,0,0,1-3.011,2.218,10.051,10.051,0,0,1-3.877.74,10.436,10.436,0,0,1-4.958-1.173,8.707,8.707,0,0,1-3.48-3.282,9.813,9.813,0,0,1,0-9.628,8.583,8.583,0,0,1,3.48-3.264,10.568,10.568,0,0,1,4.958-1.154,10.141,10.141,0,0,1,4.021.793,7.474,7.474,0,0,1,3.048,2.344v-2.957Zm-6.581,14.5a5.863,5.863,0,0,0,2.344-2.217,6.194,6.194,0,0,0,.848-3.228,5.852,5.852,0,0,0-1.84-4.49,7.42,7.42,0,0,0-9.484,0,5.851,5.851,0,0,0-1.839,4.49,6.193,6.193,0,0,0,.847,3.228,5.857,5.857,0,0,0,2.344,2.217,7.151,7.151,0,0,0,3.408.794A7.076,7.076,0,0,0,698.507,331.983Z" style="fill:#fff"/><path d="M732.135,335.481a5.183,5.183,0,0,1-1.875.993,7.884,7.884,0,0,1-2.308.342,6.132,6.132,0,0,1-4.472-1.55,5.921,5.921,0,0,1-1.587-4.437V320.335h-3.246v-2.849h3.246V313.3h3.462v4.183h5.481v2.849h-5.481v10.35a3.353,3.353,0,0,0,.775,2.38,2.884,2.884,0,0,0,2.218.829,4.166,4.166,0,0,0,2.705-.9Z" style="fill:#fff"/><path d="M752.312,319.416q2.145,2.109,2.145,6.184v11H751V326a5.875,5.875,0,0,0-1.335-4.184,5.02,5.02,0,0,0-3.823-1.406,5.953,5.953,0,0,0-4.435,1.641,6.412,6.412,0,0,0-1.623,4.707V336.6h-3.462V309.841h3.462v10.35a7.136,7.136,0,0,1,2.831-2.128,9.746,9.746,0,0,1,3.912-.757A7.9,7.9,0,0,1,752.312,319.416Z" style="fill:#fff"/><path d="M778.187,328.2H762.679a6,6,0,0,0,2.218,4.057,7.237,7.237,0,0,0,4.706,1.533,7.09,7.09,0,0,0,5.518-2.309l1.911,2.237a8.371,8.371,0,0,1-3.227,2.307,12.168,12.168,0,0,1-9.683-.45,8.869,8.869,0,0,1-3.624-3.48,9.975,9.975,0,0,1-1.281-5.049,10.14,10.14,0,0,1,1.244-5.013,8.928,8.928,0,0,1,3.426-3.48,9.764,9.764,0,0,1,4.923-1.244,9.564,9.564,0,0,1,4.886,1.244,8.745,8.745,0,0,1,3.354,3.48,10.606,10.606,0,0,1,1.208,5.121A10.152,10.152,0,0,1,778.187,328.2Zm-13.542-6.455a6.11,6.11,0,0,0-1.966,3.967h12.262a6.153,6.153,0,0,0-1.966-3.949,6.453,6.453,0,0,0-8.33-.018Z" style="fill:#fff"/><path d="M807.866,318.532a8.821,8.821,0,0,1,3.444,3.426,11.05,11.05,0,0,1,0,10.187,8.79,8.79,0,0,1-3.444,3.445,10.05,10.05,0,0,1-4.976,1.226,8.842,8.842,0,0,1-3.769-.794,7.823,7.823,0,0,1-2.9-2.307V343.6h-3.462v-26.11h3.318v3.03a7.342,7.342,0,0,1,2.921-2.4,9.217,9.217,0,0,1,3.895-.811A10.05,10.05,0,0,1,807.866,318.532ZM805.9,332.939a6.1,6.1,0,0,0,2.308-2.381,7.721,7.721,0,0,0,0-7.032,5.987,5.987,0,0,0-2.308-2.361,6.565,6.565,0,0,0-3.3-.83,6.383,6.383,0,0,0-3.264.848,6.143,6.143,0,0,0-2.308,2.362,7.044,7.044,0,0,0-.847,3.5,7.264,7.264,0,0,0,.829,3.515,5.932,5.932,0,0,0,2.308,2.381,6.81,6.81,0,0,0,6.582,0Z" style="fill:#fff"/><path d="M820.416,335.554a9.139,9.139,0,0,1-3.553-3.481,10.525,10.525,0,0,1,0-10.061,9.024,9.024,0,0,1,3.553-3.462,11.123,11.123,0,0,1,10.223,0,9.055,9.055,0,0,1,3.534,3.462,10.518,10.518,0,0,1,0,10.061,9.171,9.171,0,0,1-3.534,3.481,10.983,10.983,0,0,1-10.223,0Zm8.42-2.615a5.968,5.968,0,0,0,2.29-2.381,7.862,7.862,0,0,0,0-7.032,5.859,5.859,0,0,0-2.29-2.361,6.973,6.973,0,0,0-6.6,0,5.973,5.973,0,0,0-2.308,2.361,7.713,7.713,0,0,0,0,7.032,6.085,6.085,0,0,0,2.308,2.381,6.843,6.843,0,0,0,6.6,0Z" style="fill:#fff"/><path d="M851,335.481a5.183,5.183,0,0,1-1.875.993,7.886,7.886,0,0,1-2.309.342,6.13,6.13,0,0,1-4.471-1.55,5.921,5.921,0,0,1-1.587-4.437V320.335h-3.246v-2.849h3.246V313.3h3.462v4.183H849.7v2.849h-5.481v10.35a3.353,3.353,0,0,0,.775,2.38,2.884,2.884,0,0,0,2.218.829,4.168,4.168,0,0,0,2.7-.9Z" style="fill:#fff"/><path d="M871.732,328.2H856.226a6,6,0,0,0,2.217,4.057,7.237,7.237,0,0,0,4.706,1.533,7.09,7.09,0,0,0,5.518-2.309l1.911,2.237a8.364,8.364,0,0,1-3.227,2.307,12.168,12.168,0,0,1-9.683-.45,8.857,8.857,0,0,1-3.624-3.48,9.975,9.975,0,0,1-1.28-5.049,10.129,10.129,0,0,1,1.244-5.013,8.907,8.907,0,0,1,3.426-3.48,9.758,9.758,0,0,1,4.922-1.244,9.564,9.564,0,0,1,4.886,1.244,8.748,8.748,0,0,1,3.355,3.48,10.617,10.617,0,0,1,1.208,5.121A9.966,9.966,0,0,1,871.732,328.2Zm-13.542-6.455a6.108,6.108,0,0,0-1.964,3.967h12.261a6.148,6.148,0,0,0-1.966-3.949,6.455,6.455,0,0,0-8.331-.018Z" style="fill:#fff"/><path d="M892.6,319.416q2.143,2.109,2.145,6.184v11h-3.462V326a5.874,5.874,0,0,0-1.334-4.184,5.02,5.02,0,0,0-3.823-1.406,5.955,5.955,0,0,0-4.435,1.641,6.409,6.409,0,0,0-1.624,4.707V336.6H876.6V317.486h3.318v2.885a6.736,6.736,0,0,1,2.831-2.272,9.9,9.9,0,0,1,4.057-.793A7.9,7.9,0,0,1,892.6,319.416Z" style="fill:#fff"/><path d="M911.906,335.481a5.183,5.183,0,0,1-1.875.993,7.879,7.879,0,0,1-2.308.342,6.132,6.132,0,0,1-4.472-1.55,5.921,5.921,0,0,1-1.587-4.437V320.335h-3.245v-2.849h3.245V313.3h3.462v4.183h5.481v2.849h-5.481v10.35a3.358,3.358,0,0,0,.775,2.38,2.884,2.884,0,0,0,2.218.829,4.166,4.166,0,0,0,2.7-.9Z" style="fill:#fff"/><path d="M916.144,313.159a2.128,2.128,0,0,1-.668-1.587,2.185,2.185,0,0,1,.668-1.605,2.268,2.268,0,0,1,1.676-.667,2.348,2.348,0,0,1,1.677.631,2.074,2.074,0,0,1,.667,1.569,2.234,2.234,0,0,1-.667,1.641,2.274,2.274,0,0,1-1.677.667A2.3,2.3,0,0,1,916.144,313.159Zm-.055,4.327h3.462V336.6h-3.462Z" style="fill:#fff"/><path d="M939.187,319.253q2.111,1.949,2.11,5.806V336.6h-3.282v-2.524a5.478,5.478,0,0,1-2.47,2.037,9.412,9.412,0,0,1-3.8.7,7.966,7.966,0,0,1-5.139-1.55,5.331,5.331,0,0,1-.09-8.133q1.839-1.533,5.842-1.533h5.482v-.685a4.417,4.417,0,0,0-1.3-3.426,5.477,5.477,0,0,0-3.822-1.19,10.119,10.119,0,0,0-3.319.559,8.546,8.546,0,0,0-2.74,1.5l-1.442-2.6a10.466,10.466,0,0,1,3.534-1.821,14.772,14.772,0,0,1,4.363-.631A8.647,8.647,0,0,1,939.187,319.253Zm-3.444,14.011a5.069,5.069,0,0,0,2.092-2.506v-2.669H932.5q-4.4,0-4.4,2.957a2.674,2.674,0,0,0,1.118,2.272,5.1,5.1,0,0,0,3.1.829A6.434,6.434,0,0,0,935.743,333.264Z" style="fill:#fff"/><path d="M947.716,309.841h3.462V336.6h-3.462Z" style="fill:#fff"/><path d="M970.543,335.554a9.137,9.137,0,0,1-3.552-3.481,10.525,10.525,0,0,1,0-10.061,9.022,9.022,0,0,1,3.552-3.462,11.125,11.125,0,0,1,10.224,0,9.061,9.061,0,0,1,3.534,3.462,10.525,10.525,0,0,1,0,10.061,9.177,9.177,0,0,1-3.534,3.481,10.985,10.985,0,0,1-10.224,0Zm8.421-2.615a5.982,5.982,0,0,0,2.29-2.381,7.871,7.871,0,0,0,0-7.032,5.872,5.872,0,0,0-2.29-2.361,6.975,6.975,0,0,0-6.6,0,5.978,5.978,0,0,0-2.307,2.361,7.713,7.713,0,0,0,0,7.032,6.09,6.09,0,0,0,2.307,2.381,6.845,6.845,0,0,0,6.6,0Z" style="fill:#fff"/><path d="M994.271,315.827v1.659h5.554v2.849h-5.481V336.6h-3.462V320.335h-3.245v-2.849h3.245v-1.695a6.093,6.093,0,0,1,1.659-4.508,6.29,6.29,0,0,1,4.652-1.658,7.847,7.847,0,0,1,2.163.288,5.288,5.288,0,0,1,1.732.829l-1.046,2.633a4.309,4.309,0,0,0-2.669-.9Q994.273,312.474,994.271,315.827Z" style="fill:#fff"/><path d="M1030.623,317.486V336.6h-3.281v-2.884a6.964,6.964,0,0,1-2.759,2.29,8.611,8.611,0,0,1-3.732.811,8.341,8.341,0,0,1-6.023-2.11q-2.2-2.109-2.2-6.221v-11h3.462v10.6a5.927,5.927,0,0,0,1.335,4.2,4.978,4.978,0,0,0,3.822,1.425,5.7,5.7,0,0,0,4.327-1.659,6.513,6.513,0,0,0,1.587-4.689v-9.881Z" style="fill:#fff"/><path d="M1043.209,318.172a9.683,9.683,0,0,1,4.291-.866v3.354a6.766,6.766,0,0,0-.793-.036,5.825,5.825,0,0,0-4.418,1.677,6.638,6.638,0,0,0-1.6,4.778v9.52h-3.462V317.486h3.317v3.21A5.9,5.9,0,0,1,1043.209,318.172Z" style="fill:#fff"/><path d="M1066.866,318.532a8.827,8.827,0,0,1,3.444,3.426,11.05,11.05,0,0,1,0,10.187,8.8,8.8,0,0,1-3.444,3.445,10.053,10.053,0,0,1-4.976,1.226,9.04,9.04,0,0,1-3.9-.83,7.491,7.491,0,0,1-2.921-2.416V336.6h-3.317V309.841h3.462v10.53a7.342,7.342,0,0,1,2.885-2.29,9.155,9.155,0,0,1,3.787-.775A10.053,10.053,0,0,1,1066.866,318.532Zm-1.966,14.407a6.1,6.1,0,0,0,2.309-2.381,7.721,7.721,0,0,0,0-7.032,5.982,5.982,0,0,0-2.309-2.361,6.937,6.937,0,0,0-6.581,0,5.819,5.819,0,0,0-2.308,2.361,7.871,7.871,0,0,0,0,7.032,5.926,5.926,0,0,0,2.308,2.381,6.808,6.808,0,0,0,6.581,0Z" style="fill:#fff"/><path d="M1089.207,319.253q2.109,1.949,2.109,5.806V336.6h-3.281v-2.524a5.47,5.47,0,0,1-2.471,2.037,9.407,9.407,0,0,1-3.8.7,7.966,7.966,0,0,1-5.139-1.55,5.33,5.33,0,0,1-.09-8.133q1.839-1.533,5.842-1.533h5.481v-.685a4.416,4.416,0,0,0-1.3-3.426,5.484,5.484,0,0,0-3.824-1.19,10.107,10.107,0,0,0-3.317.559,8.551,8.551,0,0,0-2.741,1.5l-1.443-2.6a10.48,10.48,0,0,1,3.535-1.821,14.777,14.777,0,0,1,4.363-.631A8.647,8.647,0,0,1,1089.207,319.253Zm-3.444,14.011a5.052,5.052,0,0,0,2.091-2.506v-2.669h-5.336q-4.4,0-4.4,2.957a2.676,2.676,0,0,0,1.118,2.272,5.113,5.113,0,0,0,3.1.829A6.432,6.432,0,0,0,1085.763,333.264Z" style="fill:#fff"/><path d="M1113.729,319.416q2.145,2.109,2.146,6.184v11h-3.462V326a5.874,5.874,0,0,0-1.334-4.184,5.022,5.022,0,0,0-3.823-1.406,5.957,5.957,0,0,0-4.436,1.641,6.412,6.412,0,0,0-1.623,4.707V336.6h-3.462V317.486h3.319v2.885a6.73,6.73,0,0,1,2.831-2.272,9.9,9.9,0,0,1,4.056-.793A7.894,7.894,0,0,1,1113.729,319.416Z" style="fill:#fff"/></g><g style="isolation:isolate"><path d="M118.658,366.378q2.11,2.091,2.11,6.2v11h-3.462v-10.6a6.033,6.033,0,0,0-1.28-4.183,4.7,4.7,0,0,0-3.661-1.406,5.479,5.479,0,0,0-4.183,1.64,6.6,6.6,0,0,0-1.551,4.707v9.845h-3.462v-10.6a6.033,6.033,0,0,0-1.28-4.183,4.7,4.7,0,0,0-3.661-1.406,5.482,5.482,0,0,0-4.183,1.64,6.6,6.6,0,0,0-1.55,4.707v9.845H89.033V364.467h3.318v2.848a6.713,6.713,0,0,1,2.74-2.254,9.192,9.192,0,0,1,3.859-.775,8.466,8.466,0,0,1,3.967.9,6.268,6.268,0,0,1,2.668,2.632,7.336,7.336,0,0,1,3.012-2.6,9.814,9.814,0,0,1,4.345-.938A7.763,7.763,0,0,1,118.658,366.378Z" style="fill:#fff"/><path d="M130.324,382.534a9.148,9.148,0,0,1-3.552-3.48,10.527,10.527,0,0,1,0-10.062,9.035,9.035,0,0,1,3.552-3.462,11.125,11.125,0,0,1,10.224,0,9.075,9.075,0,0,1,3.534,3.462,10.527,10.527,0,0,1,0,10.062,9.189,9.189,0,0,1-3.534,3.48,10.977,10.977,0,0,1-10.224,0Zm8.421-2.614a5.994,5.994,0,0,0,2.29-2.381,7.871,7.871,0,0,0,0-7.032,5.868,5.868,0,0,0-2.29-2.362,6.975,6.975,0,0,0-6.6,0,5.976,5.976,0,0,0-2.308,2.362,7.721,7.721,0,0,0,0,7.032,6.106,6.106,0,0,0,2.308,2.381,6.852,6.852,0,0,0,6.6,0Z" style="fill:#fff"/><path d="M165.269,365.513a8.822,8.822,0,0,1,3.443,3.425,11.044,11.044,0,0,1,0,10.188,8.785,8.785,0,0,1-3.443,3.444,10.044,10.044,0,0,1-4.977,1.227,9.05,9.05,0,0,1-3.9-.83,7.493,7.493,0,0,1-2.921-2.416v3.029h-3.318V356.821h3.462v10.53a7.365,7.365,0,0,1,2.885-2.29,9.171,9.171,0,0,1,3.787-.775A10.044,10.044,0,0,1,165.269,365.513ZM163.3,379.92a6.106,6.106,0,0,0,2.308-2.381,7.721,7.721,0,0,0,0-7.032,5.976,5.976,0,0,0-2.308-2.362,6.937,6.937,0,0,0-6.581,0,5.809,5.809,0,0,0-2.308,2.362,7.862,7.862,0,0,0,0,7.032,5.932,5.932,0,0,0,2.308,2.381,6.815,6.815,0,0,0,6.581,0Z" style="fill:#fff"/><path d="M174.807,360.14a2.131,2.131,0,0,1-.667-1.587,2.19,2.19,0,0,1,.667-1.606,2.276,2.276,0,0,1,1.677-.667,2.348,2.348,0,0,1,1.677.631,2.075,2.075,0,0,1,.667,1.569,2.231,2.231,0,0,1-.667,1.641,2.274,2.274,0,0,1-1.677.667A2.309,2.309,0,0,1,174.807,360.14Zm-.054,4.327h3.462V383.58h-3.462Z" style="fill:#fff"/><path d="M184.814,356.821h3.462V383.58h-3.462Z" style="fill:#fff"/><path d="M194.93,360.14a2.128,2.128,0,0,1-.668-1.587,2.187,2.187,0,0,1,.668-1.606,2.274,2.274,0,0,1,1.676-.667,2.348,2.348,0,0,1,1.677.631,2.073,2.073,0,0,1,.668,1.569,2.228,2.228,0,0,1-.668,1.641,2.274,2.274,0,0,1-1.677.667A2.307,2.307,0,0,1,194.93,360.14Zm-.055,4.327h3.462V383.58h-3.462Z" style="fill:#fff"/><path d="M215.683,382.462a5.188,5.188,0,0,1-1.875.992,7.851,7.851,0,0,1-2.308.343,6.133,6.133,0,0,1-4.472-1.551,5.924,5.924,0,0,1-1.587-4.437V367.315H202.2v-2.848h3.245v-4.184H208.9v4.184h5.482v2.848H208.9v10.351a3.357,3.357,0,0,0,.776,2.38,2.885,2.885,0,0,0,2.217.829,4.177,4.177,0,0,0,2.706-.9Z" style="fill:#fff"/><path d="M236.419,364.467l-9.268,21.024a9.485,9.485,0,0,1-2.867,4.111,6.547,6.547,0,0,1-3.949,1.191,8.362,8.362,0,0,1-2.723-.451,5.6,5.6,0,0,1-2.181-1.317l1.478-2.6a4.825,4.825,0,0,0,3.426,1.407,3.3,3.3,0,0,0,2.11-.668,5.7,5.7,0,0,0,1.533-2.29l.613-1.334-8.439-19.077h3.606l6.672,15.291,6.6-15.291Z" style="fill:#fff"/><path d="M267.4,356.821V383.58h-3.317v-3.029a7.507,7.507,0,0,1-2.921,2.416,9.057,9.057,0,0,1-3.9.83,10.041,10.041,0,0,1-4.977-1.227,8.787,8.787,0,0,1-3.444-3.444,11.052,11.052,0,0,1,0-10.188,8.825,8.825,0,0,1,3.444-3.425,10.041,10.041,0,0,1,4.977-1.227,9.177,9.177,0,0,1,3.787.775,7.372,7.372,0,0,1,2.885,2.29v-10.53Zm-6.563,23.1a5.945,5.945,0,0,0,2.308-2.381,7.862,7.862,0,0,0,0-7.032,5.822,5.822,0,0,0-2.308-2.362,6.937,6.937,0,0,0-6.581,0,5.969,5.969,0,0,0-2.308,2.362,7.713,7.713,0,0,0,0,7.032,6.1,6.1,0,0,0,2.308,2.381,6.815,6.815,0,0,0,6.581,0Z" style="fill:#fff"/><path d="M287,366.233q2.109,1.948,2.109,5.807v11.54h-3.281v-2.524a5.477,5.477,0,0,1-2.471,2.037,9.424,9.424,0,0,1-3.8.7,7.966,7.966,0,0,1-5.139-1.551,5.33,5.33,0,0,1-.09-8.133q1.839-1.531,5.842-1.532h5.482V371.9a4.414,4.414,0,0,0-1.3-3.425,5.48,5.48,0,0,0-3.823-1.191,10.108,10.108,0,0,0-3.317.56,8.551,8.551,0,0,0-2.741,1.5l-1.443-2.6a10.478,10.478,0,0,1,3.535-1.82,14.772,14.772,0,0,1,4.363-.632A8.649,8.649,0,0,1,287,366.233Zm-3.444,14.011a5.069,5.069,0,0,0,2.092-2.506v-2.669h-5.338q-4.4,0-4.4,2.957a2.679,2.679,0,0,0,1.118,2.273,5.117,5.117,0,0,0,3.1.829A6.425,6.425,0,0,0,283.553,380.244Z" style="fill:#fff"/><path d="M306.272,382.462a5.188,5.188,0,0,1-1.875.992,7.851,7.851,0,0,1-2.308.343,6.133,6.133,0,0,1-4.472-1.551,5.924,5.924,0,0,1-1.587-4.437V367.315h-3.245v-2.848h3.245v-4.184h3.462v4.184h5.482v2.848h-5.482v10.351a3.352,3.352,0,0,0,.776,2.38,2.884,2.884,0,0,0,2.217.829,4.172,4.172,0,0,0,2.7-.9Z" style="fill:#fff"/><path d="M323.491,366.233q2.111,1.948,2.11,5.807v11.54h-3.282v-2.524a5.479,5.479,0,0,1-2.47,2.037,9.429,9.429,0,0,1-3.805.7,7.966,7.966,0,0,1-5.139-1.551,5.331,5.331,0,0,1-.09-8.133q1.839-1.531,5.842-1.532h5.482V371.9a4.414,4.414,0,0,0-1.3-3.425,5.48,5.48,0,0,0-3.823-1.191,10.114,10.114,0,0,0-3.318.56,8.562,8.562,0,0,0-2.741,1.5l-1.442-2.6a10.473,10.473,0,0,1,3.534-1.82,14.779,14.779,0,0,1,4.364-.632A8.644,8.644,0,0,1,323.491,366.233Zm-3.444,14.011a5.059,5.059,0,0,0,2.092-2.506v-2.669H316.8q-4.4,0-4.4,2.957a2.677,2.677,0,0,0,1.118,2.273,5.117,5.117,0,0,0,3.1.829A6.424,6.424,0,0,0,320.047,380.244Z" style="fill:#fff"/><path d="M342.694,383.165a9.865,9.865,0,0,1-3.389-1.605l1.442-2.741a10.359,10.359,0,0,0,3.065,1.444,12.635,12.635,0,0,0,3.643.541q4.543,0,4.544-2.6a1.685,1.685,0,0,0-.613-1.371,3.9,3.9,0,0,0-1.533-.739q-.92-.234-2.615-.523a25.477,25.477,0,0,1-3.768-.829,5.805,5.805,0,0,1-2.507-1.587,4.417,4.417,0,0,1-1.046-3.138,4.9,4.9,0,0,1,2.165-4.165,9.686,9.686,0,0,1,5.805-1.569,16.019,16.019,0,0,1,3.823.469,10.327,10.327,0,0,1,3.138,1.262l-1.479,2.741a9.94,9.94,0,0,0-5.517-1.515,6.375,6.375,0,0,0-3.354.722,2.175,2.175,0,0,0-1.154,1.911,1.818,1.818,0,0,0,.649,1.478,4.073,4.073,0,0,0,1.605.794q.954.252,2.686.577a29.446,29.446,0,0,1,3.733.847,5.589,5.589,0,0,1,2.434,1.533,4.27,4.27,0,0,1,1.009,3.03,4.778,4.778,0,0,1-2.217,4.129A10.476,10.476,0,0,1,347.2,383.8,16.01,16.01,0,0,1,342.694,383.165Z" style="fill:#fff"/><path d="M376.99,375.178H361.483a6,6,0,0,0,2.218,4.056,7.231,7.231,0,0,0,4.706,1.533,7.09,7.09,0,0,0,5.518-2.308l1.911,2.236A8.369,8.369,0,0,1,372.608,383a12.167,12.167,0,0,1-9.683-.45,8.871,8.871,0,0,1-3.624-3.481,9.982,9.982,0,0,1-1.28-5.049,10.138,10.138,0,0,1,1.244-5.012,8.917,8.917,0,0,1,3.426-3.481,9.762,9.762,0,0,1,4.923-1.244,9.569,9.569,0,0,1,4.886,1.244,8.748,8.748,0,0,1,3.354,3.481,10.606,10.606,0,0,1,1.208,5.121A9.954,9.954,0,0,1,376.99,375.178Zm-13.542-6.455a6.106,6.106,0,0,0-1.965,3.966h12.262a6.155,6.155,0,0,0-1.966-3.949,6.456,6.456,0,0,0-8.331-.017Z" style="fill:#fff"/><path d="M392.605,382.462a5.188,5.188,0,0,1-1.875.992,7.851,7.851,0,0,1-2.308.343,6.133,6.133,0,0,1-4.472-1.551,5.924,5.924,0,0,1-1.587-4.437V367.315h-3.245v-2.848h3.245v-4.184h3.462v4.184h5.482v2.848h-5.482v10.351a3.352,3.352,0,0,0,.776,2.38,2.884,2.884,0,0,0,2.217.829,4.172,4.172,0,0,0,2.705-.9Z" style="fill:#fff"/><path d="M397.762,383.165a9.861,9.861,0,0,1-3.39-1.605l1.442-2.741a10.366,10.366,0,0,0,3.066,1.444,12.633,12.633,0,0,0,3.642.541q4.543,0,4.544-2.6a1.685,1.685,0,0,0-.613-1.371,3.9,3.9,0,0,0-1.533-.739q-.92-.234-2.614-.523a25.523,25.523,0,0,1-3.769-.829,5.8,5.8,0,0,1-2.506-1.587,4.413,4.413,0,0,1-1.046-3.138,4.9,4.9,0,0,1,2.164-4.165,9.687,9.687,0,0,1,5.806-1.569,16.018,16.018,0,0,1,3.822.469,10.327,10.327,0,0,1,3.138,1.262l-1.478,2.741a9.945,9.945,0,0,0-5.518-1.515,6.375,6.375,0,0,0-3.354.722,2.175,2.175,0,0,0-1.154,1.911,1.818,1.818,0,0,0,.649,1.478,4.08,4.08,0,0,0,1.605.794q.955.252,2.687.577a29.384,29.384,0,0,1,3.732.847,5.578,5.578,0,0,1,2.434,1.533,4.271,4.271,0,0,1,1.01,3.03,4.777,4.777,0,0,1-2.218,4.129,10.47,10.47,0,0,1-6.04,1.533A16.005,16.005,0,0,1,397.762,383.165Z" style="fill:#fff"/><path d="M413.954,383.093a2.384,2.384,0,0,1-.722-1.785,2.344,2.344,0,0,1,.722-1.75,2.392,2.392,0,0,1,1.731-.7,2.306,2.306,0,0,1,1.694.686,2.391,2.391,0,0,1,.685,1.767,2.418,2.418,0,0,1-.7,1.785,2.288,2.288,0,0,1-1.676.7A2.389,2.389,0,0,1,413.954,383.093Z" style="fill:#fff"/></g></g></g></g></g></svg>