<svg xmlns="http://www.w3.org/2000/svg" xmlns:xlink="http://www.w3.org/1999/xlink" viewBox="0 0 1070.77778 1070.77778"><defs><style>.cls-1{isolation:isolate;}.cls-2{fill:#d2d3d4;}.cls-15,.cls-19,.cls-2{mix-blend-mode:multiply;}.cls-3{fill:url(#linear-gradient);}.cls-4{fill:#dc4552;}.cls-5,.cls-7{fill:#fff;}.cls-6{fill:#ce3527;}.cls-7{stroke:#c4bdbb;stroke-miterlimit:10;}.cls-8{fill:#4ec4d5;}.cls-9{fill:#6e6f72;}.cls-10{fill:#ba8f65;}.cls-11{fill:#939598;}.cls-12,.cls-16{fill:none;}.cls-13{fill:#3f3f40;}.cls-14{fill:#eaeae8;}.cls-15{fill:#f3f1f1;}.cls-16{stroke:#dbdada;stroke-linecap:round;stroke-linejoin:round;stroke-width:4.57895px;}.cls-17{fill:#e6e5e4;}.cls-18,.cls-19{fill:#f4f4f4;}</style><linearGradient id="linear-gradient" x1="288.5504" y1="610.35083" x2="784.2804" y2="610.35083" gradientUnits="userSpaceOnUse"><stop offset="0" stop-color="#f7f7f7"/><stop offset="1" stop-color="#9e9e9e"/></linearGradient></defs><title>mission</title><g class="cls-1"><g id="Layer_1" data-name="Layer 1"><circle class="cls-2" cx="545.3869" cy="619.32234" r="247.865"/><circle class="cls-3" cx="536.4154" cy="610.35083" r="247.865"/><circle class="cls-2" cx="545.42766" cy="617.73851" r="214.21292"/><circle class="cls-4" cx="536.4154" cy="608.72625" r="214.21292"/><circle class="cls-2" cx="543.76409" cy="616.07493" r="166.40375"/><circle class="cls-5" cx="536.4154" cy="608.72625" r="166.40375"/><circle class="cls-2" cx="542.29454" cy="614.60538" r="116.27375"/><circle class="cls-4" cx="536.4154" cy="608.72625" r="116.27375"/><circle class="cls-2" cx="542.29454" cy="614.60538" r="60.57375"/><circle class="cls-5" cx="536.4154" cy="608.72625" r="60.57375"/><circle class="cls-2" cx="542.29454" cy="614.60538" r="25.29708"/><circle class="cls-6" cx="536.4154" cy="608.72625" r="25.29708"/><rect class="cls-2" x="169.49684" y="528.52261" width="70.54476" height="95.79248" transform="matrix(0.57132, -0.82073, 0.82073, 0.57132, -385.30244, 415.15955)"/><rect class="cls-7" x="164.85518" y="522.02428" width="70.54476" height="95.79248" transform="translate(-381.95852 408.56302) rotate(-55.15761)"/><polygon class="cls-5" points="161.561 567.76 152.985 580.079 149.242 559.186 161.561 567.76"/><polygon class="cls-2" points="140.666 571.506 149.242 559.186 152.985 580.079 140.666 571.506"/><polygon class="cls-2" points="153.786 578.926 164.789 567.39 150.117 559.794 161.561 567.76 153.786 578.926"/><rect class="cls-7" x="334.238" y="322.19541" width="58.83115" height="79.8866" transform="matrix(0.99188, -0.12718, 0.12718, 0.99188, -43.10301, 49.18912)"/><polygon class="cls-5" points="343.406 337.084 330.99 338.676 341.814 324.669 343.406 337.084"/><polygon class="cls-2" points="329.396 326.261 341.814 324.669 330.99 338.676 329.396 326.261"/><polygon class="cls-2" points="332.151 338.526 345.442 338.873 341.927 325.55 343.406 337.084 332.151 338.526"/><rect class="cls-7" x="566.8217" y="301.70809" width="67.16191" height="49.46026" transform="translate(-35.40575 577.02341) rotate(-50.04329)"/><polygon class="cls-5" points="604.322 299.641 596.255 292.882 611.08 291.575 604.322 299.641"/><polygon class="cls-2" points="603.012 284.815 611.08 291.575 596.255 292.882 603.012 284.815"/><polygon class="cls-2" points="597.01 293.514 604.378 301.919 610.6 292.147 604.322 299.641 597.01 293.514"/><polygon class="cls-8" points="814.32 517.178 829.725 530.016 841.255 524.502 823.096 509.207 851.351 519.675 853.036 518.867 848.095 513.262 857.455 516.756 861.92 514.62 848.42 504.328 867.402 511.999 883.176 504.453 783.198 465.259 762.606 477.626 753.647 483.006 734.709 494.381 734.707 494.38 819.322 534.993 828.115 530.788 814.32 517.178"/><polygon class="cls-2" points="814.32 517.178 829.725 530.016 841.255 524.502 823.096 509.207 851.351 519.675 853.036 518.867 848.095 513.262 857.455 516.756 861.92 514.62 848.42 504.328 867.402 511.999 883.176 504.453 783.198 465.259 762.606 477.626 753.647 483.006 734.709 494.381 734.707 494.38 819.322 534.993 828.115 530.788 814.32 517.178"/><polygon class="cls-8" points="772.774 385.784 761.649 393.825 763.1 405.73 758.06 396.42 754.064 399.307 754.385 404.156 751.644 401.057 749.436 402.654 750.449 421.668 742.463 407.695 733.66 414.056 739.926 425.822 732.558 414.853 724.599 420.607 734.706 494.38 734.709 494.381 753.647 483.006 762.606 477.626 783.198 465.259 772.774 385.784"/><polygon class="cls-9" points="536.416 613.464 536.415 613.465 604.946 640.339 569.977 593.31 536.416 613.464"/><polygon class="cls-2" points="536.416 613.464 536.415 613.465 604.946 640.339 569.977 593.31 536.416 613.464"/><polygon class="cls-9" points="536.415 613.462 536.415 613.463 552.988 542.108 569.976 593.308 536.415 613.462"/><path class="cls-10" d="M763.50624,477.08514l-8.2916-10.12468L560.85943,587.97475c-4.1594,2.59005-3.33262,12.81081-3.33262,12.81081s7.56359,6.35871,11.86892,3.86929L772.00086,487.45908Z"/><path class="cls-2" d="M569.39573,604.65485,772.00086,487.45908l-8.49462-10.37394L557.52681,600.78556S565.0904,607.14427,569.39573,604.65485Z"/><polygon class="cls-2" points="584.613 584.519 571.333 603.533 569.396 604.655 566.987 625.453 536.415 613.465 584.613 584.519"/><polygon class="cls-11" points="536.415 613.463 585.44 581.514 587.494 585.308 536.415 613.463"/><polygon class="cls-8" points="819.961 362.319 801.869 375.138 799.805 388.658 796.098 379.228 789.712 383.755 788.531 389.304 785.861 386.483 782.358 388.966 777.511 410.546 771.379 396.743 757.68 406.453 762.246 418.098 755.976 407.659 743.763 416.314 734.706 494.38 734.709 494.381 762.32 477.798 775.629 469.806 806.838 451.064 819.961 362.319"/><polygon class="cls-8" points="830.747 500.479 846.871 510.794 864.355 502.184 845.264 489.766 879.871 494.542 882.482 493.255 877.778 488.261 889.352 489.873 896.33 486.436 881.536 478.287 904.956 482.189 930.112 469.8 806.838 451.064 775.629 469.806 762.32 477.798 734.709 494.381 734.707 494.38 831.309 518.458 844.448 511.986 830.747 500.479"/><polygon class="cls-2" points="819.961 362.319 801.869 375.138 799.805 388.658 796.098 379.228 789.712 383.755 788.531 389.304 785.861 386.483 782.358 388.966 777.511 410.546 771.379 396.743 757.68 406.453 762.246 418.098 755.976 407.659 743.763 416.314 734.706 494.38 734.709 494.381 762.32 477.798 775.629 469.806 806.838 451.064 819.961 362.319"/><polygon class="cls-2" points="830.747 500.479 846.871 510.794 864.355 502.184 845.264 489.766 879.871 494.542 882.482 493.255 877.778 488.261 889.352 489.873 896.33 486.436 881.536 478.287 904.956 482.189 930.112 469.8 806.838 451.064 775.629 469.806 762.32 477.798 734.709 494.381 734.707 494.38 831.309 518.458 844.448 511.986 830.747 500.479"/><polygon class="cls-2" points="830.747 500.479 846.871 510.794 864.355 502.184 845.264 489.766 879.871 494.542 882.482 493.255 877.778 488.261 889.352 489.873 896.33 486.436 881.536 478.287 904.956 482.189 930.112 469.8 806.838 451.064 775.629 469.806 762.32 477.798 734.709 494.381 734.707 494.38 831.309 518.458 844.448 511.986 830.747 500.479"/><rect class="cls-12" x="165.08207" y="239.0175" width="742.66667" height="742.66667"/><path class="cls-13" d="M775.51757,907.20223h16.66964L727.89,820.0439v-.95261h-.70232l-42.16247-57.153H751.7038V747.65H339.72562v14.28827h63.76694l-104.25035,145.264h16.66964L369.63,830.99817H721.38311ZM378.023,819.09129l40.28806-57.153h254.0143l40.59969,57.153Z"/><path class="cls-13" d="M915.19154,907.26278l-23.67285.3753-23.67236.28363-47.34473.55945-94.69043.69586c-31.563.28058-63.12646.30255-94.68994.44617l-94.68994.13812L441.74135,909.63l-47.34522-.17675-23.67236-.0954-23.67236-.172-94.68995-.69751-47.34521-.563-23.67236-.28485-23.67237-.37768,23.67237-.37775,23.67236-.28479,47.34521-.563,94.68995-.69751,23.67236-.172,23.67236-.09539,47.34522-.17676,94.68994-.13135,94.68994.13812c31.56348.14362,63.127.16559,94.68994.44617l94.69043.69586,47.34473.55945,23.67236.28363Z"/><path class="cls-14" d="M893.02147,750.03879c-19.89075-.79542-43.83309,20.72527-40.09446,19.85164,4.42408-1.03759,7.02265.67429,7.02265.67429-14.08259,4.97735-23.03886,23.29036-18.29995,19.83119,5.58465-4.07578,9.843-2.69175,9.843-2.69175-16.4577,11.39837-21.22079,30.70423-18.85694,29.08544,9.15184-6.2701,11.46357-5.918,11.46357-5.918-10.88612,10.737-2.4496,32.20743-.71159,23.49522,1.74726-8.71034,17.22136-10.07577,17.22136-10.07577a2.14982,2.14982,0,0,1,2.14592.60911s9.87463,11.98889,4.88984,19.34124c-4.99227,7.35055,16.22851-1.69137,16.2546-16.97734,0,0,1.86838,1.39709,3.815,12.32041.50668,2.82212,10.92895-14.11054,7.52189-33.83738,0,0,3.97334,2.06581,4.98107,8.90595.85689,5.80439,7.63557-13.42507,1.30767-26.95258,0,0,3.04755.65569,5.40582,4.53214,1.99127,3.27663,2.78669-26.5483-11.72623-40.169Z"/><path class="cls-15" d="M895.2363,805.74707s3.97334,2.06581,4.98107,8.90595c.85689,5.80439,7.63557-13.42507,1.30767-26.95258,0,0,3.04755.65569,5.40582,4.53214,1.99127,3.27663,2.78669-26.5483-11.72623-40.169l-1.64668-1.52374c-.0764,1.52.70038,18.06895-.25522,24.56075-1.34306,9.07544-2.92828,17.33872-6.34459,25.84606a231.65947,231.65947,0,0,1-18.17329,35.87524,9.58943,9.58943,0,0,1-1.14,7.41945c-4.99227,7.35055,16.22851-1.69137,16.2546-16.97734,0,0,1.86838,1.39709,3.815,12.32041C888.22109,842.40657,898.64336,825.47391,895.2363,805.74707Z"/><path class="cls-16" d="M834.9437,865.92044s31.06747-37.7306,54.3224-109.27255"/><path class="cls-17" d="M802.2594,741.05643c-13.73242,14.41049-13.38035,46.59932-11.57348,43.21649,2.1422-4.0031,5.145-4.82646,5.145-4.82646-5.56041,13.85908,2.27258,32.68248,2.8072,26.83895.6259-6.88669,4.47625-9.17048,4.47625-9.17048-2.30238,19.887,9.04941,36.21429,9.39218,33.36427,1.33372-11.01091,3.1257-12.51044,3.1257-12.51044.8774,15.2599,22.56576,23.10591,17.17673,16.04411-5.39275-7.06181,3.80377-19.58154,3.80377-19.58154a2.14491,2.14491,0,0,1,1.8721-1.21078s15.52813.49733,17.75231,9.09967c2.226,8.60233,9.45359-13.304-2.01183-23.417,0,0,2.28565-.48059,11.77277,5.26981,2.45517,1.48837-3.38093-17.525-20.44215-27.992,0,0,4.17262-1.61874,9.97706,2.1422,4.92518,3.18908-5.0444-14.59676-19.37663-18.7843,0,0,2.50358-1.85347,6.97239-1.06362,3.774.66686-18.09876-19.62441-37.9113-17.7225Z"/><path class="cls-15" d="M845.556,776.181s4.17262-1.61874,9.97706,2.1422c4.92518,3.18908-5.0444-14.59676-19.37663-18.7843,0,0,2.50358-1.85347,6.97239-1.06362,3.774.66686-18.09876-19.62441-37.9113-17.7225l-2.22789.22914c1.08974,1.06366,14.03233,11.40581,18.27386,16.413,5.92737,7.00029,11.08541,13.65045,15.21893,21.82989a230.87327,230.87327,0,0,1,14.93576,37.34129,9.57745,9.57745,0,0,1,4.819,5.75413c2.226,8.60233,9.45359-13.304-2.01183-23.417,0,0,2.28565-.48059,11.77277,5.26981C868.45328,805.66138,862.61718,786.648,845.556,776.181Z"/><path class="cls-16" d="M850.92825,861.189s-7.81812-48.24228-46.18764-112.94966"/><path class="cls-18" d="M807.67824,834.40033c-7.6393-4.84878,1.64482,61.07871,1.64482,61.07871,1.29461,5.15427,3.84292,9.4629,8.58555,9.4629h64.21186c4.74635,0,7.25369-3.69947,8.59113-9.4629,0,0,8.53528-63.98648,2.30429-61.32273C884.72839,837.70305,817.86946,840.866,807.67824,834.40033Z"/><path class="cls-19" d="M893.01589,834.15631c-2.08073.89042-7.874,1.76033-15.53557,2.45513-.285,2.17949-.62966,4.34773-.9165,6.49365q.38275-2.90314.77677-5.80252A96.74387,96.74387,0,0,1,868.932,866.822c-3.46852,7.41945-8.42164,14.01182-13.80133,20.16084a61.6603,61.6603,0,0,1-26.10128,17.95908h53.09107c4.74635,0,7.25369-3.69947,8.59113-9.4629C890.7116,895.479,899.24688,831.49256,893.01589,834.15631Z"/></g></g></svg>