<svg xmlns="http://www.w3.org/2000/svg" width="33.063" height="33.069" viewBox="0 0 33.063 33.069">
  <g id="instagram" transform="translate(-0.449)">
    <path id="Path_5" data-name="Path 5" d="M33.428,9.722a12.084,12.084,0,0,0-.769-4.012A8.471,8.471,0,0,0,27.821.872,12.115,12.115,0,0,0,23.809.1C22.039.019,21.477,0,16.987,0s-5.052.019-6.815.1A12.087,12.087,0,0,0,6.16.866,8.069,8.069,0,0,0,3.227,2.778,8.142,8.142,0,0,0,1.321,5.7,12.116,12.116,0,0,0,.553,9.716c-.084,1.77-.1,2.332-.1,6.822s.019,5.052.1,6.815a12.083,12.083,0,0,0,.769,4.012A8.47,8.47,0,0,0,6.154,32.2a12.116,12.116,0,0,0,4.012.769c1.763.078,2.326.1,6.815.1s5.052-.019,6.815-.1a12.08,12.08,0,0,0,4.012-.769,8.458,8.458,0,0,0,4.839-4.838,12.124,12.124,0,0,0,.769-4.012c.077-1.764.1-2.326.1-6.815S33.505,11.486,33.428,9.722Zm-2.978,13.5a9.064,9.064,0,0,1-.569,3.069,5.486,5.486,0,0,1-3.14,3.14A9.1,9.1,0,0,1,23.673,30c-1.744.078-2.267.1-6.68.1s-4.942-.019-6.68-.1a9.059,9.059,0,0,1-3.069-.568,5.089,5.089,0,0,1-1.9-1.234,5.141,5.141,0,0,1-1.234-1.9,9.1,9.1,0,0,1-.568-3.069c-.078-1.744-.1-2.268-.1-6.68s.019-4.942.1-6.68A9.059,9.059,0,0,1,4.112,6.8,5.026,5.026,0,0,1,5.353,4.9a5.133,5.133,0,0,1,1.9-1.234A9.1,9.1,0,0,1,10.32,3.1C12.064,3.023,12.588,3,17,3s4.942.019,6.68.1a9.064,9.064,0,0,1,3.069.569,5.085,5.085,0,0,1,1.9,1.234,5.14,5.14,0,0,1,1.234,1.9,9.1,9.1,0,0,1,.569,3.069c.077,1.744.1,2.267.1,6.68S30.527,21.48,30.45,23.224Zm0,0" transform="translate(0 0)"/>
    <path id="Path_6" data-name="Path 6" d="M133.444,124.5a8.5,8.5,0,1,0,8.5,8.495A8.5,8.5,0,0,0,133.444,124.5Zm0,14.006a5.51,5.51,0,1,1,5.51-5.511A5.511,5.511,0,0,1,133.444,138.506Zm0,0" transform="translate(-116.457 -116.457)"/>
    <path id="Path_7" data-name="Path 7" d="M366.416,90.585a1.983,1.983,0,1,1-1.983-1.983A1.983,1.983,0,0,1,366.416,90.585Zm0,0" transform="translate(-338.615 -82.878)"/>
  </g>
</svg>
