<svg xmlns="http://www.w3.org/2000/svg" width="39.192" height="31.851" viewBox="0 0 39.192 31.851">
  <g id="twitter.70283587" transform="translate(0 -48)">
    <g id="Group_1" data-name="Group 1" transform="translate(0 48)">
      <path id="Path_1" data-name="Path 1" d="M39.192,51.766a16.606,16.606,0,0,1-4.631,1.271A7.979,7.979,0,0,0,38.1,48.6,16.113,16.113,0,0,1,33,50.541a8.031,8.031,0,0,0-13.893,5.5,8.381,8.381,0,0,0,.184,1.829,22.765,22.765,0,0,1-16.565-8.4A8.034,8.034,0,0,0,5.19,60.2a7.9,7.9,0,0,1-3.628-.987v.092A8.067,8.067,0,0,0,8,67.2a8.132,8.132,0,0,1-2.105.268,7.188,7.188,0,0,1-1.523-.138,8.108,8.108,0,0,0,7.509,5.6,16.166,16.166,0,0,1-9.959,3.429A15.811,15.811,0,0,1,0,76.246a22.609,22.609,0,0,0,12.324,3.605C27.113,79.851,35.2,67.6,35.2,56.987c0-.352-.015-.7-.031-1.041A16.089,16.089,0,0,0,39.192,51.766Z" transform="translate(0 -48)" fill="#141415"/>
    </g>
  </g>
</svg>
